M48
; DRILL file {KiCad 5.1.6-c6e7f7d~87~ubuntu18.04.1} date Fri Aug 28 14:59:30 2020
; FORMAT={2:4/ absolute / inch / suppress leading zeros}
; #@! TF.CreationDate,2020-08-28T14:59:30-05:00
; #@! TF.GenerationSoftware,Kicad,Pcbnew,5.1.6-c6e7f7d~87~ubuntu18.04.1
; #@! TF.FileFunction,Plated,1,2,PTH
FMAT,2
INCH,TZ
T1C0.0157
T2C0.0300
%
G90
G05
T1
X39370Y-40846
X41831Y-40846
X52657Y-59055
X53642Y-60039
X54134Y-41339
X57094Y-60047
X58079Y-60047
X60000Y-49173
X60039Y-50689
X61000Y-48205
X61024Y-50689
X62008Y-47244
X62008Y-50197
X69882Y-6398
X70374Y-6890
X70866Y-7382
X70866Y-23622
X70866Y-24606
X70866Y-25098
X70866Y-26083
X70866Y-26575
X71358Y-7874
X71850Y-8366
X71850Y-22638
X72343Y-8858
X72835Y-9350
X72835Y-22638
X73327Y-9843
X73327Y-22638
X74311Y-10827
X74311Y-22638
X74803Y-11319
X74803Y-22638
X75295Y-11811
X75787Y-12303
X76280Y-12795
X76772Y-13287
X77264Y-13780
X77756Y-14272
X78248Y-14764
X78740Y-15256
X79232Y-15748
T2
X43205Y-18016
X43205Y-19984
X44189Y-18016
X44189Y-19984
X45173Y-18016
X45173Y-19984
X46157Y-18016
X46157Y-19984
X47142Y-18016
X47142Y-19984
X48126Y-18016
X48126Y-19984
X49110Y-18016
X49110Y-19984
X50094Y-18016
X50094Y-19984
X51079Y-18016
X51079Y-19984
X52063Y-18016
X52063Y-19984
X53047Y-18016
X53047Y-19984
X54031Y-18016
X54031Y-19984
X54031Y-19984
X55016Y-18016
X55016Y-19984
X56984Y-18016
X56984Y-19984
X57969Y-18016
X57969Y-19984
X58953Y-18016
X58953Y-19984
X59937Y-18016
X59937Y-19984
X60921Y-18016
X60921Y-19984
X61906Y-18016
X61906Y-19984
X62890Y-18016
X62890Y-19984
X63874Y-18016
X63874Y-19984
X64858Y-18016
X64858Y-19984
X65843Y-18016
X65843Y-19984
X66827Y-18016
X66827Y-19984
X46000Y-33000
X46000Y-42000
X47000Y-33000
X47000Y-42000
X48000Y-33000
X48000Y-42000
X49000Y-33000
X49000Y-42000
X50000Y-33000
X50000Y-42000
X51000Y-33000
X51000Y-42000
X52000Y-33000
X52000Y-42000
X53000Y-33000
X53000Y-42000
X54000Y-33000
X54000Y-42000
X57000Y-33000
X57000Y-42000
X58000Y-33000
X58000Y-42000
X59000Y-33000
X59000Y-42000
X60000Y-33000
X60000Y-42000
X61000Y-33000
X61000Y-42000
X62000Y-33000
X62000Y-42000
X63000Y-33000
X63000Y-42000
X64000Y-33000
X64000Y-42000
X65000Y-33000
X65000Y-42000
T0
M30
