%TF.GenerationSoftware,KiCad,Pcbnew,5.1.6-c6e7f7d~87~ubuntu18.04.1*%
%TF.CreationDate,2020-08-28T14:58:37-05:00*%
%TF.ProjectId,test_pcb,74657374-5f70-4636-922e-6b696361645f,rev?*%
%TF.SameCoordinates,Original*%
%TF.FileFunction,Copper,L1,Top*%
%TF.FilePolarity,Positive*%
%FSLAX46Y46*%
G04 Gerber Fmt 4.6, Leading zero omitted, Abs format (unit mm)*
G04 Created by KiCad (PCBNEW 5.1.6-c6e7f7d~87~ubuntu18.04.1) date 2020-08-28 14:58:37*
%MOMM*%
%LPD*%
G01*
G04 APERTURE LIST*
%TA.AperFunction,NonConductor*%
%ADD10C,0.300000*%
%TD*%
%TA.AperFunction,ComponentPad*%
%ADD11C,1.524000*%
%TD*%
%TA.AperFunction,SMDPad,CuDef*%
%ADD12R,1.800000X20.000000*%
%TD*%
%TA.AperFunction,ViaPad*%
%ADD13C,0.800000*%
%TD*%
%TA.AperFunction,Conductor*%
%ADD14C,0.250000*%
%TD*%
G04 APERTURE END LIST*
D10*
X89714285Y-16878571D02*
X89714285Y-15378571D01*
X90571428Y-16878571D01*
X90571428Y-15378571D01*
X91928571Y-15378571D02*
X91642857Y-15378571D01*
X91500000Y-15450000D01*
X91428571Y-15521428D01*
X91285714Y-15735714D01*
X91214285Y-16021428D01*
X91214285Y-16592857D01*
X91285714Y-16735714D01*
X91357142Y-16807142D01*
X91500000Y-16878571D01*
X91785714Y-16878571D01*
X91928571Y-16807142D01*
X92000000Y-16735714D01*
X92071428Y-16592857D01*
X92071428Y-16235714D01*
X92000000Y-16092857D01*
X91928571Y-16021428D01*
X91785714Y-15950000D01*
X91500000Y-15950000D01*
X91357142Y-16021428D01*
X91285714Y-16092857D01*
X91214285Y-16235714D01*
X93357142Y-15878571D02*
X93357142Y-16878571D01*
X93000000Y-15307142D02*
X92642857Y-16378571D01*
X93571428Y-16378571D01*
X96071428Y-15450000D02*
X95928571Y-15378571D01*
X95714285Y-15378571D01*
X95500000Y-15450000D01*
X95357142Y-15592857D01*
X95285714Y-15735714D01*
X95214285Y-16021428D01*
X95214285Y-16235714D01*
X95285714Y-16521428D01*
X95357142Y-16664285D01*
X95500000Y-16807142D01*
X95714285Y-16878571D01*
X95857142Y-16878571D01*
X96071428Y-16807142D01*
X96142857Y-16735714D01*
X96142857Y-16235714D01*
X95857142Y-16235714D01*
X97428571Y-16878571D02*
X97428571Y-16092857D01*
X97357142Y-15950000D01*
X97214285Y-15878571D01*
X96928571Y-15878571D01*
X96785714Y-15950000D01*
X97428571Y-16807142D02*
X97285714Y-16878571D01*
X96928571Y-16878571D01*
X96785714Y-16807142D01*
X96714285Y-16664285D01*
X96714285Y-16521428D01*
X96785714Y-16378571D01*
X96928571Y-16307142D01*
X97285714Y-16307142D01*
X97428571Y-16235714D01*
X98142857Y-16878571D02*
X98142857Y-15878571D01*
X98142857Y-16021428D02*
X98214285Y-15950000D01*
X98357142Y-15878571D01*
X98571428Y-15878571D01*
X98714285Y-15950000D01*
X98785714Y-16092857D01*
X98785714Y-16878571D01*
X98785714Y-16092857D02*
X98857142Y-15950000D01*
X99000000Y-15878571D01*
X99214285Y-15878571D01*
X99357142Y-15950000D01*
X99428571Y-16092857D01*
X99428571Y-16878571D01*
X100714285Y-16807142D02*
X100571428Y-16878571D01*
X100285714Y-16878571D01*
X100142857Y-16807142D01*
X100071428Y-16664285D01*
X100071428Y-16092857D01*
X100142857Y-15950000D01*
X100285714Y-15878571D01*
X100571428Y-15878571D01*
X100714285Y-15950000D01*
X100785714Y-16092857D01*
X100785714Y-16235714D01*
X100071428Y-16378571D01*
X102285714Y-16735714D02*
X102214285Y-16807142D01*
X102000000Y-16878571D01*
X101857142Y-16878571D01*
X101642857Y-16807142D01*
X101500000Y-16664285D01*
X101428571Y-16521428D01*
X101357142Y-16235714D01*
X101357142Y-16021428D01*
X101428571Y-15735714D01*
X101500000Y-15592857D01*
X101642857Y-15450000D01*
X101857142Y-15378571D01*
X102000000Y-15378571D01*
X102214285Y-15450000D01*
X102285714Y-15521428D01*
X103571428Y-16878571D02*
X103571428Y-16092857D01*
X103500000Y-15950000D01*
X103357142Y-15878571D01*
X103071428Y-15878571D01*
X102928571Y-15950000D01*
X103571428Y-16807142D02*
X103428571Y-16878571D01*
X103071428Y-16878571D01*
X102928571Y-16807142D01*
X102857142Y-16664285D01*
X102857142Y-16521428D01*
X102928571Y-16378571D01*
X103071428Y-16307142D01*
X103428571Y-16307142D01*
X103571428Y-16235714D01*
X104071428Y-15878571D02*
X104642857Y-15878571D01*
X104285714Y-15378571D02*
X104285714Y-16664285D01*
X104357142Y-16807142D01*
X104499999Y-16878571D01*
X104642857Y-16878571D01*
X106142857Y-15878571D02*
X106499999Y-16878571D01*
X106857142Y-15878571D01*
X107714285Y-15378571D02*
X107857142Y-15378571D01*
X107999999Y-15450000D01*
X108071428Y-15521428D01*
X108142857Y-15664285D01*
X108214285Y-15950000D01*
X108214285Y-16307142D01*
X108142857Y-16592857D01*
X108071428Y-16735714D01*
X107999999Y-16807142D01*
X107857142Y-16878571D01*
X107714285Y-16878571D01*
X107571428Y-16807142D01*
X107499999Y-16735714D01*
X107428571Y-16592857D01*
X107357142Y-16307142D01*
X107357142Y-15950000D01*
X107428571Y-15664285D01*
X107499999Y-15521428D01*
X107571428Y-15450000D01*
X107714285Y-15378571D01*
X108857142Y-16735714D02*
X108928571Y-16807142D01*
X108857142Y-16878571D01*
X108785714Y-16807142D01*
X108857142Y-16735714D01*
X108857142Y-16878571D01*
X110357142Y-16878571D02*
X109499999Y-16878571D01*
X109928571Y-16878571D02*
X109928571Y-15378571D01*
X109785714Y-15592857D01*
X109642857Y-15735714D01*
X109499999Y-15807142D01*
X84857142Y-19000000D02*
X85571428Y-19000000D01*
X84714285Y-19428571D02*
X85214285Y-17928571D01*
X85714285Y-19428571D01*
X86214285Y-18428571D02*
X86214285Y-19428571D01*
X86214285Y-18571428D02*
X86285714Y-18500000D01*
X86428571Y-18428571D01*
X86642857Y-18428571D01*
X86785714Y-18500000D01*
X86857142Y-18642857D01*
X86857142Y-19428571D01*
X88214285Y-19428571D02*
X88214285Y-17928571D01*
X88214285Y-19357142D02*
X88071428Y-19428571D01*
X87785714Y-19428571D01*
X87642857Y-19357142D01*
X87571428Y-19285714D01*
X87500000Y-19142857D01*
X87500000Y-18714285D01*
X87571428Y-18571428D01*
X87642857Y-18500000D01*
X87785714Y-18428571D01*
X88071428Y-18428571D01*
X88214285Y-18500000D01*
X88928571Y-19428571D02*
X88928571Y-18428571D01*
X88928571Y-18714285D02*
X89000000Y-18571428D01*
X89071428Y-18500000D01*
X89214285Y-18428571D01*
X89357142Y-18428571D01*
X90428571Y-19357142D02*
X90285714Y-19428571D01*
X90000000Y-19428571D01*
X89857142Y-19357142D01*
X89785714Y-19214285D01*
X89785714Y-18642857D01*
X89857142Y-18500000D01*
X90000000Y-18428571D01*
X90285714Y-18428571D01*
X90428571Y-18500000D01*
X90500000Y-18642857D01*
X90500000Y-18785714D01*
X89785714Y-18928571D01*
X91000000Y-18428571D02*
X91285714Y-19428571D01*
X91571428Y-18714285D01*
X91857142Y-19428571D01*
X92142857Y-18428571D01*
X93642857Y-17928571D02*
X94500000Y-17928571D01*
X94071428Y-19428571D02*
X94071428Y-17928571D01*
X95000000Y-19428571D02*
X95000000Y-17928571D01*
X95642857Y-19428571D02*
X95642857Y-18642857D01*
X95571428Y-18500000D01*
X95428571Y-18428571D01*
X95214285Y-18428571D01*
X95071428Y-18500000D01*
X95000000Y-18571428D01*
X96571428Y-19428571D02*
X96428571Y-19357142D01*
X96357142Y-19285714D01*
X96285714Y-19142857D01*
X96285714Y-18714285D01*
X96357142Y-18571428D01*
X96428571Y-18500000D01*
X96571428Y-18428571D01*
X96785714Y-18428571D01*
X96928571Y-18500000D01*
X97000000Y-18571428D01*
X97071428Y-18714285D01*
X97071428Y-19142857D01*
X97000000Y-19285714D01*
X96928571Y-19357142D01*
X96785714Y-19428571D01*
X96571428Y-19428571D01*
X97714285Y-19428571D02*
X97714285Y-18428571D01*
X97714285Y-18571428D02*
X97785714Y-18500000D01*
X97928571Y-18428571D01*
X98142857Y-18428571D01*
X98285714Y-18500000D01*
X98357142Y-18642857D01*
X98357142Y-19428571D01*
X98357142Y-18642857D02*
X98428571Y-18500000D01*
X98571428Y-18428571D01*
X98785714Y-18428571D01*
X98928571Y-18500000D01*
X99000000Y-18642857D01*
X99000000Y-19428571D01*
X100357142Y-19428571D02*
X100357142Y-18642857D01*
X100285714Y-18500000D01*
X100142857Y-18428571D01*
X99857142Y-18428571D01*
X99714285Y-18500000D01*
X100357142Y-19357142D02*
X100214285Y-19428571D01*
X99857142Y-19428571D01*
X99714285Y-19357142D01*
X99642857Y-19214285D01*
X99642857Y-19071428D01*
X99714285Y-18928571D01*
X99857142Y-18857142D01*
X100214285Y-18857142D01*
X100357142Y-18785714D01*
X101000000Y-19357142D02*
X101142857Y-19428571D01*
X101428571Y-19428571D01*
X101571428Y-19357142D01*
X101642857Y-19214285D01*
X101642857Y-19142857D01*
X101571428Y-19000000D01*
X101428571Y-18928571D01*
X101214285Y-18928571D01*
X101071428Y-18857142D01*
X101000000Y-18714285D01*
X101000000Y-18642857D01*
X101071428Y-18500000D01*
X101214285Y-18428571D01*
X101428571Y-18428571D01*
X101571428Y-18500000D01*
X103857142Y-20000000D02*
X103785714Y-19928571D01*
X103642857Y-19714285D01*
X103571428Y-19571428D01*
X103500000Y-19357142D01*
X103428571Y-19000000D01*
X103428571Y-18714285D01*
X103500000Y-18357142D01*
X103571428Y-18142857D01*
X103642857Y-18000000D01*
X103785714Y-17785714D01*
X103857142Y-17714285D01*
X105285714Y-19285714D02*
X105214285Y-19357142D01*
X105000000Y-19428571D01*
X104857142Y-19428571D01*
X104642857Y-19357142D01*
X104500000Y-19214285D01*
X104428571Y-19071428D01*
X104357142Y-18785714D01*
X104357142Y-18571428D01*
X104428571Y-18285714D01*
X104500000Y-18142857D01*
X104642857Y-18000000D01*
X104857142Y-17928571D01*
X105000000Y-17928571D01*
X105214285Y-18000000D01*
X105285714Y-18071428D01*
X105785714Y-18428571D02*
X106142857Y-19428571D01*
X106500000Y-18428571D02*
X106142857Y-19428571D01*
X106000000Y-19785714D01*
X105928571Y-19857142D01*
X105785714Y-19928571D01*
X107714285Y-19428571D02*
X107714285Y-18642857D01*
X107642857Y-18500000D01*
X107500000Y-18428571D01*
X107214285Y-18428571D01*
X107071428Y-18500000D01*
X107714285Y-19357142D02*
X107571428Y-19428571D01*
X107214285Y-19428571D01*
X107071428Y-19357142D01*
X107000000Y-19214285D01*
X107000000Y-19071428D01*
X107071428Y-18928571D01*
X107214285Y-18857142D01*
X107571428Y-18857142D01*
X107714285Y-18785714D01*
X108428571Y-18428571D02*
X108428571Y-19428571D01*
X108428571Y-18571428D02*
X108500000Y-18500000D01*
X108642857Y-18428571D01*
X108857142Y-18428571D01*
X109000000Y-18500000D01*
X109071428Y-18642857D01*
X109071428Y-19428571D01*
X110285714Y-18642857D02*
X110500000Y-18714285D01*
X110571428Y-18785714D01*
X110642857Y-18928571D01*
X110642857Y-19142857D01*
X110571428Y-19285714D01*
X110500000Y-19357142D01*
X110357142Y-19428571D01*
X109785714Y-19428571D01*
X109785714Y-17928571D01*
X110285714Y-17928571D01*
X110428571Y-18000000D01*
X110500000Y-18071428D01*
X110571428Y-18214285D01*
X110571428Y-18357142D01*
X110500000Y-18500000D01*
X110428571Y-18571428D01*
X110285714Y-18642857D01*
X109785714Y-18642857D01*
X111500000Y-19428571D02*
X111357142Y-19357142D01*
X111285714Y-19214285D01*
X111285714Y-17928571D01*
X112285714Y-19428571D02*
X112142857Y-19357142D01*
X112071428Y-19285714D01*
X112000000Y-19142857D01*
X112000000Y-18714285D01*
X112071428Y-18571428D01*
X112142857Y-18500000D01*
X112285714Y-18428571D01*
X112500000Y-18428571D01*
X112642857Y-18500000D01*
X112714285Y-18571428D01*
X112785714Y-18714285D01*
X112785714Y-19142857D01*
X112714285Y-19285714D01*
X112642857Y-19357142D01*
X112500000Y-19428571D01*
X112285714Y-19428571D01*
X113428571Y-19428571D02*
X113428571Y-17928571D01*
X113428571Y-18500000D02*
X113571428Y-18428571D01*
X113857142Y-18428571D01*
X114000000Y-18500000D01*
X114071428Y-18571428D01*
X114142857Y-18714285D01*
X114142857Y-19142857D01*
X114071428Y-19285714D01*
X114000000Y-19357142D01*
X113857142Y-19428571D01*
X113571428Y-19428571D01*
X113428571Y-19357142D01*
X114642857Y-20000000D02*
X114714285Y-19928571D01*
X114857142Y-19714285D01*
X114928571Y-19571428D01*
X115000000Y-19357142D01*
X115071428Y-19000000D01*
X115071428Y-18714285D01*
X115000000Y-18357142D01*
X114928571Y-18142857D01*
X114857142Y-18000000D01*
X114714285Y-17785714D01*
X114642857Y-17714285D01*
X94785714Y-20478571D02*
X94928571Y-20478571D01*
X95071428Y-20550000D01*
X95142857Y-20621428D01*
X95214285Y-20764285D01*
X95285714Y-21050000D01*
X95285714Y-21407142D01*
X95214285Y-21692857D01*
X95142857Y-21835714D01*
X95071428Y-21907142D01*
X94928571Y-21978571D01*
X94785714Y-21978571D01*
X94642857Y-21907142D01*
X94571428Y-21835714D01*
X94500000Y-21692857D01*
X94428571Y-21407142D01*
X94428571Y-21050000D01*
X94500000Y-20764285D01*
X94571428Y-20621428D01*
X94642857Y-20550000D01*
X94785714Y-20478571D01*
X96142857Y-21121428D02*
X96000000Y-21050000D01*
X95928571Y-20978571D01*
X95857142Y-20835714D01*
X95857142Y-20764285D01*
X95928571Y-20621428D01*
X96000000Y-20550000D01*
X96142857Y-20478571D01*
X96428571Y-20478571D01*
X96571428Y-20550000D01*
X96642857Y-20621428D01*
X96714285Y-20764285D01*
X96714285Y-20835714D01*
X96642857Y-20978571D01*
X96571428Y-21050000D01*
X96428571Y-21121428D01*
X96142857Y-21121428D01*
X96000000Y-21192857D01*
X95928571Y-21264285D01*
X95857142Y-21407142D01*
X95857142Y-21692857D01*
X95928571Y-21835714D01*
X96000000Y-21907142D01*
X96142857Y-21978571D01*
X96428571Y-21978571D01*
X96571428Y-21907142D01*
X96642857Y-21835714D01*
X96714285Y-21692857D01*
X96714285Y-21407142D01*
X96642857Y-21264285D01*
X96571428Y-21192857D01*
X96428571Y-21121428D01*
X98428571Y-20407142D02*
X97142857Y-22335714D01*
X98857142Y-20621428D02*
X98928571Y-20550000D01*
X99071428Y-20478571D01*
X99428571Y-20478571D01*
X99571428Y-20550000D01*
X99642857Y-20621428D01*
X99714285Y-20764285D01*
X99714285Y-20907142D01*
X99642857Y-21121428D01*
X98785714Y-21978571D01*
X99714285Y-21978571D01*
X101000000Y-20978571D02*
X101000000Y-21978571D01*
X100642857Y-20407142D02*
X100285714Y-21478571D01*
X101214285Y-21478571D01*
X102857142Y-20407142D02*
X101571428Y-22335714D01*
X103285714Y-20621428D02*
X103357142Y-20550000D01*
X103500000Y-20478571D01*
X103857142Y-20478571D01*
X104000000Y-20550000D01*
X104071428Y-20621428D01*
X104142857Y-20764285D01*
X104142857Y-20907142D01*
X104071428Y-21121428D01*
X103214285Y-21978571D01*
X104142857Y-21978571D01*
X105071428Y-20478571D02*
X105214285Y-20478571D01*
X105357142Y-20550000D01*
X105428571Y-20621428D01*
X105500000Y-20764285D01*
X105571428Y-21050000D01*
X105571428Y-21407142D01*
X105500000Y-21692857D01*
X105428571Y-21835714D01*
X105357142Y-21907142D01*
X105214285Y-21978571D01*
X105071428Y-21978571D01*
X104928571Y-21907142D01*
X104857142Y-21835714D01*
X104785714Y-21692857D01*
X104714285Y-21407142D01*
X104714285Y-21050000D01*
X104785714Y-20764285D01*
X104857142Y-20621428D01*
X104928571Y-20550000D01*
X105071428Y-20478571D01*
D11*
%TO.P,REF\u002A\u002A,49*%
%TO.N,N/C*%
X109740000Y-45760000D03*
%TO.P,REF\u002A\u002A,48*%
X109740000Y-50760000D03*
%TO.P,REF\u002A\u002A,47*%
X112240000Y-45760000D03*
%TO.P,REF\u002A\u002A,46*%
X114740000Y-45760000D03*
%TO.P,REF\u002A\u002A,45*%
X117240000Y-45760000D03*
%TO.P,REF\u002A\u002A,44*%
X119740000Y-45760000D03*
%TO.P,REF\u002A\u002A,43*%
X122240000Y-45760000D03*
%TO.P,REF\u002A\u002A,42*%
X124740000Y-45760000D03*
%TO.P,REF\u002A\u002A,41*%
X127240000Y-45760000D03*
%TO.P,REF\u002A\u002A,40*%
X129740000Y-45760000D03*
%TO.P,REF\u002A\u002A,39*%
X132240000Y-45760000D03*
%TO.P,REF\u002A\u002A,38*%
X134740000Y-45760000D03*
%TO.P,REF\u002A\u002A,37*%
X137240000Y-45760000D03*
%TO.P,REF\u002A\u002A,36*%
X139740000Y-45760000D03*
%TO.P,REF\u002A\u002A,35*%
X144740000Y-45760000D03*
%TO.P,REF\u002A\u002A,34*%
X147240000Y-45760000D03*
%TO.P,REF\u002A\u002A,33*%
X149740000Y-45760000D03*
%TO.P,REF\u002A\u002A,32*%
X152240000Y-45760000D03*
%TO.P,REF\u002A\u002A,31*%
X154740000Y-45760000D03*
%TO.P,REF\u002A\u002A,30*%
X157240000Y-45760000D03*
%TO.P,REF\u002A\u002A,29*%
X159740000Y-45760000D03*
%TO.P,REF\u002A\u002A,28*%
X162240000Y-45760000D03*
%TO.P,REF\u002A\u002A,27*%
X164740000Y-45760000D03*
%TO.P,REF\u002A\u002A,26*%
X167240000Y-45760000D03*
%TO.P,REF\u002A\u002A,25*%
X169740000Y-45760000D03*
%TO.P,REF\u002A\u002A,24*%
X169740000Y-50760000D03*
%TO.P,REF\u002A\u002A,23*%
X167240000Y-50760000D03*
%TO.P,REF\u002A\u002A,22*%
X164740000Y-50760000D03*
%TO.P,REF\u002A\u002A,21*%
X162240000Y-50760000D03*
%TO.P,REF\u002A\u002A,20*%
X159740000Y-50760000D03*
%TO.P,REF\u002A\u002A,19*%
X157240000Y-50760000D03*
%TO.P,REF\u002A\u002A,18*%
X154740000Y-50760000D03*
%TO.P,REF\u002A\u002A,17*%
X152240000Y-50760000D03*
%TO.P,REF\u002A\u002A,16*%
X149740000Y-50760000D03*
%TO.P,REF\u002A\u002A,15*%
X147240000Y-50760000D03*
%TO.P,REF\u002A\u002A,14*%
X144740000Y-50760000D03*
%TO.P,REF\u002A\u002A,13*%
X139740000Y-50760000D03*
%TO.P,REF\u002A\u002A,12*%
X137240000Y-50760000D03*
%TO.P,REF\u002A\u002A,11*%
X137240000Y-50760000D03*
%TO.P,REF\u002A\u002A,10*%
X134740000Y-50760000D03*
%TO.P,REF\u002A\u002A,9*%
X132240000Y-50760000D03*
%TO.P,REF\u002A\u002A,8*%
X129740000Y-50760000D03*
%TO.P,REF\u002A\u002A,7*%
X127240000Y-50760000D03*
%TO.P,REF\u002A\u002A,6*%
X124740000Y-50760000D03*
%TO.P,REF\u002A\u002A,5*%
X122240000Y-50760000D03*
%TO.P,REF\u002A\u002A,4*%
X119740000Y-50760000D03*
%TO.P,REF\u002A\u002A,3*%
X117240000Y-50760000D03*
%TO.P,REF\u002A\u002A,2*%
X114740000Y-50760000D03*
%TO.P,REF\u002A\u002A,1*%
X112240000Y-50760000D03*
%TD*%
D12*
%TO.P,REF\u002A\u002A,25*%
%TO.N,N/C*%
X170000000Y-167500000D03*
%TO.P,REF\u002A\u002A,24*%
X167500000Y-167500000D03*
%TO.P,REF\u002A\u002A,23*%
X165000000Y-167500000D03*
%TO.P,REF\u002A\u002A,22*%
X162500000Y-167500000D03*
%TO.P,REF\u002A\u002A,21*%
X160000000Y-167500000D03*
%TO.P,REF\u002A\u002A,20*%
X157500000Y-167500000D03*
%TO.P,REF\u002A\u002A,19*%
X155000000Y-167500000D03*
%TO.P,REF\u002A\u002A,18*%
X152500000Y-167500000D03*
%TO.P,REF\u002A\u002A,17*%
X150000000Y-167500000D03*
%TO.P,REF\u002A\u002A,16*%
X147500000Y-167500000D03*
%TO.P,REF\u002A\u002A,15*%
X145000000Y-167500000D03*
%TO.P,REF\u002A\u002A,14*%
X142500000Y-167500000D03*
%TO.P,REF\u002A\u002A,13*%
X140000000Y-167500000D03*
%TO.P,REF\u002A\u002A,12*%
X137500000Y-167500000D03*
%TO.P,REF\u002A\u002A,11*%
X135000000Y-167500000D03*
%TO.P,REF\u002A\u002A,10*%
X132500000Y-167500000D03*
%TO.P,REF\u002A\u002A,9*%
X130000000Y-167500000D03*
%TO.P,REF\u002A\u002A,8*%
X127500000Y-167500000D03*
%TO.P,REF\u002A\u002A,7*%
X125000000Y-167500000D03*
%TO.P,REF\u002A\u002A,6*%
X122500000Y-167500000D03*
%TO.P,REF\u002A\u002A,5*%
X120000000Y-167500000D03*
%TO.P,REF\u002A\u002A,4*%
X117500000Y-167500000D03*
%TO.P,REF\u002A\u002A,3*%
X115000000Y-167500000D03*
%TO.P,REF\u002A\u002A,2*%
X112500000Y-167500000D03*
%TO.P,REF\u002A\u002A,1*%
X110000000Y-167500000D03*
%TD*%
D11*
%TO.P,REF\u002A\u002A,1*%
%TO.N,N/C*%
X116840000Y-106680000D03*
%TO.P,REF\u002A\u002A,2*%
X119380000Y-106680000D03*
%TO.P,REF\u002A\u002A,3*%
X121920000Y-106680000D03*
%TO.P,REF\u002A\u002A,4*%
X124460000Y-106680000D03*
%TO.P,REF\u002A\u002A,5*%
X127000000Y-106680000D03*
%TO.P,REF\u002A\u002A,6*%
X129540000Y-106680000D03*
%TO.P,REF\u002A\u002A,7*%
X132080000Y-106680000D03*
%TO.P,REF\u002A\u002A,8*%
X134620000Y-106680000D03*
%TO.P,REF\u002A\u002A,9*%
X137160000Y-106680000D03*
%TO.P,REF\u002A\u002A,10*%
X144780000Y-106680000D03*
%TO.P,REF\u002A\u002A,12*%
X147320000Y-106680000D03*
%TO.P,REF\u002A\u002A,11*%
X149860000Y-106680000D03*
%TO.P,REF\u002A\u002A,13*%
X152400000Y-106680000D03*
%TO.P,REF\u002A\u002A,14*%
X154940000Y-106680000D03*
%TO.P,REF\u002A\u002A,15*%
X157480000Y-106680000D03*
%TO.P,REF\u002A\u002A,16*%
X160020000Y-106680000D03*
%TO.P,REF\u002A\u002A,17*%
X162560000Y-106680000D03*
%TO.P,REF\u002A\u002A,18*%
X165100000Y-106680000D03*
%TO.P,REF\u002A\u002A,19*%
X116840000Y-83820000D03*
%TO.P,REF\u002A\u002A,20*%
X119380000Y-83820000D03*
%TO.P,REF\u002A\u002A,21*%
X121920000Y-83820000D03*
%TO.P,REF\u002A\u002A,22*%
X124460000Y-83820000D03*
%TO.P,REF\u002A\u002A,23*%
X127000000Y-83820000D03*
%TO.P,REF\u002A\u002A,24*%
X129540000Y-83820000D03*
%TO.P,REF\u002A\u002A,25*%
X132080000Y-83820000D03*
%TO.P,REF\u002A\u002A,26*%
X134620000Y-83820000D03*
%TO.P,REF\u002A\u002A,27*%
X137160000Y-83820000D03*
%TO.P,REF\u002A\u002A,28*%
X144780000Y-83820000D03*
%TO.P,REF\u002A\u002A,29*%
X147320000Y-83820000D03*
%TO.P,REF\u002A\u002A,30*%
X149860000Y-83820000D03*
%TO.P,REF\u002A\u002A,31*%
X152400000Y-83820000D03*
%TO.P,REF\u002A\u002A,32*%
X154940000Y-83820000D03*
%TO.P,REF\u002A\u002A,33*%
X157480000Y-83820000D03*
%TO.P,REF\u002A\u002A,34*%
X160020000Y-83820000D03*
%TO.P,REF\u002A\u002A,35*%
X162560000Y-83820000D03*
%TO.P,REF\u002A\u002A,36*%
X165100000Y-83820000D03*
%TD*%
D13*
%TO.N,*%
X106250000Y-103750000D03*
X100000000Y-103750000D03*
X177500000Y-16250000D03*
X178750000Y-17500000D03*
X180000000Y-18750000D03*
X181250000Y-20000000D03*
X182500000Y-21250000D03*
X183750000Y-22500000D03*
X185000000Y-23750000D03*
X186250000Y-25000000D03*
X188750000Y-27500000D03*
X190000000Y-28750000D03*
X191250000Y-30000000D03*
X192500000Y-31250000D03*
X193750000Y-32500000D03*
X195000000Y-33750000D03*
X196250000Y-35000000D03*
X197500000Y-36250000D03*
X198750000Y-37500000D03*
X200000000Y-38750000D03*
X201250000Y-40000000D03*
X182500000Y-57500000D03*
X180000000Y-60000000D03*
X152400000Y-124900000D03*
X152500000Y-128750000D03*
X137500000Y-105000000D03*
X133750000Y-150000000D03*
X136250000Y-152500000D03*
X185000000Y-57500000D03*
X186250000Y-57500000D03*
X180000000Y-62500000D03*
X180000000Y-63750000D03*
X154940000Y-122440000D03*
X157500000Y-120000000D03*
X157500000Y-127500000D03*
X155000000Y-128750000D03*
X145020000Y-152520000D03*
X147520000Y-152520000D03*
X188750000Y-57500000D03*
X190000000Y-57500000D03*
X180000000Y-66250000D03*
X180000000Y-67500000D03*
%TD*%
D14*
%TO.N,*%
X117240000Y-50760000D02*
X117240000Y-56280000D01*
X117240000Y-56280000D02*
X121920000Y-60960000D01*
X121920000Y-60960000D02*
X121920000Y-83820000D01*
X144740000Y-50760000D02*
X144740000Y-83780000D01*
X137500000Y-156250000D02*
X137500000Y-167500000D01*
X111510000Y-130260000D02*
X137500000Y-156250000D01*
X111510000Y-103490000D02*
X111510000Y-130260000D01*
X137240000Y-50760000D02*
X137240000Y-103490000D01*
X137240000Y-103490000D02*
X111510000Y-103490000D01*
X135000000Y-156250000D02*
X135000000Y-167500000D01*
X110260000Y-131510000D02*
X135000000Y-156250000D01*
X110260000Y-102240000D02*
X110260000Y-131510000D01*
X134740000Y-50760000D02*
X134740000Y-102240000D01*
X134740000Y-102240000D02*
X110260000Y-102240000D01*
X109010000Y-132760000D02*
X132500000Y-156250000D01*
X109010000Y-100990000D02*
X109010000Y-132760000D01*
X132240000Y-50760000D02*
X132240000Y-100990000D01*
X132500000Y-156250000D02*
X132500000Y-167500000D01*
X132240000Y-100990000D02*
X109010000Y-100990000D01*
X127500000Y-156250000D02*
X127500000Y-167500000D01*
X129540000Y-59690000D02*
X129540000Y-99540000D01*
X129540000Y-99540000D02*
X102960000Y-99540000D01*
X127240000Y-57390000D02*
X129540000Y-59690000D01*
X127240000Y-50760000D02*
X127240000Y-57390000D01*
X102960000Y-99540000D02*
X102960000Y-131710000D01*
X102960000Y-131710000D02*
X127500000Y-156250000D01*
X125000000Y-156250000D02*
X125000000Y-167500000D01*
X124740000Y-57430000D02*
X127000000Y-59690000D01*
X127000000Y-98250000D02*
X101750000Y-98250000D01*
X124740000Y-50760000D02*
X124740000Y-57430000D01*
X127000000Y-59690000D02*
X127000000Y-98250000D01*
X101750000Y-98250000D02*
X101750000Y-133000000D01*
X101750000Y-133000000D02*
X125000000Y-156250000D01*
X122500000Y-156250000D02*
X122500000Y-167500000D01*
X117500000Y-156250000D02*
X117500000Y-167500000D01*
X92500000Y-95000000D02*
X92500000Y-131250000D01*
X92500000Y-131250000D02*
X117500000Y-156250000D01*
X121340000Y-95000000D02*
X92500000Y-95000000D01*
X121920000Y-83820000D02*
X121920000Y-94420000D01*
X121920000Y-94420000D02*
X121340000Y-95000000D01*
X115000000Y-156250000D02*
X115000000Y-167500000D01*
X114740000Y-56320000D02*
X119380000Y-60960000D01*
X114740000Y-50760000D02*
X114740000Y-56320000D01*
X119380000Y-94380000D02*
X90620000Y-94380000D01*
X119380000Y-60960000D02*
X119380000Y-94380000D01*
X90620000Y-94380000D02*
X90620000Y-131870000D01*
X90620000Y-131870000D02*
X115000000Y-156250000D01*
X112240000Y-50760000D02*
X112240000Y-92240000D01*
X112240000Y-92240000D02*
X111980000Y-92500000D01*
X111980000Y-92500000D02*
X88750000Y-92500000D01*
X109740000Y-50760000D02*
X109740000Y-89740000D01*
X109740000Y-89740000D02*
X108230000Y-91250000D01*
X108230000Y-91250000D02*
X86250000Y-91250000D01*
X88750000Y-92500000D02*
X88750000Y-132500000D01*
X112500000Y-156250000D02*
X112500000Y-167500000D01*
X88750000Y-132500000D02*
X112500000Y-156250000D01*
X86250000Y-91250000D02*
X86250000Y-132500000D01*
X110000000Y-156250000D02*
X110000000Y-167500000D01*
X86250000Y-132500000D02*
X110000000Y-156250000D01*
X106250000Y-103750000D02*
X106250000Y-132500000D01*
X130000000Y-156250000D02*
X130000000Y-167500000D01*
X106250000Y-132500000D02*
X130000000Y-156250000D01*
X100000000Y-103750000D02*
X100000000Y-133750000D01*
X100000000Y-133750000D02*
X122500000Y-156250000D01*
X120000000Y-156250000D02*
X120000000Y-167500000D01*
X119740000Y-56240000D02*
X124460000Y-60960000D01*
X119740000Y-50760000D02*
X119740000Y-56240000D01*
X124460000Y-96960000D02*
X98040000Y-96960000D01*
X124460000Y-60960000D02*
X124460000Y-96960000D01*
X98040000Y-96960000D02*
X98040000Y-134290000D01*
X98040000Y-134290000D02*
X120000000Y-156250000D01*
X145000000Y-156250000D02*
X145000000Y-167500000D01*
X140000000Y-151250000D02*
X145000000Y-156250000D01*
X140000000Y-105000000D02*
X140000000Y-151250000D01*
X144780000Y-83820000D02*
X144780000Y-100220000D01*
X144780000Y-100220000D02*
X140000000Y-105000000D01*
X147500000Y-156250000D02*
X147500000Y-167500000D01*
X147240000Y-86510000D02*
X146250000Y-87500000D01*
X147240000Y-50760000D02*
X147240000Y-86510000D01*
X142500000Y-106250000D02*
X142500000Y-151250000D01*
X146250000Y-87500000D02*
X146250000Y-102500000D01*
X146250000Y-102500000D02*
X142500000Y-106250000D01*
X142500000Y-151250000D02*
X147500000Y-156250000D01*
X150000000Y-156250000D02*
X150000000Y-167500000D01*
X168750000Y-137500000D02*
X150000000Y-156250000D01*
X168750000Y-78750000D02*
X168750000Y-137500000D01*
X150000000Y-78750000D02*
X168750000Y-78750000D01*
X149740000Y-50760000D02*
X149740000Y-78490000D01*
X149740000Y-78490000D02*
X150000000Y-78750000D01*
X152500000Y-77500000D02*
X170000000Y-77500000D01*
X152240000Y-50760000D02*
X152240000Y-77240000D01*
X152500000Y-156250000D02*
X152500000Y-167500000D01*
X170000000Y-138750000D02*
X152500000Y-156250000D01*
X170000000Y-77500000D02*
X170000000Y-138750000D01*
X152240000Y-77240000D02*
X152500000Y-77500000D01*
X155000000Y-156250000D02*
X155000000Y-167500000D01*
X171250000Y-140000000D02*
X155000000Y-156250000D01*
X155000000Y-76250000D02*
X171250000Y-76250000D01*
X154740000Y-50760000D02*
X154740000Y-75990000D01*
X171250000Y-76250000D02*
X171250000Y-140000000D01*
X154740000Y-75990000D02*
X155000000Y-76250000D01*
X157500000Y-156250000D02*
X157500000Y-167500000D01*
X172500000Y-75000000D02*
X172500000Y-141250000D01*
X157500000Y-75000000D02*
X172500000Y-75000000D01*
X172500000Y-141250000D02*
X157500000Y-156250000D01*
X157240000Y-50760000D02*
X157240000Y-74740000D01*
X157240000Y-74740000D02*
X157500000Y-75000000D01*
X160000000Y-156250000D02*
X160000000Y-167500000D01*
X173750000Y-73750000D02*
X173750000Y-142500000D01*
X173750000Y-142500000D02*
X160000000Y-156250000D01*
X160000000Y-73750000D02*
X173750000Y-73750000D01*
X159740000Y-50760000D02*
X159740000Y-73490000D01*
X159740000Y-73490000D02*
X160000000Y-73750000D01*
X175000000Y-143750000D02*
X162500000Y-156250000D01*
X175000000Y-72500000D02*
X175000000Y-143750000D01*
X162500000Y-72500000D02*
X175000000Y-72500000D01*
X162500000Y-156250000D02*
X162500000Y-167500000D01*
X162240000Y-50760000D02*
X162240000Y-72240000D01*
X162240000Y-72240000D02*
X162500000Y-72500000D01*
X165000000Y-156250000D02*
X165000000Y-167500000D01*
X176250000Y-71250000D02*
X176250000Y-145000000D01*
X176250000Y-145000000D02*
X165000000Y-156250000D01*
X165000000Y-71250000D02*
X176250000Y-71250000D01*
X164740000Y-50760000D02*
X164740000Y-70990000D01*
X164740000Y-70990000D02*
X165000000Y-71250000D01*
X177500000Y-70000000D02*
X177500000Y-146250000D01*
X167500000Y-70000000D02*
X177500000Y-70000000D01*
X167500000Y-156250000D02*
X167500000Y-167500000D01*
X177500000Y-146250000D02*
X167500000Y-156250000D01*
X167240000Y-50760000D02*
X167240000Y-69740000D01*
X167240000Y-69740000D02*
X167500000Y-70000000D01*
X170000000Y-156250000D02*
X170000000Y-167500000D01*
X178750000Y-147500000D02*
X170000000Y-156250000D01*
X170000000Y-68750000D02*
X178750000Y-68750000D01*
X178750000Y-68750000D02*
X178750000Y-147500000D01*
X169740000Y-50760000D02*
X169740000Y-68490000D01*
X169740000Y-68490000D02*
X170000000Y-68750000D01*
X114740000Y-45760000D02*
X114740000Y-16510000D01*
X114740000Y-16510000D02*
X115000000Y-16250000D01*
X115000000Y-16250000D02*
X177500000Y-16250000D01*
X117240000Y-45760000D02*
X117240000Y-17760000D01*
X117240000Y-17760000D02*
X117500000Y-17500000D01*
X117500000Y-17500000D02*
X178750000Y-17500000D01*
X119740000Y-45760000D02*
X119740000Y-19010000D01*
X119740000Y-19010000D02*
X120000000Y-18750000D01*
X120000000Y-18750000D02*
X180000000Y-18750000D01*
X122240000Y-45760000D02*
X122240000Y-20260000D01*
X122240000Y-20260000D02*
X122500000Y-20000000D01*
X122500000Y-20000000D02*
X181250000Y-20000000D01*
X124740000Y-45760000D02*
X124740000Y-21510000D01*
X124740000Y-21510000D02*
X125000000Y-21250000D01*
X125000000Y-21250000D02*
X182500000Y-21250000D01*
X129740000Y-45760000D02*
X129740000Y-22760000D01*
X129740000Y-22760000D02*
X130000000Y-22500000D01*
X130000000Y-22500000D02*
X183750000Y-22500000D01*
X134740000Y-45760000D02*
X134740000Y-24010000D01*
X134740000Y-24010000D02*
X135000000Y-23750000D01*
X135000000Y-23750000D02*
X185000000Y-23750000D01*
X137240000Y-45760000D02*
X137240000Y-25260000D01*
X137240000Y-25260000D02*
X137500000Y-25000000D01*
X137500000Y-25000000D02*
X186250000Y-25000000D01*
X144740000Y-45760000D02*
X144740000Y-27760000D01*
X144740000Y-27760000D02*
X145000000Y-27500000D01*
X145000000Y-27500000D02*
X188750000Y-27500000D01*
X147240000Y-45760000D02*
X147240000Y-29010000D01*
X147240000Y-29010000D02*
X147500000Y-28750000D01*
X147500000Y-28750000D02*
X190000000Y-28750000D01*
X149740000Y-45760000D02*
X149740000Y-30260000D01*
X149740000Y-30260000D02*
X150000000Y-30000000D01*
X150000000Y-30000000D02*
X191250000Y-30000000D01*
X152240000Y-45760000D02*
X152240000Y-31510000D01*
X152240000Y-31510000D02*
X152500000Y-31250000D01*
X152500000Y-31250000D02*
X192500000Y-31250000D01*
X154740000Y-45760000D02*
X154740000Y-32760000D01*
X154740000Y-32760000D02*
X155000000Y-32500000D01*
X155000000Y-32500000D02*
X193750000Y-32500000D01*
X157240000Y-45760000D02*
X157240000Y-34010000D01*
X157240000Y-34010000D02*
X157500000Y-33750000D01*
X157500000Y-33750000D02*
X195000000Y-33750000D01*
X159740000Y-45760000D02*
X159740000Y-35260000D01*
X159740000Y-35260000D02*
X160000000Y-35000000D01*
X160000000Y-35000000D02*
X196250000Y-35000000D01*
X162240000Y-45760000D02*
X162240000Y-36510000D01*
X162240000Y-36510000D02*
X162500000Y-36250000D01*
X162500000Y-36250000D02*
X197500000Y-36250000D01*
X164740000Y-45760000D02*
X164740000Y-37760000D01*
X164740000Y-37760000D02*
X165000000Y-37500000D01*
X165000000Y-37500000D02*
X198750000Y-37500000D01*
X167240000Y-45760000D02*
X167240000Y-39010000D01*
X167240000Y-39010000D02*
X167500000Y-38750000D01*
X167500000Y-38750000D02*
X200000000Y-38750000D01*
X169740000Y-45760000D02*
X169740000Y-40260000D01*
X169740000Y-40260000D02*
X170000000Y-40000000D01*
X170000000Y-40000000D02*
X201250000Y-40000000D01*
X177500000Y-16250000D02*
X177500000Y-16250000D01*
X178750000Y-17500000D02*
X178750000Y-17500000D01*
X180000000Y-18750000D02*
X180000000Y-18750000D01*
X181250000Y-20000000D02*
X181250000Y-20000000D01*
X182500000Y-21250000D02*
X182500000Y-21250000D01*
X183750000Y-22500000D02*
X183750000Y-22500000D01*
X185000000Y-23750000D02*
X185000000Y-23750000D01*
X186250000Y-25000000D02*
X186250000Y-25000000D01*
X188750000Y-27500000D02*
X188750000Y-27500000D01*
X190000000Y-28750000D02*
X190000000Y-28750000D01*
X191250000Y-30000000D02*
X191250000Y-30000000D01*
X192500000Y-31250000D02*
X192500000Y-31250000D01*
X193750000Y-32500000D02*
X193750000Y-32500000D01*
X195000000Y-33750000D02*
X195000000Y-33750000D01*
X196250000Y-35000000D02*
X196250000Y-35000000D01*
X197500000Y-36250000D02*
X197500000Y-36250000D01*
X198750000Y-37500000D02*
X198750000Y-37500000D01*
X200000000Y-38750000D02*
X200000000Y-38750000D01*
X201250000Y-40000000D02*
X201250000Y-40000000D01*
X182500000Y-57500000D02*
X180000000Y-60000000D01*
X152400000Y-128650000D02*
X152500000Y-128750000D01*
X152400000Y-124900000D02*
X152400000Y-128650000D01*
X137500000Y-105000000D02*
X125000000Y-105000000D01*
X125000000Y-105000000D02*
X125000000Y-106250000D01*
X125000000Y-106250000D02*
X123750000Y-107500000D01*
X124460000Y-106680000D02*
X124460000Y-140710000D01*
X124460000Y-140710000D02*
X133750000Y-150000000D01*
X133750000Y-150000000D02*
X133750000Y-150000000D01*
X137160000Y-106680000D02*
X137160000Y-151590000D01*
X137160000Y-151590000D02*
X136250000Y-152500000D01*
X136250000Y-152500000D02*
X136250000Y-152500000D01*
X185000000Y-57500000D02*
X180000000Y-62500000D01*
X186250000Y-57500000D02*
X180000000Y-63750000D01*
X180000000Y-62500000D02*
X180000000Y-62500000D01*
X180000000Y-63750000D02*
X180000000Y-63750000D01*
X154940000Y-128690000D02*
X155000000Y-128750000D01*
X154940000Y-122440000D02*
X154940000Y-128690000D01*
X157500000Y-127500000D02*
X157500000Y-120000000D01*
X160020000Y-106680000D02*
X160020000Y-111230000D01*
X145020000Y-126230000D02*
X145020000Y-152520000D01*
X160020000Y-111230000D02*
X145020000Y-126230000D01*
X147520000Y-152520000D02*
X147520000Y-126230000D01*
X162560000Y-111190000D02*
X162560000Y-106680000D01*
X147520000Y-126230000D02*
X162560000Y-111190000D01*
X188750000Y-57500000D02*
X180000000Y-66250000D01*
X190000000Y-57500000D02*
X180000000Y-67500000D01*
X180000000Y-66250000D02*
X180000000Y-66250000D01*
X180000000Y-67500000D02*
X180000000Y-67500000D01*
%TD*%
M02*
