M48
; DRILL file KiCad 10.0.1 date 2026-07-20T20:00:58
; FORMAT={-:-/ absolute / inch / decimal}
; #@! TF.CreationDate,2026-07-20T20:00:58-05:00
; #@! TF.GenerationSoftware,Kicad,Pcbnew,10.0.1
; #@! TF.FileFunction,Plated,1,2,PTH
FMAT,2
INCH
; #@! TA.AperFunction,Plated,PTH,ViaDrill
T1C0.0118
; #@! TA.AperFunction,Plated,PTH,ComponentDrill
T2C0.0300
; #@! TA.AperFunction,Plated,PTH,ComponentDrill
T3C0.0394
%
G90
G05
T1
X4.966Y-5.2637
X5.086Y-2.7018
X5.086Y-5.0265
X5.1118Y-3.0915
X5.1809Y-5.2357
X5.2165Y-2.7274
X5.2183Y-4.384
X5.2892Y-5.2508
X5.315Y-4.2695
X5.4134Y-4.2449
X5.4286Y-3.2265
X5.4704Y-2.5193
X5.472Y-5.2321
X5.4951Y-2.7513
X5.5126Y-5.2552
X5.5147Y-3.1236
X5.5207Y-2.6393
X5.5207Y-3.0915
X5.5345Y-2.7414
X5.561Y-5.2606
X5.607Y-4.2208
X5.6308Y-5.1689
X5.6407Y-2.9479
X5.6486Y-5.0696
X5.6486Y-2.0875
X5.6667Y-1.7966
X5.6968Y-2.879
X5.7254Y-2.0175
X5.7721Y-2.0496
X5.7997Y-4.7226
X5.8075Y-5.255
X5.8164Y-3.5179
X5.856Y-5.2345
X5.8583Y-5.2027
X5.9245Y-3.9996
X5.9268Y-2.879
X5.9482Y-4.3484
X5.972Y-4.8283
X6.0221Y-3.5174
X6.0471Y-4.2024
X6.0551Y-3.2344
X6.0633Y-2.7891
X6.072Y-4.8948
X6.0999Y-4.1786
X6.1263Y-4.7226
X6.1655Y-3.2041
X6.2008Y-2.7513
X6.2308Y-5.2553
X6.2624Y-3.9844
X6.4472Y-2.0138
X6.5159Y-3.2263
X6.554Y-3.2225
X6.5918Y-3.0187
X6.6028Y-5.2554
X6.6521Y-2.5193
X6.6762Y-2.7513
X6.6929Y-4.6396
X6.7018Y-2.6393
X6.753Y-3.0969
X6.7785Y-2.0291
X6.8041Y-2.0508
X6.8297Y-2.0749
X6.8535Y-3.0401
X6.8543Y-2.1043
X6.8772Y-3.0079
X6.878Y-2.1723
X6.9014Y-2.2153
X6.924Y-3.1759
X6.9456Y-1.9068
X6.984Y-5.1189
X7.0176Y-5.0951
X7.075Y-5.1811
X7.1066Y-3.208
X7.1144Y-3.2464
X7.1164Y-1.9907
X7.1576Y-3.8522
X7.185Y-5.2463
X7.1865Y-3.1828
X7.2046Y-3.0648
X7.2569Y-4.3747
X7.2702Y-2.27
X7.3023Y-2.263
X7.3051Y-5.0705
X7.3051Y-2.1681
X7.3288Y-5.2468
X7.3587Y-5.1574
X7.3904Y-2.0459
X7.4486Y-5.3073
T2
X5.0197Y-1.752
X5.0197Y-1.9488
X5.1181Y-1.752
X5.1181Y-1.9488
X5.2165Y-1.752
X5.2165Y-1.9488
X5.315Y-1.752
X5.315Y-1.9488
X5.4134Y-1.752
X5.4134Y-1.9488
X5.5118Y-1.752
X5.5118Y-1.9488
X5.6102Y-1.752
X5.6102Y-1.9488
X5.7087Y-1.752
X5.7087Y-1.9488
X5.8071Y-1.752
X5.8071Y-1.9488
X5.9055Y-1.752
X5.9055Y-1.9488
X6.0039Y-1.752
X6.0039Y-1.9488
X6.1024Y-1.752
X6.1024Y-1.9488
X6.2008Y-1.752
X6.2008Y-1.9488
X6.2992Y-1.752
X6.2992Y-1.9488
X6.3976Y-1.752
X6.3976Y-1.9488
X6.4961Y-1.752
X6.4961Y-1.9488
X6.5945Y-1.752
X6.5945Y-1.9488
X6.6929Y-1.752
X6.6929Y-1.9488
X6.7913Y-1.752
X6.7913Y-1.9488
X6.8898Y-1.752
X6.8898Y-1.9488
X6.9882Y-1.752
X6.9882Y-1.9488
X7.0866Y-1.752
X7.0866Y-1.9488
X7.185Y-1.752
X7.185Y-1.9488
X7.2835Y-1.752
X7.2835Y-1.9488
X7.3819Y-1.752
X7.3819Y-1.9488
T3
X5.172Y-3.3508
X5.172Y-4.0508
X5.272Y-3.3508
X5.272Y-4.0508
X5.372Y-3.3508
X5.372Y-4.0508
X5.472Y-3.3508
X5.472Y-4.0508
X5.572Y-3.3508
X5.572Y-4.0508
X5.672Y-3.3508
X5.672Y-4.0508
X5.772Y-3.3508
X5.772Y-4.0508
X5.872Y-3.3508
X5.872Y-4.0508
X5.972Y-3.3508
X5.972Y-4.0508
X6.072Y-3.3508
X6.072Y-4.0508
X6.1417Y-2.9026
X6.1417Y-3.0026
X6.172Y-3.3508
X6.172Y-4.0508
X6.272Y-3.3508
X6.272Y-4.0508
X6.372Y-3.3508
X6.372Y-4.0508
X6.472Y-3.3508
X6.472Y-4.0508
X6.572Y-3.3508
X6.572Y-4.0508
X6.672Y-3.3508
X6.672Y-4.0508
X6.772Y-3.3508
X6.772Y-4.0508
X6.872Y-3.3508
X6.872Y-4.0508
X6.972Y-3.3508
X6.972Y-4.0508
X7.072Y-3.3508
X7.072Y-4.0508
M30
