%TF.GenerationSoftware,KiCad,Pcbnew,10.0.1*%
%TF.CreationDate,2026-07-20T20:00:58-05:00*%
%TF.ProjectId,n64_gamecat_rp2350b,6e36345f-6761-46d6-9563-61745f727032,rev?*%
%TF.SameCoordinates,Original*%
%TF.FileFunction,Copper,L1,Top*%
%TF.FilePolarity,Positive*%
%FSLAX46Y46*%
G04 Gerber Fmt 4.6, Leading zero omitted, Abs format (unit mm)*
G04 Created by KiCad (PCBNEW 10.0.1) date 2026-07-20 20:00:58*
%MOMM*%
%LPD*%
G01*
G04 APERTURE LIST*
G04 Aperture macros list*
%AMRoundRect*
0 Rectangle with rounded corners*
0 $1 Rounding radius*
0 $2 $3 $4 $5 $6 $7 $8 $9 X,Y pos of 4 corners*
0 Add a 4 corners polygon primitive as box body*
4,1,4,$2,$3,$4,$5,$6,$7,$8,$9,$2,$3,0*
0 Add four circle primitives for the rounded corners*
1,1,$1+$1,$2,$3*
1,1,$1+$1,$4,$5*
1,1,$1+$1,$6,$7*
1,1,$1+$1,$8,$9*
0 Add four rect primitives between the rounded corners*
20,1,$1+$1,$2,$3,$4,$5,0*
20,1,$1+$1,$4,$5,$6,$7,0*
20,1,$1+$1,$6,$7,$8,$9,0*
20,1,$1+$1,$8,$9,$2,$3,0*%
%AMFreePoly0*
4,1,37,0.800000,0.796148,0.878414,0.796148,1.032228,0.765552,1.177117,0.705537,1.307515,0.618408,1.418408,0.507515,1.505537,0.377117,1.565552,0.232228,1.596148,0.078414,1.596148,-0.078414,1.565552,-0.232228,1.505537,-0.377117,1.418408,-0.507515,1.307515,-0.618408,1.177117,-0.705537,1.032228,-0.765552,0.878414,-0.796148,0.800000,-0.796148,0.800000,-0.800000,-1.400000,-0.800000,
-1.403843,-0.796157,-1.439018,-0.796157,-1.511114,-0.766294,-1.566294,-0.711114,-1.596157,-0.639018,-1.596157,-0.603843,-1.600000,-0.600000,-1.600000,0.600000,-1.596157,0.603843,-1.596157,0.639018,-1.566294,0.711114,-1.511114,0.766294,-1.439018,0.796157,-1.403843,0.796157,-1.400000,0.800000,0.800000,0.800000,0.800000,0.796148,0.800000,0.796148,$1*%
%AMFreePoly1*
4,1,37,1.403843,0.796157,1.439018,0.796157,1.511114,0.766294,1.566294,0.711114,1.596157,0.639018,1.596157,0.603843,1.600000,0.600000,1.600000,-0.600000,1.596157,-0.603843,1.596157,-0.639018,1.566294,-0.711114,1.511114,-0.766294,1.439018,-0.796157,1.403843,-0.796157,1.400000,-0.800000,-0.800000,-0.800000,-0.800000,-0.796148,-0.878414,-0.796148,-1.032228,-0.765552,-1.177117,-0.705537,
-1.307515,-0.618408,-1.418408,-0.507515,-1.505537,-0.377117,-1.565552,-0.232228,-1.596148,-0.078414,-1.596148,0.078414,-1.565552,0.232228,-1.505537,0.377117,-1.418408,0.507515,-1.307515,0.618408,-1.177117,0.705537,-1.032228,0.765552,-0.878414,0.796148,-0.800000,0.796148,-0.800000,0.800000,1.400000,0.800000,1.403843,0.796157,1.403843,0.796157,$1*%
%AMFreePoly2*
4,1,37,0.603843,0.796157,0.639018,0.796157,0.711114,0.766294,0.766294,0.711114,0.796157,0.639018,0.796157,0.603843,0.800000,0.600000,0.800000,-0.600000,0.796157,-0.603843,0.796157,-0.639018,0.766294,-0.711114,0.711114,-0.766294,0.639018,-0.796157,0.603843,-0.796157,0.600000,-0.800000,0.000000,-0.800000,0.000000,-0.796148,-0.078414,-0.796148,-0.232228,-0.765552,-0.377117,-0.705537,
-0.507515,-0.618408,-0.618408,-0.507515,-0.705537,-0.377117,-0.765552,-0.232228,-0.796148,-0.078414,-0.796148,0.078414,-0.765552,0.232228,-0.705537,0.377117,-0.618408,0.507515,-0.507515,0.618408,-0.377117,0.705537,-0.232228,0.765552,-0.078414,0.796148,0.000000,0.796148,0.000000,0.800000,0.600000,0.800000,0.603843,0.796157,0.603843,0.796157,$1*%
%AMFreePoly3*
4,1,37,0.000000,0.796148,0.078414,0.796148,0.232228,0.765552,0.377117,0.705537,0.507515,0.618408,0.618408,0.507515,0.705537,0.377117,0.765552,0.232228,0.796148,0.078414,0.796148,-0.078414,0.765552,-0.232228,0.705537,-0.377117,0.618408,-0.507515,0.507515,-0.618408,0.377117,-0.705537,0.232228,-0.765552,0.078414,-0.796148,0.000000,-0.796148,0.000000,-0.800000,-0.600000,-0.800000,
-0.603843,-0.796157,-0.639018,-0.796157,-0.711114,-0.766294,-0.766294,-0.711114,-0.796157,-0.639018,-0.796157,-0.603843,-0.800000,-0.600000,-0.800000,0.600000,-0.796157,0.603843,-0.796157,0.639018,-0.766294,0.711114,-0.711114,0.766294,-0.639018,0.796157,-0.603843,0.796157,-0.600000,0.800000,0.000000,0.800000,0.000000,0.796148,0.000000,0.796148,$1*%
G04 Aperture macros list end*
%TA.AperFunction,SMDPad,CuDef*%
%ADD10FreePoly0,90.000000*%
%TD*%
%TA.AperFunction,ComponentPad*%
%ADD11RoundRect,0.200000X0.600000X-0.600000X0.600000X0.600000X-0.600000X0.600000X-0.600000X-0.600000X0*%
%TD*%
%TA.AperFunction,SMDPad,CuDef*%
%ADD12RoundRect,0.800000X0.000010X-0.800000X0.000010X0.800000X-0.000010X0.800000X-0.000010X-0.800000X0*%
%TD*%
%TA.AperFunction,ComponentPad*%
%ADD13C,1.600000*%
%TD*%
%TA.AperFunction,SMDPad,CuDef*%
%ADD14FreePoly1,90.000000*%
%TD*%
%TA.AperFunction,ComponentPad*%
%ADD15FreePoly2,90.000000*%
%TD*%
%TA.AperFunction,ComponentPad*%
%ADD16FreePoly3,90.000000*%
%TD*%
%TA.AperFunction,SMDPad,CuDef*%
%ADD17R,0.355600X1.676400*%
%TD*%
%TA.AperFunction,SMDPad,CuDef*%
%ADD18RoundRect,0.140000X-0.140000X-0.170000X0.140000X-0.170000X0.140000X0.170000X-0.140000X0.170000X0*%
%TD*%
%TA.AperFunction,SMDPad,CuDef*%
%ADD19RoundRect,0.135000X-0.185000X0.135000X-0.185000X-0.135000X0.185000X-0.135000X0.185000X0.135000X0*%
%TD*%
%TA.AperFunction,SMDPad,CuDef*%
%ADD20RoundRect,0.140000X0.140000X0.170000X-0.140000X0.170000X-0.140000X-0.170000X0.140000X-0.170000X0*%
%TD*%
%TA.AperFunction,SMDPad,CuDef*%
%ADD21RoundRect,0.135000X0.135000X0.185000X-0.135000X0.185000X-0.135000X-0.185000X0.135000X-0.185000X0*%
%TD*%
%TA.AperFunction,ComponentPad*%
%ADD22C,1.524000*%
%TD*%
%TA.AperFunction,SMDPad,CuDef*%
%ADD23RoundRect,0.135000X-0.135000X-0.185000X0.135000X-0.185000X0.135000X0.185000X-0.135000X0.185000X0*%
%TD*%
%TA.AperFunction,ComponentPad*%
%ADD24C,1.700000*%
%TD*%
%TA.AperFunction,ComponentPad*%
%ADD25R,1.700000X1.700000*%
%TD*%
%TA.AperFunction,SMDPad,CuDef*%
%ADD26RoundRect,0.147500X-0.147500X-0.172500X0.147500X-0.172500X0.147500X0.172500X-0.147500X0.172500X0*%
%TD*%
%TA.AperFunction,SMDPad,CuDef*%
%ADD27R,1.800000X5.000000*%
%TD*%
%TA.AperFunction,SMDPad,CuDef*%
%ADD28RoundRect,0.250000X-0.475000X0.250000X-0.475000X-0.250000X0.475000X-0.250000X0.475000X0.250000X0*%
%TD*%
%TA.AperFunction,ViaPad*%
%ADD29C,0.600000*%
%TD*%
%TA.AperFunction,Conductor*%
%ADD30C,0.200000*%
%TD*%
G04 APERTURE END LIST*
D10*
%TO.P,A1,1,GPIO0_1*%
%TO.N,AD0*%
X131370000Y-103690000D03*
D11*
X131370000Y-102890000D03*
D12*
%TO.P,A1,2,GPIO1_2*%
%TO.N,AD1*%
X133910000Y-103690000D03*
D13*
X133910000Y-102890000D03*
D14*
%TO.P,A1,3,GND_3*%
%TO.N,GND*%
X136450000Y-103690000D03*
D15*
X136450000Y-102890000D03*
D12*
%TO.P,A1,4,GPIO2_4*%
%TO.N,AD2*%
X138990000Y-103690000D03*
D13*
X138990000Y-102890000D03*
D12*
%TO.P,A1,5,GPIO3_5*%
%TO.N,AD3*%
X141530000Y-103690000D03*
D13*
X141530000Y-102890000D03*
D12*
%TO.P,A1,6,GPIO4_6*%
%TO.N,AD4*%
X144070000Y-103690000D03*
D13*
X144070000Y-102890000D03*
D12*
%TO.P,A1,7,GPIO5_7*%
%TO.N,AD5*%
X146610000Y-103690000D03*
D13*
X146610000Y-102890000D03*
D14*
%TO.P,A1,8,GND_8*%
%TO.N,GND*%
X149150000Y-103690000D03*
D15*
X149150000Y-102890000D03*
D12*
%TO.P,A1,9,GPIO6_9*%
%TO.N,AD6*%
X151690000Y-103690000D03*
D13*
X151690000Y-102890000D03*
D12*
%TO.P,A1,10,GPIO7_10*%
%TO.N,AD7*%
X154230000Y-103690000D03*
D13*
X154230000Y-102890000D03*
D12*
%TO.P,A1,11,GPIO8_11*%
%TO.N,AD8*%
X156770000Y-103690000D03*
D13*
X156770000Y-102890000D03*
D12*
%TO.P,A1,12,GPIO9_12*%
%TO.N,AD9*%
X159310000Y-103690000D03*
D13*
X159310000Y-102890000D03*
D14*
%TO.P,A1,13,GND_13*%
%TO.N,GND*%
X161850000Y-103690000D03*
D15*
X161850000Y-102890000D03*
D12*
%TO.P,A1,14,GPIO10_14*%
%TO.N,AD10*%
X164390000Y-103690000D03*
D13*
X164390000Y-102890000D03*
D12*
%TO.P,A1,15,GPIO11_15*%
%TO.N,AD11*%
X166930000Y-103690000D03*
D13*
X166930000Y-102890000D03*
D12*
%TO.P,A1,16,GPIO12_16*%
%TO.N,AD12*%
X169470000Y-103690000D03*
D13*
X169470000Y-102890000D03*
D12*
%TO.P,A1,17,GPIO13_17*%
%TO.N,AD13*%
X172010000Y-103690000D03*
D13*
X172010000Y-102890000D03*
D14*
%TO.P,A1,18,GND_18*%
%TO.N,GND*%
X174550000Y-103690000D03*
D15*
X174550000Y-102890000D03*
D12*
%TO.P,A1,19,GPIO14_19*%
%TO.N,AD14*%
X177090000Y-103690000D03*
D13*
X177090000Y-102890000D03*
D12*
%TO.P,A1,20,GPIO15_20*%
%TO.N,AD15*%
X179630000Y-103690000D03*
D13*
X179630000Y-102890000D03*
%TO.P,A1,21,GPIO16_21*%
%TO.N,ALE_L*%
X179630000Y-85110000D03*
D12*
X179630000Y-84310000D03*
D13*
%TO.P,A1,22,GPIO17_22*%
%TO.N,ALE_H*%
X177090000Y-85110000D03*
D12*
X177090000Y-84310000D03*
D16*
%TO.P,A1,23,GND_23*%
%TO.N,GND*%
X174550000Y-85110000D03*
D10*
X174550000Y-84310000D03*
D13*
%TO.P,A1,24,GPIO18_24*%
%TO.N,READ*%
X172010000Y-85110000D03*
D12*
X172010000Y-84310000D03*
D13*
%TO.P,A1,25,GPIO19_25*%
%TO.N,WRITE*%
X169470000Y-85110000D03*
D12*
X169470000Y-84310000D03*
D13*
%TO.P,A1,26,GPIO20_26*%
%TO.N,CART_EN*%
X166930000Y-85110000D03*
D12*
X166930000Y-84310000D03*
D13*
%TO.P,A1,27,GPIO21_27*%
%TO.N,KILL*%
X164390000Y-85110000D03*
D12*
X164390000Y-84310000D03*
D16*
%TO.P,A1,28,GND_28*%
%TO.N,GND*%
X161850000Y-85110000D03*
D10*
X161850000Y-84310000D03*
D13*
%TO.P,A1,29,GPIO22_29*%
%TO.N,STATUS_LED*%
X159310000Y-85110000D03*
D12*
X159310000Y-84310000D03*
D13*
%TO.P,A1,30,RUN_30*%
%TO.N,unconnected-(A1-RUN-Pad30)*%
X156770000Y-85110000D03*
D12*
X156770000Y-84310000D03*
D13*
%TO.P,A1,31,GPIO26_ADC0_31*%
%TO.N,unconnected-(A1-GPIO26_ADC0-Pad31)*%
X154230000Y-85110000D03*
D12*
X154230000Y-84310000D03*
D13*
%TO.P,A1,32,GPIO27_ADC1_32*%
%TO.N,unconnected-(A1-GPIO27_ADC1-Pad32)*%
X151690000Y-85110000D03*
D12*
X151690000Y-84310000D03*
D16*
%TO.P,A1,33,AGND_33*%
%TO.N,GND*%
X149150000Y-85110000D03*
D10*
X149150000Y-84310000D03*
D13*
%TO.P,A1,34,GPIO28_ADC2_34*%
%TO.N,unconnected-(A1-GPIO28_ADC2-Pad34)*%
X146610000Y-85110000D03*
D12*
X146610000Y-84310000D03*
D13*
%TO.P,A1,35,ADC_VREF_35*%
%TO.N,unconnected-(A1-ADC_VREF-Pad35)*%
X144070000Y-85110000D03*
D12*
X144070000Y-84310000D03*
D13*
%TO.P,A1,36,3V3_36*%
%TO.N,3V3_OUT*%
X141530000Y-85110000D03*
D12*
X141530000Y-84310000D03*
D13*
%TO.P,A1,37,3V3_EN_37*%
%TO.N,unconnected-(A1-3V3_EN-Pad37)*%
X138990000Y-85110000D03*
D12*
X138990000Y-84310000D03*
D16*
%TO.P,A1,38,GND_38*%
%TO.N,GND*%
X136450000Y-85110000D03*
D10*
X136450000Y-84310000D03*
D13*
%TO.P,A1,39,VSYS_39*%
%TO.N,VSYS*%
X133910000Y-85110000D03*
D12*
X133910000Y-84310000D03*
D13*
%TO.P,A1,40,VBUS_40*%
%TO.N,unconnected-(A1-VBUS-Pad40)*%
X131370000Y-85110000D03*
D12*
X131370000Y-84310000D03*
%TD*%
D17*
%TO.P,U6,20,VCC_20*%
%TO.N,3V3_OUT*%
X169575002Y-65680600D03*
%TO.P,U6,19,\u002AOE_19*%
%TO.N,CART_EN*%
X170225001Y-65680600D03*
%TO.P,U6,18,B1_18*%
%TO.N,CA_AD8*%
X170875002Y-65680600D03*
%TO.P,U6,17,B2_17*%
%TO.N,CA_AD9*%
X171525001Y-65680600D03*
%TO.P,U6,16,B3_16*%
%TO.N,CA_AD10*%
X172175002Y-65680600D03*
%TO.P,U6,15,B4_15*%
%TO.N,CA_AD11*%
X172825001Y-65680600D03*
%TO.P,U6,14,B5_14*%
%TO.N,CA_AD12*%
X173475002Y-65680600D03*
%TO.P,U6,13,B6_13*%
%TO.N,CA_AD13*%
X174125001Y-65680600D03*
%TO.P,U6,12,B7_12*%
%TO.N,CA_AD14*%
X174775002Y-65680600D03*
%TO.P,U6,11,B8_11*%
%TO.N,CA_AD15*%
X175425000Y-65680600D03*
%TO.P,U6,10,GND_10*%
%TO.N,GND*%
X175424998Y-71319400D03*
%TO.P,U6,9,A8_9*%
%TO.N,AD15*%
X174774999Y-71319400D03*
%TO.P,U6,8,A7_8*%
%TO.N,AD14*%
X174124998Y-71319400D03*
%TO.P,U6,7,A6_7*%
%TO.N,AD13*%
X173474999Y-71319400D03*
%TO.P,U6,6,A5_6*%
%TO.N,AD12*%
X172824998Y-71319400D03*
%TO.P,U6,5,A4_5*%
%TO.N,AD11*%
X172174999Y-71319400D03*
%TO.P,U6,4,A3_4*%
%TO.N,AD10*%
X171525001Y-71319400D03*
%TO.P,U6,3,A2_3*%
%TO.N,AD9*%
X170874999Y-71319400D03*
%TO.P,U6,2,A1_2*%
%TO.N,AD8*%
X170225001Y-71319400D03*
%TO.P,U6,1,NC_1*%
%TO.N,NC*%
X169575000Y-71319400D03*
%TD*%
D18*
%TO.P,C3,2*%
%TO.N,3V3_OUT*%
X168460000Y-65500000D03*
%TO.P,C3,1*%
%TO.N,GND*%
X167500000Y-65500000D03*
%TD*%
%TO.P,C2,1*%
%TO.N,GND*%
X137520000Y-65500000D03*
%TO.P,C2,2*%
%TO.N,3V3_OUT*%
X138480000Y-65500000D03*
%TD*%
D17*
%TO.P,U5,20,VCC_20*%
%TO.N,3V3_OUT*%
X139575002Y-65680600D03*
%TO.P,U5,19,\u002AOE_19*%
%TO.N,CART_EN*%
X140225001Y-65680600D03*
%TO.P,U5,18,B1_18*%
%TO.N,CA_AD0*%
X140875002Y-65680600D03*
%TO.P,U5,17,B2_17*%
%TO.N,CA_AD1*%
X141525001Y-65680600D03*
%TO.P,U5,16,B3_16*%
%TO.N,CA_AD2*%
X142175002Y-65680600D03*
%TO.P,U5,15,B4_15*%
%TO.N,CA_AD3*%
X142825001Y-65680600D03*
%TO.P,U5,14,B5_14*%
%TO.N,CA_AD4*%
X143475002Y-65680600D03*
%TO.P,U5,13,B6_13*%
%TO.N,CA_AD5*%
X144125001Y-65680600D03*
%TO.P,U5,12,B7_12*%
%TO.N,CA_AD6*%
X144775002Y-65680600D03*
%TO.P,U5,11,B8_11*%
%TO.N,CA_AD7*%
X145425000Y-65680600D03*
%TO.P,U5,10,GND_10*%
%TO.N,GND*%
X145424998Y-71319400D03*
%TO.P,U5,9,A8_9*%
%TO.N,AD7*%
X144774999Y-71319400D03*
%TO.P,U5,8,A7_8*%
%TO.N,AD6*%
X144124998Y-71319400D03*
%TO.P,U5,7,A6_7*%
%TO.N,AD5*%
X143474999Y-71319400D03*
%TO.P,U5,6,A5_6*%
%TO.N,AD4*%
X142824998Y-71319400D03*
%TO.P,U5,5,A4_5*%
%TO.N,AD3*%
X142174999Y-71319400D03*
%TO.P,U5,4,A3_4*%
%TO.N,AD2*%
X141525001Y-71319400D03*
%TO.P,U5,3,A2_3*%
%TO.N,AD1*%
X140874999Y-71319400D03*
%TO.P,U5,2,A1_2*%
%TO.N,AD0*%
X140225001Y-71319400D03*
%TO.P,U5,1,NC_1*%
%TO.N,NC*%
X139575000Y-71319400D03*
%TD*%
D19*
%TO.P,R4,2*%
%TO.N,ALE_H*%
X144310000Y-113400000D03*
%TO.P,R4,1*%
%TO.N,GND*%
X144310000Y-112380000D03*
%TD*%
%TO.P,R1,2*%
%TO.N,CART_EN*%
X166810000Y-80900000D03*
%TO.P,R1,1*%
%TO.N,GND*%
X166810000Y-79880000D03*
%TD*%
D18*
%TO.P,C4,2*%
%TO.N,3V3_OUT*%
X140270000Y-80390000D03*
%TO.P,C4,1*%
%TO.N,GND*%
X139310000Y-80390000D03*
%TD*%
D20*
%TO.P,C5,2*%
%TO.N,VSYS*%
X134830000Y-80890000D03*
%TO.P,C5,1*%
%TO.N,GND*%
X135790000Y-80890000D03*
%TD*%
D21*
%TO.P,R2,2*%
%TO.N,KILL*%
X141810000Y-80390000D03*
%TO.P,R2,1*%
%TO.N,3V3_OUT*%
X142830000Y-80390000D03*
%TD*%
D22*
%TO.P,U1,50,GND_50*%
%TO.N,GND*%
X187500000Y-44500000D03*
%TO.P,U1,49,R_AUDIO_49*%
%TO.N,R_AUDIO*%
X185000000Y-44500000D03*
%TO.P,U1,48,GND_48*%
%TO.N,GND*%
X182500000Y-44500000D03*
%TO.P,U1,47,GND_47*%
X180000000Y-44500000D03*
%TO.P,U1,46,VIDEO_CLK_46*%
%TO.N,VIDEO_CLK*%
X177500000Y-44500000D03*
%TO.P,U1,45,NMI_R4300_45*%
%TO.N,NMI_R4300*%
X175000000Y-44500000D03*
%TO.P,U1,44,JTAG_CLK_44*%
%TO.N,JTAG_CLK*%
X172500000Y-44500000D03*
%TO.P,U1,43,PIF_CIC_43*%
%TO.N,PIF_CIC*%
X170000000Y-44500000D03*
%TO.P,U1,42,VCC_42*%
%TO.N,3V3_CART*%
X167500000Y-44500000D03*
%TO.P,U1,41,AD7_41*%
%TO.N,CA_AD7*%
X165000000Y-44500000D03*
%TO.P,U1,40,AD6_40*%
%TO.N,CA_AD6*%
X162500000Y-44500000D03*
%TO.P,U1,39,NC_39*%
%TO.N,NC*%
X160000000Y-44500000D03*
%TO.P,U1,38,NC_38*%
X157500000Y-44500000D03*
%TO.P,U1,37,AD5_37*%
%TO.N,CA_AD5*%
X155000000Y-44500000D03*
%TO.P,U1,36,AD4_36*%
%TO.N,CA_AD4*%
X152500000Y-44500000D03*
%TO.P,U1,35,ALE_H_35*%
%TO.N,ALE_H*%
X150000000Y-44500000D03*
%TO.P,U1,34,VCC_34*%
%TO.N,3V3_CART*%
X147500000Y-44500000D03*
%TO.P,U1,33,ALE_L_33*%
%TO.N,ALE_L*%
X145000000Y-44500000D03*
%TO.P,U1,32,AD3_32*%
%TO.N,CA_AD3*%
X142500000Y-44500000D03*
%TO.P,U1,31,GND_31*%
%TO.N,GND*%
X140000000Y-44500000D03*
%TO.P,U1,30,AD2_30*%
%TO.N,CA_AD2*%
X137500000Y-44500000D03*
%TO.P,U1,29,AD1_29*%
%TO.N,CA_AD1*%
X135000000Y-44500000D03*
%TO.P,U1,28,AD0_28*%
%TO.N,CA_AD0*%
X132500000Y-44500000D03*
%TO.P,U1,27,GND_27*%
%TO.N,GND*%
X130000000Y-44500000D03*
%TO.P,U1,26,GND_26*%
X127500000Y-44500000D03*
%TO.P,U1,25,GND_25*%
X187500000Y-49500000D03*
%TO.P,U1,24,LAUDIO_24*%
%TO.N,LAUDIO*%
X185000000Y-49500000D03*
%TO.P,U1,23,GND_23*%
%TO.N,GND*%
X182500000Y-49500000D03*
%TO.P,U1,22,GND_22*%
X180000000Y-49500000D03*
%TO.P,U1,21,S_DAT_21*%
%TO.N,S_DAT*%
X177500000Y-49500000D03*
%TO.P,U1,20,COLD_RST_20*%
%TO.N,COLD_RST*%
X175000000Y-49500000D03*
%TO.P,U1,19,CLK_PIF_19*%
%TO.N,CLK_PIF*%
X172500000Y-49500000D03*
%TO.P,U1,18,CIC_PIF_18*%
%TO.N,CIC_PIF*%
X170000000Y-49500000D03*
%TO.P,U1,17,VCC_17*%
%TO.N,3V3_CART*%
X167500000Y-49500000D03*
%TO.P,U1,16,AD8_16*%
%TO.N,CA_AD8*%
X165000000Y-49500000D03*
%TO.P,U1,15,AD9_15*%
%TO.N,CA_AD9*%
X162500000Y-49500000D03*
%TO.P,U1,14,NC_14*%
%TO.N,NC*%
X160000000Y-49500000D03*
%TO.P,U1,13,NC_13*%
X157500000Y-49500000D03*
%TO.P,U1,12,AD10_12*%
%TO.N,CA_AD10*%
X155000000Y-49500000D03*
%TO.P,U1,11,AD11_11*%
%TO.N,CA_AD11*%
X152500000Y-49500000D03*
%TO.P,U1,10,READ_10*%
%TO.N,READ*%
X150000000Y-49500000D03*
%TO.P,U1,9,VCC_9*%
%TO.N,3V3_CART*%
X147500000Y-49500000D03*
%TO.P,U1,8,WRITE_8*%
%TO.N,WRITE*%
X145000000Y-49500000D03*
%TO.P,U1,7,AD12_7*%
%TO.N,CA_AD12*%
X142500000Y-49500000D03*
%TO.P,U1,6,GND_6*%
%TO.N,GND*%
X140000000Y-49500000D03*
%TO.P,U1,5,AD13_5*%
%TO.N,CA_AD13*%
X137500000Y-49500000D03*
%TO.P,U1,4,AD14_4*%
%TO.N,CA_AD14*%
X135000000Y-49500000D03*
%TO.P,U1,3,AD15_3*%
%TO.N,CA_AD15*%
X132500000Y-49500000D03*
%TO.P,U1,2,GND_2*%
%TO.N,GND*%
X130000000Y-49500000D03*
%TO.P,U1,1,GND_1*%
X127500000Y-49500000D03*
%TD*%
D23*
%TO.P,R5,2*%
%TO.N,STATUS_LED*%
X180510000Y-79000000D03*
%TO.P,R5,1*%
%TO.N,Net-(D1-A)*%
X179490000Y-79000000D03*
%TD*%
D19*
%TO.P,R3,2*%
%TO.N,ALE_L*%
X148800000Y-113400000D03*
%TO.P,R3,1*%
%TO.N,GND*%
X148800000Y-112380000D03*
%TD*%
D24*
%TO.P,J4,2,Pin_2_2*%
%TO.N,GND*%
X156000000Y-76265000D03*
D25*
%TO.P,J4,1,Pin_1_1*%
%TO.N,KILL*%
X156000000Y-73725000D03*
%TD*%
D26*
%TO.P,D1,2,A_2*%
%TO.N,Net-(D1-A)*%
X183495000Y-79000000D03*
%TO.P,D1,1,K_1*%
%TO.N,GND*%
X182525000Y-79000000D03*
%TD*%
D27*
%TO.P,U2,25,GND_25*%
%TO.N,GND*%
X187500000Y-136500000D03*
%TO.P,U2,24,LAUDIO_24*%
%TO.N,LAUDIO*%
X185000000Y-136500000D03*
%TO.P,U2,23,GND_23*%
%TO.N,GND*%
X182500000Y-136500000D03*
%TO.P,U2,22,GND_22*%
X180000000Y-136500000D03*
%TO.P,U2,21,S_DAT_21*%
%TO.N,S_DAT*%
X177500000Y-136500000D03*
%TO.P,U2,20,COLD_RST_20*%
%TO.N,COLD_RST*%
X175000000Y-136500000D03*
%TO.P,U2,19,CLK_PIF_19*%
%TO.N,CLK_PIF*%
X172500000Y-136500000D03*
%TO.P,U2,18,CIC_PIF_18*%
%TO.N,CIC_PIF*%
X170000000Y-136500000D03*
%TO.P,U2,17,VCC_17*%
%TO.N,3V3_CART*%
X167500000Y-136500000D03*
%TO.P,U2,16,AD8_16*%
%TO.N,AD8*%
X165000000Y-136500000D03*
%TO.P,U2,15,AD9_15*%
%TO.N,AD9*%
X162500000Y-136500000D03*
%TO.P,U2,14,NC_14*%
%TO.N,NC*%
X160000000Y-136500000D03*
%TO.P,U2,13,NC_13*%
X157500000Y-136500000D03*
%TO.P,U2,12,AD10_12*%
%TO.N,AD10*%
X155000000Y-136500000D03*
%TO.P,U2,11,AD11_11*%
%TO.N,AD11*%
X152500000Y-136500000D03*
%TO.P,U2,10,READ_10*%
%TO.N,READ*%
X150000000Y-136500000D03*
%TO.P,U2,9,VCC_9*%
%TO.N,3V3_CART*%
X147500000Y-136500000D03*
%TO.P,U2,8,WRITE_8*%
%TO.N,WRITE*%
X145000000Y-136500000D03*
%TO.P,U2,7,AD12_7*%
%TO.N,AD12*%
X142500000Y-136500000D03*
%TO.P,U2,6,GND_6*%
%TO.N,GND*%
X140000000Y-136500000D03*
%TO.P,U2,5,AD13_5*%
%TO.N,AD13*%
X137500000Y-136500000D03*
%TO.P,U2,4,AD14_4*%
%TO.N,AD14*%
X135000000Y-136500000D03*
%TO.P,U2,3,AD15_3*%
%TO.N,AD15*%
X132500000Y-136500000D03*
%TO.P,U2,2,GND_2*%
%TO.N,GND*%
X130000000Y-136500000D03*
%TO.P,U2,1,GND_1*%
X127500000Y-136500000D03*
%TD*%
D28*
%TO.P,C1,2*%
%TO.N,3V3_CART*%
X146310000Y-117840000D03*
%TO.P,C1,1*%
%TO.N,GND*%
X146310000Y-115940000D03*
%TD*%
D29*
%TO.N,CA_AD7*%
X145425000Y-51245700D03*
%TO.N,CA_AD6*%
X146612300Y-52060100D03*
%TO.N,CA_AD5*%
X143933500Y-45633000D03*
%TO.N,CA_AD4*%
X143475000Y-53021800D03*
%TO.N,STATUS_LED*%
X180508800Y-81484000D03*
%TO.N,3V3_OUT*%
X168964600Y-63989700D03*
X138947500Y-63989700D03*
%TO.N,CART_EN*%
X140225000Y-67038700D03*
X170225000Y-67038700D03*
X167432200Y-76674500D03*
%TO.N,CA_AD8*%
X163759700Y-51149700D03*
%TO.N,CA_AD10*%
X172175000Y-51538400D03*
%TO.N,CA_AD11*%
X172825000Y-52089900D03*
%TO.N,CA_AD12*%
X173475000Y-52703200D03*
%TO.N,CA_AD13*%
X174100300Y-53449700D03*
%TO.N,CA_AD14*%
X174700600Y-55176400D03*
%TO.N,CA_AD15*%
X175295300Y-56267400D03*
%TO.N,KILL*%
X143273100Y-74876700D03*
%TO.N,R_AUDIO*%
X186151800Y-133269400D03*
%TO.N,VIDEO_CLK*%
X179705100Y-131601100D03*
%TO.N,NMI_R4300*%
X187715600Y-51966300D03*
X186912200Y-130997300D03*
%TO.N,JTAG_CLK*%
X178246500Y-129414700D03*
X180756300Y-50563700D03*
%TO.N,PIF_CIC*%
X185550200Y-55070700D03*
X185550100Y-128790700D03*
%TO.N,AD7*%
X154230000Y-124327800D03*
%TO.N,AD6*%
X151690000Y-122638800D03*
X150539700Y-73125900D03*
X144699800Y-73125900D03*
%TO.N,AD5*%
X143474100Y-128767700D03*
%TO.N,AD4*%
X143021700Y-131291300D03*
%TO.N,ALE_H*%
X148743600Y-132955400D03*
X176417400Y-48432700D03*
X151085100Y-110449500D03*
X181802300Y-97845000D03*
X180705500Y-82459700D03*
%TO.N,ALE_L*%
X148800000Y-132147500D03*
X150483400Y-101589600D03*
X154007600Y-70843400D03*
%TO.N,AD3*%
X141250000Y-133619200D03*
%TO.N,AD2*%
X138990000Y-132895500D03*
X140073700Y-79339100D03*
X137885300Y-81952600D03*
%TO.N,AD1*%
X134345600Y-133371500D03*
X132498500Y-69276900D03*
X140576200Y-69631600D03*
%TO.N,AD0*%
X131595700Y-132987400D03*
X140225000Y-78523800D03*
X129838500Y-78523800D03*
%TO.N,S_DAT*%
X185479000Y-57479000D03*
%TO.N,CLK_PIF*%
X166471600Y-81851500D03*
X175868500Y-80667800D03*
%TO.N,CIC_PIF*%
X170000000Y-117846100D03*
X184325300Y-111117700D03*
X184663000Y-57658900D03*
%TO.N,AD8*%
X159064400Y-101203200D03*
%TO.N,NC*%
X158262500Y-133483800D03*
X157500000Y-69882300D03*
X169575000Y-69882300D03*
X139576600Y-69882300D03*
X129185100Y-127672400D03*
X129185100Y-68626500D03*
%TO.N,AD10*%
X154937200Y-106135700D03*
X165504800Y-81948300D03*
X171525000Y-78660500D03*
%TO.N,AD11*%
X153595100Y-106741100D03*
%TO.N,READ*%
X152960100Y-89341400D03*
X156604100Y-81383000D03*
%TO.N,WRITE*%
X147737500Y-89355400D03*
X153798600Y-82152800D03*
%TO.N,AD12*%
X142417200Y-107209500D03*
%TO.N,AD13*%
X137500000Y-107819500D03*
%TO.N,AD14*%
X135000000Y-108445200D03*
X182536500Y-80842700D03*
X174078800Y-77217300D03*
%TO.N,AD15*%
X132545900Y-111354100D03*
X182998000Y-77845000D03*
X174680500Y-76401200D03*
%TO.N,3V3_CART*%
X167710200Y-133488100D03*
X147509700Y-133476900D03*
X147313000Y-119954200D03*
X155607500Y-119954200D03*
%TO.N,GND*%
X126135800Y-133698300D03*
X189194900Y-134805100D03*
X140020300Y-133481100D03*
X182500000Y-133255800D03*
X177393600Y-130020900D03*
%TD*%
%TO.N,unconnected-(A1-VBUS-Pad40)*%
D30*
X131370000Y-84310000D02*
X131370000Y-85110000D01*
%TO.N,unconnected-(A1-3V3_EN-Pad37)*%
X138990000Y-84310000D02*
X138990000Y-85110000D01*
%TO.N,unconnected-(A1-ADC_VREF-Pad35)*%
X144070000Y-84310000D02*
X144070000Y-85110000D01*
%TO.N,unconnected-(A1-GPIO28_ADC2-Pad34)*%
X146610000Y-84310000D02*
X146610000Y-85110000D01*
%TO.N,unconnected-(A1-GPIO27_ADC1-Pad32)*%
X151690000Y-84310000D02*
X151690000Y-85110000D01*
%TO.N,unconnected-(A1-GPIO26_ADC0-Pad31)*%
X154230000Y-84310000D02*
X154230000Y-85110000D01*
%TO.N,unconnected-(A1-RUN-Pad30)*%
X156770000Y-84310000D02*
X156770000Y-85110000D01*
%TO.N,VSYS*%
X133910000Y-81810000D02*
X133910000Y-84310000D01*
X134830000Y-80890000D02*
X133910000Y-81810000D01*
X133910000Y-84310000D02*
X133910000Y-85110000D01*
%TO.N,CA_AD7*%
X145425000Y-65680600D02*
X145425000Y-51245700D01*
%TO.N,CA_AD6*%
X145783600Y-66820500D02*
X144775000Y-66820500D01*
X146612300Y-65991800D02*
X145783600Y-66820500D01*
X146612300Y-52060100D02*
X146612300Y-65991800D01*
X144775000Y-65680600D02*
X144775000Y-66820500D01*
%TO.N,CA_AD5*%
X143933500Y-52543800D02*
X143933500Y-45633000D01*
X144125000Y-52735300D02*
X143933500Y-52543800D01*
X144125000Y-65680600D02*
X144125000Y-52735300D01*
%TO.N,CA_AD4*%
X143475000Y-65680600D02*
X143475000Y-53021800D01*
%TO.N,CA_AD3*%
X141406200Y-45593800D02*
X142500000Y-44500000D01*
X141406200Y-51676700D02*
X141406200Y-45593800D01*
X142825000Y-53095500D02*
X141406200Y-51676700D01*
X142825000Y-65680600D02*
X142825000Y-53095500D01*
%TO.N,CA_AD2*%
X142175000Y-57681700D02*
X142175000Y-65680600D01*
X138750000Y-54256700D02*
X142175000Y-57681700D01*
X138750000Y-45750000D02*
X138750000Y-54256700D01*
X137500000Y-44500000D02*
X138750000Y-45750000D01*
%TO.N,CA_AD1*%
X136373200Y-45873200D02*
X135000000Y-44500000D01*
X136373200Y-53261100D02*
X136373200Y-45873200D01*
X141525000Y-58412900D02*
X136373200Y-53261100D01*
X141525000Y-65680600D02*
X141525000Y-58412900D01*
%TO.N,CA_AD0*%
X133750000Y-45750000D02*
X132500000Y-44500000D01*
X133750000Y-51799000D02*
X133750000Y-45750000D01*
X140875000Y-58924000D02*
X133750000Y-51799000D01*
X140875000Y-65680600D02*
X140875000Y-58924000D01*
%TO.N,STATUS_LED*%
X159310000Y-84310000D02*
X159310000Y-85110000D01*
X180510000Y-81482800D02*
X180508800Y-81484000D01*
X180510000Y-79000000D02*
X180510000Y-81482800D01*
%TO.N,3V3_OUT*%
X139575000Y-65680600D02*
X139575000Y-64540700D01*
X169575000Y-65680600D02*
X169575000Y-64540700D01*
X138480000Y-65260100D02*
X139056000Y-64684100D01*
X138480000Y-65500000D02*
X138480000Y-65260100D01*
X139199400Y-64540700D02*
X139575000Y-64540700D01*
X139056000Y-64684100D02*
X139199400Y-64540700D01*
X138947500Y-64575700D02*
X138947500Y-63989700D01*
X139056000Y-64684100D02*
X138947500Y-64575700D01*
X168964600Y-64325900D02*
X168964600Y-63989700D01*
X169179400Y-64540700D02*
X168964600Y-64325900D01*
X168460000Y-65260100D02*
X169179400Y-64540700D01*
X168460000Y-65500000D02*
X168460000Y-65260100D01*
X169179400Y-64540700D02*
X169575000Y-64540700D01*
X141530000Y-84310000D02*
X141530000Y-85110000D01*
X141550000Y-81670000D02*
X140270000Y-80390000D01*
X141530000Y-81690000D02*
X141550000Y-81670000D01*
X141530000Y-84310000D02*
X141530000Y-81690000D01*
X141550000Y-81670000D02*
X142830000Y-80390000D01*
X138480000Y-78600000D02*
X140270000Y-80390000D01*
X138480000Y-65500000D02*
X138480000Y-78600000D01*
%TO.N,CART_EN*%
X166930000Y-84310000D02*
X166930000Y-85110000D01*
X170225000Y-65680600D02*
X170225000Y-67038700D01*
X140225000Y-65680600D02*
X140225000Y-67038700D01*
X167432200Y-80277800D02*
X167432200Y-76674500D01*
X166810000Y-80900000D02*
X167432200Y-80277800D01*
X167098700Y-81188700D02*
X166810000Y-80900000D01*
X167098700Y-84141300D02*
X167098700Y-81188700D01*
X166930000Y-84310000D02*
X167098700Y-84141300D01*
%TO.N,CA_AD8*%
X170875000Y-58265000D02*
X170875000Y-65680600D01*
X163759700Y-51149700D02*
X170875000Y-58265000D01*
%TO.N,CA_AD9*%
X162960900Y-49500000D02*
X162500000Y-49500000D01*
X171525000Y-58064100D02*
X162960900Y-49500000D01*
X171525000Y-65680600D02*
X171525000Y-58064100D01*
%TO.N,CA_AD10*%
X172175000Y-65680600D02*
X172175000Y-51538400D01*
%TO.N,CA_AD11*%
X172825000Y-65680600D02*
X172825000Y-52089900D01*
%TO.N,CA_AD12*%
X173475000Y-65680600D02*
X173475000Y-52703200D01*
%TO.N,CA_AD13*%
X174125000Y-65680600D02*
X174125000Y-64540700D01*
X174075600Y-53474400D02*
X174100300Y-53449700D01*
X174075600Y-64491300D02*
X174075600Y-53474400D01*
X174125000Y-64540700D02*
X174075600Y-64491300D01*
%TO.N,CA_AD14*%
X174775000Y-65680600D02*
X174775000Y-64540700D01*
X174626100Y-55250900D02*
X174700600Y-55176400D01*
X174626100Y-64391800D02*
X174626100Y-55250900D01*
X174775000Y-64540700D02*
X174626100Y-64391800D01*
%TO.N,CA_AD15*%
X175425000Y-56397100D02*
X175295300Y-56267400D01*
X175425000Y-65680600D02*
X175425000Y-56397100D01*
%TO.N,KILL*%
X164390000Y-84310000D02*
X164390000Y-85110000D01*
X143273100Y-78926900D02*
X143273100Y-74876700D01*
X141810000Y-80390000D02*
X143273100Y-78926900D01*
%TO.N,Net-(D1-A)*%
X180115800Y-78374200D02*
X179490000Y-79000000D01*
X180882900Y-78374200D02*
X180115800Y-78374200D01*
X182156300Y-79647600D02*
X180882900Y-78374200D01*
X182847400Y-79647600D02*
X182156300Y-79647600D01*
X183495000Y-79000000D02*
X182847400Y-79647600D01*
%TO.N,R_AUDIO*%
X186202300Y-45702300D02*
X185000000Y-44500000D01*
X186202300Y-55337000D02*
X186202300Y-45702300D01*
X187313900Y-56448600D02*
X186202300Y-55337000D01*
X187313900Y-80720000D02*
X187313900Y-56448600D01*
X186558700Y-81475200D02*
X187313900Y-80720000D01*
X186558700Y-108684100D02*
X186558700Y-81475200D01*
X186510500Y-108732300D02*
X186558700Y-108684100D01*
X186510500Y-110180000D02*
X186510500Y-108732300D01*
X186533800Y-110203300D02*
X186510500Y-110180000D01*
X186533800Y-126839400D02*
X186533800Y-110203300D01*
X186151800Y-127221400D02*
X186533800Y-126839400D01*
X186151800Y-133269400D02*
X186151800Y-127221400D01*
%TO.N,VIDEO_CLK*%
X178577000Y-43423000D02*
X177500000Y-44500000D01*
X182988400Y-43423000D02*
X178577000Y-43423000D01*
X183566800Y-44001400D02*
X182988400Y-43423000D01*
X183566800Y-54622900D02*
X183566800Y-44001400D01*
X186108800Y-57164900D02*
X183566800Y-54622900D01*
X186108800Y-80221100D02*
X186108800Y-57164900D01*
X185353600Y-80976300D02*
X186108800Y-80221100D01*
X185353600Y-108185200D02*
X185353600Y-80976300D01*
X185128700Y-108410100D02*
X185353600Y-108185200D01*
X185128700Y-110502200D02*
X185128700Y-108410100D01*
X185328700Y-110702200D02*
X185128700Y-110502200D01*
X185328700Y-111533200D02*
X185328700Y-110702200D01*
X185000000Y-111861900D02*
X185328700Y-111533200D01*
X185000000Y-126306200D02*
X185000000Y-111861900D01*
X179705100Y-131601100D02*
X185000000Y-126306200D01*
%TO.N,NMI_R4300*%
X187715600Y-108095200D02*
X187715600Y-51966300D01*
X186912200Y-108898600D02*
X187715600Y-108095200D01*
X186912200Y-110013700D02*
X186912200Y-108898600D01*
X186935500Y-110037000D02*
X186912200Y-110013700D01*
X186935500Y-130974000D02*
X186935500Y-110037000D01*
X186912200Y-130997300D02*
X186935500Y-130974000D01*
%TO.N,JTAG_CLK*%
X180756300Y-74734400D02*
X180756300Y-50563700D01*
X183465200Y-77443300D02*
X180756300Y-74734400D01*
X183536200Y-77443300D02*
X183465200Y-77443300D01*
X184502000Y-78409100D02*
X183536200Y-77443300D01*
X184502000Y-79555900D02*
X184502000Y-78409100D01*
X183543500Y-80514400D02*
X184502000Y-79555900D01*
X183543500Y-98001300D02*
X183543500Y-80514400D01*
X183313900Y-98230900D02*
X183543500Y-98001300D01*
X183313900Y-124347300D02*
X183313900Y-98230900D01*
X178246500Y-129414700D02*
X183313900Y-124347300D01*
%TO.N,PIF_CIC*%
X185550200Y-55253000D02*
X185550200Y-55070700D01*
X186912200Y-56615000D02*
X185550200Y-55253000D01*
X186912200Y-80553700D02*
X186912200Y-56615000D01*
X186157000Y-81308900D02*
X186912200Y-80553700D01*
X186157000Y-108517800D02*
X186157000Y-81308900D01*
X185932100Y-108742700D02*
X186157000Y-108517800D01*
X185932100Y-110169600D02*
X185932100Y-108742700D01*
X186132100Y-110369600D02*
X185932100Y-110169600D01*
X186132100Y-111865800D02*
X186132100Y-110369600D01*
X185803400Y-112194500D02*
X186132100Y-111865800D01*
X185803400Y-127001800D02*
X185803400Y-112194500D01*
X185707100Y-127098100D02*
X185803400Y-127001800D01*
X185707100Y-128633700D02*
X185707100Y-127098100D01*
X185550100Y-128790700D02*
X185707100Y-128633700D01*
%TO.N,AD7*%
X154230000Y-102890000D02*
X154230000Y-103690000D01*
X154230000Y-103690000D02*
X154230000Y-124327800D01*
X144775000Y-71319400D02*
X144775000Y-70179500D01*
X154230000Y-88522000D02*
X154230000Y-102890000D01*
X152960100Y-87252100D02*
X154230000Y-88522000D01*
X152960100Y-74660600D02*
X152960100Y-87252100D01*
X148479000Y-70179500D02*
X152960100Y-74660600D01*
X144775000Y-70179500D02*
X148479000Y-70179500D01*
%TO.N,AD6*%
X151690000Y-102890000D02*
X151690000Y-103690000D01*
X151690000Y-103690000D02*
X151690000Y-122638800D01*
X144699800Y-73034100D02*
X144125000Y-72459300D01*
X144699800Y-73125900D02*
X144699800Y-73034100D01*
X144125000Y-71319400D02*
X144125000Y-72459300D01*
X150539700Y-89729700D02*
X150539700Y-73125900D01*
X151798700Y-90988700D02*
X150539700Y-89729700D01*
X151798700Y-102781300D02*
X151798700Y-90988700D01*
X151690000Y-102890000D02*
X151798700Y-102781300D01*
%TO.N,AD5*%
X146610000Y-102890000D02*
X146610000Y-103690000D01*
X143475000Y-71319400D02*
X143475000Y-72459300D01*
X146732100Y-102767900D02*
X146610000Y-102890000D01*
X146732100Y-89374300D02*
X146732100Y-102767900D01*
X147763900Y-88342500D02*
X146732100Y-89374300D01*
X147763900Y-76894500D02*
X147763900Y-88342500D01*
X144597000Y-73727600D02*
X147763900Y-76894500D01*
X144450700Y-73727600D02*
X144597000Y-73727600D01*
X144098100Y-73375000D02*
X144450700Y-73727600D01*
X144098100Y-73082400D02*
X144098100Y-73375000D01*
X143475000Y-72459300D02*
X144098100Y-73082400D01*
X143270600Y-128564200D02*
X143474100Y-128767700D01*
X143270600Y-111843000D02*
X143270600Y-128564200D01*
X146610000Y-108503600D02*
X143270600Y-111843000D01*
X146610000Y-103690000D02*
X146610000Y-108503600D01*
%TO.N,AD4*%
X144070000Y-102890000D02*
X144070000Y-103690000D01*
X142868900Y-131138500D02*
X143021700Y-131291300D01*
X142868900Y-111676700D02*
X142868900Y-131138500D01*
X143043500Y-111502100D02*
X142868900Y-111676700D01*
X143043500Y-104716500D02*
X143043500Y-111502100D01*
X144070000Y-103690000D02*
X143043500Y-104716500D01*
X146261500Y-100698500D02*
X144070000Y-102890000D01*
X146261500Y-93525800D02*
X146261500Y-100698500D01*
X145222200Y-92486500D02*
X146261500Y-93525800D01*
X145222200Y-74934300D02*
X145222200Y-92486500D01*
X144417200Y-74129300D02*
X145222200Y-74934300D01*
X144284400Y-74129300D02*
X144417200Y-74129300D01*
X143696400Y-73541300D02*
X144284400Y-74129300D01*
X143696400Y-73408500D02*
X143696400Y-73541300D01*
X142825000Y-72537100D02*
X143696400Y-73408500D01*
X142825000Y-71319400D02*
X142825000Y-72537100D01*
%TO.N,ALE_H*%
X177090000Y-84310000D02*
X177090000Y-85110000D01*
X176417400Y-80365800D02*
X176417400Y-48432700D01*
X177090000Y-81038400D02*
X176417400Y-80365800D01*
X177090000Y-84310000D02*
X177090000Y-81038400D01*
X144310000Y-115497700D02*
X144310000Y-113400000D01*
X145615300Y-116803000D02*
X144310000Y-115497700D01*
X146781600Y-116803000D02*
X145615300Y-116803000D01*
X147947700Y-117969100D02*
X146781600Y-116803000D01*
X147947700Y-132159500D02*
X147947700Y-117969100D01*
X148743600Y-132955400D02*
X147947700Y-132159500D01*
X151085100Y-130765200D02*
X151085100Y-110449500D01*
X148894900Y-132955400D02*
X151085100Y-130765200D01*
X148743600Y-132955400D02*
X148894900Y-132955400D01*
X181802300Y-97833200D02*
X181802300Y-97845000D01*
X182310500Y-97325000D02*
X181802300Y-97833200D01*
X182310500Y-84064700D02*
X182310500Y-97325000D01*
X180705500Y-82459700D02*
X182310500Y-84064700D01*
%TO.N,ALE_L*%
X179630000Y-84310000D02*
X179630000Y-85110000D01*
X148800000Y-113400000D02*
X148800000Y-132147500D01*
X146344000Y-45844000D02*
X145000000Y-44500000D01*
X146344000Y-50262300D02*
X146344000Y-45844000D01*
X154007600Y-57925900D02*
X146344000Y-50262300D01*
X154007600Y-70843400D02*
X154007600Y-57925900D01*
X150483400Y-111716600D02*
X148800000Y-113400000D01*
X150483400Y-101589600D02*
X150483400Y-111716600D01*
%TO.N,AD3*%
X141250000Y-103970000D02*
X141250000Y-133619200D01*
X141530000Y-103690000D02*
X141250000Y-103970000D01*
X142175000Y-71319400D02*
X142175000Y-72459300D01*
X141530000Y-102890000D02*
X141530000Y-103690000D01*
X145801600Y-98618400D02*
X141530000Y-102890000D01*
X145801600Y-94689500D02*
X145801600Y-98618400D01*
X142944300Y-91832200D02*
X145801600Y-94689500D01*
X142944300Y-82115900D02*
X142944300Y-91832200D01*
X143891500Y-81168700D02*
X142944300Y-82115900D01*
X143891500Y-74304400D02*
X143891500Y-81168700D01*
X142175000Y-72587900D02*
X143891500Y-74304400D01*
X142175000Y-72459300D02*
X142175000Y-72587900D01*
%TO.N,AD2*%
X138990000Y-103690000D02*
X138990000Y-102890000D01*
X138990000Y-103690000D02*
X138990000Y-132895500D01*
X141525000Y-71319400D02*
X141525000Y-70179500D01*
X136719100Y-100619100D02*
X138990000Y-102890000D01*
X136719100Y-91877400D02*
X136719100Y-100619100D01*
X137885300Y-90711200D02*
X136719100Y-91877400D01*
X137885300Y-81952600D02*
X137885300Y-90711200D01*
X138974800Y-78240200D02*
X140073700Y-79339100D01*
X138974800Y-69612400D02*
X138974800Y-78240200D01*
X139557300Y-69029900D02*
X138974800Y-69612400D01*
X140825400Y-69029900D02*
X139557300Y-69029900D01*
X141525000Y-69729500D02*
X140825400Y-69029900D01*
X141525000Y-70179500D02*
X141525000Y-69729500D01*
%TO.N,AD1*%
X140875000Y-70095400D02*
X140875000Y-71319400D01*
X140576200Y-69796600D02*
X140875000Y-70095400D01*
X140576200Y-69631600D02*
X140576200Y-69796600D01*
X134345600Y-104125600D02*
X133910000Y-103690000D01*
X134345600Y-133371500D02*
X134345600Y-104125600D01*
X133910000Y-103690000D02*
X133910000Y-102890000D01*
X132498500Y-87394900D02*
X132498500Y-69276900D01*
X136020600Y-90917000D02*
X132498500Y-87394900D01*
X136020600Y-100779400D02*
X136020600Y-90917000D01*
X133910000Y-102890000D02*
X136020600Y-100779400D01*
%TO.N,AD0*%
X131370000Y-102890000D02*
X131370000Y-103690000D01*
X129838500Y-101358500D02*
X129838500Y-78523800D01*
X131370000Y-102890000D02*
X129838500Y-101358500D01*
X140225000Y-71319400D02*
X140225000Y-78523800D01*
X131595700Y-103915700D02*
X131370000Y-103690000D01*
X131595700Y-132987400D02*
X131595700Y-103915700D01*
%TO.N,LAUDIO*%
X185000000Y-136500000D02*
X185000000Y-133698300D01*
X184948400Y-49551600D02*
X185000000Y-49500000D01*
X184948400Y-55385500D02*
X184948400Y-49551600D01*
X186510500Y-56947600D02*
X184948400Y-55385500D01*
X186510500Y-80387400D02*
X186510500Y-56947600D01*
X185755300Y-81142600D02*
X186510500Y-80387400D01*
X185755300Y-108351500D02*
X185755300Y-81142600D01*
X185530400Y-108576400D02*
X185755300Y-108351500D01*
X185530400Y-110335900D02*
X185530400Y-108576400D01*
X185730400Y-110535900D02*
X185530400Y-110335900D01*
X185730400Y-111699500D02*
X185730400Y-110535900D01*
X185401700Y-112028200D02*
X185730400Y-111699500D01*
X185401700Y-126835500D02*
X185401700Y-112028200D01*
X184948400Y-127288800D02*
X185401700Y-126835500D01*
X184948400Y-133646700D02*
X184948400Y-127288800D01*
X185000000Y-133698300D02*
X184948400Y-133646700D01*
%TO.N,S_DAT*%
X185707100Y-57707100D02*
X185479000Y-57479000D01*
X185707100Y-80054800D02*
X185707100Y-57707100D01*
X184951900Y-80810000D02*
X185707100Y-80054800D01*
X184951900Y-108018900D02*
X184951900Y-80810000D01*
X184727000Y-108243800D02*
X184951900Y-108018900D01*
X184727000Y-110668500D02*
X184727000Y-108243800D01*
X184927000Y-110868500D02*
X184727000Y-110668500D01*
X184927000Y-111366900D02*
X184927000Y-110868500D01*
X184550200Y-111743700D02*
X184927000Y-111366900D01*
X184550200Y-125622100D02*
X184550200Y-111743700D01*
X177500000Y-132672300D02*
X184550200Y-125622100D01*
X177500000Y-136500000D02*
X177500000Y-132672300D01*
%TO.N,COLD_RST*%
X175000000Y-136500000D02*
X175000000Y-133698300D01*
X175000000Y-48967100D02*
X175000000Y-49500000D01*
X176172100Y-47795000D02*
X175000000Y-48967100D01*
X179811200Y-47795000D02*
X176172100Y-47795000D01*
X181358000Y-49341800D02*
X179811200Y-47795000D01*
X181358000Y-74697100D02*
X181358000Y-49341800D01*
X184903700Y-78242800D02*
X181358000Y-74697100D01*
X184903700Y-79722200D02*
X184903700Y-78242800D01*
X183945200Y-80680700D02*
X184903700Y-79722200D01*
X183945200Y-98167600D02*
X183945200Y-80680700D01*
X183723600Y-98389200D02*
X183945200Y-98167600D01*
X183723600Y-124974700D02*
X183723600Y-98389200D01*
X175000000Y-133698300D02*
X183723600Y-124974700D01*
%TO.N,CLK_PIF*%
X165957800Y-81337700D02*
X166471600Y-81851500D01*
X164958700Y-81337700D02*
X165957800Y-81337700D01*
X163263800Y-83032600D02*
X164958700Y-81337700D01*
X163263800Y-106133000D02*
X163263800Y-83032600D01*
X172500000Y-115369200D02*
X163263800Y-106133000D01*
X172500000Y-136500000D02*
X172500000Y-115369200D01*
X175904500Y-80631800D02*
X175868500Y-80667800D01*
X175904500Y-52904500D02*
X175904500Y-80631800D01*
X172500000Y-49500000D02*
X175904500Y-52904500D01*
%TO.N,CIC_PIF*%
X170000000Y-136500000D02*
X170000000Y-117846100D01*
X185305400Y-58301300D02*
X184663000Y-57658900D01*
X185305400Y-79888500D02*
X185305400Y-58301300D01*
X184550200Y-80643700D02*
X185305400Y-79888500D01*
X184550200Y-107752700D02*
X184550200Y-80643700D01*
X184325300Y-107977600D02*
X184550200Y-107752700D01*
X184325300Y-111117700D02*
X184325300Y-107977600D01*
%TO.N,AD8*%
X156770000Y-102890000D02*
X156770000Y-103690000D01*
X159246800Y-101203200D02*
X159064400Y-101203200D01*
X160440000Y-102396400D02*
X159246800Y-101203200D01*
X160440000Y-105626400D02*
X160440000Y-102396400D01*
X165000000Y-110186400D02*
X160440000Y-105626400D01*
X165000000Y-136500000D02*
X165000000Y-110186400D01*
X159064400Y-86973000D02*
X159064400Y-101203200D01*
X160581400Y-85456000D02*
X159064400Y-86973000D01*
X160581400Y-82391700D02*
X160581400Y-85456000D01*
X170225000Y-72748100D02*
X160581400Y-82391700D01*
X170225000Y-71319400D02*
X170225000Y-72748100D01*
%TO.N,AD9*%
X159310000Y-102890000D02*
X159310000Y-103690000D01*
X162500000Y-118721100D02*
X162500000Y-136500000D01*
X159310000Y-115531100D02*
X162500000Y-118721100D01*
X159310000Y-103690000D02*
X159310000Y-115531100D01*
X169951300Y-69255800D02*
X170875000Y-70179500D01*
X169341000Y-69255800D02*
X169951300Y-69255800D01*
X158153200Y-80443600D02*
X169341000Y-69255800D01*
X158153200Y-103258400D02*
X158153200Y-80443600D01*
X158211600Y-103316800D02*
X158153200Y-103258400D01*
X158407000Y-103316800D02*
X158211600Y-103316800D01*
X159310000Y-104219800D02*
X158407000Y-103316800D01*
X159310000Y-115531100D02*
X159310000Y-104219800D01*
X170875000Y-71319400D02*
X170875000Y-70179500D01*
%TO.N,NC*%
X160000000Y-136500000D02*
X160000000Y-133698300D01*
X160000000Y-133698300D02*
X158262500Y-133698300D01*
X158262500Y-133698300D02*
X158262500Y-133483800D01*
X160000000Y-49500000D02*
X160000000Y-44500000D01*
X139575000Y-71319400D02*
X139575000Y-70179500D01*
X169575000Y-71319400D02*
X169575000Y-69882300D01*
X157500000Y-69882300D02*
X157500000Y-49500000D01*
X139575000Y-69883900D02*
X139576600Y-69882300D01*
X139575000Y-70179500D02*
X139575000Y-69883900D01*
X157500000Y-136500000D02*
X157500000Y-133849500D01*
X157651200Y-133698300D02*
X158262500Y-133698300D01*
X157500000Y-133849500D02*
X157651200Y-133698300D01*
X129185100Y-68626500D02*
X129185100Y-127672400D01*
%TO.N,AD10*%
X164390000Y-102890000D02*
X164390000Y-103690000D01*
X155000000Y-136500000D02*
X155000000Y-133698300D01*
X165504800Y-101775200D02*
X165504800Y-81948300D01*
X164390000Y-102890000D02*
X165504800Y-101775200D01*
X154937200Y-133635500D02*
X155000000Y-133698300D01*
X154937200Y-106135700D02*
X154937200Y-133635500D01*
X171525000Y-71319400D02*
X171525000Y-78660500D01*
%TO.N,AD11*%
X166930000Y-102890000D02*
X166930000Y-103690000D01*
X153595100Y-132603200D02*
X153595100Y-106741100D01*
X152500000Y-133698300D02*
X153595100Y-132603200D01*
X152500000Y-136500000D02*
X152500000Y-133698300D01*
X172175000Y-78933300D02*
X172175000Y-71319400D01*
X168312700Y-82795600D02*
X172175000Y-78933300D01*
X168312700Y-101507300D02*
X168312700Y-82795600D01*
X166930000Y-102890000D02*
X168312700Y-101507300D01*
%TO.N,READ*%
X172010000Y-84310000D02*
X172010000Y-85110000D01*
X150000000Y-136500000D02*
X150000000Y-133698300D01*
X152960100Y-130738200D02*
X152960100Y-89341400D01*
X150000000Y-133698300D02*
X152960100Y-130738200D01*
X155011000Y-54511000D02*
X150000000Y-49500000D01*
X155011000Y-71258900D02*
X155011000Y-54511000D01*
X154816400Y-71453500D02*
X155011000Y-71258900D01*
X154816400Y-76710100D02*
X154816400Y-71453500D01*
X156604100Y-78497800D02*
X154816400Y-76710100D01*
X156604100Y-81383000D02*
X156604100Y-78497800D01*
%TO.N,WRITE*%
X169470000Y-84310000D02*
X169470000Y-85110000D01*
X145000000Y-136500000D02*
X145000000Y-133698300D01*
X147737500Y-108014200D02*
X147737500Y-89355400D01*
X143672300Y-112079400D02*
X147737500Y-108014200D01*
X143672300Y-128009000D02*
X143672300Y-112079400D01*
X145000000Y-129336700D02*
X143672300Y-128009000D01*
X145000000Y-133698300D02*
X145000000Y-129336700D01*
X153798600Y-71485100D02*
X153798600Y-82152800D01*
X153798500Y-71485100D02*
X153798600Y-71485100D01*
X153396900Y-71083500D02*
X153798500Y-71485100D01*
X153396900Y-57896900D02*
X153396900Y-71083500D01*
X145000000Y-49500000D02*
X153396900Y-57896900D01*
%TO.N,AD12*%
X169470000Y-102890000D02*
X169470000Y-103690000D01*
X142417200Y-133615500D02*
X142417200Y-107209500D01*
X142500000Y-133698300D02*
X142417200Y-133615500D01*
X142500000Y-136500000D02*
X142500000Y-133698300D01*
X170740000Y-101620000D02*
X169470000Y-102890000D01*
X170740000Y-82631400D02*
X170740000Y-101620000D01*
X172825000Y-80546400D02*
X170740000Y-82631400D01*
X172825000Y-71319400D02*
X172825000Y-80546400D01*
%TO.N,AD13*%
X137500000Y-136500000D02*
X137500000Y-107819500D01*
X172010000Y-102890000D02*
X172010000Y-103690000D01*
X173475000Y-82288500D02*
X173475000Y-71319400D01*
X173303000Y-82460500D02*
X173475000Y-82288500D01*
X173303000Y-85447000D02*
X173303000Y-82460500D01*
X172010000Y-86740000D02*
X173303000Y-85447000D01*
X172010000Y-102890000D02*
X172010000Y-86740000D01*
%TO.N,AD14*%
X135000000Y-136500000D02*
X135000000Y-108445200D01*
X177090000Y-102890000D02*
X177090000Y-103690000D01*
X174125000Y-71319400D02*
X174125000Y-72459300D01*
X177658000Y-102890000D02*
X177090000Y-102890000D01*
X182510500Y-98037500D02*
X177658000Y-102890000D01*
X182510500Y-97693000D02*
X182510500Y-98037500D01*
X182712200Y-97491300D02*
X182510500Y-97693000D01*
X182712200Y-81018400D02*
X182712200Y-97491300D01*
X182536500Y-80842700D02*
X182712200Y-81018400D01*
X174078800Y-72505500D02*
X174078800Y-77217300D01*
X174125000Y-72459300D02*
X174078800Y-72505500D01*
%TO.N,AD15*%
X179630000Y-102890000D02*
X179630000Y-103690000D01*
X132500000Y-136500000D02*
X132500000Y-133698300D01*
X132545900Y-133652400D02*
X132545900Y-111354100D01*
X132500000Y-133698300D02*
X132545900Y-133652400D01*
X174680500Y-72553800D02*
X174775000Y-72459300D01*
X174680500Y-76401200D02*
X174680500Y-72553800D01*
X174775000Y-71319400D02*
X174775000Y-72459300D01*
X183299200Y-77845000D02*
X182998000Y-77845000D01*
X184100300Y-78646100D02*
X183299200Y-77845000D01*
X184100300Y-79389600D02*
X184100300Y-78646100D01*
X183141800Y-80348100D02*
X184100300Y-79389600D01*
X183141800Y-97732400D02*
X183141800Y-80348100D01*
X182912200Y-97962000D02*
X183141800Y-97732400D01*
X182912200Y-99607800D02*
X182912200Y-97962000D01*
X179630000Y-102890000D02*
X182912200Y-99607800D01*
%TO.N,3V3_CART*%
X167500000Y-136500000D02*
X167500000Y-133698300D01*
X167500000Y-133698300D02*
X167710200Y-133488100D01*
X147500000Y-49500000D02*
X147500000Y-44500000D01*
X167500000Y-49500000D02*
X167500000Y-44500000D01*
X147500000Y-133476900D02*
X147509700Y-133476900D01*
X147500000Y-133476900D02*
X147500000Y-136500000D01*
X147500000Y-120141200D02*
X147313000Y-119954200D01*
X147500000Y-133476900D02*
X147500000Y-120141200D01*
X147313000Y-118843000D02*
X147313000Y-119954200D01*
X146310000Y-117840000D02*
X147313000Y-118843000D01*
X154609300Y-56609300D02*
X147500000Y-49500000D01*
X154609300Y-71092600D02*
X154609300Y-56609300D01*
X154256800Y-71445100D02*
X154609300Y-71092600D01*
X154256800Y-76718600D02*
X154256800Y-71445100D01*
X155607500Y-78069300D02*
X154256800Y-76718600D01*
X155607500Y-119954200D02*
X155607500Y-78069300D01*
%TO.N,GND*%
X127500000Y-133698300D02*
X130000000Y-133698300D01*
X130000000Y-136500000D02*
X130000000Y-133698300D01*
X127500000Y-136500000D02*
X127500000Y-135099100D01*
X127500000Y-135099100D02*
X127500000Y-133698300D01*
X126135800Y-133734900D02*
X126135800Y-133698300D01*
X127500000Y-135099100D02*
X126135800Y-133734900D01*
X189194900Y-134341700D02*
X189194900Y-134805100D01*
X188551500Y-133698300D02*
X189194900Y-134341700D01*
X187500000Y-133698300D02*
X188551500Y-133698300D01*
X130000000Y-49500000D02*
X130000000Y-44500000D01*
X140000000Y-49500000D02*
X140000000Y-44500000D01*
X182500000Y-49500000D02*
X182500000Y-44500000D01*
X187500000Y-49500000D02*
X187500000Y-44500000D01*
X130000000Y-57980000D02*
X137520000Y-65500000D01*
X130000000Y-49500000D02*
X130000000Y-57980000D01*
X135790000Y-83650000D02*
X136450000Y-84310000D01*
X135790000Y-80890000D02*
X135790000Y-83650000D01*
X149150000Y-112030000D02*
X149150000Y-103690000D01*
X148800000Y-112380000D02*
X149150000Y-112030000D01*
X145425000Y-71319400D02*
X145425000Y-72459300D01*
X136450000Y-84310000D02*
X136450000Y-85110000D01*
X149150000Y-84310000D02*
X149150000Y-85110000D01*
X161850000Y-84310000D02*
X161850000Y-85110000D01*
X174550000Y-84310000D02*
X174550000Y-85110000D01*
X174550000Y-102890000D02*
X174550000Y-103690000D01*
X161850000Y-102890000D02*
X161850000Y-103690000D01*
X149150000Y-102890000D02*
X149150000Y-103690000D01*
X136450000Y-102890000D02*
X136450000Y-103690000D01*
X162568400Y-85828400D02*
X161850000Y-85110000D01*
X162568400Y-102171600D02*
X162568400Y-85828400D01*
X161850000Y-102890000D02*
X162568400Y-102171600D01*
X140020300Y-133678000D02*
X140020300Y-133481100D01*
X140000000Y-133698300D02*
X140020300Y-133678000D01*
X140000000Y-135485500D02*
X140000000Y-134958100D01*
X140000000Y-136500000D02*
X140000000Y-135485500D01*
X140000000Y-134958100D02*
X140000000Y-133698300D01*
X138369500Y-105609500D02*
X136450000Y-103690000D01*
X138369500Y-133327600D02*
X138369500Y-105609500D01*
X140000000Y-134958100D02*
X138369500Y-133327600D01*
X182500000Y-136500000D02*
X182500000Y-133799100D01*
X182500000Y-133799100D02*
X182500000Y-133699800D01*
X182500000Y-133699800D02*
X182500000Y-133698300D01*
X187500000Y-136500000D02*
X187500000Y-133698300D01*
X182500000Y-133698300D02*
X182500000Y-133255800D01*
X172179500Y-70179500D02*
X175425000Y-70179500D01*
X167500000Y-65500000D02*
X172179500Y-70179500D01*
X175425000Y-71319400D02*
X175425000Y-70179500D01*
X137520000Y-80390000D02*
X139310000Y-80390000D01*
X180000000Y-136500000D02*
X180000000Y-133799100D01*
X149150000Y-76184300D02*
X149150000Y-84310000D01*
X145425000Y-72459300D02*
X149150000Y-76184300D01*
X180100800Y-133698300D02*
X182500000Y-133698300D01*
X180000000Y-133799100D02*
X180100800Y-133698300D01*
X175425000Y-71319400D02*
X175425000Y-72459300D01*
X136450000Y-81460000D02*
X136450000Y-84310000D01*
X137520000Y-80390000D02*
X136450000Y-81460000D01*
X174550000Y-127177300D02*
X177393600Y-130020900D01*
X174550000Y-103690000D02*
X174550000Y-127177300D01*
X161850000Y-83813000D02*
X161850000Y-84310000D01*
X165783000Y-79880000D02*
X161850000Y-83813000D01*
X166810000Y-79880000D02*
X165783000Y-79880000D01*
X174550000Y-84310000D02*
X175266800Y-84310000D01*
X137520000Y-80390000D02*
X137520000Y-65500000D01*
X145928600Y-113998600D02*
X146310000Y-113998600D01*
X144310000Y-112380000D02*
X145928600Y-113998600D01*
X146310000Y-113998600D02*
X146310000Y-115940000D01*
X147928600Y-112380000D02*
X146310000Y-113998600D01*
X148800000Y-112380000D02*
X147928600Y-112380000D01*
X178205900Y-79294900D02*
X180322900Y-77177900D01*
X178205900Y-85583700D02*
X178205900Y-79294900D01*
X177570800Y-86218800D02*
X178205900Y-85583700D01*
X176604900Y-86218800D02*
X177570800Y-86218800D01*
X175266800Y-84880700D02*
X176604900Y-86218800D01*
X175266800Y-84310000D02*
X175266800Y-84880700D01*
X180000000Y-76855000D02*
X180322900Y-77177900D01*
X180000000Y-49500000D02*
X180000000Y-76855000D01*
X182145000Y-79000000D02*
X182525000Y-79000000D01*
X180322900Y-77177900D02*
X182145000Y-79000000D01*
X175425000Y-76507600D02*
X175425000Y-72459300D01*
X175266800Y-76665800D02*
X175425000Y-76507600D01*
X175266800Y-84310000D02*
X175266800Y-76665800D01*
%TD*%
%TA.AperFunction,Conductor*%
%TO.N,GND*%
G36*
X189442539Y-42520185D02*
G01*
X189488294Y-42572989D01*
X189499500Y-42624500D01*
X189499500Y-122876000D01*
X189479815Y-122943039D01*
X189427011Y-122988794D01*
X189375500Y-123000000D01*
X187660000Y-123000000D01*
X187592961Y-122980315D01*
X187547206Y-122927511D01*
X187536000Y-122876000D01*
X187536000Y-109957946D01*
X187536000Y-109957943D01*
X187529757Y-109934643D01*
X187516925Y-109886753D01*
X187512700Y-109854660D01*
X187512700Y-109198696D01*
X187532385Y-109131657D01*
X187549015Y-109111019D01*
X188074106Y-108585927D01*
X188074111Y-108585924D01*
X188084314Y-108575720D01*
X188084316Y-108575720D01*
X188196120Y-108463916D01*
X188254046Y-108363584D01*
X188275177Y-108326985D01*
X188316100Y-108174257D01*
X188316100Y-108016143D01*
X188316100Y-52546065D01*
X188335785Y-52479026D01*
X188336998Y-52477174D01*
X188397688Y-52386346D01*
X188424994Y-52345479D01*
X188426803Y-52341113D01*
X188449386Y-52286590D01*
X188485337Y-52199797D01*
X188516100Y-52045142D01*
X188516100Y-51887458D01*
X188516100Y-51887455D01*
X188516099Y-51887453D01*
X188494943Y-51781097D01*
X188485337Y-51732803D01*
X188476857Y-51712330D01*
X188424997Y-51587127D01*
X188424990Y-51587114D01*
X188337389Y-51456011D01*
X188337386Y-51456007D01*
X188225892Y-51344513D01*
X188225888Y-51344510D01*
X188094785Y-51256909D01*
X188094772Y-51256902D01*
X187949101Y-51196564D01*
X187949089Y-51196561D01*
X187794445Y-51165800D01*
X187794442Y-51165800D01*
X187636758Y-51165800D01*
X187636755Y-51165800D01*
X187482110Y-51196561D01*
X187482098Y-51196564D01*
X187336427Y-51256902D01*
X187336414Y-51256909D01*
X187205311Y-51344510D01*
X187205307Y-51344513D01*
X187093813Y-51456007D01*
X187093810Y-51456011D01*
X187029902Y-51551656D01*
X186976289Y-51596461D01*
X186906964Y-51605168D01*
X186843937Y-51575013D01*
X186807218Y-51515570D01*
X186802800Y-51482765D01*
X186802800Y-50763484D01*
X186822485Y-50696445D01*
X186875289Y-50650690D01*
X186944447Y-50640746D01*
X186983096Y-50653000D01*
X187015560Y-50669541D01*
X187204477Y-50730924D01*
X187400679Y-50762000D01*
X187599321Y-50762000D01*
X187795520Y-50730924D01*
X187795523Y-50730924D01*
X187984437Y-50669542D01*
X188161425Y-50579362D01*
X188198715Y-50552268D01*
X187527447Y-49881000D01*
X187550160Y-49881000D01*
X187647061Y-49855036D01*
X187733940Y-49804876D01*
X187804876Y-49733940D01*
X187855036Y-49647061D01*
X187881000Y-49550160D01*
X187881000Y-49527447D01*
X188552268Y-50198715D01*
X188579362Y-50161425D01*
X188669542Y-49984437D01*
X188730924Y-49795523D01*
X188730924Y-49795520D01*
X188762000Y-49599321D01*
X188762000Y-49400678D01*
X188730924Y-49204479D01*
X188730924Y-49204476D01*
X188669542Y-49015562D01*
X188579358Y-48838567D01*
X188552268Y-48801283D01*
X187881000Y-49472551D01*
X187881000Y-49449840D01*
X187855036Y-49352939D01*
X187804876Y-49266060D01*
X187733940Y-49195124D01*
X187647061Y-49144964D01*
X187550160Y-49119000D01*
X187527446Y-49119000D01*
X188198715Y-48447730D01*
X188161432Y-48420641D01*
X187984437Y-48330457D01*
X187795522Y-48269075D01*
X187599321Y-48238000D01*
X187400679Y-48238000D01*
X187204479Y-48269075D01*
X187204476Y-48269075D01*
X187015562Y-48330457D01*
X186983093Y-48347001D01*
X186914424Y-48359896D01*
X186849684Y-48333619D01*
X186809428Y-48276512D01*
X186802800Y-48236515D01*
X186802800Y-45791355D01*
X186802800Y-45781358D01*
X186802801Y-45781357D01*
X186802801Y-45763480D01*
X186818739Y-45709206D01*
X186822486Y-45696445D01*
X186822487Y-45696444D01*
X186822488Y-45696441D01*
X186855685Y-45667678D01*
X186875290Y-45650690D01*
X186875294Y-45650688D01*
X186908140Y-45645966D01*
X186944448Y-45640746D01*
X186944451Y-45640747D01*
X186944453Y-45640747D01*
X186983098Y-45653000D01*
X187015563Y-45669542D01*
X187204477Y-45730924D01*
X187400679Y-45762000D01*
X187599321Y-45762000D01*
X187795520Y-45730924D01*
X187795523Y-45730924D01*
X187984437Y-45669542D01*
X188161425Y-45579362D01*
X188198715Y-45552268D01*
X187527446Y-44881000D01*
X187550160Y-44881000D01*
X187647061Y-44855036D01*
X187733940Y-44804876D01*
X187804876Y-44733940D01*
X187855036Y-44647061D01*
X187881000Y-44550160D01*
X187881000Y-44527447D01*
X188552268Y-45198715D01*
X188579362Y-45161425D01*
X188669542Y-44984437D01*
X188730924Y-44795523D01*
X188730924Y-44795520D01*
X188762000Y-44599321D01*
X188762000Y-44400678D01*
X188730924Y-44204479D01*
X188730924Y-44204476D01*
X188669542Y-44015562D01*
X188579358Y-43838567D01*
X188552268Y-43801283D01*
X187881000Y-44472551D01*
X187881000Y-44449840D01*
X187855036Y-44352939D01*
X187804876Y-44266060D01*
X187733940Y-44195124D01*
X187647061Y-44144964D01*
X187550160Y-44119000D01*
X187527447Y-44119000D01*
X188198716Y-43447731D01*
X188198715Y-43447730D01*
X188161432Y-43420641D01*
X187984437Y-43330457D01*
X187795522Y-43269075D01*
X187599321Y-43238000D01*
X187400679Y-43238000D01*
X187204479Y-43269075D01*
X187204476Y-43269075D01*
X187015562Y-43330457D01*
X186838564Y-43420643D01*
X186801283Y-43447729D01*
X186801282Y-43447730D01*
X187472554Y-44119000D01*
X187449840Y-44119000D01*
X187352939Y-44144964D01*
X187266060Y-44195124D01*
X187195124Y-44266060D01*
X187144964Y-44352939D01*
X187119000Y-44449840D01*
X187119000Y-44472553D01*
X186447730Y-43801282D01*
X186447729Y-43801283D01*
X186420641Y-43838566D01*
X186360764Y-43956080D01*
X186312790Y-44006875D01*
X186244968Y-44023670D01*
X186178834Y-44001132D01*
X186139796Y-43956080D01*
X186079787Y-43838306D01*
X185962981Y-43677536D01*
X185822464Y-43537019D01*
X185661694Y-43420213D01*
X185484632Y-43329994D01*
X185484629Y-43329993D01*
X185295637Y-43268587D01*
X185197498Y-43253043D01*
X185099361Y-43237500D01*
X184900639Y-43237500D01*
X184835214Y-43247862D01*
X184704362Y-43268587D01*
X184515370Y-43329993D01*
X184515367Y-43329994D01*
X184338302Y-43420215D01*
X184177539Y-43537015D01*
X184152275Y-43562279D01*
X184144330Y-43566616D01*
X184138908Y-43573861D01*
X184114149Y-43583096D01*
X184090951Y-43595763D01*
X184081923Y-43595117D01*
X184073444Y-43598280D01*
X184047621Y-43592663D01*
X184021259Y-43590777D01*
X184012206Y-43584959D01*
X184005171Y-43583429D01*
X183976920Y-43562282D01*
X183976916Y-43562279D01*
X183951651Y-43537015D01*
X183935516Y-43520880D01*
X183935513Y-43520878D01*
X183475990Y-43061355D01*
X183475988Y-43061352D01*
X183357117Y-42942481D01*
X183357116Y-42942480D01*
X183270304Y-42892360D01*
X183270304Y-42892359D01*
X183270300Y-42892358D01*
X183220185Y-42863423D01*
X183067457Y-42822499D01*
X182909343Y-42822499D01*
X182901747Y-42822499D01*
X182901731Y-42822500D01*
X178663669Y-42822500D01*
X178663653Y-42822499D01*
X178656057Y-42822499D01*
X178497943Y-42822499D01*
X178390587Y-42851265D01*
X178345210Y-42863424D01*
X178345209Y-42863425D01*
X178295096Y-42892359D01*
X178295095Y-42892360D01*
X178251689Y-42917420D01*
X178208285Y-42942479D01*
X178208282Y-42942481D01*
X178096478Y-43054286D01*
X177914526Y-43236237D01*
X177853203Y-43269722D01*
X177800478Y-43269158D01*
X177800448Y-43269349D01*
X177799156Y-43269144D01*
X177797903Y-43269131D01*
X177795636Y-43268586D01*
X177626196Y-43241750D01*
X177599361Y-43237500D01*
X177400639Y-43237500D01*
X177335214Y-43247862D01*
X177204362Y-43268587D01*
X177015370Y-43329993D01*
X177015367Y-43329994D01*
X176838305Y-43420213D01*
X176677533Y-43537021D01*
X176537021Y-43677533D01*
X176420213Y-43838305D01*
X176360485Y-43955528D01*
X176312510Y-44006324D01*
X176244689Y-44023119D01*
X176178554Y-44000581D01*
X176139515Y-43955528D01*
X176126272Y-43929537D01*
X176079787Y-43838306D01*
X175962981Y-43677536D01*
X175822464Y-43537019D01*
X175661694Y-43420213D01*
X175484632Y-43329994D01*
X175484629Y-43329993D01*
X175295637Y-43268587D01*
X175197498Y-43253043D01*
X175099361Y-43237500D01*
X174900639Y-43237500D01*
X174835214Y-43247862D01*
X174704362Y-43268587D01*
X174515370Y-43329993D01*
X174515367Y-43329994D01*
X174338305Y-43420213D01*
X174177533Y-43537021D01*
X174037021Y-43677533D01*
X173920213Y-43838305D01*
X173860485Y-43955528D01*
X173812510Y-44006324D01*
X173744689Y-44023119D01*
X173678554Y-44000581D01*
X173639515Y-43955528D01*
X173626272Y-43929537D01*
X173579787Y-43838306D01*
X173462981Y-43677536D01*
X173322464Y-43537019D01*
X173161694Y-43420213D01*
X172984632Y-43329994D01*
X172984629Y-43329993D01*
X172795637Y-43268587D01*
X172697498Y-43253043D01*
X172599361Y-43237500D01*
X172400639Y-43237500D01*
X172335214Y-43247862D01*
X172204362Y-43268587D01*
X172015370Y-43329993D01*
X172015367Y-43329994D01*
X171838305Y-43420213D01*
X171677533Y-43537021D01*
X171537021Y-43677533D01*
X171420213Y-43838305D01*
X171360485Y-43955528D01*
X171312510Y-44006324D01*
X171244689Y-44023119D01*
X171178554Y-44000581D01*
X171139515Y-43955528D01*
X171126272Y-43929537D01*
X171079787Y-43838306D01*
X170962981Y-43677536D01*
X170822464Y-43537019D01*
X170661694Y-43420213D01*
X170484632Y-43329994D01*
X170484629Y-43329993D01*
X170295637Y-43268587D01*
X170197498Y-43253043D01*
X170099361Y-43237500D01*
X169900639Y-43237500D01*
X169835214Y-43247862D01*
X169704362Y-43268587D01*
X169515370Y-43329993D01*
X169515367Y-43329994D01*
X169338305Y-43420213D01*
X169177533Y-43537021D01*
X169037021Y-43677533D01*
X168920213Y-43838305D01*
X168860485Y-43955528D01*
X168812510Y-44006324D01*
X168744689Y-44023119D01*
X168678554Y-44000581D01*
X168639515Y-43955528D01*
X168626272Y-43929537D01*
X168579787Y-43838306D01*
X168462981Y-43677536D01*
X168322464Y-43537019D01*
X168161694Y-43420213D01*
X167984632Y-43329994D01*
X167984629Y-43329993D01*
X167795637Y-43268587D01*
X167697498Y-43253043D01*
X167599361Y-43237500D01*
X167400639Y-43237500D01*
X167335214Y-43247862D01*
X167204362Y-43268587D01*
X167015370Y-43329993D01*
X167015367Y-43329994D01*
X166838305Y-43420213D01*
X166677533Y-43537021D01*
X166537021Y-43677533D01*
X166420213Y-43838305D01*
X166360485Y-43955528D01*
X166312510Y-44006324D01*
X166244689Y-44023119D01*
X166178554Y-44000581D01*
X166139515Y-43955528D01*
X166126272Y-43929537D01*
X166079787Y-43838306D01*
X165962981Y-43677536D01*
X165822464Y-43537019D01*
X165661694Y-43420213D01*
X165484632Y-43329994D01*
X165484629Y-43329993D01*
X165295637Y-43268587D01*
X165197498Y-43253043D01*
X165099361Y-43237500D01*
X164900639Y-43237500D01*
X164835214Y-43247862D01*
X164704362Y-43268587D01*
X164515370Y-43329993D01*
X164515367Y-43329994D01*
X164338305Y-43420213D01*
X164177533Y-43537021D01*
X164037021Y-43677533D01*
X163920213Y-43838305D01*
X163860485Y-43955528D01*
X163812510Y-44006324D01*
X163744689Y-44023119D01*
X163678554Y-44000581D01*
X163639515Y-43955528D01*
X163626272Y-43929537D01*
X163579787Y-43838306D01*
X163462981Y-43677536D01*
X163322464Y-43537019D01*
X163161694Y-43420213D01*
X162984632Y-43329994D01*
X162984629Y-43329993D01*
X162795637Y-43268587D01*
X162697498Y-43253043D01*
X162599361Y-43237500D01*
X162400639Y-43237500D01*
X162335214Y-43247862D01*
X162204362Y-43268587D01*
X162015370Y-43329993D01*
X162015367Y-43329994D01*
X161838305Y-43420213D01*
X161677533Y-43537021D01*
X161537021Y-43677533D01*
X161420213Y-43838305D01*
X161360485Y-43955528D01*
X161312510Y-44006324D01*
X161244689Y-44023119D01*
X161178554Y-44000581D01*
X161139515Y-43955528D01*
X161126272Y-43929537D01*
X161079787Y-43838306D01*
X160962981Y-43677536D01*
X160822464Y-43537019D01*
X160661694Y-43420213D01*
X160484632Y-43329994D01*
X160484629Y-43329993D01*
X160295637Y-43268587D01*
X160197498Y-43253043D01*
X160099361Y-43237500D01*
X159900639Y-43237500D01*
X159835214Y-43247862D01*
X159704362Y-43268587D01*
X159515370Y-43329993D01*
X159515367Y-43329994D01*
X159338305Y-43420213D01*
X159177533Y-43537021D01*
X159037021Y-43677533D01*
X158920213Y-43838305D01*
X158860485Y-43955528D01*
X158812510Y-44006324D01*
X158744689Y-44023119D01*
X158678554Y-44000581D01*
X158639515Y-43955528D01*
X158626272Y-43929537D01*
X158579787Y-43838306D01*
X158462981Y-43677536D01*
X158322464Y-43537019D01*
X158161694Y-43420213D01*
X157984632Y-43329994D01*
X157984629Y-43329993D01*
X157795637Y-43268587D01*
X157697498Y-43253043D01*
X157599361Y-43237500D01*
X157400639Y-43237500D01*
X157335214Y-43247862D01*
X157204362Y-43268587D01*
X157015370Y-43329993D01*
X157015367Y-43329994D01*
X156838305Y-43420213D01*
X156677533Y-43537021D01*
X156537021Y-43677533D01*
X156420213Y-43838305D01*
X156360485Y-43955528D01*
X156312510Y-44006324D01*
X156244689Y-44023119D01*
X156178554Y-44000581D01*
X156139515Y-43955528D01*
X156126272Y-43929537D01*
X156079787Y-43838306D01*
X155962981Y-43677536D01*
X155822464Y-43537019D01*
X155661694Y-43420213D01*
X155484632Y-43329994D01*
X155484629Y-43329993D01*
X155295637Y-43268587D01*
X155197498Y-43253043D01*
X155099361Y-43237500D01*
X154900639Y-43237500D01*
X154835214Y-43247862D01*
X154704362Y-43268587D01*
X154515370Y-43329993D01*
X154515367Y-43329994D01*
X154338305Y-43420213D01*
X154177533Y-43537021D01*
X154037021Y-43677533D01*
X153920213Y-43838305D01*
X153860485Y-43955528D01*
X153812510Y-44006324D01*
X153744689Y-44023119D01*
X153678554Y-44000581D01*
X153639515Y-43955528D01*
X153626272Y-43929537D01*
X153579787Y-43838306D01*
X153462981Y-43677536D01*
X153322464Y-43537019D01*
X153161694Y-43420213D01*
X152984632Y-43329994D01*
X152984629Y-43329993D01*
X152795637Y-43268587D01*
X152697498Y-43253043D01*
X152599361Y-43237500D01*
X152400639Y-43237500D01*
X152335214Y-43247862D01*
X152204362Y-43268587D01*
X152015370Y-43329993D01*
X152015367Y-43329994D01*
X151838305Y-43420213D01*
X151677533Y-43537021D01*
X151537021Y-43677533D01*
X151420213Y-43838305D01*
X151360485Y-43955528D01*
X151312510Y-44006324D01*
X151244689Y-44023119D01*
X151178554Y-44000581D01*
X151139515Y-43955528D01*
X151126272Y-43929537D01*
X151079787Y-43838306D01*
X150962981Y-43677536D01*
X150822464Y-43537019D01*
X150661694Y-43420213D01*
X150484632Y-43329994D01*
X150484629Y-43329993D01*
X150295637Y-43268587D01*
X150197498Y-43253043D01*
X150099361Y-43237500D01*
X149900639Y-43237500D01*
X149835214Y-43247862D01*
X149704362Y-43268587D01*
X149515370Y-43329993D01*
X149515367Y-43329994D01*
X149338305Y-43420213D01*
X149177533Y-43537021D01*
X149037021Y-43677533D01*
X148920213Y-43838305D01*
X148860485Y-43955528D01*
X148812510Y-44006324D01*
X148744689Y-44023119D01*
X148678554Y-44000581D01*
X148639515Y-43955528D01*
X148626272Y-43929537D01*
X148579787Y-43838306D01*
X148462981Y-43677536D01*
X148322464Y-43537019D01*
X148161694Y-43420213D01*
X147984632Y-43329994D01*
X147984629Y-43329993D01*
X147795637Y-43268587D01*
X147697498Y-43253043D01*
X147599361Y-43237500D01*
X147400639Y-43237500D01*
X147335214Y-43247862D01*
X147204362Y-43268587D01*
X147015370Y-43329993D01*
X147015367Y-43329994D01*
X146838305Y-43420213D01*
X146677533Y-43537021D01*
X146537021Y-43677533D01*
X146420213Y-43838305D01*
X146360485Y-43955528D01*
X146312510Y-44006324D01*
X146244689Y-44023119D01*
X146178554Y-44000581D01*
X146139515Y-43955528D01*
X146126272Y-43929537D01*
X146079787Y-43838306D01*
X145962981Y-43677536D01*
X145822464Y-43537019D01*
X145661694Y-43420213D01*
X145484632Y-43329994D01*
X145484629Y-43329993D01*
X145295637Y-43268587D01*
X145197498Y-43253043D01*
X145099361Y-43237500D01*
X144900639Y-43237500D01*
X144835214Y-43247862D01*
X144704362Y-43268587D01*
X144515370Y-43329993D01*
X144515367Y-43329994D01*
X144338305Y-43420213D01*
X144177533Y-43537021D01*
X144037021Y-43677533D01*
X143920213Y-43838305D01*
X143860485Y-43955528D01*
X143812510Y-44006324D01*
X143744689Y-44023119D01*
X143678554Y-44000581D01*
X143639515Y-43955528D01*
X143626272Y-43929537D01*
X143579787Y-43838306D01*
X143462981Y-43677536D01*
X143322464Y-43537019D01*
X143161694Y-43420213D01*
X142984632Y-43329994D01*
X142984629Y-43329993D01*
X142795637Y-43268587D01*
X142697498Y-43253043D01*
X142599361Y-43237500D01*
X142400639Y-43237500D01*
X142335214Y-43247862D01*
X142204362Y-43268587D01*
X142015370Y-43329993D01*
X142015367Y-43329994D01*
X141838305Y-43420213D01*
X141677533Y-43537021D01*
X141537021Y-43677533D01*
X141420213Y-43838305D01*
X141360204Y-43956079D01*
X141312229Y-44006875D01*
X141244408Y-44023670D01*
X141178273Y-44001132D01*
X141139234Y-43956079D01*
X141079358Y-43838567D01*
X141052268Y-43801283D01*
X140381000Y-44472551D01*
X140381000Y-44449840D01*
X140355036Y-44352939D01*
X140304876Y-44266060D01*
X140233940Y-44195124D01*
X140147061Y-44144964D01*
X140050160Y-44119000D01*
X140027447Y-44119000D01*
X140698716Y-43447731D01*
X140698715Y-43447730D01*
X140661432Y-43420641D01*
X140484437Y-43330457D01*
X140295522Y-43269075D01*
X140099321Y-43238000D01*
X139900679Y-43238000D01*
X139704479Y-43269075D01*
X139704476Y-43269075D01*
X139515562Y-43330457D01*
X139338564Y-43420643D01*
X139301283Y-43447729D01*
X139301282Y-43447730D01*
X139972554Y-44119000D01*
X139949840Y-44119000D01*
X139852939Y-44144964D01*
X139766060Y-44195124D01*
X139695124Y-44266060D01*
X139644964Y-44352939D01*
X139619000Y-44449840D01*
X139619000Y-44472552D01*
X138947730Y-43801282D01*
X138947729Y-43801283D01*
X138920641Y-43838566D01*
X138860764Y-43956080D01*
X138812790Y-44006875D01*
X138744968Y-44023670D01*
X138678834Y-44001132D01*
X138639796Y-43956080D01*
X138579787Y-43838306D01*
X138462981Y-43677536D01*
X138322464Y-43537019D01*
X138161694Y-43420213D01*
X137984632Y-43329994D01*
X137984629Y-43329993D01*
X137795637Y-43268587D01*
X137697498Y-43253043D01*
X137599361Y-43237500D01*
X137400639Y-43237500D01*
X137335214Y-43247862D01*
X137204362Y-43268587D01*
X137015370Y-43329993D01*
X137015367Y-43329994D01*
X136838305Y-43420213D01*
X136677533Y-43537021D01*
X136537021Y-43677533D01*
X136420213Y-43838305D01*
X136360485Y-43955528D01*
X136312510Y-44006324D01*
X136244689Y-44023119D01*
X136178554Y-44000581D01*
X136139515Y-43955528D01*
X136126272Y-43929537D01*
X136079787Y-43838306D01*
X135962981Y-43677536D01*
X135822464Y-43537019D01*
X135661694Y-43420213D01*
X135484632Y-43329994D01*
X135484629Y-43329993D01*
X135295637Y-43268587D01*
X135197498Y-43253043D01*
X135099361Y-43237500D01*
X134900639Y-43237500D01*
X134835214Y-43247862D01*
X134704362Y-43268587D01*
X134515370Y-43329993D01*
X134515367Y-43329994D01*
X134338305Y-43420213D01*
X134177533Y-43537021D01*
X134037021Y-43677533D01*
X133920213Y-43838305D01*
X133860485Y-43955528D01*
X133812510Y-44006324D01*
X133744689Y-44023119D01*
X133678554Y-44000581D01*
X133639515Y-43955528D01*
X133626272Y-43929537D01*
X133579787Y-43838306D01*
X133462981Y-43677536D01*
X133322464Y-43537019D01*
X133161694Y-43420213D01*
X132984632Y-43329994D01*
X132984629Y-43329993D01*
X132795637Y-43268587D01*
X132697498Y-43253043D01*
X132599361Y-43237500D01*
X132400639Y-43237500D01*
X132335214Y-43247862D01*
X132204362Y-43268587D01*
X132015370Y-43329993D01*
X132015367Y-43329994D01*
X131838305Y-43420213D01*
X131677533Y-43537021D01*
X131537021Y-43677533D01*
X131420213Y-43838305D01*
X131360204Y-43956079D01*
X131312229Y-44006875D01*
X131244408Y-44023670D01*
X131178273Y-44001132D01*
X131139234Y-43956079D01*
X131079358Y-43838567D01*
X131052268Y-43801283D01*
X130381000Y-44472551D01*
X130381000Y-44449840D01*
X130355036Y-44352939D01*
X130304876Y-44266060D01*
X130233940Y-44195124D01*
X130147061Y-44144964D01*
X130050160Y-44119000D01*
X130027447Y-44119000D01*
X130698716Y-43447731D01*
X130698715Y-43447730D01*
X130661432Y-43420641D01*
X130484437Y-43330457D01*
X130295522Y-43269075D01*
X130099321Y-43238000D01*
X129900679Y-43238000D01*
X129704479Y-43269075D01*
X129704476Y-43269075D01*
X129515562Y-43330457D01*
X129338564Y-43420643D01*
X129301283Y-43447729D01*
X129301282Y-43447730D01*
X129972554Y-44119000D01*
X129949840Y-44119000D01*
X129852939Y-44144964D01*
X129766060Y-44195124D01*
X129695124Y-44266060D01*
X129644964Y-44352939D01*
X129619000Y-44449840D01*
X129619000Y-44472552D01*
X128947730Y-43801282D01*
X128947729Y-43801283D01*
X128920643Y-43838564D01*
X128860485Y-43956630D01*
X128812510Y-44007426D01*
X128744689Y-44024221D01*
X128678554Y-44001683D01*
X128639515Y-43956630D01*
X128579358Y-43838567D01*
X128552268Y-43801283D01*
X127881000Y-44472551D01*
X127881000Y-44449840D01*
X127855036Y-44352939D01*
X127804876Y-44266060D01*
X127733940Y-44195124D01*
X127647061Y-44144964D01*
X127550160Y-44119000D01*
X127527447Y-44119000D01*
X128198716Y-43447731D01*
X128198715Y-43447730D01*
X128161432Y-43420641D01*
X127984437Y-43330457D01*
X127795522Y-43269075D01*
X127599321Y-43238000D01*
X127400679Y-43238000D01*
X127204479Y-43269075D01*
X127204476Y-43269075D01*
X127015562Y-43330457D01*
X126838564Y-43420643D01*
X126801283Y-43447729D01*
X126801282Y-43447730D01*
X127472554Y-44119000D01*
X127449840Y-44119000D01*
X127352939Y-44144964D01*
X127266060Y-44195124D01*
X127195124Y-44266060D01*
X127144964Y-44352939D01*
X127119000Y-44449840D01*
X127119000Y-44472552D01*
X126447730Y-43801282D01*
X126447729Y-43801283D01*
X126420643Y-43838564D01*
X126330457Y-44015562D01*
X126269075Y-44204476D01*
X126269075Y-44204479D01*
X126238000Y-44400678D01*
X126238000Y-44599321D01*
X126269075Y-44795520D01*
X126269075Y-44795523D01*
X126330457Y-44984437D01*
X126420641Y-45161432D01*
X126447730Y-45198715D01*
X127119000Y-44527445D01*
X127119000Y-44550160D01*
X127144964Y-44647061D01*
X127195124Y-44733940D01*
X127266060Y-44804876D01*
X127352939Y-44855036D01*
X127449840Y-44881000D01*
X127472553Y-44881000D01*
X126801283Y-45552268D01*
X126801283Y-45552269D01*
X126838567Y-45579358D01*
X127015562Y-45669542D01*
X127204477Y-45730924D01*
X127400679Y-45762000D01*
X127599321Y-45762000D01*
X127795520Y-45730924D01*
X127795523Y-45730924D01*
X127984437Y-45669542D01*
X128161425Y-45579362D01*
X128198716Y-45552268D01*
X127527448Y-44881000D01*
X127550160Y-44881000D01*
X127647061Y-44855036D01*
X127733940Y-44804876D01*
X127804876Y-44733940D01*
X127855036Y-44647061D01*
X127881000Y-44550160D01*
X127881000Y-44527447D01*
X128552268Y-45198715D01*
X128579364Y-45161422D01*
X128639515Y-45043370D01*
X128687489Y-44992573D01*
X128755310Y-44975778D01*
X128821445Y-44998315D01*
X128860485Y-45043369D01*
X128920641Y-45161432D01*
X128947730Y-45198715D01*
X128947731Y-45198716D01*
X129619000Y-44527447D01*
X129619000Y-44550160D01*
X129644964Y-44647061D01*
X129695124Y-44733940D01*
X129766060Y-44804876D01*
X129852939Y-44855036D01*
X129949840Y-44881000D01*
X129972553Y-44881000D01*
X129301283Y-45552268D01*
X129301283Y-45552269D01*
X129338567Y-45579358D01*
X129515562Y-45669542D01*
X129704477Y-45730924D01*
X129900679Y-45762000D01*
X130099321Y-45762000D01*
X130295520Y-45730924D01*
X130295523Y-45730924D01*
X130484437Y-45669542D01*
X130661425Y-45579362D01*
X130698716Y-45552268D01*
X130027448Y-44881000D01*
X130050160Y-44881000D01*
X130147061Y-44855036D01*
X130233940Y-44804876D01*
X130304876Y-44733940D01*
X130355036Y-44647061D01*
X130381000Y-44550160D01*
X130381000Y-44527447D01*
X131052268Y-45198715D01*
X131079364Y-45161422D01*
X131139234Y-45043921D01*
X131187208Y-44993124D01*
X131255029Y-44976329D01*
X131321164Y-44998866D01*
X131360203Y-45043919D01*
X131420213Y-45161694D01*
X131537019Y-45322464D01*
X131677536Y-45462981D01*
X131838306Y-45579787D01*
X131873492Y-45597715D01*
X132015367Y-45670005D01*
X132015370Y-45670006D01*
X132109866Y-45700709D01*
X132204364Y-45731413D01*
X132400639Y-45762500D01*
X132400640Y-45762500D01*
X132599360Y-45762500D01*
X132599361Y-45762500D01*
X132795636Y-45731413D01*
X132795646Y-45731409D01*
X132797891Y-45730871D01*
X132798778Y-45730915D01*
X132800448Y-45730651D01*
X132800503Y-45731001D01*
X132867674Y-45734357D01*
X132914527Y-45763762D01*
X133113181Y-45962416D01*
X133146666Y-46023739D01*
X133149500Y-46050097D01*
X133149500Y-48212892D01*
X133129815Y-48279931D01*
X133077011Y-48325686D01*
X133007853Y-48335630D01*
X132987182Y-48330823D01*
X132795637Y-48268587D01*
X132652933Y-48245985D01*
X132599361Y-48237500D01*
X132400639Y-48237500D01*
X132347067Y-48245985D01*
X132204362Y-48268587D01*
X132015370Y-48329993D01*
X132015367Y-48329994D01*
X131838305Y-48420213D01*
X131677533Y-48537021D01*
X131537021Y-48677533D01*
X131420213Y-48838305D01*
X131360204Y-48956079D01*
X131312229Y-49006875D01*
X131244408Y-49023670D01*
X131178273Y-49001132D01*
X131139234Y-48956079D01*
X131079358Y-48838567D01*
X131052268Y-48801283D01*
X130381000Y-49472551D01*
X130381000Y-49449840D01*
X130355036Y-49352939D01*
X130304876Y-49266060D01*
X130233940Y-49195124D01*
X130147061Y-49144964D01*
X130050160Y-49119000D01*
X130027447Y-49119000D01*
X130698716Y-48447731D01*
X130698715Y-48447730D01*
X130661432Y-48420641D01*
X130484437Y-48330457D01*
X130295522Y-48269075D01*
X130099321Y-48238000D01*
X129900679Y-48238000D01*
X129704479Y-48269075D01*
X129704476Y-48269075D01*
X129515562Y-48330457D01*
X129338564Y-48420643D01*
X129301283Y-48447729D01*
X129301282Y-48447730D01*
X129972554Y-49119000D01*
X129949840Y-49119000D01*
X129852939Y-49144964D01*
X129766060Y-49195124D01*
X129695124Y-49266060D01*
X129644964Y-49352939D01*
X129619000Y-49449840D01*
X129619000Y-49472552D01*
X128947730Y-48801282D01*
X128947729Y-48801283D01*
X128920643Y-48838564D01*
X128860485Y-48956630D01*
X128812510Y-49007426D01*
X128744689Y-49024221D01*
X128678554Y-49001683D01*
X128639515Y-48956630D01*
X128579358Y-48838567D01*
X128552268Y-48801283D01*
X127881000Y-49472551D01*
X127881000Y-49449840D01*
X127855036Y-49352939D01*
X127804876Y-49266060D01*
X127733940Y-49195124D01*
X127647061Y-49144964D01*
X127550160Y-49119000D01*
X127527447Y-49119000D01*
X128198716Y-48447731D01*
X128198715Y-48447730D01*
X128161432Y-48420641D01*
X127984437Y-48330457D01*
X127795522Y-48269075D01*
X127599321Y-48238000D01*
X127400679Y-48238000D01*
X127204479Y-48269075D01*
X127204476Y-48269075D01*
X127015562Y-48330457D01*
X126838564Y-48420643D01*
X126801283Y-48447729D01*
X126801282Y-48447730D01*
X127472554Y-49119000D01*
X127449840Y-49119000D01*
X127352939Y-49144964D01*
X127266060Y-49195124D01*
X127195124Y-49266060D01*
X127144964Y-49352939D01*
X127119000Y-49449840D01*
X127119000Y-49472552D01*
X126447730Y-48801282D01*
X126447729Y-48801283D01*
X126420643Y-48838564D01*
X126330457Y-49015562D01*
X126269075Y-49204476D01*
X126269075Y-49204479D01*
X126238000Y-49400678D01*
X126238000Y-49599321D01*
X126269075Y-49795520D01*
X126269075Y-49795523D01*
X126330457Y-49984437D01*
X126420641Y-50161432D01*
X126447730Y-50198715D01*
X127119000Y-49527445D01*
X127119000Y-49550160D01*
X127144964Y-49647061D01*
X127195124Y-49733940D01*
X127266060Y-49804876D01*
X127352939Y-49855036D01*
X127449840Y-49881000D01*
X127472553Y-49881000D01*
X126801283Y-50552268D01*
X126801283Y-50552269D01*
X126838567Y-50579358D01*
X127015562Y-50669542D01*
X127204477Y-50730924D01*
X127400679Y-50762000D01*
X127599321Y-50762000D01*
X127795520Y-50730924D01*
X127795523Y-50730924D01*
X127984437Y-50669542D01*
X128161425Y-50579362D01*
X128198716Y-50552268D01*
X127527448Y-49881000D01*
X127550160Y-49881000D01*
X127647061Y-49855036D01*
X127733940Y-49804876D01*
X127804876Y-49733940D01*
X127855036Y-49647061D01*
X127881000Y-49550160D01*
X127881000Y-49527447D01*
X128552268Y-50198715D01*
X128579364Y-50161422D01*
X128639515Y-50043370D01*
X128687489Y-49992573D01*
X128755310Y-49975778D01*
X128821445Y-49998315D01*
X128860485Y-50043369D01*
X128920641Y-50161432D01*
X128947730Y-50198715D01*
X128947731Y-50198716D01*
X129619000Y-49527447D01*
X129619000Y-49550160D01*
X129644964Y-49647061D01*
X129695124Y-49733940D01*
X129766060Y-49804876D01*
X129852939Y-49855036D01*
X129949840Y-49881000D01*
X129972553Y-49881000D01*
X129301283Y-50552268D01*
X129301283Y-50552269D01*
X129338567Y-50579358D01*
X129515562Y-50669542D01*
X129704477Y-50730924D01*
X129900679Y-50762000D01*
X130099321Y-50762000D01*
X130295520Y-50730924D01*
X130295523Y-50730924D01*
X130484437Y-50669542D01*
X130661425Y-50579362D01*
X130698716Y-50552268D01*
X130027448Y-49881000D01*
X130050160Y-49881000D01*
X130147061Y-49855036D01*
X130233940Y-49804876D01*
X130304876Y-49733940D01*
X130355036Y-49647061D01*
X130381000Y-49550160D01*
X130381000Y-49527447D01*
X131052268Y-50198715D01*
X131079364Y-50161422D01*
X131139234Y-50043921D01*
X131187208Y-49993124D01*
X131255029Y-49976329D01*
X131321164Y-49998866D01*
X131360203Y-50043919D01*
X131420213Y-50161694D01*
X131537019Y-50322464D01*
X131677536Y-50462981D01*
X131838306Y-50579787D01*
X131882284Y-50602195D01*
X132015367Y-50670005D01*
X132015370Y-50670006D01*
X132100676Y-50697723D01*
X132204364Y-50731413D01*
X132400639Y-50762500D01*
X132400640Y-50762500D01*
X132599360Y-50762500D01*
X132599361Y-50762500D01*
X132795636Y-50731413D01*
X132984632Y-50670005D01*
X132984634Y-50670003D01*
X132987182Y-50669176D01*
X133057023Y-50667181D01*
X133116856Y-50703261D01*
X133147684Y-50765962D01*
X133149500Y-50787107D01*
X133149500Y-51712330D01*
X133149499Y-51712348D01*
X133149499Y-51878054D01*
X133149498Y-51878054D01*
X133190423Y-52030785D01*
X133199323Y-52046200D01*
X133269477Y-52167712D01*
X133269481Y-52167717D01*
X133388349Y-52286585D01*
X133388355Y-52286590D01*
X140238181Y-59136416D01*
X140271666Y-59197739D01*
X140274500Y-59224097D01*
X140274500Y-64092072D01*
X140254815Y-64159111D01*
X140202011Y-64204866D01*
X140132853Y-64214810D01*
X140069297Y-64185785D01*
X140061493Y-64177504D01*
X140061267Y-64177731D01*
X139943717Y-64060181D01*
X139943712Y-64060177D01*
X139804819Y-63979988D01*
X139756604Y-63929421D01*
X139745202Y-63896792D01*
X139717238Y-63756210D01*
X139717237Y-63756203D01*
X139717235Y-63756198D01*
X139656897Y-63610527D01*
X139656890Y-63610514D01*
X139569289Y-63479411D01*
X139569286Y-63479407D01*
X139457792Y-63367913D01*
X139457788Y-63367910D01*
X139326685Y-63280309D01*
X139326672Y-63280302D01*
X139181001Y-63219964D01*
X139180989Y-63219961D01*
X139026345Y-63189200D01*
X139026342Y-63189200D01*
X138868658Y-63189200D01*
X138868655Y-63189200D01*
X138714010Y-63219961D01*
X138713998Y-63219964D01*
X138568327Y-63280302D01*
X138568314Y-63280309D01*
X138437211Y-63367910D01*
X138437207Y-63367913D01*
X138325713Y-63479407D01*
X138325710Y-63479411D01*
X138238109Y-63610514D01*
X138238102Y-63610527D01*
X138177764Y-63756198D01*
X138177761Y-63756210D01*
X138147000Y-63910853D01*
X138147000Y-64068546D01*
X138177761Y-64223189D01*
X138177764Y-64223201D01*
X138238102Y-64368872D01*
X138238109Y-64368885D01*
X138295274Y-64454438D01*
X138304760Y-64484735D01*
X138315856Y-64514483D01*
X138315125Y-64517839D01*
X138316152Y-64521116D01*
X138307753Y-64551730D01*
X138301004Y-64582756D01*
X138298222Y-64586471D01*
X138297667Y-64588496D01*
X138279853Y-64611010D01*
X138204435Y-64686428D01*
X138151350Y-64717823D01*
X138083608Y-64737504D01*
X138083604Y-64737506D01*
X138062628Y-64749911D01*
X137994903Y-64767092D01*
X137936389Y-64749911D01*
X137916191Y-64737966D01*
X137916190Y-64737965D01*
X137770001Y-64695493D01*
X137770000Y-64695494D01*
X137770000Y-65001645D01*
X137752734Y-65064763D01*
X137747507Y-65073600D01*
X137747504Y-65073608D01*
X137702357Y-65229002D01*
X137702356Y-65229008D01*
X137699500Y-65265302D01*
X137699500Y-65734697D01*
X137702356Y-65770991D01*
X137702357Y-65770997D01*
X137747503Y-65926389D01*
X137747505Y-65926393D01*
X137747506Y-65926395D01*
X137752732Y-65935233D01*
X137770000Y-65998352D01*
X137770000Y-66304504D01*
X137789256Y-66318962D01*
X137790771Y-66318967D01*
X137849442Y-66356907D01*
X137878287Y-66420545D01*
X137879500Y-66437845D01*
X137879500Y-78513330D01*
X137879499Y-78513348D01*
X137879499Y-78679054D01*
X137879498Y-78679054D01*
X137889074Y-78714791D01*
X137920423Y-78831785D01*
X137920424Y-78831787D01*
X137920423Y-78831787D01*
X137933665Y-78854721D01*
X137933666Y-78854723D01*
X137999475Y-78968709D01*
X137999481Y-78968717D01*
X138118349Y-79087585D01*
X138118355Y-79087590D01*
X138670152Y-79639387D01*
X138703637Y-79700710D01*
X138698653Y-79770402D01*
X138670155Y-79814746D01*
X138660287Y-79824614D01*
X138660278Y-79824625D01*
X138577968Y-79963804D01*
X138577966Y-79963809D01*
X138532855Y-80119081D01*
X138532854Y-80119087D01*
X138531209Y-80139999D01*
X138531210Y-80140000D01*
X139119403Y-80140000D01*
X139148843Y-80148644D01*
X139178830Y-80155168D01*
X139183845Y-80158922D01*
X139186442Y-80159685D01*
X139207084Y-80176319D01*
X139273681Y-80242916D01*
X139307166Y-80304239D01*
X139310000Y-80330597D01*
X139310000Y-80390000D01*
X139365500Y-80390000D01*
X139432539Y-80409685D01*
X139478294Y-80462489D01*
X139489500Y-80514000D01*
X139489500Y-80624697D01*
X139492356Y-80660991D01*
X139492357Y-80660997D01*
X139537503Y-80816389D01*
X139537505Y-80816393D01*
X139537506Y-80816395D01*
X139542732Y-80825233D01*
X139560000Y-80888352D01*
X139560000Y-81194503D01*
X139706194Y-81152032D01*
X139726384Y-81140091D01*
X139794108Y-81122906D01*
X139852629Y-81140089D01*
X139873605Y-81152494D01*
X139902872Y-81160997D01*
X140029002Y-81197642D01*
X140029005Y-81197642D01*
X140029007Y-81197643D01*
X140065310Y-81200500D01*
X140179903Y-81200500D01*
X140246942Y-81220185D01*
X140267584Y-81236819D01*
X140893181Y-81862416D01*
X140926666Y-81923739D01*
X140929500Y-81950097D01*
X140929500Y-82278306D01*
X140909815Y-82345345D01*
X140876623Y-82379881D01*
X140690859Y-82509953D01*
X140529954Y-82670858D01*
X140399432Y-82857265D01*
X140399431Y-82857267D01*
X140372382Y-82915275D01*
X140326209Y-82967714D01*
X140259016Y-82986866D01*
X140192135Y-82966650D01*
X140147618Y-82915275D01*
X140120568Y-82857267D01*
X140120567Y-82857265D01*
X140120566Y-82857264D01*
X139990047Y-82670861D01*
X139990045Y-82670858D01*
X139829141Y-82509954D01*
X139642734Y-82379432D01*
X139642732Y-82379431D01*
X139436497Y-82283261D01*
X139436488Y-82283258D01*
X139216697Y-82224366D01*
X139216687Y-82224364D01*
X139046785Y-82209500D01*
X139046784Y-82209500D01*
X138933216Y-82209500D01*
X138933211Y-82209500D01*
X138810046Y-82220275D01*
X138741546Y-82206508D01*
X138691363Y-82157892D01*
X138675430Y-82089864D01*
X138677622Y-82072554D01*
X138678180Y-82069752D01*
X138685800Y-82031442D01*
X138685800Y-81873758D01*
X138685800Y-81873755D01*
X138685799Y-81873753D01*
X138666073Y-81774585D01*
X138655037Y-81719103D01*
X138655035Y-81719098D01*
X138594697Y-81573427D01*
X138594690Y-81573414D01*
X138507089Y-81442311D01*
X138507086Y-81442307D01*
X138395592Y-81330813D01*
X138395588Y-81330810D01*
X138264485Y-81243209D01*
X138264472Y-81243202D01*
X138118801Y-81182864D01*
X138118789Y-81182861D01*
X137964145Y-81152100D01*
X137964142Y-81152100D01*
X137806458Y-81152100D01*
X137806455Y-81152100D01*
X137651810Y-81182861D01*
X137651798Y-81182864D01*
X137506127Y-81243202D01*
X137506114Y-81243209D01*
X137375011Y-81330810D01*
X137375007Y-81330813D01*
X137263513Y-81442307D01*
X137263510Y-81442311D01*
X137175909Y-81573414D01*
X137175902Y-81573427D01*
X137115564Y-81719098D01*
X137115561Y-81719110D01*
X137084800Y-81873753D01*
X137084800Y-82031446D01*
X137110854Y-82162429D01*
X137104627Y-82232021D01*
X137061764Y-82287198D01*
X136995874Y-82310442D01*
X136941784Y-82301181D01*
X136876612Y-82274185D01*
X136781860Y-82245443D01*
X136781849Y-82245440D01*
X136700000Y-82229160D01*
X136700000Y-84676988D01*
X136642993Y-84644075D01*
X136515826Y-84610000D01*
X136384174Y-84610000D01*
X136257007Y-84644075D01*
X136200000Y-84676988D01*
X136200000Y-82229161D01*
X136199999Y-82229160D01*
X136118150Y-82245440D01*
X136118139Y-82245443D01*
X136023387Y-82274185D01*
X135877801Y-82334490D01*
X135790498Y-82381155D01*
X135790478Y-82381167D01*
X135659469Y-82468704D01*
X135659463Y-82468708D01*
X135582935Y-82531514D01*
X135471514Y-82642935D01*
X135408708Y-82719463D01*
X135408704Y-82719469D01*
X135321167Y-82850478D01*
X135321155Y-82850499D01*
X135286534Y-82915269D01*
X135237571Y-82965113D01*
X135169433Y-82980573D01*
X135103753Y-82956741D01*
X135064794Y-82909219D01*
X135040570Y-82857271D01*
X135040567Y-82857265D01*
X135040566Y-82857264D01*
X134910047Y-82670861D01*
X134910045Y-82670858D01*
X134749140Y-82509953D01*
X134563377Y-82379881D01*
X134559274Y-82374748D01*
X134553297Y-82372019D01*
X134537727Y-82347792D01*
X134519752Y-82325304D01*
X134518196Y-82317400D01*
X134515523Y-82313241D01*
X134510500Y-82278306D01*
X134510500Y-82110097D01*
X134530185Y-82043058D01*
X134546819Y-82022416D01*
X134832416Y-81736819D01*
X134893739Y-81703334D01*
X134920097Y-81700500D01*
X135034682Y-81700500D01*
X135034690Y-81700500D01*
X135070993Y-81697643D01*
X135070995Y-81697642D01*
X135070997Y-81697642D01*
X135136690Y-81678556D01*
X135226395Y-81652494D01*
X135247369Y-81640089D01*
X135315088Y-81622906D01*
X135373613Y-81640090D01*
X135393803Y-81652031D01*
X135540000Y-81694504D01*
X135540000Y-81694503D01*
X136040000Y-81694503D01*
X136186195Y-81652031D01*
X136325374Y-81569721D01*
X136325383Y-81569714D01*
X136439714Y-81455383D01*
X136439721Y-81455374D01*
X136522031Y-81316195D01*
X136522033Y-81316190D01*
X136567144Y-81160918D01*
X136567145Y-81160912D01*
X136568790Y-81140000D01*
X136040000Y-81140000D01*
X136040000Y-81694503D01*
X135540000Y-81694503D01*
X135540000Y-81388352D01*
X135557267Y-81325233D01*
X135562494Y-81316395D01*
X135582436Y-81247757D01*
X135607642Y-81160997D01*
X135607643Y-81160991D01*
X135610499Y-81124697D01*
X135610500Y-81124690D01*
X135610500Y-80655310D01*
X135607643Y-80619007D01*
X135604793Y-80609198D01*
X135562495Y-80463608D01*
X135562492Y-80463600D01*
X135557266Y-80454763D01*
X135540000Y-80391645D01*
X135540000Y-80085494D01*
X136040000Y-80085494D01*
X136040000Y-80640000D01*
X136568790Y-80640000D01*
X138531210Y-80640000D01*
X138532854Y-80660910D01*
X138577968Y-80816195D01*
X138660278Y-80955374D01*
X138660285Y-80955383D01*
X138774616Y-81069714D01*
X138774625Y-81069721D01*
X138913804Y-81152031D01*
X139060000Y-81194504D01*
X139060000Y-80640000D01*
X138531210Y-80640000D01*
X136568790Y-80640000D01*
X136567145Y-80619089D01*
X136522031Y-80463804D01*
X136439721Y-80324625D01*
X136439714Y-80324616D01*
X136325383Y-80210285D01*
X136325374Y-80210278D01*
X136186193Y-80127967D01*
X136186190Y-80127965D01*
X136040001Y-80085493D01*
X136040000Y-80085494D01*
X135540000Y-80085494D01*
X135539998Y-80085493D01*
X135393809Y-80127965D01*
X135393806Y-80127967D01*
X135373608Y-80139912D01*
X135305884Y-80157092D01*
X135247370Y-80139910D01*
X135226397Y-80127507D01*
X135226390Y-80127504D01*
X135070997Y-80082357D01*
X135070991Y-80082356D01*
X135034697Y-80079500D01*
X135034690Y-80079500D01*
X134625310Y-80079500D01*
X134625302Y-80079500D01*
X134589008Y-80082356D01*
X134589002Y-80082357D01*
X134433609Y-80127504D01*
X134433606Y-80127505D01*
X134294315Y-80209881D01*
X134294307Y-80209887D01*
X134179887Y-80324307D01*
X134179881Y-80324315D01*
X134097505Y-80463606D01*
X134097504Y-80463609D01*
X134052357Y-80619002D01*
X134052356Y-80619008D01*
X134049500Y-80655302D01*
X134049500Y-80769902D01*
X134029815Y-80836941D01*
X134013181Y-80857583D01*
X133429481Y-81441282D01*
X133429479Y-81441285D01*
X133389449Y-81510619D01*
X133389443Y-81510630D01*
X133386690Y-81515400D01*
X133350423Y-81578215D01*
X133339993Y-81617138D01*
X133335469Y-81626883D01*
X133319225Y-81645392D01*
X133306409Y-81666419D01*
X133296585Y-81671190D01*
X133289383Y-81679398D01*
X133265712Y-81686187D01*
X133243562Y-81696947D01*
X133232719Y-81695650D01*
X133222221Y-81698662D01*
X133198636Y-81691575D01*
X133174187Y-81688652D01*
X133165765Y-81681698D01*
X133155307Y-81678556D01*
X133139298Y-81659844D01*
X133120309Y-81644166D01*
X133116984Y-81633764D01*
X133109884Y-81625466D01*
X133106532Y-81601068D01*
X133099035Y-81577614D01*
X133099000Y-81574664D01*
X133099000Y-69856665D01*
X133118685Y-69789626D01*
X133119898Y-69787774D01*
X133207890Y-69656085D01*
X133207890Y-69656084D01*
X133207894Y-69656079D01*
X133210229Y-69650443D01*
X133268235Y-69510401D01*
X133268237Y-69510397D01*
X133299000Y-69355742D01*
X133299000Y-69198058D01*
X133299000Y-69198055D01*
X133298999Y-69198053D01*
X133291047Y-69158078D01*
X133268237Y-69043403D01*
X133252614Y-69005685D01*
X133207897Y-68897727D01*
X133207890Y-68897714D01*
X133120289Y-68766611D01*
X133120286Y-68766607D01*
X133008792Y-68655113D01*
X133008788Y-68655110D01*
X132877685Y-68567509D01*
X132877672Y-68567502D01*
X132732001Y-68507164D01*
X132731989Y-68507161D01*
X132577345Y-68476400D01*
X132577342Y-68476400D01*
X132419658Y-68476400D01*
X132419655Y-68476400D01*
X132265010Y-68507161D01*
X132264998Y-68507164D01*
X132119327Y-68567502D01*
X132119314Y-68567509D01*
X131988211Y-68655110D01*
X131988207Y-68655113D01*
X131876713Y-68766607D01*
X131876710Y-68766611D01*
X131789109Y-68897714D01*
X131789102Y-68897727D01*
X131728764Y-69043398D01*
X131728761Y-69043410D01*
X131698000Y-69198053D01*
X131698000Y-69355746D01*
X131728761Y-69510389D01*
X131728764Y-69510401D01*
X131789102Y-69656072D01*
X131789109Y-69656085D01*
X131877102Y-69787774D01*
X131897980Y-69854451D01*
X131898000Y-69856665D01*
X131898000Y-82143499D01*
X131878315Y-82210538D01*
X131825511Y-82256293D01*
X131756353Y-82266237D01*
X131741907Y-82263274D01*
X131596697Y-82224366D01*
X131596687Y-82224364D01*
X131426785Y-82209500D01*
X131426784Y-82209500D01*
X131313216Y-82209500D01*
X131313215Y-82209500D01*
X131143312Y-82224364D01*
X131143302Y-82224366D01*
X130923511Y-82283258D01*
X130923502Y-82283261D01*
X130717267Y-82379431D01*
X130634122Y-82437649D01*
X130567916Y-82459976D01*
X130500149Y-82442964D01*
X130452336Y-82392015D01*
X130439000Y-82336073D01*
X130439000Y-79103565D01*
X130458685Y-79036526D01*
X130459898Y-79034674D01*
X130547890Y-78902985D01*
X130547890Y-78902984D01*
X130547894Y-78902979D01*
X130551615Y-78893997D01*
X130608235Y-78757301D01*
X130608237Y-78757297D01*
X130639000Y-78602642D01*
X130639000Y-78444958D01*
X130639000Y-78444955D01*
X130638999Y-78444953D01*
X130635430Y-78427010D01*
X130608237Y-78290303D01*
X130562342Y-78179501D01*
X130547897Y-78144627D01*
X130547890Y-78144614D01*
X130460289Y-78013511D01*
X130460286Y-78013507D01*
X130348792Y-77902013D01*
X130348788Y-77902010D01*
X130217685Y-77814409D01*
X130217672Y-77814402D01*
X130072001Y-77754064D01*
X130071989Y-77754061D01*
X129917345Y-77723300D01*
X129917342Y-77723300D01*
X129909600Y-77723300D01*
X129842561Y-77703615D01*
X129796806Y-77650811D01*
X129785600Y-77599300D01*
X129785600Y-69206265D01*
X129805285Y-69139226D01*
X129806498Y-69137374D01*
X129894490Y-69005685D01*
X129894490Y-69005684D01*
X129894494Y-69005679D01*
X129954837Y-68859997D01*
X129985600Y-68705342D01*
X129985600Y-68547658D01*
X129985600Y-68547655D01*
X129985599Y-68547653D01*
X129977545Y-68507163D01*
X129954837Y-68393003D01*
X129954835Y-68392998D01*
X129894497Y-68247327D01*
X129894490Y-68247314D01*
X129806889Y-68116211D01*
X129806886Y-68116207D01*
X129695392Y-68004713D01*
X129695388Y-68004710D01*
X129564285Y-67917109D01*
X129564272Y-67917102D01*
X129418601Y-67856764D01*
X129418589Y-67856761D01*
X129263945Y-67826000D01*
X129263942Y-67826000D01*
X129106258Y-67826000D01*
X129106255Y-67826000D01*
X128951610Y-67856761D01*
X128951598Y-67856764D01*
X128805927Y-67917102D01*
X128805914Y-67917109D01*
X128674811Y-68004710D01*
X128674807Y-68004713D01*
X128563313Y-68116207D01*
X128563310Y-68116211D01*
X128475709Y-68247314D01*
X128475702Y-68247327D01*
X128415364Y-68392998D01*
X128415361Y-68393010D01*
X128384600Y-68547653D01*
X128384600Y-68705346D01*
X128415361Y-68859989D01*
X128415364Y-68860001D01*
X128475702Y-69005672D01*
X128475709Y-69005685D01*
X128563702Y-69137374D01*
X128584580Y-69204051D01*
X128584600Y-69206265D01*
X128584600Y-122876000D01*
X128564915Y-122943039D01*
X128512111Y-122988794D01*
X128460600Y-123000000D01*
X125624500Y-123000000D01*
X125557461Y-122980315D01*
X125511706Y-122927511D01*
X125500500Y-122876000D01*
X125500500Y-65750000D01*
X136741210Y-65750000D01*
X136742854Y-65770910D01*
X136787968Y-65926195D01*
X136870278Y-66065374D01*
X136870285Y-66065383D01*
X136984616Y-66179714D01*
X136984625Y-66179721D01*
X137123804Y-66262031D01*
X137270000Y-66304504D01*
X137270000Y-65750000D01*
X136741210Y-65750000D01*
X125500500Y-65750000D01*
X125500500Y-65249999D01*
X136741209Y-65249999D01*
X136741210Y-65250000D01*
X137270000Y-65250000D01*
X137270000Y-64695494D01*
X137269998Y-64695493D01*
X137123809Y-64737965D01*
X137123806Y-64737967D01*
X136984625Y-64820278D01*
X136984616Y-64820285D01*
X136870285Y-64934616D01*
X136870278Y-64934625D01*
X136787968Y-65073804D01*
X136787966Y-65073809D01*
X136742855Y-65229081D01*
X136742854Y-65229087D01*
X136741209Y-65249999D01*
X125500500Y-65249999D01*
X125500500Y-42624500D01*
X125520185Y-42557461D01*
X125572989Y-42511706D01*
X125624500Y-42500500D01*
X189375500Y-42500500D01*
X189442539Y-42520185D01*
G37*
%TD.AperFunction*%
%TA.AperFunction,Conductor*%
G36*
X136700000Y-105770837D02*
G01*
X136781864Y-105754554D01*
X136876612Y-105725814D01*
X137022198Y-105665509D01*
X137109501Y-105618844D01*
X137109521Y-105618832D01*
X137240530Y-105531295D01*
X137240536Y-105531291D01*
X137317064Y-105468485D01*
X137428485Y-105357064D01*
X137491291Y-105280536D01*
X137491295Y-105280530D01*
X137578832Y-105149521D01*
X137578844Y-105149500D01*
X137613464Y-105084732D01*
X137662426Y-105034887D01*
X137730564Y-105019426D01*
X137796244Y-105043257D01*
X137835205Y-105090779D01*
X137859431Y-105142732D01*
X137859432Y-105142734D01*
X137989954Y-105329141D01*
X138150858Y-105490045D01*
X138150861Y-105490047D01*
X138336624Y-105620118D01*
X138380248Y-105674693D01*
X138389500Y-105721692D01*
X138389500Y-107301094D01*
X138369815Y-107368133D01*
X138317011Y-107413888D01*
X138247853Y-107423832D01*
X138184297Y-107394807D01*
X138162398Y-107369986D01*
X138121786Y-107309207D01*
X138010292Y-107197713D01*
X138010288Y-107197710D01*
X137879185Y-107110109D01*
X137879172Y-107110102D01*
X137733501Y-107049764D01*
X137733489Y-107049761D01*
X137578845Y-107019000D01*
X137578842Y-107019000D01*
X137421158Y-107019000D01*
X137421155Y-107019000D01*
X137266510Y-107049761D01*
X137266498Y-107049764D01*
X137120827Y-107110102D01*
X137120814Y-107110109D01*
X136989711Y-107197710D01*
X136989707Y-107197713D01*
X136878213Y-107309207D01*
X136878210Y-107309211D01*
X136790609Y-107440314D01*
X136790602Y-107440327D01*
X136730264Y-107585998D01*
X136730261Y-107586010D01*
X136699500Y-107740653D01*
X136699500Y-107898346D01*
X136730261Y-108052989D01*
X136730264Y-108053001D01*
X136790602Y-108198672D01*
X136790609Y-108198685D01*
X136839474Y-108271815D01*
X136876337Y-108326985D01*
X136878602Y-108330374D01*
X136899480Y-108397051D01*
X136899500Y-108399265D01*
X136899500Y-122876000D01*
X136879815Y-122943039D01*
X136827011Y-122988794D01*
X136775500Y-123000000D01*
X135724500Y-123000000D01*
X135657461Y-122980315D01*
X135611706Y-122927511D01*
X135600500Y-122876000D01*
X135600500Y-109024965D01*
X135620185Y-108957926D01*
X135621398Y-108956074D01*
X135709390Y-108824385D01*
X135709390Y-108824384D01*
X135709394Y-108824379D01*
X135769737Y-108678697D01*
X135800500Y-108524042D01*
X135800500Y-108366358D01*
X135800500Y-108366355D01*
X135800499Y-108366353D01*
X135794840Y-108337905D01*
X135769737Y-108211703D01*
X135764342Y-108198679D01*
X135709397Y-108066027D01*
X135709390Y-108066014D01*
X135621789Y-107934911D01*
X135621786Y-107934907D01*
X135510292Y-107823413D01*
X135510288Y-107823410D01*
X135379185Y-107735809D01*
X135379172Y-107735802D01*
X135233501Y-107675464D01*
X135233489Y-107675461D01*
X135078845Y-107644700D01*
X135078842Y-107644700D01*
X135070100Y-107644700D01*
X135003061Y-107625015D01*
X134957306Y-107572211D01*
X134946100Y-107520700D01*
X134946100Y-105316745D01*
X134950797Y-105300183D01*
X134950500Y-105284007D01*
X134962841Y-105257726D01*
X134964568Y-105251638D01*
X134966457Y-105248575D01*
X135040568Y-105142734D01*
X135067850Y-105084226D01*
X135071644Y-105078078D01*
X135092463Y-105059355D01*
X135110965Y-105038342D01*
X135118087Y-105036311D01*
X135123596Y-105031358D01*
X135151234Y-105026863D01*
X135178158Y-105019189D01*
X135185248Y-105021332D01*
X135192560Y-105020143D01*
X135218237Y-105031303D01*
X135245040Y-105039404D01*
X135250433Y-105045296D01*
X135256639Y-105047993D01*
X135266782Y-105063155D01*
X135286534Y-105084731D01*
X135321155Y-105149500D01*
X135321167Y-105149521D01*
X135408704Y-105280530D01*
X135408708Y-105280536D01*
X135471514Y-105357064D01*
X135582935Y-105468485D01*
X135659463Y-105531291D01*
X135659469Y-105531295D01*
X135790478Y-105618832D01*
X135790498Y-105618844D01*
X135877801Y-105665509D01*
X136023387Y-105725814D01*
X136118135Y-105754554D01*
X136200000Y-105770837D01*
X136200000Y-103323012D01*
X136257007Y-103355925D01*
X136384174Y-103390000D01*
X136515826Y-103390000D01*
X136642993Y-103355925D01*
X136700000Y-103323012D01*
X136700000Y-105770837D01*
G37*
%TD.AperFunction*%
%TA.AperFunction,Conductor*%
G36*
X138348363Y-108245657D02*
G01*
X138385082Y-108305100D01*
X138389500Y-108337905D01*
X138389500Y-122876000D01*
X138369815Y-122943039D01*
X138317011Y-122988794D01*
X138265500Y-123000000D01*
X138224500Y-123000000D01*
X138157461Y-122980315D01*
X138111706Y-122927511D01*
X138100500Y-122876000D01*
X138100500Y-108399265D01*
X138105828Y-108381119D01*
X138106166Y-108362211D01*
X138119665Y-108333995D01*
X138120185Y-108332226D01*
X138121398Y-108330374D01*
X138123663Y-108326985D01*
X138160526Y-108271815D01*
X138162398Y-108269014D01*
X138216011Y-108224209D01*
X138285336Y-108215502D01*
X138348363Y-108245657D01*
G37*
%TD.AperFunction*%
%TA.AperFunction,Conductor*%
G36*
X162100000Y-105770837D02*
G01*
X162181864Y-105754554D01*
X162276612Y-105725814D01*
X162422198Y-105665509D01*
X162480846Y-105634161D01*
X162549248Y-105619919D01*
X162614492Y-105644918D01*
X162655863Y-105701223D01*
X162663300Y-105743519D01*
X162663300Y-106046330D01*
X162663299Y-106046348D01*
X162663299Y-106212054D01*
X162663298Y-106212054D01*
X162683224Y-106286420D01*
X162704223Y-106364785D01*
X162729751Y-106409000D01*
X162783279Y-106501714D01*
X162783281Y-106501717D01*
X162902149Y-106620585D01*
X162902155Y-106620590D01*
X171863181Y-115581616D01*
X171896666Y-115642939D01*
X171899500Y-115669297D01*
X171899500Y-122876000D01*
X171879815Y-122943039D01*
X171827011Y-122988794D01*
X171775500Y-123000000D01*
X170724500Y-123000000D01*
X170657461Y-122980315D01*
X170611706Y-122927511D01*
X170600500Y-122876000D01*
X170600500Y-118425865D01*
X170620185Y-118358826D01*
X170621398Y-118356974D01*
X170697690Y-118242796D01*
X170709394Y-118225279D01*
X170769737Y-118079597D01*
X170800500Y-117924942D01*
X170800500Y-117767258D01*
X170800500Y-117767255D01*
X170800499Y-117767253D01*
X170769738Y-117612610D01*
X170769737Y-117612603D01*
X170769735Y-117612598D01*
X170709397Y-117466927D01*
X170709390Y-117466914D01*
X170621789Y-117335811D01*
X170621786Y-117335807D01*
X170510292Y-117224313D01*
X170510288Y-117224310D01*
X170379185Y-117136709D01*
X170379172Y-117136702D01*
X170233501Y-117076364D01*
X170233489Y-117076361D01*
X170078845Y-117045600D01*
X170078842Y-117045600D01*
X169921158Y-117045600D01*
X169921155Y-117045600D01*
X169766510Y-117076361D01*
X169766498Y-117076364D01*
X169620827Y-117136702D01*
X169620814Y-117136709D01*
X169489711Y-117224310D01*
X169489707Y-117224313D01*
X169378213Y-117335807D01*
X169378210Y-117335811D01*
X169290609Y-117466914D01*
X169290602Y-117466927D01*
X169230264Y-117612598D01*
X169230261Y-117612610D01*
X169199500Y-117767253D01*
X169199500Y-117924946D01*
X169230261Y-118079589D01*
X169230264Y-118079601D01*
X169290602Y-118225272D01*
X169290609Y-118225285D01*
X169378602Y-118356974D01*
X169399480Y-118423651D01*
X169399500Y-118425865D01*
X169399500Y-122876000D01*
X169379815Y-122943039D01*
X169327011Y-122988794D01*
X169275500Y-123000000D01*
X165724500Y-123000000D01*
X165657461Y-122980315D01*
X165611706Y-122927511D01*
X165600500Y-122876000D01*
X165600500Y-110275459D01*
X165600501Y-110275446D01*
X165600501Y-110107345D01*
X165600501Y-110107343D01*
X165559577Y-109954615D01*
X165521740Y-109889080D01*
X165480520Y-109817684D01*
X165368716Y-109705880D01*
X165368715Y-109705879D01*
X165364385Y-109701549D01*
X165364374Y-109701539D01*
X161605386Y-105942551D01*
X161571901Y-105881228D01*
X161576885Y-105811536D01*
X161600000Y-105779178D01*
X161600000Y-103323012D01*
X161657007Y-103355925D01*
X161784174Y-103390000D01*
X161915826Y-103390000D01*
X162042993Y-103355925D01*
X162100000Y-103323012D01*
X162100000Y-105770837D01*
G37*
%TD.AperFunction*%
%TA.AperFunction,Conductor*%
G36*
X182632734Y-100839014D02*
G01*
X182688667Y-100880886D01*
X182713084Y-100946350D01*
X182713400Y-100955196D01*
X182713400Y-122876000D01*
X182693715Y-122943039D01*
X182640911Y-122988794D01*
X182589400Y-123000000D01*
X173224500Y-123000000D01*
X173157461Y-122980315D01*
X173111706Y-122927511D01*
X173100500Y-122876000D01*
X173100500Y-115290145D01*
X173100500Y-115290143D01*
X173059577Y-115137416D01*
X173059577Y-115137415D01*
X173009443Y-115050581D01*
X172980520Y-115000484D01*
X172868716Y-114888680D01*
X172868715Y-114888679D01*
X172864385Y-114884349D01*
X172864374Y-114884339D01*
X163933695Y-105953660D01*
X163900210Y-105892337D01*
X163905194Y-105822645D01*
X163947066Y-105766712D01*
X164012530Y-105742295D01*
X164053469Y-105746204D01*
X164163308Y-105775635D01*
X164333214Y-105790499D01*
X164333215Y-105790500D01*
X164333216Y-105790500D01*
X164446785Y-105790500D01*
X164446785Y-105790499D01*
X164616692Y-105775635D01*
X164836496Y-105716739D01*
X165042734Y-105620568D01*
X165229139Y-105490047D01*
X165390047Y-105329139D01*
X165520568Y-105142734D01*
X165547618Y-105084724D01*
X165593790Y-105032285D01*
X165660983Y-105013133D01*
X165727865Y-105033348D01*
X165772382Y-105084725D01*
X165799429Y-105142728D01*
X165799432Y-105142734D01*
X165929954Y-105329141D01*
X166090858Y-105490045D01*
X166090861Y-105490047D01*
X166277266Y-105620568D01*
X166483504Y-105716739D01*
X166483509Y-105716740D01*
X166483511Y-105716741D01*
X166520205Y-105726573D01*
X166703308Y-105775635D01*
X166873214Y-105790499D01*
X166873215Y-105790500D01*
X166873216Y-105790500D01*
X166986785Y-105790500D01*
X166986785Y-105790499D01*
X167156692Y-105775635D01*
X167376496Y-105716739D01*
X167582734Y-105620568D01*
X167769139Y-105490047D01*
X167930047Y-105329139D01*
X168060568Y-105142734D01*
X168087618Y-105084724D01*
X168133790Y-105032285D01*
X168200983Y-105013133D01*
X168267865Y-105033348D01*
X168312382Y-105084725D01*
X168339429Y-105142728D01*
X168339432Y-105142734D01*
X168469954Y-105329141D01*
X168630858Y-105490045D01*
X168630861Y-105490047D01*
X168817266Y-105620568D01*
X169023504Y-105716739D01*
X169023509Y-105716740D01*
X169023511Y-105716741D01*
X169060205Y-105726573D01*
X169243308Y-105775635D01*
X169413214Y-105790499D01*
X169413215Y-105790500D01*
X169413216Y-105790500D01*
X169526785Y-105790500D01*
X169526785Y-105790499D01*
X169696692Y-105775635D01*
X169916496Y-105716739D01*
X170122734Y-105620568D01*
X170309139Y-105490047D01*
X170470047Y-105329139D01*
X170600568Y-105142734D01*
X170627618Y-105084724D01*
X170673790Y-105032285D01*
X170740983Y-105013133D01*
X170807865Y-105033348D01*
X170852382Y-105084725D01*
X170879429Y-105142728D01*
X170879432Y-105142734D01*
X171009954Y-105329141D01*
X171170858Y-105490045D01*
X171170861Y-105490047D01*
X171357266Y-105620568D01*
X171563504Y-105716739D01*
X171563509Y-105716740D01*
X171563511Y-105716741D01*
X171600205Y-105726573D01*
X171783308Y-105775635D01*
X171953214Y-105790499D01*
X171953215Y-105790500D01*
X171953216Y-105790500D01*
X172066785Y-105790500D01*
X172066785Y-105790499D01*
X172236692Y-105775635D01*
X172456496Y-105716739D01*
X172662734Y-105620568D01*
X172849139Y-105490047D01*
X173010047Y-105329139D01*
X173140568Y-105142734D01*
X173164795Y-105090777D01*
X173210965Y-105038341D01*
X173278158Y-105019188D01*
X173345040Y-105039403D01*
X173386534Y-105084730D01*
X173421155Y-105149501D01*
X173421167Y-105149521D01*
X173508704Y-105280530D01*
X173508708Y-105280536D01*
X173571514Y-105357064D01*
X173682935Y-105468485D01*
X173759463Y-105531291D01*
X173759469Y-105531295D01*
X173890478Y-105618832D01*
X173890498Y-105618844D01*
X173977801Y-105665509D01*
X174123387Y-105725814D01*
X174218135Y-105754554D01*
X174300000Y-105770837D01*
X174300000Y-103323012D01*
X174357007Y-103355925D01*
X174484174Y-103390000D01*
X174615826Y-103390000D01*
X174742993Y-103355925D01*
X174800000Y-103323012D01*
X174800000Y-105770837D01*
X174881864Y-105754554D01*
X174976612Y-105725814D01*
X175122198Y-105665509D01*
X175209501Y-105618844D01*
X175209521Y-105618832D01*
X175340530Y-105531295D01*
X175340536Y-105531291D01*
X175417064Y-105468485D01*
X175528485Y-105357064D01*
X175591291Y-105280536D01*
X175591295Y-105280530D01*
X175678832Y-105149521D01*
X175678844Y-105149500D01*
X175713464Y-105084732D01*
X175762426Y-105034887D01*
X175830564Y-105019426D01*
X175896244Y-105043257D01*
X175935205Y-105090779D01*
X175959431Y-105142732D01*
X175959432Y-105142734D01*
X176089954Y-105329141D01*
X176250858Y-105490045D01*
X176250861Y-105490047D01*
X176437266Y-105620568D01*
X176643504Y-105716739D01*
X176643509Y-105716740D01*
X176643511Y-105716741D01*
X176680205Y-105726573D01*
X176863308Y-105775635D01*
X177033214Y-105790499D01*
X177033215Y-105790500D01*
X177033216Y-105790500D01*
X177146785Y-105790500D01*
X177146785Y-105790499D01*
X177316692Y-105775635D01*
X177536496Y-105716739D01*
X177742734Y-105620568D01*
X177929139Y-105490047D01*
X178090047Y-105329139D01*
X178220568Y-105142734D01*
X178247618Y-105084724D01*
X178293790Y-105032285D01*
X178360983Y-105013133D01*
X178427865Y-105033348D01*
X178472382Y-105084725D01*
X178499429Y-105142728D01*
X178499432Y-105142734D01*
X178629954Y-105329141D01*
X178790858Y-105490045D01*
X178790861Y-105490047D01*
X178977266Y-105620568D01*
X179183504Y-105716739D01*
X179183509Y-105716740D01*
X179183511Y-105716741D01*
X179220205Y-105726573D01*
X179403308Y-105775635D01*
X179573214Y-105790499D01*
X179573215Y-105790500D01*
X179573216Y-105790500D01*
X179686785Y-105790500D01*
X179686785Y-105790499D01*
X179856692Y-105775635D01*
X180076496Y-105716739D01*
X180282734Y-105620568D01*
X180469139Y-105490047D01*
X180630047Y-105329139D01*
X180760568Y-105142734D01*
X180856739Y-104936496D01*
X180915635Y-104716692D01*
X180930500Y-104546784D01*
X180930500Y-102833216D01*
X180930500Y-102787648D01*
X180921593Y-102731417D01*
X180915635Y-102663308D01*
X180903825Y-102619233D01*
X180898477Y-102585466D01*
X180893825Y-102571151D01*
X180891832Y-102501312D01*
X180924075Y-102445158D01*
X182501720Y-100867513D01*
X182563042Y-100834030D01*
X182632734Y-100839014D01*
G37*
%TD.AperFunction*%
%TA.AperFunction,Conductor*%
G36*
X149400000Y-105770837D02*
G01*
X149481864Y-105754554D01*
X149576612Y-105725814D01*
X149711447Y-105669963D01*
X149780916Y-105662494D01*
X149843395Y-105693769D01*
X149879048Y-105753857D01*
X149882900Y-105784524D01*
X149882900Y-111416502D01*
X149863215Y-111483541D01*
X149846581Y-111504183D01*
X149582076Y-111768688D01*
X149520753Y-111802173D01*
X149451061Y-111797189D01*
X149406714Y-111768688D01*
X149377294Y-111739268D01*
X149377285Y-111739261D01*
X149239191Y-111657593D01*
X149239188Y-111657592D01*
X149085130Y-111612834D01*
X149050000Y-111610068D01*
X149050000Y-112249402D01*
X149041355Y-112278842D01*
X149034832Y-112308829D01*
X149031077Y-112313844D01*
X149030315Y-112316441D01*
X149013681Y-112337083D01*
X149007083Y-112343681D01*
X148945760Y-112377166D01*
X148919402Y-112380000D01*
X148800000Y-112380000D01*
X148800000Y-112499402D01*
X148791353Y-112528846D01*
X148784827Y-112558838D01*
X148781076Y-112563846D01*
X148780315Y-112566441D01*
X148763674Y-112587090D01*
X148757575Y-112593188D01*
X148696249Y-112626668D01*
X148669902Y-112629500D01*
X148550831Y-112629500D01*
X148550812Y-112629501D01*
X148549656Y-112629592D01*
X148549330Y-112629618D01*
X148539607Y-112630000D01*
X147987156Y-112630000D01*
X148027594Y-112769193D01*
X148061419Y-112826388D01*
X148078601Y-112894112D01*
X148061419Y-112952628D01*
X148027130Y-113010607D01*
X148027129Y-113010611D01*
X147982335Y-113164791D01*
X147982334Y-113164797D01*
X147979500Y-113200811D01*
X147979500Y-113599169D01*
X147979501Y-113599191D01*
X147982335Y-113635205D01*
X148027129Y-113789388D01*
X148027131Y-113789393D01*
X148108865Y-113927598D01*
X148163182Y-113981915D01*
X148196666Y-114043236D01*
X148199500Y-114069595D01*
X148199500Y-117072303D01*
X148179815Y-117139342D01*
X148127011Y-117185097D01*
X148057853Y-117195041D01*
X147994297Y-117166016D01*
X147987819Y-117159984D01*
X147488177Y-116660342D01*
X147454692Y-116599019D01*
X147459676Y-116529327D01*
X147466343Y-116515693D01*
X147466303Y-116515675D01*
X147469355Y-116509127D01*
X147524505Y-116342697D01*
X147524506Y-116342690D01*
X147534999Y-116239986D01*
X147535000Y-116239973D01*
X147535000Y-116190000D01*
X146434000Y-116190000D01*
X146366961Y-116170315D01*
X146321206Y-116117511D01*
X146310000Y-116066000D01*
X146310000Y-115940000D01*
X146184000Y-115940000D01*
X146116961Y-115920315D01*
X146071206Y-115867511D01*
X146060000Y-115816000D01*
X146060000Y-115690000D01*
X146560000Y-115690000D01*
X147534999Y-115690000D01*
X147534999Y-115640028D01*
X147534998Y-115640013D01*
X147524505Y-115537302D01*
X147469358Y-115370880D01*
X147469356Y-115370875D01*
X147377315Y-115221654D01*
X147253345Y-115097684D01*
X147104124Y-115005643D01*
X147104119Y-115005641D01*
X146937697Y-114950494D01*
X146937690Y-114950493D01*
X146834986Y-114940000D01*
X146560000Y-114940000D01*
X146560000Y-115690000D01*
X146060000Y-115690000D01*
X146060000Y-114940000D01*
X145785029Y-114940000D01*
X145785012Y-114940001D01*
X145682302Y-114950494D01*
X145515880Y-115005641D01*
X145515875Y-115005643D01*
X145366654Y-115097684D01*
X145242682Y-115221656D01*
X145187865Y-115310528D01*
X145170573Y-115326080D01*
X145156637Y-115344697D01*
X145145085Y-115349005D01*
X145135917Y-115357252D01*
X145112962Y-115360986D01*
X145091173Y-115369114D01*
X145079123Y-115366492D01*
X145066954Y-115368473D01*
X145045625Y-115359205D01*
X145022900Y-115354262D01*
X145007201Y-115342510D01*
X145002872Y-115340629D01*
X144994646Y-115333111D01*
X144946819Y-115285284D01*
X144913334Y-115223961D01*
X144910500Y-115197603D01*
X144910500Y-114069595D01*
X144930185Y-114002556D01*
X144946814Y-113981918D01*
X145001135Y-113927598D01*
X145082869Y-113789393D01*
X145127665Y-113635204D01*
X145130500Y-113599181D01*
X145130499Y-113200820D01*
X145127665Y-113164796D01*
X145082869Y-113010607D01*
X145048581Y-112952629D01*
X145031398Y-112884905D01*
X145048582Y-112826386D01*
X145082404Y-112769196D01*
X145082405Y-112769194D01*
X145122844Y-112630000D01*
X144570409Y-112630000D01*
X144569954Y-112629999D01*
X144565305Y-112629981D01*
X144559181Y-112629500D01*
X144433818Y-112629500D01*
X144433545Y-112629499D01*
X144400216Y-112619579D01*
X144366961Y-112609815D01*
X144366806Y-112609636D01*
X144366579Y-112609569D01*
X144343867Y-112583163D01*
X144321206Y-112557011D01*
X144321149Y-112556750D01*
X144321018Y-112556598D01*
X144320840Y-112555331D01*
X144310000Y-112505500D01*
X144310000Y-112342297D01*
X144329685Y-112275258D01*
X144346314Y-112254620D01*
X144434617Y-112166318D01*
X144495941Y-112132834D01*
X144522298Y-112130000D01*
X145122844Y-112130000D01*
X147987156Y-112130000D01*
X148550000Y-112130000D01*
X148550000Y-111610068D01*
X148549999Y-111610068D01*
X148514869Y-111612834D01*
X148514868Y-111612834D01*
X148360811Y-111657592D01*
X148360808Y-111657593D01*
X148222714Y-111739261D01*
X148222705Y-111739268D01*
X148109268Y-111852705D01*
X148109261Y-111852714D01*
X148027595Y-111990805D01*
X147987156Y-112130000D01*
X145122844Y-112130000D01*
X145082404Y-111990805D01*
X145000738Y-111852714D01*
X145000731Y-111852705D01*
X144962161Y-111814136D01*
X144928675Y-111752813D01*
X144933659Y-111683122D01*
X144962156Y-111638778D01*
X148096006Y-108504927D01*
X148096011Y-108504924D01*
X148106214Y-108494720D01*
X148106216Y-108494720D01*
X148218020Y-108382916D01*
X148282164Y-108271815D01*
X148297077Y-108245985D01*
X148338001Y-108093257D01*
X148338001Y-107935143D01*
X148338001Y-107927548D01*
X148338000Y-107927530D01*
X148338000Y-105744214D01*
X148357685Y-105677175D01*
X148410489Y-105631420D01*
X148479647Y-105621476D01*
X148520454Y-105634856D01*
X148577801Y-105665509D01*
X148723387Y-105725814D01*
X148818135Y-105754554D01*
X148900000Y-105770837D01*
X148900000Y-103323012D01*
X148957007Y-103355925D01*
X149084174Y-103390000D01*
X149215826Y-103390000D01*
X149342993Y-103355925D01*
X149400000Y-103323012D01*
X149400000Y-105770837D01*
G37*
%TD.AperFunction*%
%TA.AperFunction,Conductor*%
G36*
X161384075Y-85302993D02*
G01*
X161449901Y-85417007D01*
X161542993Y-85510099D01*
X161657007Y-85575925D01*
X161784174Y-85610000D01*
X161915826Y-85610000D01*
X162042993Y-85575925D01*
X162100000Y-85543012D01*
X162100000Y-86415000D01*
X162489782Y-86415000D01*
X162532661Y-86412701D01*
X162600658Y-86428768D01*
X162649175Y-86479047D01*
X162663300Y-86536523D01*
X162663300Y-101466844D01*
X162643615Y-101533883D01*
X162590811Y-101579638D01*
X162521655Y-101589582D01*
X162489785Y-101585000D01*
X162100000Y-101585000D01*
X162100000Y-102456988D01*
X162042993Y-102424075D01*
X161915826Y-102390000D01*
X161784174Y-102390000D01*
X161657007Y-102424075D01*
X161542993Y-102489901D01*
X161449901Y-102582993D01*
X161384075Y-102697007D01*
X161367037Y-102760590D01*
X161076820Y-102470373D01*
X161043335Y-102409050D01*
X161040501Y-102382692D01*
X161040501Y-102317344D01*
X161019042Y-102237260D01*
X160999577Y-102164616D01*
X160982363Y-102134800D01*
X160920524Y-102027690D01*
X160920518Y-102027682D01*
X160668194Y-101775358D01*
X160539698Y-101646862D01*
X160960415Y-101646862D01*
X161599999Y-102286447D01*
X161600000Y-102286446D01*
X161600000Y-101585000D01*
X161210214Y-101585000D01*
X161156237Y-101587893D01*
X161156235Y-101587893D01*
X161016969Y-101623438D01*
X161016956Y-101623442D01*
X160960415Y-101646862D01*
X160539698Y-101646862D01*
X159831495Y-100938660D01*
X159804615Y-100898431D01*
X159773797Y-100824027D01*
X159773795Y-100824024D01*
X159773794Y-100824021D01*
X159773787Y-100824010D01*
X159685798Y-100692324D01*
X159664920Y-100625647D01*
X159664900Y-100623434D01*
X159664900Y-92628500D01*
X160212600Y-92628500D01*
X160212600Y-93415900D01*
X160212600Y-94203300D01*
X160214522Y-94242700D01*
X160229600Y-94279101D01*
X160244678Y-94315503D01*
X160300396Y-94371221D01*
X160300397Y-94371221D01*
X160300398Y-94371222D01*
X160373200Y-94401378D01*
X160412600Y-94403300D01*
X160412615Y-94403300D01*
X161987385Y-94403300D01*
X161987400Y-94403300D01*
X162026800Y-94401378D01*
X162099602Y-94371222D01*
X162099603Y-94371221D01*
X162099605Y-94371220D01*
X162155320Y-94315505D01*
X162155321Y-94315503D01*
X162155322Y-94315502D01*
X162185478Y-94242700D01*
X162187400Y-94203300D01*
X162187400Y-93415900D01*
X162187400Y-92628500D01*
X162185478Y-92589100D01*
X162181865Y-92580378D01*
X162155325Y-92516303D01*
X162155323Y-92516298D01*
X162099602Y-92460577D01*
X162099598Y-92460575D01*
X162099596Y-92460574D01*
X162026801Y-92430422D01*
X162026803Y-92430422D01*
X162018357Y-92430010D01*
X161987400Y-92428500D01*
X160412600Y-92428500D01*
X160382292Y-92429978D01*
X160373197Y-92430422D01*
X160300403Y-92460574D01*
X160300395Y-92460579D01*
X160244679Y-92516295D01*
X160244674Y-92516303D01*
X160214522Y-92589097D01*
X160214522Y-92589100D01*
X160212600Y-92628500D01*
X159664900Y-92628500D01*
X159664900Y-90868970D01*
X160207846Y-90868970D01*
X160207846Y-90868973D01*
X160210368Y-90896680D01*
X160225396Y-91061817D01*
X160280067Y-91247573D01*
X160280069Y-91247577D01*
X160369773Y-91419168D01*
X160369781Y-91419180D01*
X160491116Y-91570091D01*
X160550338Y-91619784D01*
X160639446Y-91694555D01*
X160639449Y-91694557D01*
X160639450Y-91694557D01*
X160639452Y-91694559D01*
X160809140Y-91787846D01*
X160993715Y-91846397D01*
X161186147Y-91867981D01*
X161379107Y-91851778D01*
X161565245Y-91798404D01*
X161737471Y-91709892D01*
X161889225Y-91589613D01*
X162014726Y-91442149D01*
X162109195Y-91273118D01*
X162169033Y-91088956D01*
X162191960Y-90896679D01*
X162177105Y-90703610D01*
X162125031Y-90517104D01*
X162037724Y-90344264D01*
X161918507Y-90191675D01*
X161917786Y-90191053D01*
X161835412Y-90119949D01*
X161771923Y-90065147D01*
X161771921Y-90065146D01*
X161771918Y-90065143D01*
X161603560Y-89969502D01*
X161603556Y-89969500D01*
X161603555Y-89969500D01*
X161419816Y-89908378D01*
X161419814Y-89908377D01*
X161227699Y-89884108D01*
X161201174Y-89883738D01*
X161200000Y-89883722D01*
X161199999Y-89883722D01*
X161199997Y-89883722D01*
X161007287Y-89902617D01*
X160821908Y-89958586D01*
X160821907Y-89958586D01*
X160650938Y-90049493D01*
X160650936Y-90049494D01*
X160564548Y-90119951D01*
X160500877Y-90171880D01*
X160469159Y-90210220D01*
X160377446Y-90321082D01*
X160285346Y-90491419D01*
X160228087Y-90676390D01*
X160207846Y-90868970D01*
X159664900Y-90868970D01*
X159664900Y-88328973D01*
X160207846Y-88328973D01*
X160210368Y-88356680D01*
X160225396Y-88521817D01*
X160280067Y-88707573D01*
X160280069Y-88707577D01*
X160369773Y-88879168D01*
X160369781Y-88879180D01*
X160491116Y-89030091D01*
X160514382Y-89049613D01*
X160639446Y-89154555D01*
X160639449Y-89154557D01*
X160639450Y-89154557D01*
X160639452Y-89154559D01*
X160809140Y-89247846D01*
X160993715Y-89306397D01*
X161186147Y-89327981D01*
X161379107Y-89311778D01*
X161565245Y-89258404D01*
X161737471Y-89169892D01*
X161889225Y-89049613D01*
X162014726Y-88902149D01*
X162109195Y-88733118D01*
X162169033Y-88548956D01*
X162191960Y-88356679D01*
X162177105Y-88163610D01*
X162125031Y-87977104D01*
X162037724Y-87804264D01*
X161918507Y-87651675D01*
X161895574Y-87631880D01*
X161780532Y-87532578D01*
X161771923Y-87525147D01*
X161771921Y-87525146D01*
X161771918Y-87525143D01*
X161603560Y-87429502D01*
X161603556Y-87429500D01*
X161603555Y-87429500D01*
X161419816Y-87368378D01*
X161419814Y-87368377D01*
X161227699Y-87344108D01*
X161201174Y-87343738D01*
X161200000Y-87343722D01*
X161199999Y-87343722D01*
X161199997Y-87343722D01*
X161007287Y-87362617D01*
X160821908Y-87418586D01*
X160821907Y-87418586D01*
X160650938Y-87509493D01*
X160650936Y-87509494D01*
X160500878Y-87631879D01*
X160377446Y-87781082D01*
X160285346Y-87951419D01*
X160228087Y-88136390D01*
X160209123Y-88316821D01*
X160207846Y-88328973D01*
X159664900Y-88328973D01*
X159664900Y-87273096D01*
X159684585Y-87206057D01*
X159701214Y-87185420D01*
X160533498Y-86353135D01*
X160960415Y-86353135D01*
X160960415Y-86353136D01*
X161016946Y-86376552D01*
X161067946Y-86394544D01*
X161210219Y-86414999D01*
X161210221Y-86415000D01*
X161600000Y-86415000D01*
X161600000Y-85713553D01*
X161599999Y-85713552D01*
X160960415Y-86353135D01*
X160533498Y-86353135D01*
X160939906Y-85946727D01*
X160939911Y-85946724D01*
X160950114Y-85936520D01*
X160950116Y-85936520D01*
X161061920Y-85824716D01*
X161081032Y-85791613D01*
X161127861Y-85710503D01*
X161127862Y-85710501D01*
X161133183Y-85701282D01*
X161140977Y-85687785D01*
X161181901Y-85535057D01*
X161181901Y-85475908D01*
X161201586Y-85408869D01*
X161218220Y-85388227D01*
X161367037Y-85239409D01*
X161384075Y-85302993D01*
G37*
%TD.AperFunction*%
%TA.AperFunction,Conductor*%
G36*
X180915904Y-97545935D02*
G01*
X180936944Y-97547063D01*
X180948758Y-97555582D01*
X180962730Y-97559685D01*
X180976525Y-97575605D01*
X180993616Y-97587930D01*
X180998948Y-97601483D01*
X181008485Y-97612489D01*
X181011483Y-97633343D01*
X181019197Y-97652948D01*
X181017867Y-97677744D01*
X181018429Y-97681647D01*
X181017308Y-97688191D01*
X181001800Y-97766153D01*
X181001800Y-97923846D01*
X181032561Y-98078489D01*
X181032564Y-98078501D01*
X181092902Y-98224172D01*
X181092909Y-98224185D01*
X181180512Y-98355292D01*
X181182674Y-98357926D01*
X181183373Y-98359573D01*
X181183895Y-98360354D01*
X181183747Y-98360452D01*
X181209983Y-98422238D01*
X181198187Y-98491105D01*
X181174497Y-98524266D01*
X177933052Y-101765711D01*
X177907538Y-101779642D01*
X177883508Y-101796020D01*
X177877234Y-101796189D01*
X177871729Y-101799196D01*
X177842731Y-101797122D01*
X177813664Y-101797908D01*
X177806563Y-101794535D01*
X177802037Y-101794212D01*
X177781175Y-101784119D01*
X177776700Y-101781411D01*
X177771610Y-101777713D01*
X177765142Y-101774417D01*
X177761273Y-101772076D01*
X177760558Y-101771295D01*
X177754347Y-101767563D01*
X177742734Y-101759432D01*
X177662128Y-101721844D01*
X177660169Y-101720930D01*
X177589219Y-101684780D01*
X177567534Y-101677733D01*
X177560662Y-101674529D01*
X177560661Y-101674528D01*
X177536494Y-101663260D01*
X177462600Y-101643460D01*
X177462600Y-101643459D01*
X177459446Y-101642614D01*
X177394534Y-101621523D01*
X177360766Y-101616174D01*
X177316692Y-101604365D01*
X177316689Y-101604364D01*
X177316686Y-101604364D01*
X177252891Y-101598783D01*
X177244301Y-101597728D01*
X177192352Y-101589500D01*
X176987648Y-101589500D01*
X176987644Y-101589500D01*
X176935697Y-101597728D01*
X176935695Y-101597728D01*
X176931410Y-101598406D01*
X176863308Y-101604365D01*
X176819245Y-101616170D01*
X176812841Y-101617185D01*
X176812824Y-101617189D01*
X176785463Y-101621523D01*
X176785459Y-101621524D01*
X176723627Y-101641615D01*
X176717404Y-101643459D01*
X176643504Y-101663261D01*
X176643503Y-101663261D01*
X176619338Y-101674529D01*
X176619337Y-101674528D01*
X176612456Y-101677736D01*
X176590781Y-101684780D01*
X176519886Y-101720901D01*
X176517900Y-101721828D01*
X176517882Y-101721838D01*
X176437262Y-101759433D01*
X176425655Y-101767559D01*
X176425656Y-101767560D01*
X176418549Y-101772535D01*
X176408390Y-101777713D01*
X176334870Y-101831126D01*
X176333939Y-101831779D01*
X176250859Y-101889954D01*
X176089954Y-102050859D01*
X176043374Y-102117380D01*
X175988796Y-102161004D01*
X175919298Y-102168195D01*
X175856944Y-102136671D01*
X175821652Y-102076918D01*
X175816557Y-102056956D01*
X175793136Y-102000415D01*
X175793135Y-102000415D01*
X175032962Y-102760589D01*
X175015925Y-102697007D01*
X174950099Y-102582993D01*
X174857007Y-102489901D01*
X174742993Y-102424075D01*
X174615826Y-102390000D01*
X174484174Y-102390000D01*
X174357007Y-102424075D01*
X174242993Y-102489901D01*
X174149901Y-102582993D01*
X174084075Y-102697007D01*
X174067037Y-102760590D01*
X173306862Y-102000415D01*
X173283449Y-102056940D01*
X173283441Y-102056962D01*
X173273490Y-102085167D01*
X173232622Y-102141838D01*
X173167603Y-102167417D01*
X173099076Y-102153783D01*
X173054979Y-102115032D01*
X173014314Y-102056956D01*
X173010047Y-102050861D01*
X173010045Y-102050859D01*
X173010044Y-102050857D01*
X172849140Y-101889953D01*
X172766078Y-101831793D01*
X172764316Y-101830536D01*
X172705763Y-101787995D01*
X172691612Y-101777714D01*
X172689167Y-101776468D01*
X172674345Y-101767562D01*
X172674341Y-101767559D01*
X172663377Y-101759882D01*
X172619752Y-101705306D01*
X172610500Y-101658307D01*
X172610500Y-101646862D01*
X173660415Y-101646862D01*
X174299999Y-102286447D01*
X174800000Y-102286447D01*
X175439583Y-101646863D01*
X175439583Y-101646862D01*
X175383052Y-101623447D01*
X175383035Y-101623440D01*
X175332053Y-101605455D01*
X175189780Y-101585000D01*
X174800000Y-101585000D01*
X174800000Y-102286447D01*
X174299999Y-102286447D01*
X174300000Y-102286446D01*
X174300000Y-101585000D01*
X173910214Y-101585000D01*
X173856237Y-101587893D01*
X173856235Y-101587893D01*
X173716969Y-101623438D01*
X173716956Y-101623442D01*
X173660415Y-101646862D01*
X172610500Y-101646862D01*
X172610500Y-101224000D01*
X172630185Y-101156961D01*
X172682989Y-101111206D01*
X172734500Y-101100000D01*
X176839895Y-101100000D01*
X179446093Y-97744074D01*
X179567343Y-97587944D01*
X179624009Y-97547069D01*
X179665279Y-97540000D01*
X180895691Y-97540000D01*
X180915904Y-97545935D01*
G37*
%TD.AperFunction*%
%TA.AperFunction,Conductor*%
G36*
X136493332Y-101258414D02*
G01*
X136537680Y-101286915D01*
X136680201Y-101429436D01*
X136713686Y-101490759D01*
X136708702Y-101560451D01*
X136700000Y-101573991D01*
X136700000Y-102456988D01*
X136642993Y-102424075D01*
X136515826Y-102390000D01*
X136384174Y-102390000D01*
X136257007Y-102424075D01*
X136200000Y-102456988D01*
X136200000Y-101569410D01*
X136198976Y-101566666D01*
X136186313Y-101543475D01*
X136186958Y-101534445D01*
X136183795Y-101525963D01*
X136189411Y-101500143D01*
X136191297Y-101473783D01*
X136197116Y-101464728D01*
X136198647Y-101457691D01*
X136219794Y-101429439D01*
X136362321Y-101286912D01*
X136423640Y-101253430D01*
X136493332Y-101258414D01*
G37*
%TD.AperFunction*%
%TA.AperFunction,Conductor*%
G36*
X149400000Y-86415000D02*
G01*
X149789781Y-86415000D01*
X149808560Y-86413993D01*
X149876558Y-86430060D01*
X149925074Y-86480338D01*
X149939200Y-86537815D01*
X149939200Y-89643030D01*
X149939199Y-89643048D01*
X149939199Y-89808754D01*
X149939198Y-89808754D01*
X149939199Y-89808757D01*
X149980123Y-89961485D01*
X150005766Y-90005900D01*
X150059177Y-90098412D01*
X150059181Y-90098417D01*
X150178049Y-90217285D01*
X150178055Y-90217290D01*
X151161881Y-91201116D01*
X151195366Y-91262439D01*
X151198200Y-91288797D01*
X151198200Y-91939481D01*
X151178515Y-92006520D01*
X151125711Y-92052275D01*
X151056553Y-92062219D01*
X151042107Y-92059256D01*
X151015546Y-92052139D01*
X150950000Y-92050000D01*
X150050000Y-92050000D01*
X149984455Y-92052139D01*
X149857833Y-92086067D01*
X149857831Y-92086067D01*
X149857831Y-92086068D01*
X149744306Y-92151612D01*
X149744303Y-92151614D01*
X149651614Y-92244303D01*
X149651612Y-92244306D01*
X149592144Y-92347308D01*
X149586067Y-92357833D01*
X149559565Y-92456740D01*
X149552139Y-92484455D01*
X149550000Y-92549999D01*
X149550000Y-93450000D01*
X149552138Y-93515541D01*
X149552138Y-93515544D01*
X149552139Y-93515545D01*
X149586068Y-93642167D01*
X149651612Y-93755694D01*
X149744306Y-93848388D01*
X149857833Y-93913932D01*
X149984455Y-93947861D01*
X150050000Y-93950000D01*
X150950000Y-93950000D01*
X151015545Y-93947861D01*
X151042108Y-93940743D01*
X151111956Y-93942406D01*
X151169818Y-93981568D01*
X151197323Y-94045796D01*
X151198200Y-94060518D01*
X151198200Y-100873472D01*
X151178515Y-100940511D01*
X151125711Y-100986266D01*
X151056553Y-100996210D01*
X150998986Y-100970847D01*
X150998754Y-100971195D01*
X150996776Y-100969873D01*
X150995540Y-100969329D01*
X150993692Y-100967813D01*
X150862585Y-100880209D01*
X150862572Y-100880202D01*
X150716901Y-100819864D01*
X150716889Y-100819861D01*
X150562245Y-100789100D01*
X150562242Y-100789100D01*
X150404558Y-100789100D01*
X150404555Y-100789100D01*
X150249910Y-100819861D01*
X150249898Y-100819864D01*
X150104227Y-100880202D01*
X150104214Y-100880209D01*
X149973111Y-100967810D01*
X149973107Y-100967813D01*
X149861613Y-101079307D01*
X149861610Y-101079311D01*
X149774009Y-101210414D01*
X149774002Y-101210427D01*
X149713664Y-101356098D01*
X149713661Y-101356110D01*
X149687985Y-101485191D01*
X149655600Y-101547102D01*
X149594884Y-101581677D01*
X149566368Y-101585000D01*
X149400000Y-101585000D01*
X149400000Y-102456988D01*
X149342993Y-102424075D01*
X149215826Y-102390000D01*
X149084174Y-102390000D01*
X148957007Y-102424075D01*
X148900000Y-102456988D01*
X148900000Y-101585000D01*
X148510213Y-101585000D01*
X148468635Y-101587228D01*
X148400638Y-101571159D01*
X148352124Y-101520879D01*
X148338000Y-101463406D01*
X148338000Y-89935165D01*
X148357685Y-89868126D01*
X148358898Y-89866274D01*
X148368644Y-89851689D01*
X148446894Y-89734579D01*
X148452691Y-89720585D01*
X148484807Y-89643048D01*
X148507237Y-89588897D01*
X148538000Y-89434242D01*
X148538000Y-89276558D01*
X148538000Y-89276555D01*
X148537999Y-89276553D01*
X148516783Y-89169893D01*
X148507237Y-89121903D01*
X148459058Y-89005587D01*
X148446897Y-88976227D01*
X148446890Y-88976214D01*
X148359289Y-88845111D01*
X148359286Y-88845107D01*
X148304736Y-88790557D01*
X148271251Y-88729234D01*
X148276235Y-88659542D01*
X148285030Y-88640876D01*
X148323477Y-88574284D01*
X148364401Y-88421557D01*
X148364401Y-88263442D01*
X148364401Y-88255847D01*
X148364400Y-88255829D01*
X148364400Y-86537138D01*
X148384085Y-86470099D01*
X148436889Y-86424344D01*
X148506047Y-86414400D01*
X148510219Y-86414999D01*
X148510221Y-86415000D01*
X148900000Y-86415000D01*
X148900000Y-85543012D01*
X148957007Y-85575925D01*
X149084174Y-85610000D01*
X149215826Y-85610000D01*
X149342993Y-85575925D01*
X149400000Y-85543012D01*
X149400000Y-86415000D01*
G37*
%TD.AperFunction*%
%TA.AperFunction,Conductor*%
G36*
X135984075Y-85302993D02*
G01*
X136049901Y-85417007D01*
X136142993Y-85510099D01*
X136257007Y-85575925D01*
X136384174Y-85610000D01*
X136515826Y-85610000D01*
X136642993Y-85575925D01*
X136700000Y-85543012D01*
X136700000Y-86415000D01*
X137089786Y-86415000D01*
X137149845Y-86411781D01*
X137149933Y-86413430D01*
X137211287Y-86421685D01*
X137264503Y-86466960D01*
X137284795Y-86533818D01*
X137284800Y-86534942D01*
X137284800Y-90411103D01*
X137265115Y-90478142D01*
X137248481Y-90498784D01*
X136832431Y-90914833D01*
X136771108Y-90948318D01*
X136701416Y-90943334D01*
X136645483Y-90901462D01*
X136621811Y-90843336D01*
X136621101Y-90837946D01*
X136621101Y-90837943D01*
X136580177Y-90685216D01*
X136545151Y-90624548D01*
X136501124Y-90548290D01*
X136501118Y-90548282D01*
X133135319Y-87182483D01*
X133101834Y-87121160D01*
X133099000Y-87094802D01*
X133099000Y-86361408D01*
X133099144Y-86360915D01*
X133099004Y-86360423D01*
X133108990Y-86327384D01*
X133118685Y-86294369D01*
X133119071Y-86294034D01*
X133119220Y-86293542D01*
X133145519Y-86271116D01*
X133171489Y-86248614D01*
X133171995Y-86248541D01*
X133172386Y-86248208D01*
X133206570Y-86243569D01*
X133240647Y-86238670D01*
X133241283Y-86238859D01*
X133241621Y-86238814D01*
X133275400Y-86249024D01*
X133337873Y-86278155D01*
X133341748Y-86280046D01*
X133395698Y-86307535D01*
X133410781Y-86315220D01*
X133425261Y-86319924D01*
X133439323Y-86325463D01*
X133463504Y-86336739D01*
X133463510Y-86336740D01*
X133463513Y-86336742D01*
X133512690Y-86349918D01*
X133537378Y-86356533D01*
X133537386Y-86356535D01*
X133540528Y-86357377D01*
X133605466Y-86378477D01*
X133639233Y-86383825D01*
X133683308Y-86395635D01*
X133747103Y-86401215D01*
X133755690Y-86402269D01*
X133807648Y-86410500D01*
X133807649Y-86410500D01*
X134012350Y-86410500D01*
X134012352Y-86410500D01*
X134064308Y-86402270D01*
X134068582Y-86401592D01*
X134136692Y-86395635D01*
X134180766Y-86383825D01*
X134214534Y-86378477D01*
X134276404Y-86358373D01*
X134282617Y-86356534D01*
X134295303Y-86353135D01*
X135560415Y-86353135D01*
X135560415Y-86353136D01*
X135616946Y-86376552D01*
X135667946Y-86394544D01*
X135810219Y-86414999D01*
X135810221Y-86415000D01*
X136200000Y-86415000D01*
X136200000Y-85713553D01*
X136199999Y-85713552D01*
X135560415Y-86353135D01*
X134295303Y-86353135D01*
X134356490Y-86336741D01*
X134356492Y-86336739D01*
X134356496Y-86336739D01*
X134387532Y-86322266D01*
X134409219Y-86315220D01*
X134480172Y-86279067D01*
X134558295Y-86242638D01*
X134562730Y-86240570D01*
X134562730Y-86240569D01*
X134562734Y-86240568D01*
X134574382Y-86232411D01*
X134577618Y-86230222D01*
X134583211Y-86226565D01*
X134591610Y-86222287D01*
X134664358Y-86169432D01*
X134666047Y-86168227D01*
X134749139Y-86110047D01*
X134910047Y-85949139D01*
X134956623Y-85882619D01*
X135011196Y-85838996D01*
X135080695Y-85831801D01*
X135143050Y-85863322D01*
X135178344Y-85923073D01*
X135183438Y-85943028D01*
X135183440Y-85943037D01*
X135206863Y-85999583D01*
X135967037Y-85239408D01*
X135984075Y-85302993D01*
G37*
%TD.AperFunction*%
%TA.AperFunction,Conductor*%
G36*
X181135703Y-83739584D02*
G01*
X181142181Y-83745616D01*
X181673681Y-84277116D01*
X181707166Y-84338439D01*
X181710000Y-84364797D01*
X181710000Y-90500921D01*
X181690315Y-90567960D01*
X181637511Y-90613715D01*
X181568353Y-90623659D01*
X181524002Y-90608309D01*
X181461888Y-90572449D01*
X181410081Y-90548290D01*
X181382783Y-90535560D01*
X181382510Y-90535460D01*
X181300785Y-90505713D01*
X181300754Y-90505704D01*
X181216482Y-90483122D01*
X181216470Y-90483119D01*
X181188248Y-90478142D01*
X181130511Y-90467960D01*
X181067712Y-90462465D01*
X181043576Y-90460353D01*
X181043574Y-90460352D01*
X181043564Y-90460352D01*
X181012046Y-90459995D01*
X180999930Y-90459859D01*
X180999925Y-90459859D01*
X179665169Y-90459859D01*
X179598130Y-90440174D01*
X179567233Y-90411915D01*
X176839895Y-86900000D01*
X172998597Y-86900000D01*
X172931558Y-86880315D01*
X172885803Y-86827511D01*
X172875859Y-86758353D01*
X172904884Y-86694797D01*
X172910916Y-86688319D01*
X173141140Y-86458095D01*
X173246100Y-86353135D01*
X173660415Y-86353135D01*
X173660415Y-86353136D01*
X173716946Y-86376552D01*
X173767946Y-86394544D01*
X173910219Y-86414999D01*
X173910221Y-86415000D01*
X174300000Y-86415000D01*
X174800000Y-86415000D01*
X175189786Y-86415000D01*
X175243762Y-86412106D01*
X175243764Y-86412106D01*
X175383023Y-86376563D01*
X175383035Y-86376559D01*
X175439582Y-86353135D01*
X174800000Y-85713552D01*
X174800000Y-86415000D01*
X174300000Y-86415000D01*
X174300000Y-85713553D01*
X174299999Y-85713552D01*
X173660415Y-86353135D01*
X173246100Y-86353135D01*
X173661506Y-85937727D01*
X173661511Y-85937724D01*
X173671714Y-85927520D01*
X173671716Y-85927520D01*
X173783520Y-85815716D01*
X173844266Y-85710500D01*
X173862577Y-85678785D01*
X173903500Y-85526057D01*
X173903500Y-85454309D01*
X173923185Y-85387270D01*
X173939819Y-85366628D01*
X174067037Y-85239409D01*
X174084075Y-85302993D01*
X174149901Y-85417007D01*
X174242993Y-85510099D01*
X174357007Y-85575925D01*
X174484174Y-85610000D01*
X174615826Y-85610000D01*
X174742993Y-85575925D01*
X174857007Y-85510099D01*
X174950099Y-85417007D01*
X175015925Y-85302993D01*
X175032962Y-85239409D01*
X175793135Y-85999582D01*
X175793137Y-85999582D01*
X175816556Y-85943045D01*
X175816558Y-85943039D01*
X175826507Y-85914838D01*
X175867372Y-85858165D01*
X175932390Y-85832583D01*
X176000917Y-85846213D01*
X176045019Y-85884966D01*
X176089954Y-85949141D01*
X176250858Y-86110045D01*
X176333904Y-86168194D01*
X176334800Y-86168821D01*
X176408390Y-86222287D01*
X176418547Y-86227462D01*
X176425648Y-86232434D01*
X176425652Y-86232436D01*
X176437266Y-86240568D01*
X176491266Y-86265749D01*
X176519827Y-86279067D01*
X176590781Y-86315220D01*
X176612467Y-86322266D01*
X176643504Y-86336739D01*
X176643510Y-86336740D01*
X176643513Y-86336742D01*
X176692690Y-86349918D01*
X176717378Y-86356533D01*
X176717386Y-86356535D01*
X176720528Y-86357377D01*
X176785466Y-86378477D01*
X176819233Y-86383825D01*
X176863308Y-86395635D01*
X176927103Y-86401215D01*
X176935690Y-86402269D01*
X176987648Y-86410500D01*
X176987649Y-86410500D01*
X177192350Y-86410500D01*
X177192352Y-86410500D01*
X177244308Y-86402270D01*
X177248582Y-86401592D01*
X177316692Y-86395635D01*
X177360766Y-86383825D01*
X177394534Y-86378477D01*
X177456404Y-86358373D01*
X177462617Y-86356534D01*
X177536490Y-86336741D01*
X177536492Y-86336739D01*
X177536496Y-86336739D01*
X177567532Y-86322266D01*
X177589219Y-86315220D01*
X177660172Y-86279067D01*
X177738295Y-86242638D01*
X177742730Y-86240570D01*
X177742730Y-86240569D01*
X177742734Y-86240568D01*
X177761446Y-86227465D01*
X177771610Y-86222287D01*
X177845199Y-86168821D01*
X177929139Y-86110047D01*
X178090047Y-85949139D01*
X178148821Y-85865199D01*
X178202287Y-85791610D01*
X178207465Y-85781446D01*
X178220568Y-85762734D01*
X178247617Y-85704724D01*
X178293788Y-85652287D01*
X178360981Y-85633134D01*
X178427862Y-85653349D01*
X178472381Y-85704724D01*
X178499433Y-85762736D01*
X178507563Y-85774347D01*
X178516469Y-85789169D01*
X178517714Y-85791612D01*
X178517714Y-85791613D01*
X178570536Y-85864316D01*
X178571793Y-85866078D01*
X178629953Y-85949140D01*
X178790858Y-86110045D01*
X178873904Y-86168194D01*
X178874800Y-86168821D01*
X178948390Y-86222287D01*
X178958547Y-86227462D01*
X178965648Y-86232434D01*
X178965652Y-86232436D01*
X178977266Y-86240568D01*
X179031266Y-86265749D01*
X179059827Y-86279067D01*
X179130781Y-86315220D01*
X179152467Y-86322266D01*
X179183504Y-86336739D01*
X179183510Y-86336740D01*
X179183513Y-86336742D01*
X179232690Y-86349918D01*
X179257378Y-86356533D01*
X179257386Y-86356535D01*
X179260528Y-86357377D01*
X179325466Y-86378477D01*
X179359233Y-86383825D01*
X179403308Y-86395635D01*
X179467103Y-86401215D01*
X179475690Y-86402269D01*
X179527648Y-86410500D01*
X179527649Y-86410500D01*
X179732350Y-86410500D01*
X179732352Y-86410500D01*
X179784308Y-86402270D01*
X179788582Y-86401592D01*
X179856692Y-86395635D01*
X179900766Y-86383825D01*
X179934534Y-86378477D01*
X179996404Y-86358373D01*
X180002617Y-86356534D01*
X180076490Y-86336741D01*
X180076492Y-86336739D01*
X180076496Y-86336739D01*
X180107532Y-86322266D01*
X180129219Y-86315220D01*
X180200172Y-86279067D01*
X180278295Y-86242638D01*
X180282730Y-86240570D01*
X180282730Y-86240569D01*
X180282734Y-86240568D01*
X180301446Y-86227465D01*
X180311610Y-86222287D01*
X180385199Y-86168821D01*
X180469139Y-86110047D01*
X180630047Y-85949139D01*
X180688821Y-85865199D01*
X180742287Y-85791610D01*
X180747465Y-85781446D01*
X180760568Y-85762734D01*
X180799067Y-85680172D01*
X180835220Y-85609219D01*
X180842266Y-85587532D01*
X180856739Y-85556496D01*
X180862484Y-85535057D01*
X180876534Y-85482617D01*
X180877377Y-85479471D01*
X180898477Y-85414534D01*
X180903825Y-85380766D01*
X180915635Y-85336692D01*
X180921215Y-85272892D01*
X180922270Y-85264306D01*
X180930500Y-85212350D01*
X180930500Y-83833297D01*
X180950185Y-83766258D01*
X181002989Y-83720503D01*
X181072147Y-83710559D01*
X181135703Y-83739584D01*
G37*
%TD.AperFunction*%
%TA.AperFunction,Conductor*%
G36*
X148245942Y-70799685D02*
G01*
X148266584Y-70816319D01*
X149905219Y-72454954D01*
X149938704Y-72516277D01*
X149933720Y-72585969D01*
X149920640Y-72611526D01*
X149830309Y-72746714D01*
X149830302Y-72746727D01*
X149769964Y-72892398D01*
X149769961Y-72892410D01*
X149739200Y-73047053D01*
X149739200Y-73204746D01*
X149769961Y-73359389D01*
X149769964Y-73359401D01*
X149830302Y-73505072D01*
X149830309Y-73505085D01*
X149918302Y-73636774D01*
X149939180Y-73703451D01*
X149939200Y-73705665D01*
X149939200Y-82243598D01*
X149919515Y-82310637D01*
X149866711Y-82356392D01*
X149797553Y-82366336D01*
X149756748Y-82352957D01*
X149722199Y-82334490D01*
X149576612Y-82274185D01*
X149481860Y-82245443D01*
X149481849Y-82245440D01*
X149400000Y-82229160D01*
X149400000Y-84676988D01*
X149342993Y-84644075D01*
X149215826Y-84610000D01*
X149084174Y-84610000D01*
X148957007Y-84644075D01*
X148900000Y-84676988D01*
X148900000Y-82229161D01*
X148899999Y-82229160D01*
X148818150Y-82245440D01*
X148818139Y-82245443D01*
X148723387Y-82274185D01*
X148577805Y-82334488D01*
X148546853Y-82351033D01*
X148478450Y-82365274D01*
X148413206Y-82340274D01*
X148371836Y-82283968D01*
X148364400Y-82241674D01*
X148364400Y-76983559D01*
X148364401Y-76983546D01*
X148364401Y-76815445D01*
X148364401Y-76815443D01*
X148323477Y-76662715D01*
X148294539Y-76612595D01*
X148244420Y-76525784D01*
X148132616Y-76413980D01*
X148132615Y-76413979D01*
X148128285Y-76409649D01*
X148128274Y-76409639D01*
X145406859Y-73688224D01*
X145373374Y-73626901D01*
X145378358Y-73557209D01*
X145391440Y-73531650D01*
X145409188Y-73505088D01*
X145409190Y-73505085D01*
X145409194Y-73505079D01*
X145469537Y-73359397D01*
X145500300Y-73204742D01*
X145500300Y-73047058D01*
X145500300Y-73047055D01*
X145500299Y-73047053D01*
X145469537Y-72892403D01*
X145446875Y-72837691D01*
X145443297Y-72829052D01*
X145435828Y-72759582D01*
X145467104Y-72697103D01*
X145527193Y-72661452D01*
X145557858Y-72657600D01*
X145650626Y-72657600D01*
X145650642Y-72657599D01*
X145710170Y-72651198D01*
X145710177Y-72651196D01*
X145844884Y-72600954D01*
X145844891Y-72600950D01*
X145959985Y-72514790D01*
X145959988Y-72514787D01*
X146046148Y-72399693D01*
X146046152Y-72399686D01*
X146096394Y-72264979D01*
X146096396Y-72264972D01*
X146102797Y-72205444D01*
X146102798Y-72205427D01*
X146102798Y-71497200D01*
X145577299Y-71497200D01*
X145568613Y-71494649D01*
X145559653Y-71495938D01*
X145535611Y-71484959D01*
X145510260Y-71477515D01*
X145504333Y-71470675D01*
X145496097Y-71466914D01*
X145481806Y-71444678D01*
X145464505Y-71424711D01*
X145462217Y-71414198D01*
X145458322Y-71408136D01*
X145453299Y-71373201D01*
X145453298Y-71265601D01*
X145472982Y-71198562D01*
X145525785Y-71152806D01*
X145577298Y-71141600D01*
X146102798Y-71141600D01*
X146102798Y-70904000D01*
X146122483Y-70836961D01*
X146175287Y-70791206D01*
X146226798Y-70780000D01*
X148178903Y-70780000D01*
X148245942Y-70799685D01*
G37*
%TD.AperFunction*%
%TA.AperFunction,Conductor*%
G36*
X166751034Y-77173814D02*
G01*
X166806967Y-77215686D01*
X166831384Y-77281150D01*
X166831700Y-77289996D01*
X166831700Y-79806938D01*
X166812015Y-79873977D01*
X166810000Y-79876477D01*
X166810000Y-79999401D01*
X166801353Y-80028845D01*
X166794827Y-80058837D01*
X166791076Y-80063845D01*
X166790315Y-80066440D01*
X166773674Y-80087089D01*
X166767574Y-80093188D01*
X166706248Y-80126668D01*
X166679901Y-80129500D01*
X166560831Y-80129500D01*
X166560812Y-80129501D01*
X166559656Y-80129592D01*
X166559330Y-80129618D01*
X166549607Y-80130000D01*
X165997156Y-80130000D01*
X166037594Y-80269193D01*
X166071419Y-80326388D01*
X166088601Y-80394112D01*
X166080342Y-80434225D01*
X166076638Y-80443802D01*
X166037131Y-80510607D01*
X165995784Y-80652923D01*
X165993854Y-80657916D01*
X165975711Y-80681558D01*
X165959668Y-80706680D01*
X165954667Y-80708980D01*
X165951318Y-80713346D01*
X165923271Y-80723427D01*
X165896195Y-80735886D01*
X165886679Y-80736580D01*
X165885567Y-80736980D01*
X165884515Y-80736738D01*
X165878198Y-80737199D01*
X165871147Y-80737199D01*
X165871131Y-80737200D01*
X165045370Y-80737200D01*
X165045354Y-80737199D01*
X165037758Y-80737199D01*
X164879643Y-80737199D01*
X164803279Y-80757661D01*
X164726914Y-80778123D01*
X164726909Y-80778126D01*
X164589990Y-80857175D01*
X164589982Y-80857181D01*
X162904037Y-82543126D01*
X162842714Y-82576611D01*
X162773022Y-82571627D01*
X162728672Y-82543123D01*
X162717063Y-82531513D01*
X162640536Y-82468708D01*
X162640530Y-82468704D01*
X162509521Y-82381167D01*
X162509501Y-82381155D01*
X162422198Y-82334490D01*
X162276612Y-82274185D01*
X162181860Y-82245443D01*
X162181849Y-82245440D01*
X162100000Y-82229160D01*
X162100000Y-84676988D01*
X162042993Y-84644075D01*
X161915826Y-84610000D01*
X161784174Y-84610000D01*
X161657007Y-84644075D01*
X161600000Y-84676988D01*
X161600000Y-82273696D01*
X161619685Y-82206657D01*
X161636315Y-82186019D01*
X164192333Y-79630000D01*
X165997156Y-79630000D01*
X166560000Y-79630000D01*
X166560000Y-79110068D01*
X166559999Y-79110068D01*
X166524869Y-79112834D01*
X166524868Y-79112834D01*
X166370811Y-79157592D01*
X166370808Y-79157593D01*
X166232714Y-79239261D01*
X166232705Y-79239268D01*
X166119268Y-79352705D01*
X166119261Y-79352714D01*
X166037595Y-79490805D01*
X165997156Y-79630000D01*
X164192333Y-79630000D01*
X166620019Y-77202314D01*
X166681342Y-77168830D01*
X166751034Y-77173814D01*
G37*
%TD.AperFunction*%
%TA.AperFunction,Conductor*%
G36*
X175185337Y-77057423D02*
G01*
X175193042Y-77056020D01*
X175218553Y-77066535D01*
X175245167Y-77073836D01*
X175250400Y-77079661D01*
X175257640Y-77082646D01*
X175273417Y-77105286D01*
X175291857Y-77125815D01*
X175293852Y-77134611D01*
X175297587Y-77139970D01*
X175298084Y-77153261D01*
X175304000Y-77179332D01*
X175304000Y-80048859D01*
X175284315Y-80115898D01*
X175267681Y-80136540D01*
X175246713Y-80157507D01*
X175246710Y-80157511D01*
X175159109Y-80288614D01*
X175159102Y-80288627D01*
X175098764Y-80434298D01*
X175098761Y-80434310D01*
X175068000Y-80588953D01*
X175068000Y-80746646D01*
X175098761Y-80901289D01*
X175098764Y-80901301D01*
X175159102Y-81046972D01*
X175159109Y-81046985D01*
X175246710Y-81178088D01*
X175246713Y-81178092D01*
X175358207Y-81289586D01*
X175358211Y-81289589D01*
X175489314Y-81377190D01*
X175489327Y-81377197D01*
X175593833Y-81420484D01*
X175635003Y-81437537D01*
X175726249Y-81455687D01*
X175789653Y-81468299D01*
X175789656Y-81468300D01*
X175789658Y-81468300D01*
X175947344Y-81468300D01*
X175947345Y-81468299D01*
X176101997Y-81437537D01*
X176247679Y-81377194D01*
X176296609Y-81344499D01*
X176363286Y-81323622D01*
X176430666Y-81342106D01*
X176477356Y-81394084D01*
X176489500Y-81447602D01*
X176489500Y-82278306D01*
X176469815Y-82345345D01*
X176436623Y-82379881D01*
X176250859Y-82509953D01*
X176089954Y-82670858D01*
X175959433Y-82857264D01*
X175935205Y-82909221D01*
X175889032Y-82961660D01*
X175821838Y-82980811D01*
X175754957Y-82960595D01*
X175713465Y-82915268D01*
X175678849Y-82850506D01*
X175678832Y-82850478D01*
X175591295Y-82719469D01*
X175591291Y-82719463D01*
X175528485Y-82642935D01*
X175417064Y-82531514D01*
X175340536Y-82468708D01*
X175340530Y-82468704D01*
X175209521Y-82381167D01*
X175209501Y-82381155D01*
X175122198Y-82334490D01*
X174976612Y-82274185D01*
X174881860Y-82245443D01*
X174881849Y-82245440D01*
X174800000Y-82229160D01*
X174800000Y-84676988D01*
X174742993Y-84644075D01*
X174615826Y-84610000D01*
X174484174Y-84610000D01*
X174357007Y-84644075D01*
X174300000Y-84676988D01*
X174300000Y-82229161D01*
X174299999Y-82229160D01*
X174223690Y-82244339D01*
X174154099Y-82238110D01*
X174098922Y-82195247D01*
X174075678Y-82129357D01*
X174075500Y-82122721D01*
X174075500Y-78135903D01*
X174095185Y-78068864D01*
X174147989Y-78023109D01*
X174175309Y-78014286D01*
X174219563Y-78005483D01*
X174312297Y-77987037D01*
X174457979Y-77926694D01*
X174589089Y-77839089D01*
X174700589Y-77727589D01*
X174788194Y-77596479D01*
X174848537Y-77450797D01*
X174879300Y-77296142D01*
X174879300Y-77268163D01*
X174883680Y-77253243D01*
X174883099Y-77237704D01*
X174893324Y-77220402D01*
X174898985Y-77201124D01*
X174911229Y-77190105D01*
X174918648Y-77177554D01*
X174941606Y-77162771D01*
X174947604Y-77157375D01*
X174951652Y-77155339D01*
X175059679Y-77110594D01*
X175117467Y-77071980D01*
X175124304Y-77068544D01*
X175151452Y-77063597D01*
X175177786Y-77055352D01*
X175185337Y-77057423D01*
G37*
%TD.AperFunction*%
%TA.AperFunction,Conductor*%
G36*
X179619000Y-49550160D02*
G01*
X179644964Y-49647061D01*
X179695124Y-49733940D01*
X179766060Y-49804876D01*
X179852939Y-49855036D01*
X179949840Y-49881000D01*
X179972552Y-49881000D01*
X179301283Y-50552268D01*
X179301283Y-50552269D01*
X179338567Y-50579358D01*
X179515562Y-50669542D01*
X179704477Y-50730924D01*
X179905490Y-50762762D01*
X179905237Y-50764358D01*
X179963911Y-50786714D01*
X180003465Y-50838003D01*
X180046904Y-50942876D01*
X180046909Y-50942885D01*
X180134902Y-51074574D01*
X180155780Y-51141251D01*
X180155800Y-51143465D01*
X180155800Y-74647730D01*
X180155799Y-74647748D01*
X180155799Y-74813454D01*
X180155798Y-74813454D01*
X180196724Y-74966189D01*
X180196725Y-74966190D01*
X180223957Y-75013356D01*
X180223958Y-75013357D01*
X180261472Y-75078333D01*
X180275779Y-75103114D01*
X180275781Y-75103117D01*
X180394649Y-75221985D01*
X180394655Y-75221990D01*
X182356789Y-77184124D01*
X182390274Y-77245447D01*
X182385290Y-77315139D01*
X182372211Y-77340695D01*
X182288608Y-77465816D01*
X182288602Y-77465827D01*
X182228264Y-77611498D01*
X182228261Y-77611510D01*
X182197500Y-77766153D01*
X182197500Y-77923846D01*
X182228281Y-78078593D01*
X182222054Y-78148185D01*
X182179191Y-78203362D01*
X182141263Y-78221859D01*
X182118308Y-78228528D01*
X182118304Y-78228530D01*
X181977491Y-78311806D01*
X181977483Y-78311812D01*
X181911297Y-78377999D01*
X181849974Y-78411484D01*
X181780282Y-78406500D01*
X181735935Y-78377999D01*
X181370490Y-78012555D01*
X181370488Y-78012552D01*
X181251617Y-77893681D01*
X181251616Y-77893680D01*
X181154336Y-77837516D01*
X181154335Y-77837515D01*
X181114683Y-77814622D01*
X181058781Y-77799643D01*
X180961957Y-77773699D01*
X180803843Y-77773699D01*
X180796247Y-77773699D01*
X180796231Y-77773700D01*
X180202469Y-77773700D01*
X180202453Y-77773699D01*
X180194857Y-77773699D01*
X180036743Y-77773699D01*
X179956810Y-77795117D01*
X179884016Y-77814622D01*
X179844362Y-77837517D01*
X179844361Y-77837516D01*
X179747087Y-77893677D01*
X179747082Y-77893681D01*
X179635280Y-78005483D01*
X179635280Y-78005484D01*
X179635278Y-78005486D01*
X179562267Y-78078497D01*
X179497582Y-78143182D01*
X179436259Y-78176666D01*
X179409902Y-78179500D01*
X179290831Y-78179500D01*
X179290807Y-78179501D01*
X179254794Y-78182335D01*
X179100611Y-78227129D01*
X179100606Y-78227131D01*
X178962404Y-78308863D01*
X178962396Y-78308869D01*
X178848869Y-78422396D01*
X178848863Y-78422404D01*
X178767131Y-78560606D01*
X178767129Y-78560611D01*
X178722335Y-78714791D01*
X178722334Y-78714797D01*
X178719500Y-78750811D01*
X178719500Y-79249169D01*
X178719501Y-79249191D01*
X178722335Y-79285205D01*
X178767129Y-79439388D01*
X178767131Y-79439393D01*
X178848863Y-79577595D01*
X178848869Y-79577603D01*
X178962396Y-79691130D01*
X178962400Y-79691133D01*
X178962402Y-79691135D01*
X179100607Y-79772869D01*
X179141268Y-79784682D01*
X179254791Y-79817664D01*
X179254794Y-79817664D01*
X179254796Y-79817665D01*
X179290819Y-79820500D01*
X179689180Y-79820499D01*
X179725204Y-79817665D01*
X179750905Y-79810198D01*
X179820773Y-79810397D01*
X179879444Y-79848338D01*
X179908288Y-79911976D01*
X179909500Y-79929274D01*
X179909500Y-80902438D01*
X179889815Y-80969477D01*
X179888602Y-80971329D01*
X179799409Y-81104814D01*
X179799402Y-81104827D01*
X179739064Y-81250498D01*
X179739061Y-81250510D01*
X179708300Y-81405153D01*
X179708300Y-81562846D01*
X179739061Y-81717489D01*
X179739064Y-81717501D01*
X179799402Y-81863172D01*
X179799409Y-81863185D01*
X179887010Y-81994288D01*
X179887013Y-81994292D01*
X179901150Y-82008429D01*
X179934635Y-82069752D01*
X179929651Y-82139444D01*
X179887779Y-82195377D01*
X179822315Y-82219794D01*
X179802662Y-82219638D01*
X179743142Y-82214430D01*
X179686785Y-82209500D01*
X179686784Y-82209500D01*
X179573216Y-82209500D01*
X179573215Y-82209500D01*
X179403312Y-82224364D01*
X179403302Y-82224366D01*
X179183511Y-82283258D01*
X179183502Y-82283261D01*
X178977267Y-82379431D01*
X178977265Y-82379432D01*
X178790858Y-82509954D01*
X178629954Y-82670858D01*
X178499432Y-82857265D01*
X178499431Y-82857267D01*
X178472382Y-82915275D01*
X178426209Y-82967714D01*
X178359016Y-82986866D01*
X178292135Y-82966650D01*
X178247618Y-82915275D01*
X178220568Y-82857267D01*
X178220567Y-82857265D01*
X178220566Y-82857264D01*
X178090047Y-82670861D01*
X178090045Y-82670858D01*
X177929140Y-82509953D01*
X177743377Y-82379881D01*
X177699752Y-82325304D01*
X177690500Y-82278306D01*
X177690500Y-81127459D01*
X177690501Y-81127446D01*
X177690501Y-80959345D01*
X177690501Y-80959343D01*
X177649577Y-80806615D01*
X177607950Y-80734516D01*
X177570520Y-80669684D01*
X177458716Y-80557880D01*
X177458715Y-80557879D01*
X177454385Y-80553549D01*
X177454374Y-80553539D01*
X177054219Y-80153384D01*
X177020734Y-80092061D01*
X177017900Y-80065703D01*
X177017900Y-50841499D01*
X177037585Y-50774460D01*
X177090389Y-50728705D01*
X177159547Y-50718761D01*
X177180219Y-50723568D01*
X177184827Y-50725065D01*
X177204364Y-50731413D01*
X177400639Y-50762500D01*
X177400640Y-50762500D01*
X177599360Y-50762500D01*
X177599361Y-50762500D01*
X177795636Y-50731413D01*
X177984632Y-50670005D01*
X178161694Y-50579787D01*
X178322464Y-50462981D01*
X178462981Y-50322464D01*
X178579787Y-50161694D01*
X178639796Y-50043919D01*
X178687769Y-49993124D01*
X178755590Y-49976329D01*
X178821725Y-49998866D01*
X178860765Y-50043920D01*
X178920641Y-50161432D01*
X178947730Y-50198715D01*
X178947731Y-50198716D01*
X179619000Y-49527447D01*
X179619000Y-49550160D01*
G37*
%TD.AperFunction*%
%TA.AperFunction,Conductor*%
G36*
X161321445Y-49999417D02*
G01*
X161360484Y-50044469D01*
X161420213Y-50161694D01*
X161537019Y-50322464D01*
X161677536Y-50462981D01*
X161838306Y-50579787D01*
X161882284Y-50602195D01*
X162015367Y-50670005D01*
X162015370Y-50670006D01*
X162100676Y-50697723D01*
X162204364Y-50731413D01*
X162400639Y-50762500D01*
X162400640Y-50762500D01*
X162599360Y-50762500D01*
X162599361Y-50762500D01*
X162795636Y-50731413D01*
X162852816Y-50712833D01*
X162922656Y-50710837D01*
X162982490Y-50746917D01*
X163013319Y-50809617D01*
X163005697Y-50878213D01*
X162989965Y-50916194D01*
X162989961Y-50916210D01*
X162959200Y-51070853D01*
X162959200Y-51228546D01*
X162989961Y-51383189D01*
X162989964Y-51383201D01*
X163050302Y-51528872D01*
X163050309Y-51528885D01*
X163137910Y-51659988D01*
X163137913Y-51659992D01*
X163249407Y-51771486D01*
X163249411Y-51771489D01*
X163380514Y-51859090D01*
X163380527Y-51859097D01*
X163448998Y-51887458D01*
X163526203Y-51919437D01*
X163590847Y-51932295D01*
X163681549Y-51950338D01*
X163743460Y-51982723D01*
X163745039Y-51984274D01*
X170238181Y-58477416D01*
X170271666Y-58538739D01*
X170274500Y-58565097D01*
X170274500Y-64092072D01*
X170254815Y-64159111D01*
X170202011Y-64204866D01*
X170132853Y-64214810D01*
X170069297Y-64185785D01*
X170061493Y-64177504D01*
X170061267Y-64177731D01*
X169943717Y-64060181D01*
X169943712Y-64060177D01*
X169824138Y-63991141D01*
X169775922Y-63940574D01*
X169764521Y-63907945D01*
X169734338Y-63756210D01*
X169734337Y-63756203D01*
X169734335Y-63756198D01*
X169673997Y-63610527D01*
X169673990Y-63610514D01*
X169586389Y-63479411D01*
X169586386Y-63479407D01*
X169474892Y-63367913D01*
X169474888Y-63367910D01*
X169343785Y-63280309D01*
X169343772Y-63280302D01*
X169198101Y-63219964D01*
X169198089Y-63219961D01*
X169043445Y-63189200D01*
X169043442Y-63189200D01*
X168885758Y-63189200D01*
X168885755Y-63189200D01*
X168731110Y-63219961D01*
X168731098Y-63219964D01*
X168585427Y-63280302D01*
X168585414Y-63280309D01*
X168454311Y-63367910D01*
X168454307Y-63367913D01*
X168342813Y-63479407D01*
X168342810Y-63479411D01*
X168255209Y-63610514D01*
X168255202Y-63610527D01*
X168194864Y-63756198D01*
X168194861Y-63756210D01*
X168164100Y-63910853D01*
X168164100Y-64068546D01*
X168194861Y-64223189D01*
X168194864Y-64223201D01*
X168255202Y-64368872D01*
X168255209Y-64368885D01*
X168297514Y-64432198D01*
X168307001Y-64462497D01*
X168318096Y-64492243D01*
X168317366Y-64495598D01*
X168318392Y-64498875D01*
X168309992Y-64529495D01*
X168303244Y-64560516D01*
X168300463Y-64564229D01*
X168299908Y-64566256D01*
X168282093Y-64588770D01*
X168184435Y-64686428D01*
X168131350Y-64717823D01*
X168063608Y-64737504D01*
X168063604Y-64737506D01*
X168042628Y-64749911D01*
X167974903Y-64767092D01*
X167916389Y-64749911D01*
X167896191Y-64737966D01*
X167896190Y-64737965D01*
X167750001Y-64695493D01*
X167750000Y-64695494D01*
X167750000Y-65001645D01*
X167732734Y-65064763D01*
X167727507Y-65073600D01*
X167727504Y-65073608D01*
X167682357Y-65229002D01*
X167682356Y-65229008D01*
X167679500Y-65265302D01*
X167679500Y-65734697D01*
X167682356Y-65770991D01*
X167682357Y-65770997D01*
X167727503Y-65926389D01*
X167727505Y-65926393D01*
X167727506Y-65926395D01*
X167732732Y-65935233D01*
X167750000Y-65998352D01*
X167750000Y-66304503D01*
X167896194Y-66262032D01*
X167916384Y-66250091D01*
X167984108Y-66232906D01*
X168042629Y-66250089D01*
X168063605Y-66262494D01*
X168104587Y-66274400D01*
X168219002Y-66307642D01*
X168219005Y-66307642D01*
X168219007Y-66307643D01*
X168255310Y-66310500D01*
X168255318Y-66310500D01*
X168664682Y-66310500D01*
X168664690Y-66310500D01*
X168700993Y-66307643D01*
X168738107Y-66296860D01*
X168807974Y-66297059D01*
X168866645Y-66335000D01*
X168895489Y-66398637D01*
X168896702Y-66415935D01*
X168896702Y-66566669D01*
X168896703Y-66566676D01*
X168903110Y-66626283D01*
X168953404Y-66761128D01*
X168953408Y-66761135D01*
X169039654Y-66876344D01*
X169039657Y-66876347D01*
X169154866Y-66962593D01*
X169154873Y-66962597D01*
X169199820Y-66979361D01*
X169289719Y-67012891D01*
X169315588Y-67015672D01*
X169380137Y-67042409D01*
X169419985Y-67099801D01*
X169423948Y-67114770D01*
X169455261Y-67272189D01*
X169455264Y-67272201D01*
X169515602Y-67417872D01*
X169515609Y-67417885D01*
X169603210Y-67548988D01*
X169603213Y-67548992D01*
X169714707Y-67660486D01*
X169714711Y-67660489D01*
X169845814Y-67748090D01*
X169845827Y-67748097D01*
X169991498Y-67808435D01*
X169991503Y-67808437D01*
X170079798Y-67826000D01*
X170146153Y-67839199D01*
X170146156Y-67839200D01*
X170146158Y-67839200D01*
X170303844Y-67839200D01*
X170303845Y-67839199D01*
X170458497Y-67808437D01*
X170604179Y-67748094D01*
X170735289Y-67660489D01*
X170846789Y-67548989D01*
X170934394Y-67417879D01*
X170994737Y-67272197D01*
X171025500Y-67117542D01*
X171025500Y-67117541D01*
X171026051Y-67114771D01*
X171036282Y-67095211D01*
X171042099Y-67073914D01*
X171052160Y-67064856D01*
X171058435Y-67052860D01*
X171077619Y-67041935D01*
X171094025Y-67027166D01*
X171113078Y-67021743D01*
X171119151Y-67018286D01*
X171127695Y-67016581D01*
X171131045Y-67016034D01*
X171160285Y-67012891D01*
X171168049Y-67009995D01*
X171180028Y-67008040D01*
X171203120Y-67010913D01*
X171226330Y-67009248D01*
X171234694Y-67011703D01*
X171239712Y-67012888D01*
X171239718Y-67012891D01*
X171299328Y-67019300D01*
X171750673Y-67019299D01*
X171810284Y-67012891D01*
X171817835Y-67011107D01*
X171818378Y-67013408D01*
X171876323Y-67009247D01*
X171884683Y-67011701D01*
X171889713Y-67012889D01*
X171889719Y-67012891D01*
X171949329Y-67019300D01*
X172400674Y-67019299D01*
X172460285Y-67012891D01*
X172467830Y-67011108D01*
X172468373Y-67013407D01*
X172526330Y-67009248D01*
X172534694Y-67011703D01*
X172539712Y-67012888D01*
X172539718Y-67012891D01*
X172599328Y-67019300D01*
X173050673Y-67019299D01*
X173110284Y-67012891D01*
X173117835Y-67011107D01*
X173118378Y-67013408D01*
X173176323Y-67009247D01*
X173184683Y-67011701D01*
X173189713Y-67012889D01*
X173189719Y-67012891D01*
X173249329Y-67019300D01*
X173700674Y-67019299D01*
X173760285Y-67012891D01*
X173767830Y-67011108D01*
X173768373Y-67013407D01*
X173826330Y-67009248D01*
X173834694Y-67011703D01*
X173839712Y-67012888D01*
X173839718Y-67012891D01*
X173899328Y-67019300D01*
X174350673Y-67019299D01*
X174410284Y-67012891D01*
X174417835Y-67011107D01*
X174418378Y-67013408D01*
X174476323Y-67009247D01*
X174484683Y-67011701D01*
X174489713Y-67012889D01*
X174489719Y-67012891D01*
X174549329Y-67019300D01*
X175000674Y-67019299D01*
X175060285Y-67012891D01*
X175067830Y-67011108D01*
X175068276Y-67012998D01*
X175117669Y-67007686D01*
X175130849Y-67009583D01*
X175139717Y-67012891D01*
X175195462Y-67018884D01*
X175197668Y-67019202D01*
X175227503Y-67032833D01*
X175257807Y-67045386D01*
X175259121Y-67047279D01*
X175261219Y-67048238D01*
X175278949Y-67075836D01*
X175297655Y-67102779D01*
X175298126Y-67105688D01*
X175298983Y-67107022D01*
X175298982Y-67110970D01*
X175304000Y-67141937D01*
X175304000Y-69858567D01*
X175284315Y-69925606D01*
X175231511Y-69971361D01*
X175193257Y-69981856D01*
X175139821Y-69987601D01*
X175132271Y-69989386D01*
X175131687Y-69986916D01*
X175074316Y-69991002D01*
X175064269Y-69988051D01*
X175060281Y-69987108D01*
X175000681Y-69980701D01*
X175000672Y-69980700D01*
X175000662Y-69980700D01*
X174549328Y-69980700D01*
X174549322Y-69980701D01*
X174489719Y-69987108D01*
X174482173Y-69988892D01*
X174481632Y-69986603D01*
X174423604Y-69990736D01*
X174415257Y-69988284D01*
X174410280Y-69987108D01*
X174350680Y-69980701D01*
X174350671Y-69980700D01*
X174350661Y-69980700D01*
X173899327Y-69980700D01*
X173899321Y-69980701D01*
X173839713Y-69987109D01*
X173832169Y-69988892D01*
X173831627Y-69986599D01*
X173773625Y-69990741D01*
X173765277Y-69988289D01*
X173760290Y-69987110D01*
X173760282Y-69987109D01*
X173700672Y-69980700D01*
X173700662Y-69980700D01*
X173249328Y-69980700D01*
X173249322Y-69980701D01*
X173189719Y-69987108D01*
X173182173Y-69988892D01*
X173181632Y-69986603D01*
X173123604Y-69990736D01*
X173115257Y-69988284D01*
X173110280Y-69987108D01*
X173050680Y-69980701D01*
X173050671Y-69980700D01*
X173050661Y-69980700D01*
X172599327Y-69980700D01*
X172599321Y-69980701D01*
X172539713Y-69987109D01*
X172532169Y-69988892D01*
X172531627Y-69986599D01*
X172473625Y-69990741D01*
X172465277Y-69988289D01*
X172460290Y-69987110D01*
X172460282Y-69987109D01*
X172400672Y-69980700D01*
X172400662Y-69980700D01*
X171949328Y-69980700D01*
X171949322Y-69980701D01*
X171889711Y-69987109D01*
X171882168Y-69988892D01*
X171881626Y-69986600D01*
X171823620Y-69990738D01*
X171815270Y-69988286D01*
X171810284Y-69987108D01*
X171750684Y-69980701D01*
X171750682Y-69980700D01*
X171750674Y-69980700D01*
X171750666Y-69980700D01*
X171525212Y-69980700D01*
X171513694Y-69977317D01*
X171501745Y-69978459D01*
X171480790Y-69967656D01*
X171458173Y-69961015D01*
X171448760Y-69951144D01*
X171439642Y-69946443D01*
X171417825Y-69918700D01*
X171386022Y-69863616D01*
X171386021Y-69863615D01*
X171382029Y-69856700D01*
X171355520Y-69810784D01*
X171243716Y-69698980D01*
X171243715Y-69698979D01*
X171239385Y-69694649D01*
X171239374Y-69694639D01*
X170438890Y-68894155D01*
X170438888Y-68894152D01*
X170320017Y-68775281D01*
X170320009Y-68775275D01*
X170198880Y-68705342D01*
X170198877Y-68705341D01*
X170183085Y-68696223D01*
X170030357Y-68655299D01*
X169872243Y-68655299D01*
X169864647Y-68655299D01*
X169864631Y-68655300D01*
X169261940Y-68655300D01*
X169221019Y-68666264D01*
X169221019Y-68666265D01*
X169183751Y-68676251D01*
X169109214Y-68696223D01*
X169109209Y-68696226D01*
X168972290Y-68775275D01*
X168972282Y-68775281D01*
X157672681Y-80074882D01*
X157672680Y-80074884D01*
X157623721Y-80159685D01*
X157622561Y-80161694D01*
X157622559Y-80161696D01*
X157593625Y-80211809D01*
X157593624Y-80211810D01*
X157585289Y-80242916D01*
X157552699Y-80364543D01*
X157552699Y-80364545D01*
X157552699Y-80532646D01*
X157552700Y-80532659D01*
X157552700Y-80957924D01*
X157533015Y-81024963D01*
X157480211Y-81070718D01*
X157411053Y-81080662D01*
X157347497Y-81051637D01*
X157324595Y-81025290D01*
X157318459Y-81015807D01*
X157313494Y-81003821D01*
X157225889Y-80872711D01*
X157225809Y-80872631D01*
X157224495Y-80870600D01*
X157214793Y-80837939D01*
X157204620Y-80805447D01*
X157204603Y-80803631D01*
X157204601Y-80803623D01*
X157204603Y-80803614D01*
X157204600Y-80803234D01*
X157204600Y-78586860D01*
X157204601Y-78586847D01*
X157204601Y-78418744D01*
X157187598Y-78355289D01*
X157163677Y-78266016D01*
X157142035Y-78228530D01*
X157084624Y-78129090D01*
X157084618Y-78129082D01*
X156608038Y-77652502D01*
X156574553Y-77591179D01*
X156579537Y-77521487D01*
X156621409Y-77465554D01*
X156639425Y-77454336D01*
X156707552Y-77419624D01*
X156761716Y-77380270D01*
X156761717Y-77380270D01*
X156129409Y-76747962D01*
X156192993Y-76730925D01*
X156307007Y-76665099D01*
X156400099Y-76572007D01*
X156465925Y-76457993D01*
X156482962Y-76394408D01*
X157115270Y-77026717D01*
X157115270Y-77026716D01*
X157154622Y-76972554D01*
X157251095Y-76783217D01*
X157316757Y-76581130D01*
X157316757Y-76581127D01*
X157350000Y-76371246D01*
X157350000Y-76158753D01*
X157316757Y-75948872D01*
X157316757Y-75948869D01*
X157251095Y-75746782D01*
X157154624Y-75557449D01*
X157115270Y-75503282D01*
X157115269Y-75503282D01*
X156482962Y-76135590D01*
X156465925Y-76072007D01*
X156400099Y-75957993D01*
X156307007Y-75864901D01*
X156192993Y-75799075D01*
X156129407Y-75782036D01*
X156799627Y-75111818D01*
X156860950Y-75078333D01*
X156887308Y-75075499D01*
X156897871Y-75075499D01*
X156897872Y-75075499D01*
X156957483Y-75069091D01*
X157092331Y-75018796D01*
X157207546Y-74932546D01*
X157293796Y-74817331D01*
X157344091Y-74682483D01*
X157350500Y-74622873D01*
X157350499Y-72827128D01*
X157344091Y-72767517D01*
X157341131Y-72759582D01*
X157293797Y-72632671D01*
X157293793Y-72632664D01*
X157207547Y-72517455D01*
X157207544Y-72517452D01*
X157092335Y-72431206D01*
X157092328Y-72431202D01*
X156957482Y-72380908D01*
X156957483Y-72380908D01*
X156897883Y-72374501D01*
X156897881Y-72374500D01*
X156897873Y-72374500D01*
X156897865Y-72374500D01*
X155540900Y-72374500D01*
X155473861Y-72354815D01*
X155428106Y-72302011D01*
X155416900Y-72250500D01*
X155416900Y-71753598D01*
X155436585Y-71686559D01*
X155453219Y-71665917D01*
X155491520Y-71627616D01*
X155551252Y-71524157D01*
X155570577Y-71490685D01*
X155611501Y-71337957D01*
X155611501Y-71179843D01*
X155611501Y-71172248D01*
X155611500Y-71172230D01*
X155611500Y-54431945D01*
X155611500Y-54431943D01*
X155570577Y-54279216D01*
X155570577Y-54279215D01*
X155511934Y-54177643D01*
X155491520Y-54142284D01*
X155379716Y-54030480D01*
X155379715Y-54030479D01*
X155375385Y-54026149D01*
X155375374Y-54026139D01*
X152323416Y-50974181D01*
X152289931Y-50912858D01*
X152294915Y-50843166D01*
X152336787Y-50787233D01*
X152402251Y-50762816D01*
X152411097Y-50762500D01*
X152599360Y-50762500D01*
X152599361Y-50762500D01*
X152795636Y-50731413D01*
X152984632Y-50670005D01*
X153161694Y-50579787D01*
X153322464Y-50462981D01*
X153462981Y-50322464D01*
X153579787Y-50161694D01*
X153639515Y-50044470D01*
X153687490Y-49993675D01*
X153755311Y-49976880D01*
X153821445Y-49999417D01*
X153860484Y-50044469D01*
X153920213Y-50161694D01*
X154037019Y-50322464D01*
X154177536Y-50462981D01*
X154338306Y-50579787D01*
X154382284Y-50602195D01*
X154515367Y-50670005D01*
X154515370Y-50670006D01*
X154600676Y-50697723D01*
X154704364Y-50731413D01*
X154900639Y-50762500D01*
X154900640Y-50762500D01*
X155099360Y-50762500D01*
X155099361Y-50762500D01*
X155295636Y-50731413D01*
X155484632Y-50670005D01*
X155661694Y-50579787D01*
X155822464Y-50462981D01*
X155962981Y-50322464D01*
X156079787Y-50161694D01*
X156139515Y-50044470D01*
X156187490Y-49993675D01*
X156255311Y-49976880D01*
X156321445Y-49999417D01*
X156360484Y-50044469D01*
X156420213Y-50161694D01*
X156537019Y-50322464D01*
X156677536Y-50462981D01*
X156838305Y-50579786D01*
X156838309Y-50579789D01*
X156840285Y-50581000D01*
X156840878Y-50581656D01*
X156842248Y-50582651D01*
X156842039Y-50582938D01*
X156887163Y-50632810D01*
X156899500Y-50686730D01*
X156899500Y-69302534D01*
X156879815Y-69369573D01*
X156878602Y-69371425D01*
X156790609Y-69503114D01*
X156790602Y-69503127D01*
X156730264Y-69648798D01*
X156730261Y-69648810D01*
X156699500Y-69803453D01*
X156699500Y-69961146D01*
X156730261Y-70115789D01*
X156730264Y-70115801D01*
X156790602Y-70261472D01*
X156790609Y-70261485D01*
X156878210Y-70392588D01*
X156878213Y-70392592D01*
X156989707Y-70504086D01*
X156989711Y-70504089D01*
X157120814Y-70591690D01*
X157120827Y-70591697D01*
X157266498Y-70652035D01*
X157266503Y-70652037D01*
X157421153Y-70682799D01*
X157421156Y-70682800D01*
X157421158Y-70682800D01*
X157578844Y-70682800D01*
X157578845Y-70682799D01*
X157733497Y-70652037D01*
X157879179Y-70591694D01*
X158010289Y-70504089D01*
X158121789Y-70392589D01*
X158209394Y-70261479D01*
X158269737Y-70115797D01*
X158300500Y-69961142D01*
X158300500Y-69803458D01*
X158300500Y-69803455D01*
X158300499Y-69803453D01*
X158279718Y-69698980D01*
X158269737Y-69648803D01*
X158240824Y-69579000D01*
X158209397Y-69503127D01*
X158209390Y-69503114D01*
X158121398Y-69371425D01*
X158100520Y-69304747D01*
X158100500Y-69302534D01*
X158100500Y-65750000D01*
X166721210Y-65750000D01*
X166722854Y-65770910D01*
X166767968Y-65926195D01*
X166850278Y-66065374D01*
X166850285Y-66065383D01*
X166964616Y-66179714D01*
X166964625Y-66179721D01*
X167103804Y-66262031D01*
X167250000Y-66304504D01*
X167250000Y-65750000D01*
X166721210Y-65750000D01*
X158100500Y-65750000D01*
X158100500Y-65249999D01*
X166721209Y-65249999D01*
X166721210Y-65250000D01*
X167250000Y-65250000D01*
X167250000Y-64695494D01*
X167249998Y-64695493D01*
X167103809Y-64737965D01*
X167103806Y-64737967D01*
X166964625Y-64820278D01*
X166964616Y-64820285D01*
X166850285Y-64934616D01*
X166850278Y-64934625D01*
X166767968Y-65073804D01*
X166767966Y-65073809D01*
X166722855Y-65229081D01*
X166722854Y-65229087D01*
X166721209Y-65249999D01*
X158100500Y-65249999D01*
X158100500Y-50686730D01*
X158120185Y-50619691D01*
X158157866Y-50582808D01*
X158157752Y-50582651D01*
X158158823Y-50581872D01*
X158159715Y-50581000D01*
X158161690Y-50579789D01*
X158161689Y-50579789D01*
X158161694Y-50579787D01*
X158322464Y-50462981D01*
X158462981Y-50322464D01*
X158579787Y-50161694D01*
X158639515Y-50044470D01*
X158687490Y-49993675D01*
X158755311Y-49976880D01*
X158821445Y-49999417D01*
X158860484Y-50044469D01*
X158920213Y-50161694D01*
X159037019Y-50322464D01*
X159177536Y-50462981D01*
X159338306Y-50579787D01*
X159382284Y-50602195D01*
X159515367Y-50670005D01*
X159515370Y-50670006D01*
X159600676Y-50697723D01*
X159704364Y-50731413D01*
X159900639Y-50762500D01*
X159900640Y-50762500D01*
X160099360Y-50762500D01*
X160099361Y-50762500D01*
X160295636Y-50731413D01*
X160484632Y-50670005D01*
X160661694Y-50579787D01*
X160822464Y-50462981D01*
X160962981Y-50322464D01*
X161079787Y-50161694D01*
X161139515Y-50044470D01*
X161187490Y-49993675D01*
X161255311Y-49976880D01*
X161321445Y-49999417D01*
G37*
%TD.AperFunction*%
%TA.AperFunction,Conductor*%
G36*
X182119000Y-44550160D02*
G01*
X182144964Y-44647061D01*
X182195124Y-44733940D01*
X182266060Y-44804876D01*
X182352939Y-44855036D01*
X182449840Y-44881000D01*
X182472552Y-44881000D01*
X181801283Y-45552268D01*
X181801283Y-45552269D01*
X181838567Y-45579358D01*
X182015562Y-45669542D01*
X182204477Y-45730924D01*
X182400679Y-45762000D01*
X182599321Y-45762000D01*
X182795518Y-45730925D01*
X182803975Y-45728177D01*
X182873816Y-45726178D01*
X182933651Y-45762255D01*
X182964483Y-45824954D01*
X182966300Y-45846106D01*
X182966300Y-48153893D01*
X182946615Y-48220932D01*
X182893811Y-48266687D01*
X182824653Y-48276631D01*
X182803986Y-48271825D01*
X182795522Y-48269075D01*
X182599321Y-48238000D01*
X182400679Y-48238000D01*
X182204479Y-48269075D01*
X182204476Y-48269075D01*
X182015562Y-48330457D01*
X181838564Y-48420643D01*
X181801283Y-48447729D01*
X181801282Y-48447730D01*
X182472553Y-49119000D01*
X182449840Y-49119000D01*
X182352939Y-49144964D01*
X182266060Y-49195124D01*
X182195124Y-49266060D01*
X182144964Y-49352939D01*
X182119000Y-49449840D01*
X182119000Y-49472553D01*
X181994820Y-49348373D01*
X181961335Y-49287050D01*
X181959587Y-49270798D01*
X181959562Y-49270802D01*
X181958501Y-49262745D01*
X181958501Y-49262743D01*
X181917577Y-49110016D01*
X181867726Y-49023670D01*
X181838524Y-48973090D01*
X181838518Y-48973082D01*
X180298790Y-47433355D01*
X180298788Y-47433352D01*
X180179917Y-47314481D01*
X180179916Y-47314480D01*
X180093104Y-47264360D01*
X180093104Y-47264359D01*
X180093100Y-47264358D01*
X180042985Y-47235423D01*
X179890257Y-47194499D01*
X179732143Y-47194499D01*
X179724547Y-47194499D01*
X179724531Y-47194500D01*
X176258770Y-47194500D01*
X176258754Y-47194499D01*
X176251158Y-47194499D01*
X176093043Y-47194499D01*
X176016679Y-47214961D01*
X175940314Y-47235423D01*
X175940309Y-47235426D01*
X175803390Y-47314475D01*
X175803382Y-47314481D01*
X174905038Y-48212825D01*
X174843715Y-48246310D01*
X174836756Y-48247617D01*
X174704362Y-48268587D01*
X174515370Y-48329993D01*
X174515367Y-48329994D01*
X174338305Y-48420213D01*
X174177533Y-48537021D01*
X174037021Y-48677533D01*
X173920213Y-48838305D01*
X173860485Y-48955528D01*
X173812510Y-49006324D01*
X173744689Y-49023119D01*
X173678554Y-49000581D01*
X173639515Y-48955528D01*
X173626272Y-48929537D01*
X173579787Y-48838306D01*
X173462981Y-48677536D01*
X173322464Y-48537019D01*
X173161694Y-48420213D01*
X173150554Y-48414537D01*
X172984632Y-48329994D01*
X172984629Y-48329993D01*
X172795637Y-48268587D01*
X172652933Y-48245985D01*
X172599361Y-48237500D01*
X172400639Y-48237500D01*
X172347067Y-48245985D01*
X172204362Y-48268587D01*
X172015370Y-48329993D01*
X172015367Y-48329994D01*
X171838305Y-48420213D01*
X171677533Y-48537021D01*
X171537021Y-48677533D01*
X171420213Y-48838305D01*
X171360485Y-48955528D01*
X171312510Y-49006324D01*
X171244689Y-49023119D01*
X171178554Y-49000581D01*
X171139515Y-48955528D01*
X171126272Y-48929537D01*
X171079787Y-48838306D01*
X170962981Y-48677536D01*
X170822464Y-48537019D01*
X170661694Y-48420213D01*
X170650554Y-48414537D01*
X170484632Y-48329994D01*
X170484629Y-48329993D01*
X170295637Y-48268587D01*
X170152933Y-48245985D01*
X170099361Y-48237500D01*
X169900639Y-48237500D01*
X169847067Y-48245985D01*
X169704362Y-48268587D01*
X169515370Y-48329993D01*
X169515367Y-48329994D01*
X169338305Y-48420213D01*
X169177533Y-48537021D01*
X169037021Y-48677533D01*
X168920213Y-48838305D01*
X168860485Y-48955528D01*
X168812510Y-49006324D01*
X168744689Y-49023119D01*
X168678554Y-49000581D01*
X168639515Y-48955528D01*
X168626272Y-48929537D01*
X168579787Y-48838306D01*
X168462981Y-48677536D01*
X168322464Y-48537019D01*
X168161694Y-48420213D01*
X168161690Y-48420210D01*
X168159715Y-48419000D01*
X168159121Y-48418343D01*
X168157752Y-48417349D01*
X168157960Y-48417061D01*
X168112837Y-48367190D01*
X168100500Y-48313270D01*
X168100500Y-45686730D01*
X168120185Y-45619691D01*
X168157866Y-45582808D01*
X168157752Y-45582651D01*
X168158823Y-45581872D01*
X168159715Y-45581000D01*
X168161690Y-45579789D01*
X168161689Y-45579789D01*
X168161694Y-45579787D01*
X168322464Y-45462981D01*
X168462981Y-45322464D01*
X168579787Y-45161694D01*
X168639515Y-45044470D01*
X168687490Y-44993675D01*
X168755311Y-44976880D01*
X168821445Y-44999417D01*
X168860484Y-45044469D01*
X168920213Y-45161694D01*
X169037019Y-45322464D01*
X169177536Y-45462981D01*
X169338306Y-45579787D01*
X169373492Y-45597715D01*
X169515367Y-45670005D01*
X169515370Y-45670006D01*
X169609866Y-45700709D01*
X169704364Y-45731413D01*
X169900639Y-45762500D01*
X169900640Y-45762500D01*
X170099360Y-45762500D01*
X170099361Y-45762500D01*
X170295636Y-45731413D01*
X170481745Y-45670943D01*
X170484629Y-45670006D01*
X170484632Y-45670005D01*
X170487802Y-45668390D01*
X170661694Y-45579787D01*
X170822464Y-45462981D01*
X170962981Y-45322464D01*
X171079787Y-45161694D01*
X171139515Y-45044470D01*
X171187490Y-44993675D01*
X171255311Y-44976880D01*
X171321445Y-44999417D01*
X171360484Y-45044469D01*
X171420213Y-45161694D01*
X171537019Y-45322464D01*
X171677536Y-45462981D01*
X171838306Y-45579787D01*
X171873492Y-45597715D01*
X172015367Y-45670005D01*
X172015370Y-45670006D01*
X172109866Y-45700709D01*
X172204364Y-45731413D01*
X172400639Y-45762500D01*
X172400640Y-45762500D01*
X172599360Y-45762500D01*
X172599361Y-45762500D01*
X172795636Y-45731413D01*
X172981745Y-45670943D01*
X172984629Y-45670006D01*
X172984632Y-45670005D01*
X172987802Y-45668390D01*
X173161694Y-45579787D01*
X173322464Y-45462981D01*
X173462981Y-45322464D01*
X173579787Y-45161694D01*
X173639515Y-45044470D01*
X173687490Y-44993675D01*
X173755311Y-44976880D01*
X173821445Y-44999417D01*
X173860484Y-45044469D01*
X173920213Y-45161694D01*
X174037019Y-45322464D01*
X174177536Y-45462981D01*
X174338306Y-45579787D01*
X174373492Y-45597715D01*
X174515367Y-45670005D01*
X174515370Y-45670006D01*
X174609866Y-45700709D01*
X174704364Y-45731413D01*
X174900639Y-45762500D01*
X174900640Y-45762500D01*
X175099360Y-45762500D01*
X175099361Y-45762500D01*
X175295636Y-45731413D01*
X175481745Y-45670943D01*
X175484629Y-45670006D01*
X175484632Y-45670005D01*
X175487802Y-45668390D01*
X175661694Y-45579787D01*
X175822464Y-45462981D01*
X175962981Y-45322464D01*
X176079787Y-45161694D01*
X176139515Y-45044470D01*
X176187490Y-44993675D01*
X176255311Y-44976880D01*
X176321445Y-44999417D01*
X176360484Y-45044469D01*
X176420213Y-45161694D01*
X176537019Y-45322464D01*
X176677536Y-45462981D01*
X176838306Y-45579787D01*
X176873492Y-45597715D01*
X177015367Y-45670005D01*
X177015370Y-45670006D01*
X177109866Y-45700709D01*
X177204364Y-45731413D01*
X177400639Y-45762500D01*
X177400640Y-45762500D01*
X177599360Y-45762500D01*
X177599361Y-45762500D01*
X177795636Y-45731413D01*
X177981745Y-45670943D01*
X177984629Y-45670006D01*
X177984632Y-45670005D01*
X177987802Y-45668390D01*
X178161694Y-45579787D01*
X178322464Y-45462981D01*
X178462981Y-45322464D01*
X178579787Y-45161694D01*
X178639796Y-45043919D01*
X178687769Y-44993124D01*
X178755590Y-44976329D01*
X178821725Y-44998866D01*
X178860765Y-45043920D01*
X178920641Y-45161432D01*
X178947730Y-45198715D01*
X179619000Y-44527445D01*
X179619000Y-44550160D01*
X179644964Y-44647061D01*
X179695124Y-44733940D01*
X179766060Y-44804876D01*
X179852939Y-44855036D01*
X179949840Y-44881000D01*
X179972553Y-44881000D01*
X179301283Y-45552268D01*
X179301283Y-45552269D01*
X179338567Y-45579358D01*
X179515562Y-45669542D01*
X179704477Y-45730924D01*
X179900679Y-45762000D01*
X180099321Y-45762000D01*
X180295520Y-45730924D01*
X180295523Y-45730924D01*
X180484437Y-45669542D01*
X180661425Y-45579362D01*
X180698716Y-45552268D01*
X180027448Y-44881000D01*
X180050160Y-44881000D01*
X180147061Y-44855036D01*
X180233940Y-44804876D01*
X180304876Y-44733940D01*
X180355036Y-44647061D01*
X180381000Y-44550160D01*
X180381000Y-44527447D01*
X181052268Y-45198715D01*
X181079364Y-45161422D01*
X181139515Y-45043370D01*
X181187489Y-44992573D01*
X181255310Y-44975778D01*
X181321445Y-44998315D01*
X181360485Y-45043369D01*
X181420641Y-45161432D01*
X181447730Y-45198715D01*
X182119000Y-44527445D01*
X182119000Y-44550160D01*
G37*
%TD.AperFunction*%
%TA.AperFunction,Conductor*%
G36*
X179264729Y-48415185D02*
G01*
X179285371Y-48431819D01*
X179972553Y-49119000D01*
X179949840Y-49119000D01*
X179852939Y-49144964D01*
X179766060Y-49195124D01*
X179695124Y-49266060D01*
X179644964Y-49352939D01*
X179619000Y-49449840D01*
X179619000Y-49472552D01*
X178947730Y-48801282D01*
X178947729Y-48801283D01*
X178920641Y-48838566D01*
X178860764Y-48956080D01*
X178812790Y-49006875D01*
X178744968Y-49023670D01*
X178678834Y-49001132D01*
X178639796Y-48956080D01*
X178579787Y-48838306D01*
X178462981Y-48677536D01*
X178392626Y-48607181D01*
X178359141Y-48545858D01*
X178364125Y-48476166D01*
X178405997Y-48420233D01*
X178471461Y-48395816D01*
X178480307Y-48395500D01*
X179197690Y-48395500D01*
X179264729Y-48415185D01*
G37*
%TD.AperFunction*%
%TA.AperFunction,Conductor*%
G36*
X140758814Y-45611095D02*
G01*
X140799072Y-45668201D01*
X140805700Y-45708200D01*
X140805700Y-48291799D01*
X140786015Y-48358838D01*
X140733211Y-48404593D01*
X140664053Y-48414537D01*
X140625405Y-48402284D01*
X140484437Y-48330457D01*
X140295522Y-48269075D01*
X140099321Y-48238000D01*
X139900679Y-48238000D01*
X139704479Y-48269075D01*
X139704476Y-48269075D01*
X139512818Y-48331349D01*
X139442977Y-48333344D01*
X139383144Y-48297264D01*
X139352316Y-48234563D01*
X139350500Y-48213418D01*
X139350500Y-45839057D01*
X139350500Y-45829059D01*
X139350501Y-45829057D01*
X139350501Y-45786580D01*
X139365836Y-45734357D01*
X139370186Y-45719543D01*
X139370186Y-45719542D01*
X139370187Y-45719541D01*
X139412891Y-45682539D01*
X139422990Y-45673788D01*
X139422991Y-45673787D01*
X139422992Y-45673787D01*
X139472262Y-45666703D01*
X139492148Y-45663844D01*
X139492152Y-45663844D01*
X139512819Y-45668651D01*
X139704477Y-45730924D01*
X139900679Y-45762000D01*
X140099321Y-45762000D01*
X140295520Y-45730924D01*
X140295523Y-45730924D01*
X140484437Y-45669542D01*
X140625405Y-45597715D01*
X140694074Y-45584819D01*
X140758814Y-45611095D01*
G37*
%TD.AperFunction*%
%TD*%
M02*
