M48
; DRILL file KiCad 10.0.1 date 2026-04-17T16:29:22
; FORMAT={-:-/ absolute / inch / decimal}
; #@! TF.CreationDate,2026-04-17T16:29:22-05:00
; #@! TF.GenerationSoftware,Kicad,Pcbnew,10.0.1
; #@! TF.FileFunction,Plated,1,2,PTH
FMAT,2
INCH
; #@! TA.AperFunction,Plated,PTH,ViaDrill
T1C0.0118
; #@! TA.AperFunction,Plated,PTH,ComponentDrill
T2C0.0300
; #@! TA.AperFunction,Plated,PTH,ComponentDrill
T3C0.0394
%
G90
G05
T1
X5.1919Y-2.9831
X5.1919Y-4.2587
X5.209Y-2.7512
X5.209Y-5.1865
X5.3199Y-3.1049
X5.3253Y-5.2049
X5.3952Y-2.5343
X5.3982Y-4.4907
X5.4102Y-2.1017
X5.4164Y-4.3747
X5.4401Y-2.1385
X5.4485Y-2.5446
X5.4549Y-5.2506
X5.4707Y-3.9834
X5.4852Y-3.0835
X5.4911Y-5.2348
X5.492Y-3.9594
X5.5336Y-3.1298
X5.5638Y-2.3897
X5.5714Y-3.2083
X5.6005Y-2.1505
X5.6281Y-2.5749
X5.6333Y-4.3438
X5.6353Y-2.0068
X5.6376Y-3.1883
X5.6637Y-2.0706
X5.6837Y-3.0137
X5.7203Y-3.1992
X5.7314Y-5.204
X5.7579Y-5.2612
X5.7696Y-2.9026
X5.8048Y-5.2081
X5.8323Y-2.2206
X5.833Y-5.2344
X5.8335Y-2.7482
X5.8365Y-3.0166
X5.8644Y-4.9173
X5.8868Y-2.988
X5.9091Y-4.1654
X5.9113Y-3.068
X5.9422Y-5.1671
X5.9784Y-2.9362
X5.9876Y-3.2145
X6.0037Y-4.9545
X6.006Y-3.7568
X6.0082Y-4.5371
X6.0727Y-4.2094
X6.0928Y-3.4534
X6.0954Y-5.2141
X6.1107Y-4.2587
X6.1425Y-2.3711
X6.1542Y-5.2576
X6.1793Y-3.8088
X6.1795Y-5.2022
X6.1831Y-2.9117
X6.2199Y-2.9505
X6.2265Y-4.5048
X6.2382Y-2.8943
X6.3126Y-3.7995
X6.3439Y-2.9561
X6.3452Y-5.256
X6.3733Y-2.4008
X6.3897Y-3.089
X6.3956Y-3.7639
X6.4374Y-4.5091
X6.4374Y-5.2396
X6.4421Y-3.0271
X6.4532Y-3.9482
X6.5707Y-2.4061
X6.596Y-3.478
X6.6029Y-2.853
X6.6437Y-5.26
X6.6616Y-3.447
X6.6864Y-2.5346
X6.7087Y-4.9545
X6.7214Y-2.5068
X6.7235Y-3.2086
X6.7738Y-5.1305
X6.8065Y-3.0777
X6.8172Y-3.7949
X6.8791Y-3.9109
X6.8958Y-2.6352
X6.9163Y-2.5433
X6.952Y-4.852
X6.9645Y-3.2303
X6.9659Y-2.9117
X6.9665Y-3.0612
X6.9698Y-2.1798
X6.997Y-2.2079
X7.0051Y-2.9043
X7.028Y-3.0284
X7.0586Y-2.2442
X7.0692Y-5.2124
X7.0736Y-3.0006
X7.1026Y-2.9031
X7.1122Y-2.0021
X7.1573Y-2.0292
X7.1656Y-3.1445
X7.1927Y-5.1867
X7.1976Y-2.3762
X7.2675Y-2.3987
X7.2696Y-2.7757
X7.2769Y-4.9214
X7.2772Y-4.2565
X7.2801Y-4.8545
X7.3047Y-2.0701
X7.3179Y-3.0691
X7.3284Y-5.2564
X7.3301Y-2.4027
X7.3312Y-4.8129
X7.3416Y-2.9197
X7.373Y-2.7641
X7.3829Y-2.064
X7.3865Y-5.0665
X7.3942Y-4.1428
X7.4329Y-1.8317
X7.4486Y-5.3073
X7.4495Y-5.1955
T2
X5.0197Y-1.752
X5.0197Y-1.9488
X5.1181Y-1.752
X5.1181Y-1.9488
X5.2165Y-1.752
X5.2165Y-1.9488
X5.315Y-1.752
X5.315Y-1.9488
X5.4134Y-1.752
X5.4134Y-1.9488
X5.5118Y-1.752
X5.5118Y-1.9488
X5.6102Y-1.752
X5.6102Y-1.9488
X5.7087Y-1.752
X5.7087Y-1.9488
X5.8071Y-1.752
X5.8071Y-1.9488
X5.9055Y-1.752
X5.9055Y-1.9488
X6.0039Y-1.752
X6.0039Y-1.9488
X6.1024Y-1.752
X6.1024Y-1.9488
X6.2008Y-1.752
X6.2008Y-1.9488
X6.2992Y-1.752
X6.2992Y-1.9488
X6.3976Y-1.752
X6.3976Y-1.9488
X6.4961Y-1.752
X6.4961Y-1.9488
X6.5945Y-1.752
X6.5945Y-1.9488
X6.6929Y-1.752
X6.6929Y-1.9488
X6.7913Y-1.752
X6.7913Y-1.9488
X6.8898Y-1.752
X6.8898Y-1.9488
X6.9882Y-1.752
X6.9882Y-1.9488
X7.0866Y-1.752
X7.0866Y-1.9488
X7.185Y-1.752
X7.185Y-1.9488
X7.2835Y-1.752
X7.2835Y-1.9488
X7.3819Y-1.752
X7.3819Y-1.9488
T3
X5.2976Y-3.3354
X5.2976Y-4.0354
X5.3976Y-3.3354
X5.3976Y-4.0354
X5.4976Y-3.3354
X5.4976Y-4.0354
X5.5976Y-3.3354
X5.5976Y-4.0354
X5.6976Y-3.3354
X5.6976Y-4.0354
X5.7976Y-3.3354
X5.7976Y-4.0354
X5.8976Y-3.3354
X5.8976Y-4.0354
X5.9976Y-3.3354
X5.9976Y-4.0354
X6.0976Y-3.3354
X6.0976Y-4.0354
X6.1614Y-2.6663
X6.1614Y-2.7663
X6.1976Y-3.3354
X6.1976Y-4.0354
X6.2976Y-3.3354
X6.2976Y-4.0354
X6.3583Y-2.5679
X6.3583Y-2.6679
X6.3583Y-2.7679
X6.3976Y-3.3354
X6.3976Y-4.0354
X6.4976Y-3.3354
X6.4976Y-4.0354
X6.5976Y-3.3354
X6.5976Y-4.0354
X6.6976Y-3.3354
X6.6976Y-4.0354
X6.7976Y-3.3354
X6.7976Y-4.0354
X6.8976Y-3.3354
X6.8976Y-4.0354
X6.9976Y-3.3354
X6.9976Y-4.0354
X7.0976Y-3.3354
X7.0976Y-4.0354
X7.1976Y-3.3354
X7.1976Y-4.0354
M30
