%TF.GenerationSoftware,KiCad,Pcbnew,10.0.1*%
%TF.CreationDate,2026-04-17T16:29:22-05:00*%
%TF.ProjectId,n64_gamecat_rp2350b,6e36345f-6761-46d6-9563-61745f727032,rev?*%
%TF.SameCoordinates,Original*%
%TF.FileFunction,Legend,Bot*%
%TF.FilePolarity,Positive*%
%FSLAX46Y46*%
G04 Gerber Fmt 4.6, Leading zero omitted, Abs format (unit mm)*
G04 Created by KiCad (PCBNEW 10.0.1) date 2026-04-17 16:29:22*
%MOMM*%
%LPD*%
G01*
G04 APERTURE LIST*
G04 Aperture macros list*
%AMRoundRect*
0 Rectangle with rounded corners*
0 $1 Rounding radius*
0 $2 $3 $4 $5 $6 $7 $8 $9 X,Y pos of 4 corners*
0 Add a 4 corners polygon primitive as box body*
4,1,4,$2,$3,$4,$5,$6,$7,$8,$9,$2,$3,0*
0 Add four circle primitives for the rounded corners*
1,1,$1+$1,$2,$3*
1,1,$1+$1,$4,$5*
1,1,$1+$1,$6,$7*
1,1,$1+$1,$8,$9*
0 Add four rect primitives between the rounded corners*
20,1,$1+$1,$2,$3,$4,$5,0*
20,1,$1+$1,$4,$5,$6,$7,0*
20,1,$1+$1,$6,$7,$8,$9,0*
20,1,$1+$1,$8,$9,$2,$3,0*%
%AMFreePoly0*
4,1,37,0.603843,0.796157,0.639018,0.796157,0.711114,0.766294,0.766294,0.711114,0.796157,0.639018,0.796157,0.603843,0.800000,0.600000,0.800000,-0.600000,0.796157,-0.603843,0.796157,-0.639018,0.766294,-0.711114,0.711114,-0.766294,0.639018,-0.796157,0.603843,-0.796157,0.600000,-0.800000,0.000000,-0.800000,0.000000,-0.796148,-0.078414,-0.796148,-0.232228,-0.765552,-0.377117,-0.705537,
-0.507515,-0.618408,-0.618408,-0.507515,-0.705537,-0.377117,-0.765552,-0.232228,-0.796148,-0.078414,-0.796148,0.078414,-0.765552,0.232228,-0.705537,0.377117,-0.618408,0.507515,-0.507515,0.618408,-0.377117,0.705537,-0.232228,0.765552,-0.078414,0.796148,0.000000,0.796148,0.000000,0.800000,0.600000,0.800000,0.603843,0.796157,0.603843,0.796157,$1*%
%AMFreePoly1*
4,1,37,0.000000,0.796148,0.078414,0.796148,0.232228,0.765552,0.377117,0.705537,0.507515,0.618408,0.618408,0.507515,0.705537,0.377117,0.765552,0.232228,0.796148,0.078414,0.796148,-0.078414,0.765552,-0.232228,0.705537,-0.377117,0.618408,-0.507515,0.507515,-0.618408,0.377117,-0.705537,0.232228,-0.765552,0.078414,-0.796148,0.000000,-0.796148,0.000000,-0.800000,-0.600000,-0.800000,
-0.603843,-0.796157,-0.639018,-0.796157,-0.711114,-0.766294,-0.766294,-0.711114,-0.796157,-0.639018,-0.796157,-0.603843,-0.800000,-0.600000,-0.800000,0.600000,-0.796157,0.603843,-0.796157,0.639018,-0.766294,0.711114,-0.711114,0.766294,-0.639018,0.796157,-0.603843,0.796157,-0.600000,0.800000,0.000000,0.800000,0.000000,0.796148,0.000000,0.796148,$1*%
G04 Aperture macros list end*
%ADD10C,0.120000*%
%ADD11C,1.524000*%
%ADD12R,1.700000X1.700000*%
%ADD13C,1.700000*%
%ADD14C,2.200000*%
%ADD15C,1.850000*%
%ADD16RoundRect,0.200000X0.600000X-0.600000X0.600000X0.600000X-0.600000X0.600000X-0.600000X-0.600000X0*%
%ADD17C,1.600000*%
%ADD18FreePoly0,90.000000*%
%ADD19FreePoly1,90.000000*%
%ADD20R,1.800000X5.000000*%
G04 APERTURE END LIST*
%TO.C,U2*%
D10*
X125000000Y-114000000D02*
X190000000Y-114000000D01*
X125000000Y-139000000D02*
X125000000Y-114000000D01*
X190000000Y-114000000D02*
X190000000Y-139000000D01*
X190000000Y-139000000D02*
X125000000Y-139000000D01*
%TD*%
%LPC*%
D11*
%TO.C,U1*%
X127500000Y-49500000D03*
X130000000Y-49500000D03*
X132500000Y-49500000D03*
X135000000Y-49500000D03*
X137500000Y-49500000D03*
X140000000Y-49500000D03*
X142500000Y-49500000D03*
X145000000Y-49500000D03*
X147500000Y-49500000D03*
X150000000Y-49500000D03*
X152500000Y-49500000D03*
X155000000Y-49500000D03*
X157500000Y-49500000D03*
X160000000Y-49500000D03*
X162500000Y-49500000D03*
X165000000Y-49500000D03*
X167500000Y-49500000D03*
X170000000Y-49500000D03*
X172500000Y-49500000D03*
X175000000Y-49500000D03*
X177500000Y-49500000D03*
X180000000Y-49500000D03*
X182500000Y-49500000D03*
X185000000Y-49500000D03*
X187500000Y-49500000D03*
X127500000Y-44500000D03*
X130000000Y-44500000D03*
X132500000Y-44500000D03*
X135000000Y-44500000D03*
X137500000Y-44500000D03*
X140000000Y-44500000D03*
X142500000Y-44500000D03*
X145000000Y-44500000D03*
X147500000Y-44500000D03*
X150000000Y-44500000D03*
X152500000Y-44500000D03*
X155000000Y-44500000D03*
X157500000Y-44500000D03*
X160000000Y-44500000D03*
X162500000Y-44500000D03*
X165000000Y-44500000D03*
X167500000Y-44500000D03*
X170000000Y-44500000D03*
X172500000Y-44500000D03*
X175000000Y-44500000D03*
X177500000Y-44500000D03*
X180000000Y-44500000D03*
X182500000Y-44500000D03*
X185000000Y-44500000D03*
X187500000Y-44500000D03*
%TD*%
D12*
%TO.C,SW1*%
X161500000Y-65225000D03*
D13*
X161500000Y-67765000D03*
X161500000Y-70305000D03*
%TD*%
D12*
%TO.C,J4*%
X156500000Y-67725000D03*
D13*
X156500000Y-70265000D03*
%TD*%
D14*
%TO.C,A1*%
X134690000Y-96335000D03*
D15*
X137720000Y-96035000D03*
X137720000Y-91185000D03*
D14*
X134690000Y-90885000D03*
D16*
X134560000Y-102500000D03*
D17*
X137100000Y-102500000D03*
D18*
X139640000Y-102500000D03*
D17*
X142180000Y-102500000D03*
X144720000Y-102500000D03*
X147260000Y-102500000D03*
X149800000Y-102500000D03*
D18*
X152340000Y-102500000D03*
D17*
X154880000Y-102500000D03*
X157420000Y-102500000D03*
X159960000Y-102500000D03*
X162500000Y-102500000D03*
D18*
X165040000Y-102500000D03*
D17*
X167580000Y-102500000D03*
X170120000Y-102500000D03*
X172660000Y-102500000D03*
X175200000Y-102500000D03*
D18*
X177740000Y-102500000D03*
D17*
X180280000Y-102500000D03*
X182820000Y-102500000D03*
X182820000Y-84720000D03*
X180280000Y-84720000D03*
D19*
X177740000Y-84720000D03*
D17*
X175200000Y-84720000D03*
X172660000Y-84720000D03*
X170120000Y-84720000D03*
X167580000Y-84720000D03*
D19*
X165040000Y-84720000D03*
D17*
X162500000Y-84720000D03*
X159960000Y-84720000D03*
X157420000Y-84720000D03*
X154880000Y-84720000D03*
D19*
X152340000Y-84720000D03*
D17*
X149800000Y-84720000D03*
X147260000Y-84720000D03*
X144720000Y-84720000D03*
X142180000Y-84720000D03*
D19*
X139640000Y-84720000D03*
D17*
X137100000Y-84720000D03*
X134560000Y-84720000D03*
%TD*%
D20*
%TO.C,U2*%
X127500000Y-136500000D03*
X130000000Y-136500000D03*
X132500000Y-136500000D03*
X135000000Y-136500000D03*
X137500000Y-136500000D03*
X140000000Y-136500000D03*
X142500000Y-136500000D03*
X145000000Y-136500000D03*
X147500000Y-136500000D03*
X150000000Y-136500000D03*
X152500000Y-136500000D03*
X155000000Y-136500000D03*
X157500000Y-136500000D03*
X160000000Y-136500000D03*
X162500000Y-136500000D03*
X165000000Y-136500000D03*
X167500000Y-136500000D03*
X170000000Y-136500000D03*
X172500000Y-136500000D03*
X175000000Y-136500000D03*
X177500000Y-136500000D03*
X180000000Y-136500000D03*
X182500000Y-136500000D03*
X185000000Y-136500000D03*
X187500000Y-136500000D03*
%TD*%
%LPD*%
M02*
