%TF.GenerationSoftware,KiCad,Pcbnew,10.0.1*%
%TF.CreationDate,2026-07-20T20:00:58-05:00*%
%TF.ProjectId,n64_gamecat_rp2350b,6e36345f-6761-46d6-9563-61745f727032,rev?*%
%TF.SameCoordinates,Original*%
%TF.FileFunction,Paste,Top*%
%TF.FilePolarity,Positive*%
%FSLAX46Y46*%
G04 Gerber Fmt 4.6, Leading zero omitted, Abs format (unit mm)*
G04 Created by KiCad (PCBNEW 10.0.1) date 2026-07-20 20:00:58*
%MOMM*%
%LPD*%
G01*
G04 APERTURE LIST*
G04 Aperture macros list*
%AMRoundRect*
0 Rectangle with rounded corners*
0 $1 Rounding radius*
0 $2 $3 $4 $5 $6 $7 $8 $9 X,Y pos of 4 corners*
0 Add a 4 corners polygon primitive as box body*
4,1,4,$2,$3,$4,$5,$6,$7,$8,$9,$2,$3,0*
0 Add four circle primitives for the rounded corners*
1,1,$1+$1,$2,$3*
1,1,$1+$1,$4,$5*
1,1,$1+$1,$6,$7*
1,1,$1+$1,$8,$9*
0 Add four rect primitives between the rounded corners*
20,1,$1+$1,$2,$3,$4,$5,0*
20,1,$1+$1,$4,$5,$6,$7,0*
20,1,$1+$1,$6,$7,$8,$9,0*
20,1,$1+$1,$8,$9,$2,$3,0*%
G04 Aperture macros list end*
%ADD10R,0.355600X1.676400*%
%ADD11RoundRect,0.140000X-0.140000X-0.170000X0.140000X-0.170000X0.140000X0.170000X-0.140000X0.170000X0*%
%ADD12RoundRect,0.135000X-0.185000X0.135000X-0.185000X-0.135000X0.185000X-0.135000X0.185000X0.135000X0*%
%ADD13RoundRect,0.140000X0.140000X0.170000X-0.140000X0.170000X-0.140000X-0.170000X0.140000X-0.170000X0*%
%ADD14RoundRect,0.135000X0.135000X0.185000X-0.135000X0.185000X-0.135000X-0.185000X0.135000X-0.185000X0*%
%ADD15RoundRect,0.135000X-0.135000X-0.185000X0.135000X-0.185000X0.135000X0.185000X-0.135000X0.185000X0*%
%ADD16RoundRect,0.147500X-0.147500X-0.172500X0.147500X-0.172500X0.147500X0.172500X-0.147500X0.172500X0*%
%ADD17R,1.800000X5.000000*%
%ADD18RoundRect,0.250000X-0.475000X0.250000X-0.475000X-0.250000X0.475000X-0.250000X0.475000X0.250000X0*%
G04 APERTURE END LIST*
D10*
%TO.C,U6*%
X169575002Y-65680600D03*
X170225001Y-65680600D03*
X170875002Y-65680600D03*
X171525001Y-65680600D03*
X172175002Y-65680600D03*
X172825001Y-65680600D03*
X173475002Y-65680600D03*
X174125001Y-65680600D03*
X174775002Y-65680600D03*
X175425000Y-65680600D03*
X175424998Y-71319400D03*
X174774999Y-71319400D03*
X174124998Y-71319400D03*
X173474999Y-71319400D03*
X172824998Y-71319400D03*
X172174999Y-71319400D03*
X171525001Y-71319400D03*
X170874999Y-71319400D03*
X170225001Y-71319400D03*
X169575000Y-71319400D03*
%TD*%
D11*
%TO.C,C3*%
X168460000Y-65500000D03*
X167500000Y-65500000D03*
%TD*%
%TO.C,C2*%
X137520000Y-65500000D03*
X138480000Y-65500000D03*
%TD*%
D10*
%TO.C,U5*%
X139575002Y-65680600D03*
X140225001Y-65680600D03*
X140875002Y-65680600D03*
X141525001Y-65680600D03*
X142175002Y-65680600D03*
X142825001Y-65680600D03*
X143475002Y-65680600D03*
X144125001Y-65680600D03*
X144775002Y-65680600D03*
X145425000Y-65680600D03*
X145424998Y-71319400D03*
X144774999Y-71319400D03*
X144124998Y-71319400D03*
X143474999Y-71319400D03*
X142824998Y-71319400D03*
X142174999Y-71319400D03*
X141525001Y-71319400D03*
X140874999Y-71319400D03*
X140225001Y-71319400D03*
X139575000Y-71319400D03*
%TD*%
D12*
%TO.C,R4*%
X144310000Y-113400000D03*
X144310000Y-112380000D03*
%TD*%
%TO.C,R1*%
X166810000Y-80900000D03*
X166810000Y-79880000D03*
%TD*%
D11*
%TO.C,C4*%
X140270000Y-80390000D03*
X139310000Y-80390000D03*
%TD*%
D13*
%TO.C,C5*%
X134830000Y-80890000D03*
X135790000Y-80890000D03*
%TD*%
D14*
%TO.C,R2*%
X141810000Y-80390000D03*
X142830000Y-80390000D03*
%TD*%
D15*
%TO.C,R5*%
X180510000Y-79000000D03*
X179490000Y-79000000D03*
%TD*%
D12*
%TO.C,R3*%
X148800000Y-113400000D03*
X148800000Y-112380000D03*
%TD*%
D16*
%TO.C,D1*%
X183495000Y-79000000D03*
X182525000Y-79000000D03*
%TD*%
D17*
%TO.C,U2*%
X187500000Y-136500000D03*
X185000000Y-136500000D03*
X182500000Y-136500000D03*
X180000000Y-136500000D03*
X177500000Y-136500000D03*
X175000000Y-136500000D03*
X172500000Y-136500000D03*
X170000000Y-136500000D03*
X167500000Y-136500000D03*
X165000000Y-136500000D03*
X162500000Y-136500000D03*
X160000000Y-136500000D03*
X157500000Y-136500000D03*
X155000000Y-136500000D03*
X152500000Y-136500000D03*
X150000000Y-136500000D03*
X147500000Y-136500000D03*
X145000000Y-136500000D03*
X142500000Y-136500000D03*
X140000000Y-136500000D03*
X137500000Y-136500000D03*
X135000000Y-136500000D03*
X132500000Y-136500000D03*
X130000000Y-136500000D03*
X127500000Y-136500000D03*
%TD*%
D18*
%TO.C,C1*%
X146310000Y-117840000D03*
X146310000Y-115940000D03*
%TD*%
M02*
