%TF.GenerationSoftware,KiCad,Pcbnew,10.0.1*%
%TF.CreationDate,2026-07-20T20:00:58-05:00*%
%TF.ProjectId,n64_gamecat_rp2350b,6e36345f-6761-46d6-9563-61745f727032,rev?*%
%TF.SameCoordinates,Original*%
%TF.FileFunction,Copper,L2,Bot*%
%TF.FilePolarity,Positive*%
%FSLAX46Y46*%
G04 Gerber Fmt 4.6, Leading zero omitted, Abs format (unit mm)*
G04 Created by KiCad (PCBNEW 10.0.1) date 2026-07-20 20:00:58*
%MOMM*%
%LPD*%
G01*
G04 APERTURE LIST*
G04 Aperture macros list*
%AMRoundRect*
0 Rectangle with rounded corners*
0 $1 Rounding radius*
0 $2 $3 $4 $5 $6 $7 $8 $9 X,Y pos of 4 corners*
0 Add a 4 corners polygon primitive as box body*
4,1,4,$2,$3,$4,$5,$6,$7,$8,$9,$2,$3,0*
0 Add four circle primitives for the rounded corners*
1,1,$1+$1,$2,$3*
1,1,$1+$1,$4,$5*
1,1,$1+$1,$6,$7*
1,1,$1+$1,$8,$9*
0 Add four rect primitives between the rounded corners*
20,1,$1+$1,$2,$3,$4,$5,0*
20,1,$1+$1,$4,$5,$6,$7,0*
20,1,$1+$1,$6,$7,$8,$9,0*
20,1,$1+$1,$8,$9,$2,$3,0*%
%AMFreePoly0*
4,1,37,0.603843,0.796157,0.639018,0.796157,0.711114,0.766294,0.766294,0.711114,0.796157,0.639018,0.796157,0.603843,0.800000,0.600000,0.800000,-0.600000,0.796157,-0.603843,0.796157,-0.639018,0.766294,-0.711114,0.711114,-0.766294,0.639018,-0.796157,0.603843,-0.796157,0.600000,-0.800000,0.000000,-0.800000,0.000000,-0.796148,-0.078414,-0.796148,-0.232228,-0.765552,-0.377117,-0.705537,
-0.507515,-0.618408,-0.618408,-0.507515,-0.705537,-0.377117,-0.765552,-0.232228,-0.796148,-0.078414,-0.796148,0.078414,-0.765552,0.232228,-0.705537,0.377117,-0.618408,0.507515,-0.507515,0.618408,-0.377117,0.705537,-0.232228,0.765552,-0.078414,0.796148,0.000000,0.796148,0.000000,0.800000,0.600000,0.800000,0.603843,0.796157,0.603843,0.796157,$1*%
%AMFreePoly1*
4,1,37,0.000000,0.796148,0.078414,0.796148,0.232228,0.765552,0.377117,0.705537,0.507515,0.618408,0.618408,0.507515,0.705537,0.377117,0.765552,0.232228,0.796148,0.078414,0.796148,-0.078414,0.765552,-0.232228,0.705537,-0.377117,0.618408,-0.507515,0.507515,-0.618408,0.377117,-0.705537,0.232228,-0.765552,0.078414,-0.796148,0.000000,-0.796148,0.000000,-0.800000,-0.600000,-0.800000,
-0.603843,-0.796157,-0.639018,-0.796157,-0.711114,-0.766294,-0.766294,-0.711114,-0.796157,-0.639018,-0.796157,-0.603843,-0.800000,-0.600000,-0.800000,0.600000,-0.796157,0.603843,-0.796157,0.639018,-0.766294,0.711114,-0.711114,0.766294,-0.639018,0.796157,-0.603843,0.796157,-0.600000,0.800000,0.000000,0.800000,0.000000,0.796148,0.000000,0.796148,$1*%
G04 Aperture macros list end*
%TA.AperFunction,ComponentPad*%
%ADD10RoundRect,0.200000X0.600000X-0.600000X0.600000X0.600000X-0.600000X0.600000X-0.600000X-0.600000X0*%
%TD*%
%TA.AperFunction,ComponentPad*%
%ADD11C,1.600000*%
%TD*%
%TA.AperFunction,ComponentPad*%
%ADD12FreePoly0,90.000000*%
%TD*%
%TA.AperFunction,ComponentPad*%
%ADD13FreePoly1,90.000000*%
%TD*%
%TA.AperFunction,ComponentPad*%
%ADD14C,1.524000*%
%TD*%
%TA.AperFunction,ComponentPad*%
%ADD15C,1.700000*%
%TD*%
%TA.AperFunction,ComponentPad*%
%ADD16R,1.700000X1.700000*%
%TD*%
%TA.AperFunction,SMDPad,CuDef*%
%ADD17R,1.800000X5.000000*%
%TD*%
%TA.AperFunction,ViaPad*%
%ADD18C,0.600000*%
%TD*%
%TA.AperFunction,Conductor*%
%ADD19C,0.200000*%
%TD*%
G04 APERTURE END LIST*
D10*
%TO.P,A1,1,GPIO0_1*%
%TO.N,AD0*%
X131370000Y-102890000D03*
D11*
%TO.P,A1,2,GPIO1_2*%
%TO.N,AD1*%
X133910000Y-102890000D03*
D12*
%TO.P,A1,3,GND_3*%
%TO.N,GND*%
X136450000Y-102890000D03*
D11*
%TO.P,A1,4,GPIO2_4*%
%TO.N,AD2*%
X138990000Y-102890000D03*
%TO.P,A1,5,GPIO3_5*%
%TO.N,AD3*%
X141530000Y-102890000D03*
%TO.P,A1,6,GPIO4_6*%
%TO.N,AD4*%
X144070000Y-102890000D03*
%TO.P,A1,7,GPIO5_7*%
%TO.N,AD5*%
X146610000Y-102890000D03*
D12*
%TO.P,A1,8,GND_8*%
%TO.N,GND*%
X149150000Y-102890000D03*
D11*
%TO.P,A1,9,GPIO6_9*%
%TO.N,AD6*%
X151690000Y-102890000D03*
%TO.P,A1,10,GPIO7_10*%
%TO.N,AD7*%
X154230000Y-102890000D03*
%TO.P,A1,11,GPIO8_11*%
%TO.N,AD8*%
X156770000Y-102890000D03*
%TO.P,A1,12,GPIO9_12*%
%TO.N,AD9*%
X159310000Y-102890000D03*
D12*
%TO.P,A1,13,GND_13*%
%TO.N,GND*%
X161850000Y-102890000D03*
D11*
%TO.P,A1,14,GPIO10_14*%
%TO.N,AD10*%
X164390000Y-102890000D03*
%TO.P,A1,15,GPIO11_15*%
%TO.N,AD11*%
X166930000Y-102890000D03*
%TO.P,A1,16,GPIO12_16*%
%TO.N,AD12*%
X169470000Y-102890000D03*
%TO.P,A1,17,GPIO13_17*%
%TO.N,AD13*%
X172010000Y-102890000D03*
D12*
%TO.P,A1,18,GND_18*%
%TO.N,GND*%
X174550000Y-102890000D03*
D11*
%TO.P,A1,19,GPIO14_19*%
%TO.N,AD14*%
X177090000Y-102890000D03*
%TO.P,A1,20,GPIO15_20*%
%TO.N,AD15*%
X179630000Y-102890000D03*
%TO.P,A1,21,GPIO16_21*%
%TO.N,ALE_L*%
X179630000Y-85110000D03*
%TO.P,A1,22,GPIO17_22*%
%TO.N,ALE_H*%
X177090000Y-85110000D03*
D13*
%TO.P,A1,23,GND_23*%
%TO.N,GND*%
X174550000Y-85110000D03*
D11*
%TO.P,A1,24,GPIO18_24*%
%TO.N,READ*%
X172010000Y-85110000D03*
%TO.P,A1,25,GPIO19_25*%
%TO.N,WRITE*%
X169470000Y-85110000D03*
%TO.P,A1,26,GPIO20_26*%
%TO.N,CART_EN*%
X166930000Y-85110000D03*
%TO.P,A1,27,GPIO21_27*%
%TO.N,KILL*%
X164390000Y-85110000D03*
D13*
%TO.P,A1,28,GND_28*%
%TO.N,GND*%
X161850000Y-85110000D03*
D11*
%TO.P,A1,29,GPIO22_29*%
%TO.N,STATUS_LED*%
X159310000Y-85110000D03*
%TO.P,A1,30,RUN_30*%
%TO.N,unconnected-(A1-RUN-Pad30)*%
X156770000Y-85110000D03*
%TO.P,A1,31,GPIO26_ADC0_31*%
%TO.N,unconnected-(A1-GPIO26_ADC0-Pad31)*%
X154230000Y-85110000D03*
%TO.P,A1,32,GPIO27_ADC1_32*%
%TO.N,unconnected-(A1-GPIO27_ADC1-Pad32)*%
X151690000Y-85110000D03*
D13*
%TO.P,A1,33,AGND_33*%
%TO.N,GND*%
X149150000Y-85110000D03*
D11*
%TO.P,A1,34,GPIO28_ADC2_34*%
%TO.N,unconnected-(A1-GPIO28_ADC2-Pad34)*%
X146610000Y-85110000D03*
%TO.P,A1,35,ADC_VREF_35*%
%TO.N,unconnected-(A1-ADC_VREF-Pad35)*%
X144070000Y-85110000D03*
%TO.P,A1,36,3V3_36*%
%TO.N,3V3_OUT*%
X141530000Y-85110000D03*
%TO.P,A1,37,3V3_EN_37*%
%TO.N,unconnected-(A1-3V3_EN-Pad37)*%
X138990000Y-85110000D03*
D13*
%TO.P,A1,38,GND_38*%
%TO.N,GND*%
X136450000Y-85110000D03*
D11*
%TO.P,A1,39,VSYS_39*%
%TO.N,VSYS*%
X133910000Y-85110000D03*
%TO.P,A1,40,VBUS_40*%
%TO.N,unconnected-(A1-VBUS-Pad40)*%
X131370000Y-85110000D03*
%TD*%
D14*
%TO.P,U1,50,GND_50*%
%TO.N,GND*%
X187500000Y-44500000D03*
%TO.P,U1,49,R_AUDIO_49*%
%TO.N,R_AUDIO*%
X185000000Y-44500000D03*
%TO.P,U1,48,GND_48*%
%TO.N,GND*%
X182500000Y-44500000D03*
%TO.P,U1,47,GND_47*%
X180000000Y-44500000D03*
%TO.P,U1,46,VIDEO_CLK_46*%
%TO.N,VIDEO_CLK*%
X177500000Y-44500000D03*
%TO.P,U1,45,NMI_R4300_45*%
%TO.N,NMI_R4300*%
X175000000Y-44500000D03*
%TO.P,U1,44,JTAG_CLK_44*%
%TO.N,JTAG_CLK*%
X172500000Y-44500000D03*
%TO.P,U1,43,PIF_CIC_43*%
%TO.N,PIF_CIC*%
X170000000Y-44500000D03*
%TO.P,U1,42,VCC_42*%
%TO.N,3V3_CART*%
X167500000Y-44500000D03*
%TO.P,U1,41,AD7_41*%
%TO.N,CA_AD7*%
X165000000Y-44500000D03*
%TO.P,U1,40,AD6_40*%
%TO.N,CA_AD6*%
X162500000Y-44500000D03*
%TO.P,U1,39,NC_39*%
%TO.N,NC*%
X160000000Y-44500000D03*
%TO.P,U1,38,NC_38*%
X157500000Y-44500000D03*
%TO.P,U1,37,AD5_37*%
%TO.N,CA_AD5*%
X155000000Y-44500000D03*
%TO.P,U1,36,AD4_36*%
%TO.N,CA_AD4*%
X152500000Y-44500000D03*
%TO.P,U1,35,ALE_H_35*%
%TO.N,ALE_H*%
X150000000Y-44500000D03*
%TO.P,U1,34,VCC_34*%
%TO.N,3V3_CART*%
X147500000Y-44500000D03*
%TO.P,U1,33,ALE_L_33*%
%TO.N,ALE_L*%
X145000000Y-44500000D03*
%TO.P,U1,32,AD3_32*%
%TO.N,CA_AD3*%
X142500000Y-44500000D03*
%TO.P,U1,31,GND_31*%
%TO.N,GND*%
X140000000Y-44500000D03*
%TO.P,U1,30,AD2_30*%
%TO.N,CA_AD2*%
X137500000Y-44500000D03*
%TO.P,U1,29,AD1_29*%
%TO.N,CA_AD1*%
X135000000Y-44500000D03*
%TO.P,U1,28,AD0_28*%
%TO.N,CA_AD0*%
X132500000Y-44500000D03*
%TO.P,U1,27,GND_27*%
%TO.N,GND*%
X130000000Y-44500000D03*
%TO.P,U1,26,GND_26*%
X127500000Y-44500000D03*
%TO.P,U1,25,GND_25*%
X187500000Y-49500000D03*
%TO.P,U1,24,LAUDIO_24*%
%TO.N,LAUDIO*%
X185000000Y-49500000D03*
%TO.P,U1,23,GND_23*%
%TO.N,GND*%
X182500000Y-49500000D03*
%TO.P,U1,22,GND_22*%
X180000000Y-49500000D03*
%TO.P,U1,21,S_DAT_21*%
%TO.N,S_DAT*%
X177500000Y-49500000D03*
%TO.P,U1,20,COLD_RST_20*%
%TO.N,COLD_RST*%
X175000000Y-49500000D03*
%TO.P,U1,19,CLK_PIF_19*%
%TO.N,CLK_PIF*%
X172500000Y-49500000D03*
%TO.P,U1,18,CIC_PIF_18*%
%TO.N,CIC_PIF*%
X170000000Y-49500000D03*
%TO.P,U1,17,VCC_17*%
%TO.N,3V3_CART*%
X167500000Y-49500000D03*
%TO.P,U1,16,AD8_16*%
%TO.N,CA_AD8*%
X165000000Y-49500000D03*
%TO.P,U1,15,AD9_15*%
%TO.N,CA_AD9*%
X162500000Y-49500000D03*
%TO.P,U1,14,NC_14*%
%TO.N,NC*%
X160000000Y-49500000D03*
%TO.P,U1,13,NC_13*%
X157500000Y-49500000D03*
%TO.P,U1,12,AD10_12*%
%TO.N,CA_AD10*%
X155000000Y-49500000D03*
%TO.P,U1,11,AD11_11*%
%TO.N,CA_AD11*%
X152500000Y-49500000D03*
%TO.P,U1,10,READ_10*%
%TO.N,READ*%
X150000000Y-49500000D03*
%TO.P,U1,9,VCC_9*%
%TO.N,3V3_CART*%
X147500000Y-49500000D03*
%TO.P,U1,8,WRITE_8*%
%TO.N,WRITE*%
X145000000Y-49500000D03*
%TO.P,U1,7,AD12_7*%
%TO.N,CA_AD12*%
X142500000Y-49500000D03*
%TO.P,U1,6,GND_6*%
%TO.N,GND*%
X140000000Y-49500000D03*
%TO.P,U1,5,AD13_5*%
%TO.N,CA_AD13*%
X137500000Y-49500000D03*
%TO.P,U1,4,AD14_4*%
%TO.N,CA_AD14*%
X135000000Y-49500000D03*
%TO.P,U1,3,AD15_3*%
%TO.N,CA_AD15*%
X132500000Y-49500000D03*
%TO.P,U1,2,GND_2*%
%TO.N,GND*%
X130000000Y-49500000D03*
%TO.P,U1,1,GND_1*%
X127500000Y-49500000D03*
%TD*%
D15*
%TO.P,J4,2,Pin_2_2*%
%TO.N,GND*%
X156000000Y-76265000D03*
D16*
%TO.P,J4,1,Pin_1_1*%
%TO.N,KILL*%
X156000000Y-73725000D03*
%TD*%
D17*
%TO.P,U2,50,GND_50*%
%TO.N,GND*%
X187500000Y-136500000D03*
%TO.P,U2,49,R_AUDIO_49*%
%TO.N,R_AUDIO*%
X185000000Y-136500000D03*
%TO.P,U2,48,GND_48*%
%TO.N,GND*%
X182500000Y-136500000D03*
%TO.P,U2,47,GND_47*%
X180000000Y-136500000D03*
%TO.P,U2,46,VIDEO_CLK_46*%
%TO.N,VIDEO_CLK*%
X177500000Y-136500000D03*
%TO.P,U2,45,NMI_R4300_45*%
%TO.N,NMI_R4300*%
X175000000Y-136500000D03*
%TO.P,U2,44,JTAG_CLK_44*%
%TO.N,JTAG_CLK*%
X172500000Y-136500000D03*
%TO.P,U2,43,PIF_CIC_43*%
%TO.N,PIF_CIC*%
X170000000Y-136500000D03*
%TO.P,U2,42,VCC_42*%
%TO.N,3V3_CART*%
X167500000Y-136500000D03*
%TO.P,U2,41,AD7_41*%
%TO.N,AD7*%
X165000000Y-136500000D03*
%TO.P,U2,40,AD6_40*%
%TO.N,AD6*%
X162500000Y-136500000D03*
%TO.P,U2,39,NC_39*%
%TO.N,NC*%
X160000000Y-136500000D03*
%TO.P,U2,38,NC_38*%
X157500000Y-136500000D03*
%TO.P,U2,37,AD5_37*%
%TO.N,AD5*%
X155000000Y-136500000D03*
%TO.P,U2,36,AD4_36*%
%TO.N,AD4*%
X152500000Y-136500000D03*
%TO.P,U2,35,ALE_H_35*%
%TO.N,ALE_H*%
X150000000Y-136500000D03*
%TO.P,U2,34,VCC_34*%
%TO.N,3V3_CART*%
X147500000Y-136500000D03*
%TO.P,U2,33,ALE_L_33*%
%TO.N,ALE_L*%
X145000000Y-136500000D03*
%TO.P,U2,32,AD3_32*%
%TO.N,AD3*%
X142500000Y-136500000D03*
%TO.P,U2,31,GND_31*%
%TO.N,GND*%
X140000000Y-136500000D03*
%TO.P,U2,30,AD2_30*%
%TO.N,AD2*%
X137500000Y-136500000D03*
%TO.P,U2,29,AD1_29*%
%TO.N,AD1*%
X135000000Y-136500000D03*
%TO.P,U2,28,AD0_28*%
%TO.N,AD0*%
X132500000Y-136500000D03*
%TO.P,U2,27,GND_27*%
%TO.N,GND*%
X130000000Y-136500000D03*
%TO.P,U2,26,GND_26*%
X127500000Y-136500000D03*
%TD*%
D18*
%TO.N,CA_AD7*%
X145425000Y-51245700D03*
%TO.N,CA_AD6*%
X146612300Y-52060100D03*
%TO.N,CA_AD5*%
X143933500Y-45633000D03*
%TO.N,CA_AD4*%
X143475000Y-53021800D03*
%TO.N,STATUS_LED*%
X180508800Y-81484000D03*
%TO.N,3V3_OUT*%
X168964600Y-63989700D03*
X138947500Y-63989700D03*
%TO.N,CART_EN*%
X140225000Y-67038700D03*
X170225000Y-67038700D03*
X167432200Y-76674500D03*
%TO.N,CA_AD8*%
X163759700Y-51149700D03*
%TO.N,CA_AD10*%
X172175000Y-51538400D03*
%TO.N,CA_AD11*%
X172825000Y-52089900D03*
%TO.N,CA_AD12*%
X173475000Y-52703200D03*
%TO.N,CA_AD13*%
X174100300Y-53449700D03*
%TO.N,CA_AD14*%
X174700600Y-55176400D03*
%TO.N,CA_AD15*%
X175295300Y-56267400D03*
%TO.N,KILL*%
X143273100Y-74876700D03*
%TO.N,R_AUDIO*%
X186151800Y-133269400D03*
%TO.N,VIDEO_CLK*%
X179705100Y-131601100D03*
%TO.N,NMI_R4300*%
X187715600Y-51966300D03*
X186912200Y-130997300D03*
%TO.N,JTAG_CLK*%
X178246500Y-129414700D03*
X180756300Y-50563700D03*
%TO.N,PIF_CIC*%
X185550200Y-55070700D03*
X185550100Y-128790700D03*
%TO.N,AD7*%
X154230000Y-124327800D03*
%TO.N,AD6*%
X151690000Y-122638800D03*
X150539700Y-73125900D03*
X144699800Y-73125900D03*
%TO.N,AD5*%
X143474100Y-128767700D03*
%TO.N,AD4*%
X143021700Y-131291300D03*
%TO.N,ALE_H*%
X148743600Y-132955400D03*
X176417400Y-48432700D03*
X151085100Y-110449500D03*
X181802300Y-97845000D03*
X180705500Y-82459700D03*
%TO.N,ALE_L*%
X148800000Y-132147500D03*
X150483400Y-101589600D03*
X154007600Y-70843400D03*
%TO.N,AD3*%
X141250000Y-133619200D03*
%TO.N,AD2*%
X138990000Y-132895500D03*
X140073700Y-79339100D03*
X137885300Y-81952600D03*
%TO.N,AD1*%
X134345600Y-133371500D03*
X132498500Y-69276900D03*
X140576200Y-69631600D03*
%TO.N,AD0*%
X131595700Y-132987400D03*
X140225000Y-78523800D03*
X129838500Y-78523800D03*
%TO.N,S_DAT*%
X185479000Y-57479000D03*
%TO.N,CLK_PIF*%
X166471600Y-81851500D03*
X175868500Y-80667800D03*
%TO.N,CIC_PIF*%
X170000000Y-117846100D03*
X184325300Y-111117700D03*
X184663000Y-57658900D03*
%TO.N,AD8*%
X159064400Y-101203200D03*
%TO.N,NC*%
X158262500Y-133483800D03*
X157500000Y-69882300D03*
X169575000Y-69882300D03*
X139576600Y-69882300D03*
X129185100Y-127672400D03*
X129185100Y-68626500D03*
%TO.N,AD10*%
X154937200Y-106135700D03*
X165504800Y-81948300D03*
X171525000Y-78660500D03*
%TO.N,AD11*%
X153595100Y-106741100D03*
%TO.N,READ*%
X152960100Y-89341400D03*
X156604100Y-81383000D03*
%TO.N,WRITE*%
X147737500Y-89355400D03*
X153798600Y-82152800D03*
%TO.N,AD12*%
X142417200Y-107209500D03*
%TO.N,AD13*%
X137500000Y-107819500D03*
%TO.N,AD14*%
X135000000Y-108445200D03*
X182536500Y-80842700D03*
X174078800Y-77217300D03*
%TO.N,AD15*%
X132545900Y-111354100D03*
X182998000Y-77845000D03*
X174680500Y-76401200D03*
%TO.N,3V3_CART*%
X167710200Y-133488100D03*
X147509700Y-133476900D03*
X147313000Y-119954200D03*
X155607500Y-119954200D03*
%TO.N,GND*%
X126135800Y-133698300D03*
X189194900Y-134805100D03*
X140020300Y-133481100D03*
X182500000Y-133255800D03*
X177393600Y-130020900D03*
%TD*%
%TO.N,READ*%
D19*
X152960100Y-89341400D02*
X152335400Y-89966100D01*
X152335400Y-89966100D02*
X147422600Y-89966100D01*
X147422600Y-89966100D02*
X147090900Y-89634400D01*
X147090900Y-89634400D02*
X147090900Y-89073200D01*
X147090900Y-89073200D02*
X149664100Y-86500000D01*
X149664100Y-86500000D02*
X150000000Y-86500000D01*
X150000000Y-86500000D02*
X150349200Y-86150800D01*
X150349200Y-86150800D02*
X150349200Y-84700000D01*
X150349200Y-84700000D02*
X153666200Y-81383000D01*
X153666200Y-81383000D02*
X156604100Y-81383000D01*
%TO.N,CA_AD7*%
X163933900Y-43433900D02*
X165000000Y-44500000D01*
X162058900Y-43433900D02*
X163933900Y-43433900D01*
X161250000Y-44242800D02*
X162058900Y-43433900D01*
X161250000Y-44821300D02*
X161250000Y-44242800D01*
X159613000Y-46458300D02*
X161250000Y-44821300D01*
X151507700Y-46458300D02*
X159613000Y-46458300D01*
X148936300Y-49029700D02*
X151507700Y-46458300D01*
X148936300Y-49605100D02*
X148936300Y-49029700D01*
X147295700Y-51245700D02*
X148936300Y-49605100D01*
X145425000Y-51245700D02*
X147295700Y-51245700D01*
%TO.N,CA_AD6*%
X160140000Y-46860000D02*
X162500000Y-44500000D01*
X153599500Y-46860000D02*
X160140000Y-46860000D01*
X151250000Y-49209500D02*
X153599500Y-46860000D01*
X151250000Y-49801300D02*
X151250000Y-49209500D01*
X148991200Y-52060100D02*
X151250000Y-49801300D01*
X146612300Y-52060100D02*
X148991200Y-52060100D01*
%TO.N,CA_AD5*%
X153867000Y-45633000D02*
X143933500Y-45633000D01*
X155000000Y-44500000D02*
X153867000Y-45633000D01*
%TO.N,CA_AD4*%
X141418900Y-50965700D02*
X143475000Y-53021800D01*
X141418900Y-48967700D02*
X141418900Y-50965700D01*
X143051100Y-47335500D02*
X141418900Y-48967700D01*
X143161800Y-47335500D02*
X143051100Y-47335500D01*
X144440700Y-46056600D02*
X143161800Y-47335500D01*
X155004100Y-46056600D02*
X144440700Y-46056600D01*
X156124700Y-44936000D02*
X155004100Y-46056600D01*
X156124700Y-44064800D02*
X156124700Y-44936000D01*
X155495000Y-43435100D02*
X156124700Y-44064800D01*
X153564900Y-43435100D02*
X155495000Y-43435100D01*
X152500000Y-44500000D02*
X153564900Y-43435100D01*
%TO.N,STATUS_LED*%
X160432500Y-86232500D02*
X159310000Y-85110000D01*
X164890300Y-86232500D02*
X160432500Y-86232500D01*
X165660000Y-85462800D02*
X164890300Y-86232500D01*
X165660000Y-84736300D02*
X165660000Y-85462800D01*
X168912300Y-81484000D02*
X165660000Y-84736300D01*
X180508800Y-81484000D02*
X168912300Y-81484000D01*
%TO.N,3V3_OUT*%
X138947500Y-63989700D02*
X168964600Y-63989700D01*
%TO.N,CART_EN*%
X170225000Y-67038700D02*
X140225000Y-67038700D01*
X170225000Y-73881700D02*
X167432200Y-76674500D01*
X170225000Y-67038700D02*
X170225000Y-73881700D01*
%TO.N,CA_AD8*%
X163759700Y-50740300D02*
X163759700Y-51149700D01*
X165000000Y-49500000D02*
X163759700Y-50740300D01*
%TO.N,CA_AD10*%
X171962000Y-51751400D02*
X172175000Y-51538400D01*
X157251400Y-51751400D02*
X171962000Y-51751400D01*
X155000000Y-49500000D02*
X157251400Y-51751400D01*
%TO.N,CA_AD11*%
X172761800Y-52153100D02*
X172825000Y-52089900D01*
X155153100Y-52153100D02*
X172761800Y-52153100D01*
X152500000Y-49500000D02*
X155153100Y-52153100D01*
%TO.N,CA_AD12*%
X145703200Y-52703200D02*
X173475000Y-52703200D01*
X142500000Y-49500000D02*
X145703200Y-52703200D01*
%TO.N,CA_AD13*%
X173926500Y-53623500D02*
X174100300Y-53449700D01*
X141623500Y-53623500D02*
X173926500Y-53623500D01*
X137500000Y-49500000D02*
X141623500Y-53623500D01*
%TO.N,CA_AD14*%
X140676400Y-55176400D02*
X174700600Y-55176400D01*
X135000000Y-49500000D02*
X140676400Y-55176400D01*
%TO.N,CA_AD15*%
X139267400Y-56267400D02*
X175295300Y-56267400D01*
X132500000Y-49500000D02*
X139267400Y-56267400D01*
%TO.N,KILL*%
X164390000Y-82978800D02*
X164390000Y-85110000D01*
X156287900Y-74876700D02*
X164390000Y-82978800D01*
X156000000Y-74876700D02*
X156287900Y-74876700D01*
X156000000Y-73725000D02*
X156000000Y-74876700D01*
X143273100Y-74876700D02*
X156000000Y-74876700D01*
%TO.N,R_AUDIO*%
X185000000Y-136500000D02*
X185000000Y-133698300D01*
X185722900Y-133698300D02*
X186151800Y-133269400D01*
X185000000Y-133698300D02*
X185722900Y-133698300D01*
%TO.N,VIDEO_CLK*%
X177500000Y-136500000D02*
X177500000Y-133698300D01*
X177607900Y-133698300D02*
X179705100Y-131601100D01*
X177500000Y-133698300D02*
X177607900Y-133698300D01*
%TO.N,NMI_R4300*%
X175000000Y-136500000D02*
X175000000Y-133698300D01*
X177701000Y-130997300D02*
X186912200Y-130997300D01*
X175000000Y-133698300D02*
X177701000Y-130997300D01*
X186063700Y-50314400D02*
X187715600Y-51966300D01*
X186063700Y-48999400D02*
X186063700Y-50314400D01*
X182690600Y-45626300D02*
X186063700Y-48999400D01*
X176126300Y-45626300D02*
X182690600Y-45626300D01*
X175000000Y-44500000D02*
X176126300Y-45626300D01*
%TO.N,JTAG_CLK*%
X172500000Y-136500000D02*
X172500000Y-133698300D01*
X183003900Y-50563700D02*
X180756300Y-50563700D01*
X183573900Y-49993700D02*
X183003900Y-50563700D01*
X183573900Y-49067200D02*
X183573900Y-49993700D01*
X180734700Y-46228000D02*
X183573900Y-49067200D01*
X174228000Y-46228000D02*
X180734700Y-46228000D01*
X172500000Y-44500000D02*
X174228000Y-46228000D01*
X176783600Y-129414700D02*
X172500000Y-133698300D01*
X178246500Y-129414700D02*
X176783600Y-129414700D01*
%TO.N,PIF_CIC*%
X174907600Y-128790700D02*
X170000000Y-133698300D01*
X185550100Y-128790700D02*
X174907600Y-128790700D01*
X170000000Y-136500000D02*
X170000000Y-133698300D01*
X184045600Y-55070700D02*
X185550200Y-55070700D01*
X178750000Y-49775100D02*
X184045600Y-55070700D01*
X178750000Y-49209500D02*
X178750000Y-49775100D01*
X176942200Y-47401700D02*
X178750000Y-49209500D01*
X172901700Y-47401700D02*
X176942200Y-47401700D01*
X170000000Y-44500000D02*
X172901700Y-47401700D01*
%TO.N,AD7*%
X165000000Y-136500000D02*
X165000000Y-133698300D01*
X163600500Y-133698300D02*
X154230000Y-124327800D01*
X165000000Y-133698300D02*
X163600500Y-133698300D01*
%TO.N,AD6*%
X162500000Y-133448800D02*
X151690000Y-122638800D01*
X162500000Y-136500000D02*
X162500000Y-133448800D01*
X144699800Y-73125900D02*
X150539700Y-73125900D01*
%TO.N,AD5*%
X155000000Y-136500000D02*
X155000000Y-133698300D01*
X150069400Y-128767700D02*
X143474100Y-128767700D01*
X155000000Y-133698300D02*
X150069400Y-128767700D01*
%TO.N,AD4*%
X152500000Y-136500000D02*
X152500000Y-133698300D01*
X150093000Y-131291300D02*
X143021700Y-131291300D01*
X152500000Y-133698300D02*
X150093000Y-131291300D01*
%TO.N,ALE_H*%
X150000000Y-136500000D02*
X150000000Y-133698300D01*
X149257100Y-132955400D02*
X148743600Y-132955400D01*
X150000000Y-133698300D02*
X149257100Y-132955400D01*
X151469300Y-43030700D02*
X150000000Y-44500000D01*
X165035100Y-43030700D02*
X151469300Y-43030700D01*
X166250000Y-44245600D02*
X165035100Y-43030700D01*
X166250000Y-44821600D02*
X166250000Y-44245600D01*
X169861100Y-48432700D02*
X166250000Y-44821600D01*
X176417400Y-48432700D02*
X169861100Y-48432700D01*
X178055200Y-85110000D02*
X177090000Y-85110000D01*
X180705500Y-82459700D02*
X178055200Y-85110000D01*
X178191700Y-101455600D02*
X181802300Y-97845000D01*
X178191700Y-103446500D02*
X178191700Y-101455600D01*
X171188700Y-110449500D02*
X178191700Y-103446500D01*
X151085100Y-110449500D02*
X171188700Y-110449500D01*
%TO.N,ALE_L*%
X145000000Y-136500000D02*
X145000000Y-133698300D01*
X146550800Y-132147500D02*
X148800000Y-132147500D01*
X145000000Y-133698300D02*
X146550800Y-132147500D01*
X156351800Y-101589600D02*
X150483400Y-101589600D01*
X171509300Y-86432100D02*
X156351800Y-101589600D01*
X178307900Y-86432100D02*
X171509300Y-86432100D01*
X179630000Y-85110000D02*
X178307900Y-86432100D01*
X181307200Y-83432800D02*
X179630000Y-85110000D01*
X181307200Y-81431200D02*
X181307200Y-83432800D01*
X177799100Y-77923100D02*
X181307200Y-81431200D01*
X162324800Y-77923100D02*
X177799100Y-77923100D01*
X155245100Y-70843400D02*
X162324800Y-77923100D01*
X154007600Y-70843400D02*
X155245100Y-70843400D01*
%TO.N,AD3*%
X141329100Y-133698300D02*
X141250000Y-133619200D01*
X142500000Y-133698300D02*
X141329100Y-133698300D01*
X142500000Y-136500000D02*
X142500000Y-133698300D01*
%TO.N,AD2*%
X138187200Y-133698300D02*
X138990000Y-132895500D01*
X137500000Y-133698300D02*
X138187200Y-133698300D01*
X137500000Y-136500000D02*
X137500000Y-133698300D01*
X140073700Y-79764200D02*
X137885300Y-81952600D01*
X140073700Y-79339100D02*
X140073700Y-79764200D01*
%TO.N,AD1*%
X134672400Y-133698300D02*
X134345600Y-133371500D01*
X135000000Y-133698300D02*
X134672400Y-133698300D01*
X135000000Y-136500000D02*
X135000000Y-133698300D01*
X140221500Y-69276900D02*
X140576200Y-69631600D01*
X132498500Y-69276900D02*
X140221500Y-69276900D01*
%TO.N,AD0*%
X132306600Y-133698300D02*
X131595700Y-132987400D01*
X132500000Y-133698300D02*
X132306600Y-133698300D01*
X132500000Y-136500000D02*
X132500000Y-133698300D01*
X129838500Y-78523800D02*
X140225000Y-78523800D01*
%TO.N,S_DAT*%
X177500000Y-49500000D02*
X185479000Y-57479000D01*
%TO.N,CLK_PIF*%
X167655300Y-80667800D02*
X175868500Y-80667800D01*
X166471600Y-81851500D02*
X167655300Y-80667800D01*
%TO.N,CIC_PIF*%
X176728400Y-111117700D02*
X170000000Y-117846100D01*
X184325300Y-111117700D02*
X176728400Y-111117700D01*
X177871500Y-50867400D02*
X184663000Y-57658900D01*
X171367400Y-50867400D02*
X177871500Y-50867400D01*
X170000000Y-49500000D02*
X171367400Y-50867400D01*
%TO.N,AD8*%
X157377600Y-102890000D02*
X159064400Y-101203200D01*
X156770000Y-102890000D02*
X157377600Y-102890000D01*
%TO.N,NC*%
X157500000Y-136500000D02*
X157500000Y-133698300D01*
X160000000Y-136500000D02*
X160000000Y-133698300D01*
X158262500Y-133698300D02*
X158262500Y-133483800D01*
X157500000Y-133698300D02*
X158262500Y-133698300D01*
X158262500Y-133698300D02*
X160000000Y-133698300D01*
X157500000Y-49500000D02*
X160000000Y-49500000D01*
X157500000Y-44500000D02*
X160000000Y-44500000D01*
X157500000Y-69882300D02*
X169575000Y-69882300D01*
X152451100Y-127672400D02*
X129185100Y-127672400D01*
X158262500Y-133483800D02*
X152451100Y-127672400D01*
X157500000Y-69882300D02*
X141241000Y-69882300D01*
X140890000Y-70233300D02*
X141241000Y-69882300D01*
X139927600Y-70233300D02*
X140890000Y-70233300D01*
X139576600Y-69882300D02*
X139927600Y-70233300D01*
X140456200Y-68626500D02*
X129185100Y-68626500D01*
X141241000Y-69411300D02*
X140456200Y-68626500D01*
X141241000Y-69882300D02*
X141241000Y-69411300D01*
%TO.N,AD10*%
X161144300Y-106135700D02*
X154937200Y-106135700D01*
X164390000Y-102890000D02*
X161144300Y-106135700D01*
X168792600Y-78660500D02*
X171525000Y-78660500D01*
X165504800Y-81948300D02*
X168792600Y-78660500D01*
%TO.N,AD11*%
X163078900Y-106741100D02*
X153595100Y-106741100D01*
X166930000Y-102890000D02*
X163078900Y-106741100D01*
%TO.N,READ*%
X167778600Y-89341400D02*
X152960100Y-89341400D01*
X172010000Y-85110000D02*
X167778600Y-89341400D01*
%TO.N,WRITE*%
X153101600Y-82849800D02*
X153798600Y-82152800D01*
X153101600Y-86667900D02*
X153101600Y-82849800D01*
X167510400Y-87069600D02*
X169470000Y-85110000D01*
X153503300Y-87069600D02*
X167510400Y-87069600D01*
X153101600Y-86667900D02*
X153503300Y-87069600D01*
X150425000Y-86667900D02*
X147737500Y-89355400D01*
X153101600Y-86667900D02*
X150425000Y-86667900D01*
%TO.N,AD12*%
X165002200Y-107357800D02*
X169470000Y-102890000D01*
X142565500Y-107357800D02*
X165002200Y-107357800D01*
X142417200Y-107209500D02*
X142565500Y-107357800D01*
%TO.N,AD13*%
X167080500Y-107819500D02*
X172010000Y-102890000D01*
X137500000Y-107819500D02*
X167080500Y-107819500D01*
%TO.N,AD14*%
X171534800Y-108445200D02*
X135000000Y-108445200D01*
X177090000Y-102890000D02*
X171534800Y-108445200D01*
X178911100Y-77217300D02*
X174078800Y-77217300D01*
X182536500Y-80842700D02*
X178911100Y-77217300D01*
%TO.N,AD15*%
X171165900Y-111354100D02*
X132545900Y-111354100D01*
X179630000Y-102890000D02*
X171165900Y-111354100D01*
X181554200Y-76401200D02*
X182998000Y-77845000D01*
X174680500Y-76401200D02*
X181554200Y-76401200D01*
%TO.N,3V3_CART*%
X147500000Y-136500000D02*
X147500000Y-133698300D01*
X167500000Y-133698300D02*
X167710200Y-133488100D01*
X167500000Y-136500000D02*
X167500000Y-133698300D01*
X147509700Y-133688600D02*
X147509700Y-133476900D01*
X147500000Y-133698300D02*
X147509700Y-133688600D01*
X149419500Y-42580500D02*
X147500000Y-44500000D01*
X165580500Y-42580500D02*
X149419500Y-42580500D01*
X167500000Y-44500000D02*
X165580500Y-42580500D01*
X147313000Y-119954200D02*
X155607500Y-119954200D01*
X155607500Y-121385400D02*
X155607500Y-119954200D01*
X167710200Y-133488100D02*
X155607500Y-121385400D01*
%TO.N,GND*%
X127500000Y-136500000D02*
X127500000Y-133698300D01*
X127500000Y-133698300D02*
X126135800Y-133698300D01*
X187500000Y-136500000D02*
X187500000Y-133698300D01*
X130000000Y-136500000D02*
X130000000Y-133698300D01*
X127500000Y-133698300D02*
X130000000Y-133698300D01*
X180000000Y-136500000D02*
X180000000Y-133698300D01*
X182500000Y-136500000D02*
X182500000Y-133698300D01*
X127500000Y-49500000D02*
X130000000Y-49500000D01*
X180000000Y-49500000D02*
X182500000Y-49500000D01*
X127500000Y-44500000D02*
X130000000Y-44500000D01*
X138883900Y-43383900D02*
X140000000Y-44500000D01*
X131116100Y-43383900D02*
X138883900Y-43383900D01*
X130000000Y-44500000D02*
X131116100Y-43383900D01*
X180000000Y-44500000D02*
X182500000Y-44500000D01*
X186383900Y-43383900D02*
X187500000Y-44500000D01*
X183616100Y-43383900D02*
X186383900Y-43383900D01*
X182500000Y-44500000D02*
X183616100Y-43383900D01*
X156000000Y-76265000D02*
X156000000Y-79260000D01*
X137586700Y-83973300D02*
X136450000Y-85110000D01*
X149150000Y-83973300D02*
X137586700Y-83973300D01*
X153863300Y-79260000D02*
X149150000Y-83973300D01*
X156000000Y-79260000D02*
X153863300Y-79260000D01*
X149150000Y-83973300D02*
X149150000Y-85110000D01*
X150265800Y-104005800D02*
X149150000Y-102890000D01*
X160734200Y-104005800D02*
X150265800Y-104005800D01*
X161850000Y-102890000D02*
X160734200Y-104005800D01*
X148048300Y-103991700D02*
X149150000Y-102890000D01*
X137551700Y-103991700D02*
X148048300Y-103991700D01*
X136450000Y-102890000D02*
X137551700Y-103991700D01*
X140000000Y-133481100D02*
X140020300Y-133481100D01*
X140000000Y-136500000D02*
X140000000Y-133481100D01*
X131419300Y-132279000D02*
X130000000Y-133698300D01*
X139295400Y-132279000D02*
X131419300Y-132279000D01*
X140000000Y-132983600D02*
X139295400Y-132279000D01*
X140000000Y-133481100D02*
X140000000Y-132983600D01*
X173441900Y-101781900D02*
X174550000Y-102890000D01*
X162958100Y-101781900D02*
X173441900Y-101781900D01*
X161850000Y-102890000D02*
X162958100Y-101781900D01*
X188551500Y-133698300D02*
X187500000Y-133698300D01*
X189194800Y-134341600D02*
X188551500Y-133698300D01*
X189194800Y-134805100D02*
X189194800Y-134341600D01*
X189194900Y-134805100D02*
X189194800Y-134805100D01*
X182500000Y-133255800D02*
X182500000Y-133698300D01*
X182160300Y-133698300D02*
X182500000Y-133698300D01*
X182101900Y-133756700D02*
X182160300Y-133698300D01*
X182101900Y-133864600D02*
X182101900Y-133756700D01*
X181866500Y-134100000D02*
X182101900Y-133864600D01*
X181333500Y-134100000D02*
X181866500Y-134100000D01*
X181238800Y-134005300D02*
X181333500Y-134100000D01*
X181072800Y-134005300D02*
X181238800Y-134005300D01*
X181029900Y-133962400D02*
X181072800Y-134005300D01*
X180997700Y-133962400D02*
X181029900Y-133962400D01*
X180954800Y-134005300D02*
X180997700Y-133962400D01*
X180406100Y-134005300D02*
X180954800Y-134005300D01*
X180100600Y-133699800D02*
X180406100Y-134005300D01*
X180001600Y-133699800D02*
X180100600Y-133699800D01*
X180000100Y-133698300D02*
X180001600Y-133699800D01*
X180000000Y-133698300D02*
X180000100Y-133698300D01*
X158197600Y-85641200D02*
X158197600Y-83991200D01*
X159224300Y-86667900D02*
X158197600Y-85641200D01*
X166953800Y-86667900D02*
X159224300Y-86667900D01*
X168031700Y-85590000D02*
X166953800Y-86667900D01*
X168031700Y-84950900D02*
X168031700Y-85590000D01*
X168988500Y-83994100D02*
X168031700Y-84950900D01*
X173434100Y-83994100D02*
X168988500Y-83994100D01*
X174550000Y-85110000D02*
X173434100Y-83994100D01*
X158197600Y-81457600D02*
X158197600Y-83991200D01*
X156000000Y-79260000D02*
X158197600Y-81457600D01*
X160731200Y-83991200D02*
X161850000Y-85110000D01*
X158197600Y-83991200D02*
X160731200Y-83991200D01*
X183088300Y-132667500D02*
X186469200Y-132667500D01*
X182500000Y-133255800D02*
X183088300Y-132667500D01*
X186469200Y-132667500D02*
X187500000Y-133698300D01*
X186797500Y-130020900D02*
X177393600Y-130020900D01*
X187539200Y-130762600D02*
X186797500Y-130020900D01*
X187539200Y-131597500D02*
X187539200Y-130762600D01*
X186469200Y-132667500D02*
X187539200Y-131597500D01*
%TD*%
%TA.AperFunction,Conductor*%
%TO.N,GND*%
G36*
X174084075Y-103082993D02*
G01*
X174149901Y-103197007D01*
X174242993Y-103290099D01*
X174357007Y-103355925D01*
X174420590Y-103372962D01*
X173821085Y-103972465D01*
X173890493Y-104018841D01*
X173977801Y-104065509D01*
X174123387Y-104125814D01*
X174218135Y-104154555D01*
X174372699Y-104185298D01*
X174471210Y-104195000D01*
X174628780Y-104195000D01*
X174630522Y-104194914D01*
X174630879Y-104195000D01*
X174631837Y-104195000D01*
X174631837Y-104195230D01*
X174698451Y-104211268D01*
X174746754Y-104261752D01*
X174760096Y-104330336D01*
X174734240Y-104395245D01*
X174724318Y-104406444D01*
X171322384Y-107808381D01*
X171261061Y-107841866D01*
X171234703Y-107844700D01*
X168203897Y-107844700D01*
X168136858Y-107825015D01*
X168091103Y-107772211D01*
X168081159Y-107703053D01*
X168110184Y-107639497D01*
X168116216Y-107633019D01*
X169820316Y-105928919D01*
X171565159Y-104184075D01*
X171626480Y-104150592D01*
X171691154Y-104153826D01*
X171705466Y-104158477D01*
X171907648Y-104190500D01*
X171907649Y-104190500D01*
X172112351Y-104190500D01*
X172112352Y-104190500D01*
X172314534Y-104158477D01*
X172509219Y-104095220D01*
X172691610Y-104002287D01*
X172797733Y-103925185D01*
X172857213Y-103881971D01*
X172857215Y-103881968D01*
X172857219Y-103881966D01*
X173001966Y-103737219D01*
X173001968Y-103737215D01*
X173001971Y-103737213D01*
X173122286Y-103571611D01*
X173122287Y-103571610D01*
X173166058Y-103485703D01*
X173214030Y-103434909D01*
X173281851Y-103418113D01*
X173347986Y-103440650D01*
X173385900Y-103483545D01*
X173421158Y-103549506D01*
X173467533Y-103618912D01*
X173467534Y-103618913D01*
X174067037Y-103019409D01*
X174084075Y-103082993D01*
G37*
%TD.AperFunction*%
%TA.AperFunction,Conductor*%
G36*
X158111445Y-85653865D02*
G01*
X158150485Y-85698919D01*
X158197715Y-85791614D01*
X158318028Y-85957213D01*
X158462786Y-86101971D01*
X158614232Y-86212001D01*
X158628390Y-86222287D01*
X158652270Y-86234454D01*
X158652585Y-86234615D01*
X158703381Y-86282590D01*
X158720176Y-86350411D01*
X158697638Y-86416546D01*
X158642923Y-86459997D01*
X158596290Y-86469100D01*
X157483710Y-86469100D01*
X157416671Y-86449415D01*
X157370916Y-86396611D01*
X157360972Y-86327453D01*
X157389997Y-86263897D01*
X157427415Y-86234615D01*
X157427621Y-86234509D01*
X157451610Y-86222287D01*
X157544590Y-86154732D01*
X157617213Y-86101971D01*
X157617215Y-86101968D01*
X157617219Y-86101966D01*
X157761966Y-85957219D01*
X157761968Y-85957215D01*
X157761971Y-85957213D01*
X157882284Y-85791614D01*
X157882285Y-85791613D01*
X157882287Y-85791610D01*
X157929516Y-85698917D01*
X157977489Y-85648123D01*
X158045310Y-85631328D01*
X158111445Y-85653865D01*
G37*
%TD.AperFunction*%
%TA.AperFunction,Conductor*%
G36*
X179879894Y-82104185D02*
G01*
X179925649Y-82156989D01*
X179935593Y-82226147D01*
X179934472Y-82232692D01*
X179904861Y-82381550D01*
X179872476Y-82443461D01*
X179870925Y-82445039D01*
X178155256Y-84160709D01*
X178093933Y-84194194D01*
X178024241Y-84189210D01*
X177979894Y-84160709D01*
X177937213Y-84118028D01*
X177771613Y-83997715D01*
X177771612Y-83997714D01*
X177771610Y-83997713D01*
X177714653Y-83968691D01*
X177589223Y-83904781D01*
X177394534Y-83841522D01*
X177219995Y-83813878D01*
X177192352Y-83809500D01*
X176987648Y-83809500D01*
X176963329Y-83813351D01*
X176785465Y-83841522D01*
X176590776Y-83904781D01*
X176408386Y-83997715D01*
X176242786Y-84118028D01*
X176098028Y-84262786D01*
X175977715Y-84428386D01*
X175933942Y-84514295D01*
X175885967Y-84565091D01*
X175818146Y-84581886D01*
X175752011Y-84559348D01*
X175714099Y-84516454D01*
X175678841Y-84450493D01*
X175632465Y-84381086D01*
X175632465Y-84381085D01*
X175032961Y-84980588D01*
X175015925Y-84917007D01*
X174950099Y-84802993D01*
X174857007Y-84709901D01*
X174742993Y-84644075D01*
X174679410Y-84627037D01*
X175278913Y-84027534D01*
X175278912Y-84027533D01*
X175209506Y-83981158D01*
X175122198Y-83934490D01*
X174976612Y-83874185D01*
X174881864Y-83845444D01*
X174727300Y-83814701D01*
X174628790Y-83805000D01*
X174471210Y-83805000D01*
X174372700Y-83814701D01*
X174372697Y-83814701D01*
X174218135Y-83845444D01*
X174123387Y-83874185D01*
X173977801Y-83934490D01*
X173890488Y-83981161D01*
X173821086Y-84027532D01*
X173821085Y-84027533D01*
X174420590Y-84627037D01*
X174357007Y-84644075D01*
X174242993Y-84709901D01*
X174149901Y-84802993D01*
X174084075Y-84917007D01*
X174067037Y-84980590D01*
X173467533Y-84381085D01*
X173467532Y-84381086D01*
X173421160Y-84450489D01*
X173421157Y-84450494D01*
X173385899Y-84516455D01*
X173336936Y-84566299D01*
X173268798Y-84581758D01*
X173203119Y-84557925D01*
X173166057Y-84514294D01*
X173133549Y-84450494D01*
X173122287Y-84428390D01*
X173122286Y-84428388D01*
X173001971Y-84262786D01*
X172857213Y-84118028D01*
X172691613Y-83997715D01*
X172691612Y-83997714D01*
X172691610Y-83997713D01*
X172634653Y-83968691D01*
X172509223Y-83904781D01*
X172314534Y-83841522D01*
X172139995Y-83813878D01*
X172112352Y-83809500D01*
X171907648Y-83809500D01*
X171883329Y-83813351D01*
X171705465Y-83841522D01*
X171510776Y-83904781D01*
X171328386Y-83997715D01*
X171162786Y-84118028D01*
X171018028Y-84262786D01*
X170897715Y-84428386D01*
X170850485Y-84521080D01*
X170802510Y-84571876D01*
X170734689Y-84588671D01*
X170668554Y-84566134D01*
X170629515Y-84521080D01*
X170626057Y-84514294D01*
X170582287Y-84428390D01*
X170547919Y-84381086D01*
X170461971Y-84262786D01*
X170317213Y-84118028D01*
X170151613Y-83997715D01*
X170151612Y-83997714D01*
X170151610Y-83997713D01*
X170094653Y-83968691D01*
X169969223Y-83904781D01*
X169774534Y-83841522D01*
X169599995Y-83813878D01*
X169572352Y-83809500D01*
X169367648Y-83809500D01*
X169343329Y-83813351D01*
X169165465Y-83841522D01*
X168970776Y-83904781D01*
X168788386Y-83997715D01*
X168622786Y-84118028D01*
X168478028Y-84262786D01*
X168357715Y-84428386D01*
X168310485Y-84521080D01*
X168262510Y-84571876D01*
X168194689Y-84588671D01*
X168128554Y-84566134D01*
X168089515Y-84521080D01*
X168086057Y-84514294D01*
X168042287Y-84428390D01*
X168007919Y-84381086D01*
X167921971Y-84262786D01*
X167777213Y-84118028D01*
X167611613Y-83997715D01*
X167611612Y-83997714D01*
X167611610Y-83997713D01*
X167561205Y-83972030D01*
X167522683Y-83952402D01*
X167471887Y-83904427D01*
X167455092Y-83836606D01*
X167477630Y-83770471D01*
X167491290Y-83754243D01*
X169124717Y-82120819D01*
X169186040Y-82087334D01*
X169212398Y-82084500D01*
X179812855Y-82084500D01*
X179879894Y-82104185D01*
G37*
%TD.AperFunction*%
%TA.AperFunction,Conductor*%
G36*
X148417942Y-42520185D02*
G01*
X148463697Y-42572989D01*
X148473641Y-42642147D01*
X148444616Y-42705703D01*
X148438584Y-42712181D01*
X147914526Y-43236237D01*
X147853203Y-43269722D01*
X147800478Y-43269158D01*
X147800448Y-43269349D01*
X147799156Y-43269144D01*
X147797903Y-43269131D01*
X147795636Y-43268586D01*
X147626196Y-43241750D01*
X147599361Y-43237500D01*
X147400639Y-43237500D01*
X147335214Y-43247862D01*
X147204362Y-43268587D01*
X147015370Y-43329993D01*
X147015367Y-43329994D01*
X146838305Y-43420213D01*
X146677533Y-43537021D01*
X146537021Y-43677533D01*
X146420213Y-43838305D01*
X146360485Y-43955528D01*
X146312510Y-44006324D01*
X146244689Y-44023119D01*
X146178554Y-44000581D01*
X146139515Y-43955528D01*
X146110967Y-43899500D01*
X146079787Y-43838306D01*
X145962981Y-43677536D01*
X145822464Y-43537019D01*
X145661694Y-43420213D01*
X145484632Y-43329994D01*
X145484629Y-43329993D01*
X145295637Y-43268587D01*
X145197498Y-43253043D01*
X145099361Y-43237500D01*
X144900639Y-43237500D01*
X144835214Y-43247862D01*
X144704362Y-43268587D01*
X144515370Y-43329993D01*
X144515367Y-43329994D01*
X144338305Y-43420213D01*
X144177533Y-43537021D01*
X144037021Y-43677533D01*
X143920213Y-43838305D01*
X143860485Y-43955528D01*
X143812510Y-44006324D01*
X143744689Y-44023119D01*
X143678554Y-44000581D01*
X143639515Y-43955528D01*
X143610967Y-43899500D01*
X143579787Y-43838306D01*
X143462981Y-43677536D01*
X143322464Y-43537019D01*
X143161694Y-43420213D01*
X142984632Y-43329994D01*
X142984629Y-43329993D01*
X142795637Y-43268587D01*
X142697498Y-43253043D01*
X142599361Y-43237500D01*
X142400639Y-43237500D01*
X142335214Y-43247862D01*
X142204362Y-43268587D01*
X142015370Y-43329993D01*
X142015367Y-43329994D01*
X141838305Y-43420213D01*
X141677533Y-43537021D01*
X141537021Y-43677533D01*
X141420213Y-43838305D01*
X141360204Y-43956079D01*
X141312229Y-44006875D01*
X141244408Y-44023670D01*
X141178273Y-44001132D01*
X141139234Y-43956079D01*
X141079358Y-43838567D01*
X141052268Y-43801283D01*
X140381000Y-44472551D01*
X140381000Y-44449840D01*
X140355036Y-44352939D01*
X140304876Y-44266060D01*
X140233940Y-44195124D01*
X140147061Y-44144964D01*
X140050160Y-44119000D01*
X140027447Y-44119000D01*
X140698716Y-43447731D01*
X140698715Y-43447730D01*
X140661432Y-43420641D01*
X140484437Y-43330457D01*
X140295522Y-43269075D01*
X140099321Y-43238000D01*
X139900679Y-43238000D01*
X139704479Y-43269075D01*
X139704476Y-43269075D01*
X139515562Y-43330457D01*
X139338564Y-43420643D01*
X139301283Y-43447729D01*
X139301282Y-43447730D01*
X139972554Y-44119000D01*
X139949840Y-44119000D01*
X139852939Y-44144964D01*
X139766060Y-44195124D01*
X139695124Y-44266060D01*
X139644964Y-44352939D01*
X139619000Y-44449840D01*
X139619000Y-44472552D01*
X138947730Y-43801282D01*
X138947729Y-43801283D01*
X138920641Y-43838566D01*
X138860764Y-43956080D01*
X138812790Y-44006875D01*
X138744968Y-44023670D01*
X138678834Y-44001132D01*
X138639796Y-43956080D01*
X138579787Y-43838306D01*
X138462981Y-43677536D01*
X138322464Y-43537019D01*
X138161694Y-43420213D01*
X137984632Y-43329994D01*
X137984629Y-43329993D01*
X137795637Y-43268587D01*
X137697498Y-43253043D01*
X137599361Y-43237500D01*
X137400639Y-43237500D01*
X137335214Y-43247862D01*
X137204362Y-43268587D01*
X137015370Y-43329993D01*
X137015367Y-43329994D01*
X136838305Y-43420213D01*
X136677533Y-43537021D01*
X136537021Y-43677533D01*
X136420213Y-43838305D01*
X136360485Y-43955528D01*
X136312510Y-44006324D01*
X136244689Y-44023119D01*
X136178554Y-44000581D01*
X136139515Y-43955528D01*
X136110967Y-43899500D01*
X136079787Y-43838306D01*
X135962981Y-43677536D01*
X135822464Y-43537019D01*
X135661694Y-43420213D01*
X135484632Y-43329994D01*
X135484629Y-43329993D01*
X135295637Y-43268587D01*
X135197498Y-43253043D01*
X135099361Y-43237500D01*
X134900639Y-43237500D01*
X134835214Y-43247862D01*
X134704362Y-43268587D01*
X134515370Y-43329993D01*
X134515367Y-43329994D01*
X134338305Y-43420213D01*
X134177533Y-43537021D01*
X134037021Y-43677533D01*
X133920213Y-43838305D01*
X133860485Y-43955528D01*
X133812510Y-44006324D01*
X133744689Y-44023119D01*
X133678554Y-44000581D01*
X133639515Y-43955528D01*
X133610967Y-43899500D01*
X133579787Y-43838306D01*
X133462981Y-43677536D01*
X133322464Y-43537019D01*
X133161694Y-43420213D01*
X132984632Y-43329994D01*
X132984629Y-43329993D01*
X132795637Y-43268587D01*
X132697498Y-43253043D01*
X132599361Y-43237500D01*
X132400639Y-43237500D01*
X132335214Y-43247862D01*
X132204362Y-43268587D01*
X132015370Y-43329993D01*
X132015367Y-43329994D01*
X131838305Y-43420213D01*
X131677533Y-43537021D01*
X131537021Y-43677533D01*
X131420213Y-43838305D01*
X131360204Y-43956079D01*
X131312229Y-44006875D01*
X131244408Y-44023670D01*
X131178273Y-44001132D01*
X131139234Y-43956079D01*
X131079358Y-43838567D01*
X131052268Y-43801283D01*
X130381000Y-44472551D01*
X130381000Y-44449840D01*
X130355036Y-44352939D01*
X130304876Y-44266060D01*
X130233940Y-44195124D01*
X130147061Y-44144964D01*
X130050160Y-44119000D01*
X130027447Y-44119000D01*
X130698716Y-43447731D01*
X130698715Y-43447730D01*
X130661432Y-43420641D01*
X130484437Y-43330457D01*
X130295522Y-43269075D01*
X130099321Y-43238000D01*
X129900679Y-43238000D01*
X129704479Y-43269075D01*
X129704476Y-43269075D01*
X129515562Y-43330457D01*
X129338564Y-43420643D01*
X129301283Y-43447729D01*
X129301282Y-43447730D01*
X129972554Y-44119000D01*
X129949840Y-44119000D01*
X129852939Y-44144964D01*
X129766060Y-44195124D01*
X129695124Y-44266060D01*
X129644964Y-44352939D01*
X129619000Y-44449840D01*
X129619000Y-44472552D01*
X128947730Y-43801282D01*
X128947729Y-43801283D01*
X128920643Y-43838564D01*
X128860485Y-43956630D01*
X128812510Y-44007426D01*
X128744689Y-44024221D01*
X128678554Y-44001683D01*
X128639515Y-43956630D01*
X128579358Y-43838567D01*
X128552268Y-43801283D01*
X127881000Y-44472551D01*
X127881000Y-44449840D01*
X127855036Y-44352939D01*
X127804876Y-44266060D01*
X127733940Y-44195124D01*
X127647061Y-44144964D01*
X127550160Y-44119000D01*
X127527447Y-44119000D01*
X128198716Y-43447731D01*
X128198715Y-43447730D01*
X128161432Y-43420641D01*
X127984437Y-43330457D01*
X127795522Y-43269075D01*
X127599321Y-43238000D01*
X127400679Y-43238000D01*
X127204479Y-43269075D01*
X127204476Y-43269075D01*
X127015562Y-43330457D01*
X126838564Y-43420643D01*
X126801283Y-43447729D01*
X126801282Y-43447730D01*
X127472554Y-44119000D01*
X127449840Y-44119000D01*
X127352939Y-44144964D01*
X127266060Y-44195124D01*
X127195124Y-44266060D01*
X127144964Y-44352939D01*
X127119000Y-44449840D01*
X127119000Y-44472552D01*
X126447730Y-43801282D01*
X126447729Y-43801283D01*
X126420643Y-43838564D01*
X126330457Y-44015562D01*
X126269075Y-44204476D01*
X126269075Y-44204479D01*
X126238000Y-44400678D01*
X126238000Y-44599321D01*
X126269075Y-44795520D01*
X126269075Y-44795523D01*
X126330457Y-44984437D01*
X126420641Y-45161432D01*
X126447730Y-45198715D01*
X127119000Y-44527445D01*
X127119000Y-44550160D01*
X127144964Y-44647061D01*
X127195124Y-44733940D01*
X127266060Y-44804876D01*
X127352939Y-44855036D01*
X127449840Y-44881000D01*
X127472553Y-44881000D01*
X126801283Y-45552268D01*
X126801283Y-45552269D01*
X126838567Y-45579358D01*
X127015562Y-45669542D01*
X127204477Y-45730924D01*
X127400679Y-45762000D01*
X127599321Y-45762000D01*
X127795520Y-45730924D01*
X127795523Y-45730924D01*
X127984437Y-45669542D01*
X128161425Y-45579362D01*
X128198716Y-45552268D01*
X127527448Y-44881000D01*
X127550160Y-44881000D01*
X127647061Y-44855036D01*
X127733940Y-44804876D01*
X127804876Y-44733940D01*
X127855036Y-44647061D01*
X127881000Y-44550160D01*
X127881000Y-44527447D01*
X128552268Y-45198715D01*
X128579364Y-45161422D01*
X128639515Y-45043370D01*
X128687489Y-44992573D01*
X128755310Y-44975778D01*
X128821445Y-44998315D01*
X128860485Y-45043369D01*
X128920641Y-45161432D01*
X128947730Y-45198715D01*
X128947731Y-45198716D01*
X129619000Y-44527447D01*
X129619000Y-44550160D01*
X129644964Y-44647061D01*
X129695124Y-44733940D01*
X129766060Y-44804876D01*
X129852939Y-44855036D01*
X129949840Y-44881000D01*
X129972553Y-44881000D01*
X129301283Y-45552268D01*
X129301283Y-45552269D01*
X129338567Y-45579358D01*
X129515562Y-45669542D01*
X129704477Y-45730924D01*
X129900679Y-45762000D01*
X130099321Y-45762000D01*
X130295520Y-45730924D01*
X130295523Y-45730924D01*
X130484437Y-45669542D01*
X130661425Y-45579362D01*
X130698715Y-45552268D01*
X130027448Y-44881000D01*
X130050160Y-44881000D01*
X130147061Y-44855036D01*
X130233940Y-44804876D01*
X130304876Y-44733940D01*
X130355036Y-44647061D01*
X130381000Y-44550160D01*
X130381000Y-44527447D01*
X131052268Y-45198715D01*
X131079364Y-45161422D01*
X131139234Y-45043921D01*
X131187208Y-44993124D01*
X131255029Y-44976329D01*
X131321164Y-44998866D01*
X131360203Y-45043919D01*
X131420213Y-45161694D01*
X131537019Y-45322464D01*
X131677536Y-45462981D01*
X131838306Y-45579787D01*
X131887605Y-45604906D01*
X132015367Y-45670005D01*
X132015370Y-45670006D01*
X132109866Y-45700709D01*
X132204364Y-45731413D01*
X132400639Y-45762500D01*
X132400640Y-45762500D01*
X132599360Y-45762500D01*
X132599361Y-45762500D01*
X132795636Y-45731413D01*
X132980677Y-45671290D01*
X132984629Y-45670006D01*
X132984632Y-45670005D01*
X132987802Y-45668390D01*
X133161694Y-45579787D01*
X133322464Y-45462981D01*
X133462981Y-45322464D01*
X133579787Y-45161694D01*
X133639515Y-45044470D01*
X133687490Y-44993675D01*
X133755311Y-44976880D01*
X133821445Y-44999417D01*
X133860484Y-45044469D01*
X133920213Y-45161694D01*
X134037019Y-45322464D01*
X134177536Y-45462981D01*
X134338306Y-45579787D01*
X134387605Y-45604906D01*
X134515367Y-45670005D01*
X134515370Y-45670006D01*
X134609866Y-45700709D01*
X134704364Y-45731413D01*
X134900639Y-45762500D01*
X134900640Y-45762500D01*
X135099360Y-45762500D01*
X135099361Y-45762500D01*
X135295636Y-45731413D01*
X135480677Y-45671290D01*
X135484629Y-45670006D01*
X135484632Y-45670005D01*
X135487802Y-45668390D01*
X135661694Y-45579787D01*
X135822464Y-45462981D01*
X135962981Y-45322464D01*
X136079787Y-45161694D01*
X136139515Y-45044470D01*
X136187490Y-44993675D01*
X136255311Y-44976880D01*
X136321445Y-44999417D01*
X136360484Y-45044469D01*
X136420213Y-45161694D01*
X136537019Y-45322464D01*
X136677536Y-45462981D01*
X136838306Y-45579787D01*
X136887605Y-45604906D01*
X137015367Y-45670005D01*
X137015370Y-45670006D01*
X137109866Y-45700709D01*
X137204364Y-45731413D01*
X137400639Y-45762500D01*
X137400640Y-45762500D01*
X137599360Y-45762500D01*
X137599361Y-45762500D01*
X137795636Y-45731413D01*
X137980677Y-45671290D01*
X137984629Y-45670006D01*
X137984632Y-45670005D01*
X137987802Y-45668390D01*
X138161694Y-45579787D01*
X138322464Y-45462981D01*
X138462981Y-45322464D01*
X138579787Y-45161694D01*
X138639796Y-45043919D01*
X138687769Y-44993124D01*
X138755590Y-44976329D01*
X138821725Y-44998866D01*
X138860765Y-45043920D01*
X138920641Y-45161432D01*
X138947730Y-45198715D01*
X138947731Y-45198716D01*
X139619000Y-44527447D01*
X139619000Y-44550160D01*
X139644964Y-44647061D01*
X139695124Y-44733940D01*
X139766060Y-44804876D01*
X139852939Y-44855036D01*
X139949840Y-44881000D01*
X139972553Y-44881000D01*
X139301283Y-45552268D01*
X139301283Y-45552269D01*
X139338567Y-45579358D01*
X139515562Y-45669542D01*
X139704477Y-45730924D01*
X139900679Y-45762000D01*
X140099321Y-45762000D01*
X140295520Y-45730924D01*
X140295523Y-45730924D01*
X140484437Y-45669542D01*
X140661425Y-45579362D01*
X140698716Y-45552268D01*
X140027448Y-44881000D01*
X140050160Y-44881000D01*
X140147061Y-44855036D01*
X140233940Y-44804876D01*
X140304876Y-44733940D01*
X140355036Y-44647061D01*
X140381000Y-44550160D01*
X140381000Y-44527447D01*
X141052268Y-45198715D01*
X141079364Y-45161422D01*
X141139234Y-45043921D01*
X141187208Y-44993124D01*
X141255029Y-44976329D01*
X141321164Y-44998866D01*
X141360203Y-45043919D01*
X141420213Y-45161694D01*
X141537019Y-45322464D01*
X141677536Y-45462981D01*
X141838306Y-45579787D01*
X141887605Y-45604906D01*
X142015367Y-45670005D01*
X142015370Y-45670006D01*
X142109866Y-45700709D01*
X142204364Y-45731413D01*
X142400639Y-45762500D01*
X142400640Y-45762500D01*
X142599360Y-45762500D01*
X142599361Y-45762500D01*
X142795636Y-45731413D01*
X142903817Y-45696263D01*
X142983464Y-45670385D01*
X143053305Y-45668390D01*
X143113138Y-45704471D01*
X143143399Y-45764124D01*
X143163761Y-45866491D01*
X143163764Y-45866501D01*
X143224102Y-46012172D01*
X143224109Y-46012185D01*
X143311710Y-46143288D01*
X143311713Y-46143292D01*
X143320561Y-46152140D01*
X143354046Y-46213463D01*
X143349062Y-46283155D01*
X143320561Y-46327502D01*
X142914971Y-46733092D01*
X142859387Y-46765185D01*
X142819317Y-46775922D01*
X142819309Y-46775926D01*
X142682390Y-46854975D01*
X142682382Y-46854981D01*
X140938381Y-48598982D01*
X140938379Y-48598985D01*
X140921841Y-48627631D01*
X140899575Y-48666197D01*
X140859323Y-48735915D01*
X140818399Y-48888643D01*
X140818399Y-48888645D01*
X140818399Y-48983792D01*
X140798714Y-49050831D01*
X140782080Y-49071473D01*
X140381000Y-49472552D01*
X140381000Y-49449840D01*
X140355036Y-49352939D01*
X140304876Y-49266060D01*
X140233940Y-49195124D01*
X140147061Y-49144964D01*
X140050160Y-49119000D01*
X140027447Y-49119000D01*
X140698716Y-48447731D01*
X140698715Y-48447730D01*
X140661432Y-48420641D01*
X140484437Y-48330457D01*
X140295522Y-48269075D01*
X140099321Y-48238000D01*
X139900679Y-48238000D01*
X139704479Y-48269075D01*
X139704476Y-48269075D01*
X139515562Y-48330457D01*
X139338564Y-48420643D01*
X139301283Y-48447729D01*
X139301282Y-48447730D01*
X139972554Y-49119000D01*
X139949840Y-49119000D01*
X139852939Y-49144964D01*
X139766060Y-49195124D01*
X139695124Y-49266060D01*
X139644964Y-49352939D01*
X139619000Y-49449840D01*
X139619000Y-49472552D01*
X138947730Y-48801282D01*
X138947729Y-48801283D01*
X138920641Y-48838566D01*
X138860764Y-48956080D01*
X138812790Y-49006875D01*
X138744968Y-49023670D01*
X138678834Y-49001132D01*
X138639796Y-48956080D01*
X138579787Y-48838306D01*
X138462981Y-48677536D01*
X138322464Y-48537019D01*
X138161694Y-48420213D01*
X138132795Y-48405488D01*
X137984632Y-48329994D01*
X137984629Y-48329993D01*
X137795637Y-48268587D01*
X137697498Y-48253043D01*
X137599361Y-48237500D01*
X137400639Y-48237500D01*
X137335214Y-48247862D01*
X137204362Y-48268587D01*
X137015370Y-48329993D01*
X137015367Y-48329994D01*
X136838305Y-48420213D01*
X136677533Y-48537021D01*
X136537021Y-48677533D01*
X136420213Y-48838305D01*
X136360485Y-48955528D01*
X136312510Y-49006324D01*
X136244689Y-49023119D01*
X136178554Y-49000581D01*
X136139515Y-48955528D01*
X136110967Y-48899500D01*
X136079787Y-48838306D01*
X135962981Y-48677536D01*
X135822464Y-48537019D01*
X135661694Y-48420213D01*
X135632795Y-48405488D01*
X135484632Y-48329994D01*
X135484629Y-48329993D01*
X135295637Y-48268587D01*
X135197498Y-48253043D01*
X135099361Y-48237500D01*
X134900639Y-48237500D01*
X134835214Y-48247862D01*
X134704362Y-48268587D01*
X134515370Y-48329993D01*
X134515367Y-48329994D01*
X134338305Y-48420213D01*
X134177533Y-48537021D01*
X134037021Y-48677533D01*
X133920213Y-48838305D01*
X133860485Y-48955528D01*
X133812510Y-49006324D01*
X133744689Y-49023119D01*
X133678554Y-49000581D01*
X133639515Y-48955528D01*
X133610967Y-48899500D01*
X133579787Y-48838306D01*
X133462981Y-48677536D01*
X133322464Y-48537019D01*
X133161694Y-48420213D01*
X133132795Y-48405488D01*
X132984632Y-48329994D01*
X132984629Y-48329993D01*
X132795637Y-48268587D01*
X132697498Y-48253043D01*
X132599361Y-48237500D01*
X132400639Y-48237500D01*
X132335214Y-48247862D01*
X132204362Y-48268587D01*
X132015370Y-48329993D01*
X132015367Y-48329994D01*
X131838305Y-48420213D01*
X131677533Y-48537021D01*
X131537021Y-48677533D01*
X131420213Y-48838305D01*
X131360204Y-48956079D01*
X131312229Y-49006875D01*
X131244408Y-49023670D01*
X131178273Y-49001132D01*
X131139234Y-48956079D01*
X131079358Y-48838567D01*
X131052268Y-48801283D01*
X130381000Y-49472551D01*
X130381000Y-49449840D01*
X130355036Y-49352939D01*
X130304876Y-49266060D01*
X130233940Y-49195124D01*
X130147061Y-49144964D01*
X130050160Y-49119000D01*
X130027447Y-49119000D01*
X130698716Y-48447731D01*
X130698715Y-48447730D01*
X130661432Y-48420641D01*
X130484437Y-48330457D01*
X130295522Y-48269075D01*
X130099321Y-48238000D01*
X129900679Y-48238000D01*
X129704479Y-48269075D01*
X129704476Y-48269075D01*
X129515562Y-48330457D01*
X129338564Y-48420643D01*
X129301283Y-48447729D01*
X129301282Y-48447730D01*
X129972554Y-49119000D01*
X129949840Y-49119000D01*
X129852939Y-49144964D01*
X129766060Y-49195124D01*
X129695124Y-49266060D01*
X129644964Y-49352939D01*
X129619000Y-49449840D01*
X129619000Y-49472552D01*
X128947730Y-48801282D01*
X128947729Y-48801283D01*
X128920643Y-48838564D01*
X128860485Y-48956630D01*
X128812510Y-49007426D01*
X128744689Y-49024221D01*
X128678554Y-49001683D01*
X128639515Y-48956630D01*
X128579358Y-48838567D01*
X128552268Y-48801283D01*
X127881000Y-49472551D01*
X127881000Y-49449840D01*
X127855036Y-49352939D01*
X127804876Y-49266060D01*
X127733940Y-49195124D01*
X127647061Y-49144964D01*
X127550160Y-49119000D01*
X127527447Y-49119000D01*
X128198716Y-48447731D01*
X128198715Y-48447730D01*
X128161432Y-48420641D01*
X127984437Y-48330457D01*
X127795522Y-48269075D01*
X127599321Y-48238000D01*
X127400679Y-48238000D01*
X127204479Y-48269075D01*
X127204476Y-48269075D01*
X127015562Y-48330457D01*
X126838564Y-48420643D01*
X126801283Y-48447729D01*
X126801282Y-48447730D01*
X127472554Y-49119000D01*
X127449840Y-49119000D01*
X127352939Y-49144964D01*
X127266060Y-49195124D01*
X127195124Y-49266060D01*
X127144964Y-49352939D01*
X127119000Y-49449840D01*
X127119000Y-49472552D01*
X126447730Y-48801282D01*
X126447729Y-48801283D01*
X126420643Y-48838564D01*
X126330457Y-49015562D01*
X126269075Y-49204476D01*
X126269075Y-49204479D01*
X126238000Y-49400678D01*
X126238000Y-49599321D01*
X126269075Y-49795520D01*
X126269075Y-49795523D01*
X126330457Y-49984437D01*
X126420641Y-50161432D01*
X126447730Y-50198715D01*
X127119000Y-49527445D01*
X127119000Y-49550160D01*
X127144964Y-49647061D01*
X127195124Y-49733940D01*
X127266060Y-49804876D01*
X127352939Y-49855036D01*
X127449840Y-49881000D01*
X127472553Y-49881000D01*
X126801283Y-50552268D01*
X126801283Y-50552269D01*
X126838567Y-50579358D01*
X127015562Y-50669542D01*
X127204477Y-50730924D01*
X127400679Y-50762000D01*
X127599321Y-50762000D01*
X127795520Y-50730924D01*
X127795523Y-50730924D01*
X127984437Y-50669542D01*
X128161425Y-50579362D01*
X128198716Y-50552268D01*
X127527448Y-49881000D01*
X127550160Y-49881000D01*
X127647061Y-49855036D01*
X127733940Y-49804876D01*
X127804876Y-49733940D01*
X127855036Y-49647061D01*
X127881000Y-49550160D01*
X127881000Y-49527447D01*
X128552268Y-50198715D01*
X128579364Y-50161422D01*
X128639515Y-50043370D01*
X128687489Y-49992573D01*
X128755310Y-49975778D01*
X128821445Y-49998315D01*
X128860485Y-50043369D01*
X128920641Y-50161432D01*
X128947730Y-50198715D01*
X128947731Y-50198716D01*
X129619000Y-49527447D01*
X129619000Y-49550160D01*
X129644964Y-49647061D01*
X129695124Y-49733940D01*
X129766060Y-49804876D01*
X129852939Y-49855036D01*
X129949840Y-49881000D01*
X129972553Y-49881000D01*
X129301283Y-50552268D01*
X129301283Y-50552269D01*
X129338567Y-50579358D01*
X129515562Y-50669542D01*
X129704477Y-50730924D01*
X129900679Y-50762000D01*
X130099321Y-50762000D01*
X130295520Y-50730924D01*
X130295523Y-50730924D01*
X130484437Y-50669542D01*
X130661425Y-50579362D01*
X130698716Y-50552268D01*
X130027448Y-49881000D01*
X130050160Y-49881000D01*
X130147061Y-49855036D01*
X130233940Y-49804876D01*
X130304876Y-49733940D01*
X130355036Y-49647061D01*
X130381000Y-49550160D01*
X130381000Y-49527447D01*
X131052268Y-50198715D01*
X131079364Y-50161422D01*
X131139234Y-50043921D01*
X131187208Y-49993124D01*
X131255029Y-49976329D01*
X131321164Y-49998866D01*
X131360203Y-50043919D01*
X131420213Y-50161694D01*
X131537019Y-50322464D01*
X131677536Y-50462981D01*
X131838306Y-50579787D01*
X131918145Y-50620467D01*
X132015367Y-50670005D01*
X132015370Y-50670006D01*
X132109866Y-50700709D01*
X132204364Y-50731413D01*
X132400639Y-50762500D01*
X132400640Y-50762500D01*
X132599360Y-50762500D01*
X132599361Y-50762500D01*
X132795636Y-50731413D01*
X132795646Y-50731409D01*
X132797891Y-50730871D01*
X132798778Y-50730915D01*
X132800448Y-50730651D01*
X132800503Y-50731001D01*
X132867674Y-50734357D01*
X132914527Y-50763762D01*
X138782539Y-56631774D01*
X138782549Y-56631785D01*
X138786879Y-56636115D01*
X138786880Y-56636116D01*
X138898684Y-56747920D01*
X138950245Y-56777688D01*
X138985495Y-56798039D01*
X138985497Y-56798041D01*
X139023551Y-56820011D01*
X139035615Y-56826977D01*
X139188343Y-56867901D01*
X139188346Y-56867901D01*
X139354053Y-56867901D01*
X139354069Y-56867900D01*
X174715534Y-56867900D01*
X174782573Y-56887585D01*
X174784425Y-56888798D01*
X174916114Y-56976790D01*
X174916127Y-56976797D01*
X175061798Y-57037135D01*
X175061803Y-57037137D01*
X175216453Y-57067899D01*
X175216456Y-57067900D01*
X175216458Y-57067900D01*
X175374144Y-57067900D01*
X175374145Y-57067899D01*
X175528797Y-57037137D01*
X175674479Y-56976794D01*
X175805589Y-56889189D01*
X175917089Y-56777689D01*
X176004694Y-56646579D01*
X176065037Y-56500897D01*
X176095800Y-56346242D01*
X176095800Y-56188558D01*
X176095800Y-56188555D01*
X176095799Y-56188553D01*
X176065038Y-56033910D01*
X176065037Y-56033903D01*
X176065035Y-56033898D01*
X176004697Y-55888227D01*
X176004690Y-55888214D01*
X175917089Y-55757111D01*
X175917086Y-55757107D01*
X175805592Y-55645613D01*
X175805588Y-55645610D01*
X175674485Y-55558009D01*
X175674472Y-55558002D01*
X175552676Y-55507554D01*
X175498272Y-55463714D01*
X175476207Y-55397420D01*
X175478510Y-55368805D01*
X175501100Y-55255242D01*
X175501100Y-55097558D01*
X175501100Y-55097555D01*
X175501099Y-55097553D01*
X175470338Y-54942910D01*
X175470337Y-54942903D01*
X175426553Y-54837198D01*
X175409997Y-54797227D01*
X175409990Y-54797214D01*
X175322389Y-54666111D01*
X175322386Y-54666107D01*
X175210892Y-54554613D01*
X175210888Y-54554610D01*
X175079785Y-54467009D01*
X175079772Y-54467002D01*
X174934101Y-54406664D01*
X174934089Y-54406661D01*
X174779445Y-54375900D01*
X174779442Y-54375900D01*
X174621758Y-54375900D01*
X174568571Y-54386479D01*
X174498979Y-54380250D01*
X174443803Y-54337387D01*
X174420559Y-54271497D01*
X174436628Y-54203500D01*
X174475491Y-54161759D01*
X174561906Y-54104018D01*
X174610589Y-54071489D01*
X174722089Y-53959989D01*
X174809694Y-53828879D01*
X174870037Y-53683197D01*
X174900800Y-53528542D01*
X174900800Y-53370858D01*
X174900800Y-53370855D01*
X174900799Y-53370853D01*
X174870038Y-53216210D01*
X174870037Y-53216203D01*
X174870035Y-53216198D01*
X174809697Y-53070527D01*
X174809690Y-53070514D01*
X174722089Y-52939411D01*
X174722086Y-52939407D01*
X174610592Y-52827913D01*
X174610588Y-52827910D01*
X174479485Y-52740309D01*
X174479472Y-52740302D01*
X174343554Y-52684004D01*
X174289150Y-52640163D01*
X174269389Y-52593634D01*
X174246107Y-52476592D01*
X174244737Y-52469703D01*
X174215870Y-52400011D01*
X174184397Y-52324027D01*
X174184390Y-52324014D01*
X174096789Y-52192911D01*
X174096786Y-52192907D01*
X173985292Y-52081413D01*
X173985288Y-52081410D01*
X173854185Y-51993809D01*
X173854172Y-51993802D01*
X173708499Y-51933463D01*
X173708494Y-51933462D01*
X173684310Y-51928651D01*
X173680568Y-51926693D01*
X173676349Y-51926792D01*
X173649879Y-51910639D01*
X173622399Y-51896264D01*
X173619285Y-51891970D01*
X173616707Y-51890397D01*
X173606728Y-51874655D01*
X173596940Y-51861158D01*
X173594809Y-51856765D01*
X173594737Y-51856403D01*
X173534394Y-51710721D01*
X173496294Y-51653701D01*
X173492570Y-51646024D01*
X173488147Y-51619641D01*
X173480154Y-51594114D01*
X173482458Y-51585711D01*
X173481018Y-51577116D01*
X173491561Y-51552528D01*
X173498638Y-51526734D01*
X173505120Y-51520910D01*
X173508555Y-51512902D01*
X173530715Y-51497920D01*
X173550617Y-51480043D01*
X173560462Y-51477809D01*
X173566438Y-51473769D01*
X173579621Y-51473461D01*
X173604134Y-51467900D01*
X177571403Y-51467900D01*
X177638442Y-51487585D01*
X177659084Y-51504219D01*
X183828425Y-57673560D01*
X183861910Y-57734883D01*
X183862361Y-57737049D01*
X183893261Y-57892391D01*
X183893264Y-57892401D01*
X183953602Y-58038072D01*
X183953609Y-58038085D01*
X184041210Y-58169188D01*
X184041213Y-58169192D01*
X184152707Y-58280686D01*
X184152711Y-58280689D01*
X184283814Y-58368290D01*
X184283827Y-58368297D01*
X184429498Y-58428635D01*
X184429503Y-58428637D01*
X184584153Y-58459399D01*
X184584156Y-58459400D01*
X184584158Y-58459400D01*
X184741844Y-58459400D01*
X184741845Y-58459399D01*
X184896497Y-58428637D01*
X185042179Y-58368294D01*
X185173289Y-58280689D01*
X185173300Y-58280677D01*
X185173361Y-58280629D01*
X185173411Y-58280607D01*
X185178354Y-58277305D01*
X185178979Y-58278241D01*
X185237665Y-58253303D01*
X185276234Y-58254849D01*
X185309067Y-58261380D01*
X185400155Y-58279500D01*
X185400158Y-58279500D01*
X185557844Y-58279500D01*
X185557845Y-58279499D01*
X185712497Y-58248737D01*
X185858179Y-58188394D01*
X185989289Y-58100789D01*
X186100789Y-57989289D01*
X186188394Y-57858179D01*
X186248737Y-57712497D01*
X186279500Y-57557842D01*
X186279500Y-57400158D01*
X186279500Y-57400155D01*
X186279499Y-57400153D01*
X186248738Y-57245510D01*
X186248737Y-57245503D01*
X186248735Y-57245498D01*
X186188397Y-57099827D01*
X186188390Y-57099814D01*
X186100789Y-56968711D01*
X186100786Y-56968707D01*
X185989292Y-56857213D01*
X185989288Y-56857210D01*
X185858185Y-56769609D01*
X185858172Y-56769602D01*
X185712501Y-56709264D01*
X185712491Y-56709261D01*
X185557149Y-56678361D01*
X185495238Y-56645976D01*
X185493660Y-56644425D01*
X184732116Y-55882881D01*
X184721503Y-55863444D01*
X184707003Y-55846711D01*
X184705086Y-55833379D01*
X184698631Y-55821558D01*
X184700210Y-55799471D01*
X184697059Y-55777553D01*
X184702654Y-55765301D01*
X184703615Y-55751866D01*
X184716885Y-55734139D01*
X184726084Y-55713997D01*
X184737415Y-55706714D01*
X184745487Y-55695933D01*
X184766232Y-55688195D01*
X184784862Y-55676223D01*
X184806780Y-55673071D01*
X184810951Y-55671516D01*
X184819797Y-55671200D01*
X184970434Y-55671200D01*
X185037473Y-55690885D01*
X185039325Y-55692098D01*
X185171014Y-55780090D01*
X185171027Y-55780097D01*
X185299663Y-55833379D01*
X185316703Y-55840437D01*
X185471353Y-55871199D01*
X185471356Y-55871200D01*
X185471358Y-55871200D01*
X185629044Y-55871200D01*
X185629045Y-55871199D01*
X185783697Y-55840437D01*
X185929379Y-55780094D01*
X186060489Y-55692489D01*
X186171989Y-55580989D01*
X186259594Y-55449879D01*
X186319937Y-55304197D01*
X186350700Y-55149542D01*
X186350700Y-54991858D01*
X186350700Y-54991855D01*
X186350699Y-54991853D01*
X186319937Y-54837203D01*
X186303373Y-54797214D01*
X186259597Y-54691527D01*
X186259590Y-54691514D01*
X186171989Y-54560411D01*
X186171986Y-54560407D01*
X186060492Y-54448913D01*
X186060488Y-54448910D01*
X185929385Y-54361309D01*
X185929372Y-54361302D01*
X185783701Y-54300964D01*
X185783689Y-54300961D01*
X185629045Y-54270200D01*
X185629042Y-54270200D01*
X185471358Y-54270200D01*
X185471355Y-54270200D01*
X185316710Y-54300961D01*
X185316698Y-54300964D01*
X185171027Y-54361302D01*
X185171014Y-54361309D01*
X185039325Y-54449302D01*
X184972647Y-54470180D01*
X184970434Y-54470200D01*
X184345697Y-54470200D01*
X184278658Y-54450515D01*
X184258016Y-54433881D01*
X181219389Y-51395254D01*
X181209292Y-51376763D01*
X181195211Y-51361086D01*
X181192881Y-51346710D01*
X181185904Y-51333931D01*
X181187406Y-51312915D01*
X181184037Y-51292115D01*
X181189849Y-51278763D01*
X181190888Y-51264239D01*
X181203514Y-51247372D01*
X181211925Y-51228052D01*
X181230400Y-51211458D01*
X181232760Y-51208306D01*
X181238150Y-51204491D01*
X181266589Y-51185489D01*
X181266588Y-51185489D01*
X181267179Y-51185095D01*
X181333857Y-51164220D01*
X181336066Y-51164200D01*
X182917231Y-51164200D01*
X182917247Y-51164201D01*
X182924843Y-51164201D01*
X183082954Y-51164201D01*
X183082957Y-51164201D01*
X183235685Y-51123277D01*
X183300889Y-51085631D01*
X183372616Y-51044220D01*
X183484420Y-50932416D01*
X183484421Y-50932414D01*
X183978015Y-50438819D01*
X184039337Y-50405336D01*
X184109029Y-50410320D01*
X184153376Y-50438821D01*
X184177536Y-50462981D01*
X184338306Y-50579787D01*
X184418145Y-50620467D01*
X184515367Y-50670005D01*
X184515370Y-50670006D01*
X184609866Y-50700709D01*
X184704364Y-50731413D01*
X184900639Y-50762500D01*
X184900640Y-50762500D01*
X185099360Y-50762500D01*
X185099361Y-50762500D01*
X185295636Y-50731413D01*
X185476851Y-50672532D01*
X185492059Y-50672098D01*
X185506319Y-50666780D01*
X185526274Y-50671121D01*
X185546689Y-50670538D01*
X185560776Y-50678626D01*
X185574592Y-50681632D01*
X185602841Y-50702778D01*
X185602844Y-50702780D01*
X185694984Y-50794920D01*
X185694986Y-50794921D01*
X185702056Y-50801991D01*
X186881025Y-51980960D01*
X186914510Y-52042283D01*
X186914961Y-52044449D01*
X186945861Y-52199791D01*
X186945864Y-52199801D01*
X187006202Y-52345472D01*
X187006209Y-52345485D01*
X187093810Y-52476588D01*
X187093813Y-52476592D01*
X187205307Y-52588086D01*
X187205311Y-52588089D01*
X187336414Y-52675690D01*
X187336427Y-52675697D01*
X187482098Y-52736035D01*
X187482103Y-52736037D01*
X187636753Y-52766799D01*
X187636756Y-52766800D01*
X187636758Y-52766800D01*
X187794444Y-52766800D01*
X187794445Y-52766799D01*
X187949097Y-52736037D01*
X188094779Y-52675694D01*
X188225889Y-52588089D01*
X188337389Y-52476589D01*
X188424994Y-52345479D01*
X188485337Y-52199797D01*
X188516100Y-52045142D01*
X188516100Y-51887458D01*
X188516100Y-51887455D01*
X188516099Y-51887453D01*
X188513553Y-51874655D01*
X188485337Y-51732803D01*
X188485335Y-51732798D01*
X188424997Y-51587127D01*
X188424990Y-51587114D01*
X188337389Y-51456011D01*
X188337386Y-51456007D01*
X188225892Y-51344513D01*
X188225888Y-51344510D01*
X188094785Y-51256909D01*
X188094772Y-51256902D01*
X187949101Y-51196564D01*
X187949091Y-51196561D01*
X187793749Y-51165661D01*
X187776992Y-51156895D01*
X187758514Y-51152876D01*
X187733477Y-51134133D01*
X187731838Y-51133276D01*
X187730260Y-51131725D01*
X187565267Y-50966732D01*
X187531782Y-50905409D01*
X187536766Y-50835717D01*
X187578638Y-50779784D01*
X187633550Y-50756578D01*
X187795520Y-50730924D01*
X187795523Y-50730924D01*
X187984437Y-50669542D01*
X188161425Y-50579362D01*
X188198715Y-50552268D01*
X187527446Y-49881000D01*
X187550160Y-49881000D01*
X187647061Y-49855036D01*
X187733940Y-49804876D01*
X187804876Y-49733940D01*
X187855036Y-49647061D01*
X187881000Y-49550160D01*
X187881000Y-49527447D01*
X188552268Y-50198715D01*
X188579362Y-50161425D01*
X188669542Y-49984437D01*
X188730924Y-49795523D01*
X188730924Y-49795520D01*
X188762000Y-49599321D01*
X188762000Y-49400678D01*
X188730924Y-49204479D01*
X188730924Y-49204476D01*
X188669542Y-49015562D01*
X188579358Y-48838567D01*
X188552268Y-48801283D01*
X187881000Y-49472551D01*
X187881000Y-49449840D01*
X187855036Y-49352939D01*
X187804876Y-49266060D01*
X187733940Y-49195124D01*
X187647061Y-49144964D01*
X187550160Y-49119000D01*
X187527447Y-49119000D01*
X188198716Y-48447731D01*
X188198715Y-48447730D01*
X188161432Y-48420641D01*
X187984437Y-48330457D01*
X187795522Y-48269075D01*
X187599321Y-48238000D01*
X187400679Y-48238000D01*
X187204479Y-48269075D01*
X187204476Y-48269075D01*
X187015562Y-48330457D01*
X186838564Y-48420643D01*
X186801283Y-48447729D01*
X186801282Y-48447730D01*
X187472554Y-49119000D01*
X187449840Y-49119000D01*
X187352939Y-49144964D01*
X187266060Y-49195124D01*
X187195124Y-49266060D01*
X187144964Y-49352939D01*
X187119000Y-49449840D01*
X187119000Y-49472553D01*
X186700520Y-49054073D01*
X186667035Y-48992750D01*
X186664201Y-48966392D01*
X186664201Y-48920344D01*
X186664201Y-48920343D01*
X186623277Y-48767616D01*
X186604975Y-48735915D01*
X186544224Y-48630690D01*
X186544218Y-48630682D01*
X186496207Y-48582671D01*
X183178190Y-45264655D01*
X183178188Y-45264652D01*
X183059317Y-45145781D01*
X183059316Y-45145780D01*
X182972504Y-45095660D01*
X182972504Y-45095659D01*
X182972500Y-45095658D01*
X182922385Y-45066723D01*
X182769657Y-45025799D01*
X182723607Y-45025799D01*
X182656568Y-45006114D01*
X182635926Y-44989480D01*
X182527446Y-44881000D01*
X182550160Y-44881000D01*
X182647061Y-44855036D01*
X182733940Y-44804876D01*
X182804876Y-44733940D01*
X182855036Y-44647061D01*
X182881000Y-44550160D01*
X182881000Y-44527447D01*
X183552268Y-45198715D01*
X183579364Y-45161422D01*
X183639234Y-45043921D01*
X183687208Y-44993124D01*
X183755029Y-44976329D01*
X183821164Y-44998866D01*
X183860203Y-45043919D01*
X183920213Y-45161694D01*
X184037019Y-45322464D01*
X184177536Y-45462981D01*
X184338306Y-45579787D01*
X184387605Y-45604906D01*
X184515367Y-45670005D01*
X184515370Y-45670006D01*
X184609866Y-45700709D01*
X184704364Y-45731413D01*
X184900639Y-45762500D01*
X184900640Y-45762500D01*
X185099360Y-45762500D01*
X185099361Y-45762500D01*
X185295636Y-45731413D01*
X185480677Y-45671290D01*
X185484629Y-45670006D01*
X185484632Y-45670005D01*
X185487802Y-45668390D01*
X185661694Y-45579787D01*
X185822464Y-45462981D01*
X185962981Y-45322464D01*
X186079787Y-45161694D01*
X186139796Y-45043919D01*
X186187769Y-44993124D01*
X186255590Y-44976329D01*
X186321725Y-44998866D01*
X186360765Y-45043920D01*
X186420641Y-45161432D01*
X186447730Y-45198715D01*
X187119000Y-44527445D01*
X187119000Y-44550160D01*
X187144964Y-44647061D01*
X187195124Y-44733940D01*
X187266060Y-44804876D01*
X187352939Y-44855036D01*
X187449840Y-44881000D01*
X187472553Y-44881000D01*
X186801283Y-45552268D01*
X186801283Y-45552269D01*
X186838567Y-45579358D01*
X187015562Y-45669542D01*
X187204477Y-45730924D01*
X187400679Y-45762000D01*
X187599321Y-45762000D01*
X187795520Y-45730924D01*
X187795523Y-45730924D01*
X187984437Y-45669542D01*
X188161425Y-45579362D01*
X188198715Y-45552268D01*
X187527448Y-44881000D01*
X187550160Y-44881000D01*
X187647061Y-44855036D01*
X187733940Y-44804876D01*
X187804876Y-44733940D01*
X187855036Y-44647061D01*
X187881000Y-44550160D01*
X187881000Y-44527447D01*
X188552268Y-45198715D01*
X188579362Y-45161425D01*
X188669542Y-44984437D01*
X188730924Y-44795523D01*
X188730924Y-44795520D01*
X188762000Y-44599321D01*
X188762000Y-44400678D01*
X188730924Y-44204479D01*
X188730924Y-44204476D01*
X188669542Y-44015562D01*
X188579358Y-43838567D01*
X188552268Y-43801283D01*
X187881000Y-44472551D01*
X187881000Y-44449840D01*
X187855036Y-44352939D01*
X187804876Y-44266060D01*
X187733940Y-44195124D01*
X187647061Y-44144964D01*
X187550160Y-44119000D01*
X187527447Y-44119000D01*
X188198716Y-43447731D01*
X188198715Y-43447730D01*
X188161432Y-43420641D01*
X187984437Y-43330457D01*
X187795522Y-43269075D01*
X187599321Y-43238000D01*
X187400679Y-43238000D01*
X187204479Y-43269075D01*
X187204476Y-43269075D01*
X187015562Y-43330457D01*
X186838564Y-43420643D01*
X186801283Y-43447729D01*
X186801282Y-43447730D01*
X187472554Y-44119000D01*
X187449840Y-44119000D01*
X187352939Y-44144964D01*
X187266060Y-44195124D01*
X187195124Y-44266060D01*
X187144964Y-44352939D01*
X187119000Y-44449840D01*
X187119000Y-44472552D01*
X186447730Y-43801282D01*
X186447729Y-43801283D01*
X186420641Y-43838566D01*
X186360764Y-43956080D01*
X186312790Y-44006875D01*
X186244968Y-44023670D01*
X186178834Y-44001132D01*
X186139796Y-43956080D01*
X186079787Y-43838306D01*
X185962981Y-43677536D01*
X185822464Y-43537019D01*
X185661694Y-43420213D01*
X185484632Y-43329994D01*
X185484629Y-43329993D01*
X185295637Y-43268587D01*
X185197498Y-43253043D01*
X185099361Y-43237500D01*
X184900639Y-43237500D01*
X184835214Y-43247862D01*
X184704362Y-43268587D01*
X184515370Y-43329993D01*
X184515367Y-43329994D01*
X184338305Y-43420213D01*
X184177533Y-43537021D01*
X184037021Y-43677533D01*
X183920213Y-43838305D01*
X183860204Y-43956079D01*
X183812229Y-44006875D01*
X183744408Y-44023670D01*
X183678273Y-44001132D01*
X183639234Y-43956079D01*
X183579358Y-43838567D01*
X183552268Y-43801283D01*
X182881000Y-44472551D01*
X182881000Y-44449840D01*
X182855036Y-44352939D01*
X182804876Y-44266060D01*
X182733940Y-44195124D01*
X182647061Y-44144964D01*
X182550160Y-44119000D01*
X182527447Y-44119000D01*
X183198716Y-43447731D01*
X183198715Y-43447730D01*
X183161432Y-43420641D01*
X182984437Y-43330457D01*
X182795522Y-43269075D01*
X182599321Y-43238000D01*
X182400679Y-43238000D01*
X182204479Y-43269075D01*
X182204476Y-43269075D01*
X182015562Y-43330457D01*
X181838564Y-43420643D01*
X181801283Y-43447729D01*
X181801282Y-43447730D01*
X182472554Y-44119000D01*
X182449840Y-44119000D01*
X182352939Y-44144964D01*
X182266060Y-44195124D01*
X182195124Y-44266060D01*
X182144964Y-44352939D01*
X182119000Y-44449840D01*
X182119000Y-44472553D01*
X181447730Y-43801282D01*
X181447729Y-43801283D01*
X181420643Y-43838564D01*
X181360485Y-43956630D01*
X181312510Y-44007426D01*
X181244689Y-44024221D01*
X181178554Y-44001683D01*
X181139515Y-43956630D01*
X181079358Y-43838567D01*
X181052268Y-43801283D01*
X180381000Y-44472551D01*
X180381000Y-44449840D01*
X180355036Y-44352939D01*
X180304876Y-44266060D01*
X180233940Y-44195124D01*
X180147061Y-44144964D01*
X180050160Y-44119000D01*
X180027447Y-44119000D01*
X180698716Y-43447731D01*
X180698715Y-43447730D01*
X180661432Y-43420641D01*
X180484437Y-43330457D01*
X180295522Y-43269075D01*
X180099321Y-43238000D01*
X179900679Y-43238000D01*
X179704479Y-43269075D01*
X179704476Y-43269075D01*
X179515562Y-43330457D01*
X179338564Y-43420643D01*
X179301283Y-43447729D01*
X179301282Y-43447730D01*
X179972554Y-44119000D01*
X179949840Y-44119000D01*
X179852939Y-44144964D01*
X179766060Y-44195124D01*
X179695124Y-44266060D01*
X179644964Y-44352939D01*
X179619000Y-44449840D01*
X179619000Y-44472552D01*
X178947730Y-43801282D01*
X178947729Y-43801283D01*
X178920641Y-43838566D01*
X178860764Y-43956080D01*
X178812790Y-44006875D01*
X178744968Y-44023670D01*
X178678834Y-44001132D01*
X178639796Y-43956080D01*
X178579787Y-43838306D01*
X178462981Y-43677536D01*
X178322464Y-43537019D01*
X178161694Y-43420213D01*
X177984632Y-43329994D01*
X177984629Y-43329993D01*
X177795637Y-43268587D01*
X177697498Y-43253043D01*
X177599361Y-43237500D01*
X177400639Y-43237500D01*
X177335214Y-43247862D01*
X177204362Y-43268587D01*
X177015370Y-43329993D01*
X177015367Y-43329994D01*
X176838305Y-43420213D01*
X176677533Y-43537021D01*
X176537021Y-43677533D01*
X176420213Y-43838305D01*
X176360485Y-43955528D01*
X176312510Y-44006324D01*
X176244689Y-44023119D01*
X176178554Y-44000581D01*
X176139515Y-43955528D01*
X176110967Y-43899500D01*
X176079787Y-43838306D01*
X175962981Y-43677536D01*
X175822464Y-43537019D01*
X175661694Y-43420213D01*
X175484632Y-43329994D01*
X175484629Y-43329993D01*
X175295637Y-43268587D01*
X175197498Y-43253043D01*
X175099361Y-43237500D01*
X174900639Y-43237500D01*
X174835214Y-43247862D01*
X174704362Y-43268587D01*
X174515370Y-43329993D01*
X174515367Y-43329994D01*
X174338305Y-43420213D01*
X174177533Y-43537021D01*
X174037021Y-43677533D01*
X173920213Y-43838305D01*
X173860485Y-43955528D01*
X173812510Y-44006324D01*
X173744689Y-44023119D01*
X173678554Y-44000581D01*
X173639515Y-43955528D01*
X173610967Y-43899500D01*
X173579787Y-43838306D01*
X173462981Y-43677536D01*
X173322464Y-43537019D01*
X173161694Y-43420213D01*
X172984632Y-43329994D01*
X172984629Y-43329993D01*
X172795637Y-43268587D01*
X172697498Y-43253043D01*
X172599361Y-43237500D01*
X172400639Y-43237500D01*
X172335214Y-43247862D01*
X172204362Y-43268587D01*
X172015370Y-43329993D01*
X172015367Y-43329994D01*
X171838305Y-43420213D01*
X171677533Y-43537021D01*
X171537021Y-43677533D01*
X171420213Y-43838305D01*
X171360485Y-43955528D01*
X171312510Y-44006324D01*
X171244689Y-44023119D01*
X171178554Y-44000581D01*
X171139515Y-43955528D01*
X171110967Y-43899500D01*
X171079787Y-43838306D01*
X170962981Y-43677536D01*
X170822464Y-43537019D01*
X170661694Y-43420213D01*
X170484632Y-43329994D01*
X170484629Y-43329993D01*
X170295637Y-43268587D01*
X170197498Y-43253043D01*
X170099361Y-43237500D01*
X169900639Y-43237500D01*
X169835214Y-43247862D01*
X169704362Y-43268587D01*
X169515370Y-43329993D01*
X169515367Y-43329994D01*
X169338305Y-43420213D01*
X169177533Y-43537021D01*
X169037021Y-43677533D01*
X168920213Y-43838305D01*
X168860485Y-43955528D01*
X168812510Y-44006324D01*
X168744689Y-44023119D01*
X168678554Y-44000581D01*
X168639515Y-43955528D01*
X168610967Y-43899500D01*
X168579787Y-43838306D01*
X168462981Y-43677536D01*
X168322464Y-43537019D01*
X168161694Y-43420213D01*
X167984632Y-43329994D01*
X167984629Y-43329993D01*
X167795637Y-43268587D01*
X167697498Y-43253043D01*
X167599361Y-43237500D01*
X167400639Y-43237500D01*
X167361384Y-43243717D01*
X167204360Y-43268587D01*
X167202087Y-43269133D01*
X167201197Y-43269088D01*
X167199552Y-43269349D01*
X167199497Y-43269003D01*
X167132305Y-43265635D01*
X167085472Y-43236237D01*
X166561416Y-42712181D01*
X166527931Y-42650858D01*
X166532915Y-42581166D01*
X166574787Y-42525233D01*
X166640251Y-42500816D01*
X166649097Y-42500500D01*
X189375500Y-42500500D01*
X189442539Y-42520185D01*
X189488294Y-42572989D01*
X189499500Y-42624500D01*
X189499500Y-122876000D01*
X189479815Y-122943039D01*
X189427011Y-122988794D01*
X189375500Y-123000000D01*
X158122697Y-123000000D01*
X158055658Y-122980315D01*
X158035016Y-122963681D01*
X156244319Y-121172984D01*
X156210834Y-121111661D01*
X156208000Y-121085303D01*
X156208000Y-120533965D01*
X156227685Y-120466926D01*
X156228898Y-120465074D01*
X156316890Y-120333385D01*
X156316890Y-120333384D01*
X156316894Y-120333379D01*
X156377237Y-120187697D01*
X156408000Y-120033042D01*
X156408000Y-119875358D01*
X156408000Y-119875355D01*
X156407999Y-119875353D01*
X156377238Y-119720710D01*
X156377237Y-119720703D01*
X156377235Y-119720698D01*
X156316897Y-119575027D01*
X156316890Y-119575014D01*
X156229289Y-119443911D01*
X156229286Y-119443907D01*
X156117792Y-119332413D01*
X156117788Y-119332410D01*
X155986685Y-119244809D01*
X155986672Y-119244802D01*
X155841001Y-119184464D01*
X155840989Y-119184461D01*
X155686345Y-119153700D01*
X155686342Y-119153700D01*
X155528658Y-119153700D01*
X155528655Y-119153700D01*
X155374010Y-119184461D01*
X155373998Y-119184464D01*
X155228327Y-119244802D01*
X155228314Y-119244809D01*
X155096625Y-119332802D01*
X155029947Y-119353680D01*
X155027734Y-119353700D01*
X147892766Y-119353700D01*
X147825727Y-119334015D01*
X147823875Y-119332802D01*
X147692185Y-119244809D01*
X147692172Y-119244802D01*
X147546501Y-119184464D01*
X147546489Y-119184461D01*
X147391845Y-119153700D01*
X147391842Y-119153700D01*
X147234158Y-119153700D01*
X147234155Y-119153700D01*
X147079510Y-119184461D01*
X147079498Y-119184464D01*
X146933827Y-119244802D01*
X146933814Y-119244809D01*
X146802711Y-119332410D01*
X146802707Y-119332413D01*
X146691213Y-119443907D01*
X146691210Y-119443911D01*
X146603609Y-119575014D01*
X146603602Y-119575027D01*
X146543264Y-119720698D01*
X146543261Y-119720710D01*
X146512500Y-119875353D01*
X146512500Y-120033046D01*
X146543261Y-120187689D01*
X146543264Y-120187701D01*
X146603602Y-120333372D01*
X146603609Y-120333385D01*
X146691210Y-120464488D01*
X146691213Y-120464492D01*
X146802707Y-120575986D01*
X146802711Y-120575989D01*
X146933814Y-120663590D01*
X146933827Y-120663597D01*
X147079498Y-120723935D01*
X147079503Y-120723937D01*
X147234153Y-120754699D01*
X147234156Y-120754700D01*
X147234158Y-120754700D01*
X147391844Y-120754700D01*
X147391845Y-120754699D01*
X147546497Y-120723937D01*
X147692179Y-120663594D01*
X147746663Y-120627189D01*
X147823875Y-120575598D01*
X147890553Y-120554720D01*
X147892766Y-120554700D01*
X154883000Y-120554700D01*
X154950039Y-120574385D01*
X154995794Y-120627189D01*
X155007000Y-120678700D01*
X155007000Y-121298730D01*
X155006999Y-121298748D01*
X155006999Y-121464454D01*
X155006998Y-121464454D01*
X155047923Y-121617185D01*
X155076858Y-121667300D01*
X155076859Y-121667304D01*
X155076860Y-121667304D01*
X155126979Y-121754114D01*
X155126981Y-121754117D01*
X155245849Y-121872985D01*
X155245855Y-121872990D01*
X156161184Y-122788319D01*
X156194669Y-122849642D01*
X156189685Y-122919334D01*
X156147813Y-122975267D01*
X156082349Y-122999684D01*
X156073503Y-123000000D01*
X152951798Y-123000000D01*
X152884759Y-122980315D01*
X152864117Y-122963681D01*
X152524573Y-122624137D01*
X152491088Y-122562814D01*
X152490637Y-122560647D01*
X152459738Y-122405310D01*
X152459737Y-122405303D01*
X152459735Y-122405298D01*
X152399397Y-122259627D01*
X152399390Y-122259614D01*
X152311789Y-122128511D01*
X152311786Y-122128507D01*
X152200292Y-122017013D01*
X152200288Y-122017010D01*
X152069185Y-121929409D01*
X152069172Y-121929402D01*
X151923501Y-121869064D01*
X151923489Y-121869061D01*
X151768845Y-121838300D01*
X151768842Y-121838300D01*
X151611158Y-121838300D01*
X151611155Y-121838300D01*
X151456510Y-121869061D01*
X151456498Y-121869064D01*
X151310827Y-121929402D01*
X151310814Y-121929409D01*
X151179711Y-122017010D01*
X151179707Y-122017013D01*
X151068213Y-122128507D01*
X151068210Y-122128511D01*
X150980609Y-122259614D01*
X150980602Y-122259627D01*
X150920264Y-122405298D01*
X150920261Y-122405310D01*
X150889500Y-122559953D01*
X150889500Y-122717646D01*
X150916187Y-122851809D01*
X150909960Y-122921400D01*
X150867097Y-122976578D01*
X150801207Y-122999822D01*
X150794570Y-123000000D01*
X125624500Y-123000000D01*
X125557461Y-122980315D01*
X125511706Y-122927511D01*
X125500500Y-122876000D01*
X125500500Y-117767253D01*
X169199500Y-117767253D01*
X169199500Y-117924946D01*
X169230261Y-118079589D01*
X169230264Y-118079601D01*
X169290602Y-118225272D01*
X169290609Y-118225285D01*
X169378210Y-118356388D01*
X169378213Y-118356392D01*
X169489707Y-118467886D01*
X169489711Y-118467889D01*
X169620814Y-118555490D01*
X169620827Y-118555497D01*
X169766498Y-118615835D01*
X169766503Y-118615837D01*
X169921153Y-118646599D01*
X169921156Y-118646600D01*
X169921158Y-118646600D01*
X170078844Y-118646600D01*
X170078845Y-118646599D01*
X170233497Y-118615837D01*
X170379179Y-118555494D01*
X170510289Y-118467889D01*
X170621789Y-118356389D01*
X170709394Y-118225279D01*
X170769737Y-118079597D01*
X170789113Y-117982185D01*
X170800638Y-117924250D01*
X170833023Y-117862339D01*
X170834518Y-117860816D01*
X176940817Y-111754519D01*
X177002140Y-111721034D01*
X177028498Y-111718200D01*
X183745534Y-111718200D01*
X183812573Y-111737885D01*
X183814425Y-111739098D01*
X183946114Y-111827090D01*
X183946127Y-111827097D01*
X184091798Y-111887435D01*
X184091803Y-111887437D01*
X184246453Y-111918199D01*
X184246456Y-111918200D01*
X184246458Y-111918200D01*
X184404144Y-111918200D01*
X184404145Y-111918199D01*
X184558797Y-111887437D01*
X184671466Y-111840767D01*
X184704472Y-111827097D01*
X184704472Y-111827096D01*
X184704479Y-111827094D01*
X184835589Y-111739489D01*
X184947089Y-111627989D01*
X185034694Y-111496879D01*
X185095037Y-111351197D01*
X185125800Y-111196542D01*
X185125800Y-111038858D01*
X185125800Y-111038855D01*
X185125799Y-111038853D01*
X185113082Y-110974921D01*
X185095037Y-110884203D01*
X185040940Y-110753600D01*
X185034697Y-110738527D01*
X185034690Y-110738514D01*
X184947089Y-110607411D01*
X184947086Y-110607407D01*
X184835592Y-110495913D01*
X184835588Y-110495910D01*
X184704485Y-110408309D01*
X184704472Y-110408302D01*
X184558801Y-110347964D01*
X184558789Y-110347961D01*
X184404145Y-110317200D01*
X184404142Y-110317200D01*
X184246458Y-110317200D01*
X184246455Y-110317200D01*
X184091810Y-110347961D01*
X184091798Y-110347964D01*
X183946127Y-110408302D01*
X183946114Y-110408309D01*
X183814425Y-110496302D01*
X183747747Y-110517180D01*
X183745534Y-110517200D01*
X176815070Y-110517200D01*
X176815054Y-110517199D01*
X176807458Y-110517199D01*
X176649343Y-110517199D01*
X176572979Y-110537661D01*
X176496614Y-110558123D01*
X176496609Y-110558126D01*
X176359690Y-110637175D01*
X176359682Y-110637181D01*
X169985339Y-117011525D01*
X169924016Y-117045010D01*
X169921850Y-117045461D01*
X169766508Y-117076361D01*
X169766498Y-117076364D01*
X169620827Y-117136702D01*
X169620814Y-117136709D01*
X169489711Y-117224310D01*
X169489707Y-117224313D01*
X169378213Y-117335807D01*
X169378210Y-117335811D01*
X169290609Y-117466914D01*
X169290602Y-117466927D01*
X169230264Y-117612598D01*
X169230261Y-117612610D01*
X169199500Y-117767253D01*
X125500500Y-117767253D01*
X125500500Y-96618713D01*
X130149500Y-96618713D01*
X130149500Y-96831286D01*
X130182730Y-97041096D01*
X130182754Y-97041243D01*
X130241879Y-97223211D01*
X130248444Y-97243414D01*
X130344951Y-97432820D01*
X130469890Y-97604786D01*
X130620213Y-97755109D01*
X130792179Y-97880048D01*
X130792181Y-97880049D01*
X130792184Y-97880051D01*
X130981588Y-97976557D01*
X131183757Y-98042246D01*
X131393713Y-98075500D01*
X131393714Y-98075500D01*
X131606286Y-98075500D01*
X131606287Y-98075500D01*
X131816243Y-98042246D01*
X132018412Y-97976557D01*
X132207816Y-97880051D01*
X132278411Y-97828761D01*
X132379786Y-97755109D01*
X132379788Y-97755106D01*
X132379792Y-97755104D01*
X132530104Y-97604792D01*
X132530106Y-97604788D01*
X132530109Y-97604786D01*
X132655048Y-97432820D01*
X132655047Y-97432820D01*
X132655051Y-97432816D01*
X132751557Y-97243412D01*
X132817246Y-97041243D01*
X132850500Y-96831287D01*
X132850500Y-96618713D01*
X132817246Y-96408757D01*
X132792464Y-96332486D01*
X133354500Y-96332486D01*
X133354500Y-96517513D01*
X133383445Y-96700265D01*
X133440619Y-96876232D01*
X133440620Y-96876235D01*
X133524622Y-97041096D01*
X133633379Y-97190787D01*
X133764213Y-97321621D01*
X133913904Y-97430378D01*
X133994763Y-97471577D01*
X134078764Y-97514379D01*
X134078767Y-97514380D01*
X134166750Y-97542967D01*
X134254736Y-97571555D01*
X134437486Y-97600500D01*
X134437487Y-97600500D01*
X134622513Y-97600500D01*
X134622514Y-97600500D01*
X134805264Y-97571555D01*
X134981235Y-97514379D01*
X135146096Y-97430378D01*
X135295787Y-97321621D01*
X135426621Y-97190787D01*
X135535378Y-97041096D01*
X135619379Y-96876235D01*
X135676555Y-96700264D01*
X135705500Y-96517514D01*
X135705500Y-96332486D01*
X135676555Y-96149736D01*
X135619379Y-95973765D01*
X135619379Y-95973764D01*
X135535377Y-95808903D01*
X135426621Y-95659213D01*
X135295787Y-95528379D01*
X135146096Y-95419622D01*
X135122802Y-95407753D01*
X134981235Y-95335620D01*
X134981232Y-95335619D01*
X134805265Y-95278445D01*
X134713889Y-95263972D01*
X134622514Y-95249500D01*
X134437486Y-95249500D01*
X134376569Y-95259148D01*
X134254734Y-95278445D01*
X134078767Y-95335619D01*
X134078764Y-95335620D01*
X133913903Y-95419622D01*
X133839826Y-95473443D01*
X133764213Y-95528379D01*
X133764211Y-95528381D01*
X133764210Y-95528381D01*
X133633381Y-95659210D01*
X133633381Y-95659211D01*
X133633379Y-95659213D01*
X133607458Y-95694890D01*
X133524622Y-95808903D01*
X133440620Y-95973764D01*
X133440619Y-95973767D01*
X133383445Y-96149734D01*
X133354500Y-96332486D01*
X132792464Y-96332486D01*
X132751557Y-96206588D01*
X132655051Y-96017184D01*
X132655049Y-96017181D01*
X132655048Y-96017179D01*
X132530109Y-95845213D01*
X132379786Y-95694890D01*
X132207820Y-95569951D01*
X132018414Y-95473444D01*
X132018413Y-95473443D01*
X132018412Y-95473443D01*
X131816243Y-95407754D01*
X131816241Y-95407753D01*
X131816240Y-95407753D01*
X131654957Y-95382208D01*
X131606287Y-95374500D01*
X131393713Y-95374500D01*
X131345042Y-95382208D01*
X131183760Y-95407753D01*
X130981585Y-95473444D01*
X130792179Y-95569951D01*
X130620213Y-95694890D01*
X130469890Y-95845213D01*
X130344951Y-96017179D01*
X130248444Y-96206585D01*
X130182753Y-96408760D01*
X130149500Y-96618713D01*
X125500500Y-96618713D01*
X125500500Y-91168713D01*
X130149500Y-91168713D01*
X130149500Y-91381287D01*
X130182754Y-91591243D01*
X130185599Y-91600000D01*
X130248444Y-91793414D01*
X130344951Y-91982820D01*
X130469890Y-92154786D01*
X130620213Y-92305109D01*
X130792179Y-92430048D01*
X130792181Y-92430049D01*
X130792184Y-92430051D01*
X130981588Y-92526557D01*
X131183757Y-92592246D01*
X131393713Y-92625500D01*
X131393714Y-92625500D01*
X131606286Y-92625500D01*
X131606287Y-92625500D01*
X131816243Y-92592246D01*
X132018412Y-92526557D01*
X132207816Y-92430051D01*
X132229789Y-92414086D01*
X132379786Y-92305109D01*
X132379788Y-92305106D01*
X132379792Y-92305104D01*
X132530104Y-92154792D01*
X132530106Y-92154788D01*
X132530109Y-92154786D01*
X132655048Y-91982820D01*
X132655047Y-91982820D01*
X132655051Y-91982816D01*
X132751557Y-91793412D01*
X132817246Y-91591243D01*
X132834472Y-91482486D01*
X133354500Y-91482486D01*
X133354500Y-91667513D01*
X133383445Y-91850265D01*
X133440619Y-92026232D01*
X133440620Y-92026235D01*
X133506121Y-92154786D01*
X133524622Y-92191096D01*
X133633379Y-92340787D01*
X133764213Y-92471621D01*
X133913904Y-92580378D01*
X133994763Y-92621577D01*
X134078764Y-92664379D01*
X134078767Y-92664380D01*
X134166750Y-92692967D01*
X134254736Y-92721555D01*
X134437486Y-92750500D01*
X134437487Y-92750500D01*
X134622513Y-92750500D01*
X134622514Y-92750500D01*
X134805264Y-92721555D01*
X134981235Y-92664379D01*
X135146096Y-92580378D01*
X135295787Y-92471621D01*
X135426621Y-92340787D01*
X135535378Y-92191096D01*
X135619379Y-92026235D01*
X135676555Y-91850264D01*
X135705500Y-91667514D01*
X135705500Y-91482486D01*
X135676555Y-91299736D01*
X135647967Y-91211750D01*
X135619380Y-91123767D01*
X135619379Y-91123764D01*
X135535377Y-90958903D01*
X135535271Y-90958757D01*
X135426621Y-90809213D01*
X135295787Y-90678379D01*
X135146096Y-90569622D01*
X135140165Y-90566600D01*
X134981235Y-90485620D01*
X134981232Y-90485619D01*
X134805265Y-90428445D01*
X134713889Y-90413972D01*
X134622514Y-90399500D01*
X134437486Y-90399500D01*
X134376569Y-90409148D01*
X134254734Y-90428445D01*
X134078767Y-90485619D01*
X134078764Y-90485620D01*
X133913903Y-90569622D01*
X133828499Y-90631672D01*
X133764213Y-90678379D01*
X133764211Y-90678381D01*
X133764210Y-90678381D01*
X133633381Y-90809210D01*
X133633381Y-90809211D01*
X133633379Y-90809213D01*
X133586672Y-90873499D01*
X133524622Y-90958903D01*
X133440620Y-91123764D01*
X133440619Y-91123767D01*
X133383445Y-91299734D01*
X133354500Y-91482486D01*
X132834472Y-91482486D01*
X132850500Y-91381287D01*
X132850500Y-91168713D01*
X132817246Y-90958757D01*
X132751557Y-90756588D01*
X132655051Y-90567184D01*
X132655049Y-90567181D01*
X132655048Y-90567179D01*
X132530109Y-90395213D01*
X132379786Y-90244890D01*
X132207820Y-90119951D01*
X132018414Y-90023444D01*
X132018413Y-90023443D01*
X132018412Y-90023443D01*
X131816243Y-89957754D01*
X131816241Y-89957753D01*
X131816240Y-89957753D01*
X131654957Y-89932208D01*
X131606287Y-89924500D01*
X131393713Y-89924500D01*
X131345042Y-89932208D01*
X131183760Y-89957753D01*
X130981585Y-90023444D01*
X130792179Y-90119951D01*
X130620213Y-90244890D01*
X130469890Y-90395213D01*
X130344951Y-90567179D01*
X130248444Y-90756585D01*
X130182753Y-90958760D01*
X130156619Y-91123764D01*
X130149500Y-91168713D01*
X125500500Y-91168713D01*
X125500500Y-78444953D01*
X129038000Y-78444953D01*
X129038000Y-78602646D01*
X129068761Y-78757289D01*
X129068764Y-78757301D01*
X129129102Y-78902972D01*
X129129109Y-78902985D01*
X129216710Y-79034088D01*
X129216713Y-79034092D01*
X129328207Y-79145586D01*
X129328211Y-79145589D01*
X129459314Y-79233190D01*
X129459327Y-79233197D01*
X129604998Y-79293535D01*
X129605003Y-79293537D01*
X129759653Y-79324299D01*
X129759656Y-79324300D01*
X129759658Y-79324300D01*
X129917344Y-79324300D01*
X129917345Y-79324299D01*
X130071997Y-79293537D01*
X130217679Y-79233194D01*
X130272163Y-79196789D01*
X130349375Y-79145198D01*
X130416053Y-79124320D01*
X130418266Y-79124300D01*
X139149778Y-79124300D01*
X139216817Y-79143985D01*
X139262572Y-79196789D01*
X139272132Y-79254166D01*
X139273200Y-79254166D01*
X139273200Y-79417946D01*
X139303960Y-79572588D01*
X139303961Y-79572589D01*
X139303963Y-79572597D01*
X139305092Y-79575323D01*
X139305258Y-79576864D01*
X139305730Y-79578420D01*
X139305434Y-79578509D01*
X139312560Y-79644790D01*
X139281284Y-79707269D01*
X139278211Y-79710453D01*
X137870639Y-81118025D01*
X137809316Y-81151510D01*
X137807150Y-81151961D01*
X137651808Y-81182861D01*
X137651798Y-81182864D01*
X137506127Y-81243202D01*
X137506114Y-81243209D01*
X137375011Y-81330810D01*
X137375007Y-81330813D01*
X137263513Y-81442307D01*
X137263510Y-81442311D01*
X137175909Y-81573414D01*
X137175902Y-81573427D01*
X137115564Y-81719098D01*
X137115561Y-81719110D01*
X137084800Y-81873753D01*
X137084800Y-82031446D01*
X137115561Y-82186089D01*
X137115564Y-82186101D01*
X137175902Y-82331772D01*
X137175909Y-82331785D01*
X137263510Y-82462888D01*
X137263513Y-82462892D01*
X137375007Y-82574386D01*
X137375011Y-82574389D01*
X137506114Y-82661990D01*
X137506127Y-82661997D01*
X137641417Y-82718035D01*
X137651803Y-82722337D01*
X137775872Y-82747016D01*
X137806453Y-82753099D01*
X137806456Y-82753100D01*
X137806458Y-82753100D01*
X137964144Y-82753100D01*
X137964145Y-82753099D01*
X138118797Y-82722337D01*
X138261828Y-82663092D01*
X138264472Y-82661997D01*
X138264472Y-82661996D01*
X138264479Y-82661994D01*
X138395589Y-82574389D01*
X138507089Y-82462889D01*
X138594694Y-82331779D01*
X138655037Y-82186097D01*
X138684006Y-82040461D01*
X138685938Y-82030750D01*
X138718323Y-81968839D01*
X138719819Y-81967315D01*
X140432206Y-80254927D01*
X140432211Y-80254924D01*
X140442414Y-80244720D01*
X140442416Y-80244720D01*
X140554220Y-80132916D01*
X140606594Y-80042200D01*
X140633277Y-79995985D01*
X140657264Y-79906460D01*
X140659626Y-79900331D01*
X140672415Y-79883621D01*
X140687659Y-79857217D01*
X140695489Y-79849389D01*
X140783094Y-79718279D01*
X140787655Y-79707269D01*
X140796767Y-79685266D01*
X140843437Y-79572597D01*
X140874200Y-79417942D01*
X140874200Y-79260258D01*
X140874200Y-79260255D01*
X140851313Y-79145198D01*
X140843437Y-79105603D01*
X140843435Y-79105600D01*
X140843264Y-79104736D01*
X140849491Y-79035144D01*
X140861776Y-79011658D01*
X140934394Y-78902979D01*
X140938115Y-78893997D01*
X140994735Y-78757301D01*
X140994737Y-78757297D01*
X141025500Y-78602642D01*
X141025500Y-78444958D01*
X141025500Y-78444955D01*
X141025499Y-78444953D01*
X141007664Y-78355292D01*
X140994737Y-78290303D01*
X140994735Y-78290298D01*
X140934397Y-78144627D01*
X140934390Y-78144614D01*
X140846789Y-78013511D01*
X140846786Y-78013507D01*
X140735292Y-77902013D01*
X140735288Y-77902010D01*
X140604185Y-77814409D01*
X140604172Y-77814402D01*
X140458501Y-77754064D01*
X140458489Y-77754061D01*
X140303845Y-77723300D01*
X140303842Y-77723300D01*
X140146158Y-77723300D01*
X140146155Y-77723300D01*
X139991510Y-77754061D01*
X139991498Y-77754064D01*
X139845827Y-77814402D01*
X139845814Y-77814409D01*
X139714125Y-77902402D01*
X139647447Y-77923280D01*
X139645234Y-77923300D01*
X130418266Y-77923300D01*
X130351227Y-77903615D01*
X130349375Y-77902402D01*
X130217685Y-77814409D01*
X130217672Y-77814402D01*
X130072001Y-77754064D01*
X130071989Y-77754061D01*
X129917345Y-77723300D01*
X129917342Y-77723300D01*
X129759658Y-77723300D01*
X129759655Y-77723300D01*
X129605010Y-77754061D01*
X129604998Y-77754064D01*
X129459327Y-77814402D01*
X129459314Y-77814409D01*
X129328211Y-77902010D01*
X129328207Y-77902013D01*
X129216713Y-78013507D01*
X129216710Y-78013511D01*
X129129109Y-78144614D01*
X129129102Y-78144627D01*
X129068764Y-78290298D01*
X129068761Y-78290310D01*
X129038000Y-78444953D01*
X125500500Y-78444953D01*
X125500500Y-73047053D01*
X143899300Y-73047053D01*
X143899300Y-73204746D01*
X143930061Y-73359389D01*
X143930064Y-73359401D01*
X143990402Y-73505072D01*
X143990409Y-73505085D01*
X144078010Y-73636188D01*
X144078013Y-73636192D01*
X144189507Y-73747686D01*
X144189511Y-73747689D01*
X144320614Y-73835290D01*
X144320627Y-73835297D01*
X144466298Y-73895635D01*
X144466303Y-73895637D01*
X144620953Y-73926399D01*
X144620956Y-73926400D01*
X144620958Y-73926400D01*
X144778644Y-73926400D01*
X144778645Y-73926399D01*
X144933297Y-73895637D01*
X145078979Y-73835294D01*
X145127852Y-73802638D01*
X145210675Y-73747298D01*
X145277353Y-73726420D01*
X145279566Y-73726400D01*
X149959934Y-73726400D01*
X150026973Y-73746085D01*
X150028825Y-73747298D01*
X150160514Y-73835290D01*
X150160527Y-73835297D01*
X150306198Y-73895635D01*
X150306203Y-73895637D01*
X150460853Y-73926399D01*
X150460856Y-73926400D01*
X150460858Y-73926400D01*
X150618544Y-73926400D01*
X150618545Y-73926399D01*
X150773197Y-73895637D01*
X150918879Y-73835294D01*
X151049989Y-73747689D01*
X151161489Y-73636189D01*
X151249094Y-73505079D01*
X151309437Y-73359397D01*
X151340200Y-73204742D01*
X151340200Y-73047058D01*
X151340200Y-73047055D01*
X151340199Y-73047053D01*
X151309438Y-72892410D01*
X151309437Y-72892403D01*
X151309435Y-72892398D01*
X151249097Y-72746727D01*
X151249090Y-72746714D01*
X151161489Y-72615611D01*
X151161486Y-72615607D01*
X151049992Y-72504113D01*
X151049988Y-72504110D01*
X150918885Y-72416509D01*
X150918872Y-72416502D01*
X150773201Y-72356164D01*
X150773189Y-72356161D01*
X150618545Y-72325400D01*
X150618542Y-72325400D01*
X150460858Y-72325400D01*
X150460855Y-72325400D01*
X150306210Y-72356161D01*
X150306198Y-72356164D01*
X150160527Y-72416502D01*
X150160514Y-72416509D01*
X150028825Y-72504502D01*
X149962147Y-72525380D01*
X149959934Y-72525400D01*
X145279566Y-72525400D01*
X145212527Y-72505715D01*
X145210675Y-72504502D01*
X145078985Y-72416509D01*
X145078972Y-72416502D01*
X144933301Y-72356164D01*
X144933289Y-72356161D01*
X144778645Y-72325400D01*
X144778642Y-72325400D01*
X144620958Y-72325400D01*
X144620955Y-72325400D01*
X144466310Y-72356161D01*
X144466298Y-72356164D01*
X144320627Y-72416502D01*
X144320614Y-72416509D01*
X144189511Y-72504110D01*
X144189507Y-72504113D01*
X144078013Y-72615607D01*
X144078010Y-72615611D01*
X143990409Y-72746714D01*
X143990402Y-72746727D01*
X143930064Y-72892398D01*
X143930061Y-72892410D01*
X143899300Y-73047053D01*
X125500500Y-73047053D01*
X125500500Y-68547653D01*
X128384600Y-68547653D01*
X128384600Y-68705346D01*
X128415361Y-68859989D01*
X128415364Y-68860001D01*
X128475702Y-69005672D01*
X128475709Y-69005685D01*
X128563310Y-69136788D01*
X128563313Y-69136792D01*
X128674807Y-69248286D01*
X128674811Y-69248289D01*
X128805914Y-69335890D01*
X128805927Y-69335897D01*
X128951598Y-69396235D01*
X128951603Y-69396237D01*
X129106253Y-69426999D01*
X129106256Y-69427000D01*
X129106258Y-69427000D01*
X129263944Y-69427000D01*
X129263945Y-69426999D01*
X129418597Y-69396237D01*
X129564279Y-69335894D01*
X129618763Y-69299489D01*
X129695975Y-69247898D01*
X129762653Y-69227020D01*
X129764866Y-69227000D01*
X131574000Y-69227000D01*
X131641039Y-69246685D01*
X131686794Y-69299489D01*
X131698000Y-69351000D01*
X131698000Y-69355746D01*
X131728761Y-69510389D01*
X131728764Y-69510401D01*
X131789102Y-69656072D01*
X131789109Y-69656085D01*
X131876710Y-69787188D01*
X131876713Y-69787192D01*
X131988207Y-69898686D01*
X131988211Y-69898689D01*
X132119314Y-69986290D01*
X132119327Y-69986297D01*
X132264998Y-70046635D01*
X132265003Y-70046637D01*
X132419653Y-70077399D01*
X132419656Y-70077400D01*
X132419658Y-70077400D01*
X132577344Y-70077400D01*
X132577345Y-70077399D01*
X132731997Y-70046637D01*
X132877679Y-69986294D01*
X132932163Y-69949889D01*
X133009375Y-69898298D01*
X133076053Y-69877420D01*
X133078266Y-69877400D01*
X138657678Y-69877400D01*
X138724717Y-69897085D01*
X138770472Y-69949889D01*
X138779295Y-69977208D01*
X138806861Y-70115791D01*
X138806864Y-70115801D01*
X138867202Y-70261472D01*
X138867209Y-70261485D01*
X138954810Y-70392588D01*
X138954813Y-70392592D01*
X139066307Y-70504086D01*
X139066311Y-70504089D01*
X139197414Y-70591690D01*
X139197427Y-70591697D01*
X139343098Y-70652035D01*
X139343103Y-70652037D01*
X139497758Y-70682800D01*
X139498447Y-70682937D01*
X139538840Y-70698701D01*
X139551472Y-70706408D01*
X139558884Y-70713820D01*
X139645695Y-70763939D01*
X139646980Y-70764681D01*
X139647008Y-70764698D01*
X139684689Y-70786453D01*
X139695815Y-70792877D01*
X139848543Y-70833801D01*
X139848546Y-70833801D01*
X140014253Y-70833801D01*
X140014269Y-70833800D01*
X140803331Y-70833800D01*
X140803347Y-70833801D01*
X140810943Y-70833801D01*
X140969054Y-70833801D01*
X140969057Y-70833801D01*
X141121785Y-70792877D01*
X141171904Y-70763939D01*
X141258716Y-70713820D01*
X141370520Y-70602016D01*
X141370520Y-70602014D01*
X141380728Y-70591807D01*
X141380731Y-70591803D01*
X141453418Y-70519118D01*
X141514742Y-70485633D01*
X141541098Y-70482800D01*
X153112051Y-70482800D01*
X153179090Y-70502485D01*
X153224845Y-70555289D01*
X153234789Y-70624447D01*
X153233668Y-70630992D01*
X153207100Y-70764555D01*
X153207100Y-70922246D01*
X153237861Y-71076889D01*
X153237864Y-71076901D01*
X153298202Y-71222572D01*
X153298209Y-71222585D01*
X153385810Y-71353688D01*
X153385813Y-71353692D01*
X153497307Y-71465186D01*
X153497311Y-71465189D01*
X153628414Y-71552790D01*
X153628427Y-71552797D01*
X153774098Y-71613135D01*
X153774103Y-71613137D01*
X153928753Y-71643899D01*
X153928756Y-71643900D01*
X153928758Y-71643900D01*
X154086444Y-71643900D01*
X154086445Y-71643899D01*
X154241097Y-71613137D01*
X154386779Y-71552794D01*
X154386785Y-71552790D01*
X154518475Y-71464798D01*
X154585153Y-71443920D01*
X154587366Y-71443900D01*
X154945003Y-71443900D01*
X155012042Y-71463585D01*
X155032684Y-71480219D01*
X155715284Y-72162819D01*
X155748769Y-72224142D01*
X155743785Y-72293834D01*
X155701913Y-72349767D01*
X155636449Y-72374184D01*
X155627603Y-72374500D01*
X155102129Y-72374500D01*
X155102123Y-72374501D01*
X155042516Y-72380908D01*
X154907671Y-72431202D01*
X154907664Y-72431206D01*
X154792455Y-72517452D01*
X154792452Y-72517455D01*
X154706206Y-72632664D01*
X154706202Y-72632671D01*
X154655908Y-72767517D01*
X154649501Y-72827116D01*
X154649500Y-72827127D01*
X154649500Y-73505085D01*
X154649501Y-74152200D01*
X154629816Y-74219239D01*
X154577013Y-74264994D01*
X154525501Y-74276200D01*
X143852866Y-74276200D01*
X143785827Y-74256515D01*
X143783975Y-74255302D01*
X143652285Y-74167309D01*
X143652272Y-74167302D01*
X143506601Y-74106964D01*
X143506589Y-74106961D01*
X143351945Y-74076200D01*
X143351942Y-74076200D01*
X143194258Y-74076200D01*
X143194255Y-74076200D01*
X143039610Y-74106961D01*
X143039598Y-74106964D01*
X142893927Y-74167302D01*
X142893914Y-74167309D01*
X142762811Y-74254910D01*
X142762807Y-74254913D01*
X142651313Y-74366407D01*
X142651310Y-74366411D01*
X142563709Y-74497514D01*
X142563702Y-74497527D01*
X142503364Y-74643198D01*
X142503361Y-74643210D01*
X142472600Y-74797853D01*
X142472600Y-74955546D01*
X142503361Y-75110189D01*
X142503364Y-75110201D01*
X142563702Y-75255872D01*
X142563709Y-75255885D01*
X142651310Y-75386988D01*
X142651313Y-75386992D01*
X142762807Y-75498486D01*
X142762811Y-75498489D01*
X142893914Y-75586090D01*
X142893927Y-75586097D01*
X143039598Y-75646435D01*
X143039603Y-75646437D01*
X143194253Y-75677199D01*
X143194256Y-75677200D01*
X143194258Y-75677200D01*
X143351944Y-75677200D01*
X143351945Y-75677199D01*
X143506597Y-75646437D01*
X143652279Y-75586094D01*
X143706763Y-75549689D01*
X143783975Y-75498098D01*
X143850653Y-75477220D01*
X143852866Y-75477200D01*
X154683914Y-75477200D01*
X154750953Y-75496885D01*
X154796708Y-75549689D01*
X154806652Y-75618847D01*
X154794399Y-75657495D01*
X154748904Y-75746782D01*
X154683242Y-75948869D01*
X154683242Y-75948872D01*
X154650000Y-76158753D01*
X154650000Y-76371246D01*
X154683242Y-76581127D01*
X154683242Y-76581130D01*
X154748904Y-76783217D01*
X154845375Y-76972550D01*
X154884728Y-77026716D01*
X155517036Y-76394407D01*
X155534075Y-76457993D01*
X155599901Y-76572007D01*
X155692993Y-76665099D01*
X155807007Y-76730925D01*
X155870590Y-76747962D01*
X155238282Y-77380269D01*
X155238282Y-77380270D01*
X155292449Y-77419624D01*
X155481782Y-77516095D01*
X155683870Y-77581757D01*
X155893754Y-77615000D01*
X156106246Y-77615000D01*
X156316127Y-77581757D01*
X156316130Y-77581757D01*
X156518217Y-77516095D01*
X156707554Y-77419622D01*
X156761716Y-77380270D01*
X156761717Y-77380270D01*
X156129408Y-76747962D01*
X156192993Y-76730925D01*
X156307007Y-76665099D01*
X156400099Y-76572007D01*
X156465925Y-76457993D01*
X156482962Y-76394409D01*
X157115270Y-77026717D01*
X157115270Y-77026716D01*
X157154622Y-76972554D01*
X157205370Y-76872957D01*
X157253344Y-76822161D01*
X157321165Y-76805366D01*
X157387300Y-76827903D01*
X157403536Y-76841571D01*
X163753181Y-83191216D01*
X163786666Y-83252539D01*
X163789500Y-83278897D01*
X163789500Y-83880397D01*
X163769815Y-83947436D01*
X163721800Y-83990879D01*
X163708389Y-83997712D01*
X163542786Y-84118028D01*
X163398028Y-84262786D01*
X163277715Y-84428386D01*
X163233942Y-84514295D01*
X163185967Y-84565091D01*
X163118146Y-84581886D01*
X163052011Y-84559348D01*
X163014099Y-84516454D01*
X162978841Y-84450493D01*
X162932465Y-84381086D01*
X162932465Y-84381085D01*
X162332961Y-84980588D01*
X162315925Y-84917007D01*
X162250099Y-84802993D01*
X162157007Y-84709901D01*
X162042993Y-84644075D01*
X161979410Y-84627037D01*
X162578913Y-84027534D01*
X162578912Y-84027533D01*
X162509506Y-83981158D01*
X162422198Y-83934490D01*
X162276612Y-83874185D01*
X162181864Y-83845444D01*
X162027300Y-83814701D01*
X161928790Y-83805000D01*
X161771210Y-83805000D01*
X161672700Y-83814701D01*
X161672697Y-83814701D01*
X161518135Y-83845444D01*
X161423387Y-83874185D01*
X161277801Y-83934490D01*
X161190488Y-83981161D01*
X161121086Y-84027532D01*
X161121085Y-84027533D01*
X161720590Y-84627037D01*
X161657007Y-84644075D01*
X161542993Y-84709901D01*
X161449901Y-84802993D01*
X161384075Y-84917007D01*
X161367037Y-84980590D01*
X160767533Y-84381085D01*
X160767532Y-84381086D01*
X160721160Y-84450489D01*
X160721157Y-84450494D01*
X160685899Y-84516455D01*
X160636936Y-84566299D01*
X160568798Y-84581758D01*
X160503119Y-84557925D01*
X160466057Y-84514294D01*
X160433549Y-84450494D01*
X160422287Y-84428390D01*
X160422286Y-84428388D01*
X160301971Y-84262786D01*
X160157213Y-84118028D01*
X159991613Y-83997715D01*
X159991612Y-83997714D01*
X159991610Y-83997713D01*
X159934653Y-83968691D01*
X159809223Y-83904781D01*
X159614534Y-83841522D01*
X159439995Y-83813878D01*
X159412352Y-83809500D01*
X159207648Y-83809500D01*
X159183329Y-83813351D01*
X159005465Y-83841522D01*
X158810776Y-83904781D01*
X158628386Y-83997715D01*
X158462786Y-84118028D01*
X158318028Y-84262786D01*
X158197715Y-84428386D01*
X158150485Y-84521080D01*
X158102510Y-84571876D01*
X158034689Y-84588671D01*
X157968554Y-84566134D01*
X157929515Y-84521080D01*
X157926057Y-84514294D01*
X157882287Y-84428390D01*
X157847919Y-84381086D01*
X157761971Y-84262786D01*
X157617213Y-84118028D01*
X157451613Y-83997715D01*
X157451612Y-83997714D01*
X157451610Y-83997713D01*
X157394653Y-83968691D01*
X157269223Y-83904781D01*
X157074534Y-83841522D01*
X156899995Y-83813878D01*
X156872352Y-83809500D01*
X156667648Y-83809500D01*
X156643329Y-83813351D01*
X156465465Y-83841522D01*
X156270776Y-83904781D01*
X156088386Y-83997715D01*
X155922786Y-84118028D01*
X155778028Y-84262786D01*
X155657715Y-84428386D01*
X155610485Y-84521080D01*
X155562510Y-84571876D01*
X155494689Y-84588671D01*
X155428554Y-84566134D01*
X155389515Y-84521080D01*
X155386057Y-84514294D01*
X155342287Y-84428390D01*
X155307919Y-84381086D01*
X155221971Y-84262786D01*
X155077213Y-84118028D01*
X154911613Y-83997715D01*
X154911612Y-83997714D01*
X154911610Y-83997713D01*
X154854653Y-83968691D01*
X154729223Y-83904781D01*
X154534534Y-83841522D01*
X154359995Y-83813878D01*
X154332352Y-83809500D01*
X154127648Y-83809500D01*
X154094811Y-83814701D01*
X153925464Y-83841523D01*
X153925461Y-83841523D01*
X153864418Y-83861358D01*
X153794577Y-83863353D01*
X153734744Y-83827273D01*
X153703916Y-83764572D01*
X153702100Y-83743427D01*
X153702100Y-83149897D01*
X153710743Y-83120460D01*
X153717267Y-83090471D01*
X153721022Y-83085453D01*
X153721785Y-83082858D01*
X153738413Y-83062221D01*
X153813263Y-82987371D01*
X153874582Y-82953889D01*
X153876750Y-82953438D01*
X153934685Y-82941913D01*
X154032097Y-82922537D01*
X154177779Y-82862194D01*
X154308889Y-82774589D01*
X154420389Y-82663089D01*
X154507994Y-82531979D01*
X154568337Y-82386297D01*
X154599100Y-82231642D01*
X154599100Y-82107500D01*
X154618785Y-82040461D01*
X154671589Y-81994706D01*
X154723100Y-81983500D01*
X156024334Y-81983500D01*
X156091373Y-82003185D01*
X156093225Y-82004398D01*
X156224914Y-82092390D01*
X156224927Y-82092397D01*
X156355350Y-82146419D01*
X156370603Y-82152737D01*
X156525253Y-82183499D01*
X156525256Y-82183500D01*
X156525258Y-82183500D01*
X156682944Y-82183500D01*
X156682945Y-82183499D01*
X156837597Y-82152737D01*
X156983279Y-82092394D01*
X157114389Y-82004789D01*
X157225889Y-81893289D01*
X157313494Y-81762179D01*
X157373837Y-81616497D01*
X157404600Y-81461842D01*
X157404600Y-81304158D01*
X157404600Y-81304155D01*
X157404599Y-81304153D01*
X157388235Y-81221885D01*
X157373837Y-81149503D01*
X157372887Y-81147210D01*
X157313497Y-81003827D01*
X157313490Y-81003814D01*
X157225889Y-80872711D01*
X157225886Y-80872707D01*
X157114392Y-80761213D01*
X157114388Y-80761210D01*
X156983285Y-80673609D01*
X156983272Y-80673602D01*
X156837601Y-80613264D01*
X156837589Y-80613261D01*
X156682945Y-80582500D01*
X156682942Y-80582500D01*
X156525258Y-80582500D01*
X156525255Y-80582500D01*
X156370610Y-80613261D01*
X156370598Y-80613264D01*
X156224927Y-80673602D01*
X156224914Y-80673609D01*
X156093225Y-80761602D01*
X156026547Y-80782480D01*
X156024334Y-80782500D01*
X153587140Y-80782500D01*
X153546219Y-80793464D01*
X153546219Y-80793465D01*
X153511254Y-80802834D01*
X153434414Y-80823423D01*
X153434409Y-80823426D01*
X153297490Y-80902475D01*
X153297482Y-80902481D01*
X153185678Y-81014286D01*
X150124756Y-84075206D01*
X150063433Y-84108691D01*
X149993741Y-84103707D01*
X149958408Y-84083377D01*
X149940529Y-84068703D01*
X149809521Y-83981167D01*
X149809501Y-83981155D01*
X149722198Y-83934490D01*
X149576612Y-83874185D01*
X149481864Y-83845444D01*
X149327300Y-83814701D01*
X149228790Y-83805000D01*
X149071210Y-83805000D01*
X148972700Y-83814701D01*
X148972697Y-83814701D01*
X148818135Y-83845444D01*
X148723387Y-83874185D01*
X148577801Y-83934490D01*
X148490488Y-83981161D01*
X148421086Y-84027532D01*
X148421085Y-84027533D01*
X149020590Y-84627037D01*
X148957007Y-84644075D01*
X148842993Y-84709901D01*
X148749901Y-84802993D01*
X148684075Y-84917007D01*
X148667037Y-84980589D01*
X148067533Y-84381085D01*
X148067532Y-84381086D01*
X148021160Y-84450489D01*
X148021157Y-84450494D01*
X147985899Y-84516455D01*
X147936936Y-84566299D01*
X147868798Y-84581758D01*
X147803119Y-84557925D01*
X147766057Y-84514294D01*
X147733549Y-84450494D01*
X147722287Y-84428390D01*
X147722286Y-84428388D01*
X147601971Y-84262786D01*
X147457213Y-84118028D01*
X147291613Y-83997715D01*
X147291612Y-83997714D01*
X147291610Y-83997713D01*
X147234653Y-83968691D01*
X147109223Y-83904781D01*
X146914534Y-83841522D01*
X146739995Y-83813878D01*
X146712352Y-83809500D01*
X146507648Y-83809500D01*
X146483329Y-83813351D01*
X146305465Y-83841522D01*
X146110776Y-83904781D01*
X145928386Y-83997715D01*
X145762786Y-84118028D01*
X145618028Y-84262786D01*
X145497715Y-84428386D01*
X145450485Y-84521080D01*
X145402510Y-84571876D01*
X145334689Y-84588671D01*
X145268554Y-84566134D01*
X145229515Y-84521080D01*
X145226057Y-84514294D01*
X145182287Y-84428390D01*
X145147919Y-84381086D01*
X145061971Y-84262786D01*
X144917213Y-84118028D01*
X144751613Y-83997715D01*
X144751612Y-83997714D01*
X144751610Y-83997713D01*
X144694653Y-83968691D01*
X144569223Y-83904781D01*
X144374534Y-83841522D01*
X144199995Y-83813878D01*
X144172352Y-83809500D01*
X143967648Y-83809500D01*
X143943329Y-83813351D01*
X143765465Y-83841522D01*
X143570776Y-83904781D01*
X143388386Y-83997715D01*
X143222786Y-84118028D01*
X143078028Y-84262786D01*
X142957715Y-84428386D01*
X142910485Y-84521080D01*
X142862510Y-84571876D01*
X142794689Y-84588671D01*
X142728554Y-84566134D01*
X142689515Y-84521080D01*
X142686057Y-84514294D01*
X142642287Y-84428390D01*
X142607919Y-84381086D01*
X142521971Y-84262786D01*
X142377213Y-84118028D01*
X142211613Y-83997715D01*
X142211612Y-83997714D01*
X142211610Y-83997713D01*
X142154653Y-83968691D01*
X142029223Y-83904781D01*
X141834534Y-83841522D01*
X141659995Y-83813878D01*
X141632352Y-83809500D01*
X141427648Y-83809500D01*
X141403329Y-83813351D01*
X141225465Y-83841522D01*
X141030776Y-83904781D01*
X140848386Y-83997715D01*
X140682786Y-84118028D01*
X140538028Y-84262786D01*
X140417715Y-84428386D01*
X140370485Y-84521080D01*
X140322510Y-84571876D01*
X140254689Y-84588671D01*
X140188554Y-84566134D01*
X140149515Y-84521080D01*
X140146057Y-84514294D01*
X140102287Y-84428390D01*
X140067919Y-84381086D01*
X139981971Y-84262786D01*
X139837213Y-84118028D01*
X139671613Y-83997715D01*
X139671612Y-83997714D01*
X139671610Y-83997713D01*
X139614653Y-83968691D01*
X139489223Y-83904781D01*
X139294534Y-83841522D01*
X139119995Y-83813878D01*
X139092352Y-83809500D01*
X138887648Y-83809500D01*
X138863329Y-83813351D01*
X138685465Y-83841522D01*
X138490776Y-83904781D01*
X138308386Y-83997715D01*
X138142786Y-84118028D01*
X137998028Y-84262786D01*
X137877715Y-84428386D01*
X137833942Y-84514295D01*
X137785967Y-84565091D01*
X137718146Y-84581886D01*
X137652011Y-84559348D01*
X137614099Y-84516454D01*
X137578841Y-84450493D01*
X137532465Y-84381086D01*
X137532465Y-84381085D01*
X136932962Y-84980589D01*
X136915925Y-84917007D01*
X136850099Y-84802993D01*
X136757007Y-84709901D01*
X136642993Y-84644075D01*
X136579410Y-84627037D01*
X137178913Y-84027534D01*
X137178912Y-84027533D01*
X137109506Y-83981158D01*
X137022198Y-83934490D01*
X136876612Y-83874185D01*
X136781864Y-83845444D01*
X136627300Y-83814701D01*
X136528790Y-83805000D01*
X136371210Y-83805000D01*
X136272700Y-83814701D01*
X136272697Y-83814701D01*
X136118135Y-83845444D01*
X136023387Y-83874185D01*
X135877801Y-83934490D01*
X135790488Y-83981161D01*
X135721086Y-84027532D01*
X135721085Y-84027533D01*
X136320590Y-84627037D01*
X136257007Y-84644075D01*
X136142993Y-84709901D01*
X136049901Y-84802993D01*
X135984075Y-84917007D01*
X135967037Y-84980589D01*
X135367533Y-84381085D01*
X135367532Y-84381086D01*
X135321160Y-84450489D01*
X135321157Y-84450494D01*
X135285899Y-84516455D01*
X135236936Y-84566299D01*
X135168798Y-84581758D01*
X135103119Y-84557925D01*
X135066057Y-84514294D01*
X135033549Y-84450494D01*
X135022287Y-84428390D01*
X135022286Y-84428388D01*
X134901971Y-84262786D01*
X134757213Y-84118028D01*
X134591613Y-83997715D01*
X134591612Y-83997714D01*
X134591610Y-83997713D01*
X134534653Y-83968691D01*
X134409223Y-83904781D01*
X134214534Y-83841522D01*
X134039995Y-83813878D01*
X134012352Y-83809500D01*
X133807648Y-83809500D01*
X133783329Y-83813351D01*
X133605465Y-83841522D01*
X133410776Y-83904781D01*
X133228386Y-83997715D01*
X133062786Y-84118028D01*
X132918028Y-84262786D01*
X132797715Y-84428386D01*
X132750485Y-84521080D01*
X132702510Y-84571876D01*
X132634689Y-84588671D01*
X132568554Y-84566134D01*
X132529515Y-84521080D01*
X132526057Y-84514294D01*
X132482287Y-84428390D01*
X132447919Y-84381086D01*
X132361971Y-84262786D01*
X132217213Y-84118028D01*
X132051613Y-83997715D01*
X132051612Y-83997714D01*
X132051610Y-83997713D01*
X131994653Y-83968691D01*
X131869223Y-83904781D01*
X131674534Y-83841522D01*
X131499995Y-83813878D01*
X131472352Y-83809500D01*
X131267648Y-83809500D01*
X131243329Y-83813351D01*
X131065465Y-83841522D01*
X130870776Y-83904781D01*
X130688386Y-83997715D01*
X130522786Y-84118028D01*
X130378028Y-84262786D01*
X130257715Y-84428386D01*
X130164781Y-84610776D01*
X130101522Y-84805465D01*
X130069500Y-85007648D01*
X130069500Y-85212351D01*
X130101522Y-85414534D01*
X130164781Y-85609223D01*
X130257715Y-85791613D01*
X130378028Y-85957213D01*
X130522786Y-86101971D01*
X130674232Y-86212001D01*
X130688390Y-86222287D01*
X130804607Y-86281503D01*
X130870776Y-86315218D01*
X130870778Y-86315218D01*
X130870781Y-86315220D01*
X130975137Y-86349127D01*
X131065465Y-86378477D01*
X131166557Y-86394488D01*
X131267648Y-86410500D01*
X131267649Y-86410500D01*
X131472351Y-86410500D01*
X131472352Y-86410500D01*
X131674534Y-86378477D01*
X131869219Y-86315220D01*
X132051610Y-86222287D01*
X132144590Y-86154732D01*
X132217213Y-86101971D01*
X132217215Y-86101968D01*
X132217219Y-86101966D01*
X132361966Y-85957219D01*
X132361968Y-85957215D01*
X132361971Y-85957213D01*
X132482284Y-85791614D01*
X132482285Y-85791613D01*
X132482287Y-85791610D01*
X132529516Y-85698917D01*
X132577489Y-85648123D01*
X132645310Y-85631328D01*
X132711445Y-85653865D01*
X132750485Y-85698919D01*
X132797715Y-85791614D01*
X132918028Y-85957213D01*
X133062786Y-86101971D01*
X133214232Y-86212001D01*
X133228390Y-86222287D01*
X133344607Y-86281503D01*
X133410776Y-86315218D01*
X133410778Y-86315218D01*
X133410781Y-86315220D01*
X133515137Y-86349127D01*
X133605465Y-86378477D01*
X133706557Y-86394488D01*
X133807648Y-86410500D01*
X133807649Y-86410500D01*
X134012351Y-86410500D01*
X134012352Y-86410500D01*
X134214534Y-86378477D01*
X134409219Y-86315220D01*
X134591610Y-86222287D01*
X134605768Y-86212001D01*
X134757213Y-86101971D01*
X134757215Y-86101968D01*
X134757219Y-86101966D01*
X134901966Y-85957219D01*
X134957766Y-85880415D01*
X135013096Y-85837750D01*
X135082710Y-85831771D01*
X135144505Y-85864376D01*
X135178233Y-85922635D01*
X135183438Y-85943030D01*
X135183440Y-85943037D01*
X135206863Y-85999583D01*
X135967037Y-85239409D01*
X135984075Y-85302993D01*
X136049901Y-85417007D01*
X136142993Y-85510099D01*
X136257007Y-85575925D01*
X136320590Y-85592962D01*
X135560415Y-86353135D01*
X135560415Y-86353136D01*
X135616946Y-86376552D01*
X135667946Y-86394544D01*
X135810219Y-86414999D01*
X135810221Y-86415000D01*
X137089786Y-86415000D01*
X137143762Y-86412106D01*
X137143764Y-86412106D01*
X137283023Y-86376563D01*
X137283035Y-86376559D01*
X137339582Y-86353135D01*
X136579409Y-85592962D01*
X136642993Y-85575925D01*
X136757007Y-85510099D01*
X136850099Y-85417007D01*
X136915925Y-85302993D01*
X136932962Y-85239409D01*
X137693135Y-85999582D01*
X137693137Y-85999582D01*
X137716553Y-85943052D01*
X137726668Y-85914379D01*
X137767533Y-85857706D01*
X137832551Y-85832123D01*
X137901078Y-85845752D01*
X137943924Y-85882744D01*
X137998028Y-85957212D01*
X137998032Y-85957217D01*
X138142786Y-86101971D01*
X138294232Y-86212001D01*
X138308390Y-86222287D01*
X138424607Y-86281503D01*
X138490776Y-86315218D01*
X138490778Y-86315218D01*
X138490781Y-86315220D01*
X138595137Y-86349127D01*
X138685465Y-86378477D01*
X138786557Y-86394488D01*
X138887648Y-86410500D01*
X138887649Y-86410500D01*
X139092351Y-86410500D01*
X139092352Y-86410500D01*
X139294534Y-86378477D01*
X139489219Y-86315220D01*
X139671610Y-86222287D01*
X139764590Y-86154732D01*
X139837213Y-86101971D01*
X139837215Y-86101968D01*
X139837219Y-86101966D01*
X139981966Y-85957219D01*
X139981968Y-85957215D01*
X139981971Y-85957213D01*
X140102284Y-85791614D01*
X140102285Y-85791613D01*
X140102287Y-85791610D01*
X140149516Y-85698917D01*
X140197489Y-85648123D01*
X140265310Y-85631328D01*
X140331445Y-85653865D01*
X140370485Y-85698919D01*
X140417715Y-85791614D01*
X140538028Y-85957213D01*
X140682786Y-86101971D01*
X140834232Y-86212001D01*
X140848390Y-86222287D01*
X140964607Y-86281503D01*
X141030776Y-86315218D01*
X141030778Y-86315218D01*
X141030781Y-86315220D01*
X141135137Y-86349127D01*
X141225465Y-86378477D01*
X141326557Y-86394488D01*
X141427648Y-86410500D01*
X141427649Y-86410500D01*
X141632351Y-86410500D01*
X141632352Y-86410500D01*
X141834534Y-86378477D01*
X142029219Y-86315220D01*
X142211610Y-86222287D01*
X142304590Y-86154732D01*
X142377213Y-86101971D01*
X142377215Y-86101968D01*
X142377219Y-86101966D01*
X142521966Y-85957219D01*
X142521968Y-85957215D01*
X142521971Y-85957213D01*
X142642284Y-85791614D01*
X142642285Y-85791613D01*
X142642287Y-85791610D01*
X142689516Y-85698917D01*
X142737489Y-85648123D01*
X142805310Y-85631328D01*
X142871445Y-85653865D01*
X142910485Y-85698919D01*
X142957715Y-85791614D01*
X143078028Y-85957213D01*
X143222786Y-86101971D01*
X143374232Y-86212001D01*
X143388390Y-86222287D01*
X143504607Y-86281503D01*
X143570776Y-86315218D01*
X143570778Y-86315218D01*
X143570781Y-86315220D01*
X143675137Y-86349127D01*
X143765465Y-86378477D01*
X143866557Y-86394488D01*
X143967648Y-86410500D01*
X143967649Y-86410500D01*
X144172351Y-86410500D01*
X144172352Y-86410500D01*
X144374534Y-86378477D01*
X144569219Y-86315220D01*
X144751610Y-86222287D01*
X144844590Y-86154732D01*
X144917213Y-86101971D01*
X144917215Y-86101968D01*
X144917219Y-86101966D01*
X145061966Y-85957219D01*
X145061968Y-85957215D01*
X145061971Y-85957213D01*
X145182284Y-85791614D01*
X145182285Y-85791613D01*
X145182287Y-85791610D01*
X145229516Y-85698917D01*
X145277489Y-85648123D01*
X145345310Y-85631328D01*
X145411445Y-85653865D01*
X145450485Y-85698919D01*
X145497715Y-85791614D01*
X145618028Y-85957213D01*
X145762786Y-86101971D01*
X145914232Y-86212001D01*
X145928390Y-86222287D01*
X146044607Y-86281503D01*
X146110776Y-86315218D01*
X146110778Y-86315218D01*
X146110781Y-86315220D01*
X146215137Y-86349127D01*
X146305465Y-86378477D01*
X146406557Y-86394488D01*
X146507648Y-86410500D01*
X146507649Y-86410500D01*
X146712351Y-86410500D01*
X146712352Y-86410500D01*
X146914534Y-86378477D01*
X147109219Y-86315220D01*
X147291610Y-86222287D01*
X147384590Y-86154732D01*
X147457213Y-86101971D01*
X147457215Y-86101968D01*
X147457219Y-86101966D01*
X147601966Y-85957219D01*
X147657766Y-85880415D01*
X147713096Y-85837750D01*
X147782710Y-85831771D01*
X147844505Y-85864376D01*
X147878233Y-85922635D01*
X147883438Y-85943030D01*
X147883440Y-85943037D01*
X147906863Y-85999583D01*
X148667037Y-85239409D01*
X148684075Y-85302993D01*
X148749901Y-85417007D01*
X148842993Y-85510099D01*
X148957007Y-85575925D01*
X149020589Y-85592962D01*
X148260415Y-86353135D01*
X148260415Y-86353136D01*
X148316946Y-86376552D01*
X148367946Y-86394544D01*
X148510219Y-86414999D01*
X148510221Y-86415000D01*
X148600502Y-86415000D01*
X148667541Y-86434685D01*
X148713296Y-86487489D01*
X148723240Y-86556647D01*
X148694215Y-86620203D01*
X148688183Y-86626681D01*
X146610381Y-88704482D01*
X146610379Y-88704484D01*
X146589355Y-88740900D01*
X146575479Y-88764935D01*
X146531323Y-88841415D01*
X146490399Y-88994143D01*
X146490399Y-88994145D01*
X146490399Y-89162246D01*
X146490400Y-89162259D01*
X146490400Y-89547730D01*
X146490399Y-89547748D01*
X146490399Y-89713454D01*
X146490398Y-89713454D01*
X146531323Y-89866186D01*
X146531324Y-89866187D01*
X146559493Y-89914977D01*
X146610380Y-90003116D01*
X146722184Y-90114920D01*
X146722185Y-90114921D01*
X147053884Y-90446620D01*
X147053886Y-90446621D01*
X147053890Y-90446624D01*
X147190809Y-90525673D01*
X147190816Y-90525677D01*
X147343543Y-90566601D01*
X147343545Y-90566601D01*
X147509254Y-90566601D01*
X147509270Y-90566600D01*
X152248731Y-90566600D01*
X152248747Y-90566601D01*
X152256343Y-90566601D01*
X152414454Y-90566601D01*
X152414457Y-90566601D01*
X152567185Y-90525677D01*
X152617304Y-90496739D01*
X152704116Y-90446620D01*
X152815920Y-90334816D01*
X152815921Y-90334813D01*
X152974764Y-90175970D01*
X153036083Y-90142489D01*
X153038250Y-90142038D01*
X153096185Y-90130513D01*
X153193597Y-90111137D01*
X153339279Y-90050794D01*
X153410633Y-90003117D01*
X153470975Y-89962798D01*
X153537653Y-89941920D01*
X153539866Y-89941900D01*
X166850903Y-89941900D01*
X166917942Y-89961585D01*
X166963697Y-90014389D01*
X166973641Y-90083547D01*
X166944616Y-90147103D01*
X166938584Y-90153581D01*
X156139384Y-100952781D01*
X156078061Y-100986266D01*
X156051703Y-100989100D01*
X151063166Y-100989100D01*
X150996127Y-100969415D01*
X150994275Y-100968202D01*
X150862585Y-100880209D01*
X150862572Y-100880202D01*
X150716901Y-100819864D01*
X150716889Y-100819861D01*
X150562245Y-100789100D01*
X150562242Y-100789100D01*
X150404558Y-100789100D01*
X150404555Y-100789100D01*
X150249910Y-100819861D01*
X150249898Y-100819864D01*
X150104227Y-100880202D01*
X150104214Y-100880209D01*
X149973111Y-100967810D01*
X149973107Y-100967813D01*
X149861613Y-101079307D01*
X149861610Y-101079311D01*
X149774009Y-101210414D01*
X149774002Y-101210427D01*
X149713664Y-101356098D01*
X149713661Y-101356110D01*
X149687985Y-101485191D01*
X149655600Y-101547102D01*
X149594884Y-101581677D01*
X149566368Y-101585000D01*
X148510214Y-101585000D01*
X148456237Y-101587893D01*
X148456235Y-101587893D01*
X148316969Y-101623438D01*
X148316956Y-101623442D01*
X148260415Y-101646862D01*
X149020590Y-102407037D01*
X148957007Y-102424075D01*
X148842993Y-102489901D01*
X148749901Y-102582993D01*
X148684075Y-102697007D01*
X148667037Y-102760590D01*
X147906862Y-102000415D01*
X147883449Y-102056940D01*
X147873329Y-102085626D01*
X147832461Y-102142297D01*
X147767442Y-102167877D01*
X147698915Y-102154244D01*
X147656075Y-102117255D01*
X147601971Y-102042786D01*
X147457213Y-101898028D01*
X147291613Y-101777715D01*
X147291612Y-101777714D01*
X147291610Y-101777713D01*
X147206855Y-101734528D01*
X147109223Y-101684781D01*
X146914534Y-101621522D01*
X146723868Y-101591324D01*
X146712352Y-101589500D01*
X146507648Y-101589500D01*
X146496132Y-101591324D01*
X146305465Y-101621522D01*
X146110776Y-101684781D01*
X145928386Y-101777715D01*
X145762786Y-101898028D01*
X145618028Y-102042786D01*
X145497715Y-102208386D01*
X145450485Y-102301080D01*
X145402510Y-102351876D01*
X145334689Y-102368671D01*
X145268554Y-102346134D01*
X145229515Y-102301080D01*
X145228452Y-102298994D01*
X145182287Y-102208390D01*
X145151653Y-102166225D01*
X145061971Y-102042786D01*
X144917213Y-101898028D01*
X144751613Y-101777715D01*
X144751612Y-101777714D01*
X144751610Y-101777713D01*
X144666855Y-101734528D01*
X144569223Y-101684781D01*
X144374534Y-101621522D01*
X144183868Y-101591324D01*
X144172352Y-101589500D01*
X143967648Y-101589500D01*
X143956132Y-101591324D01*
X143765465Y-101621522D01*
X143570776Y-101684781D01*
X143388386Y-101777715D01*
X143222786Y-101898028D01*
X143078028Y-102042786D01*
X142957715Y-102208386D01*
X142910485Y-102301080D01*
X142862510Y-102351876D01*
X142794689Y-102368671D01*
X142728554Y-102346134D01*
X142689515Y-102301080D01*
X142688452Y-102298994D01*
X142642287Y-102208390D01*
X142611653Y-102166225D01*
X142521971Y-102042786D01*
X142377213Y-101898028D01*
X142211613Y-101777715D01*
X142211612Y-101777714D01*
X142211610Y-101777713D01*
X142126855Y-101734528D01*
X142029223Y-101684781D01*
X141834534Y-101621522D01*
X141643868Y-101591324D01*
X141632352Y-101589500D01*
X141427648Y-101589500D01*
X141416132Y-101591324D01*
X141225465Y-101621522D01*
X141030776Y-101684781D01*
X140848386Y-101777715D01*
X140682786Y-101898028D01*
X140538028Y-102042786D01*
X140417715Y-102208386D01*
X140370485Y-102301080D01*
X140322510Y-102351876D01*
X140254689Y-102368671D01*
X140188554Y-102346134D01*
X140149515Y-102301080D01*
X140148452Y-102298994D01*
X140102287Y-102208390D01*
X140071653Y-102166225D01*
X139981971Y-102042786D01*
X139837213Y-101898028D01*
X139671613Y-101777715D01*
X139671612Y-101777714D01*
X139671610Y-101777713D01*
X139586855Y-101734528D01*
X139489223Y-101684781D01*
X139294534Y-101621522D01*
X139103868Y-101591324D01*
X139092352Y-101589500D01*
X138887648Y-101589500D01*
X138876132Y-101591324D01*
X138685465Y-101621522D01*
X138490776Y-101684781D01*
X138308386Y-101777715D01*
X138142786Y-101898028D01*
X137998032Y-102042782D01*
X137998026Y-102042789D01*
X137942231Y-102119584D01*
X137886901Y-102162250D01*
X137817288Y-102168228D01*
X137755493Y-102135622D01*
X137721765Y-102077361D01*
X137716558Y-102056957D01*
X137693136Y-102000415D01*
X137693135Y-102000415D01*
X136932962Y-102760589D01*
X136915925Y-102697007D01*
X136850099Y-102582993D01*
X136757007Y-102489901D01*
X136642993Y-102424075D01*
X136579410Y-102407037D01*
X137339583Y-101646863D01*
X137339583Y-101646862D01*
X137283052Y-101623447D01*
X137283035Y-101623440D01*
X137232053Y-101605455D01*
X137089780Y-101585000D01*
X135810214Y-101585000D01*
X135756237Y-101587893D01*
X135756235Y-101587893D01*
X135616969Y-101623438D01*
X135616956Y-101623442D01*
X135560415Y-101646862D01*
X136320590Y-102407037D01*
X136257007Y-102424075D01*
X136142993Y-102489901D01*
X136049901Y-102582993D01*
X135984075Y-102697007D01*
X135967037Y-102760590D01*
X135206862Y-102000415D01*
X135183449Y-102056940D01*
X135173329Y-102085626D01*
X135132461Y-102142297D01*
X135067442Y-102167877D01*
X134998915Y-102154244D01*
X134956075Y-102117255D01*
X134901971Y-102042786D01*
X134757213Y-101898028D01*
X134605763Y-101787995D01*
X134591613Y-101777715D01*
X134591612Y-101777714D01*
X134591610Y-101777713D01*
X134506855Y-101734528D01*
X134409223Y-101684781D01*
X134214534Y-101621522D01*
X134023868Y-101591324D01*
X134012352Y-101589500D01*
X133807648Y-101589500D01*
X133796132Y-101591324D01*
X133605465Y-101621522D01*
X133410776Y-101684781D01*
X133228386Y-101777715D01*
X133062786Y-101898028D01*
X132918032Y-102042782D01*
X132859344Y-102123560D01*
X132804014Y-102166225D01*
X132734400Y-102172204D01*
X132672606Y-102139598D01*
X132640641Y-102087566D01*
X132613478Y-102000394D01*
X132525472Y-101854815D01*
X132525470Y-101854813D01*
X132525469Y-101854811D01*
X132405188Y-101734530D01*
X132259606Y-101646522D01*
X132253560Y-101644638D01*
X132097196Y-101595914D01*
X132097194Y-101595913D01*
X132097192Y-101595913D01*
X132046687Y-101591324D01*
X132026616Y-101589500D01*
X130713384Y-101589500D01*
X130694145Y-101591248D01*
X130642807Y-101595913D01*
X130480393Y-101646522D01*
X130334811Y-101734530D01*
X130214530Y-101854811D01*
X130126522Y-102000393D01*
X130075913Y-102162807D01*
X130073433Y-102190100D01*
X130069500Y-102233384D01*
X130069500Y-103546616D01*
X130069763Y-103549506D01*
X130075913Y-103617192D01*
X130126522Y-103779606D01*
X130214530Y-103925188D01*
X130334811Y-104045469D01*
X130334813Y-104045470D01*
X130334815Y-104045472D01*
X130480394Y-104133478D01*
X130642804Y-104184086D01*
X130713384Y-104190500D01*
X130713387Y-104190500D01*
X132026613Y-104190500D01*
X132026616Y-104190500D01*
X132097196Y-104184086D01*
X132259606Y-104133478D01*
X132405185Y-104045472D01*
X132525472Y-103925185D01*
X132613478Y-103779606D01*
X132640641Y-103692433D01*
X132679377Y-103634288D01*
X132743402Y-103606313D01*
X132812388Y-103617394D01*
X132859344Y-103656440D01*
X132918028Y-103737212D01*
X132918032Y-103737217D01*
X133062786Y-103881971D01*
X133187343Y-103972465D01*
X133228390Y-104002287D01*
X133344607Y-104061503D01*
X133410776Y-104095218D01*
X133410778Y-104095218D01*
X133410781Y-104095220D01*
X133504940Y-104125814D01*
X133605465Y-104158477D01*
X133706557Y-104174488D01*
X133807648Y-104190500D01*
X133807649Y-104190500D01*
X134012351Y-104190500D01*
X134012352Y-104190500D01*
X134214534Y-104158477D01*
X134409219Y-104095220D01*
X134591610Y-104002287D01*
X134697733Y-103925185D01*
X134757213Y-103881971D01*
X134757215Y-103881968D01*
X134757219Y-103881966D01*
X134901966Y-103737219D01*
X134901968Y-103737215D01*
X134901971Y-103737213D01*
X135022286Y-103571611D01*
X135022287Y-103571610D01*
X135066058Y-103485703D01*
X135114030Y-103434909D01*
X135181851Y-103418113D01*
X135247986Y-103440650D01*
X135285900Y-103483545D01*
X135321158Y-103549506D01*
X135367533Y-103618912D01*
X135367533Y-103618913D01*
X135967037Y-103019409D01*
X135984075Y-103082993D01*
X136049901Y-103197007D01*
X136142993Y-103290099D01*
X136257007Y-103355925D01*
X136320590Y-103372962D01*
X135721085Y-103972465D01*
X135790493Y-104018841D01*
X135877801Y-104065509D01*
X136023387Y-104125814D01*
X136118135Y-104154555D01*
X136272699Y-104185298D01*
X136371210Y-104195000D01*
X136528790Y-104195000D01*
X136627299Y-104185298D01*
X136627302Y-104185298D01*
X136781864Y-104154555D01*
X136876612Y-104125814D01*
X137022198Y-104065509D01*
X137109501Y-104018844D01*
X137109511Y-104018838D01*
X137178912Y-103972465D01*
X136579409Y-103372962D01*
X136642993Y-103355925D01*
X136757007Y-103290099D01*
X136850099Y-103197007D01*
X136915925Y-103082993D01*
X136932962Y-103019409D01*
X137532465Y-103618912D01*
X137578838Y-103549511D01*
X137578849Y-103549493D01*
X137614099Y-103483546D01*
X137663061Y-103433702D01*
X137731199Y-103418241D01*
X137796879Y-103442073D01*
X137833941Y-103485702D01*
X137864976Y-103546613D01*
X137877715Y-103571614D01*
X137998028Y-103737213D01*
X138142786Y-103881971D01*
X138267343Y-103972465D01*
X138308390Y-104002287D01*
X138424607Y-104061503D01*
X138490776Y-104095218D01*
X138490778Y-104095218D01*
X138490781Y-104095220D01*
X138584940Y-104125814D01*
X138685465Y-104158477D01*
X138786557Y-104174488D01*
X138887648Y-104190500D01*
X138887649Y-104190500D01*
X139092351Y-104190500D01*
X139092352Y-104190500D01*
X139294534Y-104158477D01*
X139489219Y-104095220D01*
X139671610Y-104002287D01*
X139777733Y-103925185D01*
X139837213Y-103881971D01*
X139837215Y-103881968D01*
X139837219Y-103881966D01*
X139981966Y-103737219D01*
X139981968Y-103737215D01*
X139981971Y-103737213D01*
X140102284Y-103571614D01*
X140102286Y-103571611D01*
X140102287Y-103571610D01*
X140149516Y-103478917D01*
X140197489Y-103428123D01*
X140265310Y-103411328D01*
X140331445Y-103433865D01*
X140370483Y-103478917D01*
X140406453Y-103549511D01*
X140417715Y-103571614D01*
X140538028Y-103737213D01*
X140682786Y-103881971D01*
X140807343Y-103972465D01*
X140848390Y-104002287D01*
X140964607Y-104061503D01*
X141030776Y-104095218D01*
X141030778Y-104095218D01*
X141030781Y-104095220D01*
X141124940Y-104125814D01*
X141225465Y-104158477D01*
X141326557Y-104174488D01*
X141427648Y-104190500D01*
X141427649Y-104190500D01*
X141632351Y-104190500D01*
X141632352Y-104190500D01*
X141834534Y-104158477D01*
X142029219Y-104095220D01*
X142211610Y-104002287D01*
X142317733Y-103925185D01*
X142377213Y-103881971D01*
X142377215Y-103881968D01*
X142377219Y-103881966D01*
X142521966Y-103737219D01*
X142521968Y-103737215D01*
X142521971Y-103737213D01*
X142642284Y-103571614D01*
X142642286Y-103571611D01*
X142642287Y-103571610D01*
X142689516Y-103478917D01*
X142737489Y-103428123D01*
X142805310Y-103411328D01*
X142871445Y-103433865D01*
X142910483Y-103478917D01*
X142946453Y-103549511D01*
X142957715Y-103571614D01*
X143078028Y-103737213D01*
X143222786Y-103881971D01*
X143347343Y-103972465D01*
X143388390Y-104002287D01*
X143504607Y-104061503D01*
X143570776Y-104095218D01*
X143570778Y-104095218D01*
X143570781Y-104095220D01*
X143664940Y-104125814D01*
X143765465Y-104158477D01*
X143866557Y-104174488D01*
X143967648Y-104190500D01*
X143967649Y-104190500D01*
X144172351Y-104190500D01*
X144172352Y-104190500D01*
X144374534Y-104158477D01*
X144569219Y-104095220D01*
X144751610Y-104002287D01*
X144857733Y-103925185D01*
X144917213Y-103881971D01*
X144917215Y-103881968D01*
X144917219Y-103881966D01*
X145061966Y-103737219D01*
X145061968Y-103737215D01*
X145061971Y-103737213D01*
X145182284Y-103571614D01*
X145182286Y-103571611D01*
X145182287Y-103571610D01*
X145229516Y-103478917D01*
X145277489Y-103428123D01*
X145345310Y-103411328D01*
X145411445Y-103433865D01*
X145450483Y-103478917D01*
X145486453Y-103549511D01*
X145497715Y-103571614D01*
X145618028Y-103737213D01*
X145762786Y-103881971D01*
X145887343Y-103972465D01*
X145928390Y-104002287D01*
X146044607Y-104061503D01*
X146110776Y-104095218D01*
X146110778Y-104095218D01*
X146110781Y-104095220D01*
X146204940Y-104125814D01*
X146305465Y-104158477D01*
X146406557Y-104174488D01*
X146507648Y-104190500D01*
X146507649Y-104190500D01*
X146712351Y-104190500D01*
X146712352Y-104190500D01*
X146914534Y-104158477D01*
X147109219Y-104095220D01*
X147291610Y-104002287D01*
X147397733Y-103925185D01*
X147457213Y-103881971D01*
X147457215Y-103881968D01*
X147457219Y-103881966D01*
X147601966Y-103737219D01*
X147601968Y-103737215D01*
X147601971Y-103737213D01*
X147722286Y-103571611D01*
X147722287Y-103571610D01*
X147766058Y-103485703D01*
X147814030Y-103434909D01*
X147881851Y-103418113D01*
X147947986Y-103440650D01*
X147985900Y-103483545D01*
X148021158Y-103549506D01*
X148067533Y-103618912D01*
X148067534Y-103618913D01*
X148667037Y-103019409D01*
X148684075Y-103082993D01*
X148749901Y-103197007D01*
X148842993Y-103290099D01*
X148957007Y-103355925D01*
X149020590Y-103372962D01*
X148421085Y-103972465D01*
X148490493Y-104018841D01*
X148577801Y-104065509D01*
X148723387Y-104125814D01*
X148818135Y-104154555D01*
X148972699Y-104185298D01*
X149071210Y-104195000D01*
X149228790Y-104195000D01*
X149327299Y-104185298D01*
X149327302Y-104185298D01*
X149481864Y-104154555D01*
X149576612Y-104125814D01*
X149722198Y-104065509D01*
X149809501Y-104018844D01*
X149809511Y-104018838D01*
X149878912Y-103972465D01*
X149279409Y-103372962D01*
X149342993Y-103355925D01*
X149457007Y-103290099D01*
X149550099Y-103197007D01*
X149615925Y-103082993D01*
X149632962Y-103019409D01*
X150232465Y-103618912D01*
X150278838Y-103549511D01*
X150278849Y-103549493D01*
X150314099Y-103483546D01*
X150363061Y-103433702D01*
X150431199Y-103418241D01*
X150496879Y-103442073D01*
X150533941Y-103485702D01*
X150564976Y-103546613D01*
X150577715Y-103571614D01*
X150698028Y-103737213D01*
X150842786Y-103881971D01*
X150967343Y-103972465D01*
X151008390Y-104002287D01*
X151124607Y-104061503D01*
X151190776Y-104095218D01*
X151190778Y-104095218D01*
X151190781Y-104095220D01*
X151284940Y-104125814D01*
X151385465Y-104158477D01*
X151486557Y-104174488D01*
X151587648Y-104190500D01*
X151587649Y-104190500D01*
X151792351Y-104190500D01*
X151792352Y-104190500D01*
X151994534Y-104158477D01*
X152189219Y-104095220D01*
X152371610Y-104002287D01*
X152477733Y-103925185D01*
X152537213Y-103881971D01*
X152537215Y-103881968D01*
X152537219Y-103881966D01*
X152681966Y-103737219D01*
X152681968Y-103737215D01*
X152681971Y-103737213D01*
X152802284Y-103571614D01*
X152802286Y-103571611D01*
X152802287Y-103571610D01*
X152849516Y-103478917D01*
X152897489Y-103428123D01*
X152965310Y-103411328D01*
X153031445Y-103433865D01*
X153070483Y-103478917D01*
X153106453Y-103549511D01*
X153117715Y-103571614D01*
X153238028Y-103737213D01*
X153382786Y-103881971D01*
X153507343Y-103972465D01*
X153548390Y-104002287D01*
X153664607Y-104061503D01*
X153730776Y-104095218D01*
X153730778Y-104095218D01*
X153730781Y-104095220D01*
X153824940Y-104125814D01*
X153925465Y-104158477D01*
X154026557Y-104174488D01*
X154127648Y-104190500D01*
X154127649Y-104190500D01*
X154332351Y-104190500D01*
X154332352Y-104190500D01*
X154534534Y-104158477D01*
X154729219Y-104095220D01*
X154911610Y-104002287D01*
X155017733Y-103925185D01*
X155077213Y-103881971D01*
X155077215Y-103881968D01*
X155077219Y-103881966D01*
X155221966Y-103737219D01*
X155221968Y-103737215D01*
X155221971Y-103737213D01*
X155342284Y-103571614D01*
X155342286Y-103571611D01*
X155342287Y-103571610D01*
X155389516Y-103478917D01*
X155437489Y-103428123D01*
X155505310Y-103411328D01*
X155571445Y-103433865D01*
X155610483Y-103478917D01*
X155646453Y-103549511D01*
X155657715Y-103571614D01*
X155778028Y-103737213D01*
X155922786Y-103881971D01*
X156047343Y-103972465D01*
X156088390Y-104002287D01*
X156204607Y-104061503D01*
X156270776Y-104095218D01*
X156270778Y-104095218D01*
X156270781Y-104095220D01*
X156364940Y-104125814D01*
X156465465Y-104158477D01*
X156566557Y-104174488D01*
X156667648Y-104190500D01*
X156667649Y-104190500D01*
X156872351Y-104190500D01*
X156872352Y-104190500D01*
X157074534Y-104158477D01*
X157269219Y-104095220D01*
X157451610Y-104002287D01*
X157557733Y-103925185D01*
X157617213Y-103881971D01*
X157617215Y-103881968D01*
X157617219Y-103881966D01*
X157761966Y-103737219D01*
X157761968Y-103737215D01*
X157761971Y-103737213D01*
X157882284Y-103571614D01*
X157882286Y-103571611D01*
X157882287Y-103571610D01*
X157929516Y-103478917D01*
X157977489Y-103428123D01*
X158045310Y-103411328D01*
X158111445Y-103433865D01*
X158150483Y-103478917D01*
X158186453Y-103549511D01*
X158197715Y-103571614D01*
X158318028Y-103737213D01*
X158462786Y-103881971D01*
X158587343Y-103972465D01*
X158628390Y-104002287D01*
X158744607Y-104061503D01*
X158810776Y-104095218D01*
X158810778Y-104095218D01*
X158810781Y-104095220D01*
X158904940Y-104125814D01*
X159005465Y-104158477D01*
X159106557Y-104174488D01*
X159207648Y-104190500D01*
X159207649Y-104190500D01*
X159412351Y-104190500D01*
X159412352Y-104190500D01*
X159614534Y-104158477D01*
X159809219Y-104095220D01*
X159991610Y-104002287D01*
X160097733Y-103925185D01*
X160157213Y-103881971D01*
X160157215Y-103881968D01*
X160157219Y-103881966D01*
X160301966Y-103737219D01*
X160301968Y-103737215D01*
X160301971Y-103737213D01*
X160422286Y-103571611D01*
X160422287Y-103571610D01*
X160466058Y-103485703D01*
X160514030Y-103434909D01*
X160581851Y-103418113D01*
X160647986Y-103440650D01*
X160685900Y-103483545D01*
X160721158Y-103549506D01*
X160767533Y-103618912D01*
X160767534Y-103618913D01*
X161367037Y-103019409D01*
X161384075Y-103082993D01*
X161449901Y-103197007D01*
X161542993Y-103290099D01*
X161657007Y-103355925D01*
X161720590Y-103372962D01*
X161121085Y-103972465D01*
X161190493Y-104018841D01*
X161277801Y-104065509D01*
X161423387Y-104125814D01*
X161518135Y-104154555D01*
X161672699Y-104185298D01*
X161771210Y-104195000D01*
X161928780Y-104195000D01*
X161930522Y-104194914D01*
X161930879Y-104195000D01*
X161931837Y-104195000D01*
X161931837Y-104195230D01*
X161998451Y-104211268D01*
X162046754Y-104261752D01*
X162060096Y-104330336D01*
X162034240Y-104395245D01*
X162024318Y-104406444D01*
X160931884Y-105498881D01*
X160870561Y-105532366D01*
X160844203Y-105535200D01*
X155516966Y-105535200D01*
X155449927Y-105515515D01*
X155448075Y-105514302D01*
X155316385Y-105426309D01*
X155316372Y-105426302D01*
X155170701Y-105365964D01*
X155170689Y-105365961D01*
X155016045Y-105335200D01*
X155016042Y-105335200D01*
X154858358Y-105335200D01*
X154858355Y-105335200D01*
X154703710Y-105365961D01*
X154703698Y-105365964D01*
X154558027Y-105426302D01*
X154558014Y-105426309D01*
X154426911Y-105513910D01*
X154426907Y-105513913D01*
X154315413Y-105625407D01*
X154315410Y-105625411D01*
X154227809Y-105756514D01*
X154227802Y-105756527D01*
X154167464Y-105902198D01*
X154167461Y-105902207D01*
X154158230Y-105948615D01*
X154125844Y-106010526D01*
X154065127Y-106045099D01*
X153995358Y-106041358D01*
X153978158Y-106033779D01*
X153974277Y-106031704D01*
X153828601Y-105971364D01*
X153828589Y-105971361D01*
X153673945Y-105940600D01*
X153673942Y-105940600D01*
X153516258Y-105940600D01*
X153516255Y-105940600D01*
X153361610Y-105971361D01*
X153361598Y-105971364D01*
X153215927Y-106031702D01*
X153215914Y-106031709D01*
X153084811Y-106119310D01*
X153084807Y-106119313D01*
X152973313Y-106230807D01*
X152973310Y-106230811D01*
X152885709Y-106361914D01*
X152885702Y-106361927D01*
X152825364Y-106507598D01*
X152825361Y-106507610D01*
X152795548Y-106657491D01*
X152763163Y-106719402D01*
X152702448Y-106753976D01*
X152673931Y-106757300D01*
X143144082Y-106757300D01*
X143077043Y-106737615D01*
X143040977Y-106702186D01*
X143038989Y-106699211D01*
X143038986Y-106699207D01*
X142927492Y-106587713D01*
X142927488Y-106587710D01*
X142796385Y-106500109D01*
X142796372Y-106500102D01*
X142650701Y-106439764D01*
X142650689Y-106439761D01*
X142496045Y-106409000D01*
X142496042Y-106409000D01*
X142338358Y-106409000D01*
X142338355Y-106409000D01*
X142183710Y-106439761D01*
X142183698Y-106439764D01*
X142038027Y-106500102D01*
X142038014Y-106500109D01*
X141906911Y-106587710D01*
X141906907Y-106587713D01*
X141795413Y-106699207D01*
X141795410Y-106699211D01*
X141707809Y-106830314D01*
X141707802Y-106830327D01*
X141647464Y-106975998D01*
X141647461Y-106976008D01*
X141618980Y-107119192D01*
X141586595Y-107181103D01*
X141525879Y-107215677D01*
X141497363Y-107219000D01*
X138079766Y-107219000D01*
X138012727Y-107199315D01*
X138010875Y-107198102D01*
X137879185Y-107110109D01*
X137879172Y-107110102D01*
X137733501Y-107049764D01*
X137733489Y-107049761D01*
X137578845Y-107019000D01*
X137578842Y-107019000D01*
X137421158Y-107019000D01*
X137421155Y-107019000D01*
X137266510Y-107049761D01*
X137266498Y-107049764D01*
X137120827Y-107110102D01*
X137120814Y-107110109D01*
X136989711Y-107197710D01*
X136989707Y-107197713D01*
X136878213Y-107309207D01*
X136878210Y-107309211D01*
X136790609Y-107440314D01*
X136790602Y-107440327D01*
X136730264Y-107585998D01*
X136730261Y-107586008D01*
X136698657Y-107744892D01*
X136666272Y-107806803D01*
X136605556Y-107841377D01*
X136577040Y-107844700D01*
X135579766Y-107844700D01*
X135512727Y-107825015D01*
X135510875Y-107823802D01*
X135379185Y-107735809D01*
X135379172Y-107735802D01*
X135233501Y-107675464D01*
X135233489Y-107675461D01*
X135078845Y-107644700D01*
X135078842Y-107644700D01*
X134921158Y-107644700D01*
X134921155Y-107644700D01*
X134766510Y-107675461D01*
X134766498Y-107675464D01*
X134620827Y-107735802D01*
X134620814Y-107735809D01*
X134489711Y-107823410D01*
X134489707Y-107823413D01*
X134378213Y-107934907D01*
X134378210Y-107934911D01*
X134290609Y-108066014D01*
X134290602Y-108066027D01*
X134230264Y-108211698D01*
X134230261Y-108211710D01*
X134199500Y-108366353D01*
X134199500Y-108524046D01*
X134230261Y-108678689D01*
X134230264Y-108678701D01*
X134290602Y-108824372D01*
X134290609Y-108824385D01*
X134378210Y-108955488D01*
X134378213Y-108955492D01*
X134489707Y-109066986D01*
X134489711Y-109066989D01*
X134620814Y-109154590D01*
X134620827Y-109154597D01*
X134699894Y-109187347D01*
X134766503Y-109214937D01*
X134921153Y-109245699D01*
X134921156Y-109245700D01*
X134921158Y-109245700D01*
X135078844Y-109245700D01*
X135078845Y-109245699D01*
X135233497Y-109214937D01*
X135379179Y-109154594D01*
X135433663Y-109118189D01*
X135510875Y-109066598D01*
X135577553Y-109045720D01*
X135579766Y-109045700D01*
X171443902Y-109045700D01*
X171510941Y-109065385D01*
X171556696Y-109118189D01*
X171566640Y-109187347D01*
X171537615Y-109250903D01*
X171531583Y-109257381D01*
X170976284Y-109812681D01*
X170914961Y-109846166D01*
X170888603Y-109849000D01*
X151664866Y-109849000D01*
X151597827Y-109829315D01*
X151595975Y-109828102D01*
X151464285Y-109740109D01*
X151464272Y-109740102D01*
X151318601Y-109679764D01*
X151318589Y-109679761D01*
X151163945Y-109649000D01*
X151163942Y-109649000D01*
X151006258Y-109649000D01*
X151006255Y-109649000D01*
X150851610Y-109679761D01*
X150851598Y-109679764D01*
X150705927Y-109740102D01*
X150705914Y-109740109D01*
X150574811Y-109827710D01*
X150574807Y-109827713D01*
X150463313Y-109939207D01*
X150463310Y-109939211D01*
X150375709Y-110070314D01*
X150375702Y-110070327D01*
X150315364Y-110215998D01*
X150315361Y-110216010D01*
X150284600Y-110370653D01*
X150284600Y-110528346D01*
X150299929Y-110605409D01*
X150293702Y-110675000D01*
X150250839Y-110730178D01*
X150184949Y-110753422D01*
X150178312Y-110753600D01*
X133125666Y-110753600D01*
X133058627Y-110733915D01*
X133056775Y-110732702D01*
X132925085Y-110644709D01*
X132925072Y-110644702D01*
X132779401Y-110584364D01*
X132779389Y-110584361D01*
X132624745Y-110553600D01*
X132624742Y-110553600D01*
X132467058Y-110553600D01*
X132467055Y-110553600D01*
X132312410Y-110584361D01*
X132312398Y-110584364D01*
X132166727Y-110644702D01*
X132166714Y-110644709D01*
X132035611Y-110732310D01*
X132035607Y-110732313D01*
X131924113Y-110843807D01*
X131924110Y-110843811D01*
X131836509Y-110974914D01*
X131836502Y-110974927D01*
X131776164Y-111120598D01*
X131776161Y-111120610D01*
X131745400Y-111275253D01*
X131745400Y-111432946D01*
X131776161Y-111587589D01*
X131776164Y-111587601D01*
X131836502Y-111733272D01*
X131836509Y-111733285D01*
X131924110Y-111864388D01*
X131924113Y-111864392D01*
X132035607Y-111975886D01*
X132035611Y-111975889D01*
X132166714Y-112063490D01*
X132166727Y-112063497D01*
X132312398Y-112123835D01*
X132312403Y-112123837D01*
X132467053Y-112154599D01*
X132467056Y-112154600D01*
X132467058Y-112154600D01*
X132624744Y-112154600D01*
X132624745Y-112154599D01*
X132779397Y-112123837D01*
X132925079Y-112063494D01*
X132925085Y-112063490D01*
X133056775Y-111975498D01*
X133123453Y-111954620D01*
X133125666Y-111954600D01*
X171079231Y-111954600D01*
X171079247Y-111954601D01*
X171086843Y-111954601D01*
X171244954Y-111954601D01*
X171244957Y-111954601D01*
X171397685Y-111913677D01*
X171447804Y-111884739D01*
X171534616Y-111834620D01*
X171646420Y-111722816D01*
X171646420Y-111722814D01*
X171656628Y-111712607D01*
X171656630Y-111712604D01*
X179185158Y-104184075D01*
X179246479Y-104150592D01*
X179311151Y-104153825D01*
X179325466Y-104158477D01*
X179527648Y-104190500D01*
X179527649Y-104190500D01*
X179732351Y-104190500D01*
X179732352Y-104190500D01*
X179934534Y-104158477D01*
X180129219Y-104095220D01*
X180311610Y-104002287D01*
X180417733Y-103925185D01*
X180477213Y-103881971D01*
X180477215Y-103881968D01*
X180477219Y-103881966D01*
X180621966Y-103737219D01*
X180621968Y-103737215D01*
X180621971Y-103737213D01*
X180696749Y-103634288D01*
X180742287Y-103571610D01*
X180835220Y-103389219D01*
X180898477Y-103194534D01*
X180930500Y-102992352D01*
X180930500Y-102787648D01*
X180898477Y-102585466D01*
X180897673Y-102582993D01*
X180835218Y-102390776D01*
X180788452Y-102298994D01*
X180742287Y-102208390D01*
X180711653Y-102166225D01*
X180621971Y-102042786D01*
X180477213Y-101898028D01*
X180311613Y-101777715D01*
X180311612Y-101777714D01*
X180311610Y-101777713D01*
X180226855Y-101734528D01*
X180129223Y-101684781D01*
X179934534Y-101621522D01*
X179743868Y-101591324D01*
X179732352Y-101589500D01*
X179527648Y-101589500D01*
X179460254Y-101600174D01*
X179325464Y-101621523D01*
X179325461Y-101621523D01*
X179149422Y-101678723D01*
X179079581Y-101680718D01*
X179019748Y-101644638D01*
X178988920Y-101581937D01*
X178996885Y-101512523D01*
X179023420Y-101473114D01*
X181816962Y-98679572D01*
X181878283Y-98646089D01*
X181880450Y-98645638D01*
X181938385Y-98634113D01*
X182035797Y-98614737D01*
X182181479Y-98554394D01*
X182312589Y-98466789D01*
X182424089Y-98355289D01*
X182511694Y-98224179D01*
X182572037Y-98078497D01*
X182602800Y-97923842D01*
X182602800Y-97766158D01*
X182602800Y-97766155D01*
X182602799Y-97766153D01*
X182572038Y-97611510D01*
X182572038Y-97611508D01*
X182572037Y-97611503D01*
X182569255Y-97604786D01*
X182511697Y-97465827D01*
X182511690Y-97465814D01*
X182424089Y-97334711D01*
X182424086Y-97334707D01*
X182312592Y-97223213D01*
X182312588Y-97223210D01*
X182181485Y-97135609D01*
X182181472Y-97135602D01*
X182035801Y-97075264D01*
X182035789Y-97075261D01*
X181881145Y-97044500D01*
X181881142Y-97044500D01*
X181723458Y-97044500D01*
X181723455Y-97044500D01*
X181568810Y-97075261D01*
X181568798Y-97075264D01*
X181423127Y-97135602D01*
X181423114Y-97135609D01*
X181292011Y-97223210D01*
X181292007Y-97223213D01*
X181180513Y-97334707D01*
X181180510Y-97334711D01*
X181092909Y-97465814D01*
X181092902Y-97465827D01*
X181032564Y-97611498D01*
X181032561Y-97611508D01*
X181001661Y-97766850D01*
X180969276Y-97828761D01*
X180967725Y-97830339D01*
X177711181Y-101086882D01*
X177711179Y-101086885D01*
X177689145Y-101125050D01*
X177672163Y-101154465D01*
X177661061Y-101173694D01*
X177661059Y-101173696D01*
X177632125Y-101223809D01*
X177632124Y-101223810D01*
X177632123Y-101223815D01*
X177591199Y-101376543D01*
X177591199Y-101376545D01*
X177591199Y-101514751D01*
X177571514Y-101581790D01*
X177518710Y-101627545D01*
X177449552Y-101637489D01*
X177428882Y-101632682D01*
X177394542Y-101621524D01*
X177394535Y-101621523D01*
X177293086Y-101605455D01*
X177192352Y-101589500D01*
X176987648Y-101589500D01*
X176976132Y-101591324D01*
X176785465Y-101621522D01*
X176590776Y-101684781D01*
X176408386Y-101777715D01*
X176242786Y-101898028D01*
X176098032Y-102042782D01*
X176098026Y-102042789D01*
X176042231Y-102119584D01*
X175986901Y-102162250D01*
X175917288Y-102168228D01*
X175855493Y-102135622D01*
X175821765Y-102077361D01*
X175816558Y-102056957D01*
X175793136Y-102000415D01*
X175793135Y-102000415D01*
X175032962Y-102760589D01*
X175015925Y-102697007D01*
X174950099Y-102582993D01*
X174857007Y-102489901D01*
X174742993Y-102424075D01*
X174679410Y-102407037D01*
X175439583Y-101646863D01*
X175439583Y-101646862D01*
X175383052Y-101623447D01*
X175383035Y-101623440D01*
X175332053Y-101605455D01*
X175189780Y-101585000D01*
X173910214Y-101585000D01*
X173856237Y-101587893D01*
X173856235Y-101587893D01*
X173716969Y-101623438D01*
X173716956Y-101623442D01*
X173660415Y-101646862D01*
X174420590Y-102407037D01*
X174357007Y-102424075D01*
X174242993Y-102489901D01*
X174149901Y-102582993D01*
X174084075Y-102697007D01*
X174067037Y-102760590D01*
X173306862Y-102000415D01*
X173283449Y-102056940D01*
X173273329Y-102085626D01*
X173232461Y-102142297D01*
X173167442Y-102167877D01*
X173098915Y-102154244D01*
X173056075Y-102117255D01*
X173001971Y-102042786D01*
X172857213Y-101898028D01*
X172705763Y-101787995D01*
X172691613Y-101777715D01*
X172691612Y-101777714D01*
X172691610Y-101777713D01*
X172606855Y-101734528D01*
X172509223Y-101684781D01*
X172314534Y-101621522D01*
X172123868Y-101591324D01*
X172112352Y-101589500D01*
X171907648Y-101589500D01*
X171896132Y-101591324D01*
X171705465Y-101621522D01*
X171510776Y-101684781D01*
X171328386Y-101777715D01*
X171162786Y-101898028D01*
X171018028Y-102042786D01*
X170897715Y-102208386D01*
X170850485Y-102301080D01*
X170802510Y-102351876D01*
X170734689Y-102368671D01*
X170668554Y-102346134D01*
X170629515Y-102301080D01*
X170628452Y-102298994D01*
X170582287Y-102208390D01*
X170551653Y-102166225D01*
X170461971Y-102042786D01*
X170317213Y-101898028D01*
X170151613Y-101777715D01*
X170151612Y-101777714D01*
X170151610Y-101777713D01*
X170066855Y-101734528D01*
X169969223Y-101684781D01*
X169774534Y-101621522D01*
X169583868Y-101591324D01*
X169572352Y-101589500D01*
X169367648Y-101589500D01*
X169356132Y-101591324D01*
X169165465Y-101621522D01*
X168970776Y-101684781D01*
X168788386Y-101777715D01*
X168622786Y-101898028D01*
X168478028Y-102042786D01*
X168357715Y-102208386D01*
X168310485Y-102301080D01*
X168262510Y-102351876D01*
X168194689Y-102368671D01*
X168128554Y-102346134D01*
X168089515Y-102301080D01*
X168088452Y-102298994D01*
X168042287Y-102208390D01*
X168011653Y-102166225D01*
X167921971Y-102042786D01*
X167777213Y-101898028D01*
X167611613Y-101777715D01*
X167611612Y-101777714D01*
X167611610Y-101777713D01*
X167526855Y-101734528D01*
X167429223Y-101684781D01*
X167234534Y-101621522D01*
X167043868Y-101591324D01*
X167032352Y-101589500D01*
X166827648Y-101589500D01*
X166816132Y-101591324D01*
X166625465Y-101621522D01*
X166430776Y-101684781D01*
X166248386Y-101777715D01*
X166082786Y-101898028D01*
X165938028Y-102042786D01*
X165817715Y-102208386D01*
X165770485Y-102301080D01*
X165722510Y-102351876D01*
X165654689Y-102368671D01*
X165588554Y-102346134D01*
X165549515Y-102301080D01*
X165548452Y-102298994D01*
X165502287Y-102208390D01*
X165471653Y-102166225D01*
X165381971Y-102042786D01*
X165237213Y-101898028D01*
X165071613Y-101777715D01*
X165071612Y-101777714D01*
X165071610Y-101777713D01*
X164986855Y-101734528D01*
X164889223Y-101684781D01*
X164694534Y-101621522D01*
X164503868Y-101591324D01*
X164492352Y-101589500D01*
X164287648Y-101589500D01*
X164276132Y-101591324D01*
X164085465Y-101621522D01*
X163890776Y-101684781D01*
X163708386Y-101777715D01*
X163542786Y-101898028D01*
X163398032Y-102042782D01*
X163398026Y-102042789D01*
X163342231Y-102119584D01*
X163286901Y-102162250D01*
X163217288Y-102168228D01*
X163155493Y-102135622D01*
X163121765Y-102077361D01*
X163116558Y-102056957D01*
X163093136Y-102000415D01*
X163093135Y-102000415D01*
X162332962Y-102760589D01*
X162315925Y-102697007D01*
X162250099Y-102582993D01*
X162157007Y-102489901D01*
X162042993Y-102424075D01*
X161979410Y-102407037D01*
X162739583Y-101646863D01*
X162739583Y-101646862D01*
X162683052Y-101623447D01*
X162683035Y-101623440D01*
X162632053Y-101605455D01*
X162489780Y-101585000D01*
X161210214Y-101585000D01*
X161156237Y-101587893D01*
X161156235Y-101587893D01*
X161016969Y-101623438D01*
X161016956Y-101623442D01*
X160960415Y-101646862D01*
X161720590Y-102407037D01*
X161657007Y-102424075D01*
X161542993Y-102489901D01*
X161449901Y-102582993D01*
X161384075Y-102697007D01*
X161367037Y-102760590D01*
X160606862Y-102000415D01*
X160583449Y-102056940D01*
X160573329Y-102085626D01*
X160532461Y-102142297D01*
X160467442Y-102167877D01*
X160398915Y-102154244D01*
X160356075Y-102117255D01*
X160301971Y-102042786D01*
X160157213Y-101898028D01*
X160012580Y-101792947D01*
X160012572Y-101792942D01*
X159991610Y-101777713D01*
X159845898Y-101703468D01*
X159844719Y-101702836D01*
X159820744Y-101679201D01*
X159796278Y-101656093D01*
X159795946Y-101654753D01*
X159794963Y-101653784D01*
X159787571Y-101620934D01*
X159779483Y-101588272D01*
X159779849Y-101586616D01*
X159779625Y-101585619D01*
X159780755Y-101582520D01*
X159788807Y-101546133D01*
X159834137Y-101436697D01*
X159864900Y-101282042D01*
X159864900Y-101124358D01*
X159864900Y-101124355D01*
X159864899Y-101124353D01*
X159857446Y-101086884D01*
X159834137Y-100969703D01*
X159797068Y-100880209D01*
X159773797Y-100824027D01*
X159773790Y-100824014D01*
X159686189Y-100692911D01*
X159686186Y-100692907D01*
X159574692Y-100581413D01*
X159574688Y-100581410D01*
X159443585Y-100493809D01*
X159443572Y-100493802D01*
X159297901Y-100433464D01*
X159297889Y-100433461D01*
X159143245Y-100402700D01*
X159143242Y-100402700D01*
X158985558Y-100402700D01*
X158985555Y-100402700D01*
X158830910Y-100433461D01*
X158830898Y-100433464D01*
X158685227Y-100493802D01*
X158685214Y-100493809D01*
X158561547Y-100576442D01*
X158494870Y-100597320D01*
X158443539Y-100583238D01*
X158458224Y-100622610D01*
X158443372Y-100690883D01*
X158437642Y-100700347D01*
X158355009Y-100824014D01*
X158355002Y-100824027D01*
X158294664Y-100969698D01*
X158294661Y-100969708D01*
X158263761Y-101125050D01*
X158231376Y-101186961D01*
X158229825Y-101188539D01*
X157635988Y-101782376D01*
X157612718Y-101795082D01*
X157591467Y-101810941D01*
X157582528Y-101811566D01*
X157574665Y-101815861D01*
X157548218Y-101813969D01*
X157521768Y-101815822D01*
X157511849Y-101811368D01*
X157504973Y-101810877D01*
X157488718Y-101803438D01*
X157481800Y-101799647D01*
X157451610Y-101777713D01*
X157311443Y-101706294D01*
X157309771Y-101705378D01*
X157286374Y-101681911D01*
X157262269Y-101659145D01*
X157261804Y-101657268D01*
X157260439Y-101655899D01*
X157253439Y-101623489D01*
X157245474Y-101591324D01*
X157246097Y-101589494D01*
X157245689Y-101587604D01*
X157257324Y-101556548D01*
X157268012Y-101525189D01*
X157269927Y-101522913D01*
X157270204Y-101522176D01*
X157271130Y-101521484D01*
X157281673Y-101508960D01*
X158246859Y-100543774D01*
X158308182Y-100510290D01*
X158377874Y-100515274D01*
X158379066Y-100516166D01*
X158369623Y-100457887D01*
X158397508Y-100393823D01*
X158404975Y-100385659D01*
X171721716Y-87068919D01*
X171783039Y-87035434D01*
X171809397Y-87032600D01*
X172376000Y-87032600D01*
X172443039Y-87052285D01*
X172488794Y-87105089D01*
X172500000Y-87156600D01*
X172500000Y-101100000D01*
X176839895Y-101100000D01*
X180154960Y-96831286D01*
X180452662Y-96447944D01*
X180509328Y-96407069D01*
X180550598Y-96400000D01*
X181500000Y-96400000D01*
X181500000Y-91600000D01*
X180550598Y-91600000D01*
X180483559Y-91580315D01*
X180452662Y-91552056D01*
X177098235Y-87232656D01*
X177072663Y-87167635D01*
X177086304Y-87099110D01*
X177134826Y-87048837D01*
X177196171Y-87032600D01*
X178221231Y-87032600D01*
X178221247Y-87032601D01*
X178228843Y-87032601D01*
X178386954Y-87032601D01*
X178386957Y-87032601D01*
X178539685Y-86991677D01*
X178589804Y-86962739D01*
X178676616Y-86912620D01*
X178788420Y-86800816D01*
X178788420Y-86800814D01*
X178798628Y-86790607D01*
X178798630Y-86790604D01*
X179185158Y-86404075D01*
X179246479Y-86370592D01*
X179311151Y-86373825D01*
X179325466Y-86378477D01*
X179527648Y-86410500D01*
X179527649Y-86410500D01*
X179732351Y-86410500D01*
X179732352Y-86410500D01*
X179934534Y-86378477D01*
X180129219Y-86315220D01*
X180311610Y-86222287D01*
X180404590Y-86154732D01*
X180477213Y-86101971D01*
X180477215Y-86101968D01*
X180477219Y-86101966D01*
X180621966Y-85957219D01*
X180621968Y-85957215D01*
X180621971Y-85957213D01*
X180702951Y-85845752D01*
X180742287Y-85791610D01*
X180835220Y-85609219D01*
X180898477Y-85414534D01*
X180930500Y-85212352D01*
X180930500Y-85007648D01*
X180898477Y-84805466D01*
X180893825Y-84791151D01*
X180891832Y-84721312D01*
X180924075Y-84665158D01*
X181675913Y-83913321D01*
X181675916Y-83913320D01*
X181787720Y-83801516D01*
X181837839Y-83714704D01*
X181866777Y-83664585D01*
X181907701Y-83511857D01*
X181907701Y-83353743D01*
X181907701Y-83346148D01*
X181907700Y-83346130D01*
X181907700Y-81617290D01*
X181927385Y-81550251D01*
X181980189Y-81504496D01*
X182049347Y-81494552D01*
X182100589Y-81514186D01*
X182157321Y-81552094D01*
X182157323Y-81552095D01*
X182157327Y-81552097D01*
X182302998Y-81612435D01*
X182303003Y-81612437D01*
X182457653Y-81643199D01*
X182457656Y-81643200D01*
X182457658Y-81643200D01*
X182615344Y-81643200D01*
X182615345Y-81643199D01*
X182769997Y-81612437D01*
X182915679Y-81552094D01*
X183046789Y-81464489D01*
X183158289Y-81352989D01*
X183245894Y-81221879D01*
X183306237Y-81076197D01*
X183337000Y-80921542D01*
X183337000Y-80763858D01*
X183337000Y-80763855D01*
X183336999Y-80763853D01*
X183333717Y-80747353D01*
X183306237Y-80609203D01*
X183295176Y-80582500D01*
X183245897Y-80463527D01*
X183245890Y-80463514D01*
X183158289Y-80332411D01*
X183158286Y-80332407D01*
X183046792Y-80220913D01*
X183046788Y-80220910D01*
X182915685Y-80133309D01*
X182915672Y-80133302D01*
X182770001Y-80072964D01*
X182769991Y-80072961D01*
X182614649Y-80042061D01*
X182552738Y-80009676D01*
X182551160Y-80008125D01*
X179756416Y-77213381D01*
X179722931Y-77152058D01*
X179727915Y-77082366D01*
X179769787Y-77026433D01*
X179835251Y-77002016D01*
X179844097Y-77001700D01*
X181254103Y-77001700D01*
X181321142Y-77021385D01*
X181341784Y-77038019D01*
X182163425Y-77859660D01*
X182196910Y-77920983D01*
X182197361Y-77923149D01*
X182228261Y-78078491D01*
X182228264Y-78078501D01*
X182288602Y-78224172D01*
X182288609Y-78224185D01*
X182376210Y-78355288D01*
X182376213Y-78355292D01*
X182487707Y-78466786D01*
X182487711Y-78466789D01*
X182618814Y-78554390D01*
X182618827Y-78554397D01*
X182764498Y-78614735D01*
X182764503Y-78614737D01*
X182919153Y-78645499D01*
X182919156Y-78645500D01*
X182919158Y-78645500D01*
X183076844Y-78645500D01*
X183076845Y-78645499D01*
X183231497Y-78614737D01*
X183344166Y-78568067D01*
X183377172Y-78554397D01*
X183377172Y-78554396D01*
X183377179Y-78554394D01*
X183508289Y-78466789D01*
X183619789Y-78355289D01*
X183707394Y-78224179D01*
X183767737Y-78078497D01*
X183798500Y-77923842D01*
X183798500Y-77766158D01*
X183798500Y-77766155D01*
X183798499Y-77766153D01*
X183789975Y-77723300D01*
X183767737Y-77611503D01*
X183728218Y-77516095D01*
X183707397Y-77465827D01*
X183707390Y-77465814D01*
X183619789Y-77334711D01*
X183619786Y-77334707D01*
X183508292Y-77223213D01*
X183508288Y-77223210D01*
X183377185Y-77135609D01*
X183377172Y-77135602D01*
X183231501Y-77075264D01*
X183231491Y-77075261D01*
X183076151Y-77044362D01*
X183014241Y-77011977D01*
X183012662Y-77010426D01*
X182041790Y-76039555D01*
X182041788Y-76039552D01*
X181922917Y-75920681D01*
X181922916Y-75920680D01*
X181836104Y-75870560D01*
X181836104Y-75870559D01*
X181836100Y-75870558D01*
X181785985Y-75841623D01*
X181633257Y-75800699D01*
X181475143Y-75800699D01*
X181467547Y-75800699D01*
X181467531Y-75800700D01*
X175260266Y-75800700D01*
X175193227Y-75781015D01*
X175191375Y-75779802D01*
X175059685Y-75691809D01*
X175059672Y-75691802D01*
X174914001Y-75631464D01*
X174913989Y-75631461D01*
X174759345Y-75600700D01*
X174759342Y-75600700D01*
X174601658Y-75600700D01*
X174601655Y-75600700D01*
X174447010Y-75631461D01*
X174446998Y-75631464D01*
X174301327Y-75691802D01*
X174301314Y-75691809D01*
X174170211Y-75779410D01*
X174170207Y-75779413D01*
X174058713Y-75890907D01*
X174058710Y-75890911D01*
X173971109Y-76022014D01*
X173971102Y-76022027D01*
X173910764Y-76167698D01*
X173910761Y-76167710D01*
X173880000Y-76322353D01*
X173880000Y-76350336D01*
X173860315Y-76417375D01*
X173807511Y-76463130D01*
X173803453Y-76464897D01*
X173699624Y-76507904D01*
X173699614Y-76507909D01*
X173568511Y-76595510D01*
X173568507Y-76595513D01*
X173457013Y-76707007D01*
X173457010Y-76707011D01*
X173369409Y-76838114D01*
X173369402Y-76838127D01*
X173309064Y-76983798D01*
X173309061Y-76983810D01*
X173278300Y-77138453D01*
X173278300Y-77198600D01*
X173258615Y-77265639D01*
X173205811Y-77311394D01*
X173154300Y-77322600D01*
X168193895Y-77322600D01*
X168126856Y-77302915D01*
X168081101Y-77250111D01*
X168071157Y-77180953D01*
X168090793Y-77129709D01*
X168141590Y-77053685D01*
X168141590Y-77053684D01*
X168141594Y-77053679D01*
X168201937Y-76907997D01*
X168222352Y-76805366D01*
X168232838Y-76752650D01*
X168265223Y-76690739D01*
X168266717Y-76689217D01*
X170705520Y-74250416D01*
X170784577Y-74113484D01*
X170825501Y-73960757D01*
X170825501Y-73802642D01*
X170825501Y-73795047D01*
X170825500Y-73795029D01*
X170825500Y-67618465D01*
X170845185Y-67551426D01*
X170846398Y-67549574D01*
X170934390Y-67417885D01*
X170934390Y-67417884D01*
X170934394Y-67417879D01*
X170994737Y-67272197D01*
X171025500Y-67117542D01*
X171025500Y-66959858D01*
X171025500Y-66959855D01*
X171025499Y-66959853D01*
X170994738Y-66805210D01*
X170994737Y-66805203D01*
X170994735Y-66805198D01*
X170934397Y-66659527D01*
X170934390Y-66659514D01*
X170846789Y-66528411D01*
X170846786Y-66528407D01*
X170735292Y-66416913D01*
X170735288Y-66416910D01*
X170604185Y-66329309D01*
X170604172Y-66329302D01*
X170458501Y-66268964D01*
X170458489Y-66268961D01*
X170303845Y-66238200D01*
X170303842Y-66238200D01*
X170146158Y-66238200D01*
X170146155Y-66238200D01*
X169991510Y-66268961D01*
X169991498Y-66268964D01*
X169845827Y-66329302D01*
X169845814Y-66329309D01*
X169714125Y-66417302D01*
X169647447Y-66438180D01*
X169645234Y-66438200D01*
X140804766Y-66438200D01*
X140737727Y-66418515D01*
X140735875Y-66417302D01*
X140604185Y-66329309D01*
X140604172Y-66329302D01*
X140458501Y-66268964D01*
X140458489Y-66268961D01*
X140303845Y-66238200D01*
X140303842Y-66238200D01*
X140146158Y-66238200D01*
X140146155Y-66238200D01*
X139991510Y-66268961D01*
X139991498Y-66268964D01*
X139845827Y-66329302D01*
X139845814Y-66329309D01*
X139714711Y-66416910D01*
X139714707Y-66416913D01*
X139603213Y-66528407D01*
X139603210Y-66528411D01*
X139515609Y-66659514D01*
X139515602Y-66659527D01*
X139455264Y-66805198D01*
X139455261Y-66805210D01*
X139424500Y-66959853D01*
X139424500Y-67117546D01*
X139455261Y-67272189D01*
X139455264Y-67272201D01*
X139515602Y-67417872D01*
X139515609Y-67417885D01*
X139603210Y-67548988D01*
X139603213Y-67548992D01*
X139714707Y-67660486D01*
X139714711Y-67660489D01*
X139845814Y-67748090D01*
X139845827Y-67748097D01*
X139940808Y-67787439D01*
X139995212Y-67831280D01*
X140017277Y-67897574D01*
X139999998Y-67965273D01*
X139948861Y-68012884D01*
X139893356Y-68026000D01*
X129764866Y-68026000D01*
X129697827Y-68006315D01*
X129695975Y-68005102D01*
X129564285Y-67917109D01*
X129564272Y-67917102D01*
X129418601Y-67856764D01*
X129418589Y-67856761D01*
X129263945Y-67826000D01*
X129263942Y-67826000D01*
X129106258Y-67826000D01*
X129106255Y-67826000D01*
X128951610Y-67856761D01*
X128951598Y-67856764D01*
X128805927Y-67917102D01*
X128805914Y-67917109D01*
X128674811Y-68004710D01*
X128674807Y-68004713D01*
X128563313Y-68116207D01*
X128563310Y-68116211D01*
X128475709Y-68247314D01*
X128475702Y-68247327D01*
X128415364Y-68392998D01*
X128415361Y-68393010D01*
X128384600Y-68547653D01*
X125500500Y-68547653D01*
X125500500Y-63910853D01*
X138147000Y-63910853D01*
X138147000Y-64068546D01*
X138177761Y-64223189D01*
X138177764Y-64223201D01*
X138238102Y-64368872D01*
X138238109Y-64368885D01*
X138325710Y-64499988D01*
X138325713Y-64499992D01*
X138437207Y-64611486D01*
X138437211Y-64611489D01*
X138568314Y-64699090D01*
X138568327Y-64699097D01*
X138713998Y-64759435D01*
X138714003Y-64759437D01*
X138868653Y-64790199D01*
X138868656Y-64790200D01*
X138868658Y-64790200D01*
X139026344Y-64790200D01*
X139026345Y-64790199D01*
X139180997Y-64759437D01*
X139326679Y-64699094D01*
X139326685Y-64699090D01*
X139458375Y-64611098D01*
X139525053Y-64590220D01*
X139527266Y-64590200D01*
X168384834Y-64590200D01*
X168451873Y-64609885D01*
X168453725Y-64611098D01*
X168585414Y-64699090D01*
X168585427Y-64699097D01*
X168731098Y-64759435D01*
X168731103Y-64759437D01*
X168885753Y-64790199D01*
X168885756Y-64790200D01*
X168885758Y-64790200D01*
X169043444Y-64790200D01*
X169043445Y-64790199D01*
X169198097Y-64759437D01*
X169343779Y-64699094D01*
X169474889Y-64611489D01*
X169586389Y-64499989D01*
X169673994Y-64368879D01*
X169734337Y-64223197D01*
X169765100Y-64068542D01*
X169765100Y-63910858D01*
X169765100Y-63910855D01*
X169765099Y-63910853D01*
X169734338Y-63756210D01*
X169734337Y-63756203D01*
X169734335Y-63756198D01*
X169673997Y-63610527D01*
X169673990Y-63610514D01*
X169586389Y-63479411D01*
X169586386Y-63479407D01*
X169474892Y-63367913D01*
X169474888Y-63367910D01*
X169343785Y-63280309D01*
X169343772Y-63280302D01*
X169198101Y-63219964D01*
X169198089Y-63219961D01*
X169043445Y-63189200D01*
X169043442Y-63189200D01*
X168885758Y-63189200D01*
X168885755Y-63189200D01*
X168731110Y-63219961D01*
X168731098Y-63219964D01*
X168585427Y-63280302D01*
X168585414Y-63280309D01*
X168453725Y-63368302D01*
X168387047Y-63389180D01*
X168384834Y-63389200D01*
X139527266Y-63389200D01*
X139460227Y-63369515D01*
X139458375Y-63368302D01*
X139326685Y-63280309D01*
X139326672Y-63280302D01*
X139181001Y-63219964D01*
X139180989Y-63219961D01*
X139026345Y-63189200D01*
X139026342Y-63189200D01*
X138868658Y-63189200D01*
X138868655Y-63189200D01*
X138714010Y-63219961D01*
X138713998Y-63219964D01*
X138568327Y-63280302D01*
X138568314Y-63280309D01*
X138437211Y-63367910D01*
X138437207Y-63367913D01*
X138325713Y-63479407D01*
X138325710Y-63479411D01*
X138238109Y-63610514D01*
X138238102Y-63610527D01*
X138177764Y-63756198D01*
X138177761Y-63756210D01*
X138147000Y-63910853D01*
X125500500Y-63910853D01*
X125500500Y-42624500D01*
X125520185Y-42557461D01*
X125572989Y-42511706D01*
X125624500Y-42500500D01*
X148350903Y-42500500D01*
X148417942Y-42520185D01*
G37*
%TD.AperFunction*%
%TA.AperFunction,Conductor*%
G36*
X180501642Y-46848185D02*
G01*
X180522284Y-46864819D01*
X181876569Y-48219104D01*
X181910054Y-48280427D01*
X181905070Y-48350119D01*
X181863198Y-48406052D01*
X181845188Y-48417267D01*
X181838567Y-48420640D01*
X181801283Y-48447729D01*
X181801282Y-48447730D01*
X182472553Y-49119000D01*
X182449840Y-49119000D01*
X182352939Y-49144964D01*
X182266060Y-49195124D01*
X182195124Y-49266060D01*
X182144964Y-49352939D01*
X182119000Y-49449840D01*
X182119000Y-49472552D01*
X181447730Y-48801282D01*
X181447729Y-48801283D01*
X181420643Y-48838564D01*
X181360485Y-48956630D01*
X181312510Y-49007426D01*
X181244689Y-49024221D01*
X181178554Y-49001683D01*
X181139515Y-48956630D01*
X181079358Y-48838567D01*
X181052268Y-48801283D01*
X180381000Y-49472551D01*
X180381000Y-49449840D01*
X180355036Y-49352939D01*
X180304876Y-49266060D01*
X180233940Y-49195124D01*
X180147061Y-49144964D01*
X180050160Y-49119000D01*
X180027447Y-49119000D01*
X180698716Y-48447731D01*
X180698715Y-48447730D01*
X180661432Y-48420641D01*
X180484437Y-48330457D01*
X180295522Y-48269075D01*
X180099321Y-48238000D01*
X179900679Y-48238000D01*
X179704479Y-48269075D01*
X179704476Y-48269075D01*
X179515562Y-48330457D01*
X179338564Y-48420643D01*
X179301283Y-48447729D01*
X179301282Y-48447730D01*
X179972554Y-49119000D01*
X179949840Y-49119000D01*
X179852939Y-49144964D01*
X179766060Y-49195124D01*
X179695124Y-49266060D01*
X179644964Y-49352939D01*
X179619000Y-49449840D01*
X179619000Y-49472553D01*
X179386819Y-49240372D01*
X179353334Y-49179049D01*
X179350500Y-49152691D01*
X179350500Y-49130445D01*
X179350498Y-49130436D01*
X179347434Y-49119000D01*
X179344690Y-49108757D01*
X179309577Y-48977715D01*
X179276453Y-48920343D01*
X179230520Y-48840784D01*
X179118716Y-48728980D01*
X179118715Y-48728979D01*
X179114385Y-48724649D01*
X179114385Y-48724648D01*
X179114374Y-48724639D01*
X177429916Y-47040181D01*
X177396431Y-46978858D01*
X177401415Y-46909166D01*
X177443287Y-46853233D01*
X177508751Y-46828816D01*
X177517597Y-46828500D01*
X180434603Y-46828500D01*
X180501642Y-46848185D01*
G37*
%TD.AperFunction*%
%TD*%
M02*
