M48
; DRILL file {KiCad 8.0.7} date 2024-12-26T20:26:31-0600
; FORMAT={-:-/ absolute / inch / decimal}
; #@! TF.CreationDate,2024-12-26T20:26:31-06:00
; #@! TF.GenerationSoftware,Kicad,Pcbnew,8.0.7
; #@! TF.FileFunction,Plated,1,2,PTH
FMAT,2
INCH
; #@! TA.AperFunction,Plated,PTH,ViaDrill
T1C0.0118
; #@! TA.AperFunction,Plated,PTH,ComponentDrill
T2C0.0300
; #@! TA.AperFunction,Plated,PTH,ComponentDrill
T3C0.0315
; #@! TA.AperFunction,Plated,PTH,ComponentDrill
T4C0.0394
%
G90
G05
T1
X4.1437Y-5.2203
X4.2194Y-3.9037
X4.2431Y-4.145
X4.2668Y-3.8407
X4.2994Y-4.2435
X4.3226Y-3.7663
X4.3544Y-5.1452
X4.5866Y-5.2156
X4.626Y-5.0533
X4.6399Y-5.1264
X4.6849Y-4.3902
X4.7582Y-4.6847
X4.7587Y-3.0443
X4.7587Y-3.1691
X4.768Y-4.9974
X4.7883Y-3.7441
X4.8162Y-5.0708
X4.8323Y-4.798
X4.8578Y-4.6057
X4.8778Y-5.208
X4.9064Y-4.2298
X4.948Y-4.4185
X4.9577Y-3.9554
X4.9739Y-3.9036
X5.0065Y-3.9026
X5.0151Y-4.5699
X5.0391Y-3.8983
X5.0543Y-3.8668
X5.0816Y-4.673
X5.096Y-5.1558
X5.0962Y-5.1225
X5.1405Y-3.7769
X5.2158Y-4.6504
X5.2193Y-4.7458
X5.2678Y-4.8479
X5.2999Y-4.254
X5.374Y-4.954
X5.4576Y-4.4124
X5.4724Y-5.1246
X5.4892Y-4.406
X5.6378Y-5.216
X5.8001Y-4.6435
X5.8004Y-5.2158
X5.8239Y-5.1545
X5.8244Y-4.6191
X5.8725Y-4.6252
X5.8943Y-4.6488
X5.911Y-4.3014
X5.9198Y-4.3434
X5.9316Y-4.5706
X5.9341Y-3.4476
X6.0152Y-4.2948
X6.0317Y-3.485
X6.0651Y-5.0611
X6.0721Y-5.1776
X6.1376Y-3.5426
X6.1382Y-3.6128
X6.2598Y-5.2157
X6.3912Y-5.1937
T2
X4.0945Y-2.6181
X4.0945Y-2.815
X4.1929Y-2.6181
X4.1929Y-2.815
X4.2913Y-2.6181
X4.2913Y-2.815
X4.3898Y-2.6181
X4.3898Y-2.815
X4.4882Y-2.6181
X4.4882Y-2.815
X4.5866Y-2.6181
X4.5866Y-2.815
X4.685Y-2.6181
X4.685Y-2.815
X4.7835Y-2.6181
X4.7835Y-2.815
X4.8819Y-2.6181
X4.8819Y-2.815
X4.9803Y-2.6181
X4.9803Y-2.815
X5.0787Y-2.6181
X5.0787Y-2.815
X5.1772Y-2.6181
X5.1772Y-2.815
X5.2756Y-2.6181
X5.2756Y-2.815
X5.374Y-2.6181
X5.374Y-2.815
X5.4724Y-2.6181
X5.4724Y-2.815
X5.5709Y-2.6181
X5.5709Y-2.815
X5.6693Y-2.6181
X5.6693Y-2.815
X5.7677Y-2.6181
X5.7677Y-2.815
X5.8661Y-2.6181
X5.8661Y-2.815
X5.9646Y-2.6181
X5.9646Y-2.815
X6.063Y-2.6181
X6.063Y-2.815
X6.1614Y-2.6181
X6.1614Y-2.815
X6.2598Y-2.6181
X6.2598Y-2.815
X6.3583Y-2.6181
X6.3583Y-2.815
X6.4567Y-2.6181
X6.4567Y-2.815
T3
X4.4488Y-3.6811
X4.4488Y-3.7598
X4.4488Y-3.8386
X4.4488Y-3.9173
X4.4488Y-3.9961
X4.4488Y-4.0748
X4.4488Y-4.1535
X4.4488Y-4.2323
X4.4488Y-4.311
X4.4488Y-4.3898
X4.5276Y-3.6024
X4.5276Y-4.4685
X4.6063Y-3.6024
X4.6063Y-4.4685
X4.685Y-3.6024
X4.685Y-4.4685
X4.7638Y-3.6024
X4.7638Y-4.4685
X4.8425Y-3.6024
X4.8425Y-4.4685
X4.9213Y-3.6024
X4.9213Y-4.4685
X5.0Y-3.6024
X5.0Y-4.4685
X5.0787Y-3.6024
X5.0787Y-4.4685
X5.1575Y-3.6024
X5.1575Y-4.4685
X5.2362Y-3.6024
X5.2362Y-4.4685
X5.315Y-3.6024
X5.315Y-4.4685
X5.3937Y-3.6024
X5.3937Y-4.4685
X5.4724Y-3.6024
X5.4724Y-4.4685
X5.5512Y-3.6024
X5.5512Y-4.4685
X5.6299Y-3.6024
X5.6299Y-4.4685
X5.7087Y-3.6024
X5.7087Y-4.4685
X5.7874Y-3.6024
X5.7874Y-4.4685
X5.8661Y-3.6024
X5.8661Y-4.4685
X5.9449Y-3.6024
X5.9449Y-4.4685
X6.0236Y-3.6024
X6.0236Y-4.4685
X6.1024Y-3.6811
X6.1024Y-3.7598
X6.1024Y-3.8386
X6.1024Y-3.9173
X6.1024Y-3.9961
X6.1024Y-4.0748
X6.1024Y-4.1535
X6.1024Y-4.2323
X6.1024Y-4.311
X6.1024Y-4.3898
T4
X4.0748Y-3.937
X4.0748Y-4.037
X4.0748Y-4.137
X6.4764Y-3.6614
X6.4764Y-3.7614
X6.4764Y-3.8614
X6.4764Y-4.3701
X6.4764Y-4.4701
X6.4764Y-4.5701
X6.4764Y-4.6701
X6.4764Y-4.7701
M30
