%TF.GenerationSoftware,KiCad,Pcbnew,8.0.7*%
%TF.CreationDate,2024-12-26T20:26:29-06:00*%
%TF.ProjectId,n64_gamecat_rp2350b,6e36345f-6761-46d6-9563-61745f727032,rev?*%
%TF.SameCoordinates,Original*%
%TF.FileFunction,Copper,L2,Bot*%
%TF.FilePolarity,Positive*%
%FSLAX46Y46*%
G04 Gerber Fmt 4.6, Leading zero omitted, Abs format (unit mm)*
G04 Created by KiCad (PCBNEW 8.0.7) date 2024-12-26 20:26:29*
%MOMM*%
%LPD*%
G01*
G04 APERTURE LIST*
%TA.AperFunction,SMDPad,CuDef*%
%ADD10R,1.800000X20.000000*%
%TD*%
%TA.AperFunction,ComponentPad*%
%ADD11C,1.350000*%
%TD*%
%TA.AperFunction,ComponentPad*%
%ADD12O,1.350000X1.350000*%
%TD*%
%TA.AperFunction,ComponentPad*%
%ADD13R,1.700000X1.700000*%
%TD*%
%TA.AperFunction,ComponentPad*%
%ADD14O,1.700000X1.700000*%
%TD*%
%TA.AperFunction,ComponentPad*%
%ADD15C,1.524000*%
%TD*%
%TA.AperFunction,ViaPad*%
%ADD16C,0.600000*%
%TD*%
%TA.AperFunction,Conductor*%
%ADD17C,0.200000*%
%TD*%
G04 APERTURE END LIST*
D10*
%TO.P,U3,26,GND*%
%TO.N,GND*%
X104000000Y-143000000D03*
%TO.P,U3,27,GND*%
X106500000Y-143000000D03*
%TO.P,U3,28,AD0*%
%TO.N,CO_AD0*%
X109000000Y-143000000D03*
%TO.P,U3,29,AD1*%
%TO.N,CO_AD1*%
X111500000Y-143000000D03*
%TO.P,U3,30,AD2*%
%TO.N,CO_AD2*%
X114000000Y-143000000D03*
%TO.P,U3,31,GND*%
%TO.N,GND*%
X116500000Y-143000000D03*
%TO.P,U3,32,AD3*%
%TO.N,CO_AD3*%
X119000000Y-143000000D03*
%TO.P,U3,33,ALE_L*%
%TO.N,ALE_L*%
X121500000Y-143000000D03*
%TO.P,U3,34,VCC*%
%TO.N,+3V3*%
X124000000Y-143000000D03*
%TO.P,U3,35,ALE_H*%
%TO.N,ALE_H*%
X126500000Y-143000000D03*
%TO.P,U3,36,AD4*%
%TO.N,CO_AD4*%
X129000000Y-143000000D03*
%TO.P,U3,37,AD5*%
%TO.N,CO_AD5*%
X131500000Y-143000000D03*
%TO.P,U3,38,NC*%
%TO.N,Net-(U2-NC-Pad38)*%
X134000000Y-143000000D03*
%TO.P,U3,39,NC*%
%TO.N,Net-(U2-NC-Pad39)*%
X136500000Y-143000000D03*
%TO.P,U3,40,AD6*%
%TO.N,CO_AD6*%
X139000000Y-143000000D03*
%TO.P,U3,41,AD7*%
%TO.N,CO_AD7*%
X141500000Y-143000000D03*
%TO.P,U3,42,VCC*%
%TO.N,+3V3*%
X144000000Y-143000000D03*
%TO.P,U3,43,PIF_CIC*%
%TO.N,Net-(U2-PIF_CIC)*%
X146500000Y-143000000D03*
%TO.P,U3,44,JTAG_CLK*%
%TO.N,Net-(U2-JTAG_CLK)*%
X149000000Y-143000000D03*
%TO.P,U3,45,NMI_R4300*%
%TO.N,Net-(U2-NMI_R4300)*%
X151500000Y-143000000D03*
%TO.P,U3,46,VIDEO_CLK*%
%TO.N,Net-(U2-VIDEO_CLK)*%
X154000000Y-143000000D03*
%TO.P,U3,47,GND*%
%TO.N,GND*%
X156500000Y-143000000D03*
%TO.P,U3,48,GND*%
X159000000Y-143000000D03*
%TO.P,U3,49,R_AUDIO*%
%TO.N,Net-(U2-R_AUDIO)*%
X161500000Y-143000000D03*
%TO.P,U3,50,GND*%
%TO.N,GND*%
X164000000Y-143000000D03*
%TD*%
D11*
%TO.P,U4,1,GPIO0*%
%TO.N,TX0*%
X155000000Y-111500000D03*
D12*
%TO.P,U4,2,GPIO1*%
%TO.N,RX0*%
X155000000Y-109500000D03*
%TO.P,U4,3,GPIO2*%
%TO.N,CA_AD0*%
X155000000Y-107500000D03*
%TO.P,U4,4,GPIO3*%
%TO.N,CA_AD1*%
X155000000Y-105500000D03*
%TO.P,U4,5,GPIO4*%
%TO.N,CA_AD2*%
X155000000Y-103500000D03*
%TO.P,U4,6,GPIO5*%
%TO.N,CA_AD3*%
X155000000Y-101500000D03*
%TO.P,U4,7,GPIO6*%
%TO.N,CA_AD4*%
X155000000Y-99500000D03*
%TO.P,U4,8,GPIO7*%
%TO.N,CA_AD5*%
X155000000Y-97500000D03*
%TO.P,U4,9,GPIO8*%
%TO.N,CA_AD6*%
X155000000Y-95500000D03*
%TO.P,U4,10,GPIO9*%
%TO.N,CA_AD7*%
X155000000Y-93500000D03*
%TO.P,U4,11,GPIO10*%
%TO.N,CA_AD8*%
X153000000Y-91500000D03*
%TO.P,U4,12,GPIO11*%
%TO.N,CA_AD9*%
X151000000Y-91500000D03*
%TO.P,U4,13,GPIO12*%
%TO.N,CA_AD10*%
X149000000Y-91500000D03*
%TO.P,U4,14,GPIO13*%
%TO.N,CA_AD11*%
X147000000Y-91500000D03*
%TO.P,U4,15,GPIO14*%
%TO.N,CA_AD12*%
X145000000Y-91500000D03*
%TO.P,U4,16,GPIO15*%
%TO.N,CA_AD13*%
X143000000Y-91500000D03*
%TO.P,U4,17,GPIO16*%
%TO.N,CA_AD14*%
X141000000Y-91500000D03*
%TO.P,U4,18,GPIO17*%
%TO.N,CA_AD15*%
X139000000Y-91500000D03*
%TO.P,U4,19,GPIO18*%
%TO.N,CO_AD0*%
X137000000Y-91500000D03*
%TO.P,U4,20,GPIO19*%
%TO.N,CO_AD1*%
X135000000Y-91500000D03*
%TO.P,U4,21,GPIO20*%
%TO.N,CO_AD2*%
X133000000Y-91500000D03*
%TO.P,U4,22,GPIO21*%
%TO.N,CO_AD3*%
X131000000Y-91500000D03*
%TO.P,U4,23,GPIO22*%
%TO.N,CO_AD4*%
X129000000Y-91500000D03*
%TO.P,U4,24,GPIO23*%
%TO.N,CO_AD5*%
X127000000Y-91500000D03*
%TO.P,U4,25,GPIO24*%
%TO.N,CO_AD6*%
X125000000Y-91500000D03*
%TO.P,U4,26,GPIO25*%
%TO.N,CO_AD7*%
X123000000Y-91500000D03*
%TO.P,U4,27,GPIO26*%
%TO.N,CO_AD8*%
X121000000Y-91500000D03*
%TO.P,U4,28,GPIO27*%
%TO.N,CO_AD9*%
X119000000Y-91500000D03*
%TO.P,U4,29,GPIO28*%
%TO.N,CO_AD10*%
X117000000Y-91500000D03*
%TO.P,U4,30,GPIO29*%
%TO.N,CO_AD11*%
X115000000Y-91500000D03*
%TO.P,U4,31,GPIO30*%
%TO.N,CO_AD12*%
X113000000Y-93500000D03*
%TO.P,U4,32,GPIO31*%
%TO.N,CO_AD13*%
X113000000Y-95500000D03*
%TO.P,U4,33,GPIO32*%
%TO.N,CO_AD14*%
X113000000Y-97500000D03*
%TO.P,U4,34,GPIO33*%
%TO.N,CO_AD15*%
X113000000Y-99500000D03*
%TO.P,U4,35,GPIO34*%
%TO.N,ALE_H*%
X113000000Y-101500000D03*
%TO.P,U4,36,GPIO35*%
%TO.N,ALE_L*%
X113000000Y-103500000D03*
%TO.P,U4,37,GPIO36*%
%TO.N,WRITE*%
X113000000Y-105500000D03*
%TO.P,U4,38,GPIO37*%
%TO.N,READ*%
X113000000Y-107500000D03*
%TO.P,U4,39,GPIO38*%
%TO.N,unconnected-(U4-GPIO38-Pad39)*%
X113000000Y-109500000D03*
%TO.P,U4,40,GPIO39*%
%TO.N,unconnected-(U4-GPIO39-Pad40)*%
X113000000Y-111500000D03*
%TO.P,U4,41,GPIO40*%
%TO.N,unconnected-(U4-GPIO40-Pad41)*%
X115000000Y-113500000D03*
%TO.P,U4,42,GPIO41*%
%TO.N,unconnected-(U4-GPIO41-Pad42)*%
X117000000Y-113500000D03*
%TO.P,U4,43,GPIO42*%
%TO.N,unconnected-(U4-GPIO42-Pad43)*%
X119000000Y-113500000D03*
%TO.P,U4,44,GPIO43*%
%TO.N,unconnected-(U4-GPIO43-Pad44)*%
X121000000Y-113500000D03*
%TO.P,U4,45,GPIO44*%
%TO.N,unconnected-(U4-GPIO44-Pad45)*%
X123000000Y-113500000D03*
%TO.P,U4,46,GPIO45*%
%TO.N,unconnected-(U4-GPIO45-Pad46)*%
X125000000Y-113500000D03*
%TO.P,U4,47,GPIO46*%
%TO.N,unconnected-(U4-GPIO46-Pad47)*%
X127000000Y-113500000D03*
%TO.P,U4,48,GPIO47*%
%TO.N,unconnected-(U4-GPIO47-Pad48)*%
X129000000Y-113500000D03*
%TO.P,U4,49,GPIO48*%
%TO.N,unconnected-(U4-GPIO48-Pad49)*%
X131000000Y-113500000D03*
%TO.P,U4,50,GPIO49*%
%TO.N,unconnected-(U4-GPIO49-Pad50)*%
X133000000Y-113500000D03*
%TO.P,U4,51,GPIO50*%
%TO.N,GND*%
X135000000Y-113500000D03*
%TO.P,U4,52,GPIO51*%
%TO.N,unconnected-(U4-GPIO51-Pad52)*%
X137000000Y-113500000D03*
%TO.P,U4,53,GPIO52*%
%TO.N,5V*%
X139000000Y-113500000D03*
%TO.P,U4,54,GPIO53*%
%TO.N,unconnected-(U4-GPIO53-Pad54)*%
X141000000Y-113500000D03*
%TO.P,U4,55,GPIO54*%
%TO.N,USB D-*%
X143000000Y-113500000D03*
%TO.P,U4,56,GPIO55*%
%TO.N,USB D+*%
X145000000Y-113500000D03*
%TO.P,U4,57,GPIO56*%
%TO.N,SWDIO*%
X147000000Y-113500000D03*
%TO.P,U4,58,GPIO57*%
%TO.N,SWCLK*%
X149000000Y-113500000D03*
%TO.P,U4,59,GPIO58*%
%TO.N,unconnected-(U4-GPIO58-Pad59)*%
X151000000Y-113500000D03*
%TO.P,U4,60,GPIO59*%
%TO.N,unconnected-(U4-GPIO59-Pad60)*%
X153000000Y-113500000D03*
%TD*%
D13*
%TO.P,J3,1,Pin_1*%
%TO.N,5V*%
X164500000Y-111000000D03*
D14*
%TO.P,J3,2,Pin_2*%
%TO.N,USB D-*%
X164500000Y-113540000D03*
%TO.P,J3,3,Pin_3*%
%TO.N,USB D+*%
X164500000Y-116080000D03*
%TO.P,J3,4,Pin_4*%
%TO.N,unconnected-(J3-Pin_4-Pad4)*%
X164500000Y-118620000D03*
%TO.P,J3,5,Pin_5*%
%TO.N,GND*%
X164500000Y-121160000D03*
%TD*%
D13*
%TO.P,J1,1,Pin_1*%
%TO.N,SWCLK*%
X164500000Y-93000000D03*
D14*
%TO.P,J1,2,Pin_2*%
%TO.N,GND*%
X164500000Y-95540000D03*
%TO.P,J1,3,Pin_3*%
%TO.N,SWDIO*%
X164500000Y-98080000D03*
%TD*%
D13*
%TO.P,J2,1,Pin_1*%
%TO.N,TX0*%
X103500000Y-100000000D03*
D14*
%TO.P,J2,2,Pin_2*%
%TO.N,GND*%
X103500000Y-102540000D03*
%TO.P,J2,3,Pin_3*%
%TO.N,RX0*%
X103500000Y-105080000D03*
%TD*%
D15*
%TO.P,U2,1,GND*%
%TO.N,GND*%
X104000000Y-71500000D03*
%TO.P,U2,2,GND*%
X106500000Y-71500000D03*
%TO.P,U2,3,AD15*%
%TO.N,CA_AD15*%
X109000000Y-71500000D03*
%TO.P,U2,4,AD14*%
%TO.N,CA_AD14*%
X111500000Y-71500000D03*
%TO.P,U2,5,AD13*%
%TO.N,CA_AD13*%
X114000000Y-71500000D03*
%TO.P,U2,6,GND*%
%TO.N,GND*%
X116500000Y-71500000D03*
%TO.P,U2,7,AD12*%
%TO.N,CA_AD12*%
X119000000Y-71500000D03*
%TO.P,U2,8,WRITE*%
%TO.N,WRITE*%
X121500000Y-71500000D03*
%TO.P,U2,9,VCC*%
%TO.N,+3V3*%
X124000000Y-71500000D03*
%TO.P,U2,10,READ*%
%TO.N,READ*%
X126500000Y-71500000D03*
%TO.P,U2,11,AD11*%
%TO.N,CA_AD11*%
X129000000Y-71500000D03*
%TO.P,U2,12,AD10*%
%TO.N,CA_AD10*%
X131500000Y-71500000D03*
%TO.P,U2,13,NC*%
%TO.N,Net-(U2-NC-Pad13)*%
X134000000Y-71500000D03*
%TO.P,U2,14,NC*%
%TO.N,Net-(U2-NC-Pad14)*%
X136500000Y-71500000D03*
%TO.P,U2,15,AD9*%
%TO.N,CA_AD9*%
X139000000Y-71500000D03*
%TO.P,U2,16,AD8*%
%TO.N,CA_AD8*%
X141500000Y-71500000D03*
%TO.P,U2,17,VCC*%
%TO.N,+3V3*%
X144000000Y-71500000D03*
%TO.P,U2,18,CIC_PIF*%
%TO.N,Net-(U2-CIC_PIF)*%
X146500000Y-71500000D03*
%TO.P,U2,19,CLK_PIF*%
%TO.N,Net-(U2-CLK_PIF)*%
X149000000Y-71500000D03*
%TO.P,U2,20,COLD_RST*%
%TO.N,Net-(U2-COLD_RST)*%
X151500000Y-71500000D03*
%TO.P,U2,21,S_DAT*%
%TO.N,Net-(U2-S_DAT)*%
X154000000Y-71500000D03*
%TO.P,U2,22,GND*%
%TO.N,GND*%
X156500000Y-71500000D03*
%TO.P,U2,23,GND*%
X159000000Y-71500000D03*
%TO.P,U2,24,LAUDIO*%
%TO.N,Net-(U2-LAUDIO)*%
X161500000Y-71500000D03*
%TO.P,U2,25,GND*%
%TO.N,GND*%
X164000000Y-71500000D03*
%TO.P,U2,26,GND*%
X104000000Y-66500000D03*
%TO.P,U2,27,GND*%
X106500000Y-66500000D03*
%TO.P,U2,28,AD0*%
%TO.N,CA_AD0*%
X109000000Y-66500000D03*
%TO.P,U2,29,AD1*%
%TO.N,CA_AD1*%
X111500000Y-66500000D03*
%TO.P,U2,30,AD2*%
%TO.N,CA_AD2*%
X114000000Y-66500000D03*
%TO.P,U2,31,GND*%
%TO.N,GND*%
X116500000Y-66500000D03*
%TO.P,U2,32,AD3*%
%TO.N,CA_AD3*%
X119000000Y-66500000D03*
%TO.P,U2,33,ALE_L*%
%TO.N,ALE_L*%
X121500000Y-66500000D03*
%TO.P,U2,34,VCC*%
%TO.N,+3V3*%
X124000000Y-66500000D03*
%TO.P,U2,35,ALE_H*%
%TO.N,ALE_H*%
X126500000Y-66500000D03*
%TO.P,U2,36,AD4*%
%TO.N,CA_AD4*%
X129000000Y-66500000D03*
%TO.P,U2,37,AD5*%
%TO.N,CA_AD5*%
X131500000Y-66500000D03*
%TO.P,U2,38,NC*%
%TO.N,Net-(U2-NC-Pad38)*%
X134000000Y-66500000D03*
%TO.P,U2,39,NC*%
%TO.N,Net-(U2-NC-Pad39)*%
X136500000Y-66500000D03*
%TO.P,U2,40,AD6*%
%TO.N,CA_AD6*%
X139000000Y-66500000D03*
%TO.P,U2,41,AD7*%
%TO.N,CA_AD7*%
X141500000Y-66500000D03*
%TO.P,U2,42,VCC*%
%TO.N,+3V3*%
X144000000Y-66500000D03*
%TO.P,U2,43,PIF_CIC*%
%TO.N,Net-(U2-PIF_CIC)*%
X146500000Y-66500000D03*
%TO.P,U2,44,JTAG_CLK*%
%TO.N,Net-(U2-JTAG_CLK)*%
X149000000Y-66500000D03*
%TO.P,U2,45,NMI_R4300*%
%TO.N,Net-(U2-NMI_R4300)*%
X151500000Y-66500000D03*
%TO.P,U2,46,VIDEO_CLK*%
%TO.N,Net-(U2-VIDEO_CLK)*%
X154000000Y-66500000D03*
%TO.P,U2,47,GND*%
%TO.N,GND*%
X156500000Y-66500000D03*
%TO.P,U2,48,GND*%
X159000000Y-66500000D03*
%TO.P,U2,49,R_AUDIO*%
%TO.N,Net-(U2-R_AUDIO)*%
X161500000Y-66500000D03*
%TO.P,U2,50,GND*%
%TO.N,GND*%
X164000000Y-66500000D03*
%TD*%
D16*
%TO.N,Net-(U2-PIF_CIC)*%
X150663400Y-116094200D03*
X147927200Y-130923500D03*
%TO.N,Net-(U2-NC-Pad14)*%
X136500000Y-125832100D03*
%TO.N,GND*%
X116500000Y-132476200D03*
X132480100Y-118120700D03*
X110601800Y-130686900D03*
X159000000Y-132477600D03*
X105250000Y-132595900D03*
%TO.N,Net-(U2-NC-Pad38)*%
X129444000Y-130110600D03*
X123389000Y-116986000D03*
%TO.N,Net-(U2-NC-Pad13)*%
X133803300Y-123135500D03*
%TO.N,+3V3*%
X123896300Y-132283000D03*
X143200100Y-132485900D03*
X132569700Y-120543400D03*
%TO.N,Net-(U2-R_AUDIO)*%
X162336500Y-131920400D03*
%TO.N,Net-(U2-COLD_RST)*%
X155910700Y-91765000D03*
X153204300Y-88519800D03*
%TO.N,ALE_H*%
X122332600Y-128798900D03*
%TO.N,Net-(U2-CLK_PIF)*%
X147323700Y-117944000D03*
%TO.N,ALE_L*%
X121107500Y-126934700D03*
%TO.N,Net-(U2-CIC_PIF)*%
X147330900Y-132482400D03*
%TO.N,Net-(U2-NMI_R4300)*%
X154232000Y-131511200D03*
%TO.N,Net-(U2-VIDEO_CLK)*%
X154052700Y-128552200D03*
%TO.N,CA_AD6*%
X150726800Y-87568900D03*
%TO.N,Net-(U2-S_DAT)*%
X155894800Y-89983000D03*
%TO.N,CO_AD1*%
X127993800Y-99015900D03*
%TO.N,CO_AD7*%
X139425800Y-111913100D03*
%TO.N,CO_AD2*%
X128380300Y-98215700D03*
%TO.N,CO_AD9*%
X139000000Y-130164100D03*
X138623500Y-112074900D03*
X121623000Y-95099700D03*
%TO.N,CO_AD4*%
X130568400Y-95932300D03*
%TO.N,CO_AD10*%
X124623600Y-107437600D03*
X129073600Y-118693700D03*
%TO.N,CO_AD8*%
X127383400Y-116076200D03*
X125679800Y-112230000D03*
%TO.N,CO_AD11*%
X118996600Y-111510500D03*
X120857800Y-118991300D03*
%TO.N,CO_AD0*%
X127165200Y-99126600D03*
%TO.N,CO_AD5*%
X129439600Y-130957000D03*
X122741600Y-121870400D03*
%TO.N,CO_AD6*%
X134617500Y-108051200D03*
%TO.N,CO_AD3*%
X117852500Y-130209800D03*
X117500500Y-128354900D03*
%TO.N,CO_AD12*%
X109793300Y-95662800D03*
%TO.N,CA_AD14*%
X120872000Y-80494900D03*
%TO.N,CO_AD13*%
X108376000Y-97553700D03*
%TO.N,CO_AD14*%
X107774300Y-105283900D03*
%TO.N,CO_AD15*%
X107172600Y-99154100D03*
%TO.N,CA_AD13*%
X120871400Y-77325000D03*
%TO.N,WRITE*%
X109205400Y-107783800D03*
%TO.N,SWDIO*%
X152785000Y-109088200D03*
%TO.N,RX0*%
X150140500Y-109255700D03*
X126338200Y-99152500D03*
%TO.N,TX0*%
X125924700Y-100467900D03*
X150362200Y-110323300D03*
%TO.N,USB D+*%
X149716100Y-118080200D03*
%TO.N,USB D-*%
X149161300Y-117480100D03*
%TO.N,5V*%
X147938800Y-117324300D03*
%TD*%
D17*
%TO.N,Net-(U2-PIF_CIC)*%
X146500000Y-132350700D02*
X147927200Y-130923500D01*
X150000000Y-87411200D02*
X150000000Y-108543800D01*
X150104200Y-87307000D02*
X150000000Y-87411200D01*
X150104200Y-66071400D02*
X150104200Y-87307000D01*
X147563700Y-65436300D02*
X149469100Y-65436300D01*
X150000000Y-110811900D02*
X150000000Y-115430800D01*
X150000000Y-108543800D02*
X149538800Y-109005000D01*
X146500000Y-66500000D02*
X147563700Y-65436300D01*
X149469100Y-65436300D02*
X150104200Y-66071400D01*
X149538800Y-110350700D02*
X150000000Y-110811900D01*
X149538800Y-109005000D02*
X149538800Y-110350700D01*
X146500000Y-143000000D02*
X146500000Y-132698300D01*
X150000000Y-115430800D02*
X150663400Y-116094200D01*
X146500000Y-132698300D02*
X146500000Y-132350700D01*
%TO.N,Net-(U2-NC-Pad14)*%
X136500000Y-71500000D02*
X138000000Y-73000000D01*
X138000000Y-73000000D02*
X138000000Y-124332100D01*
X138000000Y-124332100D02*
X136500000Y-125832100D01*
%TO.N,GND*%
X131303400Y-119297400D02*
X132480100Y-118120700D01*
X105250000Y-132698300D02*
X106500000Y-132698300D01*
X159000000Y-71500000D02*
X156500000Y-71500000D01*
X162620100Y-131318400D02*
X160159200Y-131318400D01*
X106500000Y-143000000D02*
X106500000Y-132698300D01*
X104000000Y-132698300D02*
X105250000Y-132698300D01*
X116500000Y-130691200D02*
X127893800Y-119297400D01*
X160159200Y-131318400D02*
X159000000Y-132477600D01*
X116500000Y-132476200D02*
X116500000Y-130691200D01*
X156500000Y-130311700D02*
X156500000Y-132698300D01*
X159000000Y-66500000D02*
X156500000Y-66500000D01*
X106500000Y-132698300D02*
X108511400Y-130686900D01*
X127893800Y-119297400D02*
X131303400Y-119297400D01*
X159000000Y-132698300D02*
X159000000Y-132477600D01*
X156500000Y-132698300D02*
X159000000Y-132698300D01*
X116500000Y-132698300D02*
X116500000Y-132476200D01*
X164500000Y-121160000D02*
X164500000Y-122311700D01*
X116500000Y-143000000D02*
X116500000Y-132698300D01*
X108511400Y-130686900D02*
X110601800Y-130686900D01*
X105250000Y-132698300D02*
X105250000Y-132595900D01*
X106500000Y-66500000D02*
X104000000Y-66500000D01*
X104000000Y-143000000D02*
X104000000Y-132698300D01*
X164500000Y-122311700D02*
X156500000Y-130311700D01*
X156500000Y-143000000D02*
X156500000Y-132698300D01*
X164000000Y-132698300D02*
X162620100Y-131318400D01*
X159000000Y-143000000D02*
X159000000Y-132698300D01*
X164000000Y-143000000D02*
X164000000Y-132698300D01*
%TO.N,Net-(U2-NC-Pad38)*%
X129398900Y-94752700D02*
X130023300Y-94128300D01*
X134000000Y-132698300D02*
X131412300Y-130110600D01*
X130250000Y-90868700D02*
X130250000Y-70250000D01*
X129398900Y-99597700D02*
X129398900Y-94752700D01*
X130023300Y-94128300D02*
X130023300Y-91095400D01*
X129383800Y-100280600D02*
X129383800Y-99612800D01*
X130250000Y-70250000D02*
X134000000Y-66500000D01*
X129383800Y-99612800D02*
X129398900Y-99597700D01*
X131412300Y-130110600D02*
X129444000Y-130110600D01*
X130023300Y-91095400D02*
X130250000Y-90868700D01*
X122000000Y-115597000D02*
X122000000Y-108220000D01*
X129196600Y-100467800D02*
X129383800Y-100280600D01*
X134000000Y-143000000D02*
X134000000Y-132698300D01*
X122000000Y-108220000D02*
X129196600Y-101023400D01*
X129196600Y-101023400D02*
X129196600Y-100467800D01*
X123389000Y-116986000D02*
X122000000Y-115597000D01*
%TO.N,Net-(U2-NC-Pad13)*%
X132000000Y-115334900D02*
X132000000Y-73500000D01*
X133803300Y-123135500D02*
X133803300Y-117138200D01*
X132000000Y-73500000D02*
X134000000Y-71500000D01*
X133803300Y-117138200D02*
X132000000Y-115334900D01*
%TO.N,+3V3*%
X129707900Y-120543400D02*
X132569700Y-120543400D01*
X124000000Y-143000000D02*
X124000000Y-132698300D01*
X121676100Y-130062800D02*
X121676100Y-128575200D01*
X143412500Y-132698300D02*
X143200100Y-132485900D01*
X124000000Y-66500000D02*
X124000000Y-71500000D01*
X123896300Y-132283000D02*
X121676100Y-130062800D01*
X121676100Y-128575200D02*
X129707900Y-120543400D01*
X144000000Y-132698300D02*
X143412500Y-132698300D01*
X144000000Y-143000000D02*
X144000000Y-132698300D01*
X123896300Y-132594600D02*
X123896300Y-132283000D01*
X124000000Y-132698300D02*
X123896300Y-132594600D01*
%TO.N,CA_AD0*%
X162648900Y-99279200D02*
X162648900Y-92724400D01*
X162744900Y-62523000D02*
X112977000Y-62523000D01*
X112977000Y-62523000D02*
X109000000Y-66500000D01*
X165876600Y-89496700D02*
X165876600Y-65654700D01*
X165876600Y-65654700D02*
X162744900Y-62523000D01*
X155404800Y-106523300D02*
X162648900Y-99279200D01*
X162648900Y-92724400D02*
X165876600Y-89496700D01*
X155000000Y-107500000D02*
X155000000Y-106523300D01*
X155000000Y-106523300D02*
X155404800Y-106523300D01*
%TO.N,READ*%
X124000000Y-95928100D02*
X113404800Y-106523300D01*
X124000000Y-74000000D02*
X124000000Y-95928100D01*
X126500000Y-71500000D02*
X124000000Y-74000000D01*
X113404800Y-106523300D02*
X113000000Y-106523300D01*
X113000000Y-107500000D02*
X113000000Y-106523300D01*
%TO.N,Net-(U2-R_AUDIO)*%
X161558600Y-132698300D02*
X161500000Y-132698300D01*
X162336500Y-131920400D02*
X161558600Y-132698300D01*
X161500000Y-143000000D02*
X161500000Y-132698300D01*
%TO.N,Net-(U2-COLD_RST)*%
X153204300Y-89058600D02*
X153204300Y-88519800D01*
X155910700Y-91765000D02*
X153204300Y-89058600D01*
%TO.N,CA_AD7*%
X155000000Y-93500000D02*
X155000000Y-92523300D01*
X155000000Y-92523300D02*
X155000000Y-91475800D01*
X152588800Y-89064600D02*
X152588800Y-66078000D01*
X143005300Y-64994700D02*
X141500000Y-66500000D01*
X151505500Y-64994700D02*
X143005300Y-64994700D01*
X155000000Y-91475800D02*
X152588800Y-89064600D01*
X152588800Y-66078000D02*
X151505500Y-64994700D01*
%TO.N,ALE_H*%
X122600600Y-128798900D02*
X126500000Y-132698300D01*
X122332600Y-128798900D02*
X122600600Y-128798900D01*
X126500000Y-143000000D02*
X126500000Y-132698300D01*
%TO.N,CA_AD3*%
X155000000Y-101500000D02*
X155000000Y-100523300D01*
X121739800Y-63760200D02*
X160279900Y-63760200D01*
X162574100Y-66054400D02*
X162574100Y-81949800D01*
X160574700Y-83949200D02*
X160574700Y-95349400D01*
X119000000Y-66500000D02*
X121739800Y-63760200D01*
X162574100Y-81949800D02*
X160574700Y-83949200D01*
X155400800Y-100523300D02*
X155000000Y-100523300D01*
X160279900Y-63760200D02*
X162574100Y-66054400D01*
X160574700Y-95349400D02*
X155400800Y-100523300D01*
%TO.N,Net-(U2-CLK_PIF)*%
X147997400Y-116290900D02*
X147323700Y-116964600D01*
X149000000Y-71500000D02*
X147997400Y-72502600D01*
X147997400Y-72502600D02*
X147997400Y-116290900D01*
X147323700Y-116964600D02*
X147323700Y-117944000D01*
%TO.N,Net-(U2-JTAG_CLK)*%
X147574800Y-67925200D02*
X147574800Y-87587100D01*
X149000000Y-122897900D02*
X149000000Y-132698300D01*
X146000000Y-89161900D02*
X146000000Y-119897900D01*
X149000000Y-143000000D02*
X149000000Y-132698300D01*
X149000000Y-66500000D02*
X147574800Y-67925200D01*
X147574800Y-87587100D02*
X146000000Y-89161900D01*
X146000000Y-119897900D02*
X149000000Y-122897900D01*
%TO.N,ALE_L*%
X113404800Y-102523300D02*
X114426500Y-101501600D01*
X114426500Y-101501600D02*
X114426500Y-92926500D01*
X117608700Y-70391300D02*
X121500000Y-66500000D01*
X110410200Y-88910200D02*
X110410200Y-71085500D01*
X114426500Y-92926500D02*
X110410200Y-88910200D01*
X110410200Y-71085500D02*
X111104400Y-70391300D01*
X111104400Y-70391300D02*
X117608700Y-70391300D01*
X121107500Y-126934700D02*
X121107500Y-132305800D01*
X113000000Y-103500000D02*
X113000000Y-102523300D01*
X113000000Y-102523300D02*
X113404800Y-102523300D01*
X121107500Y-132305800D02*
X121500000Y-132698300D01*
X121500000Y-143000000D02*
X121500000Y-132698300D01*
%TO.N,CA_AD2*%
X162350600Y-63342400D02*
X165063700Y-66055500D01*
X161547200Y-96380900D02*
X155404800Y-102523300D01*
X155000000Y-103500000D02*
X155000000Y-102523300D01*
X114000000Y-66500000D02*
X117157600Y-63342400D01*
X117157600Y-63342400D02*
X162350600Y-63342400D01*
X161547200Y-88729200D02*
X161547200Y-96380900D01*
X165063700Y-66055500D02*
X165063700Y-85212700D01*
X165063700Y-85212700D02*
X161547200Y-88729200D01*
X155404800Y-102523300D02*
X155000000Y-102523300D01*
%TO.N,CA_AD5*%
X156512400Y-95377200D02*
X155366300Y-96523300D01*
X133424300Y-64575700D02*
X153588600Y-64575700D01*
X155250000Y-87928900D02*
X156512400Y-89191300D01*
X155366300Y-96523300D02*
X155000000Y-96523300D01*
X155000000Y-97500000D02*
X155000000Y-96523300D01*
X156512400Y-89191300D02*
X156512400Y-95377200D01*
X131500000Y-66500000D02*
X133424300Y-64575700D01*
X155250000Y-66237100D02*
X155250000Y-87928900D01*
X153588600Y-64575700D02*
X155250000Y-66237100D01*
%TO.N,Net-(U2-NC-Pad39)*%
X136500000Y-143000000D02*
X136500000Y-132698300D01*
X135250000Y-86070300D02*
X135250000Y-67750000D01*
X135250000Y-67750000D02*
X136500000Y-66500000D01*
X134000000Y-87320300D02*
X135250000Y-86070300D01*
X134000000Y-116481900D02*
X134000000Y-87320300D01*
X134425200Y-130623500D02*
X134425200Y-116907100D01*
X136500000Y-132698300D02*
X134425200Y-130623500D01*
X134425200Y-116907100D02*
X134000000Y-116481900D01*
%TO.N,CA_AD1*%
X165472900Y-89133200D02*
X165472900Y-65890700D01*
X165472900Y-65890700D02*
X162508400Y-62926200D01*
X155000000Y-104523300D02*
X155366400Y-104523300D01*
X161948900Y-92657200D02*
X165472900Y-89133200D01*
X155366400Y-104523300D02*
X161948900Y-97940800D01*
X155000000Y-105500000D02*
X155000000Y-104523300D01*
X161948900Y-97940800D02*
X161948900Y-92657200D01*
X115073800Y-62926200D02*
X111500000Y-66500000D01*
X162508400Y-62926200D02*
X115073800Y-62926200D01*
%TO.N,CA_AD4*%
X160070300Y-66064500D02*
X160070300Y-93855800D01*
X131326000Y-64174000D02*
X158179800Y-64174000D01*
X129000000Y-66500000D02*
X131326000Y-64174000D01*
X160070300Y-93855800D02*
X155402800Y-98523300D01*
X158179800Y-64174000D02*
X160070300Y-66064500D01*
X155402800Y-98523300D02*
X155000000Y-98523300D01*
X155000000Y-99500000D02*
X155000000Y-98523300D01*
%TO.N,Net-(U2-CIC_PIF)*%
X146500000Y-71500000D02*
X144000000Y-74000000D01*
X148529100Y-131284200D02*
X147330900Y-132482400D01*
X144000000Y-74000000D02*
X144000000Y-125224700D01*
X148529100Y-129753800D02*
X148529100Y-131284200D01*
X144000000Y-125224700D02*
X148529100Y-129753800D01*
%TO.N,Net-(U2-NMI_R4300)*%
X151500000Y-143000000D02*
X151500000Y-132698300D01*
X151500000Y-132698300D02*
X153044900Y-132698300D01*
X153044900Y-132698300D02*
X154232000Y-131511200D01*
%TO.N,Net-(U2-VIDEO_CLK)*%
X154399100Y-130827500D02*
X154399100Y-128898600D01*
X154399100Y-128898600D02*
X154052700Y-128552200D01*
X154000000Y-132698300D02*
X154833700Y-131864600D01*
X154399200Y-130827500D02*
X154399100Y-130827500D01*
X154000000Y-143000000D02*
X154000000Y-132698300D01*
X154833700Y-131864600D02*
X154833700Y-131262000D01*
X154833700Y-131262000D02*
X154399200Y-130827500D01*
%TO.N,CA_AD6*%
X152000000Y-88842100D02*
X150726800Y-87568900D01*
X155000000Y-95500000D02*
X155000000Y-94523300D01*
X154633700Y-94523300D02*
X152000000Y-91889600D01*
X155000000Y-94523300D02*
X154633700Y-94523300D01*
X152000000Y-91889600D02*
X152000000Y-88842100D01*
%TO.N,Net-(U2-S_DAT)*%
X154000000Y-88088200D02*
X155894800Y-89983000D01*
X154000000Y-71500000D02*
X154000000Y-88088200D01*
%TO.N,CO_AD1*%
X127993700Y-99015900D02*
X127993800Y-99015900D01*
X111500000Y-143000000D02*
X111500000Y-132698300D01*
X127993700Y-99895100D02*
X127993700Y-99015900D01*
X111654000Y-115445500D02*
X125305500Y-101794000D01*
X111500000Y-132698300D02*
X111654000Y-132544300D01*
X126094800Y-101794000D02*
X127993700Y-99895100D01*
X125305500Y-101794000D02*
X126094800Y-101794000D01*
X111654000Y-132544300D02*
X111654000Y-115445500D01*
%TO.N,CO_AD7*%
X141999900Y-132198400D02*
X141500000Y-132698300D01*
X141999900Y-113072500D02*
X141999900Y-132198400D01*
X139425800Y-111913100D02*
X140840500Y-111913100D01*
X140840500Y-111913100D02*
X141999900Y-113072500D01*
X141500000Y-143000000D02*
X141500000Y-132698300D01*
%TO.N,CO_AD2*%
X128580400Y-99948000D02*
X128580400Y-99280200D01*
X114000000Y-132698300D02*
X115976700Y-130721600D01*
X128595500Y-98430900D02*
X128380300Y-98215700D01*
X128595500Y-99265100D02*
X128595500Y-98430900D01*
X115976700Y-112551700D02*
X128580400Y-99948000D01*
X114000000Y-143000000D02*
X114000000Y-132698300D01*
X115976700Y-130721600D02*
X115976700Y-112551700D01*
X128580400Y-99280200D02*
X128595500Y-99265100D01*
%TO.N,CO_AD9*%
X119000000Y-91500000D02*
X119000000Y-92476700D01*
X138623500Y-112074900D02*
X139063400Y-112514800D01*
X119000000Y-92476700D02*
X121623000Y-95099700D01*
X139063400Y-112514800D02*
X139470800Y-112514800D01*
X140000000Y-129164100D02*
X139000000Y-130164100D01*
X139470800Y-112514800D02*
X140000000Y-113044000D01*
X140000000Y-113044000D02*
X140000000Y-129164100D01*
%TO.N,CO_AD4*%
X128817800Y-132516100D02*
X128817800Y-128956800D01*
X129000000Y-143000000D02*
X129000000Y-132698300D01*
X133171400Y-124603200D02*
X133171400Y-117944300D01*
X129000000Y-132698300D02*
X128817800Y-132516100D01*
X133171400Y-117944300D02*
X130000000Y-114772900D01*
X128817800Y-128956800D02*
X133171400Y-124603200D01*
X130000000Y-114772900D02*
X130000000Y-101366300D01*
X130000000Y-101366300D02*
X130568400Y-100797900D01*
X130568400Y-100797900D02*
X130568400Y-95932300D01*
%TO.N,CO_AD10*%
X127985100Y-117605200D02*
X129073600Y-118693700D01*
X124623600Y-107437600D02*
X127985100Y-110799100D01*
X127985100Y-110799100D02*
X127985100Y-117605200D01*
%TO.N,CO_AD8*%
X126000000Y-112550200D02*
X126000000Y-114692800D01*
X126000000Y-114692800D02*
X127383400Y-116076200D01*
X125679800Y-112230000D02*
X126000000Y-112550200D01*
%TO.N,CO_AD11*%
X120000000Y-112513900D02*
X118996600Y-111510500D01*
X120000000Y-118133500D02*
X120000000Y-112513900D01*
X120857800Y-118991300D02*
X120000000Y-118133500D01*
%TO.N,CO_AD0*%
X111203500Y-115313100D02*
X125324300Y-101192300D01*
X126084900Y-101192300D02*
X127165200Y-100112000D01*
X111203500Y-130960000D02*
X111203500Y-115313100D01*
X125324300Y-101192300D02*
X126084900Y-101192300D01*
X109000000Y-132698300D02*
X109465200Y-132698300D01*
X127165200Y-100112000D02*
X127165200Y-99126600D01*
X109000000Y-143000000D02*
X109000000Y-132698300D01*
X109465200Y-132698300D02*
X111203500Y-130960000D01*
%TO.N,CO_AD5*%
X128997200Y-99431400D02*
X128997200Y-94473900D01*
X131180900Y-132698300D02*
X129439600Y-130957000D01*
X128982100Y-100114300D02*
X128982100Y-99446500D01*
X128794900Y-100301500D02*
X128982100Y-100114300D01*
X128997200Y-94473900D02*
X127000000Y-92476700D01*
X131500000Y-143000000D02*
X131500000Y-132698300D01*
X128982100Y-99446500D02*
X128997200Y-99431400D01*
X118000000Y-111607000D02*
X128794900Y-100812100D01*
X127000000Y-91500000D02*
X127000000Y-92476700D01*
X128794900Y-100812100D02*
X128794900Y-100301500D01*
X131500000Y-132698300D02*
X131180900Y-132698300D01*
X118000000Y-117128800D02*
X118000000Y-111607000D01*
X122741600Y-121870400D02*
X118000000Y-117128800D01*
%TO.N,CO_AD6*%
X139000000Y-143000000D02*
X139000000Y-132012300D01*
X135867300Y-125503300D02*
X136000000Y-125370600D01*
X136000000Y-109433700D02*
X134617500Y-108051200D01*
X135867300Y-128879600D02*
X135867300Y-125503300D01*
X139000000Y-132012300D02*
X135867300Y-128879600D01*
X136000000Y-125370600D02*
X136000000Y-109433700D01*
%TO.N,CO_AD3*%
X129598300Y-101202100D02*
X124000100Y-106800300D01*
X119000000Y-143000000D02*
X119000000Y-132698300D01*
X119000000Y-131357300D02*
X117852500Y-130209800D01*
X131000000Y-91500000D02*
X131000000Y-92476700D01*
X130187200Y-95462700D02*
X129966700Y-95683200D01*
X124000100Y-121855300D02*
X117500500Y-128354900D01*
X131000000Y-93719600D02*
X130187200Y-94532400D01*
X119000000Y-132698300D02*
X119000000Y-131357300D01*
X131000000Y-92476700D02*
X131000000Y-93719600D01*
X130187200Y-94532400D02*
X130187200Y-95462700D01*
X129966700Y-95683200D02*
X129966700Y-100265700D01*
X129598300Y-100634100D02*
X129598300Y-101202100D01*
X124000100Y-106800300D02*
X124000100Y-121855300D01*
X129966700Y-100265700D02*
X129598300Y-100634100D01*
%TO.N,CO_AD12*%
X113000000Y-93500000D02*
X111956100Y-93500000D01*
X111956100Y-93500000D02*
X109793300Y-95662800D01*
%TO.N,CA_AD14*%
X111500000Y-71500000D02*
X120494900Y-80494900D01*
X120494900Y-80494900D02*
X120872000Y-80494900D01*
%TO.N,CO_AD13*%
X109969600Y-97553700D02*
X108376000Y-97553700D01*
X113000000Y-95500000D02*
X112023300Y-95500000D01*
X112023300Y-95500000D02*
X109969600Y-97553700D01*
%TO.N,CA_AD15*%
X110651700Y-69848300D02*
X117221900Y-69848300D01*
X132750000Y-66820200D02*
X132750000Y-66202400D01*
X120250000Y-66202400D02*
X121048700Y-65403700D01*
X137750000Y-66194500D02*
X137750000Y-67679300D01*
X132750000Y-66202400D02*
X133554300Y-65398100D01*
X137750000Y-67679300D02*
X140081100Y-70010400D01*
X133554300Y-65398100D02*
X136953600Y-65398100D01*
X125999700Y-67572500D02*
X131997700Y-67572500D01*
X136953600Y-65398100D02*
X137750000Y-66194500D01*
X140081100Y-89442200D02*
X139000000Y-90523300D01*
X125250000Y-66822800D02*
X125999700Y-67572500D01*
X140081100Y-70010400D02*
X140081100Y-89442200D01*
X139000000Y-91500000D02*
X139000000Y-90523300D01*
X121048700Y-65403700D02*
X124432500Y-65403700D01*
X120250000Y-66820200D02*
X120250000Y-66202400D01*
X109000000Y-71500000D02*
X110651700Y-69848300D01*
X131997700Y-67572500D02*
X132750000Y-66820200D01*
X117221900Y-69848300D02*
X120250000Y-66820200D01*
X124432500Y-65403700D02*
X125250000Y-66221200D01*
X125250000Y-66221200D02*
X125250000Y-66822800D01*
%TO.N,CO_AD14*%
X114024800Y-99138300D02*
X114024800Y-99858900D01*
X114024800Y-99858900D02*
X113383700Y-100500000D01*
X112558200Y-100500000D02*
X107774300Y-105283900D01*
X113000000Y-97500000D02*
X113000000Y-98476700D01*
X113363200Y-98476700D02*
X114024800Y-99138300D01*
X113383700Y-100500000D02*
X112558200Y-100500000D01*
X113000000Y-98476700D02*
X113363200Y-98476700D01*
%TO.N,CO_AD15*%
X112023300Y-99500000D02*
X111677400Y-99154100D01*
X113000000Y-99500000D02*
X112023300Y-99500000D01*
X111677400Y-99154100D02*
X107172600Y-99154100D01*
%TO.N,CA_AD13*%
X114000000Y-71500000D02*
X119825000Y-77325000D01*
X119825000Y-77325000D02*
X120871400Y-77325000D01*
%TO.N,WRITE*%
X109739500Y-107783800D02*
X109205400Y-107783800D01*
X118000000Y-99889600D02*
X118000000Y-90950000D01*
X121500000Y-87450000D02*
X121500000Y-71500000D01*
X113000000Y-104523300D02*
X113366300Y-104523300D01*
X113000000Y-105500000D02*
X112023300Y-105500000D01*
X113000000Y-105500000D02*
X113000000Y-104523300D01*
X113366300Y-104523300D02*
X118000000Y-99889600D01*
X118000000Y-90950000D02*
X121500000Y-87450000D01*
X112023300Y-105500000D02*
X109739500Y-107783800D01*
%TO.N,SWCLK*%
X164788000Y-94151700D02*
X165651700Y-95015400D01*
X151185300Y-116729800D02*
X150372200Y-116729800D01*
X164500000Y-93000000D02*
X164500000Y-94151700D01*
X149000000Y-113500000D02*
X149000000Y-114476700D01*
X165651700Y-95015400D02*
X165651700Y-102263400D01*
X164500000Y-94151700D02*
X164788000Y-94151700D01*
X149000000Y-115357600D02*
X149000000Y-114476700D01*
X165651700Y-102263400D02*
X151185300Y-116729800D01*
X150372200Y-116729800D02*
X149000000Y-115357600D01*
%TO.N,SWDIO*%
X164500000Y-98080000D02*
X164500000Y-99455800D01*
X153396500Y-108476700D02*
X152785000Y-109088200D01*
X155479100Y-108476700D02*
X153396500Y-108476700D01*
X164500000Y-99455800D02*
X155479100Y-108476700D01*
%TO.N,RX0*%
X108071700Y-108500000D02*
X104651700Y-105080000D01*
X124672200Y-99152500D02*
X115324700Y-108500000D01*
X153825100Y-109698200D02*
X150583000Y-109698200D01*
X126338200Y-99152500D02*
X124672200Y-99152500D01*
X115324700Y-108500000D02*
X108071700Y-108500000D01*
X103500000Y-105080000D02*
X104651700Y-105080000D01*
X154023300Y-109500000D02*
X153825100Y-109698200D01*
X155000000Y-109500000D02*
X154023300Y-109500000D01*
X150583000Y-109698200D02*
X150140500Y-109255700D01*
%TO.N,TX0*%
X103212100Y-101151700D02*
X102298600Y-102065200D01*
X124502600Y-100467900D02*
X125924700Y-100467900D01*
X102298600Y-105521900D02*
X107300000Y-110523300D01*
X150362200Y-110323300D02*
X153823300Y-110323300D01*
X153823300Y-110323300D02*
X155000000Y-111500000D01*
X102298600Y-102065200D02*
X102298600Y-105521900D01*
X103500000Y-101151700D02*
X103212100Y-101151700D01*
X103500000Y-100000000D02*
X103500000Y-101151700D01*
X107300000Y-110523300D02*
X114447200Y-110523300D01*
X114447200Y-110523300D02*
X124502600Y-100467900D01*
%TO.N,USB D+*%
X161348600Y-118079700D02*
X149716500Y-118079700D01*
X149716500Y-118079800D02*
X149716100Y-118080200D01*
X149716500Y-118079700D02*
X149716500Y-118079800D01*
X164500000Y-116080000D02*
X163348300Y-116080000D01*
X163348300Y-116080000D02*
X161348600Y-118079700D01*
%TO.N,USB D-*%
X149944400Y-117457300D02*
X150125300Y-117638200D01*
X149161300Y-117480100D02*
X149184100Y-117457300D01*
X164500000Y-113540000D02*
X163348300Y-113540000D01*
X150125300Y-117638200D02*
X159250100Y-117638200D01*
X159250100Y-117638200D02*
X163348300Y-113540000D01*
X149184100Y-117457300D02*
X149944400Y-117457300D01*
%TO.N,5V*%
X157171300Y-117177000D02*
X150251300Y-117177000D01*
X149952700Y-116878400D02*
X148384700Y-116878400D01*
X150251300Y-117177000D02*
X149952700Y-116878400D01*
X164500000Y-111000000D02*
X163348300Y-111000000D01*
X148384700Y-116878400D02*
X147938800Y-117324300D01*
X163348300Y-111000000D02*
X157171300Y-117177000D01*
%TD*%
M02*
