M48
; DRILL file {KiCad 9.0.1} date 2025-05-19T19:35:18-0500
; FORMAT={-:-/ absolute / inch / decimal}
; #@! TF.CreationDate,2025-05-19T19:35:18-05:00
; #@! TF.GenerationSoftware,Kicad,Pcbnew,9.0.1
; #@! TF.FileFunction,Plated,1,2,PTH
FMAT,2
INCH
; #@! TA.AperFunction,Plated,PTH,ViaDrill
T1C0.0118
; #@! TA.AperFunction,Plated,PTH,ComponentDrill
T2C0.0300
; #@! TA.AperFunction,Plated,PTH,ComponentDrill
T3C0.0315
; #@! TA.AperFunction,Plated,PTH,ComponentDrill
T4C0.0394
%
G90
G05
T1
X4.1671Y-5.216
X4.2914Y-5.1999
X4.32Y-5.1778
X4.3541Y-4.1043
X4.3697Y-3.9978
X4.4131Y-5.1877
X4.4506Y-4.1281
X4.4648Y-4.5422
X4.4655Y-4.0411
X4.4716Y-5.1415
X4.5575Y-4.5664
X4.5866Y-5.2159
X4.5959Y-3.5565
X4.6457Y-4.8595
X4.7717Y-5.2019
X4.8031Y-3.7778
X4.8535Y-3.1925
X4.8819Y-5.2155
X4.9085Y-5.1287
X4.9354Y-3.2699
X5.059Y-5.21
X5.0814Y-5.1861
X5.1146Y-4.7329
X5.1146Y-4.65
X5.1327Y-3.6687
X5.1327Y-3.7404
X5.148Y-3.839
X5.3194Y-5.2166
X5.4221Y-5.0456
X5.4411Y-2.9905
X5.4915Y-4.2173
X5.575Y-4.3876
X5.606Y-3.6846
X5.6564Y-3.8777
X5.6693Y-5.1634
X5.7881Y-4.9674
X5.9535Y-4.578
X5.9545Y-4.6927
X5.9627Y-4.4132
X6.0312Y-3.262
X6.0348Y-4.3942
X6.0702Y-4.3664
X6.1848Y-5.2164
X6.3077Y-3.5462
X6.3712Y-4.9161
X6.413Y-5.1958
T2
X4.0945Y-2.6181
X4.0945Y-2.815
X4.1929Y-2.6181
X4.1929Y-2.815
X4.2913Y-2.6181
X4.2913Y-2.815
X4.3898Y-2.6181
X4.3898Y-2.815
X4.4882Y-2.6181
X4.4882Y-2.815
X4.5866Y-2.6181
X4.5866Y-2.815
X4.685Y-2.6181
X4.685Y-2.815
X4.7835Y-2.6181
X4.7835Y-2.815
X4.8819Y-2.6181
X4.8819Y-2.815
X4.9803Y-2.6181
X4.9803Y-2.815
X5.0787Y-2.6181
X5.0787Y-2.815
X5.1772Y-2.6181
X5.1772Y-2.815
X5.2756Y-2.6181
X5.2756Y-2.815
X5.374Y-2.6181
X5.374Y-2.815
X5.4724Y-2.6181
X5.4724Y-2.815
X5.5709Y-2.6181
X5.5709Y-2.815
X5.6693Y-2.6181
X5.6693Y-2.815
X5.7677Y-2.6181
X5.7677Y-2.815
X5.8661Y-2.6181
X5.8661Y-2.815
X5.9646Y-2.6181
X5.9646Y-2.815
X6.063Y-2.6181
X6.063Y-2.815
X6.1614Y-2.6181
X6.1614Y-2.815
X6.2598Y-2.6181
X6.2598Y-2.815
X6.3583Y-2.6181
X6.3583Y-2.815
X6.4567Y-2.6181
X6.4567Y-2.815
T3
X4.5669Y-3.6811
X4.5669Y-3.7598
X4.5669Y-3.8386
X4.5669Y-3.9173
X4.5669Y-3.9961
X4.5669Y-4.0748
X4.5669Y-4.1535
X4.5669Y-4.2323
X4.5669Y-4.311
X4.5669Y-4.3898
X4.6457Y-3.6024
X4.6457Y-4.4685
X4.7244Y-3.6024
X4.7244Y-4.4685
X4.8031Y-3.6024
X4.8031Y-4.4685
X4.8819Y-3.6024
X4.8819Y-4.4685
X4.9606Y-3.6024
X4.9606Y-4.4685
X5.0394Y-3.6024
X5.0394Y-4.4685
X5.1181Y-3.6024
X5.1181Y-4.4685
X5.1969Y-3.6024
X5.1969Y-4.4685
X5.2756Y-3.6024
X5.2756Y-4.4685
X5.3543Y-3.6024
X5.3543Y-4.4685
X5.4331Y-3.6024
X5.4331Y-4.4685
X5.5118Y-3.6024
X5.5118Y-4.4685
X5.5906Y-3.6024
X5.5906Y-4.4685
X5.6693Y-3.6024
X5.6693Y-4.4685
X5.748Y-3.6024
X5.748Y-4.4685
X5.8268Y-3.6024
X5.8268Y-4.4685
X5.9055Y-3.6024
X5.9055Y-4.4685
X5.9843Y-3.6024
X5.9843Y-4.4685
X6.063Y-3.6024
X6.063Y-4.4685
X6.1417Y-3.6024
X6.1417Y-4.4685
X6.2205Y-3.6811
X6.2205Y-3.7598
X6.2205Y-3.8386
X6.2205Y-3.9173
X6.2205Y-3.9961
X6.2205Y-4.0748
X6.2205Y-4.1535
X6.2205Y-4.2323
X6.2205Y-4.311
X6.2205Y-4.3898
T4
X4.0748Y-3.937
X4.0748Y-4.037
X4.0748Y-4.137
X6.4764Y-3.6614
X6.4764Y-3.7614
X6.4764Y-3.8614
X6.4764Y-4.3701
X6.4764Y-4.4701
X6.4764Y-4.5701
X6.4764Y-4.6701
X6.4764Y-4.7701
M30
