%TF.GenerationSoftware,KiCad,Pcbnew,9.0.1*%
%TF.CreationDate,2025-05-19T19:35:20-05:00*%
%TF.ProjectId,n64_gamecat_rp2350b,6e36345f-6761-46d6-9563-61745f727032,rev?*%
%TF.SameCoordinates,Original*%
%TF.FileFunction,Soldermask,Top*%
%TF.FilePolarity,Negative*%
%FSLAX46Y46*%
G04 Gerber Fmt 4.6, Leading zero omitted, Abs format (unit mm)*
G04 Created by KiCad (PCBNEW 9.0.1) date 2025-05-19 19:35:20*
%MOMM*%
%LPD*%
G01*
G04 APERTURE LIST*
%ADD10R,1.800000X20.000000*%
%ADD11R,2.800000X1.500000*%
%ADD12C,1.350000*%
%ADD13O,1.350000X1.350000*%
%ADD14R,1.500000X2.800000*%
%ADD15R,1.700000X1.700000*%
%ADD16O,1.700000X1.700000*%
%ADD17C,1.524000*%
G04 APERTURE END LIST*
D10*
%TO.C,U3*%
X104000000Y-143000000D03*
X106500000Y-143000000D03*
X109000000Y-143000000D03*
X111500000Y-143000000D03*
X114000000Y-143000000D03*
X116500000Y-143000000D03*
X119000000Y-143000000D03*
X121500000Y-143000000D03*
X124000000Y-143000000D03*
X126500000Y-143000000D03*
X129000000Y-143000000D03*
X131500000Y-143000000D03*
X134000000Y-143000000D03*
X136500000Y-143000000D03*
X139000000Y-143000000D03*
X141500000Y-143000000D03*
X144000000Y-143000000D03*
X146500000Y-143000000D03*
X149000000Y-143000000D03*
X151500000Y-143000000D03*
X154000000Y-143000000D03*
X156500000Y-143000000D03*
X159000000Y-143000000D03*
X161500000Y-143000000D03*
X164000000Y-143000000D03*
%TD*%
D11*
%TO.C,U4*%
X158650000Y-111500000D03*
D12*
X158000000Y-111500000D03*
D11*
X158650000Y-109500000D03*
D13*
X158000000Y-109500000D03*
D11*
X158650000Y-107500000D03*
D13*
X158000000Y-107500000D03*
D11*
X158650000Y-105500000D03*
D13*
X158000000Y-105500000D03*
D11*
X158650000Y-103500000D03*
D13*
X158000000Y-103500000D03*
D11*
X158650000Y-101500000D03*
D13*
X158000000Y-101500000D03*
D11*
X158650000Y-99500000D03*
D13*
X158000000Y-99500000D03*
D11*
X158650000Y-97500000D03*
D13*
X158000000Y-97500000D03*
D11*
X158650000Y-95500000D03*
D13*
X158000000Y-95500000D03*
D11*
X158650000Y-93500000D03*
D13*
X158000000Y-93500000D03*
X156000000Y-91500000D03*
D14*
X156000000Y-90850000D03*
D13*
X154000000Y-91500000D03*
D14*
X154000000Y-90850000D03*
D13*
X152000000Y-91500000D03*
D14*
X152000000Y-90850000D03*
D13*
X150000000Y-91500000D03*
D14*
X150000000Y-90850000D03*
D13*
X148000000Y-91500000D03*
D14*
X148000000Y-90850000D03*
D13*
X146000000Y-91500000D03*
D14*
X146000000Y-90850000D03*
D13*
X144000000Y-91500000D03*
D14*
X144000000Y-90850000D03*
D13*
X142000000Y-91500000D03*
D14*
X142000000Y-90850000D03*
D13*
X140000000Y-91500000D03*
D14*
X140000000Y-90850000D03*
D13*
X138000000Y-91500000D03*
D14*
X138000000Y-90850000D03*
D13*
X136000000Y-91500000D03*
D14*
X136000000Y-90850000D03*
D13*
X134000000Y-91500000D03*
D14*
X134000000Y-90850000D03*
D13*
X132000000Y-91500000D03*
D14*
X132000000Y-90850000D03*
D13*
X130000000Y-91500000D03*
D14*
X130000000Y-90850000D03*
D13*
X128000000Y-91500000D03*
D14*
X128000000Y-90850000D03*
D13*
X126000000Y-91500000D03*
D14*
X126000000Y-90850000D03*
D13*
X124000000Y-91500000D03*
D14*
X124000000Y-90850000D03*
D13*
X122000000Y-91500000D03*
D14*
X122000000Y-90850000D03*
D13*
X120000000Y-91500000D03*
D14*
X120000000Y-90850000D03*
D13*
X118000000Y-91500000D03*
D14*
X118000000Y-90850000D03*
D13*
X116000000Y-93500000D03*
D11*
X115350000Y-93500000D03*
D13*
X116000000Y-95500000D03*
D11*
X115350000Y-95500000D03*
D13*
X116000000Y-97500000D03*
D11*
X115350000Y-97500000D03*
D13*
X116000000Y-99500000D03*
D11*
X115350000Y-99500000D03*
D13*
X116000000Y-101500000D03*
D11*
X115350000Y-101500000D03*
D13*
X116000000Y-103500000D03*
D11*
X115350000Y-103500000D03*
D13*
X116000000Y-105500000D03*
D11*
X115350000Y-105500000D03*
D13*
X116000000Y-107500000D03*
D11*
X115350000Y-107500000D03*
D13*
X116000000Y-109500000D03*
D11*
X115350000Y-109500000D03*
D13*
X116000000Y-111500000D03*
D11*
X115350000Y-111500000D03*
D14*
X118000000Y-114150000D03*
D13*
X118000000Y-113500000D03*
D14*
X120000000Y-114150000D03*
D13*
X120000000Y-113500000D03*
D14*
X122000000Y-114150000D03*
D13*
X122000000Y-113500000D03*
D14*
X124000000Y-114150000D03*
D13*
X124000000Y-113500000D03*
D14*
X126000000Y-114150000D03*
D13*
X126000000Y-113500000D03*
D14*
X128000000Y-114150000D03*
D13*
X128000000Y-113500000D03*
D14*
X130000000Y-114150000D03*
D13*
X130000000Y-113500000D03*
D14*
X132000000Y-114150000D03*
D13*
X132000000Y-113500000D03*
D14*
X134000000Y-114150000D03*
D13*
X134000000Y-113500000D03*
D14*
X136000000Y-114150000D03*
D13*
X136000000Y-113500000D03*
D14*
X138000000Y-114150000D03*
D13*
X138000000Y-113500000D03*
D14*
X140000000Y-114150000D03*
D13*
X140000000Y-113500000D03*
D14*
X142000000Y-114150000D03*
D13*
X142000000Y-113500000D03*
D14*
X144000000Y-114150000D03*
D13*
X144000000Y-113500000D03*
D14*
X146000000Y-114150000D03*
D13*
X146000000Y-113500000D03*
D14*
X148000000Y-114150000D03*
D13*
X148000000Y-113500000D03*
D14*
X150000000Y-114150000D03*
D13*
X150000000Y-113500000D03*
D14*
X152000000Y-114150000D03*
D13*
X152000000Y-113500000D03*
D14*
X154000000Y-114150000D03*
D13*
X154000000Y-113500000D03*
D14*
X156000000Y-114150000D03*
D13*
X156000000Y-113500000D03*
%TD*%
D15*
%TO.C,J3*%
X164500000Y-111000000D03*
D16*
X164500000Y-113540000D03*
X164500000Y-116080000D03*
X164500000Y-118620000D03*
X164500000Y-121160000D03*
%TD*%
D15*
%TO.C,J1*%
X164500000Y-93000000D03*
D16*
X164500000Y-95540000D03*
X164500000Y-98080000D03*
%TD*%
D15*
%TO.C,J2*%
X103500000Y-100000000D03*
D16*
X103500000Y-102540000D03*
X103500000Y-105080000D03*
%TD*%
D17*
%TO.C,U2*%
X104000000Y-71500000D03*
X106500000Y-71500000D03*
X109000000Y-71500000D03*
X111500000Y-71500000D03*
X114000000Y-71500000D03*
X116500000Y-71500000D03*
X119000000Y-71500000D03*
X121500000Y-71500000D03*
X124000000Y-71500000D03*
X126500000Y-71500000D03*
X129000000Y-71500000D03*
X131500000Y-71500000D03*
X134000000Y-71500000D03*
X136500000Y-71500000D03*
X139000000Y-71500000D03*
X141500000Y-71500000D03*
X144000000Y-71500000D03*
X146500000Y-71500000D03*
X149000000Y-71500000D03*
X151500000Y-71500000D03*
X154000000Y-71500000D03*
X156500000Y-71500000D03*
X159000000Y-71500000D03*
X161500000Y-71500000D03*
X164000000Y-71500000D03*
X104000000Y-66500000D03*
X106500000Y-66500000D03*
X109000000Y-66500000D03*
X111500000Y-66500000D03*
X114000000Y-66500000D03*
X116500000Y-66500000D03*
X119000000Y-66500000D03*
X121500000Y-66500000D03*
X124000000Y-66500000D03*
X126500000Y-66500000D03*
X129000000Y-66500000D03*
X131500000Y-66500000D03*
X134000000Y-66500000D03*
X136500000Y-66500000D03*
X139000000Y-66500000D03*
X141500000Y-66500000D03*
X144000000Y-66500000D03*
X146500000Y-66500000D03*
X149000000Y-66500000D03*
X151500000Y-66500000D03*
X154000000Y-66500000D03*
X156500000Y-66500000D03*
X159000000Y-66500000D03*
X161500000Y-66500000D03*
X164000000Y-66500000D03*
%TD*%
M02*
