%TF.GenerationSoftware,KiCad,Pcbnew,8.0.6*%
%TF.CreationDate,2024-10-17T23:32:30-05:00*%
%TF.ProjectId,n64_gamecat_rp2350b,6e36345f-6761-46d6-9563-61745f727032,rev?*%
%TF.SameCoordinates,Original*%
%TF.FileFunction,Soldermask,Bot*%
%TF.FilePolarity,Negative*%
%FSLAX46Y46*%
G04 Gerber Fmt 4.6, Leading zero omitted, Abs format (unit mm)*
G04 Created by KiCad (PCBNEW 8.0.6) date 2024-10-17 23:32:30*
%MOMM*%
%LPD*%
G01*
G04 APERTURE LIST*
%ADD10C,1.350000*%
%ADD11O,1.350000X1.350000*%
%ADD12R,1.800000X20.000000*%
%ADD13C,1.524000*%
G04 APERTURE END LIST*
D10*
%TO.C,U4*%
X155000000Y-111500000D03*
D11*
X155000000Y-109500000D03*
X155000000Y-107500000D03*
X155000000Y-105500000D03*
X155000000Y-103500000D03*
X155000000Y-101500000D03*
X155000000Y-99500000D03*
X155000000Y-97500000D03*
X155000000Y-95500000D03*
X155000000Y-93500000D03*
X153000000Y-91500000D03*
X151000000Y-91500000D03*
X149000000Y-91500000D03*
X147000000Y-91500000D03*
X145000000Y-91500000D03*
X143000000Y-91500000D03*
X141000000Y-91500000D03*
X139000000Y-91500000D03*
X137000000Y-91500000D03*
X135000000Y-91500000D03*
X133000000Y-91500000D03*
X131000000Y-91500000D03*
X129000000Y-91500000D03*
X127000000Y-91500000D03*
X125000000Y-91500000D03*
X123000000Y-91500000D03*
X121000000Y-91500000D03*
X119000000Y-91500000D03*
X117000000Y-91500000D03*
X115000000Y-91500000D03*
X113000000Y-93500000D03*
X113000000Y-95500000D03*
X113000000Y-97500000D03*
X113000000Y-99500000D03*
X113000000Y-101500000D03*
X113000000Y-103500000D03*
X113000000Y-105500000D03*
X113000000Y-107500000D03*
X113000000Y-109500000D03*
X113000000Y-111500000D03*
X115000000Y-113500000D03*
X117000000Y-113500000D03*
X119000000Y-113500000D03*
X121000000Y-113500000D03*
X123000000Y-113500000D03*
X125000000Y-113500000D03*
X127000000Y-113500000D03*
X129000000Y-113500000D03*
X131000000Y-113500000D03*
X133000000Y-113500000D03*
X135000000Y-113500000D03*
X137000000Y-113500000D03*
X139000000Y-113500000D03*
X141000000Y-113500000D03*
X143000000Y-113500000D03*
X145000000Y-113500000D03*
X147000000Y-113500000D03*
X149000000Y-113500000D03*
X151000000Y-113500000D03*
X153000000Y-113500000D03*
%TD*%
D12*
%TO.C,U3*%
X104000000Y-143000000D03*
X106500000Y-143000000D03*
X109000000Y-143000000D03*
X111500000Y-143000000D03*
X114000000Y-143000000D03*
X116500000Y-143000000D03*
X119000000Y-143000000D03*
X121500000Y-143000000D03*
X124000000Y-143000000D03*
X126500000Y-143000000D03*
X129000000Y-143000000D03*
X131500000Y-143000000D03*
X134000000Y-143000000D03*
X136500000Y-143000000D03*
X139000000Y-143000000D03*
X141500000Y-143000000D03*
X144000000Y-143000000D03*
X146500000Y-143000000D03*
X149000000Y-143000000D03*
X151500000Y-143000000D03*
X154000000Y-143000000D03*
X156500000Y-143000000D03*
X159000000Y-143000000D03*
X161500000Y-143000000D03*
X164000000Y-143000000D03*
%TD*%
D13*
%TO.C,U2*%
X104000000Y-71500000D03*
X106500000Y-71500000D03*
X109000000Y-71500000D03*
X111500000Y-71500000D03*
X114000000Y-71500000D03*
X116500000Y-71500000D03*
X119000000Y-71500000D03*
X121500000Y-71500000D03*
X124000000Y-71500000D03*
X126500000Y-71500000D03*
X129000000Y-71500000D03*
X131500000Y-71500000D03*
X134000000Y-71500000D03*
X136500000Y-71500000D03*
X139000000Y-71500000D03*
X141500000Y-71500000D03*
X144000000Y-71500000D03*
X146500000Y-71500000D03*
X149000000Y-71500000D03*
X151500000Y-71500000D03*
X154000000Y-71500000D03*
X156500000Y-71500000D03*
X159000000Y-71500000D03*
X161500000Y-71500000D03*
X164000000Y-71500000D03*
X104000000Y-66500000D03*
X106500000Y-66500000D03*
X109000000Y-66500000D03*
X111500000Y-66500000D03*
X114000000Y-66500000D03*
X116500000Y-66500000D03*
X119000000Y-66500000D03*
X121500000Y-66500000D03*
X124000000Y-66500000D03*
X126500000Y-66500000D03*
X129000000Y-66500000D03*
X131500000Y-66500000D03*
X134000000Y-66500000D03*
X136500000Y-66500000D03*
X139000000Y-66500000D03*
X141500000Y-66500000D03*
X144000000Y-66500000D03*
X146500000Y-66500000D03*
X149000000Y-66500000D03*
X151500000Y-66500000D03*
X154000000Y-66500000D03*
X156500000Y-66500000D03*
X159000000Y-66500000D03*
X161500000Y-66500000D03*
X164000000Y-66500000D03*
%TD*%
M02*
