%TF.GenerationSoftware,KiCad,Pcbnew,9.0.1*%
%TF.CreationDate,2025-05-19T19:35:19-05:00*%
%TF.ProjectId,n64_gamecat_rp2350b,6e36345f-6761-46d6-9563-61745f727032,rev?*%
%TF.SameCoordinates,Original*%
%TF.FileFunction,Copper,L2,Bot*%
%TF.FilePolarity,Positive*%
%FSLAX46Y46*%
G04 Gerber Fmt 4.6, Leading zero omitted, Abs format (unit mm)*
G04 Created by KiCad (PCBNEW 9.0.1) date 2025-05-19 19:35:19*
%MOMM*%
%LPD*%
G01*
G04 APERTURE LIST*
%TA.AperFunction,SMDPad,CuDef*%
%ADD10R,1.800000X20.000000*%
%TD*%
%TA.AperFunction,ComponentPad*%
%ADD11C,1.350000*%
%TD*%
%TA.AperFunction,ComponentPad*%
%ADD12O,1.350000X1.350000*%
%TD*%
%TA.AperFunction,ComponentPad*%
%ADD13R,1.700000X1.700000*%
%TD*%
%TA.AperFunction,ComponentPad*%
%ADD14O,1.700000X1.700000*%
%TD*%
%TA.AperFunction,ComponentPad*%
%ADD15C,1.524000*%
%TD*%
%TA.AperFunction,ViaPad*%
%ADD16C,0.600000*%
%TD*%
%TA.AperFunction,Conductor*%
%ADD17C,0.200000*%
%TD*%
G04 APERTURE END LIST*
D10*
%TO.P,U3,26,GND*%
%TO.N,GND*%
X104000000Y-143000000D03*
%TO.P,U3,27,GND*%
X106500000Y-143000000D03*
%TO.P,U3,28,AD0*%
%TO.N,CO_AD0*%
X109000000Y-143000000D03*
%TO.P,U3,29,AD1*%
%TO.N,CO_AD1*%
X111500000Y-143000000D03*
%TO.P,U3,30,AD2*%
%TO.N,CO_AD2*%
X114000000Y-143000000D03*
%TO.P,U3,31,GND*%
%TO.N,GND*%
X116500000Y-143000000D03*
%TO.P,U3,32,AD3*%
%TO.N,CO_AD3*%
X119000000Y-143000000D03*
%TO.P,U3,33,ALE_L*%
%TO.N,ALE_L*%
X121500000Y-143000000D03*
%TO.P,U3,34,VCC*%
%TO.N,+3V3*%
X124000000Y-143000000D03*
%TO.P,U3,35,ALE_H*%
%TO.N,ALE_H*%
X126500000Y-143000000D03*
%TO.P,U3,36,AD4*%
%TO.N,CO_AD4*%
X129000000Y-143000000D03*
%TO.P,U3,37,AD5*%
%TO.N,CO_AD5*%
X131500000Y-143000000D03*
%TO.P,U3,38,NC*%
%TO.N,Net-(U2-NC-Pad38)*%
X134000000Y-143000000D03*
%TO.P,U3,39,NC*%
%TO.N,Net-(U2-NC-Pad39)*%
X136500000Y-143000000D03*
%TO.P,U3,40,AD6*%
%TO.N,CO_AD6*%
X139000000Y-143000000D03*
%TO.P,U3,41,AD7*%
%TO.N,CO_AD7*%
X141500000Y-143000000D03*
%TO.P,U3,42,VCC*%
%TO.N,+3V3*%
X144000000Y-143000000D03*
%TO.P,U3,43,PIF_CIC*%
%TO.N,Net-(U2-PIF_CIC)*%
X146500000Y-143000000D03*
%TO.P,U3,44,JTAG_CLK*%
%TO.N,Net-(U2-JTAG_CLK)*%
X149000000Y-143000000D03*
%TO.P,U3,45,NMI_R4300*%
%TO.N,Net-(U2-NMI_R4300)*%
X151500000Y-143000000D03*
%TO.P,U3,46,VIDEO_CLK*%
%TO.N,Net-(U2-VIDEO_CLK)*%
X154000000Y-143000000D03*
%TO.P,U3,47,GND*%
%TO.N,GND*%
X156500000Y-143000000D03*
%TO.P,U3,48,GND*%
X159000000Y-143000000D03*
%TO.P,U3,49,R_AUDIO*%
%TO.N,Net-(U2-R_AUDIO)*%
X161500000Y-143000000D03*
%TO.P,U3,50,GND*%
%TO.N,GND*%
X164000000Y-143000000D03*
%TD*%
D11*
%TO.P,U4,1,GPIO0*%
%TO.N,CA_AD0*%
X158000000Y-111500000D03*
D12*
%TO.P,U4,2,GPIO1*%
%TO.N,CA_AD1*%
X158000000Y-109500000D03*
%TO.P,U4,3,GPIO2*%
%TO.N,CA_AD2*%
X158000000Y-107500000D03*
%TO.P,U4,4,GPIO3*%
%TO.N,CA_AD3*%
X158000000Y-105500000D03*
%TO.P,U4,5,GPIO4*%
%TO.N,CA_AD4*%
X158000000Y-103500000D03*
%TO.P,U4,6,GPIO5*%
%TO.N,CA_AD5*%
X158000000Y-101500000D03*
%TO.P,U4,7,GPIO6*%
%TO.N,CA_AD6*%
X158000000Y-99500000D03*
%TO.P,U4,8,GPIO7*%
%TO.N,CA_AD7*%
X158000000Y-97500000D03*
%TO.P,U4,9,GPIO8*%
%TO.N,CA_AD8*%
X158000000Y-95500000D03*
%TO.P,U4,10,GPIO9*%
%TO.N,CA_AD9*%
X158000000Y-93500000D03*
%TO.P,U4,11,GPIO10*%
%TO.N,CA_AD10*%
X156000000Y-91500000D03*
%TO.P,U4,12,GPIO11*%
%TO.N,CA_AD11*%
X154000000Y-91500000D03*
%TO.P,U4,13,GPIO12*%
%TO.N,CA_AD12*%
X152000000Y-91500000D03*
%TO.P,U4,14,GPIO13*%
%TO.N,CA_AD13*%
X150000000Y-91500000D03*
%TO.P,U4,15,GPIO14*%
%TO.N,CA_AD14*%
X148000000Y-91500000D03*
%TO.P,U4,16,GPIO15*%
%TO.N,CA_AD15*%
X146000000Y-91500000D03*
%TO.P,U4,17,GPIO16*%
%TO.N,unconnected-(U4-GPIO16-Pad17)*%
X144000000Y-91500000D03*
%TO.P,U4,18,GPIO17*%
%TO.N,unconnected-(U4-GPIO17-Pad18)*%
X142000000Y-91500000D03*
%TO.P,U4,19,GPIO18*%
%TO.N,CO_AD0*%
X140000000Y-91500000D03*
%TO.P,U4,20,GPIO19*%
%TO.N,CO_AD1*%
X138000000Y-91500000D03*
%TO.P,U4,21,GPIO20*%
%TO.N,CO_AD2*%
X136000000Y-91500000D03*
%TO.P,U4,22,GPIO21*%
%TO.N,CO_AD3*%
X134000000Y-91500000D03*
%TO.P,U4,23,GPIO22*%
%TO.N,CO_AD4*%
X132000000Y-91500000D03*
%TO.P,U4,24,GPIO23*%
%TO.N,CO_AD5*%
X130000000Y-91500000D03*
%TO.P,U4,25,GPIO24*%
%TO.N,CO_AD6*%
X128000000Y-91500000D03*
%TO.P,U4,26,GPIO25*%
%TO.N,CO_AD7*%
X126000000Y-91500000D03*
%TO.P,U4,27,GPIO26*%
%TO.N,CO_AD8*%
X124000000Y-91500000D03*
%TO.P,U4,28,GPIO27*%
%TO.N,CO_AD9*%
X122000000Y-91500000D03*
%TO.P,U4,29,GPIO28*%
%TO.N,CO_AD10*%
X120000000Y-91500000D03*
%TO.P,U4,30,GPIO29*%
%TO.N,CO_AD11*%
X118000000Y-91500000D03*
%TO.P,U4,31,GPIO30*%
%TO.N,CO_AD12*%
X116000000Y-93500000D03*
%TO.P,U4,32,GPIO31*%
%TO.N,CO_AD13*%
X116000000Y-95500000D03*
%TO.P,U4,33,GPIO32*%
%TO.N,CO_AD14*%
X116000000Y-97500000D03*
%TO.P,U4,34,GPIO33*%
%TO.N,CO_AD15*%
X116000000Y-99500000D03*
%TO.P,U4,35,GPIO34*%
%TO.N,unconnected-(U4-GPIO34-Pad35)*%
X116000000Y-101500000D03*
%TO.P,U4,36,GPIO35*%
%TO.N,unconnected-(U4-GPIO35-Pad36)*%
X116000000Y-103500000D03*
%TO.P,U4,37,GPIO36*%
%TO.N,unconnected-(U4-GPIO36-Pad37)*%
X116000000Y-105500000D03*
%TO.P,U4,38,GPIO37*%
%TO.N,unconnected-(U4-GPIO37-Pad38)*%
X116000000Y-107500000D03*
%TO.P,U4,39,GPIO38*%
%TO.N,unconnected-(U4-GPIO38-Pad39)*%
X116000000Y-109500000D03*
%TO.P,U4,40,GPIO39*%
%TO.N,unconnected-(U4-GPIO39-Pad40)*%
X116000000Y-111500000D03*
%TO.P,U4,41,GPIO40*%
%TO.N,ALE_H*%
X118000000Y-113500000D03*
%TO.P,U4,42,GPIO41*%
%TO.N,ALE_L*%
X120000000Y-113500000D03*
%TO.P,U4,43,GPIO42*%
%TO.N,WRITE*%
X122000000Y-113500000D03*
%TO.P,U4,44,GPIO43*%
%TO.N,READ*%
X124000000Y-113500000D03*
%TO.P,U4,45,GPIO44*%
%TO.N,TX0*%
X126000000Y-113500000D03*
%TO.P,U4,46,GPIO45*%
%TO.N,RX0*%
X128000000Y-113500000D03*
%TO.P,U4,47,GPIO46*%
%TO.N,unconnected-(U4-GPIO46-Pad47)*%
X130000000Y-113500000D03*
%TO.P,U4,48,GPIO47*%
%TO.N,unconnected-(U4-GPIO47-Pad48)*%
X132000000Y-113500000D03*
%TO.P,U4,49,GPIO48*%
%TO.N,unconnected-(U4-GPIO48-Pad49)*%
X134000000Y-113500000D03*
%TO.P,U4,50,GPIO49*%
%TO.N,unconnected-(U4-GPIO49-Pad50)*%
X136000000Y-113500000D03*
%TO.P,U4,51,GPIO50*%
%TO.N,GND*%
X138000000Y-113500000D03*
%TO.P,U4,52,GPIO51*%
%TO.N,unconnected-(U4-GPIO51-Pad52)*%
X140000000Y-113500000D03*
%TO.P,U4,53,GPIO52*%
%TO.N,5V*%
X142000000Y-113500000D03*
%TO.P,U4,54,GPIO53*%
%TO.N,unconnected-(U4-GPIO53-Pad54)*%
X144000000Y-113500000D03*
%TO.P,U4,55,GPIO54*%
%TO.N,USB D-*%
X146000000Y-113500000D03*
%TO.P,U4,56,GPIO55*%
%TO.N,USB D+*%
X148000000Y-113500000D03*
%TO.P,U4,57,GPIO56*%
%TO.N,SWDIO*%
X150000000Y-113500000D03*
%TO.P,U4,58,GPIO57*%
%TO.N,SWCLK*%
X152000000Y-113500000D03*
%TO.P,U4,59,GPIO58*%
%TO.N,unconnected-(U4-GPIO58-Pad59)*%
X154000000Y-113500000D03*
%TO.P,U4,60,GPIO59*%
%TO.N,unconnected-(U4-GPIO59-Pad60)*%
X156000000Y-113500000D03*
%TD*%
D13*
%TO.P,J3,1,Pin_1*%
%TO.N,5V*%
X164500000Y-111000000D03*
D14*
%TO.P,J3,2,Pin_2*%
%TO.N,USB D-*%
X164500000Y-113540000D03*
%TO.P,J3,3,Pin_3*%
%TO.N,USB D+*%
X164500000Y-116080000D03*
%TO.P,J3,4,Pin_4*%
%TO.N,unconnected-(J3-Pin_4-Pad4)*%
X164500000Y-118620000D03*
%TO.P,J3,5,Pin_5*%
%TO.N,GND*%
X164500000Y-121160000D03*
%TD*%
D13*
%TO.P,J1,1,Pin_1*%
%TO.N,SWCLK*%
X164500000Y-93000000D03*
D14*
%TO.P,J1,2,Pin_2*%
%TO.N,GND*%
X164500000Y-95540000D03*
%TO.P,J1,3,Pin_3*%
%TO.N,SWDIO*%
X164500000Y-98080000D03*
%TD*%
D13*
%TO.P,J2,1,Pin_1*%
%TO.N,TX0*%
X103500000Y-100000000D03*
D14*
%TO.P,J2,2,Pin_2*%
%TO.N,GND*%
X103500000Y-102540000D03*
%TO.P,J2,3,Pin_3*%
%TO.N,RX0*%
X103500000Y-105080000D03*
%TD*%
D15*
%TO.P,U2,1,GND*%
%TO.N,GND*%
X104000000Y-71500000D03*
%TO.P,U2,2,GND*%
X106500000Y-71500000D03*
%TO.P,U2,3,AD15*%
%TO.N,CA_AD15*%
X109000000Y-71500000D03*
%TO.P,U2,4,AD14*%
%TO.N,CA_AD14*%
X111500000Y-71500000D03*
%TO.P,U2,5,AD13*%
%TO.N,CA_AD13*%
X114000000Y-71500000D03*
%TO.P,U2,6,GND*%
%TO.N,GND*%
X116500000Y-71500000D03*
%TO.P,U2,7,AD12*%
%TO.N,CA_AD12*%
X119000000Y-71500000D03*
%TO.P,U2,8,WRITE*%
%TO.N,WRITE*%
X121500000Y-71500000D03*
%TO.P,U2,9,VCC*%
%TO.N,+3V3*%
X124000000Y-71500000D03*
%TO.P,U2,10,READ*%
%TO.N,READ*%
X126500000Y-71500000D03*
%TO.P,U2,11,AD11*%
%TO.N,CA_AD11*%
X129000000Y-71500000D03*
%TO.P,U2,12,AD10*%
%TO.N,CA_AD10*%
X131500000Y-71500000D03*
%TO.P,U2,13,NC*%
%TO.N,Net-(U2-NC-Pad13)*%
X134000000Y-71500000D03*
%TO.P,U2,14,NC*%
%TO.N,Net-(U2-NC-Pad14)*%
X136500000Y-71500000D03*
%TO.P,U2,15,AD9*%
%TO.N,CA_AD9*%
X139000000Y-71500000D03*
%TO.P,U2,16,AD8*%
%TO.N,CA_AD8*%
X141500000Y-71500000D03*
%TO.P,U2,17,VCC*%
%TO.N,+3V3*%
X144000000Y-71500000D03*
%TO.P,U2,18,CIC_PIF*%
%TO.N,Net-(U2-CIC_PIF)*%
X146500000Y-71500000D03*
%TO.P,U2,19,CLK_PIF*%
%TO.N,Net-(U2-CLK_PIF)*%
X149000000Y-71500000D03*
%TO.P,U2,20,COLD_RST*%
%TO.N,Net-(U2-COLD_RST)*%
X151500000Y-71500000D03*
%TO.P,U2,21,S_DAT*%
%TO.N,Net-(U2-S_DAT)*%
X154000000Y-71500000D03*
%TO.P,U2,22,GND*%
%TO.N,GND*%
X156500000Y-71500000D03*
%TO.P,U2,23,GND*%
X159000000Y-71500000D03*
%TO.P,U2,24,LAUDIO*%
%TO.N,Net-(U2-LAUDIO)*%
X161500000Y-71500000D03*
%TO.P,U2,25,GND*%
%TO.N,GND*%
X164000000Y-71500000D03*
%TO.P,U2,26,GND*%
X104000000Y-66500000D03*
%TO.P,U2,27,GND*%
X106500000Y-66500000D03*
%TO.P,U2,28,AD0*%
%TO.N,CA_AD0*%
X109000000Y-66500000D03*
%TO.P,U2,29,AD1*%
%TO.N,CA_AD1*%
X111500000Y-66500000D03*
%TO.P,U2,30,AD2*%
%TO.N,CA_AD2*%
X114000000Y-66500000D03*
%TO.P,U2,31,GND*%
%TO.N,GND*%
X116500000Y-66500000D03*
%TO.P,U2,32,AD3*%
%TO.N,CA_AD3*%
X119000000Y-66500000D03*
%TO.P,U2,33,ALE_L*%
%TO.N,ALE_L*%
X121500000Y-66500000D03*
%TO.P,U2,34,VCC*%
%TO.N,+3V3*%
X124000000Y-66500000D03*
%TO.P,U2,35,ALE_H*%
%TO.N,ALE_H*%
X126500000Y-66500000D03*
%TO.P,U2,36,AD4*%
%TO.N,CA_AD4*%
X129000000Y-66500000D03*
%TO.P,U2,37,AD5*%
%TO.N,CA_AD5*%
X131500000Y-66500000D03*
%TO.P,U2,38,NC*%
%TO.N,Net-(U2-NC-Pad38)*%
X134000000Y-66500000D03*
%TO.P,U2,39,NC*%
%TO.N,Net-(U2-NC-Pad39)*%
X136500000Y-66500000D03*
%TO.P,U2,40,AD6*%
%TO.N,CA_AD6*%
X139000000Y-66500000D03*
%TO.P,U2,41,AD7*%
%TO.N,CA_AD7*%
X141500000Y-66500000D03*
%TO.P,U2,42,VCC*%
%TO.N,+3V3*%
X144000000Y-66500000D03*
%TO.P,U2,43,PIF_CIC*%
%TO.N,Net-(U2-PIF_CIC)*%
X146500000Y-66500000D03*
%TO.P,U2,44,JTAG_CLK*%
%TO.N,Net-(U2-JTAG_CLK)*%
X149000000Y-66500000D03*
%TO.P,U2,45,NMI_R4300*%
%TO.N,Net-(U2-NMI_R4300)*%
X151500000Y-66500000D03*
%TO.P,U2,46,VIDEO_CLK*%
%TO.N,Net-(U2-VIDEO_CLK)*%
X154000000Y-66500000D03*
%TO.P,U2,47,GND*%
%TO.N,GND*%
X156500000Y-66500000D03*
%TO.P,U2,48,GND*%
X159000000Y-66500000D03*
%TO.P,U2,49,R_AUDIO*%
%TO.N,Net-(U2-R_AUDIO)*%
X161500000Y-66500000D03*
%TO.P,U2,50,GND*%
%TO.N,GND*%
X164000000Y-66500000D03*
%TD*%
D16*
%TO.N,5V*%
X154182600Y-110906700D03*
%TO.N,USB D-*%
X153283100Y-111613400D03*
%TO.N,USB D+*%
X151218000Y-116281900D03*
%TO.N,SWDIO*%
X151452500Y-112094800D03*
%TO.N,WRITE*%
X123279700Y-81090300D03*
X122000000Y-95955100D03*
%TO.N,CO_AD15*%
X110593600Y-104249800D03*
%TO.N,CO_AD14*%
X110989500Y-101543000D03*
%TO.N,CO_AD3*%
X113577400Y-130593900D03*
%TO.N,CO_AD6*%
X139483400Y-107118400D03*
%TO.N,CO_AD5*%
X130760100Y-97509600D03*
%TO.N,CO_AD0*%
X109001100Y-132078400D03*
%TO.N,CO_AD11*%
X128498500Y-132333700D03*
%TO.N,CO_AD8*%
X113045800Y-104852600D03*
X113406000Y-115371200D03*
X129911100Y-118109900D03*
%TO.N,CO_AD10*%
X129068800Y-131725900D03*
%TO.N,CO_AD9*%
X113424600Y-102644800D03*
X115761000Y-115986300D03*
X129909600Y-120215100D03*
%TO.N,CO_AD2*%
X112093500Y-131768000D03*
%TO.N,CO_AD7*%
X141604800Y-111444900D03*
%TO.N,CO_AD1*%
X109728700Y-131516200D03*
%TO.N,CA_AD6*%
X153192600Y-82854700D03*
%TO.N,Net-(U2-VIDEO_CLK)*%
X161828200Y-124870100D03*
%TO.N,Net-(U2-CIC_PIF)*%
X147017200Y-126172100D03*
%TO.N,CA_AD1*%
X130370700Y-93186100D03*
%TO.N,CA_AD2*%
X142391600Y-93590000D03*
%TO.N,ALE_L*%
X121200000Y-132127200D03*
X116735900Y-90335200D03*
%TO.N,CA_AD3*%
X160216800Y-90074100D03*
%TO.N,ALE_H*%
X118000000Y-123430200D03*
X125359700Y-83056100D03*
%TO.N,Net-(U2-R_AUDIO)*%
X162890100Y-131974000D03*
%TO.N,CA_AD0*%
X130370700Y-95004900D03*
%TO.N,+3V3*%
X143673500Y-98494600D03*
X124000000Y-132472500D03*
X124675500Y-130269000D03*
X144000000Y-131149900D03*
%TO.N,Net-(U2-NC-Pad13)*%
X135113600Y-132500500D03*
%TO.N,GND*%
X116500000Y-132484300D03*
X157092900Y-132497100D03*
X151243100Y-119194300D03*
X105845600Y-132486500D03*
%TO.N,Net-(U2-NC-Pad14)*%
X138203000Y-75958100D03*
X137722000Y-128157600D03*
%TD*%
D17*
%TO.N,5V*%
X154589300Y-110500000D02*
X154182600Y-110906700D01*
X162848300Y-110500000D02*
X154589300Y-110500000D01*
X163348300Y-111000000D02*
X162848300Y-110500000D01*
X164500000Y-111000000D02*
X163348300Y-111000000D01*
%TO.N,USB D-*%
X164500000Y-113540000D02*
X163348300Y-113540000D01*
X154193000Y-112523300D02*
X153283100Y-111613400D01*
X162331600Y-112523300D02*
X154193000Y-112523300D01*
X163348300Y-113540000D02*
X162331600Y-112523300D01*
%TO.N,USB D+*%
X151419900Y-116080000D02*
X151218000Y-116281900D01*
X164500000Y-116080000D02*
X151419900Y-116080000D01*
%TO.N,TX0*%
X125023300Y-113904800D02*
X125023300Y-113500000D01*
X124422000Y-114506100D02*
X125023300Y-113904800D01*
X117617800Y-114506100D02*
X124422000Y-114506100D01*
X104263400Y-101151700D02*
X117617800Y-114506100D01*
X103500000Y-101151700D02*
X104263400Y-101151700D01*
X103500000Y-100000000D02*
X103500000Y-101151700D01*
X126000000Y-113500000D02*
X125023300Y-113500000D01*
%TO.N,RX0*%
X128000000Y-113500000D02*
X127023300Y-113500000D01*
X103500000Y-105080000D02*
X104651700Y-105080000D01*
X127023300Y-113904800D02*
X127023300Y-113500000D01*
X125989400Y-114938700D02*
X127023300Y-113904800D01*
X114510400Y-114938700D02*
X125989400Y-114938700D01*
X104651700Y-105080000D02*
X114510400Y-114938700D01*
%TO.N,SWDIO*%
X164500000Y-98080000D02*
X164500000Y-99231700D01*
X151452500Y-110646800D02*
X151452500Y-112094800D01*
X157600800Y-104498500D02*
X151452500Y-110646800D01*
X159233200Y-104498500D02*
X157600800Y-104498500D01*
X164500000Y-99231700D02*
X159233200Y-104498500D01*
%TO.N,SWCLK*%
X164500000Y-93000000D02*
X164500000Y-94151700D01*
X152000000Y-113500000D02*
X152000000Y-112523300D01*
X164787900Y-94151700D02*
X164500000Y-94151700D01*
X166109000Y-95472800D02*
X164787900Y-94151700D01*
X166109000Y-98845500D02*
X166109000Y-95472800D01*
X158454500Y-106500000D02*
X166109000Y-98845500D01*
X157545000Y-106500000D02*
X158454500Y-106500000D01*
X152404700Y-111640300D02*
X157545000Y-106500000D01*
X152404700Y-112118600D02*
X152404700Y-111640300D01*
X152000000Y-112523300D02*
X152404700Y-112118600D01*
%TO.N,WRITE*%
X122999900Y-81370100D02*
X123279700Y-81090300D01*
X122999900Y-94955200D02*
X122999900Y-81370100D01*
X122000000Y-95955100D02*
X122999900Y-94955200D01*
%TO.N,CO_AD15*%
X115023300Y-99820100D02*
X110593600Y-104249800D01*
X115023300Y-99500000D02*
X115023300Y-99820100D01*
X116000000Y-99500000D02*
X115023300Y-99500000D01*
%TO.N,CO_AD14*%
X116000000Y-97500000D02*
X115023300Y-97500000D01*
X110989500Y-101533800D02*
X110989500Y-101543000D01*
X115023300Y-97500000D02*
X110989500Y-101533800D01*
%TO.N,CO_AD3*%
X116895600Y-130593900D02*
X119000000Y-132698300D01*
X113577400Y-130593900D02*
X116895600Y-130593900D01*
X119000000Y-143000000D02*
X119000000Y-132698300D01*
%TO.N,CO_AD6*%
X139000000Y-143000000D02*
X139000000Y-132698300D01*
X141000000Y-108635000D02*
X139483400Y-107118400D01*
X141000000Y-130698300D02*
X141000000Y-108635000D01*
X139000000Y-132698300D02*
X141000000Y-130698300D01*
%TO.N,CO_AD5*%
X131500000Y-143000000D02*
X131500000Y-132698300D01*
X131006900Y-97756400D02*
X130760100Y-97509600D01*
X131006900Y-132205200D02*
X131006900Y-97756400D01*
X131500000Y-132698300D02*
X131006900Y-132205200D01*
%TO.N,CO_AD0*%
X109001100Y-132697200D02*
X109000000Y-132698300D01*
X109001100Y-132078400D02*
X109001100Y-132697200D01*
X109000000Y-143000000D02*
X109000000Y-132698300D01*
%TO.N,CO_AD11*%
X101941700Y-105776900D02*
X128498500Y-132333700D01*
X101941700Y-98848900D02*
X101941700Y-105776900D01*
X109290600Y-91500000D02*
X101941700Y-98848900D01*
X118000000Y-91500000D02*
X109290600Y-91500000D01*
%TO.N,CO_AD8*%
X124000000Y-91500000D02*
X124000000Y-92476700D01*
X115398400Y-102500000D02*
X113045800Y-104852600D01*
X116403800Y-102500000D02*
X115398400Y-102500000D01*
X124000000Y-94903800D02*
X116403800Y-102500000D01*
X124000000Y-92476700D02*
X124000000Y-94903800D01*
X127172400Y-115371200D02*
X129911100Y-118109900D01*
X113406000Y-115371200D02*
X127172400Y-115371200D01*
%TO.N,CO_AD10*%
X120000000Y-91500000D02*
X119023300Y-91500000D01*
X128514900Y-131725900D02*
X129068800Y-131725900D01*
X102343400Y-105554400D02*
X128514900Y-131725900D01*
X102343400Y-99020000D02*
X102343400Y-105554400D01*
X108916700Y-92446700D02*
X102343400Y-99020000D01*
X116946700Y-92446700D02*
X108916700Y-92446700D01*
X117024800Y-92524800D02*
X116946700Y-92446700D01*
X118364800Y-92524800D02*
X117024800Y-92524800D01*
X119023300Y-91866300D02*
X118364800Y-92524800D01*
X119023300Y-91500000D02*
X119023300Y-91866300D01*
%TO.N,CO_AD4*%
X130518200Y-131180100D02*
X129000000Y-132698300D01*
X130518200Y-116116500D02*
X130518200Y-131180100D01*
X129000000Y-114598300D02*
X130518200Y-116116500D01*
X129000000Y-98405600D02*
X129000000Y-114598300D01*
X132000000Y-95405600D02*
X129000000Y-98405600D01*
X132000000Y-91500000D02*
X132000000Y-95405600D01*
X129000000Y-143000000D02*
X129000000Y-132698300D01*
%TO.N,CO_AD9*%
X122000000Y-91500000D02*
X122000000Y-92476700D01*
X119989800Y-120215100D02*
X129909600Y-120215100D01*
X115761000Y-115986300D02*
X119989800Y-120215100D01*
X115592700Y-100476700D02*
X113424600Y-102644800D01*
X116449200Y-100476700D02*
X115592700Y-100476700D01*
X122000000Y-94925900D02*
X116449200Y-100476700D01*
X122000000Y-92476700D02*
X122000000Y-94925900D01*
%TO.N,CO_AD2*%
X113023800Y-132698300D02*
X114000000Y-132698300D01*
X112093500Y-131768000D02*
X113023800Y-132698300D01*
X114000000Y-143000000D02*
X114000000Y-132698300D01*
%TO.N,CO_AD7*%
X143000000Y-112840100D02*
X141604800Y-111444900D01*
X143000000Y-129264200D02*
X143000000Y-112840100D01*
X141500000Y-130764200D02*
X143000000Y-129264200D01*
X141500000Y-143000000D02*
X141500000Y-130764200D01*
%TO.N,CO_AD1*%
X111500000Y-143000000D02*
X111500000Y-132698300D01*
X110910800Y-132698300D02*
X109728700Y-131516200D01*
X111500000Y-132698300D02*
X110910800Y-132698300D01*
%TO.N,CA_AD6*%
X158000000Y-99500000D02*
X158000000Y-98523300D01*
X155000000Y-84662100D02*
X153192600Y-82854700D01*
X155000000Y-95889600D02*
X155000000Y-84662100D01*
X157633700Y-98523300D02*
X155000000Y-95889600D01*
X158000000Y-98523300D02*
X157633700Y-98523300D01*
%TO.N,Net-(U2-VIDEO_CLK)*%
X154000000Y-143000000D02*
X154000000Y-132698300D01*
X154000000Y-132698300D02*
X161828200Y-124870100D01*
%TO.N,Net-(U2-NMI_R4300)*%
X151500000Y-143000000D02*
X151500000Y-132698300D01*
X150603200Y-131801500D02*
X151500000Y-132698300D01*
X150603200Y-114702900D02*
X150603200Y-131801500D01*
X151000000Y-114306100D02*
X150603200Y-114702900D01*
X151000000Y-112605800D02*
X151000000Y-114306100D01*
X150844400Y-112450200D02*
X151000000Y-112605800D01*
X150844400Y-92483000D02*
X150844400Y-112450200D01*
X151000000Y-92327400D02*
X150844400Y-92483000D01*
X151000000Y-88820000D02*
X151000000Y-92327400D01*
X152590900Y-87229100D02*
X151000000Y-88820000D01*
X152590900Y-68158900D02*
X152590900Y-87229100D01*
X151500000Y-67068000D02*
X152590900Y-68158900D01*
X151500000Y-66500000D02*
X151500000Y-67068000D01*
%TO.N,Net-(U2-CIC_PIF)*%
X147017200Y-72017200D02*
X147017200Y-126172100D01*
X146500000Y-71500000D02*
X147017200Y-72017200D01*
%TO.N,CA_AD1*%
X115250000Y-70250000D02*
X111500000Y-66500000D01*
X115250000Y-71798600D02*
X115250000Y-70250000D01*
X123538300Y-80086900D02*
X115250000Y-71798600D01*
X123809400Y-80086900D02*
X123538300Y-80086900D01*
X128976700Y-85254200D02*
X123809400Y-80086900D01*
X128976700Y-91865300D02*
X128976700Y-85254200D01*
X130297500Y-93186100D02*
X128976700Y-91865300D01*
X130370700Y-93186100D02*
X130297500Y-93186100D01*
%TO.N,Net-(U2-NC-Pad39)*%
X136500000Y-143000000D02*
X136500000Y-132698300D01*
X137000000Y-132198300D02*
X136500000Y-132698300D01*
X137000000Y-81335400D02*
X137000000Y-132198300D01*
X137589900Y-80745500D02*
X137000000Y-81335400D01*
X137589900Y-67589900D02*
X137589900Y-80745500D01*
X136500000Y-66500000D02*
X137589900Y-67589900D01*
%TO.N,CA_AD5*%
X158000000Y-101500000D02*
X158000000Y-100523300D01*
X158404800Y-100523300D02*
X158000000Y-100523300D01*
X159615100Y-99313000D02*
X158404800Y-100523300D01*
X159615100Y-89771200D02*
X159615100Y-99313000D01*
X160066500Y-89319800D02*
X159615100Y-89771200D01*
X160066500Y-71057700D02*
X160066500Y-89319800D01*
X159188100Y-70179300D02*
X160066500Y-71057700D01*
X158636900Y-70179300D02*
X159188100Y-70179300D01*
X155063700Y-66606100D02*
X158636900Y-70179300D01*
X155063700Y-66036500D02*
X155063700Y-66606100D01*
X154027700Y-65000500D02*
X155063700Y-66036500D01*
X132999500Y-65000500D02*
X154027700Y-65000500D01*
X131500000Y-66500000D02*
X132999500Y-65000500D01*
%TO.N,CA_AD2*%
X115100300Y-67600300D02*
X114000000Y-66500000D01*
X119472600Y-67600300D02*
X115100300Y-67600300D01*
X120250000Y-66822900D02*
X119472600Y-67600300D01*
X120250000Y-66199100D02*
X120250000Y-66822900D01*
X121019000Y-65430100D02*
X120250000Y-66199100D01*
X124494200Y-65430100D02*
X121019000Y-65430100D01*
X125249800Y-66185700D02*
X124494200Y-65430100D01*
X125249800Y-66767400D02*
X125249800Y-66185700D01*
X126091900Y-67609500D02*
X125249800Y-66767400D01*
X131973400Y-67609500D02*
X126091900Y-67609500D01*
X132703600Y-66879300D02*
X131973400Y-67609500D01*
X132703600Y-66230100D02*
X132703600Y-66879300D01*
X133513500Y-65420200D02*
X132703600Y-66230100D01*
X139430000Y-65420200D02*
X133513500Y-65420200D01*
X140250000Y-66240200D02*
X139430000Y-65420200D01*
X140250000Y-81142900D02*
X140250000Y-66240200D01*
X141000000Y-81892900D02*
X140250000Y-81142900D01*
X141000000Y-92198400D02*
X141000000Y-81892900D01*
X142391600Y-93590000D02*
X141000000Y-92198400D01*
%TO.N,ALE_L*%
X121500000Y-143000000D02*
X121500000Y-132698300D01*
X121200000Y-132398300D02*
X121500000Y-132698300D01*
X121200000Y-132127200D02*
X121200000Y-132398300D01*
X107933600Y-81532900D02*
X116735900Y-90335200D01*
X107933600Y-66026000D02*
X107933600Y-81532900D01*
X108533400Y-65426200D02*
X107933600Y-66026000D01*
X111954800Y-65426200D02*
X108533400Y-65426200D01*
X112750000Y-66221400D02*
X111954800Y-65426200D01*
X112750000Y-66776800D02*
X112750000Y-66221400D01*
X114023200Y-68050000D02*
X112750000Y-66776800D01*
X119950000Y-68050000D02*
X114023200Y-68050000D01*
X121500000Y-66500000D02*
X119950000Y-68050000D01*
%TO.N,Net-(U2-JTAG_CLK)*%
X149000000Y-89161900D02*
X149000000Y-143000000D01*
X150063700Y-88098200D02*
X149000000Y-89161900D01*
X150063700Y-67563700D02*
X150063700Y-88098200D01*
X149000000Y-66500000D02*
X150063700Y-67563700D01*
%TO.N,CA_AD3*%
X160216800Y-92918600D02*
X160216800Y-90074100D01*
X164108200Y-96810000D02*
X160216800Y-92918600D01*
X164907800Y-96810000D02*
X164108200Y-96810000D01*
X165657300Y-97559500D02*
X164907800Y-96810000D01*
X165657300Y-98642500D02*
X165657300Y-97559500D01*
X158799800Y-105500000D02*
X165657300Y-98642500D01*
X158000000Y-105500000D02*
X158799800Y-105500000D01*
%TO.N,ALE_H*%
X126500000Y-143000000D02*
X126500000Y-132698300D01*
X118687600Y-123430200D02*
X118000000Y-123430200D01*
X126500000Y-131242600D02*
X118687600Y-123430200D01*
X126500000Y-132698300D02*
X126500000Y-131242600D01*
X125023300Y-105500000D02*
X118000000Y-112523300D01*
X125023300Y-83392500D02*
X125023300Y-105500000D01*
X125359700Y-83056100D02*
X125023300Y-83392500D01*
X118000000Y-113500000D02*
X118000000Y-112523300D01*
%TO.N,CA_AD7*%
X158000000Y-97500000D02*
X158000000Y-96523300D01*
X142580000Y-65420000D02*
X141500000Y-66500000D01*
X151924500Y-65420000D02*
X142580000Y-65420000D01*
X152632300Y-66127800D02*
X151924500Y-65420000D01*
X152632300Y-67545700D02*
X152632300Y-66127800D01*
X155425200Y-70338600D02*
X152632300Y-67545700D01*
X155425200Y-88111700D02*
X155425200Y-70338600D01*
X157016500Y-89703000D02*
X155425200Y-88111700D01*
X157016500Y-95944600D02*
X157016500Y-89703000D01*
X157595200Y-96523300D02*
X157016500Y-95944600D01*
X158000000Y-96523300D02*
X157595200Y-96523300D01*
%TO.N,Net-(U2-R_AUDIO)*%
X161500000Y-143000000D02*
X161500000Y-132698300D01*
X162165800Y-132698300D02*
X162890100Y-131974000D01*
X161500000Y-132698300D02*
X162165800Y-132698300D01*
%TO.N,READ*%
X124000000Y-113500000D02*
X124000000Y-112523300D01*
X126547200Y-109976100D02*
X124000000Y-112523300D01*
X126547200Y-100007600D02*
X126547200Y-109976100D01*
X131000100Y-95554700D02*
X126547200Y-100007600D01*
X131000100Y-76000100D02*
X131000100Y-95554700D01*
X126500000Y-71500000D02*
X131000100Y-76000100D01*
%TO.N,CA_AD0*%
X112750000Y-70250000D02*
X109000000Y-66500000D01*
X112750000Y-71754300D02*
X112750000Y-70250000D01*
X121484300Y-80488600D02*
X112750000Y-71754300D01*
X123528900Y-80488600D02*
X121484300Y-80488600D01*
X125494700Y-82454400D02*
X123528900Y-80488600D01*
X125608900Y-82454400D02*
X125494700Y-82454400D01*
X125961400Y-82806900D02*
X125608900Y-82454400D01*
X125961400Y-82924000D02*
X125961400Y-82806900D01*
X127000000Y-83962600D02*
X125961400Y-82924000D01*
X127000000Y-91927000D02*
X127000000Y-83962600D01*
X130077900Y-95004900D02*
X127000000Y-91927000D01*
X130370700Y-95004900D02*
X130077900Y-95004900D01*
%TO.N,+3V3*%
X124000000Y-132472500D02*
X124000000Y-143000000D01*
X124000000Y-130944500D02*
X124000000Y-132472500D01*
X124675500Y-130269000D02*
X124000000Y-130944500D01*
X144000000Y-143000000D02*
X144000000Y-132698300D01*
X144000000Y-132698300D02*
X144000000Y-131149900D01*
X142999700Y-97820800D02*
X143673500Y-98494600D01*
X142999700Y-72500300D02*
X142999700Y-97820800D01*
X144000000Y-71500000D02*
X142999700Y-72500300D01*
%TO.N,Net-(U2-NC-Pad13)*%
X134984800Y-132371700D02*
X135113600Y-132500500D01*
X134984800Y-72484800D02*
X134984800Y-132371700D01*
X134000000Y-71500000D02*
X134984800Y-72484800D01*
%TO.N,Net-(U2-NC-Pad38)*%
X134000000Y-143000000D02*
X134000000Y-132698300D01*
X132903600Y-67596400D02*
X134000000Y-66500000D01*
X132903600Y-81730000D02*
X132903600Y-67596400D01*
X133018200Y-81844600D02*
X132903600Y-81730000D01*
X133018200Y-131716500D02*
X133018200Y-81844600D01*
X134000000Y-132698300D02*
X133018200Y-131716500D01*
%TO.N,GND*%
X159000000Y-71500000D02*
X156500000Y-71500000D01*
X106500000Y-71500000D02*
X104000000Y-71500000D01*
X159000000Y-143000000D02*
X159000000Y-132698300D01*
X156500000Y-143000000D02*
X156500000Y-132698300D01*
X104000000Y-143000000D02*
X104000000Y-140424500D01*
X104000000Y-66500000D02*
X106500000Y-66500000D01*
X106500000Y-143000000D02*
X106500000Y-132698300D01*
X116500000Y-143000000D02*
X116500000Y-132484300D01*
X159000000Y-66500000D02*
X156500000Y-66500000D01*
X157092900Y-132698300D02*
X157092900Y-132497100D01*
X159000000Y-132698300D02*
X157092900Y-132698300D01*
X157092900Y-132698300D02*
X156500000Y-132698300D01*
X118401200Y-64598800D02*
X116500000Y-66500000D01*
X154598800Y-64598800D02*
X118401200Y-64598800D01*
X156500000Y-66500000D02*
X154598800Y-64598800D01*
X153208800Y-121160000D02*
X162477600Y-121160000D01*
X151243100Y-119194300D02*
X153208800Y-121160000D01*
X162477600Y-121160000D02*
X164500000Y-121160000D01*
X162477600Y-121160000D02*
X162477600Y-130823700D01*
X162594100Y-130823700D02*
X162477600Y-130823700D01*
X164000000Y-132229600D02*
X162594100Y-130823700D01*
X164000000Y-143000000D02*
X164000000Y-132229600D01*
X160874600Y-130823700D02*
X159000000Y-132698300D01*
X162477600Y-130823700D02*
X160874600Y-130823700D01*
X105845600Y-132698300D02*
X105845600Y-132486500D01*
X106500000Y-132698300D02*
X105845600Y-132698300D01*
X104000000Y-134134800D02*
X104000000Y-140424500D01*
X105436500Y-132698300D02*
X104000000Y-134134800D01*
X105845600Y-132698300D02*
X105436500Y-132698300D01*
X114579200Y-132484300D02*
X116500000Y-132484300D01*
X113009400Y-130914500D02*
X114579200Y-132484300D01*
X108283800Y-130914500D02*
X113009400Y-130914500D01*
X106500000Y-132698300D02*
X108283800Y-130914500D01*
%TO.N,Net-(U2-NC-Pad14)*%
X139000000Y-76755100D02*
X138203000Y-75958100D01*
X139000000Y-92389100D02*
X139000000Y-76755100D01*
X138859800Y-92529300D02*
X139000000Y-92389100D01*
X138859800Y-109962700D02*
X138859800Y-92529300D01*
X139000000Y-110102900D02*
X138859800Y-109962700D01*
X139000000Y-126879600D02*
X139000000Y-110102900D01*
X137722000Y-128157600D02*
X139000000Y-126879600D01*
%TO.N,Net-(U2-PIF_CIC)*%
X145250000Y-67750000D02*
X146500000Y-66500000D01*
X145250000Y-90868700D02*
X145250000Y-67750000D01*
X145023300Y-91095400D02*
X145250000Y-90868700D01*
X145023300Y-131221600D02*
X145023300Y-91095400D01*
X146500000Y-132698300D02*
X145023300Y-131221600D01*
X146500000Y-143000000D02*
X146500000Y-132698300D01*
%TD*%
M02*
