M48
; DRILL file KiCad 10.0.1 date 2026-04-17T16:01:15
; FORMAT={-:-/ absolute / metric / decimal}
; #@! TF.CreationDate,2026-04-17T16:01:15-05:00
; #@! TF.GenerationSoftware,Kicad,Pcbnew,10.0.1
; #@! TF.FileFunction,Plated,1,2,PTH
FMAT,2
METRIC
; #@! TA.AperFunction,Plated,PTH,ViaDrill
T1C0.300
; #@! TA.AperFunction,Plated,PTH,ComponentDrill
T2C0.762
; #@! TA.AperFunction,Plated,PTH,ComponentDrill
T3C1.000
%
G90
G05
T1
X131.874Y-75.772
X131.875Y-108.172
X132.309Y-69.881
X132.309Y-131.736
X135.126Y-78.864
X135.263Y-132.204
X137.037Y-64.372
X137.114Y-114.063
X137.42Y-53.383
X137.577Y-111.118
X138.178Y-54.318
X138.392Y-64.633
X138.555Y-133.366
X138.956Y-101.179
X139.325Y-78.32
X139.474Y-132.964
X139.497Y-100.568
X140.554Y-79.496
X141.32Y-60.697
X141.515Y-81.491
X142.252Y-54.623
X142.954Y-65.402
X143.087Y-110.331
X143.137Y-50.972
X143.195Y-80.982
X143.857Y-52.592
X144.365Y-76.548
X145.294Y-81.26
X145.578Y-132.18
X146.251Y-133.635
X146.547Y-73.727
X147.441Y-132.286
X148.14Y-56.403
X148.158Y-132.953
X148.172Y-69.803
X148.247Y-76.622
X148.957Y-124.9
X149.525Y-75.894
X150.091Y-105.801
X150.148Y-77.927
X150.932Y-131.243
X151.852Y-74.581
X152.086Y-81.647
X152.493Y-125.845
X152.553Y-95.422
X152.609Y-115.243
X154.246Y-106.918
X154.756Y-87.715
X154.824Y-132.438
X155.212Y-108.171
X156.019Y-60.226
X156.317Y-133.542
X156.954Y-96.743
X156.959Y-132.135
X157.05Y-73.957
X157.986Y-74.943
X158.153Y-114.422
X158.451Y-73.515
X160.34Y-96.507
X161.136Y-75.085
X161.167Y-133.504
X161.882Y-60.98
X162.298Y-78.46
X162.448Y-95.604
X163.511Y-114.532
X163.511Y-133.086
X163.629Y-76.889
X163.911Y-100.285
X166.896Y-61.115
X167.537Y-88.34
X167.713Y-72.467
X168.75Y-133.605
X169.204Y-87.554
X169.834Y-64.38
X170.401Y-125.845
X170.723Y-63.672
X170.776Y-81.5
X172.053Y-130.315
X172.884Y-78.174
X173.156Y-96.39
X174.73Y-99.336
X175.153Y-66.935
X175.675Y-64.6
X176.58Y-123.241
X176.897Y-82.049
X176.933Y-73.957
X176.948Y-77.753
X177.034Y-55.368
X177.724Y-56.081
X177.93Y-73.768
X178.511Y-76.92
X179.287Y-57.002
X179.558Y-132.395
X179.669Y-76.215
X180.406Y-73.738
X180.651Y-50.853
X181.796Y-51.541
X182.007Y-79.871
X182.694Y-131.741
X182.819Y-60.356
X184.595Y-60.926
X184.647Y-70.503
X184.833Y-125.003
X184.84Y-108.116
X184.915Y-123.305
X185.54Y-52.581
X185.876Y-77.956
X186.142Y-133.511
X186.185Y-61.028
X186.212Y-122.248
X186.477Y-74.16
X187.273Y-70.207
X187.526Y-52.426
X187.617Y-128.69
X187.812Y-105.227
X188.795Y-46.526
X189.195Y-134.805
X189.218Y-131.966
T2
X127.5Y-44.5
X127.5Y-49.5
X130.0Y-44.5
X130.0Y-49.5
X132.5Y-44.5
X132.5Y-49.5
X135.0Y-44.5
X135.0Y-49.5
X137.5Y-44.5
X137.5Y-49.5
X140.0Y-44.5
X140.0Y-49.5
X142.5Y-44.5
X142.5Y-49.5
X145.0Y-44.5
X145.0Y-49.5
X147.5Y-44.5
X147.5Y-49.5
X150.0Y-44.5
X150.0Y-49.5
X152.5Y-44.5
X152.5Y-49.5
X155.0Y-44.5
X155.0Y-49.5
X157.5Y-44.5
X157.5Y-49.5
X160.0Y-44.5
X160.0Y-49.5
X162.5Y-44.5
X162.5Y-49.5
X165.0Y-44.5
X165.0Y-49.5
X167.5Y-44.5
X167.5Y-49.5
X170.0Y-44.5
X170.0Y-49.5
X172.5Y-44.5
X172.5Y-49.5
X175.0Y-44.5
X175.0Y-49.5
X177.5Y-44.5
X177.5Y-49.5
X180.0Y-44.5
X180.0Y-49.5
X182.5Y-44.5
X182.5Y-49.5
X185.0Y-44.5
X185.0Y-49.5
X187.5Y-44.5
X187.5Y-49.5
T3
X134.56Y-84.72
X134.56Y-102.5
X137.1Y-84.72
X137.1Y-102.5
X139.64Y-84.72
X139.64Y-102.5
X142.18Y-84.72
X142.18Y-102.5
X144.72Y-84.72
X144.72Y-102.5
X147.26Y-84.72
X147.26Y-102.5
X149.8Y-84.72
X149.8Y-102.5
X152.34Y-84.72
X152.34Y-102.5
X154.88Y-84.72
X154.88Y-102.5
X156.5Y-67.725
X156.5Y-70.265
X157.42Y-84.72
X157.42Y-102.5
X159.96Y-84.72
X159.96Y-102.5
X161.5Y-65.225
X161.5Y-67.765
X161.5Y-70.305
X162.5Y-84.72
X162.5Y-102.5
X165.04Y-84.72
X165.04Y-102.5
X167.58Y-84.72
X167.58Y-102.5
X170.12Y-84.72
X170.12Y-102.5
X172.66Y-84.72
X172.66Y-102.5
X175.2Y-84.72
X175.2Y-102.5
X177.74Y-84.72
X177.74Y-102.5
X180.28Y-84.72
X180.28Y-102.5
X182.82Y-84.72
X182.82Y-102.5
M30
