%TF.GenerationSoftware,KiCad,Pcbnew,8.0.6*%
%TF.CreationDate,2024-10-28T20:20:35-05:00*%
%TF.ProjectId,n64_gamecat_rp2350b,6e36345f-6761-46d6-9563-61745f727032,rev?*%
%TF.SameCoordinates,Original*%
%TF.FileFunction,Copper,L2,Bot*%
%TF.FilePolarity,Positive*%
%FSLAX46Y46*%
G04 Gerber Fmt 4.6, Leading zero omitted, Abs format (unit mm)*
G04 Created by KiCad (PCBNEW 8.0.6) date 2024-10-28 20:20:35*
%MOMM*%
%LPD*%
G01*
G04 APERTURE LIST*
%TA.AperFunction,SMDPad,CuDef*%
%ADD10R,1.800000X20.000000*%
%TD*%
%TA.AperFunction,ComponentPad*%
%ADD11C,1.350000*%
%TD*%
%TA.AperFunction,ComponentPad*%
%ADD12O,1.350000X1.350000*%
%TD*%
%TA.AperFunction,ComponentPad*%
%ADD13C,1.524000*%
%TD*%
%TA.AperFunction,ViaPad*%
%ADD14C,0.600000*%
%TD*%
%TA.AperFunction,Conductor*%
%ADD15C,0.200000*%
%TD*%
G04 APERTURE END LIST*
D10*
%TO.P,U3,26,GND*%
%TO.N,GND*%
X104000000Y-143000000D03*
%TO.P,U3,27,GND*%
X106500000Y-143000000D03*
%TO.P,U3,28,AD0*%
%TO.N,CO_AD0*%
X109000000Y-143000000D03*
%TO.P,U3,29,AD1*%
%TO.N,CO_AD1*%
X111500000Y-143000000D03*
%TO.P,U3,30,AD2*%
%TO.N,CO_AD2*%
X114000000Y-143000000D03*
%TO.P,U3,31,GND*%
%TO.N,GND*%
X116500000Y-143000000D03*
%TO.P,U3,32,AD3*%
%TO.N,CO_AD3*%
X119000000Y-143000000D03*
%TO.P,U3,33,ALE_L*%
%TO.N,ALE_L*%
X121500000Y-143000000D03*
%TO.P,U3,34,VCC*%
%TO.N,+3V3*%
X124000000Y-143000000D03*
%TO.P,U3,35,ALE_H*%
%TO.N,ALE_H*%
X126500000Y-143000000D03*
%TO.P,U3,36,AD4*%
%TO.N,CO_AD4*%
X129000000Y-143000000D03*
%TO.P,U3,37,AD5*%
%TO.N,CO_AD5*%
X131500000Y-143000000D03*
%TO.P,U3,38,NC*%
%TO.N,Net-(U2-NC-Pad38)*%
X134000000Y-143000000D03*
%TO.P,U3,39,NC*%
%TO.N,Net-(U2-NC-Pad39)*%
X136500000Y-143000000D03*
%TO.P,U3,40,AD6*%
%TO.N,CO_AD6*%
X139000000Y-143000000D03*
%TO.P,U3,41,AD7*%
%TO.N,CO_AD7*%
X141500000Y-143000000D03*
%TO.P,U3,42,VCC*%
%TO.N,+3V3*%
X144000000Y-143000000D03*
%TO.P,U3,43,PIF_CIC*%
%TO.N,Net-(U2-PIF_CIC)*%
X146500000Y-143000000D03*
%TO.P,U3,44,JTAG_CLK*%
%TO.N,Net-(U2-JTAG_CLK)*%
X149000000Y-143000000D03*
%TO.P,U3,45,NMI_R4300*%
%TO.N,Net-(U2-NMI_R4300)*%
X151500000Y-143000000D03*
%TO.P,U3,46,VIDEO_CLK*%
%TO.N,Net-(U2-VIDEO_CLK)*%
X154000000Y-143000000D03*
%TO.P,U3,47,GND*%
%TO.N,GND*%
X156500000Y-143000000D03*
%TO.P,U3,48,GND*%
X159000000Y-143000000D03*
%TO.P,U3,49,R_AUDIO*%
%TO.N,Net-(U2-R_AUDIO)*%
X161500000Y-143000000D03*
%TO.P,U3,50,GND*%
%TO.N,GND*%
X164000000Y-143000000D03*
%TD*%
D11*
%TO.P,U4,1,GPIO0*%
%TO.N,CO_AD4*%
X155000000Y-111500000D03*
D12*
%TO.P,U4,2,GPIO1*%
%TO.N,CO_AD11*%
X155000000Y-109500000D03*
%TO.P,U4,3,GPIO2*%
%TO.N,CO_AD3*%
X155000000Y-107500000D03*
%TO.P,U4,4,GPIO3*%
%TO.N,CO_AD12*%
X155000000Y-105500000D03*
%TO.P,U4,5,GPIO4*%
%TO.N,CO_AD2*%
X155000000Y-103500000D03*
%TO.P,U4,6,GPIO5*%
%TO.N,CO_AD13*%
X155000000Y-101500000D03*
%TO.P,U4,7,GPIO6*%
%TO.N,CO_AD1*%
X155000000Y-99500000D03*
%TO.P,U4,8,GPIO7*%
%TO.N,CO_AD14*%
X155000000Y-97500000D03*
%TO.P,U4,9,GPIO8*%
%TO.N,CO_AD0*%
X155000000Y-95500000D03*
%TO.P,U4,10,GPIO9*%
%TO.N,CO_AD15*%
X155000000Y-93500000D03*
%TO.P,U4,11,GPIO10*%
%TO.N,unconnected-(U4-GPIO10-Pad11)*%
X153000000Y-91500000D03*
%TO.P,U4,12,GPIO11*%
%TO.N,unconnected-(U4-GPIO11-Pad12)*%
X151000000Y-91500000D03*
%TO.P,U4,13,GPIO12*%
%TO.N,unconnected-(U4-GPIO12-Pad13)*%
X149000000Y-91500000D03*
%TO.P,U4,14,GPIO13*%
%TO.N,unconnected-(U4-GPIO13-Pad14)*%
X147000000Y-91500000D03*
%TO.P,U4,15,GPIO14*%
%TO.N,CA_AD7*%
X145000000Y-91500000D03*
%TO.P,U4,16,GPIO15*%
%TO.N,CA_AD8*%
X143000000Y-91500000D03*
%TO.P,U4,17,GPIO16*%
%TO.N,CA_AD6*%
X141000000Y-91500000D03*
%TO.P,U4,18,GPIO17*%
%TO.N,CA_AD9*%
X139000000Y-91500000D03*
%TO.P,U4,19,GPIO18*%
%TO.N,CA_AD5*%
X137000000Y-91500000D03*
%TO.P,U4,20,GPIO19*%
%TO.N,CA_AD10*%
X135000000Y-91500000D03*
%TO.P,U4,21,GPIO20*%
%TO.N,CA_AD4*%
X133000000Y-91500000D03*
%TO.P,U4,22,GPIO21*%
%TO.N,CA_AD11*%
X131000000Y-91500000D03*
%TO.P,U4,23,GPIO22*%
%TO.N,CA_AD3*%
X129000000Y-91500000D03*
%TO.P,U4,24,GPIO23*%
%TO.N,CA_AD12*%
X127000000Y-91500000D03*
%TO.P,U4,25,GPIO24*%
%TO.N,CA_AD2*%
X125000000Y-91500000D03*
%TO.P,U4,26,GPIO25*%
%TO.N,CA_AD13*%
X123000000Y-91500000D03*
%TO.P,U4,27,GPIO26*%
%TO.N,CA_AD1*%
X121000000Y-91500000D03*
%TO.P,U4,28,GPIO27*%
%TO.N,CA_AD14*%
X119000000Y-91500000D03*
%TO.P,U4,29,GPIO28*%
%TO.N,CA_AD0*%
X117000000Y-91500000D03*
%TO.P,U4,30,GPIO29*%
%TO.N,CA_AD15*%
X115000000Y-91500000D03*
%TO.P,U4,31,GPIO30*%
%TO.N,CO_AD7*%
X113000000Y-93500000D03*
%TO.P,U4,32,GPIO31*%
%TO.N,CO_AD8*%
X113000000Y-95500000D03*
%TO.P,U4,33,GPIO32*%
%TO.N,CO_AD6*%
X113000000Y-97500000D03*
%TO.P,U4,34,GPIO33*%
%TO.N,CO_AD9*%
X113000000Y-99500000D03*
%TO.P,U4,35,GPIO34*%
%TO.N,CO_AD5*%
X113000000Y-101500000D03*
%TO.P,U4,36,GPIO35*%
%TO.N,CO_AD10*%
X113000000Y-103500000D03*
%TO.P,U4,37,GPIO36*%
%TO.N,ALE_H*%
X113000000Y-105500000D03*
%TO.P,U4,38,GPIO37*%
%TO.N,ALE_L*%
X113000000Y-107500000D03*
%TO.P,U4,39,GPIO38*%
%TO.N,WRITE*%
X113000000Y-109500000D03*
%TO.P,U4,40,GPIO39*%
%TO.N,READ*%
X113000000Y-111500000D03*
%TO.P,U4,41,GPIO40*%
%TO.N,unconnected-(U4-GPIO40-Pad41)*%
X115000000Y-113500000D03*
%TO.P,U4,42,GPIO41*%
%TO.N,unconnected-(U4-GPIO41-Pad42)*%
X117000000Y-113500000D03*
%TO.P,U4,43,GPIO42*%
%TO.N,unconnected-(U4-GPIO42-Pad43)*%
X119000000Y-113500000D03*
%TO.P,U4,44,GPIO43*%
%TO.N,unconnected-(U4-GPIO43-Pad44)*%
X121000000Y-113500000D03*
%TO.P,U4,45,GPIO44*%
%TO.N,unconnected-(U4-GPIO44-Pad45)*%
X123000000Y-113500000D03*
%TO.P,U4,46,GPIO45*%
%TO.N,unconnected-(U4-GPIO45-Pad46)*%
X125000000Y-113500000D03*
%TO.P,U4,47,GPIO46*%
%TO.N,unconnected-(U4-GPIO46-Pad47)*%
X127000000Y-113500000D03*
%TO.P,U4,48,GPIO47*%
%TO.N,unconnected-(U4-GPIO47-Pad48)*%
X129000000Y-113500000D03*
%TO.P,U4,49,GPIO48*%
%TO.N,unconnected-(U4-GPIO48-Pad49)*%
X131000000Y-113500000D03*
%TO.P,U4,50,GPIO49*%
%TO.N,unconnected-(U4-GPIO49-Pad50)*%
X133000000Y-113500000D03*
%TO.P,U4,51,GPIO50*%
%TO.N,unconnected-(U4-GPIO50-Pad51)*%
X135000000Y-113500000D03*
%TO.P,U4,52,GPIO51*%
%TO.N,unconnected-(U4-GPIO51-Pad52)*%
X137000000Y-113500000D03*
%TO.P,U4,53,GPIO52*%
%TO.N,unconnected-(U4-GPIO52-Pad53)*%
X139000000Y-113500000D03*
%TO.P,U4,54,GPIO53*%
%TO.N,unconnected-(U4-GPIO53-Pad54)*%
X141000000Y-113500000D03*
%TO.P,U4,55,GPIO54*%
%TO.N,unconnected-(U4-GPIO54-Pad55)*%
X143000000Y-113500000D03*
%TO.P,U4,56,GPIO55*%
%TO.N,unconnected-(U4-GPIO55-Pad56)*%
X145000000Y-113500000D03*
%TO.P,U4,57,GPIO56*%
%TO.N,unconnected-(U4-GPIO56-Pad57)*%
X147000000Y-113500000D03*
%TO.P,U4,58,GPIO57*%
%TO.N,unconnected-(U4-GPIO57-Pad58)*%
X149000000Y-113500000D03*
%TO.P,U4,59,GPIO58*%
%TO.N,unconnected-(U4-GPIO58-Pad59)*%
X151000000Y-113500000D03*
%TO.P,U4,60,GPIO59*%
%TO.N,unconnected-(U4-GPIO59-Pad60)*%
X153000000Y-113500000D03*
%TD*%
D13*
%TO.P,U2,1,GND*%
%TO.N,GND*%
X104000000Y-71500000D03*
%TO.P,U2,2,GND*%
X106500000Y-71500000D03*
%TO.P,U2,3,AD15*%
%TO.N,CA_AD15*%
X109000000Y-71500000D03*
%TO.P,U2,4,AD14*%
%TO.N,CA_AD14*%
X111500000Y-71500000D03*
%TO.P,U2,5,AD13*%
%TO.N,CA_AD13*%
X114000000Y-71500000D03*
%TO.P,U2,6,GND*%
%TO.N,GND*%
X116500000Y-71500000D03*
%TO.P,U2,7,AD12*%
%TO.N,CA_AD12*%
X119000000Y-71500000D03*
%TO.P,U2,8,WRITE*%
%TO.N,WRITE*%
X121500000Y-71500000D03*
%TO.P,U2,9,VCC*%
%TO.N,+3V3*%
X124000000Y-71500000D03*
%TO.P,U2,10,READ*%
%TO.N,READ*%
X126500000Y-71500000D03*
%TO.P,U2,11,AD11*%
%TO.N,CA_AD11*%
X129000000Y-71500000D03*
%TO.P,U2,12,AD10*%
%TO.N,CA_AD10*%
X131500000Y-71500000D03*
%TO.P,U2,13,NC*%
%TO.N,Net-(U2-NC-Pad13)*%
X134000000Y-71500000D03*
%TO.P,U2,14,NC*%
%TO.N,Net-(U2-NC-Pad14)*%
X136500000Y-71500000D03*
%TO.P,U2,15,AD9*%
%TO.N,CA_AD9*%
X139000000Y-71500000D03*
%TO.P,U2,16,AD8*%
%TO.N,CA_AD8*%
X141500000Y-71500000D03*
%TO.P,U2,17,VCC*%
%TO.N,+3V3*%
X144000000Y-71500000D03*
%TO.P,U2,18,CIC_PIF*%
%TO.N,Net-(U2-CIC_PIF)*%
X146500000Y-71500000D03*
%TO.P,U2,19,CLK_PIF*%
%TO.N,Net-(U2-CLK_PIF)*%
X149000000Y-71500000D03*
%TO.P,U2,20,COLD_RST*%
%TO.N,Net-(U2-COLD_RST)*%
X151500000Y-71500000D03*
%TO.P,U2,21,S_DAT*%
%TO.N,Net-(U2-S_DAT)*%
X154000000Y-71500000D03*
%TO.P,U2,22,GND*%
%TO.N,GND*%
X156500000Y-71500000D03*
%TO.P,U2,23,GND*%
X159000000Y-71500000D03*
%TO.P,U2,24,LAUDIO*%
%TO.N,Net-(U2-LAUDIO)*%
X161500000Y-71500000D03*
%TO.P,U2,25,GND*%
%TO.N,GND*%
X164000000Y-71500000D03*
%TO.P,U2,26,GND*%
X104000000Y-66500000D03*
%TO.P,U2,27,GND*%
X106500000Y-66500000D03*
%TO.P,U2,28,AD0*%
%TO.N,CA_AD0*%
X109000000Y-66500000D03*
%TO.P,U2,29,AD1*%
%TO.N,CA_AD1*%
X111500000Y-66500000D03*
%TO.P,U2,30,AD2*%
%TO.N,CA_AD2*%
X114000000Y-66500000D03*
%TO.P,U2,31,GND*%
%TO.N,GND*%
X116500000Y-66500000D03*
%TO.P,U2,32,AD3*%
%TO.N,CA_AD3*%
X119000000Y-66500000D03*
%TO.P,U2,33,ALE_L*%
%TO.N,ALE_L*%
X121500000Y-66500000D03*
%TO.P,U2,34,VCC*%
%TO.N,+3V3*%
X124000000Y-66500000D03*
%TO.P,U2,35,ALE_H*%
%TO.N,ALE_H*%
X126500000Y-66500000D03*
%TO.P,U2,36,AD4*%
%TO.N,CA_AD4*%
X129000000Y-66500000D03*
%TO.P,U2,37,AD5*%
%TO.N,CA_AD5*%
X131500000Y-66500000D03*
%TO.P,U2,38,NC*%
%TO.N,Net-(U2-NC-Pad38)*%
X134000000Y-66500000D03*
%TO.P,U2,39,NC*%
%TO.N,Net-(U2-NC-Pad39)*%
X136500000Y-66500000D03*
%TO.P,U2,40,AD6*%
%TO.N,CA_AD6*%
X139000000Y-66500000D03*
%TO.P,U2,41,AD7*%
%TO.N,CA_AD7*%
X141500000Y-66500000D03*
%TO.P,U2,42,VCC*%
%TO.N,+3V3*%
X144000000Y-66500000D03*
%TO.P,U2,43,PIF_CIC*%
%TO.N,Net-(U2-PIF_CIC)*%
X146500000Y-66500000D03*
%TO.P,U2,44,JTAG_CLK*%
%TO.N,Net-(U2-JTAG_CLK)*%
X149000000Y-66500000D03*
%TO.P,U2,45,NMI_R4300*%
%TO.N,Net-(U2-NMI_R4300)*%
X151500000Y-66500000D03*
%TO.P,U2,46,VIDEO_CLK*%
%TO.N,Net-(U2-VIDEO_CLK)*%
X154000000Y-66500000D03*
%TO.P,U2,47,GND*%
%TO.N,GND*%
X156500000Y-66500000D03*
%TO.P,U2,48,GND*%
X159000000Y-66500000D03*
%TO.P,U2,49,R_AUDIO*%
%TO.N,Net-(U2-R_AUDIO)*%
X161500000Y-66500000D03*
%TO.P,U2,50,GND*%
%TO.N,GND*%
X164000000Y-66500000D03*
%TD*%
D14*
%TO.N,CO_AD15*%
X123389000Y-111864000D03*
X110237000Y-131423000D03*
%TO.N,CO_AD14*%
X132837900Y-112212200D03*
X111841700Y-132093000D03*
%TO.N,CO_AD13*%
X135756000Y-111775700D03*
X114140100Y-130804800D03*
%TO.N,CO_AD12*%
X135617400Y-122627100D03*
X119728500Y-132497700D03*
%TO.N,CO_AD3*%
X138024800Y-120073900D03*
%TO.N,CO_AD6*%
X114927200Y-98806600D03*
X137890800Y-132364400D03*
%TO.N,CO_AD5*%
X121403300Y-118183300D03*
X131947100Y-129063400D03*
%TO.N,CO_AD0*%
X132147900Y-106904300D03*
%TO.N,CO_AD11*%
X139410000Y-119573600D03*
X130635900Y-129503100D03*
%TO.N,CO_AD8*%
X125583200Y-116495300D03*
%TO.N,CO_AD10*%
X121379000Y-119382900D03*
%TO.N,CO_AD4*%
X139618500Y-118640500D03*
%TO.N,CO_AD9*%
X117560800Y-117486100D03*
%TO.N,CO_AD2*%
X139375400Y-111903500D03*
%TO.N,CO_AD7*%
X116087500Y-116914500D03*
X137606700Y-129703900D03*
%TO.N,CO_AD1*%
X134948800Y-112231600D03*
%TO.N,ALE_L*%
X112509800Y-113214600D03*
X121355300Y-131236000D03*
%TO.N,ALE_H*%
X120030900Y-118234400D03*
X126598400Y-130749500D03*
%TO.N,Net-(U2-R_AUDIO)*%
X162467000Y-132082200D03*
%TO.N,+3V3*%
X124000000Y-132471100D03*
X144000000Y-132489600D03*
X134201800Y-124022500D03*
%TO.N,Net-(U2-NC-Pad13)*%
X125421900Y-119028800D03*
%TO.N,GND*%
X159000000Y-131162400D03*
X115780600Y-132048600D03*
X165695000Y-137125000D03*
X105845600Y-132485900D03*
%TO.N,Net-(U2-NC-Pad14)*%
X129787000Y-123394100D03*
%TO.N,Net-(U2-PIF_CIC)*%
X145477800Y-81396100D03*
%TD*%
D15*
%TO.N,CA_AD13*%
X123000000Y-91500000D02*
X123000000Y-90523300D01*
X114000000Y-81523300D02*
X114000000Y-71500000D01*
X123000000Y-90523300D02*
X114000000Y-81523300D01*
%TO.N,CA_AD12*%
X119000000Y-82523300D02*
X127000000Y-90523300D01*
X119000000Y-71500000D02*
X119000000Y-82523300D01*
X127000000Y-91500000D02*
X127000000Y-90523300D01*
%TO.N,CO_AD15*%
X122023300Y-119636700D02*
X110237000Y-131423000D01*
X122023300Y-113053900D02*
X122023300Y-119636700D01*
X123213200Y-111864000D02*
X122023300Y-113053900D01*
X123389000Y-111864000D02*
X123213200Y-111864000D01*
%TO.N,CO_AD14*%
X132000000Y-113050100D02*
X132837900Y-112212200D01*
X132000000Y-113917200D02*
X132000000Y-113050100D01*
X116923800Y-128993400D02*
X132000000Y-113917200D01*
X116848700Y-128993400D02*
X116923800Y-128993400D01*
X114265300Y-131576800D02*
X116848700Y-128993400D01*
X112357900Y-131576800D02*
X114265300Y-131576800D01*
X111841700Y-132093000D02*
X112357900Y-131576800D01*
%TO.N,CA_AD15*%
X109000000Y-84523300D02*
X115000000Y-90523300D01*
X109000000Y-71500000D02*
X109000000Y-84523300D01*
X115000000Y-91500000D02*
X115000000Y-90523300D01*
%TO.N,CO_AD13*%
X135583000Y-111602700D02*
X135756000Y-111775700D01*
X131498000Y-111602700D02*
X135583000Y-111602700D01*
X129976700Y-113124000D02*
X131498000Y-111602700D01*
X129976700Y-115325600D02*
X129976700Y-113124000D01*
X125671700Y-119630600D02*
X129976700Y-115325600D01*
X125314300Y-119630600D02*
X125671700Y-119630600D01*
X114140100Y-130804800D02*
X125314300Y-119630600D01*
%TO.N,CA_AD14*%
X119000000Y-91500000D02*
X119000000Y-90523300D01*
X111500000Y-83023300D02*
X111500000Y-71500000D01*
X119000000Y-90523300D02*
X111500000Y-83023300D01*
%TO.N,CO_AD12*%
X132682500Y-122627100D02*
X135617400Y-122627100D01*
X125031400Y-130278200D02*
X132682500Y-122627100D01*
X121420100Y-130278200D02*
X125031400Y-130278200D01*
X120250000Y-131448300D02*
X121420100Y-130278200D01*
X120250000Y-131976200D02*
X120250000Y-131448300D01*
X119728500Y-132497700D02*
X120250000Y-131976200D01*
%TO.N,CO_AD3*%
X119000000Y-143000000D02*
X119000000Y-132698300D01*
X134526400Y-120073900D02*
X138024800Y-120073900D01*
X125366800Y-129233500D02*
X134526400Y-120073900D01*
X121896800Y-129233500D02*
X125366800Y-129233500D01*
X119000000Y-132130300D02*
X121896800Y-129233500D01*
X119000000Y-132698300D02*
X119000000Y-132130300D01*
%TO.N,CO_AD6*%
X114306600Y-98806600D02*
X114927200Y-98806600D01*
X113000000Y-97500000D02*
X114306600Y-98806600D01*
X138224700Y-132698300D02*
X139000000Y-132698300D01*
X137890800Y-132364400D02*
X138224700Y-132698300D01*
X139000000Y-143000000D02*
X139000000Y-132698300D01*
%TO.N,CO_AD5*%
X131500000Y-143000000D02*
X131500000Y-132698300D01*
X113000000Y-101500000D02*
X113000000Y-102476700D01*
X131947100Y-132251200D02*
X131947100Y-129063400D01*
X131500000Y-132698300D02*
X131947100Y-132251200D01*
X120000000Y-116780000D02*
X121403300Y-118183300D01*
X120000000Y-109110300D02*
X120000000Y-116780000D01*
X113366400Y-102476700D02*
X120000000Y-109110300D01*
X113000000Y-102476700D02*
X113366400Y-102476700D01*
%TO.N,CO_AD0*%
X110253300Y-132698300D02*
X109000000Y-132698300D01*
X126197000Y-116754600D02*
X110253300Y-132698300D01*
X126197000Y-115057700D02*
X126197000Y-116754600D01*
X126023300Y-114884000D02*
X126197000Y-115057700D01*
X126023300Y-113028900D02*
X126023300Y-114884000D01*
X132147900Y-106904300D02*
X126023300Y-113028900D01*
X109000000Y-143000000D02*
X109000000Y-132698300D01*
%TO.N,CO_AD11*%
X139409900Y-120729100D02*
X130635900Y-129503100D01*
X139409900Y-119573600D02*
X139409900Y-120729100D01*
X139410000Y-119573600D02*
X139409900Y-119573600D01*
%TO.N,CO_AD8*%
X113000000Y-95500000D02*
X113000000Y-96476700D01*
X113448200Y-96476700D02*
X113000000Y-96476700D01*
X124000000Y-107028500D02*
X113448200Y-96476700D01*
X124000000Y-114912100D02*
X124000000Y-107028500D01*
X125583200Y-116495300D02*
X124000000Y-114912100D01*
%TO.N,CO_AD10*%
X113000000Y-103500000D02*
X113000000Y-104476700D01*
X112633600Y-104476700D02*
X113000000Y-104476700D01*
X111555200Y-105555100D02*
X112633600Y-104476700D01*
X111555200Y-113114800D02*
X111555200Y-105555100D01*
X114351400Y-115911000D02*
X111555200Y-113114800D01*
X116842900Y-115911000D02*
X114351400Y-115911000D01*
X120314800Y-119382900D02*
X116842900Y-115911000D01*
X121379000Y-119382900D02*
X120314800Y-119382900D01*
%TO.N,CO_AD4*%
X129000000Y-130096800D02*
X129000000Y-143000000D01*
X138637100Y-120459700D02*
X129000000Y-130096800D01*
X138637100Y-119495400D02*
X138637100Y-120459700D01*
X139492000Y-118640500D02*
X138637100Y-119495400D01*
X139618500Y-118640500D02*
X139492000Y-118640500D01*
%TO.N,CO_AD9*%
X113000000Y-99500000D02*
X113000000Y-100476700D01*
X112633600Y-100476700D02*
X113000000Y-100476700D01*
X111153500Y-101956800D02*
X112633600Y-100476700D01*
X111153500Y-113281100D02*
X111153500Y-101956800D01*
X114185100Y-116312700D02*
X111153500Y-113281100D01*
X116387400Y-116312700D02*
X114185100Y-116312700D01*
X117560800Y-117486100D02*
X116387400Y-116312700D01*
%TO.N,CO_AD2*%
X114000000Y-143000000D02*
X114000000Y-132698300D01*
X139150100Y-111903500D02*
X139375400Y-111903500D01*
X138000000Y-113053600D02*
X139150100Y-111903500D01*
X138000000Y-116032200D02*
X138000000Y-113053600D01*
X128633100Y-125399100D02*
X138000000Y-116032200D01*
X123772200Y-125399100D02*
X128633100Y-125399100D01*
X119317700Y-129853600D02*
X123772200Y-125399100D01*
X117124500Y-129853600D02*
X119317700Y-129853600D01*
X114279800Y-132698300D02*
X117124500Y-129853600D01*
X114000000Y-132698300D02*
X114279800Y-132698300D01*
%TO.N,CO_AD7*%
X141500000Y-143000000D02*
X141500000Y-132698300D01*
X113000000Y-93500000D02*
X113000000Y-94476700D01*
X138505600Y-129703900D02*
X137606700Y-129703900D01*
X141500000Y-132698300D02*
X138505600Y-129703900D01*
X114147900Y-116914500D02*
X116087500Y-116914500D01*
X110751800Y-113518400D02*
X114147900Y-116914500D01*
X110751800Y-96358600D02*
X110751800Y-113518400D01*
X112633700Y-94476700D02*
X110751800Y-96358600D01*
X113000000Y-94476700D02*
X112633700Y-94476700D01*
%TO.N,CO_AD1*%
X111500000Y-143000000D02*
X111500000Y-132698300D01*
X134820500Y-112231600D02*
X134948800Y-112231600D01*
X134000000Y-113052100D02*
X134820500Y-112231600D01*
X134000000Y-113959400D02*
X134000000Y-113052100D01*
X118564300Y-129395100D02*
X134000000Y-113959400D01*
X117015000Y-129395100D02*
X118564300Y-129395100D01*
X114431600Y-131978500D02*
X117015000Y-129395100D01*
X114017700Y-131978500D02*
X114431600Y-131978500D01*
X113297900Y-132698300D02*
X114017700Y-131978500D01*
X111500000Y-132698300D02*
X113297900Y-132698300D01*
%TO.N,Net-(U2-VIDEO_CLK)*%
X154000000Y-91118700D02*
X154000000Y-143000000D01*
X152934200Y-90052900D02*
X154000000Y-91118700D01*
X152934200Y-67565800D02*
X152934200Y-90052900D01*
X154000000Y-66500000D02*
X152934200Y-67565800D01*
%TO.N,Net-(U2-NMI_R4300)*%
X152000000Y-132198300D02*
X151500000Y-132698300D01*
X152000000Y-89161900D02*
X152000000Y-132198300D01*
X150406200Y-87568100D02*
X152000000Y-89161900D01*
X150406200Y-67593800D02*
X150406200Y-87568100D01*
X151500000Y-66500000D02*
X150406200Y-67593800D01*
X151500000Y-143000000D02*
X151500000Y-132698300D01*
%TO.N,CA_AD1*%
X112750000Y-82273300D02*
X121000000Y-90523300D01*
X112750000Y-67750000D02*
X112750000Y-82273300D01*
X111500000Y-66500000D02*
X112750000Y-67750000D01*
X121000000Y-91500000D02*
X121000000Y-90523300D01*
%TO.N,Net-(U2-NC-Pad39)*%
X136500000Y-143000000D02*
X136500000Y-132698300D01*
X140400100Y-70400100D02*
X136500000Y-66500000D01*
X140400100Y-87559900D02*
X140400100Y-70400100D01*
X142000000Y-89159800D02*
X140400100Y-87559900D01*
X142000000Y-121859300D02*
X142000000Y-89159800D01*
X136500000Y-127359300D02*
X142000000Y-121859300D01*
X136500000Y-132698300D02*
X136500000Y-127359300D01*
%TO.N,CA_AD2*%
X115250000Y-80773300D02*
X125000000Y-90523300D01*
X115250000Y-67750000D02*
X115250000Y-80773300D01*
X114000000Y-66500000D02*
X115250000Y-67750000D01*
X125000000Y-91500000D02*
X125000000Y-90523300D01*
%TO.N,ALE_L*%
X113000000Y-107500000D02*
X113000000Y-108476700D01*
X121500000Y-131380700D02*
X121355300Y-131236000D01*
X121500000Y-143000000D02*
X121500000Y-131380700D01*
X112585500Y-108476700D02*
X113000000Y-108476700D01*
X111967100Y-109095100D02*
X112585500Y-108476700D01*
X111967100Y-112671900D02*
X111967100Y-109095100D01*
X112509800Y-113214600D02*
X111967100Y-112671900D01*
%TO.N,Net-(U2-JTAG_CLK)*%
X148000000Y-131698300D02*
X149000000Y-132698300D01*
X148000000Y-81361300D02*
X148000000Y-131698300D01*
X147920400Y-81281700D02*
X148000000Y-81361300D01*
X147920400Y-67579600D02*
X147920400Y-81281700D01*
X149000000Y-66500000D02*
X147920400Y-67579600D01*
X149000000Y-143000000D02*
X149000000Y-132698300D01*
%TO.N,CA_AD3*%
X120250000Y-81773300D02*
X129000000Y-90523300D01*
X120250000Y-67750000D02*
X120250000Y-81773300D01*
X119000000Y-66500000D02*
X120250000Y-67750000D01*
X129000000Y-91500000D02*
X129000000Y-90523300D01*
%TO.N,ALE_H*%
X118000000Y-116203500D02*
X120030900Y-118234400D01*
X118000000Y-111110400D02*
X118000000Y-116203500D01*
X113366300Y-106476700D02*
X118000000Y-111110400D01*
X113000000Y-106476700D02*
X113366300Y-106476700D01*
X113000000Y-105500000D02*
X113000000Y-106476700D01*
X126500000Y-130847900D02*
X126598400Y-130749500D01*
X126500000Y-143000000D02*
X126500000Y-130847900D01*
%TO.N,Net-(U2-R_AUDIO)*%
X161850900Y-132698300D02*
X161500000Y-132698300D01*
X162467000Y-132082200D02*
X161850900Y-132698300D01*
X161500000Y-143000000D02*
X161500000Y-132698300D01*
%TO.N,CA_AD0*%
X110250000Y-83773300D02*
X117000000Y-90523300D01*
X110250000Y-67750000D02*
X110250000Y-83773300D01*
X109000000Y-66500000D02*
X110250000Y-67750000D01*
X117000000Y-91500000D02*
X117000000Y-90523300D01*
%TO.N,+3V3*%
X142930300Y-65430300D02*
X144000000Y-66500000D01*
X127363900Y-65430300D02*
X142930300Y-65430300D01*
X127362400Y-65428800D02*
X127363900Y-65430300D01*
X125071200Y-65428800D02*
X127362400Y-65428800D01*
X124000000Y-66500000D02*
X125071200Y-65428800D01*
X144000000Y-71500000D02*
X144000000Y-132489600D01*
X144000000Y-132489600D02*
X144000000Y-143000000D01*
X124000000Y-143000000D02*
X124000000Y-132471100D01*
X132448600Y-124022500D02*
X134201800Y-124022500D01*
X124000000Y-132471100D02*
X132448600Y-124022500D01*
%TO.N,Net-(U2-NC-Pad13)*%
X128000100Y-116450600D02*
X125421900Y-119028800D01*
X128000100Y-112196100D02*
X128000100Y-116450600D01*
X134000000Y-106196200D02*
X128000100Y-112196100D01*
X134000000Y-71500000D02*
X134000000Y-106196200D01*
%TO.N,Net-(U2-NC-Pad38)*%
X134000000Y-143000000D02*
X134000000Y-132698300D01*
X137800000Y-70300000D02*
X134000000Y-66500000D01*
X137800000Y-85527800D02*
X137800000Y-70300000D01*
X139977800Y-87705600D02*
X137800000Y-85527800D01*
X139977800Y-117917000D02*
X139977800Y-87705600D01*
X140220200Y-118159400D02*
X139977800Y-117917000D01*
X140220200Y-120634500D02*
X140220200Y-118159400D01*
X134000000Y-126854700D02*
X140220200Y-120634500D01*
X134000000Y-132698300D02*
X134000000Y-126854700D01*
%TO.N,GND*%
X159000000Y-71500000D02*
X156500000Y-71500000D01*
X156500000Y-143000000D02*
X156500000Y-132698300D01*
X159000000Y-143000000D02*
X159000000Y-132799100D01*
X104000000Y-143000000D02*
X104000000Y-132698300D01*
X159000000Y-132799100D02*
X159000000Y-132698300D01*
X159000000Y-132698300D02*
X156500000Y-132698300D01*
X159000000Y-131162400D02*
X159000000Y-132698300D01*
X162464100Y-131162400D02*
X159000000Y-131162400D01*
X164000000Y-132698300D02*
X162464100Y-131162400D01*
X159000000Y-66500000D02*
X156500000Y-66500000D01*
X116500000Y-143000000D02*
X116500000Y-132698300D01*
X160130600Y-70369400D02*
X160130600Y-67630600D01*
X159000000Y-71500000D02*
X160130600Y-70369400D01*
X160130600Y-67630600D02*
X159000000Y-66500000D01*
X164000000Y-68761200D02*
X164000000Y-71500000D01*
X162869400Y-67630600D02*
X164000000Y-68761200D01*
X164000000Y-66500000D02*
X162869400Y-67630600D01*
X162869400Y-67630600D02*
X160130600Y-67630600D01*
X164000000Y-143000000D02*
X164000000Y-137849100D01*
X164000000Y-137849100D02*
X164000000Y-132698300D01*
X164970900Y-137849100D02*
X165695000Y-137125000D01*
X164000000Y-137849100D02*
X164970900Y-137849100D01*
X106500000Y-143000000D02*
X106500000Y-132799100D01*
X106500000Y-132699800D02*
X106500000Y-132698300D01*
X106500000Y-132799100D02*
X106500000Y-132699800D01*
X106500000Y-132698300D02*
X105845600Y-132698300D01*
X105845600Y-132698300D02*
X104000000Y-132698300D01*
X105845600Y-132485900D02*
X105845600Y-132698300D01*
X116430300Y-132698300D02*
X115780600Y-132048600D01*
X116500000Y-132698300D02*
X116430300Y-132698300D01*
X106500000Y-71500000D02*
X104000000Y-71500000D01*
X116500000Y-66500000D02*
X116500000Y-71500000D01*
%TO.N,Net-(U2-NC-Pad14)*%
X136000000Y-117181100D02*
X129787000Y-123394100D01*
X136000000Y-112597500D02*
X136000000Y-117181100D01*
X136357700Y-112239800D02*
X136000000Y-112597500D01*
X136357700Y-111526500D02*
X136357700Y-112239800D01*
X136000100Y-111168900D02*
X136357700Y-111526500D01*
X136000100Y-71999900D02*
X136000100Y-111168900D01*
X136500000Y-71500000D02*
X136000100Y-71999900D01*
%TO.N,Net-(U2-PIF_CIC)*%
X145999900Y-132198200D02*
X146500000Y-132698300D01*
X145999900Y-81918200D02*
X145999900Y-132198200D01*
X145477800Y-81396100D02*
X145999900Y-81918200D01*
X146500000Y-143000000D02*
X146500000Y-132698300D01*
%TD*%
M02*
