%TF.GenerationSoftware,KiCad,Pcbnew,10.0.1*%
%TF.CreationDate,2026-04-17T16:03:41-05:00*%
%TF.ProjectId,n64_gamecat_rp2350b,6e36345f-6761-46d6-9563-61745f727032,rev?*%
%TF.SameCoordinates,Original*%
%TF.FileFunction,Soldermask,Top*%
%TF.FilePolarity,Negative*%
%FSLAX46Y46*%
G04 Gerber Fmt 4.6, Leading zero omitted, Abs format (unit mm)*
G04 Created by KiCad (PCBNEW 10.0.1) date 2026-04-17 16:03:41*
%MOMM*%
%LPD*%
G01*
G04 APERTURE LIST*
G04 Aperture macros list*
%AMRoundRect*
0 Rectangle with rounded corners*
0 $1 Rounding radius*
0 $2 $3 $4 $5 $6 $7 $8 $9 X,Y pos of 4 corners*
0 Add a 4 corners polygon primitive as box body*
4,1,4,$2,$3,$4,$5,$6,$7,$8,$9,$2,$3,0*
0 Add four circle primitives for the rounded corners*
1,1,$1+$1,$2,$3*
1,1,$1+$1,$4,$5*
1,1,$1+$1,$6,$7*
1,1,$1+$1,$8,$9*
0 Add four rect primitives between the rounded corners*
20,1,$1+$1,$2,$3,$4,$5,0*
20,1,$1+$1,$4,$5,$6,$7,0*
20,1,$1+$1,$6,$7,$8,$9,0*
20,1,$1+$1,$8,$9,$2,$3,0*%
%AMFreePoly0*
4,1,37,0.800000,0.796148,0.878414,0.796148,1.032228,0.765552,1.177117,0.705537,1.307515,0.618408,1.418408,0.507515,1.505537,0.377117,1.565552,0.232228,1.596148,0.078414,1.596148,-0.078414,1.565552,-0.232228,1.505537,-0.377117,1.418408,-0.507515,1.307515,-0.618408,1.177117,-0.705537,1.032228,-0.765552,0.878414,-0.796148,0.800000,-0.796148,0.800000,-0.800000,-1.400000,-0.800000,
-1.403843,-0.796157,-1.439018,-0.796157,-1.511114,-0.766294,-1.566294,-0.711114,-1.596157,-0.639018,-1.596157,-0.603843,-1.600000,-0.600000,-1.600000,0.600000,-1.596157,0.603843,-1.596157,0.639018,-1.566294,0.711114,-1.511114,0.766294,-1.439018,0.796157,-1.403843,0.796157,-1.400000,0.800000,0.800000,0.800000,0.800000,0.796148,0.800000,0.796148,$1*%
%AMFreePoly1*
4,1,37,1.403843,0.796157,1.439018,0.796157,1.511114,0.766294,1.566294,0.711114,1.596157,0.639018,1.596157,0.603843,1.600000,0.600000,1.600000,-0.600000,1.596157,-0.603843,1.596157,-0.639018,1.566294,-0.711114,1.511114,-0.766294,1.439018,-0.796157,1.403843,-0.796157,1.400000,-0.800000,-0.800000,-0.800000,-0.800000,-0.796148,-0.878414,-0.796148,-1.032228,-0.765552,-1.177117,-0.705537,
-1.307515,-0.618408,-1.418408,-0.507515,-1.505537,-0.377117,-1.565552,-0.232228,-1.596148,-0.078414,-1.596148,0.078414,-1.565552,0.232228,-1.505537,0.377117,-1.418408,0.507515,-1.307515,0.618408,-1.177117,0.705537,-1.032228,0.765552,-0.878414,0.796148,-0.800000,0.796148,-0.800000,0.800000,1.400000,0.800000,1.403843,0.796157,1.403843,0.796157,$1*%
%AMFreePoly2*
4,1,37,0.603843,0.796157,0.639018,0.796157,0.711114,0.766294,0.766294,0.711114,0.796157,0.639018,0.796157,0.603843,0.800000,0.600000,0.800000,-0.600000,0.796157,-0.603843,0.796157,-0.639018,0.766294,-0.711114,0.711114,-0.766294,0.639018,-0.796157,0.603843,-0.796157,0.600000,-0.800000,0.000000,-0.800000,0.000000,-0.796148,-0.078414,-0.796148,-0.232228,-0.765552,-0.377117,-0.705537,
-0.507515,-0.618408,-0.618408,-0.507515,-0.705537,-0.377117,-0.765552,-0.232228,-0.796148,-0.078414,-0.796148,0.078414,-0.765552,0.232228,-0.705537,0.377117,-0.618408,0.507515,-0.507515,0.618408,-0.377117,0.705537,-0.232228,0.765552,-0.078414,0.796148,0.000000,0.796148,0.000000,0.800000,0.600000,0.800000,0.603843,0.796157,0.603843,0.796157,$1*%
%AMFreePoly3*
4,1,37,0.000000,0.796148,0.078414,0.796148,0.232228,0.765552,0.377117,0.705537,0.507515,0.618408,0.618408,0.507515,0.705537,0.377117,0.765552,0.232228,0.796148,0.078414,0.796148,-0.078414,0.765552,-0.232228,0.705537,-0.377117,0.618408,-0.507515,0.507515,-0.618408,0.377117,-0.705537,0.232228,-0.765552,0.078414,-0.796148,0.000000,-0.796148,0.000000,-0.800000,-0.600000,-0.800000,
-0.603843,-0.796157,-0.639018,-0.796157,-0.711114,-0.766294,-0.766294,-0.711114,-0.796157,-0.639018,-0.796157,-0.603843,-0.800000,-0.600000,-0.800000,0.600000,-0.796157,0.603843,-0.796157,0.639018,-0.766294,0.711114,-0.711114,0.766294,-0.639018,0.796157,-0.603843,0.796157,-0.600000,0.800000,0.000000,0.800000,0.000000,0.796148,0.000000,0.796148,$1*%
G04 Aperture macros list end*
%ADD10RoundRect,0.147500X-0.147500X-0.172500X0.147500X-0.172500X0.147500X0.172500X-0.147500X0.172500X0*%
%ADD11RoundRect,0.135000X-0.135000X-0.185000X0.135000X-0.185000X0.135000X0.185000X-0.135000X0.185000X0*%
%ADD12R,0.558800X1.981200*%
%ADD13C,1.524000*%
%ADD14R,1.700000X1.700000*%
%ADD15C,1.700000*%
%ADD16RoundRect,0.135000X-0.185000X0.135000X-0.185000X-0.135000X0.185000X-0.135000X0.185000X0.135000X0*%
%ADD17RoundRect,0.135000X0.135000X0.185000X-0.135000X0.185000X-0.135000X-0.185000X0.135000X-0.185000X0*%
%ADD18RoundRect,0.140000X0.140000X0.170000X-0.140000X0.170000X-0.140000X-0.170000X0.140000X-0.170000X0*%
%ADD19RoundRect,0.140000X-0.140000X-0.170000X0.140000X-0.170000X0.140000X0.170000X-0.140000X0.170000X0*%
%ADD20RoundRect,0.250000X-0.475000X0.250000X-0.475000X-0.250000X0.475000X-0.250000X0.475000X0.250000X0*%
%ADD21C,2.200000*%
%ADD22C,1.850000*%
%ADD23FreePoly0,90.000000*%
%ADD24RoundRect,0.200000X0.600000X-0.600000X0.600000X0.600000X-0.600000X0.600000X-0.600000X-0.600000X0*%
%ADD25RoundRect,0.800000X0.000010X-0.800000X0.000010X0.800000X-0.000010X0.800000X-0.000010X-0.800000X0*%
%ADD26C,1.600000*%
%ADD27FreePoly1,90.000000*%
%ADD28FreePoly2,90.000000*%
%ADD29FreePoly3,90.000000*%
%ADD30R,1.800000X5.000000*%
G04 APERTURE END LIST*
D10*
%TO.C,D1*%
X183495000Y-79000000D03*
X182525000Y-79000000D03*
%TD*%
D11*
%TO.C,R5*%
X180510000Y-79000000D03*
X179490000Y-79000000D03*
%TD*%
D12*
%TO.C,U4*%
X136785000Y-72186300D03*
X138055000Y-72186300D03*
X139325000Y-72186300D03*
X140595000Y-72186300D03*
X141865000Y-72186300D03*
X143135000Y-72186300D03*
X144405000Y-72186300D03*
X145675000Y-72186300D03*
X146945000Y-72186300D03*
X148215000Y-72186300D03*
X148215000Y-62813700D03*
X146945000Y-62813700D03*
X145675000Y-62813700D03*
X144405000Y-62813700D03*
X143135000Y-62813700D03*
X141865000Y-62813700D03*
X140595000Y-62813700D03*
X139325000Y-62813700D03*
X138055000Y-62813700D03*
X136785000Y-62813700D03*
%TD*%
%TO.C,U3*%
X174285000Y-72186300D03*
X175555000Y-72186300D03*
X176825000Y-72186300D03*
X178095000Y-72186300D03*
X179365000Y-72186300D03*
X180635000Y-72186300D03*
X181905000Y-72186300D03*
X183175000Y-72186300D03*
X184445000Y-72186300D03*
X185715000Y-72186300D03*
X185715000Y-62813700D03*
X184445000Y-62813700D03*
X183175000Y-62813700D03*
X181905000Y-62813700D03*
X180635000Y-62813700D03*
X179365000Y-62813700D03*
X178095000Y-62813700D03*
X176825000Y-62813700D03*
X175555000Y-62813700D03*
X174285000Y-62813700D03*
%TD*%
D13*
%TO.C,U1*%
X127500000Y-49500000D03*
X130000000Y-49500000D03*
X132500000Y-49500000D03*
X135000000Y-49500000D03*
X137500000Y-49500000D03*
X140000000Y-49500000D03*
X142500000Y-49500000D03*
X145000000Y-49500000D03*
X147500000Y-49500000D03*
X150000000Y-49500000D03*
X152500000Y-49500000D03*
X155000000Y-49500000D03*
X157500000Y-49500000D03*
X160000000Y-49500000D03*
X162500000Y-49500000D03*
X165000000Y-49500000D03*
X167500000Y-49500000D03*
X170000000Y-49500000D03*
X172500000Y-49500000D03*
X175000000Y-49500000D03*
X177500000Y-49500000D03*
X180000000Y-49500000D03*
X182500000Y-49500000D03*
X185000000Y-49500000D03*
X187500000Y-49500000D03*
X127500000Y-44500000D03*
X130000000Y-44500000D03*
X132500000Y-44500000D03*
X135000000Y-44500000D03*
X137500000Y-44500000D03*
X140000000Y-44500000D03*
X142500000Y-44500000D03*
X145000000Y-44500000D03*
X147500000Y-44500000D03*
X150000000Y-44500000D03*
X152500000Y-44500000D03*
X155000000Y-44500000D03*
X157500000Y-44500000D03*
X160000000Y-44500000D03*
X162500000Y-44500000D03*
X165000000Y-44500000D03*
X167500000Y-44500000D03*
X170000000Y-44500000D03*
X172500000Y-44500000D03*
X175000000Y-44500000D03*
X177500000Y-44500000D03*
X180000000Y-44500000D03*
X182500000Y-44500000D03*
X185000000Y-44500000D03*
X187500000Y-44500000D03*
%TD*%
D14*
%TO.C,SW1*%
X161500000Y-65225000D03*
D15*
X161500000Y-67765000D03*
X161500000Y-70305000D03*
%TD*%
D16*
%TO.C,R4*%
X147500000Y-111990000D03*
X147500000Y-113010000D03*
%TD*%
%TO.C,R3*%
X151990000Y-111990000D03*
X151990000Y-113010000D03*
%TD*%
D17*
%TO.C,R2*%
X146020000Y-80000000D03*
X145000000Y-80000000D03*
%TD*%
D16*
%TO.C,R1*%
X170000000Y-79490000D03*
X170000000Y-80510000D03*
%TD*%
D14*
%TO.C,J4*%
X156500000Y-67725000D03*
D15*
X156500000Y-70265000D03*
%TD*%
D18*
%TO.C,C5*%
X138980000Y-80500000D03*
X138020000Y-80500000D03*
%TD*%
D19*
%TO.C,C4*%
X142500000Y-80000000D03*
X143460000Y-80000000D03*
%TD*%
%TO.C,C2*%
X134020000Y-62500000D03*
X134980000Y-62500000D03*
%TD*%
D20*
%TO.C,C1*%
X148000000Y-124050000D03*
X148000000Y-125950000D03*
%TD*%
D21*
%TO.C,A1*%
X134690000Y-96335000D03*
D22*
X137720000Y-96035000D03*
X137720000Y-91185000D03*
D21*
X134690000Y-90885000D03*
D23*
X134560000Y-103300000D03*
D24*
X134560000Y-102500000D03*
D25*
X137100000Y-103300000D03*
D26*
X137100000Y-102500000D03*
D27*
X139640000Y-103300000D03*
D28*
X139640000Y-102500000D03*
D25*
X142180000Y-103300000D03*
D26*
X142180000Y-102500000D03*
D25*
X144720000Y-103300000D03*
D26*
X144720000Y-102500000D03*
D25*
X147260000Y-103300000D03*
D26*
X147260000Y-102500000D03*
D25*
X149800000Y-103300000D03*
D26*
X149800000Y-102500000D03*
D27*
X152340000Y-103300000D03*
D28*
X152340000Y-102500000D03*
D25*
X154880000Y-103300000D03*
D26*
X154880000Y-102500000D03*
D25*
X157420000Y-103300000D03*
D26*
X157420000Y-102500000D03*
D25*
X159960000Y-103300000D03*
D26*
X159960000Y-102500000D03*
D25*
X162500000Y-103300000D03*
D26*
X162500000Y-102500000D03*
D27*
X165040000Y-103300000D03*
D28*
X165040000Y-102500000D03*
D25*
X167580000Y-103300000D03*
D26*
X167580000Y-102500000D03*
D25*
X170120000Y-103300000D03*
D26*
X170120000Y-102500000D03*
D25*
X172660000Y-103300000D03*
D26*
X172660000Y-102500000D03*
D25*
X175200000Y-103300000D03*
D26*
X175200000Y-102500000D03*
D27*
X177740000Y-103300000D03*
D28*
X177740000Y-102500000D03*
D25*
X180280000Y-103300000D03*
D26*
X180280000Y-102500000D03*
D25*
X182820000Y-103300000D03*
D26*
X182820000Y-102500000D03*
X182820000Y-84720000D03*
D25*
X182820000Y-83920000D03*
D26*
X180280000Y-84720000D03*
D25*
X180280000Y-83920000D03*
D29*
X177740000Y-84720000D03*
D23*
X177740000Y-83920000D03*
D26*
X175200000Y-84720000D03*
D25*
X175200000Y-83920000D03*
D26*
X172660000Y-84720000D03*
D25*
X172660000Y-83920000D03*
D26*
X170120000Y-84720000D03*
D25*
X170120000Y-83920000D03*
D26*
X167580000Y-84720000D03*
D25*
X167580000Y-83920000D03*
D29*
X165040000Y-84720000D03*
D23*
X165040000Y-83920000D03*
D26*
X162500000Y-84720000D03*
D25*
X162500000Y-83920000D03*
D26*
X159960000Y-84720000D03*
D25*
X159960000Y-83920000D03*
D26*
X157420000Y-84720000D03*
D25*
X157420000Y-83920000D03*
D26*
X154880000Y-84720000D03*
D25*
X154880000Y-83920000D03*
D29*
X152340000Y-84720000D03*
D23*
X152340000Y-83920000D03*
D26*
X149800000Y-84720000D03*
D25*
X149800000Y-83920000D03*
D26*
X147260000Y-84720000D03*
D25*
X147260000Y-83920000D03*
D26*
X144720000Y-84720000D03*
D25*
X144720000Y-83920000D03*
D26*
X142180000Y-84720000D03*
D25*
X142180000Y-83920000D03*
D29*
X139640000Y-84720000D03*
D23*
X139640000Y-83920000D03*
D26*
X137100000Y-84720000D03*
D25*
X137100000Y-83920000D03*
D26*
X134560000Y-84720000D03*
D25*
X134560000Y-83920000D03*
%TD*%
D19*
%TO.C,C3*%
X171520000Y-63000000D03*
X172480000Y-63000000D03*
%TD*%
D30*
%TO.C,U2*%
X127500000Y-136500000D03*
X130000000Y-136500000D03*
X132500000Y-136500000D03*
X135000000Y-136500000D03*
X137500000Y-136500000D03*
X140000000Y-136500000D03*
X142500000Y-136500000D03*
X145000000Y-136500000D03*
X147500000Y-136500000D03*
X150000000Y-136500000D03*
X152500000Y-136500000D03*
X155000000Y-136500000D03*
X157500000Y-136500000D03*
X160000000Y-136500000D03*
X162500000Y-136500000D03*
X165000000Y-136500000D03*
X167500000Y-136500000D03*
X170000000Y-136500000D03*
X172500000Y-136500000D03*
X175000000Y-136500000D03*
X177500000Y-136500000D03*
X180000000Y-136500000D03*
X182500000Y-136500000D03*
X185000000Y-136500000D03*
X187500000Y-136500000D03*
%TD*%
M02*
