%TF.GenerationSoftware,KiCad,Pcbnew,9.0.1*%
%TF.CreationDate,2025-05-19T19:35:19-05:00*%
%TF.ProjectId,n64_gamecat_rp2350b,6e36345f-6761-46d6-9563-61745f727032,rev?*%
%TF.SameCoordinates,Original*%
%TF.FileFunction,Copper,L1,Top*%
%TF.FilePolarity,Positive*%
%FSLAX46Y46*%
G04 Gerber Fmt 4.6, Leading zero omitted, Abs format (unit mm)*
G04 Created by KiCad (PCBNEW 9.0.1) date 2025-05-19 19:35:19*
%MOMM*%
%LPD*%
G01*
G04 APERTURE LIST*
%TA.AperFunction,SMDPad,CuDef*%
%ADD10R,1.800000X20.000000*%
%TD*%
%TA.AperFunction,SMDPad,CuDef*%
%ADD11R,2.800000X1.500000*%
%TD*%
%TA.AperFunction,ComponentPad*%
%ADD12C,1.350000*%
%TD*%
%TA.AperFunction,ComponentPad*%
%ADD13O,1.350000X1.350000*%
%TD*%
%TA.AperFunction,SMDPad,CuDef*%
%ADD14R,1.500000X2.800000*%
%TD*%
%TA.AperFunction,ComponentPad*%
%ADD15R,1.700000X1.700000*%
%TD*%
%TA.AperFunction,ComponentPad*%
%ADD16O,1.700000X1.700000*%
%TD*%
%TA.AperFunction,ComponentPad*%
%ADD17C,1.524000*%
%TD*%
%TA.AperFunction,ViaPad*%
%ADD18C,0.600000*%
%TD*%
%TA.AperFunction,Conductor*%
%ADD19C,0.200000*%
%TD*%
G04 APERTURE END LIST*
D10*
%TO.P,U3,1,GND*%
%TO.N,GND*%
X104000000Y-143000000D03*
%TO.P,U3,2,GND*%
X106500000Y-143000000D03*
%TO.P,U3,3,AD15*%
%TO.N,CO_AD15*%
X109000000Y-143000000D03*
%TO.P,U3,4,AD14*%
%TO.N,CO_AD14*%
X111500000Y-143000000D03*
%TO.P,U3,5,AD13*%
%TO.N,CO_AD13*%
X114000000Y-143000000D03*
%TO.P,U3,6,GND*%
%TO.N,GND*%
X116500000Y-143000000D03*
%TO.P,U3,7,AD12*%
%TO.N,CO_AD12*%
X119000000Y-143000000D03*
%TO.P,U3,8,WRITE*%
%TO.N,WRITE*%
X121500000Y-143000000D03*
%TO.P,U3,9,VCC*%
%TO.N,+3V3*%
X124000000Y-143000000D03*
%TO.P,U3,10,READ*%
%TO.N,READ*%
X126500000Y-143000000D03*
%TO.P,U3,11,AD11*%
%TO.N,CO_AD11*%
X129000000Y-143000000D03*
%TO.P,U3,12,AD10*%
%TO.N,CO_AD10*%
X131500000Y-143000000D03*
%TO.P,U3,13,NC*%
%TO.N,Net-(U2-NC-Pad13)*%
X134000000Y-143000000D03*
%TO.P,U3,14,NC*%
%TO.N,Net-(U2-NC-Pad14)*%
X136500000Y-143000000D03*
%TO.P,U3,15,AD9*%
%TO.N,CO_AD9*%
X139000000Y-143000000D03*
%TO.P,U3,16,AD8*%
%TO.N,CO_AD8*%
X141500000Y-143000000D03*
%TO.P,U3,17,VCC*%
%TO.N,+3V3*%
X144000000Y-143000000D03*
%TO.P,U3,18,CIC_PIF*%
%TO.N,Net-(U2-CIC_PIF)*%
X146500000Y-143000000D03*
%TO.P,U3,19,CLK_PIF*%
%TO.N,Net-(U2-CLK_PIF)*%
X149000000Y-143000000D03*
%TO.P,U3,20,COLD_RST*%
%TO.N,Net-(U2-COLD_RST)*%
X151500000Y-143000000D03*
%TO.P,U3,21,S_DAT*%
%TO.N,Net-(U2-S_DAT)*%
X154000000Y-143000000D03*
%TO.P,U3,22,GND*%
%TO.N,GND*%
X156500000Y-143000000D03*
%TO.P,U3,23,GND*%
X159000000Y-143000000D03*
%TO.P,U3,24,LAUDIO*%
%TO.N,Net-(U2-LAUDIO)*%
X161500000Y-143000000D03*
%TO.P,U3,25,GND*%
%TO.N,GND*%
X164000000Y-143000000D03*
%TD*%
D11*
%TO.P,U4,1,GPIO0*%
%TO.N,CA_AD0*%
X158650000Y-111500000D03*
D12*
X158000000Y-111500000D03*
D11*
%TO.P,U4,2,GPIO1*%
%TO.N,CA_AD1*%
X158650000Y-109500000D03*
D13*
X158000000Y-109500000D03*
D11*
%TO.P,U4,3,GPIO2*%
%TO.N,CA_AD2*%
X158650000Y-107500000D03*
D13*
X158000000Y-107500000D03*
D11*
%TO.P,U4,4,GPIO3*%
%TO.N,CA_AD3*%
X158650000Y-105500000D03*
D13*
X158000000Y-105500000D03*
D11*
%TO.P,U4,5,GPIO4*%
%TO.N,CA_AD4*%
X158650000Y-103500000D03*
D13*
X158000000Y-103500000D03*
D11*
%TO.P,U4,6,GPIO5*%
%TO.N,CA_AD5*%
X158650000Y-101500000D03*
D13*
X158000000Y-101500000D03*
D11*
%TO.P,U4,7,GPIO6*%
%TO.N,CA_AD6*%
X158650000Y-99500000D03*
D13*
X158000000Y-99500000D03*
D11*
%TO.P,U4,8,GPIO7*%
%TO.N,CA_AD7*%
X158650000Y-97500000D03*
D13*
X158000000Y-97500000D03*
D11*
%TO.P,U4,9,GPIO8*%
%TO.N,CA_AD8*%
X158650000Y-95500000D03*
D13*
X158000000Y-95500000D03*
D11*
%TO.P,U4,10,GPIO9*%
%TO.N,CA_AD9*%
X158650000Y-93500000D03*
D13*
X158000000Y-93500000D03*
%TO.P,U4,11,GPIO10*%
%TO.N,CA_AD10*%
X156000000Y-91500000D03*
D14*
X156000000Y-90850000D03*
D13*
%TO.P,U4,12,GPIO11*%
%TO.N,CA_AD11*%
X154000000Y-91500000D03*
D14*
X154000000Y-90850000D03*
D13*
%TO.P,U4,13,GPIO12*%
%TO.N,CA_AD12*%
X152000000Y-91500000D03*
D14*
X152000000Y-90850000D03*
D13*
%TO.P,U4,14,GPIO13*%
%TO.N,CA_AD13*%
X150000000Y-91500000D03*
D14*
X150000000Y-90850000D03*
D13*
%TO.P,U4,15,GPIO14*%
%TO.N,CA_AD14*%
X148000000Y-91500000D03*
D14*
X148000000Y-90850000D03*
D13*
%TO.P,U4,16,GPIO15*%
%TO.N,CA_AD15*%
X146000000Y-91500000D03*
D14*
X146000000Y-90850000D03*
D13*
%TO.P,U4,17,GPIO16*%
%TO.N,unconnected-(U4-GPIO16-Pad17)*%
X144000000Y-91500000D03*
D14*
X144000000Y-90850000D03*
D13*
%TO.P,U4,18,GPIO17*%
%TO.N,unconnected-(U4-GPIO17-Pad18)*%
X142000000Y-91500000D03*
D14*
X142000000Y-90850000D03*
D13*
%TO.P,U4,19,GPIO18*%
%TO.N,CO_AD0*%
X140000000Y-91500000D03*
D14*
X140000000Y-90850000D03*
D13*
%TO.P,U4,20,GPIO19*%
%TO.N,CO_AD1*%
X138000000Y-91500000D03*
D14*
X138000000Y-90850000D03*
D13*
%TO.P,U4,21,GPIO20*%
%TO.N,CO_AD2*%
X136000000Y-91500000D03*
D14*
X136000000Y-90850000D03*
D13*
%TO.P,U4,22,GPIO21*%
%TO.N,CO_AD3*%
X134000000Y-91500000D03*
D14*
X134000000Y-90850000D03*
D13*
%TO.P,U4,23,GPIO22*%
%TO.N,CO_AD4*%
X132000000Y-91500000D03*
D14*
X132000000Y-90850000D03*
D13*
%TO.P,U4,24,GPIO23*%
%TO.N,CO_AD5*%
X130000000Y-91500000D03*
D14*
X130000000Y-90850000D03*
D13*
%TO.P,U4,25,GPIO24*%
%TO.N,CO_AD6*%
X128000000Y-91500000D03*
D14*
X128000000Y-90850000D03*
D13*
%TO.P,U4,26,GPIO25*%
%TO.N,CO_AD7*%
X126000000Y-91500000D03*
D14*
X126000000Y-90850000D03*
D13*
%TO.P,U4,27,GPIO26*%
%TO.N,CO_AD8*%
X124000000Y-91500000D03*
D14*
X124000000Y-90850000D03*
D13*
%TO.P,U4,28,GPIO27*%
%TO.N,CO_AD9*%
X122000000Y-91500000D03*
D14*
X122000000Y-90850000D03*
D13*
%TO.P,U4,29,GPIO28*%
%TO.N,CO_AD10*%
X120000000Y-91500000D03*
D14*
X120000000Y-90850000D03*
D13*
%TO.P,U4,30,GPIO29*%
%TO.N,CO_AD11*%
X118000000Y-91500000D03*
D14*
X118000000Y-90850000D03*
D13*
%TO.P,U4,31,GPIO30*%
%TO.N,CO_AD12*%
X116000000Y-93500000D03*
D11*
X115350000Y-93500000D03*
D13*
%TO.P,U4,32,GPIO31*%
%TO.N,CO_AD13*%
X116000000Y-95500000D03*
D11*
X115350000Y-95500000D03*
D13*
%TO.P,U4,33,GPIO32*%
%TO.N,CO_AD14*%
X116000000Y-97500000D03*
D11*
X115350000Y-97500000D03*
D13*
%TO.P,U4,34,GPIO33*%
%TO.N,CO_AD15*%
X116000000Y-99500000D03*
D11*
X115350000Y-99500000D03*
D13*
%TO.P,U4,35,GPIO34*%
%TO.N,unconnected-(U4-GPIO34-Pad35)*%
X116000000Y-101500000D03*
D11*
X115350000Y-101500000D03*
D13*
%TO.P,U4,36,GPIO35*%
%TO.N,unconnected-(U4-GPIO35-Pad36)*%
X116000000Y-103500000D03*
D11*
X115350000Y-103500000D03*
D13*
%TO.P,U4,37,GPIO36*%
%TO.N,unconnected-(U4-GPIO36-Pad37)*%
X116000000Y-105500000D03*
D11*
X115350000Y-105500000D03*
D13*
%TO.P,U4,38,GPIO37*%
%TO.N,unconnected-(U4-GPIO37-Pad38)*%
X116000000Y-107500000D03*
D11*
X115350000Y-107500000D03*
D13*
%TO.P,U4,39,GPIO38*%
%TO.N,unconnected-(U4-GPIO38-Pad39)*%
X116000000Y-109500000D03*
D11*
X115350000Y-109500000D03*
D13*
%TO.P,U4,40,GPIO39*%
%TO.N,unconnected-(U4-GPIO39-Pad40)*%
X116000000Y-111500000D03*
D11*
X115350000Y-111500000D03*
D14*
%TO.P,U4,41,GPIO40*%
%TO.N,ALE_H*%
X118000000Y-114150000D03*
D13*
X118000000Y-113500000D03*
D14*
%TO.P,U4,42,GPIO41*%
%TO.N,ALE_L*%
X120000000Y-114150000D03*
D13*
X120000000Y-113500000D03*
D14*
%TO.P,U4,43,GPIO42*%
%TO.N,WRITE*%
X122000000Y-114150000D03*
D13*
X122000000Y-113500000D03*
D14*
%TO.P,U4,44,GPIO43*%
%TO.N,READ*%
X124000000Y-114150000D03*
D13*
X124000000Y-113500000D03*
D14*
%TO.P,U4,45,GPIO44*%
%TO.N,TX0*%
X126000000Y-114150000D03*
D13*
X126000000Y-113500000D03*
D14*
%TO.P,U4,46,GPIO45*%
%TO.N,RX0*%
X128000000Y-114150000D03*
D13*
X128000000Y-113500000D03*
D14*
%TO.P,U4,47,GPIO46*%
%TO.N,unconnected-(U4-GPIO46-Pad47)*%
X130000000Y-114150000D03*
D13*
X130000000Y-113500000D03*
D14*
%TO.P,U4,48,GPIO47*%
%TO.N,unconnected-(U4-GPIO47-Pad48)*%
X132000000Y-114150000D03*
D13*
X132000000Y-113500000D03*
D14*
%TO.P,U4,49,GPIO48*%
%TO.N,unconnected-(U4-GPIO48-Pad49)*%
X134000000Y-114150000D03*
D13*
X134000000Y-113500000D03*
D14*
%TO.P,U4,50,GPIO49*%
%TO.N,unconnected-(U4-GPIO49-Pad50)*%
X136000000Y-114150000D03*
D13*
X136000000Y-113500000D03*
D14*
%TO.P,U4,51,GPIO50*%
%TO.N,GND*%
X138000000Y-114150000D03*
D13*
X138000000Y-113500000D03*
D14*
%TO.P,U4,52,GPIO51*%
%TO.N,unconnected-(U4-GPIO51-Pad52)*%
X140000000Y-114150000D03*
D13*
X140000000Y-113500000D03*
D14*
%TO.P,U4,53,GPIO52*%
%TO.N,5V*%
X142000000Y-114150000D03*
D13*
X142000000Y-113500000D03*
D14*
%TO.P,U4,54,GPIO53*%
%TO.N,unconnected-(U4-GPIO53-Pad54)*%
X144000000Y-114150000D03*
D13*
X144000000Y-113500000D03*
D14*
%TO.P,U4,55,GPIO54*%
%TO.N,USB D-*%
X146000000Y-114150000D03*
D13*
X146000000Y-113500000D03*
D14*
%TO.P,U4,56,GPIO55*%
%TO.N,USB D+*%
X148000000Y-114150000D03*
D13*
X148000000Y-113500000D03*
D14*
%TO.P,U4,57,GPIO56*%
%TO.N,SWDIO*%
X150000000Y-114150000D03*
D13*
X150000000Y-113500000D03*
D14*
%TO.P,U4,58,GPIO57*%
%TO.N,SWCLK*%
X152000000Y-114150000D03*
D13*
X152000000Y-113500000D03*
D14*
%TO.P,U4,59,GPIO58*%
%TO.N,unconnected-(U4-GPIO58-Pad59)*%
X154000000Y-114150000D03*
D13*
X154000000Y-113500000D03*
D14*
%TO.P,U4,60,GPIO59*%
%TO.N,unconnected-(U4-GPIO59-Pad60)*%
X156000000Y-114150000D03*
D13*
X156000000Y-113500000D03*
%TD*%
D15*
%TO.P,J3,1,Pin_1*%
%TO.N,5V*%
X164500000Y-111000000D03*
D16*
%TO.P,J3,2,Pin_2*%
%TO.N,USB D-*%
X164500000Y-113540000D03*
%TO.P,J3,3,Pin_3*%
%TO.N,USB D+*%
X164500000Y-116080000D03*
%TO.P,J3,4,Pin_4*%
%TO.N,unconnected-(J3-Pin_4-Pad4)*%
X164500000Y-118620000D03*
%TO.P,J3,5,Pin_5*%
%TO.N,GND*%
X164500000Y-121160000D03*
%TD*%
D15*
%TO.P,J1,1,Pin_1*%
%TO.N,SWCLK*%
X164500000Y-93000000D03*
D16*
%TO.P,J1,2,Pin_2*%
%TO.N,GND*%
X164500000Y-95540000D03*
%TO.P,J1,3,Pin_3*%
%TO.N,SWDIO*%
X164500000Y-98080000D03*
%TD*%
D15*
%TO.P,J2,1,Pin_1*%
%TO.N,TX0*%
X103500000Y-100000000D03*
D16*
%TO.P,J2,2,Pin_2*%
%TO.N,GND*%
X103500000Y-102540000D03*
%TO.P,J2,3,Pin_3*%
%TO.N,RX0*%
X103500000Y-105080000D03*
%TD*%
D17*
%TO.P,U2,1,GND*%
%TO.N,GND*%
X104000000Y-71500000D03*
%TO.P,U2,2,GND*%
X106500000Y-71500000D03*
%TO.P,U2,3,AD15*%
%TO.N,CA_AD15*%
X109000000Y-71500000D03*
%TO.P,U2,4,AD14*%
%TO.N,CA_AD14*%
X111500000Y-71500000D03*
%TO.P,U2,5,AD13*%
%TO.N,CA_AD13*%
X114000000Y-71500000D03*
%TO.P,U2,6,GND*%
%TO.N,GND*%
X116500000Y-71500000D03*
%TO.P,U2,7,AD12*%
%TO.N,CA_AD12*%
X119000000Y-71500000D03*
%TO.P,U2,8,WRITE*%
%TO.N,WRITE*%
X121500000Y-71500000D03*
%TO.P,U2,9,VCC*%
%TO.N,+3V3*%
X124000000Y-71500000D03*
%TO.P,U2,10,READ*%
%TO.N,READ*%
X126500000Y-71500000D03*
%TO.P,U2,11,AD11*%
%TO.N,CA_AD11*%
X129000000Y-71500000D03*
%TO.P,U2,12,AD10*%
%TO.N,CA_AD10*%
X131500000Y-71500000D03*
%TO.P,U2,13,NC*%
%TO.N,Net-(U2-NC-Pad13)*%
X134000000Y-71500000D03*
%TO.P,U2,14,NC*%
%TO.N,Net-(U2-NC-Pad14)*%
X136500000Y-71500000D03*
%TO.P,U2,15,AD9*%
%TO.N,CA_AD9*%
X139000000Y-71500000D03*
%TO.P,U2,16,AD8*%
%TO.N,CA_AD8*%
X141500000Y-71500000D03*
%TO.P,U2,17,VCC*%
%TO.N,+3V3*%
X144000000Y-71500000D03*
%TO.P,U2,18,CIC_PIF*%
%TO.N,Net-(U2-CIC_PIF)*%
X146500000Y-71500000D03*
%TO.P,U2,19,CLK_PIF*%
%TO.N,Net-(U2-CLK_PIF)*%
X149000000Y-71500000D03*
%TO.P,U2,20,COLD_RST*%
%TO.N,Net-(U2-COLD_RST)*%
X151500000Y-71500000D03*
%TO.P,U2,21,S_DAT*%
%TO.N,Net-(U2-S_DAT)*%
X154000000Y-71500000D03*
%TO.P,U2,22,GND*%
%TO.N,GND*%
X156500000Y-71500000D03*
%TO.P,U2,23,GND*%
X159000000Y-71500000D03*
%TO.P,U2,24,LAUDIO*%
%TO.N,Net-(U2-LAUDIO)*%
X161500000Y-71500000D03*
%TO.P,U2,25,GND*%
%TO.N,GND*%
X164000000Y-71500000D03*
%TO.P,U2,26,GND*%
X104000000Y-66500000D03*
%TO.P,U2,27,GND*%
X106500000Y-66500000D03*
%TO.P,U2,28,AD0*%
%TO.N,CA_AD0*%
X109000000Y-66500000D03*
%TO.P,U2,29,AD1*%
%TO.N,CA_AD1*%
X111500000Y-66500000D03*
%TO.P,U2,30,AD2*%
%TO.N,CA_AD2*%
X114000000Y-66500000D03*
%TO.P,U2,31,GND*%
%TO.N,GND*%
X116500000Y-66500000D03*
%TO.P,U2,32,AD3*%
%TO.N,CA_AD3*%
X119000000Y-66500000D03*
%TO.P,U2,33,ALE_L*%
%TO.N,ALE_L*%
X121500000Y-66500000D03*
%TO.P,U2,34,VCC*%
%TO.N,+3V3*%
X124000000Y-66500000D03*
%TO.P,U2,35,ALE_H*%
%TO.N,ALE_H*%
X126500000Y-66500000D03*
%TO.P,U2,36,AD4*%
%TO.N,CA_AD4*%
X129000000Y-66500000D03*
%TO.P,U2,37,AD5*%
%TO.N,CA_AD5*%
X131500000Y-66500000D03*
%TO.P,U2,38,NC*%
%TO.N,Net-(U2-NC-Pad38)*%
X134000000Y-66500000D03*
%TO.P,U2,39,NC*%
%TO.N,Net-(U2-NC-Pad39)*%
X136500000Y-66500000D03*
%TO.P,U2,40,AD6*%
%TO.N,CA_AD6*%
X139000000Y-66500000D03*
%TO.P,U2,41,AD7*%
%TO.N,CA_AD7*%
X141500000Y-66500000D03*
%TO.P,U2,42,VCC*%
%TO.N,+3V3*%
X144000000Y-66500000D03*
%TO.P,U2,43,PIF_CIC*%
%TO.N,Net-(U2-PIF_CIC)*%
X146500000Y-66500000D03*
%TO.P,U2,44,JTAG_CLK*%
%TO.N,Net-(U2-JTAG_CLK)*%
X149000000Y-66500000D03*
%TO.P,U2,45,NMI_R4300*%
%TO.N,Net-(U2-NMI_R4300)*%
X151500000Y-66500000D03*
%TO.P,U2,46,VIDEO_CLK*%
%TO.N,Net-(U2-VIDEO_CLK)*%
X154000000Y-66500000D03*
%TO.P,U2,47,GND*%
%TO.N,GND*%
X156500000Y-66500000D03*
%TO.P,U2,48,GND*%
X159000000Y-66500000D03*
%TO.P,U2,49,R_AUDIO*%
%TO.N,Net-(U2-R_AUDIO)*%
X161500000Y-66500000D03*
%TO.P,U2,50,GND*%
%TO.N,GND*%
X164000000Y-66500000D03*
%TD*%
D18*
%TO.N,5V*%
X154182600Y-110906700D03*
%TO.N,USB D-*%
X153283100Y-111613400D03*
%TO.N,USB D+*%
X151218000Y-116281900D03*
%TO.N,SWDIO*%
X151452500Y-112094800D03*
%TO.N,WRITE*%
X123279700Y-81090300D03*
X122000000Y-95955100D03*
%TO.N,CO_AD15*%
X110593600Y-104249800D03*
%TO.N,CO_AD14*%
X110989500Y-101543000D03*
%TO.N,CO_AD3*%
X113577400Y-130593900D03*
%TO.N,CO_AD6*%
X139483400Y-107118400D03*
%TO.N,CO_AD5*%
X130760100Y-97509600D03*
%TO.N,CO_AD0*%
X109001100Y-132078400D03*
%TO.N,CO_AD11*%
X128498500Y-132333700D03*
%TO.N,CO_AD8*%
X113045800Y-104852600D03*
X113406000Y-115371200D03*
X129911100Y-118109900D03*
%TO.N,CO_AD10*%
X129068800Y-131725900D03*
%TO.N,CO_AD9*%
X113424600Y-102644800D03*
X115761000Y-115986300D03*
X129909600Y-120215100D03*
%TO.N,CO_AD2*%
X112093500Y-131768000D03*
%TO.N,CO_AD7*%
X141604800Y-111444900D03*
%TO.N,CO_AD1*%
X109728700Y-131516200D03*
%TO.N,CA_AD6*%
X153192600Y-82854700D03*
%TO.N,Net-(U2-VIDEO_CLK)*%
X161828200Y-124870100D03*
%TO.N,Net-(U2-CIC_PIF)*%
X147017200Y-126172100D03*
%TO.N,CA_AD1*%
X130370700Y-93186100D03*
%TO.N,CA_AD2*%
X142391600Y-93590000D03*
%TO.N,ALE_L*%
X121200000Y-132127200D03*
X116735900Y-90335200D03*
%TO.N,CA_AD3*%
X160216800Y-90074100D03*
%TO.N,ALE_H*%
X118000000Y-123430200D03*
X125359700Y-83056100D03*
%TO.N,Net-(U2-R_AUDIO)*%
X162890100Y-131974000D03*
%TO.N,CA_AD0*%
X130370700Y-95004900D03*
%TO.N,+3V3*%
X143673500Y-98494600D03*
X124000000Y-132472500D03*
X124675500Y-130269000D03*
X144000000Y-131149900D03*
%TO.N,Net-(U2-NC-Pad13)*%
X135113600Y-132500500D03*
%TO.N,GND*%
X116500000Y-132484300D03*
X157092900Y-132497100D03*
X151243100Y-119194300D03*
X105845600Y-132486500D03*
%TO.N,Net-(U2-NC-Pad14)*%
X138203000Y-75958100D03*
X137722000Y-128157600D03*
%TD*%
D19*
%TO.N,unconnected-(U4-GPIO17-Pad18)*%
X142000000Y-90850000D02*
X142000000Y-91500000D01*
%TO.N,unconnected-(U4-GPIO16-Pad17)*%
X144000000Y-90850000D02*
X144000000Y-91500000D01*
%TO.N,unconnected-(U4-GPIO36-Pad37)*%
X115350000Y-105500000D02*
X116000000Y-105500000D01*
%TO.N,5V*%
X142000000Y-113500000D02*
X142000000Y-114150000D01*
X144593300Y-110906700D02*
X142000000Y-113500000D01*
X154182600Y-110906700D02*
X144593300Y-110906700D01*
%TO.N,USB D-*%
X146000000Y-113500000D02*
X146000000Y-114150000D01*
X153122800Y-111453100D02*
X153283100Y-111613400D01*
X148046900Y-111453100D02*
X153122800Y-111453100D01*
X146000000Y-113500000D02*
X148046900Y-111453100D01*
%TO.N,USB D+*%
X148000000Y-113500000D02*
X148000000Y-114150000D01*
X148000000Y-114150000D02*
X148000000Y-115851700D01*
X148430200Y-116281900D02*
X148000000Y-115851700D01*
X151218000Y-116281900D02*
X148430200Y-116281900D01*
%TO.N,TX0*%
X126000000Y-113500000D02*
X126000000Y-114150000D01*
%TO.N,RX0*%
X128000000Y-113500000D02*
X128000000Y-114150000D01*
%TO.N,SWDIO*%
X150000000Y-113500000D02*
X150000000Y-114150000D01*
X150000000Y-113500000D02*
X150000000Y-112523300D01*
X150428500Y-112094800D02*
X151452500Y-112094800D01*
X150000000Y-112523300D02*
X150428500Y-112094800D01*
%TO.N,SWCLK*%
X152000000Y-113500000D02*
X152000000Y-114150000D01*
%TO.N,unconnected-(U4-GPIO53-Pad54)*%
X144000000Y-113500000D02*
X144000000Y-114150000D01*
%TO.N,unconnected-(U4-GPIO34-Pad35)*%
X115350000Y-101500000D02*
X116000000Y-101500000D01*
%TO.N,unconnected-(U4-GPIO46-Pad47)*%
X130000000Y-113500000D02*
X130000000Y-114150000D01*
%TO.N,unconnected-(U4-GPIO47-Pad48)*%
X132000000Y-113500000D02*
X132000000Y-114150000D01*
%TO.N,unconnected-(U4-GPIO37-Pad38)*%
X115350000Y-107500000D02*
X116000000Y-107500000D01*
%TO.N,unconnected-(U4-GPIO49-Pad50)*%
X136000000Y-113500000D02*
X136000000Y-114150000D01*
%TO.N,unconnected-(U4-GPIO35-Pad36)*%
X115350000Y-103500000D02*
X116000000Y-103500000D01*
%TO.N,unconnected-(U4-GPIO48-Pad49)*%
X134000000Y-113500000D02*
X134000000Y-114150000D01*
%TO.N,unconnected-(U4-GPIO51-Pad52)*%
X140000000Y-113500000D02*
X140000000Y-114150000D01*
%TO.N,unconnected-(U4-GPIO39-Pad40)*%
X115350000Y-111500000D02*
X116000000Y-111500000D01*
%TO.N,unconnected-(U4-GPIO38-Pad39)*%
X115350000Y-109500000D02*
X116000000Y-109500000D01*
%TO.N,unconnected-(U4-GPIO58-Pad59)*%
X154000000Y-113500000D02*
X154000000Y-114150000D01*
%TO.N,unconnected-(U4-GPIO59-Pad60)*%
X156000000Y-113500000D02*
X156000000Y-114150000D01*
%TO.N,WRITE*%
X122000000Y-113500000D02*
X122000000Y-114150000D01*
X122000000Y-132198300D02*
X121500000Y-132698300D01*
X122000000Y-114150000D02*
X122000000Y-132198300D01*
X121500000Y-143000000D02*
X121500000Y-132698300D01*
X122000000Y-95955100D02*
X122000000Y-113500000D01*
X121500000Y-79310600D02*
X123279700Y-81090300D01*
X121500000Y-71500000D02*
X121500000Y-79310600D01*
%TO.N,CA_AD13*%
X150000000Y-90850000D02*
X150000000Y-91500000D01*
X150000000Y-90850000D02*
X150000000Y-89148300D01*
X146869200Y-86017500D02*
X150000000Y-89148300D01*
X126786600Y-86017500D02*
X146869200Y-86017500D01*
X114000100Y-73231000D02*
X126786600Y-86017500D01*
X114000100Y-71500000D02*
X114000100Y-73231000D01*
X114000000Y-71500000D02*
X114000100Y-71500000D01*
%TO.N,CA_AD12*%
X152000000Y-90850000D02*
X152000000Y-91500000D01*
X146814700Y-83963000D02*
X152000000Y-89148300D01*
X125301500Y-83963000D02*
X146814700Y-83963000D01*
X119000000Y-77661500D02*
X125301500Y-83963000D01*
X119000000Y-71500000D02*
X119000000Y-77661500D01*
X152000000Y-90850000D02*
X152000000Y-89148300D01*
%TO.N,CO_AD15*%
X115350000Y-99500000D02*
X116000000Y-99500000D01*
X109450600Y-132698300D02*
X109000000Y-132698300D01*
X110593600Y-131555300D02*
X109450600Y-132698300D01*
X110593600Y-104249800D02*
X110593600Y-131555300D01*
X109000000Y-143000000D02*
X109000000Y-132698300D01*
%TO.N,CO_AD14*%
X116000000Y-97500000D02*
X115350000Y-97500000D01*
X111500000Y-143000000D02*
X111500000Y-132698300D01*
X111195300Y-101748800D02*
X110989500Y-101543000D01*
X111195300Y-132393600D02*
X111195300Y-101748800D01*
X111500000Y-132698300D02*
X111195300Y-132393600D01*
%TO.N,CA_AD15*%
X146000000Y-90850000D02*
X146000000Y-91500000D01*
X146000000Y-90850000D02*
X146000000Y-89148300D01*
X144279000Y-87427300D02*
X146000000Y-89148300D01*
X124927300Y-87427300D02*
X144279000Y-87427300D01*
X109000000Y-71500000D02*
X124927300Y-87427300D01*
%TO.N,CO_AD13*%
X116000000Y-95500000D02*
X115350000Y-95500000D01*
X114182800Y-132515500D02*
X114000000Y-132698300D01*
X114182800Y-130077100D02*
X114182800Y-132515500D01*
X112444100Y-128338400D02*
X114182800Y-130077100D01*
X112444100Y-96704200D02*
X112444100Y-128338400D01*
X113648300Y-95500000D02*
X112444100Y-96704200D01*
X115350000Y-95500000D02*
X113648300Y-95500000D01*
X114000000Y-143000000D02*
X114000000Y-132698300D01*
%TO.N,CA_AD14*%
X148000000Y-90850000D02*
X148000000Y-91500000D01*
X148000000Y-90850000D02*
X148000000Y-89148300D01*
X145672600Y-86820900D02*
X148000000Y-89148300D01*
X126820900Y-86820900D02*
X145672600Y-86820900D01*
X111500000Y-71500000D02*
X126820900Y-86820900D01*
%TO.N,CO_AD12*%
X115350000Y-93500000D02*
X116000000Y-93500000D01*
X119000000Y-127809100D02*
X119000000Y-143000000D01*
X116905900Y-125715000D02*
X119000000Y-127809100D01*
X116905900Y-112667400D02*
X116905900Y-125715000D01*
X117083500Y-112489800D02*
X116905900Y-112667400D01*
X117083500Y-94583500D02*
X117083500Y-112489800D01*
X116000000Y-93500000D02*
X117083500Y-94583500D01*
%TO.N,CO_AD3*%
X134000000Y-91500000D02*
X134000000Y-90850000D01*
X134000000Y-90850000D02*
X134000000Y-89148300D01*
X112027200Y-129043700D02*
X113577400Y-130593900D01*
X112027200Y-94192900D02*
X112027200Y-129043700D01*
X117071800Y-89148300D02*
X112027200Y-94192900D01*
X134000000Y-89148300D02*
X117071800Y-89148300D01*
%TO.N,CO_AD6*%
X128000000Y-90850000D02*
X128000000Y-91500000D01*
X128000000Y-91500000D02*
X128000000Y-92476700D01*
X128000100Y-95635100D02*
X139483400Y-107118400D01*
X128000100Y-92476700D02*
X128000100Y-95635100D01*
X128000000Y-92476700D02*
X128000100Y-92476700D01*
%TO.N,CO_AD5*%
X130000000Y-90850000D02*
X130000000Y-91500000D01*
X130000000Y-91500000D02*
X130000000Y-92476700D01*
X129749700Y-96499200D02*
X130760100Y-97509600D01*
X129749700Y-92727000D02*
X129749700Y-96499200D01*
X130000000Y-92476700D02*
X129749700Y-92727000D01*
%TO.N,CO_AD0*%
X140000000Y-91500000D02*
X140000000Y-90850000D01*
X140000000Y-90850000D02*
X140000000Y-89148300D01*
X109001100Y-95383100D02*
X109001100Y-132078400D01*
X116441000Y-87943200D02*
X109001100Y-95383100D01*
X138794900Y-87943200D02*
X116441000Y-87943200D01*
X140000000Y-89148300D02*
X138794900Y-87943200D01*
%TO.N,CO_AD11*%
X118000000Y-90850000D02*
X118000000Y-91500000D01*
X129000000Y-143000000D02*
X129000000Y-132698300D01*
X128863100Y-132698300D02*
X129000000Y-132698300D01*
X128498500Y-132333700D02*
X128863100Y-132698300D01*
%TO.N,CO_AD8*%
X124000000Y-90850000D02*
X124000000Y-91500000D01*
X113045800Y-115011000D02*
X113045800Y-104852600D01*
X113406000Y-115371200D02*
X113045800Y-115011000D01*
X141500000Y-129698800D02*
X129911100Y-118109900D01*
X141500000Y-143000000D02*
X141500000Y-129698800D01*
%TO.N,CO_AD10*%
X120000000Y-90850000D02*
X120000000Y-91500000D01*
X131500000Y-143000000D02*
X131500000Y-132698300D01*
X130041200Y-132698300D02*
X131500000Y-132698300D01*
X129068800Y-131725900D02*
X130041200Y-132698300D01*
%TO.N,CO_AD4*%
X132000000Y-90850000D02*
X132000000Y-91500000D01*
%TO.N,CO_AD9*%
X122000000Y-90850000D02*
X122000000Y-91500000D01*
X113648300Y-102868500D02*
X113424600Y-102644800D01*
X113648300Y-113873600D02*
X113648300Y-102868500D01*
X115761000Y-115986300D02*
X113648300Y-113873600D01*
X130630400Y-120215100D02*
X129909600Y-120215100D01*
X139000000Y-128584700D02*
X130630400Y-120215100D01*
X139000000Y-143000000D02*
X139000000Y-128584700D01*
%TO.N,CO_AD2*%
X136000000Y-91500000D02*
X136000000Y-90850000D01*
X136000000Y-90850000D02*
X136000000Y-89148300D01*
X135598300Y-88746600D02*
X136000000Y-89148300D01*
X116898000Y-88746600D02*
X135598300Y-88746600D01*
X111597000Y-94047600D02*
X116898000Y-88746600D01*
X111597000Y-131271500D02*
X111597000Y-94047600D01*
X112093500Y-131768000D02*
X111597000Y-131271500D01*
%TO.N,CO_AD7*%
X126000000Y-90850000D02*
X126000000Y-91500000D01*
X126000000Y-95840100D02*
X141604800Y-111444900D01*
X126000000Y-91500000D02*
X126000000Y-95840100D01*
%TO.N,CO_AD1*%
X138000000Y-91500000D02*
X138000000Y-90850000D01*
X138000000Y-90850000D02*
X138000000Y-89148300D01*
X109728700Y-95297000D02*
X109728700Y-131516200D01*
X116680800Y-88344900D02*
X109728700Y-95297000D01*
X137196600Y-88344900D02*
X116680800Y-88344900D01*
X138000000Y-89148300D02*
X137196600Y-88344900D01*
%TO.N,CA_AD10*%
X156000000Y-91500000D02*
X156000000Y-90850000D01*
X155220700Y-88369000D02*
X156000000Y-89148300D01*
X153136400Y-88369000D02*
X155220700Y-88369000D01*
X142140400Y-77373000D02*
X153136400Y-88369000D01*
X137373000Y-77373000D02*
X142140400Y-77373000D01*
X131500000Y-71500000D02*
X137373000Y-77373000D01*
X156000000Y-90850000D02*
X156000000Y-89148300D01*
%TO.N,Net-(U2-S_DAT)*%
X154000000Y-143000000D02*
X154000000Y-132698300D01*
X154000000Y-74842600D02*
X154000000Y-71500000D01*
X161667900Y-82510500D02*
X154000000Y-74842600D01*
X161667900Y-121259100D02*
X161667900Y-82510500D01*
X154000000Y-128927000D02*
X161667900Y-121259100D01*
X154000000Y-132698300D02*
X154000000Y-128927000D01*
%TO.N,CA_AD6*%
X158650000Y-99500000D02*
X158000000Y-99500000D01*
X142750000Y-70250000D02*
X139000000Y-66500000D01*
X142750000Y-72412100D02*
X142750000Y-70250000D01*
X153192600Y-82854700D02*
X142750000Y-72412100D01*
%TO.N,Net-(U2-VIDEO_CLK)*%
X155250000Y-67750000D02*
X154000000Y-66500000D01*
X155250000Y-72562200D02*
X155250000Y-67750000D01*
X162069600Y-79381800D02*
X155250000Y-72562200D01*
X162069600Y-121425400D02*
X162069600Y-79381800D01*
X161828200Y-121666800D02*
X162069600Y-121425400D01*
X161828200Y-124870100D02*
X161828200Y-121666800D01*
%TO.N,CA_AD9*%
X158000000Y-93500000D02*
X158650000Y-93500000D01*
X158000000Y-93500000D02*
X158000000Y-92523300D01*
X139813100Y-71500000D02*
X139000000Y-71500000D01*
X158000000Y-89686900D02*
X139813100Y-71500000D01*
X158000000Y-92523300D02*
X158000000Y-89686900D01*
%TO.N,Net-(U2-CIC_PIF)*%
X147017200Y-132181100D02*
X146500000Y-132698300D01*
X147017200Y-126172100D02*
X147017200Y-132181100D01*
X146500000Y-143000000D02*
X146500000Y-132698300D01*
%TO.N,CA_AD4*%
X158000000Y-103500000D02*
X158650000Y-103500000D01*
X132335400Y-69835400D02*
X129000000Y-66500000D01*
X136351700Y-69835400D02*
X132335400Y-69835400D01*
X137835800Y-71319500D02*
X136351700Y-69835400D01*
X137835800Y-71863200D02*
X137835800Y-71319500D01*
X152907300Y-86934700D02*
X137835800Y-71863200D01*
X154679400Y-86934700D02*
X152907300Y-86934700D01*
X157145100Y-89400400D02*
X154679400Y-86934700D01*
X157145100Y-92428200D02*
X157145100Y-89400400D01*
X156948300Y-92625000D02*
X157145100Y-92428200D01*
X156948300Y-102448300D02*
X156948300Y-92625000D01*
X158000000Y-103500000D02*
X156948300Y-102448300D01*
%TO.N,CA_AD1*%
X158000000Y-109500000D02*
X158650000Y-109500000D01*
X158000000Y-109500000D02*
X157023300Y-109500000D01*
X140709400Y-93186100D02*
X130370700Y-93186100D01*
X157023300Y-109500000D02*
X140709400Y-93186100D01*
%TO.N,CA_AD11*%
X154000000Y-90850000D02*
X154000000Y-91500000D01*
X154000000Y-90850000D02*
X154000000Y-89148300D01*
X153110800Y-89148300D02*
X154000000Y-89148300D01*
X142640300Y-78677800D02*
X153110800Y-89148300D01*
X136177800Y-78677800D02*
X142640300Y-78677800D01*
X129000000Y-71500000D02*
X136177800Y-78677800D01*
%TO.N,CA_AD5*%
X158000000Y-101500000D02*
X158650000Y-101500000D01*
%TO.N,CA_AD2*%
X158650000Y-107500000D02*
X158000000Y-107500000D01*
X156301600Y-107500000D02*
X142391600Y-93590000D01*
X158000000Y-107500000D02*
X156301600Y-107500000D01*
%TO.N,ALE_L*%
X120000000Y-114150000D02*
X120000000Y-115851700D01*
X121200000Y-117051700D02*
X121200000Y-132127200D01*
X120000000Y-115851700D02*
X121200000Y-117051700D01*
X120000000Y-114150000D02*
X120000000Y-113500000D01*
X116735900Y-92309200D02*
X116735900Y-90335200D01*
X120000000Y-95573300D02*
X116735900Y-92309200D01*
X120000000Y-113500000D02*
X120000000Y-95573300D01*
%TO.N,Net-(U2-CLK_PIF)*%
X149000000Y-132343900D02*
X149000000Y-143000000D01*
X160821700Y-120522200D02*
X149000000Y-132343900D01*
X160821700Y-83321700D02*
X160821700Y-120522200D01*
X149000000Y-71500000D02*
X160821700Y-83321700D01*
%TO.N,CA_AD3*%
X158000000Y-105500000D02*
X158650000Y-105500000D01*
X160216800Y-89025500D02*
X160216800Y-90074100D01*
X145063700Y-73872400D02*
X160216800Y-89025500D01*
X145063700Y-66002700D02*
X145063700Y-73872400D01*
X144056000Y-64995000D02*
X145063700Y-66002700D01*
X120505000Y-64995000D02*
X144056000Y-64995000D01*
X119000000Y-66500000D02*
X120505000Y-64995000D01*
%TO.N,ALE_H*%
X118000000Y-113500000D02*
X118000000Y-114150000D01*
X118000000Y-114150000D02*
X118000000Y-123430200D01*
X125359700Y-67640300D02*
X125359700Y-83056100D01*
X126500000Y-66500000D02*
X125359700Y-67640300D01*
%TO.N,CA_AD7*%
X158650000Y-97500000D02*
X158000000Y-97500000D01*
%TO.N,Net-(U2-COLD_RST)*%
X151500000Y-130658800D02*
X151500000Y-132698300D01*
X161266200Y-120892600D02*
X151500000Y-130658800D01*
X161266200Y-82748300D02*
X161266200Y-120892600D01*
X151500000Y-72982100D02*
X161266200Y-82748300D01*
X151500000Y-71500000D02*
X151500000Y-72982100D01*
X151500000Y-143000000D02*
X151500000Y-132698300D01*
%TO.N,Net-(U2-R_AUDIO)*%
X162890100Y-67890100D02*
X162890100Y-131974000D01*
X161500000Y-66500000D02*
X162890100Y-67890100D01*
%TO.N,Net-(U2-LAUDIO)*%
X161500000Y-143000000D02*
X161500000Y-132698300D01*
X162471300Y-72471300D02*
X161500000Y-71500000D01*
X162471300Y-121591700D02*
X162471300Y-72471300D01*
X162430100Y-121632900D02*
X162471300Y-121591700D01*
X162430100Y-131583200D02*
X162430100Y-121632900D01*
X161500000Y-132513300D02*
X162430100Y-131583200D01*
X161500000Y-132698300D02*
X161500000Y-132513300D01*
%TO.N,READ*%
X124000000Y-113500000D02*
X124000000Y-114150000D01*
X126500000Y-143000000D02*
X126500000Y-132698300D01*
X124000000Y-114150000D02*
X124000000Y-115851700D01*
X126254000Y-132698300D02*
X126500000Y-132698300D01*
X124000000Y-130444300D02*
X126254000Y-132698300D01*
X124000000Y-115851700D02*
X124000000Y-130444300D01*
%TO.N,CA_AD0*%
X158000000Y-111500000D02*
X158650000Y-111500000D01*
X141504900Y-95004900D02*
X130370700Y-95004900D01*
X158000000Y-111500000D02*
X141504900Y-95004900D01*
%TO.N,+3V3*%
X124000000Y-66500000D02*
X124000000Y-71500000D01*
X124000000Y-143000000D02*
X124000000Y-132698300D01*
X124000000Y-132698300D02*
X124000000Y-132472500D01*
X144000000Y-131149900D02*
X144000000Y-143000000D01*
X144000000Y-71500000D02*
X144000000Y-66500000D01*
X125082800Y-65417200D02*
X124000000Y-66500000D01*
X142917200Y-65417200D02*
X125082800Y-65417200D01*
X144000000Y-66500000D02*
X142917200Y-65417200D01*
X144000000Y-128338500D02*
X144000000Y-131149900D01*
X143673500Y-99246800D02*
X143673500Y-98494600D01*
X157091600Y-112664900D02*
X143673500Y-99246800D01*
X157091600Y-115690800D02*
X157091600Y-112664900D01*
X147212000Y-125570400D02*
X157091600Y-115690800D01*
X146768100Y-125570400D02*
X147212000Y-125570400D01*
X144000000Y-128338500D02*
X146768100Y-125570400D01*
X124675500Y-122440900D02*
X124675500Y-130269000D01*
X129643500Y-117472900D02*
X124675500Y-122440900D01*
X133134400Y-117472900D02*
X129643500Y-117472900D01*
X144000000Y-128338500D02*
X133134400Y-117472900D01*
%TO.N,Net-(U2-NC-Pad13)*%
X134000000Y-143000000D02*
X134000000Y-132698300D01*
X134915800Y-132698300D02*
X134000000Y-132698300D01*
X135113600Y-132500500D02*
X134915800Y-132698300D01*
%TO.N,GND*%
X159000000Y-66500000D02*
X159000000Y-71500000D01*
X104000000Y-143000000D02*
X104000000Y-132698300D01*
X159000000Y-143000000D02*
X159000000Y-137849100D01*
X156500000Y-143000000D02*
X156500000Y-132698300D01*
X106500000Y-143000000D02*
X106500000Y-132698300D01*
X116500000Y-143000000D02*
X116500000Y-132698300D01*
X116500000Y-132484300D02*
X116500000Y-132698300D01*
X164500000Y-95540000D02*
X164500000Y-96691700D01*
X164500000Y-120584100D02*
X164500000Y-120008300D01*
X164500000Y-120584100D02*
X164500000Y-121160000D01*
X164500000Y-132198300D02*
X164000000Y-132698300D01*
X164500000Y-121160000D02*
X164500000Y-132198300D01*
X116500000Y-71500000D02*
X116500000Y-69000000D01*
X116500000Y-69000000D02*
X116500000Y-66500000D01*
X116500000Y-69000000D02*
X106500000Y-69000000D01*
X106500000Y-71500000D02*
X106500000Y-69000000D01*
X106500000Y-69000000D02*
X106500000Y-66500000D01*
X157092900Y-132698300D02*
X156500000Y-132698300D01*
X157092900Y-132497100D02*
X157092900Y-132698300D01*
X162884000Y-65384000D02*
X164000000Y-66500000D01*
X160116000Y-65384000D02*
X162884000Y-65384000D01*
X159000000Y-66500000D02*
X160116000Y-65384000D01*
X164000000Y-66500000D02*
X164000000Y-71500000D01*
X164500000Y-95540000D02*
X164500000Y-94388300D01*
X163348300Y-72151700D02*
X164000000Y-71500000D01*
X163348300Y-94051100D02*
X163348300Y-72151700D01*
X163685500Y-94388300D02*
X163348300Y-94051100D01*
X164500000Y-94388300D02*
X163685500Y-94388300D01*
X164000000Y-143000000D02*
X164000000Y-132698300D01*
X157551500Y-132698300D02*
X157092900Y-132698300D01*
X159000000Y-134146800D02*
X157551500Y-132698300D01*
X159000000Y-137849100D02*
X159000000Y-134146800D01*
X138000000Y-113500000D02*
X138000000Y-114150000D01*
X141342600Y-119194300D02*
X151243100Y-119194300D01*
X138000000Y-115851700D02*
X141342600Y-119194300D01*
X138000000Y-114150000D02*
X138000000Y-115851700D01*
X164231500Y-96691700D02*
X164500000Y-96691700D01*
X163333700Y-97589500D02*
X164231500Y-96691700D01*
X163333700Y-119129900D02*
X163333700Y-97589500D01*
X164212100Y-120008300D02*
X163333700Y-119129900D01*
X164500000Y-120008300D02*
X164212100Y-120008300D01*
X104694100Y-132698300D02*
X104000000Y-132698300D01*
X106500000Y-132698300D02*
X105845600Y-132698300D01*
X105845600Y-132698300D02*
X104694100Y-132698300D01*
X105845600Y-132486500D02*
X105845600Y-132698300D01*
X104694100Y-104597900D02*
X104694100Y-132698300D01*
X103787900Y-103691700D02*
X104694100Y-104597900D01*
X103500000Y-103691700D02*
X103787900Y-103691700D01*
X103500000Y-102540000D02*
X103500000Y-103691700D01*
X102685500Y-101388300D02*
X103500000Y-101388300D01*
X102348300Y-101051100D02*
X102685500Y-101388300D01*
X102348300Y-73151700D02*
X102348300Y-101051100D01*
X104000000Y-71500000D02*
X102348300Y-73151700D01*
X103500000Y-102540000D02*
X103500000Y-101388300D01*
%TO.N,CA_AD8*%
X158000000Y-95500000D02*
X158650000Y-95500000D01*
X158650000Y-95500000D02*
X160351700Y-95500000D01*
X160351700Y-91059800D02*
X160351700Y-95500000D01*
X141500000Y-72208100D02*
X160351700Y-91059800D01*
X141500000Y-71500000D02*
X141500000Y-72208100D01*
%TO.N,Net-(U2-NC-Pad14)*%
X137722000Y-131476300D02*
X136500000Y-132698300D01*
X137722000Y-128157600D02*
X137722000Y-131476300D01*
X136500000Y-143000000D02*
X136500000Y-132698300D01*
X136500000Y-74255100D02*
X138203000Y-75958100D01*
X136500000Y-71500000D02*
X136500000Y-74255100D01*
%TD*%
M02*
