%TF.GenerationSoftware,KiCad,Pcbnew,8.0.6*%
%TF.CreationDate,2024-10-17T23:32:30-05:00*%
%TF.ProjectId,n64_gamecat_rp2350b,6e36345f-6761-46d6-9563-61745f727032,rev?*%
%TF.SameCoordinates,Original*%
%TF.FileFunction,Copper,L2,Bot*%
%TF.FilePolarity,Positive*%
%FSLAX46Y46*%
G04 Gerber Fmt 4.6, Leading zero omitted, Abs format (unit mm)*
G04 Created by KiCad (PCBNEW 8.0.6) date 2024-10-17 23:32:30*
%MOMM*%
%LPD*%
G01*
G04 APERTURE LIST*
%TA.AperFunction,ComponentPad*%
%ADD10C,1.350000*%
%TD*%
%TA.AperFunction,ComponentPad*%
%ADD11O,1.350000X1.350000*%
%TD*%
%TA.AperFunction,SMDPad,CuDef*%
%ADD12R,1.800000X20.000000*%
%TD*%
%TA.AperFunction,ComponentPad*%
%ADD13C,1.524000*%
%TD*%
%TA.AperFunction,ViaPad*%
%ADD14C,0.600000*%
%TD*%
%TA.AperFunction,Conductor*%
%ADD15C,0.200000*%
%TD*%
G04 APERTURE END LIST*
D10*
%TO.P,U4,1,GPIO0*%
%TO.N,unconnected-(U4-GPIO0-Pad1)*%
X155000000Y-111500000D03*
D11*
%TO.P,U4,2,GPIO1*%
%TO.N,unconnected-(U4-GPIO1-Pad2)*%
X155000000Y-109500000D03*
%TO.P,U4,3,GPIO2*%
%TO.N,unconnected-(U4-GPIO2-Pad3)*%
X155000000Y-107500000D03*
%TO.P,U4,4,GPIO3*%
%TO.N,unconnected-(U4-GPIO3-Pad4)*%
X155000000Y-105500000D03*
%TO.P,U4,5,GPIO4*%
%TO.N,unconnected-(U4-GPIO4-Pad5)*%
X155000000Y-103500000D03*
%TO.P,U4,6,GPIO5*%
%TO.N,unconnected-(U4-GPIO5-Pad6)*%
X155000000Y-101500000D03*
%TO.P,U4,7,GPIO6*%
%TO.N,unconnected-(U4-GPIO6-Pad7)*%
X155000000Y-99500000D03*
%TO.P,U4,8,GPIO7*%
%TO.N,unconnected-(U4-GPIO7-Pad8)*%
X155000000Y-97500000D03*
%TO.P,U4,9,GPIO8*%
%TO.N,unconnected-(U4-GPIO8-Pad9)*%
X155000000Y-95500000D03*
%TO.P,U4,10,GPIO9*%
%TO.N,unconnected-(U4-GPIO9-Pad10)*%
X155000000Y-93500000D03*
%TO.P,U4,11,GPIO10*%
%TO.N,unconnected-(U4-GPIO10-Pad11)*%
X153000000Y-91500000D03*
%TO.P,U4,12,GPIO11*%
%TO.N,unconnected-(U4-GPIO11-Pad12)*%
X151000000Y-91500000D03*
%TO.P,U4,13,GPIO12*%
%TO.N,unconnected-(U4-GPIO12-Pad13)*%
X149000000Y-91500000D03*
%TO.P,U4,14,GPIO13*%
%TO.N,unconnected-(U4-GPIO13-Pad14)*%
X147000000Y-91500000D03*
%TO.P,U4,15,GPIO14*%
%TO.N,CA_AD7*%
X145000000Y-91500000D03*
%TO.P,U4,16,GPIO15*%
%TO.N,CA_AD8*%
X143000000Y-91500000D03*
%TO.P,U4,17,GPIO16*%
%TO.N,CA_AD6*%
X141000000Y-91500000D03*
%TO.P,U4,18,GPIO17*%
%TO.N,CA_AD9*%
X139000000Y-91500000D03*
%TO.P,U4,19,GPIO18*%
%TO.N,CA_AD5*%
X137000000Y-91500000D03*
%TO.P,U4,20,GPIO19*%
%TO.N,CA_AD10*%
X135000000Y-91500000D03*
%TO.P,U4,21,GPIO20*%
%TO.N,CA_AD4*%
X133000000Y-91500000D03*
%TO.P,U4,22,GPIO21*%
%TO.N,CA_AD11*%
X131000000Y-91500000D03*
%TO.P,U4,23,GPIO22*%
%TO.N,CA_AD3*%
X129000000Y-91500000D03*
%TO.P,U4,24,GPIO23*%
%TO.N,CA_AD12*%
X127000000Y-91500000D03*
%TO.P,U4,25,GPIO24*%
%TO.N,CA_AD2*%
X125000000Y-91500000D03*
%TO.P,U4,26,GPIO25*%
%TO.N,CA_AD13*%
X123000000Y-91500000D03*
%TO.P,U4,27,GPIO26*%
%TO.N,CA_AD1*%
X121000000Y-91500000D03*
%TO.P,U4,28,GPIO27*%
%TO.N,CA_AD14*%
X119000000Y-91500000D03*
%TO.P,U4,29,GPIO28*%
%TO.N,CA_AD0*%
X117000000Y-91500000D03*
%TO.P,U4,30,GPIO29*%
%TO.N,CA_AD15*%
X115000000Y-91500000D03*
%TO.P,U4,31,GPIO30*%
%TO.N,unconnected-(U4-GPIO30-Pad31)*%
X113000000Y-93500000D03*
%TO.P,U4,32,GPIO31*%
%TO.N,READ*%
X113000000Y-95500000D03*
%TO.P,U4,33,GPIO32*%
%TO.N,WRITE*%
X113000000Y-97500000D03*
%TO.P,U4,34,GPIO33*%
%TO.N,ALE_L*%
X113000000Y-99500000D03*
%TO.P,U4,35,GPIO34*%
%TO.N,ALE_H*%
X113000000Y-101500000D03*
%TO.P,U4,36,GPIO35*%
%TO.N,unconnected-(U4-GPIO35-Pad36)*%
X113000000Y-103500000D03*
%TO.P,U4,37,GPIO36*%
%TO.N,unconnected-(U4-GPIO36-Pad37)*%
X113000000Y-105500000D03*
%TO.P,U4,38,GPIO37*%
%TO.N,unconnected-(U4-GPIO37-Pad38)*%
X113000000Y-107500000D03*
%TO.P,U4,39,GPIO38*%
%TO.N,unconnected-(U4-GPIO38-Pad39)*%
X113000000Y-109500000D03*
%TO.P,U4,40,GPIO39*%
%TO.N,unconnected-(U4-GPIO39-Pad40)*%
X113000000Y-111500000D03*
%TO.P,U4,41,GPIO40*%
%TO.N,CO_AD15*%
X115000000Y-113500000D03*
%TO.P,U4,42,GPIO41*%
%TO.N,CO_AD0*%
X117000000Y-113500000D03*
%TO.P,U4,43,GPIO42*%
%TO.N,CO_AD14*%
X119000000Y-113500000D03*
%TO.P,U4,44,GPIO43*%
%TO.N,CO_AD1*%
X121000000Y-113500000D03*
%TO.P,U4,45,GPIO44*%
%TO.N,CO_AD13*%
X123000000Y-113500000D03*
%TO.P,U4,46,GPIO45*%
%TO.N,CO_AD2*%
X125000000Y-113500000D03*
%TO.P,U4,47,GPIO46*%
%TO.N,CO_AD12*%
X127000000Y-113500000D03*
%TO.P,U4,48,GPIO47*%
%TO.N,CO_AD3*%
X129000000Y-113500000D03*
%TO.P,U4,49,GPIO48*%
%TO.N,CO_AD11*%
X131000000Y-113500000D03*
%TO.P,U4,50,GPIO49*%
%TO.N,CO_AD4*%
X133000000Y-113500000D03*
%TO.P,U4,51,GPIO50*%
%TO.N,CO_AD10*%
X135000000Y-113500000D03*
%TO.P,U4,52,GPIO51*%
%TO.N,CO_AD5*%
X137000000Y-113500000D03*
%TO.P,U4,53,GPIO52*%
%TO.N,CO_AD9*%
X139000000Y-113500000D03*
%TO.P,U4,54,GPIO53*%
%TO.N,CO_AD6*%
X141000000Y-113500000D03*
%TO.P,U4,55,GPIO54*%
%TO.N,CO_AD8*%
X143000000Y-113500000D03*
%TO.P,U4,56,GPIO55*%
%TO.N,CO_AD7*%
X145000000Y-113500000D03*
%TO.P,U4,57,GPIO56*%
%TO.N,unconnected-(U4-GPIO56-Pad57)*%
X147000000Y-113500000D03*
%TO.P,U4,58,GPIO57*%
%TO.N,unconnected-(U4-GPIO57-Pad58)*%
X149000000Y-113500000D03*
%TO.P,U4,59,GPIO58*%
%TO.N,unconnected-(U4-GPIO58-Pad59)*%
X151000000Y-113500000D03*
%TO.P,U4,60,GPIO59*%
%TO.N,unconnected-(U4-GPIO59-Pad60)*%
X153000000Y-113500000D03*
%TD*%
D12*
%TO.P,U3,26,GND*%
%TO.N,GND*%
X104000000Y-143000000D03*
%TO.P,U3,27,GND*%
X106500000Y-143000000D03*
%TO.P,U3,28,AD0*%
%TO.N,CO_AD0*%
X109000000Y-143000000D03*
%TO.P,U3,29,AD1*%
%TO.N,CO_AD1*%
X111500000Y-143000000D03*
%TO.P,U3,30,AD2*%
%TO.N,CO_AD2*%
X114000000Y-143000000D03*
%TO.P,U3,31,GND*%
%TO.N,GND*%
X116500000Y-143000000D03*
%TO.P,U3,32,AD3*%
%TO.N,CO_AD3*%
X119000000Y-143000000D03*
%TO.P,U3,33,ALE_L*%
%TO.N,ALE_L*%
X121500000Y-143000000D03*
%TO.P,U3,34,VCC*%
%TO.N,+3V3*%
X124000000Y-143000000D03*
%TO.P,U3,35,ALE_H*%
%TO.N,ALE_H*%
X126500000Y-143000000D03*
%TO.P,U3,36,AD4*%
%TO.N,CO_AD4*%
X129000000Y-143000000D03*
%TO.P,U3,37,AD5*%
%TO.N,CO_AD5*%
X131500000Y-143000000D03*
%TO.P,U3,38,NC*%
%TO.N,Net-(U2-NC-Pad38)*%
X134000000Y-143000000D03*
%TO.P,U3,39,NC*%
%TO.N,Net-(U2-NC-Pad39)*%
X136500000Y-143000000D03*
%TO.P,U3,40,AD6*%
%TO.N,CO_AD6*%
X139000000Y-143000000D03*
%TO.P,U3,41,AD7*%
%TO.N,CO_AD7*%
X141500000Y-143000000D03*
%TO.P,U3,42,VCC*%
%TO.N,+3V3*%
X144000000Y-143000000D03*
%TO.P,U3,43,PIF_CIC*%
%TO.N,Net-(U2-PIF_CIC)*%
X146500000Y-143000000D03*
%TO.P,U3,44,JTAG_CLK*%
%TO.N,Net-(U2-JTAG_CLK)*%
X149000000Y-143000000D03*
%TO.P,U3,45,NMI_R4300*%
%TO.N,Net-(U2-NMI_R4300)*%
X151500000Y-143000000D03*
%TO.P,U3,46,VIDEO_CLK*%
%TO.N,Net-(U2-VIDEO_CLK)*%
X154000000Y-143000000D03*
%TO.P,U3,47,GND*%
%TO.N,GND*%
X156500000Y-143000000D03*
%TO.P,U3,48,GND*%
X159000000Y-143000000D03*
%TO.P,U3,49,R_AUDIO*%
%TO.N,Net-(U2-R_AUDIO)*%
X161500000Y-143000000D03*
%TO.P,U3,50,GND*%
%TO.N,GND*%
X164000000Y-143000000D03*
%TD*%
D13*
%TO.P,U2,1,GND*%
%TO.N,GND*%
X104000000Y-71500000D03*
%TO.P,U2,2,GND*%
X106500000Y-71500000D03*
%TO.P,U2,3,AD15*%
%TO.N,CA_AD15*%
X109000000Y-71500000D03*
%TO.P,U2,4,AD14*%
%TO.N,CA_AD14*%
X111500000Y-71500000D03*
%TO.P,U2,5,AD13*%
%TO.N,CA_AD13*%
X114000000Y-71500000D03*
%TO.P,U2,6,GND*%
%TO.N,GND*%
X116500000Y-71500000D03*
%TO.P,U2,7,AD12*%
%TO.N,CA_AD12*%
X119000000Y-71500000D03*
%TO.P,U2,8,WRITE*%
%TO.N,WRITE*%
X121500000Y-71500000D03*
%TO.P,U2,9,VCC*%
%TO.N,+3V3*%
X124000000Y-71500000D03*
%TO.P,U2,10,READ*%
%TO.N,READ*%
X126500000Y-71500000D03*
%TO.P,U2,11,AD11*%
%TO.N,CA_AD11*%
X129000000Y-71500000D03*
%TO.P,U2,12,AD10*%
%TO.N,CA_AD10*%
X131500000Y-71500000D03*
%TO.P,U2,13,NC*%
%TO.N,Net-(U2-NC-Pad13)*%
X134000000Y-71500000D03*
%TO.P,U2,14,NC*%
%TO.N,Net-(U2-NC-Pad14)*%
X136500000Y-71500000D03*
%TO.P,U2,15,AD9*%
%TO.N,CA_AD9*%
X139000000Y-71500000D03*
%TO.P,U2,16,AD8*%
%TO.N,CA_AD8*%
X141500000Y-71500000D03*
%TO.P,U2,17,VCC*%
%TO.N,+3V3*%
X144000000Y-71500000D03*
%TO.P,U2,18,CIC_PIF*%
%TO.N,Net-(U2-CIC_PIF)*%
X146500000Y-71500000D03*
%TO.P,U2,19,CLK_PIF*%
%TO.N,Net-(U2-CLK_PIF)*%
X149000000Y-71500000D03*
%TO.P,U2,20,COLD_RST*%
%TO.N,Net-(U2-COLD_RST)*%
X151500000Y-71500000D03*
%TO.P,U2,21,S_DAT*%
%TO.N,Net-(U2-S_DAT)*%
X154000000Y-71500000D03*
%TO.P,U2,22,GND*%
%TO.N,GND*%
X156500000Y-71500000D03*
%TO.P,U2,23,GND*%
X159000000Y-71500000D03*
%TO.P,U2,24,LAUDIO*%
%TO.N,Net-(U2-LAUDIO)*%
X161500000Y-71500000D03*
%TO.P,U2,25,GND*%
%TO.N,GND*%
X164000000Y-71500000D03*
%TO.P,U2,26,GND*%
X104000000Y-66500000D03*
%TO.P,U2,27,GND*%
X106500000Y-66500000D03*
%TO.P,U2,28,AD0*%
%TO.N,CA_AD0*%
X109000000Y-66500000D03*
%TO.P,U2,29,AD1*%
%TO.N,CA_AD1*%
X111500000Y-66500000D03*
%TO.P,U2,30,AD2*%
%TO.N,CA_AD2*%
X114000000Y-66500000D03*
%TO.P,U2,31,GND*%
%TO.N,GND*%
X116500000Y-66500000D03*
%TO.P,U2,32,AD3*%
%TO.N,CA_AD3*%
X119000000Y-66500000D03*
%TO.P,U2,33,ALE_L*%
%TO.N,ALE_L*%
X121500000Y-66500000D03*
%TO.P,U2,34,VCC*%
%TO.N,+3V3*%
X124000000Y-66500000D03*
%TO.P,U2,35,ALE_H*%
%TO.N,ALE_H*%
X126500000Y-66500000D03*
%TO.P,U2,36,AD4*%
%TO.N,CA_AD4*%
X129000000Y-66500000D03*
%TO.P,U2,37,AD5*%
%TO.N,CA_AD5*%
X131500000Y-66500000D03*
%TO.P,U2,38,NC*%
%TO.N,Net-(U2-NC-Pad38)*%
X134000000Y-66500000D03*
%TO.P,U2,39,NC*%
%TO.N,Net-(U2-NC-Pad39)*%
X136500000Y-66500000D03*
%TO.P,U2,40,AD6*%
%TO.N,CA_AD6*%
X139000000Y-66500000D03*
%TO.P,U2,41,AD7*%
%TO.N,CA_AD7*%
X141500000Y-66500000D03*
%TO.P,U2,42,VCC*%
%TO.N,+3V3*%
X144000000Y-66500000D03*
%TO.P,U2,43,PIF_CIC*%
%TO.N,Net-(U2-PIF_CIC)*%
X146500000Y-66500000D03*
%TO.P,U2,44,JTAG_CLK*%
%TO.N,Net-(U2-JTAG_CLK)*%
X149000000Y-66500000D03*
%TO.P,U2,45,NMI_R4300*%
%TO.N,Net-(U2-NMI_R4300)*%
X151500000Y-66500000D03*
%TO.P,U2,46,VIDEO_CLK*%
%TO.N,Net-(U2-VIDEO_CLK)*%
X154000000Y-66500000D03*
%TO.P,U2,47,GND*%
%TO.N,GND*%
X156500000Y-66500000D03*
%TO.P,U2,48,GND*%
X159000000Y-66500000D03*
%TO.P,U2,49,R_AUDIO*%
%TO.N,Net-(U2-R_AUDIO)*%
X161500000Y-66500000D03*
%TO.P,U2,50,GND*%
%TO.N,GND*%
X164000000Y-66500000D03*
%TD*%
D14*
%TO.N,WRITE*%
X122564800Y-131641900D03*
%TO.N,CO_AD3*%
X121334400Y-131782100D03*
%TO.N,CO_AD2*%
X115523300Y-131938200D03*
%TO.N,Net-(U2-R_AUDIO)*%
X160399900Y-132347700D03*
%TO.N,READ*%
X126585800Y-126880600D03*
%TO.N,+3V3*%
X143112900Y-132495200D03*
X129201700Y-111995000D03*
X125250000Y-132483400D03*
%TO.N,Net-(U2-NC-Pad13)*%
X133233200Y-118332100D03*
%TO.N,GND*%
X165406100Y-144406100D03*
X116356000Y-132475000D03*
X112109300Y-129450900D03*
X157750000Y-132585000D03*
X105250000Y-132585000D03*
%TO.N,Net-(U2-NC-Pad14)*%
X136376200Y-116591400D03*
%TD*%
D15*
%TO.N,WRITE*%
X113000000Y-97500000D02*
X113000000Y-98476700D01*
X123998600Y-130208100D02*
X122564800Y-131641900D01*
X123998600Y-109109000D02*
X123998600Y-130208100D01*
X113366300Y-98476700D02*
X123998600Y-109109000D01*
X113000000Y-98476700D02*
X113366300Y-98476700D01*
%TO.N,CA_AD13*%
X114000000Y-81523300D02*
X123000000Y-90523300D01*
X114000000Y-71500000D02*
X114000000Y-81523300D01*
X123000000Y-91500000D02*
X123000000Y-90523300D01*
%TO.N,CA_AD12*%
X119000000Y-82523300D02*
X127000000Y-90523300D01*
X119000000Y-71500000D02*
X119000000Y-82523300D01*
X127000000Y-91500000D02*
X127000000Y-90523300D01*
%TO.N,CA_AD15*%
X109000000Y-84523300D02*
X115000000Y-90523300D01*
X109000000Y-71500000D02*
X109000000Y-84523300D01*
X115000000Y-91500000D02*
X115000000Y-90523300D01*
%TO.N,CA_AD14*%
X111500000Y-83023300D02*
X119000000Y-90523300D01*
X111500000Y-71500000D02*
X111500000Y-83023300D01*
X119000000Y-91500000D02*
X119000000Y-90523300D01*
%TO.N,CO_AD3*%
X119000000Y-143000000D02*
X119000000Y-132698300D01*
X120418200Y-132698300D02*
X121334400Y-131782100D01*
X119000000Y-132698300D02*
X120418200Y-132698300D01*
%TO.N,CO_AD6*%
X141000000Y-113500000D02*
X141000000Y-114476700D01*
X139000000Y-143000000D02*
X139000000Y-132698300D01*
X141000000Y-130698300D02*
X141000000Y-114476700D01*
X139000000Y-132698300D02*
X141000000Y-130698300D01*
%TO.N,CO_AD5*%
X137000000Y-118873900D02*
X137000000Y-113500000D01*
X131500000Y-124373900D02*
X137000000Y-118873900D01*
X131500000Y-143000000D02*
X131500000Y-124373900D01*
%TO.N,CO_AD0*%
X109000000Y-122476700D02*
X117000000Y-114476700D01*
X109000000Y-143000000D02*
X109000000Y-122476700D01*
X117000000Y-113500000D02*
X117000000Y-114476700D01*
%TO.N,CO_AD4*%
X133840600Y-115317300D02*
X133000000Y-114476700D01*
X133840600Y-118690400D02*
X133840600Y-115317300D01*
X129000000Y-123531000D02*
X133840600Y-118690400D01*
X129000000Y-143000000D02*
X129000000Y-123531000D01*
X133000000Y-113500000D02*
X133000000Y-114476700D01*
%TO.N,CO_AD2*%
X114763200Y-132698300D02*
X115523300Y-131938200D01*
X114000000Y-132698300D02*
X114763200Y-132698300D01*
X114000000Y-143000000D02*
X114000000Y-132698300D01*
%TO.N,CO_AD7*%
X141500000Y-117976700D02*
X145000000Y-114476700D01*
X141500000Y-143000000D02*
X141500000Y-117976700D01*
X145000000Y-113500000D02*
X145000000Y-114476700D01*
%TO.N,CO_AD1*%
X111500000Y-143000000D02*
X111500000Y-132698300D01*
X121000000Y-113500000D02*
X121000000Y-114476700D01*
X111500000Y-123976700D02*
X111500000Y-132698300D01*
X121000000Y-114476700D02*
X111500000Y-123976700D01*
%TO.N,Net-(U2-VIDEO_CLK)*%
X154000000Y-74952000D02*
X154000000Y-143000000D01*
X155093700Y-73858300D02*
X154000000Y-74952000D01*
X155093700Y-67593700D02*
X155093700Y-73858300D01*
X154000000Y-66500000D02*
X155093700Y-67593700D01*
%TO.N,Net-(U2-NMI_R4300)*%
X152000000Y-132198300D02*
X151500000Y-132698300D01*
X152000000Y-81749300D02*
X152000000Y-132198300D01*
X152589900Y-81159400D02*
X152000000Y-81749300D01*
X152589900Y-67589900D02*
X152589900Y-81159400D01*
X151500000Y-66500000D02*
X152589900Y-67589900D01*
X151500000Y-143000000D02*
X151500000Y-132698300D01*
%TO.N,CA_AD1*%
X112750000Y-82273300D02*
X121000000Y-90523300D01*
X112750000Y-67750000D02*
X112750000Y-82273300D01*
X111500000Y-66500000D02*
X112750000Y-67750000D01*
X121000000Y-91500000D02*
X121000000Y-90523300D01*
%TO.N,Net-(U2-NC-Pad39)*%
X140098800Y-70098800D02*
X136500000Y-66500000D01*
X140098800Y-72534600D02*
X140098800Y-70098800D01*
X140000000Y-72633400D02*
X140098800Y-72534600D01*
X140000000Y-127318600D02*
X140000000Y-72633400D01*
X136500000Y-130818600D02*
X140000000Y-127318600D01*
X136500000Y-143000000D02*
X136500000Y-130818600D01*
%TO.N,CA_AD2*%
X115250000Y-80773300D02*
X125000000Y-90523300D01*
X115250000Y-67750000D02*
X115250000Y-80773300D01*
X114000000Y-66500000D02*
X115250000Y-67750000D01*
X125000000Y-91500000D02*
X125000000Y-90523300D01*
%TO.N,ALE_L*%
X121500000Y-143000000D02*
X121500000Y-132698300D01*
X121944500Y-132253800D02*
X121500000Y-132698300D01*
X121944500Y-129900400D02*
X121944500Y-132253800D01*
X122000000Y-129844900D02*
X121944500Y-129900400D01*
X122000000Y-108500000D02*
X122000000Y-129844900D01*
X113000000Y-99500000D02*
X122000000Y-108500000D01*
%TO.N,Net-(U2-JTAG_CLK)*%
X147999900Y-131698200D02*
X149000000Y-132698300D01*
X147999900Y-81361200D02*
X147999900Y-131698200D01*
X147920400Y-81281700D02*
X147999900Y-81361200D01*
X147920400Y-67579600D02*
X147920400Y-81281700D01*
X149000000Y-66500000D02*
X147920400Y-67579600D01*
X149000000Y-143000000D02*
X149000000Y-132698300D01*
%TO.N,CA_AD3*%
X120250000Y-81773300D02*
X129000000Y-90523300D01*
X120250000Y-67750000D02*
X120250000Y-81773300D01*
X119000000Y-66500000D02*
X120250000Y-67750000D01*
X129000000Y-91500000D02*
X129000000Y-90523300D01*
%TO.N,ALE_H*%
X113000000Y-101500000D02*
X113000000Y-100523300D01*
X126500000Y-143000000D02*
X126500000Y-132698300D01*
X129998500Y-91903700D02*
X127402200Y-94500000D01*
X129998500Y-90948500D02*
X129998500Y-91903700D01*
X127750000Y-88700000D02*
X129998500Y-90948500D01*
X127750000Y-67750000D02*
X127750000Y-88700000D01*
X126500000Y-66500000D02*
X127750000Y-67750000D01*
X112595200Y-100523300D02*
X113000000Y-100523300D01*
X111979400Y-99907500D02*
X112595200Y-100523300D01*
X111979400Y-95131400D02*
X111979400Y-99907500D01*
X112610800Y-94500000D02*
X111979400Y-95131400D01*
X127402200Y-94500000D02*
X112610800Y-94500000D01*
X130000000Y-97097800D02*
X127402200Y-94500000D01*
X130000000Y-120441800D02*
X130000000Y-97097800D01*
X128591400Y-121850400D02*
X130000000Y-120441800D01*
X128591400Y-130606900D02*
X128591400Y-121850400D01*
X126500000Y-132698300D02*
X128591400Y-130606900D01*
%TO.N,Net-(U2-R_AUDIO)*%
X160750500Y-132698300D02*
X160399900Y-132347700D01*
X161500000Y-132698300D02*
X160750500Y-132698300D01*
X161500000Y-143000000D02*
X161500000Y-132698300D01*
%TO.N,READ*%
X126000000Y-126294800D02*
X126585800Y-126880600D01*
X126000000Y-109110400D02*
X126000000Y-126294800D01*
X113366300Y-96476700D02*
X126000000Y-109110400D01*
X113000000Y-96476700D02*
X113366300Y-96476700D01*
X113000000Y-95500000D02*
X113000000Y-96476700D01*
%TO.N,CA_AD0*%
X110250000Y-83773300D02*
X117000000Y-90523300D01*
X110250000Y-67750000D02*
X110250000Y-83773300D01*
X109000000Y-66500000D02*
X110250000Y-67750000D01*
X117000000Y-91500000D02*
X117000000Y-90523300D01*
%TO.N,+3V3*%
X144000000Y-143000000D02*
X144000000Y-132698300D01*
X143316000Y-132698300D02*
X143112900Y-132495200D01*
X144000000Y-132698300D02*
X143316000Y-132698300D01*
X125074500Y-65425500D02*
X124000000Y-66500000D01*
X142925500Y-65425500D02*
X125074500Y-65425500D01*
X144000000Y-66500000D02*
X142925500Y-65425500D01*
X124000000Y-143000000D02*
X124000000Y-132698300D01*
X125035100Y-132698300D02*
X124000000Y-132698300D01*
X125250000Y-132483400D02*
X125035100Y-132698300D01*
X127976800Y-129756600D02*
X125250000Y-132483400D01*
X127976800Y-113119100D02*
X127976800Y-129756600D01*
X129100900Y-111995000D02*
X127976800Y-113119100D01*
X129201700Y-111995000D02*
X129100900Y-111995000D01*
%TO.N,Net-(U2-NC-Pad13)*%
X132000000Y-117098900D02*
X133233200Y-118332100D01*
X132000000Y-73500000D02*
X132000000Y-117098900D01*
X134000000Y-71500000D02*
X132000000Y-73500000D01*
%TO.N,Net-(U2-NC-Pad38)*%
X134000000Y-132307800D02*
X134000000Y-143000000D01*
X138000000Y-128307800D02*
X134000000Y-132307800D01*
X138000000Y-81361300D02*
X138000000Y-128307800D01*
X137865700Y-81227000D02*
X138000000Y-81361300D01*
X137865700Y-70365700D02*
X137865700Y-81227000D01*
X134000000Y-66500000D02*
X137865700Y-70365700D01*
%TO.N,GND*%
X159000000Y-71500000D02*
X156500000Y-71500000D01*
X164000000Y-143000000D02*
X165406100Y-144406100D01*
X156500000Y-143000000D02*
X156500000Y-132698300D01*
X164000000Y-143000000D02*
X164000000Y-132698300D01*
X159000000Y-143000000D02*
X159000000Y-132698300D01*
X116500000Y-143000000D02*
X116500000Y-132698300D01*
X159000000Y-66500000D02*
X156500000Y-66500000D01*
X104000000Y-143000000D02*
X104000000Y-132698300D01*
X106500000Y-71500000D02*
X104000000Y-71500000D01*
X106500000Y-143000000D02*
X106500000Y-132698300D01*
X162923400Y-72576600D02*
X161500000Y-72576600D01*
X164000000Y-71500000D02*
X162923400Y-72576600D01*
X160076600Y-72576600D02*
X159000000Y-71500000D01*
X161500000Y-72576600D02*
X160076600Y-72576600D01*
X161500000Y-72576600D02*
X161500000Y-130198300D01*
X159000000Y-132698300D02*
X161500000Y-130198300D01*
X161500000Y-130198300D02*
X164000000Y-132698300D01*
X116356000Y-132554300D02*
X116356000Y-132475000D01*
X116500000Y-132698300D02*
X116356000Y-132554300D01*
X159000000Y-132698300D02*
X157750000Y-132698300D01*
X157750000Y-132698300D02*
X156500000Y-132698300D01*
X157750000Y-132698300D02*
X157750000Y-132585000D01*
X105250000Y-132585000D02*
X105250000Y-132698300D01*
X106500000Y-132698300D02*
X105250000Y-132698300D01*
X105250000Y-132698300D02*
X104000000Y-132698300D01*
X106500000Y-66500000D02*
X104000000Y-66500000D01*
X113886900Y-129450900D02*
X112109300Y-129450900D01*
X116356000Y-131920000D02*
X113886900Y-129450900D01*
X116356000Y-132475000D02*
X116356000Y-131920000D01*
%TO.N,Net-(U2-NC-Pad14)*%
X136000000Y-116215200D02*
X136376200Y-116591400D01*
X136000000Y-72000000D02*
X136000000Y-116215200D01*
X136500000Y-71500000D02*
X136000000Y-72000000D01*
%TO.N,Net-(U2-PIF_CIC)*%
X145999900Y-132198200D02*
X146500000Y-132698300D01*
X145999900Y-81749200D02*
X145999900Y-132198200D01*
X145410200Y-81159500D02*
X145999900Y-81749200D01*
X145410200Y-67589800D02*
X145410200Y-81159500D01*
X146500000Y-66500000D02*
X145410200Y-67589800D01*
X146500000Y-143000000D02*
X146500000Y-132698300D01*
%TD*%
M02*
