%TF.GenerationSoftware,KiCad,Pcbnew,8.0.6*%
%TF.CreationDate,2024-10-17T23:32:30-05:00*%
%TF.ProjectId,n64_gamecat_rp2350b,6e36345f-6761-46d6-9563-61745f727032,rev?*%
%TF.SameCoordinates,Original*%
%TF.FileFunction,Copper,L1,Top*%
%TF.FilePolarity,Positive*%
%FSLAX46Y46*%
G04 Gerber Fmt 4.6, Leading zero omitted, Abs format (unit mm)*
G04 Created by KiCad (PCBNEW 8.0.6) date 2024-10-17 23:32:30*
%MOMM*%
%LPD*%
G01*
G04 APERTURE LIST*
%TA.AperFunction,SMDPad,CuDef*%
%ADD10R,2.800000X1.500000*%
%TD*%
%TA.AperFunction,ComponentPad*%
%ADD11C,1.350000*%
%TD*%
%TA.AperFunction,ComponentPad*%
%ADD12O,1.350000X1.350000*%
%TD*%
%TA.AperFunction,SMDPad,CuDef*%
%ADD13R,1.500000X2.800000*%
%TD*%
%TA.AperFunction,SMDPad,CuDef*%
%ADD14R,1.800000X20.000000*%
%TD*%
%TA.AperFunction,ComponentPad*%
%ADD15C,1.524000*%
%TD*%
%TA.AperFunction,ViaPad*%
%ADD16C,0.600000*%
%TD*%
%TA.AperFunction,Conductor*%
%ADD17C,0.200000*%
%TD*%
G04 APERTURE END LIST*
D10*
%TO.P,U4,1,GPIO0*%
%TO.N,unconnected-(U4-GPIO0-Pad1)*%
X155650000Y-111500000D03*
D11*
X155000000Y-111500000D03*
D10*
%TO.P,U4,2,GPIO1*%
%TO.N,unconnected-(U4-GPIO1-Pad2)*%
X155650000Y-109500000D03*
D12*
X155000000Y-109500000D03*
D10*
%TO.P,U4,3,GPIO2*%
%TO.N,unconnected-(U4-GPIO2-Pad3)*%
X155650000Y-107500000D03*
D12*
X155000000Y-107500000D03*
D10*
%TO.P,U4,4,GPIO3*%
%TO.N,unconnected-(U4-GPIO3-Pad4)*%
X155650000Y-105500000D03*
D12*
X155000000Y-105500000D03*
D10*
%TO.P,U4,5,GPIO4*%
%TO.N,unconnected-(U4-GPIO4-Pad5)*%
X155650000Y-103500000D03*
D12*
X155000000Y-103500000D03*
D10*
%TO.P,U4,6,GPIO5*%
%TO.N,unconnected-(U4-GPIO5-Pad6)*%
X155650000Y-101500000D03*
D12*
X155000000Y-101500000D03*
D10*
%TO.P,U4,7,GPIO6*%
%TO.N,unconnected-(U4-GPIO6-Pad7)*%
X155650000Y-99500000D03*
D12*
X155000000Y-99500000D03*
D10*
%TO.P,U4,8,GPIO7*%
%TO.N,unconnected-(U4-GPIO7-Pad8)*%
X155650000Y-97500000D03*
D12*
X155000000Y-97500000D03*
D10*
%TO.P,U4,9,GPIO8*%
%TO.N,unconnected-(U4-GPIO8-Pad9)*%
X155650000Y-95500000D03*
D12*
X155000000Y-95500000D03*
D10*
%TO.P,U4,10,GPIO9*%
%TO.N,unconnected-(U4-GPIO9-Pad10)*%
X155650000Y-93500000D03*
D12*
X155000000Y-93500000D03*
%TO.P,U4,11,GPIO10*%
%TO.N,unconnected-(U4-GPIO10-Pad11)*%
X153000000Y-91500000D03*
D13*
X153000000Y-90850000D03*
D12*
%TO.P,U4,12,GPIO11*%
%TO.N,unconnected-(U4-GPIO11-Pad12)*%
X151000000Y-91500000D03*
D13*
X151000000Y-90850000D03*
D12*
%TO.P,U4,13,GPIO12*%
%TO.N,unconnected-(U4-GPIO12-Pad13)*%
X149000000Y-91500000D03*
D13*
X149000000Y-90850000D03*
D12*
%TO.P,U4,14,GPIO13*%
%TO.N,unconnected-(U4-GPIO13-Pad14)*%
X147000000Y-91500000D03*
D13*
X147000000Y-90850000D03*
D12*
%TO.P,U4,15,GPIO14*%
%TO.N,CA_AD7*%
X145000000Y-91500000D03*
D13*
X145000000Y-90850000D03*
D12*
%TO.P,U4,16,GPIO15*%
%TO.N,CA_AD8*%
X143000000Y-91500000D03*
D13*
X143000000Y-90850000D03*
D12*
%TO.P,U4,17,GPIO16*%
%TO.N,CA_AD6*%
X141000000Y-91500000D03*
D13*
X141000000Y-90850000D03*
D12*
%TO.P,U4,18,GPIO17*%
%TO.N,CA_AD9*%
X139000000Y-91500000D03*
D13*
X139000000Y-90850000D03*
D12*
%TO.P,U4,19,GPIO18*%
%TO.N,CA_AD5*%
X137000000Y-91500000D03*
D13*
X137000000Y-90850000D03*
D12*
%TO.P,U4,20,GPIO19*%
%TO.N,CA_AD10*%
X135000000Y-91500000D03*
D13*
X135000000Y-90850000D03*
D12*
%TO.P,U4,21,GPIO20*%
%TO.N,CA_AD4*%
X133000000Y-91500000D03*
D13*
X133000000Y-90850000D03*
D12*
%TO.P,U4,22,GPIO21*%
%TO.N,CA_AD11*%
X131000000Y-91500000D03*
D13*
X131000000Y-90850000D03*
D12*
%TO.P,U4,23,GPIO22*%
%TO.N,CA_AD3*%
X129000000Y-91500000D03*
D13*
X129000000Y-90850000D03*
D12*
%TO.P,U4,24,GPIO23*%
%TO.N,CA_AD12*%
X127000000Y-91500000D03*
D13*
X127000000Y-90850000D03*
D12*
%TO.P,U4,25,GPIO24*%
%TO.N,CA_AD2*%
X125000000Y-91500000D03*
D13*
X125000000Y-90850000D03*
D12*
%TO.P,U4,26,GPIO25*%
%TO.N,CA_AD13*%
X123000000Y-91500000D03*
D13*
X123000000Y-90850000D03*
D12*
%TO.P,U4,27,GPIO26*%
%TO.N,CA_AD1*%
X121000000Y-91500000D03*
D13*
X121000000Y-90850000D03*
D12*
%TO.P,U4,28,GPIO27*%
%TO.N,CA_AD14*%
X119000000Y-91500000D03*
D13*
X119000000Y-90850000D03*
D12*
%TO.P,U4,29,GPIO28*%
%TO.N,CA_AD0*%
X117000000Y-91500000D03*
D13*
X117000000Y-90850000D03*
D12*
%TO.P,U4,30,GPIO29*%
%TO.N,CA_AD15*%
X115000000Y-91500000D03*
D13*
X115000000Y-90850000D03*
D12*
%TO.P,U4,31,GPIO30*%
%TO.N,unconnected-(U4-GPIO30-Pad31)*%
X113000000Y-93500000D03*
D10*
X112350000Y-93500000D03*
D12*
%TO.P,U4,32,GPIO31*%
%TO.N,READ*%
X113000000Y-95500000D03*
D10*
X112350000Y-95500000D03*
D12*
%TO.P,U4,33,GPIO32*%
%TO.N,WRITE*%
X113000000Y-97500000D03*
D10*
X112350000Y-97500000D03*
D12*
%TO.P,U4,34,GPIO33*%
%TO.N,ALE_L*%
X113000000Y-99500000D03*
D10*
X112350000Y-99500000D03*
D12*
%TO.P,U4,35,GPIO34*%
%TO.N,ALE_H*%
X113000000Y-101500000D03*
D10*
X112350000Y-101500000D03*
D12*
%TO.P,U4,36,GPIO35*%
%TO.N,unconnected-(U4-GPIO35-Pad36)*%
X113000000Y-103500000D03*
D10*
X112350000Y-103500000D03*
D12*
%TO.P,U4,37,GPIO36*%
%TO.N,unconnected-(U4-GPIO36-Pad37)*%
X113000000Y-105500000D03*
D10*
X112350000Y-105500000D03*
D12*
%TO.P,U4,38,GPIO37*%
%TO.N,unconnected-(U4-GPIO37-Pad38)*%
X113000000Y-107500000D03*
D10*
X112350000Y-107500000D03*
D12*
%TO.P,U4,39,GPIO38*%
%TO.N,unconnected-(U4-GPIO38-Pad39)*%
X113000000Y-109500000D03*
D10*
X112350000Y-109500000D03*
D12*
%TO.P,U4,40,GPIO39*%
%TO.N,unconnected-(U4-GPIO39-Pad40)*%
X113000000Y-111500000D03*
D10*
X112350000Y-111500000D03*
D13*
%TO.P,U4,41,GPIO40*%
%TO.N,CO_AD15*%
X115000000Y-114150000D03*
D12*
X115000000Y-113500000D03*
D13*
%TO.P,U4,42,GPIO41*%
%TO.N,CO_AD0*%
X117000000Y-114150000D03*
D12*
X117000000Y-113500000D03*
D13*
%TO.P,U4,43,GPIO42*%
%TO.N,CO_AD14*%
X119000000Y-114150000D03*
D12*
X119000000Y-113500000D03*
D13*
%TO.P,U4,44,GPIO43*%
%TO.N,CO_AD1*%
X121000000Y-114150000D03*
D12*
X121000000Y-113500000D03*
D13*
%TO.P,U4,45,GPIO44*%
%TO.N,CO_AD13*%
X123000000Y-114150000D03*
D12*
X123000000Y-113500000D03*
D13*
%TO.P,U4,46,GPIO45*%
%TO.N,CO_AD2*%
X125000000Y-114150000D03*
D12*
X125000000Y-113500000D03*
D13*
%TO.P,U4,47,GPIO46*%
%TO.N,CO_AD12*%
X127000000Y-114150000D03*
D12*
X127000000Y-113500000D03*
D13*
%TO.P,U4,48,GPIO47*%
%TO.N,CO_AD3*%
X129000000Y-114150000D03*
D12*
X129000000Y-113500000D03*
D13*
%TO.P,U4,49,GPIO48*%
%TO.N,CO_AD11*%
X131000000Y-114150000D03*
D12*
X131000000Y-113500000D03*
D13*
%TO.P,U4,50,GPIO49*%
%TO.N,CO_AD4*%
X133000000Y-114150000D03*
D12*
X133000000Y-113500000D03*
D13*
%TO.P,U4,51,GPIO50*%
%TO.N,CO_AD10*%
X135000000Y-114150000D03*
D12*
X135000000Y-113500000D03*
D13*
%TO.P,U4,52,GPIO51*%
%TO.N,CO_AD5*%
X137000000Y-114150000D03*
D12*
X137000000Y-113500000D03*
D13*
%TO.P,U4,53,GPIO52*%
%TO.N,CO_AD9*%
X139000000Y-114150000D03*
D12*
X139000000Y-113500000D03*
D13*
%TO.P,U4,54,GPIO53*%
%TO.N,CO_AD6*%
X141000000Y-114150000D03*
D12*
X141000000Y-113500000D03*
D13*
%TO.P,U4,55,GPIO54*%
%TO.N,CO_AD8*%
X143000000Y-114150000D03*
D12*
X143000000Y-113500000D03*
D13*
%TO.P,U4,56,GPIO55*%
%TO.N,CO_AD7*%
X145000000Y-114150000D03*
D12*
X145000000Y-113500000D03*
D13*
%TO.P,U4,57,GPIO56*%
%TO.N,unconnected-(U4-GPIO56-Pad57)*%
X147000000Y-114150000D03*
D12*
X147000000Y-113500000D03*
D13*
%TO.P,U4,58,GPIO57*%
%TO.N,unconnected-(U4-GPIO57-Pad58)*%
X149000000Y-114150000D03*
D12*
X149000000Y-113500000D03*
D13*
%TO.P,U4,59,GPIO58*%
%TO.N,unconnected-(U4-GPIO58-Pad59)*%
X151000000Y-114150000D03*
D12*
X151000000Y-113500000D03*
D13*
%TO.P,U4,60,GPIO59*%
%TO.N,unconnected-(U4-GPIO59-Pad60)*%
X153000000Y-114150000D03*
D12*
X153000000Y-113500000D03*
%TD*%
D14*
%TO.P,U3,1,GND*%
%TO.N,GND*%
X104000000Y-143000000D03*
%TO.P,U3,2,GND*%
X106500000Y-143000000D03*
%TO.P,U3,3,AD15*%
%TO.N,CO_AD15*%
X109000000Y-143000000D03*
%TO.P,U3,4,AD14*%
%TO.N,CO_AD14*%
X111500000Y-143000000D03*
%TO.P,U3,5,AD13*%
%TO.N,CO_AD13*%
X114000000Y-143000000D03*
%TO.P,U3,6,GND*%
%TO.N,GND*%
X116500000Y-143000000D03*
%TO.P,U3,7,AD12*%
%TO.N,CO_AD12*%
X119000000Y-143000000D03*
%TO.P,U3,8,WRITE*%
%TO.N,WRITE*%
X121500000Y-143000000D03*
%TO.P,U3,9,VCC*%
%TO.N,+3V3*%
X124000000Y-143000000D03*
%TO.P,U3,10,READ*%
%TO.N,READ*%
X126500000Y-143000000D03*
%TO.P,U3,11,AD11*%
%TO.N,CO_AD11*%
X129000000Y-143000000D03*
%TO.P,U3,12,AD10*%
%TO.N,CO_AD10*%
X131500000Y-143000000D03*
%TO.P,U3,13,NC*%
%TO.N,Net-(U2-NC-Pad13)*%
X134000000Y-143000000D03*
%TO.P,U3,14,NC*%
%TO.N,Net-(U2-NC-Pad14)*%
X136500000Y-143000000D03*
%TO.P,U3,15,AD9*%
%TO.N,CO_AD9*%
X139000000Y-143000000D03*
%TO.P,U3,16,AD8*%
%TO.N,CO_AD8*%
X141500000Y-143000000D03*
%TO.P,U3,17,VCC*%
%TO.N,+3V3*%
X144000000Y-143000000D03*
%TO.P,U3,18,CIC_PIF*%
%TO.N,Net-(U2-CIC_PIF)*%
X146500000Y-143000000D03*
%TO.P,U3,19,CLK_PIF*%
%TO.N,Net-(U2-CLK_PIF)*%
X149000000Y-143000000D03*
%TO.P,U3,20,COLD_RST*%
%TO.N,Net-(U2-COLD_RST)*%
X151500000Y-143000000D03*
%TO.P,U3,21,S_DAT*%
%TO.N,Net-(U2-S_DAT)*%
X154000000Y-143000000D03*
%TO.P,U3,22,GND*%
%TO.N,GND*%
X156500000Y-143000000D03*
%TO.P,U3,23,GND*%
X159000000Y-143000000D03*
%TO.P,U3,24,LAUDIO*%
%TO.N,Net-(U2-LAUDIO)*%
X161500000Y-143000000D03*
%TO.P,U3,25,GND*%
%TO.N,GND*%
X164000000Y-143000000D03*
%TD*%
D15*
%TO.P,U2,1,GND*%
%TO.N,GND*%
X104000000Y-71500000D03*
%TO.P,U2,2,GND*%
X106500000Y-71500000D03*
%TO.P,U2,3,AD15*%
%TO.N,CA_AD15*%
X109000000Y-71500000D03*
%TO.P,U2,4,AD14*%
%TO.N,CA_AD14*%
X111500000Y-71500000D03*
%TO.P,U2,5,AD13*%
%TO.N,CA_AD13*%
X114000000Y-71500000D03*
%TO.P,U2,6,GND*%
%TO.N,GND*%
X116500000Y-71500000D03*
%TO.P,U2,7,AD12*%
%TO.N,CA_AD12*%
X119000000Y-71500000D03*
%TO.P,U2,8,WRITE*%
%TO.N,WRITE*%
X121500000Y-71500000D03*
%TO.P,U2,9,VCC*%
%TO.N,+3V3*%
X124000000Y-71500000D03*
%TO.P,U2,10,READ*%
%TO.N,READ*%
X126500000Y-71500000D03*
%TO.P,U2,11,AD11*%
%TO.N,CA_AD11*%
X129000000Y-71500000D03*
%TO.P,U2,12,AD10*%
%TO.N,CA_AD10*%
X131500000Y-71500000D03*
%TO.P,U2,13,NC*%
%TO.N,Net-(U2-NC-Pad13)*%
X134000000Y-71500000D03*
%TO.P,U2,14,NC*%
%TO.N,Net-(U2-NC-Pad14)*%
X136500000Y-71500000D03*
%TO.P,U2,15,AD9*%
%TO.N,CA_AD9*%
X139000000Y-71500000D03*
%TO.P,U2,16,AD8*%
%TO.N,CA_AD8*%
X141500000Y-71500000D03*
%TO.P,U2,17,VCC*%
%TO.N,+3V3*%
X144000000Y-71500000D03*
%TO.P,U2,18,CIC_PIF*%
%TO.N,Net-(U2-CIC_PIF)*%
X146500000Y-71500000D03*
%TO.P,U2,19,CLK_PIF*%
%TO.N,Net-(U2-CLK_PIF)*%
X149000000Y-71500000D03*
%TO.P,U2,20,COLD_RST*%
%TO.N,Net-(U2-COLD_RST)*%
X151500000Y-71500000D03*
%TO.P,U2,21,S_DAT*%
%TO.N,Net-(U2-S_DAT)*%
X154000000Y-71500000D03*
%TO.P,U2,22,GND*%
%TO.N,GND*%
X156500000Y-71500000D03*
%TO.P,U2,23,GND*%
X159000000Y-71500000D03*
%TO.P,U2,24,LAUDIO*%
%TO.N,Net-(U2-LAUDIO)*%
X161500000Y-71500000D03*
%TO.P,U2,25,GND*%
%TO.N,GND*%
X164000000Y-71500000D03*
%TO.P,U2,26,GND*%
X104000000Y-66500000D03*
%TO.P,U2,27,GND*%
X106500000Y-66500000D03*
%TO.P,U2,28,AD0*%
%TO.N,CA_AD0*%
X109000000Y-66500000D03*
%TO.P,U2,29,AD1*%
%TO.N,CA_AD1*%
X111500000Y-66500000D03*
%TO.P,U2,30,AD2*%
%TO.N,CA_AD2*%
X114000000Y-66500000D03*
%TO.P,U2,31,GND*%
%TO.N,GND*%
X116500000Y-66500000D03*
%TO.P,U2,32,AD3*%
%TO.N,CA_AD3*%
X119000000Y-66500000D03*
%TO.P,U2,33,ALE_L*%
%TO.N,ALE_L*%
X121500000Y-66500000D03*
%TO.P,U2,34,VCC*%
%TO.N,+3V3*%
X124000000Y-66500000D03*
%TO.P,U2,35,ALE_H*%
%TO.N,ALE_H*%
X126500000Y-66500000D03*
%TO.P,U2,36,AD4*%
%TO.N,CA_AD4*%
X129000000Y-66500000D03*
%TO.P,U2,37,AD5*%
%TO.N,CA_AD5*%
X131500000Y-66500000D03*
%TO.P,U2,38,NC*%
%TO.N,Net-(U2-NC-Pad38)*%
X134000000Y-66500000D03*
%TO.P,U2,39,NC*%
%TO.N,Net-(U2-NC-Pad39)*%
X136500000Y-66500000D03*
%TO.P,U2,40,AD6*%
%TO.N,CA_AD6*%
X139000000Y-66500000D03*
%TO.P,U2,41,AD7*%
%TO.N,CA_AD7*%
X141500000Y-66500000D03*
%TO.P,U2,42,VCC*%
%TO.N,+3V3*%
X144000000Y-66500000D03*
%TO.P,U2,43,PIF_CIC*%
%TO.N,Net-(U2-PIF_CIC)*%
X146500000Y-66500000D03*
%TO.P,U2,44,JTAG_CLK*%
%TO.N,Net-(U2-JTAG_CLK)*%
X149000000Y-66500000D03*
%TO.P,U2,45,NMI_R4300*%
%TO.N,Net-(U2-NMI_R4300)*%
X151500000Y-66500000D03*
%TO.P,U2,46,VIDEO_CLK*%
%TO.N,Net-(U2-VIDEO_CLK)*%
X154000000Y-66500000D03*
%TO.P,U2,47,GND*%
%TO.N,GND*%
X156500000Y-66500000D03*
%TO.P,U2,48,GND*%
X159000000Y-66500000D03*
%TO.P,U2,49,R_AUDIO*%
%TO.N,Net-(U2-R_AUDIO)*%
X161500000Y-66500000D03*
%TO.P,U2,50,GND*%
%TO.N,GND*%
X164000000Y-66500000D03*
%TD*%
D16*
%TO.N,WRITE*%
X122564800Y-131641900D03*
%TO.N,CO_AD3*%
X121334400Y-131782100D03*
%TO.N,CO_AD2*%
X115523300Y-131938200D03*
%TO.N,Net-(U2-R_AUDIO)*%
X160399900Y-132347700D03*
%TO.N,READ*%
X126585800Y-126880600D03*
%TO.N,+3V3*%
X143112900Y-132495200D03*
X129201700Y-111995000D03*
X125250000Y-132483400D03*
%TO.N,Net-(U2-NC-Pad13)*%
X133233200Y-118332100D03*
%TO.N,GND*%
X165406100Y-144406100D03*
X116356000Y-132475000D03*
X112109300Y-129450900D03*
X157750000Y-132585000D03*
X105250000Y-132585000D03*
%TO.N,Net-(U2-NC-Pad14)*%
X136376200Y-116591400D03*
%TD*%
D17*
%TO.N,unconnected-(U4-GPIO0-Pad1)*%
X155000000Y-111500000D02*
X155650000Y-111500000D01*
%TO.N,unconnected-(U4-GPIO5-Pad6)*%
X155000000Y-101500000D02*
X155650000Y-101500000D01*
%TO.N,unconnected-(U4-GPIO38-Pad39)*%
X112350000Y-109500000D02*
X113000000Y-109500000D01*
%TO.N,unconnected-(U4-GPIO9-Pad10)*%
X155000000Y-93500000D02*
X155650000Y-93500000D01*
%TO.N,unconnected-(U4-GPIO36-Pad37)*%
X112350000Y-105500000D02*
X113000000Y-105500000D01*
%TO.N,unconnected-(U4-GPIO35-Pad36)*%
X112350000Y-103500000D02*
X113000000Y-103500000D01*
%TO.N,unconnected-(U4-GPIO37-Pad38)*%
X112350000Y-107500000D02*
X113000000Y-107500000D01*
%TO.N,unconnected-(U4-GPIO1-Pad2)*%
X155000000Y-109500000D02*
X155650000Y-109500000D01*
%TO.N,unconnected-(U4-GPIO10-Pad11)*%
X153000000Y-90850000D02*
X153000000Y-91500000D01*
%TO.N,unconnected-(U4-GPIO11-Pad12)*%
X151000000Y-90850000D02*
X151000000Y-91500000D01*
%TO.N,unconnected-(U4-GPIO58-Pad59)*%
X151000000Y-113500000D02*
X151000000Y-114150000D01*
%TO.N,unconnected-(U4-GPIO3-Pad4)*%
X155000000Y-105500000D02*
X155650000Y-105500000D01*
%TO.N,unconnected-(U4-GPIO56-Pad57)*%
X147000000Y-113500000D02*
X147000000Y-114150000D01*
%TO.N,unconnected-(U4-GPIO57-Pad58)*%
X149000000Y-113500000D02*
X149000000Y-114150000D01*
%TO.N,unconnected-(U4-GPIO12-Pad13)*%
X149000000Y-90850000D02*
X149000000Y-91500000D01*
%TO.N,unconnected-(U4-GPIO6-Pad7)*%
X155000000Y-99500000D02*
X155650000Y-99500000D01*
%TO.N,unconnected-(U4-GPIO59-Pad60)*%
X153000000Y-113500000D02*
X153000000Y-114150000D01*
%TO.N,unconnected-(U4-GPIO4-Pad5)*%
X155000000Y-103500000D02*
X155650000Y-103500000D01*
%TO.N,unconnected-(U4-GPIO2-Pad3)*%
X155000000Y-107500000D02*
X155650000Y-107500000D01*
%TO.N,unconnected-(U4-GPIO7-Pad8)*%
X155000000Y-97500000D02*
X155650000Y-97500000D01*
%TO.N,unconnected-(U4-GPIO8-Pad9)*%
X155000000Y-95500000D02*
X155650000Y-95500000D01*
%TO.N,unconnected-(U4-GPIO13-Pad14)*%
X147000000Y-90850000D02*
X147000000Y-91500000D01*
%TO.N,unconnected-(U4-GPIO30-Pad31)*%
X112350000Y-93500000D02*
X113000000Y-93500000D01*
%TO.N,unconnected-(U4-GPIO39-Pad40)*%
X112350000Y-111500000D02*
X113000000Y-111500000D01*
%TO.N,WRITE*%
X110648300Y-82351700D02*
X121500000Y-71500000D01*
X110648300Y-97500000D02*
X110648300Y-82351700D01*
X112350000Y-97500000D02*
X110648300Y-97500000D01*
X113000000Y-97500000D02*
X112350000Y-97500000D01*
X121500000Y-143000000D02*
X121500000Y-132698300D01*
X121508400Y-132698300D02*
X121500000Y-132698300D01*
X122564800Y-131641900D02*
X121508400Y-132698300D01*
%TO.N,CA_AD13*%
X123000000Y-90850000D02*
X123000000Y-91500000D01*
%TO.N,CA_AD12*%
X127000000Y-90850000D02*
X127000000Y-91500000D01*
%TO.N,CO_AD15*%
X115000000Y-113500000D02*
X115000000Y-114150000D01*
X115000000Y-127420300D02*
X115000000Y-114150000D01*
X109722000Y-132698300D02*
X115000000Y-127420300D01*
X109000000Y-132698300D02*
X109722000Y-132698300D01*
X109000000Y-143000000D02*
X109000000Y-132698300D01*
%TO.N,CO_AD14*%
X119000000Y-113500000D02*
X119000000Y-114150000D01*
X119000000Y-125198300D02*
X119000000Y-115851700D01*
X111500000Y-132698300D02*
X119000000Y-125198300D01*
X111500000Y-143000000D02*
X111500000Y-132698300D01*
X119000000Y-114150000D02*
X119000000Y-115851700D01*
%TO.N,CA_AD15*%
X115000000Y-90850000D02*
X115000000Y-91500000D01*
%TO.N,CO_AD13*%
X123000000Y-113500000D02*
X123000000Y-114150000D01*
X114000000Y-143000000D02*
X114000000Y-132698300D01*
X114000000Y-132610700D02*
X114000000Y-132698300D01*
X123000000Y-123610700D02*
X114000000Y-132610700D01*
X123000000Y-114150000D02*
X123000000Y-123610700D01*
%TO.N,CA_AD14*%
X119000000Y-90850000D02*
X119000000Y-91500000D01*
%TO.N,CO_AD12*%
X127000000Y-113500000D02*
X127000000Y-114150000D01*
X119000000Y-143000000D02*
X119000000Y-132698300D01*
X127000000Y-124698300D02*
X119000000Y-132698300D01*
X127000000Y-114150000D02*
X127000000Y-124698300D01*
%TO.N,CO_AD3*%
X129000000Y-113500000D02*
X129000000Y-114150000D01*
X129000000Y-114150000D02*
X129000000Y-115851700D01*
X121334400Y-131281200D02*
X121334400Y-131782100D01*
X129000000Y-123615600D02*
X121334400Y-131281200D01*
X129000000Y-115851700D02*
X129000000Y-123615600D01*
%TO.N,CO_AD6*%
X141000000Y-113500000D02*
X141000000Y-114150000D01*
%TO.N,CO_AD5*%
X137000000Y-113500000D02*
X137000000Y-114150000D01*
%TO.N,CO_AD0*%
X117000000Y-113500000D02*
X117000000Y-114150000D01*
%TO.N,CO_AD11*%
X131000000Y-113500000D02*
X131000000Y-114150000D01*
X131000000Y-130698300D02*
X131000000Y-114150000D01*
X129000000Y-132698300D02*
X131000000Y-130698300D01*
X129000000Y-143000000D02*
X129000000Y-132698300D01*
%TO.N,CO_AD8*%
X143000000Y-113500000D02*
X143000000Y-114150000D01*
X143000000Y-126237000D02*
X143000000Y-114150000D01*
X141500000Y-127737000D02*
X143000000Y-126237000D01*
X141500000Y-143000000D02*
X141500000Y-127737000D01*
%TO.N,CO_AD10*%
X135000000Y-114150000D02*
X135000000Y-113500000D01*
X134842100Y-115851700D02*
X135000000Y-115851700D01*
X131500000Y-119193800D02*
X134842100Y-115851700D01*
X131500000Y-143000000D02*
X131500000Y-119193800D01*
X135000000Y-114150000D02*
X135000000Y-115851700D01*
%TO.N,CO_AD4*%
X133000000Y-113500000D02*
X133000000Y-114150000D01*
%TO.N,CO_AD9*%
X139000000Y-113500000D02*
X139000000Y-114150000D01*
X139000000Y-143000000D02*
X139000000Y-114150000D01*
%TO.N,CO_AD2*%
X125000000Y-113500000D02*
X125000000Y-114150000D01*
X125000000Y-122461500D02*
X115523300Y-131938200D01*
X125000000Y-114150000D02*
X125000000Y-122461500D01*
%TO.N,CO_AD7*%
X145000000Y-113500000D02*
X145000000Y-114150000D01*
%TO.N,CO_AD1*%
X121000000Y-113500000D02*
X121000000Y-114150000D01*
%TO.N,CA_AD10*%
X135000000Y-80943600D02*
X135000000Y-90850000D01*
X131500000Y-77443600D02*
X135000000Y-80943600D01*
X131500000Y-71500000D02*
X131500000Y-77443600D01*
X135000000Y-90850000D02*
X135000000Y-91500000D01*
%TO.N,Net-(U2-S_DAT)*%
X158958500Y-76458500D02*
X154000000Y-71500000D01*
X158958500Y-127219500D02*
X158958500Y-76458500D01*
X154000000Y-132178000D02*
X158958500Y-127219500D01*
X154000000Y-143000000D02*
X154000000Y-132178000D01*
%TO.N,CA_AD6*%
X141000000Y-90850000D02*
X141000000Y-91500000D01*
X140150000Y-88298300D02*
X141000000Y-89148300D01*
X140150000Y-67650000D02*
X140150000Y-88298300D01*
X139000000Y-66500000D02*
X140150000Y-67650000D01*
X141000000Y-90850000D02*
X141000000Y-89148300D01*
%TO.N,CA_AD9*%
X139000000Y-90850000D02*
X139000000Y-91500000D01*
X139000000Y-89148300D02*
X139000000Y-71500000D01*
X139000000Y-90850000D02*
X139000000Y-89148300D01*
%TO.N,Net-(U2-CIC_PIF)*%
X146901700Y-71901700D02*
X146500000Y-71500000D01*
X146901700Y-81607000D02*
X146901700Y-71901700D01*
X157753400Y-92458700D02*
X146901700Y-81607000D01*
X157753400Y-112700200D02*
X157753400Y-92458700D01*
X146500000Y-123953600D02*
X157753400Y-112700200D01*
X146500000Y-143000000D02*
X146500000Y-123953600D01*
%TO.N,CA_AD4*%
X133000000Y-82167900D02*
X133000000Y-90850000D01*
X130250000Y-79417900D02*
X133000000Y-82167900D01*
X130250000Y-67750000D02*
X130250000Y-79417900D01*
X129000000Y-66500000D02*
X130250000Y-67750000D01*
X133000000Y-90850000D02*
X133000000Y-91500000D01*
%TO.N,CA_AD1*%
X121000000Y-90850000D02*
X121000000Y-91500000D01*
%TO.N,CA_AD11*%
X131000000Y-85275100D02*
X131000000Y-90850000D01*
X129000000Y-83275100D02*
X131000000Y-85275100D01*
X129000000Y-71500000D02*
X129000000Y-83275100D01*
X131000000Y-90850000D02*
X131000000Y-91500000D01*
%TO.N,CA_AD5*%
X137000000Y-81767000D02*
X137000000Y-90850000D01*
X132750000Y-77517000D02*
X137000000Y-81767000D01*
X132750000Y-67750000D02*
X132750000Y-77517000D01*
X131500000Y-66500000D02*
X132750000Y-67750000D01*
X137000000Y-90850000D02*
X137000000Y-91500000D01*
%TO.N,CA_AD2*%
X125000000Y-90850000D02*
X125000000Y-91500000D01*
%TO.N,ALE_L*%
X113000000Y-99500000D02*
X112350000Y-99500000D01*
X112350000Y-99500000D02*
X110648300Y-99500000D01*
X110246600Y-99098300D02*
X110648300Y-99500000D01*
X110246600Y-81283000D02*
X110246600Y-99098300D01*
X117750000Y-73779600D02*
X110246600Y-81283000D01*
X117750000Y-70250000D02*
X117750000Y-73779600D01*
X121500000Y-66500000D02*
X117750000Y-70250000D01*
%TO.N,Net-(U2-CLK_PIF)*%
X149000000Y-83137300D02*
X149000000Y-71500000D01*
X158155100Y-92292400D02*
X149000000Y-83137300D01*
X158155100Y-112866500D02*
X158155100Y-92292400D01*
X154853600Y-116168000D02*
X158155100Y-112866500D01*
X154853600Y-116170100D02*
X154853600Y-116168000D01*
X154234900Y-116788800D02*
X154853600Y-116170100D01*
X154232800Y-116788800D02*
X154234900Y-116788800D01*
X149000000Y-122021600D02*
X154232800Y-116788800D01*
X149000000Y-143000000D02*
X149000000Y-122021600D01*
%TO.N,CA_AD3*%
X129000000Y-90850000D02*
X129000000Y-91500000D01*
%TO.N,ALE_H*%
X113000000Y-101500000D02*
X112350000Y-101500000D01*
%TO.N,CA_AD7*%
X145000000Y-90850000D02*
X145000000Y-91500000D01*
X145000000Y-90850000D02*
X145000000Y-89148300D01*
X145000000Y-80882200D02*
X145000000Y-89148300D01*
X142750000Y-78632200D02*
X145000000Y-80882200D01*
X142750000Y-67750000D02*
X142750000Y-78632200D01*
X141500000Y-66500000D02*
X142750000Y-67750000D01*
%TO.N,Net-(U2-COLD_RST)*%
X151500000Y-85069300D02*
X151500000Y-71500000D01*
X158556800Y-92126100D02*
X151500000Y-85069300D01*
X158556800Y-113032800D02*
X158556800Y-92126100D01*
X155255300Y-116334300D02*
X158556800Y-113032800D01*
X155255300Y-116336400D02*
X155255300Y-116334300D01*
X154401200Y-117190500D02*
X155255300Y-116336400D01*
X154399100Y-117190500D02*
X154401200Y-117190500D01*
X151500000Y-120089600D02*
X154399100Y-117190500D01*
X151500000Y-143000000D02*
X151500000Y-120089600D01*
%TO.N,Net-(U2-R_AUDIO)*%
X160399900Y-67600100D02*
X160399900Y-132347700D01*
X161500000Y-66500000D02*
X160399900Y-67600100D01*
%TO.N,Net-(U2-LAUDIO)*%
X161500000Y-71500000D02*
X161500000Y-143000000D01*
%TO.N,READ*%
X112350000Y-95500000D02*
X113000000Y-95500000D01*
X114051700Y-94448300D02*
X113000000Y-95500000D01*
X114051700Y-92625000D02*
X114051700Y-94448300D01*
X113948300Y-92521600D02*
X114051700Y-92625000D01*
X113948300Y-84051700D02*
X113948300Y-92521600D01*
X126500000Y-71500000D02*
X113948300Y-84051700D01*
X126585800Y-132612500D02*
X126500000Y-132698300D01*
X126585800Y-126880600D02*
X126585800Y-132612500D01*
X126500000Y-143000000D02*
X126500000Y-132698300D01*
%TO.N,CA_AD0*%
X117000000Y-90850000D02*
X117000000Y-91500000D01*
%TO.N,+3V3*%
X144000000Y-143000000D02*
X144000000Y-132698300D01*
X144000000Y-66500000D02*
X144000000Y-71500000D01*
X143316000Y-132698300D02*
X144000000Y-132698300D01*
X143112900Y-132495200D02*
X143316000Y-132698300D01*
X154051700Y-115751200D02*
X154051700Y-112625000D01*
X144000000Y-125802900D02*
X154051700Y-115751200D01*
X144000000Y-132698300D02*
X144000000Y-125802900D01*
X144000000Y-79273300D02*
X144000000Y-71500000D01*
X157351700Y-92625000D02*
X144000000Y-79273300D01*
X157351700Y-112451200D02*
X157351700Y-92625000D01*
X157177900Y-112625000D02*
X157351700Y-112451200D01*
X154051700Y-112625000D02*
X157177900Y-112625000D01*
X153421700Y-111995000D02*
X129201700Y-111995000D01*
X154051700Y-112625000D02*
X153421700Y-111995000D01*
X124000000Y-66500000D02*
X124000000Y-71500000D01*
X124000000Y-143000000D02*
X124000000Y-132698300D01*
X125035100Y-132698300D02*
X125250000Y-132483400D01*
X124000000Y-132698300D02*
X125035100Y-132698300D01*
%TO.N,Net-(U2-NC-Pad13)*%
X133233200Y-131931500D02*
X134000000Y-132698300D01*
X133233200Y-118332100D02*
X133233200Y-131931500D01*
X134000000Y-143000000D02*
X134000000Y-132698300D01*
%TO.N,GND*%
X164000000Y-66500000D02*
X164000000Y-71500000D01*
X164000000Y-143000000D02*
X165406100Y-144406100D01*
X159000000Y-66500000D02*
X159000000Y-71500000D01*
X106500000Y-143000000D02*
X106500000Y-137849100D01*
X104000000Y-143000000D02*
X104000000Y-132698300D01*
X116500000Y-143000000D02*
X116500000Y-132698300D01*
X116356000Y-132554300D02*
X116356000Y-132475000D01*
X116500000Y-132698300D02*
X116356000Y-132554300D01*
X106500000Y-66500000D02*
X106500000Y-71500000D01*
X116500000Y-66500000D02*
X116500000Y-71500000D01*
X113380600Y-74619400D02*
X109619400Y-74619400D01*
X116500000Y-71500000D02*
X113380600Y-74619400D01*
X109619400Y-74619400D02*
X106500000Y-71500000D01*
X109619400Y-129450900D02*
X109619400Y-74619400D01*
X117584300Y-65415700D02*
X116500000Y-66500000D01*
X155415700Y-65415700D02*
X117584300Y-65415700D01*
X156500000Y-66500000D02*
X155415700Y-65415700D01*
X156500000Y-143000000D02*
X156500000Y-132698300D01*
X159000000Y-143000000D02*
X159000000Y-132698300D01*
X157750000Y-132585000D02*
X157750000Y-132698300D01*
X159000000Y-132698300D02*
X157750000Y-132698300D01*
X157750000Y-132698300D02*
X156500000Y-132698300D01*
X105250000Y-132698300D02*
X104000000Y-132698300D01*
X105250000Y-132698300D02*
X105250000Y-132585000D01*
X105811000Y-133259300D02*
X105250000Y-132698300D01*
X106500000Y-133948300D02*
X105811000Y-133259300D01*
X106500000Y-137849100D02*
X106500000Y-133948300D01*
X105811000Y-133259300D02*
X109619400Y-129450900D01*
X109619400Y-129450900D02*
X112109300Y-129450900D01*
%TO.N,CA_AD8*%
X143000000Y-79450200D02*
X143000000Y-90850000D01*
X141500000Y-77950200D02*
X143000000Y-79450200D01*
X141500000Y-71500000D02*
X141500000Y-77950200D01*
X143000000Y-90850000D02*
X143000000Y-91500000D01*
%TO.N,Net-(U2-NC-Pad14)*%
X136500000Y-116715200D02*
X136500000Y-143000000D01*
X136376200Y-116591400D02*
X136500000Y-116715200D01*
%TD*%
M02*
