%TF.GenerationSoftware,KiCad,Pcbnew,8.0.6*%
%TF.CreationDate,2024-10-28T20:20:35-05:00*%
%TF.ProjectId,n64_gamecat_rp2350b,6e36345f-6761-46d6-9563-61745f727032,rev?*%
%TF.SameCoordinates,Original*%
%TF.FileFunction,Copper,L1,Top*%
%TF.FilePolarity,Positive*%
%FSLAX46Y46*%
G04 Gerber Fmt 4.6, Leading zero omitted, Abs format (unit mm)*
G04 Created by KiCad (PCBNEW 8.0.6) date 2024-10-28 20:20:35*
%MOMM*%
%LPD*%
G01*
G04 APERTURE LIST*
%TA.AperFunction,SMDPad,CuDef*%
%ADD10R,1.800000X20.000000*%
%TD*%
%TA.AperFunction,SMDPad,CuDef*%
%ADD11R,2.800000X1.500000*%
%TD*%
%TA.AperFunction,ComponentPad*%
%ADD12C,1.350000*%
%TD*%
%TA.AperFunction,ComponentPad*%
%ADD13O,1.350000X1.350000*%
%TD*%
%TA.AperFunction,SMDPad,CuDef*%
%ADD14R,1.500000X2.800000*%
%TD*%
%TA.AperFunction,ComponentPad*%
%ADD15C,1.524000*%
%TD*%
%TA.AperFunction,ViaPad*%
%ADD16C,0.600000*%
%TD*%
%TA.AperFunction,Conductor*%
%ADD17C,0.200000*%
%TD*%
G04 APERTURE END LIST*
D10*
%TO.P,U3,1,GND*%
%TO.N,GND*%
X104000000Y-143000000D03*
%TO.P,U3,2,GND*%
X106500000Y-143000000D03*
%TO.P,U3,3,AD15*%
%TO.N,CO_AD15*%
X109000000Y-143000000D03*
%TO.P,U3,4,AD14*%
%TO.N,CO_AD14*%
X111500000Y-143000000D03*
%TO.P,U3,5,AD13*%
%TO.N,CO_AD13*%
X114000000Y-143000000D03*
%TO.P,U3,6,GND*%
%TO.N,GND*%
X116500000Y-143000000D03*
%TO.P,U3,7,AD12*%
%TO.N,CO_AD12*%
X119000000Y-143000000D03*
%TO.P,U3,8,WRITE*%
%TO.N,WRITE*%
X121500000Y-143000000D03*
%TO.P,U3,9,VCC*%
%TO.N,+3V3*%
X124000000Y-143000000D03*
%TO.P,U3,10,READ*%
%TO.N,READ*%
X126500000Y-143000000D03*
%TO.P,U3,11,AD11*%
%TO.N,CO_AD11*%
X129000000Y-143000000D03*
%TO.P,U3,12,AD10*%
%TO.N,CO_AD10*%
X131500000Y-143000000D03*
%TO.P,U3,13,NC*%
%TO.N,Net-(U2-NC-Pad13)*%
X134000000Y-143000000D03*
%TO.P,U3,14,NC*%
%TO.N,Net-(U2-NC-Pad14)*%
X136500000Y-143000000D03*
%TO.P,U3,15,AD9*%
%TO.N,CO_AD9*%
X139000000Y-143000000D03*
%TO.P,U3,16,AD8*%
%TO.N,CO_AD8*%
X141500000Y-143000000D03*
%TO.P,U3,17,VCC*%
%TO.N,+3V3*%
X144000000Y-143000000D03*
%TO.P,U3,18,CIC_PIF*%
%TO.N,Net-(U2-CIC_PIF)*%
X146500000Y-143000000D03*
%TO.P,U3,19,CLK_PIF*%
%TO.N,Net-(U2-CLK_PIF)*%
X149000000Y-143000000D03*
%TO.P,U3,20,COLD_RST*%
%TO.N,Net-(U2-COLD_RST)*%
X151500000Y-143000000D03*
%TO.P,U3,21,S_DAT*%
%TO.N,Net-(U2-S_DAT)*%
X154000000Y-143000000D03*
%TO.P,U3,22,GND*%
%TO.N,GND*%
X156500000Y-143000000D03*
%TO.P,U3,23,GND*%
X159000000Y-143000000D03*
%TO.P,U3,24,LAUDIO*%
%TO.N,Net-(U2-LAUDIO)*%
X161500000Y-143000000D03*
%TO.P,U3,25,GND*%
%TO.N,GND*%
X164000000Y-143000000D03*
%TD*%
D11*
%TO.P,U4,1,GPIO0*%
%TO.N,CO_AD4*%
X155650000Y-111500000D03*
D12*
X155000000Y-111500000D03*
D11*
%TO.P,U4,2,GPIO1*%
%TO.N,CO_AD11*%
X155650000Y-109500000D03*
D13*
X155000000Y-109500000D03*
D11*
%TO.P,U4,3,GPIO2*%
%TO.N,CO_AD3*%
X155650000Y-107500000D03*
D13*
X155000000Y-107500000D03*
D11*
%TO.P,U4,4,GPIO3*%
%TO.N,CO_AD12*%
X155650000Y-105500000D03*
D13*
X155000000Y-105500000D03*
D11*
%TO.P,U4,5,GPIO4*%
%TO.N,CO_AD2*%
X155650000Y-103500000D03*
D13*
X155000000Y-103500000D03*
D11*
%TO.P,U4,6,GPIO5*%
%TO.N,CO_AD13*%
X155650000Y-101500000D03*
D13*
X155000000Y-101500000D03*
D11*
%TO.P,U4,7,GPIO6*%
%TO.N,CO_AD1*%
X155650000Y-99500000D03*
D13*
X155000000Y-99500000D03*
D11*
%TO.P,U4,8,GPIO7*%
%TO.N,CO_AD14*%
X155650000Y-97500000D03*
D13*
X155000000Y-97500000D03*
D11*
%TO.P,U4,9,GPIO8*%
%TO.N,CO_AD0*%
X155650000Y-95500000D03*
D13*
X155000000Y-95500000D03*
D11*
%TO.P,U4,10,GPIO9*%
%TO.N,CO_AD15*%
X155650000Y-93500000D03*
D13*
X155000000Y-93500000D03*
%TO.P,U4,11,GPIO10*%
%TO.N,unconnected-(U4-GPIO10-Pad11)*%
X153000000Y-91500000D03*
D14*
X153000000Y-90850000D03*
D13*
%TO.P,U4,12,GPIO11*%
%TO.N,unconnected-(U4-GPIO11-Pad12)*%
X151000000Y-91500000D03*
D14*
X151000000Y-90850000D03*
D13*
%TO.P,U4,13,GPIO12*%
%TO.N,unconnected-(U4-GPIO12-Pad13)*%
X149000000Y-91500000D03*
D14*
X149000000Y-90850000D03*
D13*
%TO.P,U4,14,GPIO13*%
%TO.N,unconnected-(U4-GPIO13-Pad14)*%
X147000000Y-91500000D03*
D14*
X147000000Y-90850000D03*
D13*
%TO.P,U4,15,GPIO14*%
%TO.N,CA_AD7*%
X145000000Y-91500000D03*
D14*
X145000000Y-90850000D03*
D13*
%TO.P,U4,16,GPIO15*%
%TO.N,CA_AD8*%
X143000000Y-91500000D03*
D14*
X143000000Y-90850000D03*
D13*
%TO.P,U4,17,GPIO16*%
%TO.N,CA_AD6*%
X141000000Y-91500000D03*
D14*
X141000000Y-90850000D03*
D13*
%TO.P,U4,18,GPIO17*%
%TO.N,CA_AD9*%
X139000000Y-91500000D03*
D14*
X139000000Y-90850000D03*
D13*
%TO.P,U4,19,GPIO18*%
%TO.N,CA_AD5*%
X137000000Y-91500000D03*
D14*
X137000000Y-90850000D03*
D13*
%TO.P,U4,20,GPIO19*%
%TO.N,CA_AD10*%
X135000000Y-91500000D03*
D14*
X135000000Y-90850000D03*
D13*
%TO.P,U4,21,GPIO20*%
%TO.N,CA_AD4*%
X133000000Y-91500000D03*
D14*
X133000000Y-90850000D03*
D13*
%TO.P,U4,22,GPIO21*%
%TO.N,CA_AD11*%
X131000000Y-91500000D03*
D14*
X131000000Y-90850000D03*
D13*
%TO.P,U4,23,GPIO22*%
%TO.N,CA_AD3*%
X129000000Y-91500000D03*
D14*
X129000000Y-90850000D03*
D13*
%TO.P,U4,24,GPIO23*%
%TO.N,CA_AD12*%
X127000000Y-91500000D03*
D14*
X127000000Y-90850000D03*
D13*
%TO.P,U4,25,GPIO24*%
%TO.N,CA_AD2*%
X125000000Y-91500000D03*
D14*
X125000000Y-90850000D03*
D13*
%TO.P,U4,26,GPIO25*%
%TO.N,CA_AD13*%
X123000000Y-91500000D03*
D14*
X123000000Y-90850000D03*
D13*
%TO.P,U4,27,GPIO26*%
%TO.N,CA_AD1*%
X121000000Y-91500000D03*
D14*
X121000000Y-90850000D03*
D13*
%TO.P,U4,28,GPIO27*%
%TO.N,CA_AD14*%
X119000000Y-91500000D03*
D14*
X119000000Y-90850000D03*
D13*
%TO.P,U4,29,GPIO28*%
%TO.N,CA_AD0*%
X117000000Y-91500000D03*
D14*
X117000000Y-90850000D03*
D13*
%TO.P,U4,30,GPIO29*%
%TO.N,CA_AD15*%
X115000000Y-91500000D03*
D14*
X115000000Y-90850000D03*
D13*
%TO.P,U4,31,GPIO30*%
%TO.N,CO_AD7*%
X113000000Y-93500000D03*
D11*
X112350000Y-93500000D03*
D13*
%TO.P,U4,32,GPIO31*%
%TO.N,CO_AD8*%
X113000000Y-95500000D03*
D11*
X112350000Y-95500000D03*
D13*
%TO.P,U4,33,GPIO32*%
%TO.N,CO_AD6*%
X113000000Y-97500000D03*
D11*
X112350000Y-97500000D03*
D13*
%TO.P,U4,34,GPIO33*%
%TO.N,CO_AD9*%
X113000000Y-99500000D03*
D11*
X112350000Y-99500000D03*
D13*
%TO.P,U4,35,GPIO34*%
%TO.N,CO_AD5*%
X113000000Y-101500000D03*
D11*
X112350000Y-101500000D03*
D13*
%TO.P,U4,36,GPIO35*%
%TO.N,CO_AD10*%
X113000000Y-103500000D03*
D11*
X112350000Y-103500000D03*
D13*
%TO.P,U4,37,GPIO36*%
%TO.N,ALE_H*%
X113000000Y-105500000D03*
D11*
X112350000Y-105500000D03*
D13*
%TO.P,U4,38,GPIO37*%
%TO.N,ALE_L*%
X113000000Y-107500000D03*
D11*
X112350000Y-107500000D03*
D13*
%TO.P,U4,39,GPIO38*%
%TO.N,WRITE*%
X113000000Y-109500000D03*
D11*
X112350000Y-109500000D03*
D13*
%TO.P,U4,40,GPIO39*%
%TO.N,READ*%
X113000000Y-111500000D03*
D11*
X112350000Y-111500000D03*
D14*
%TO.P,U4,41,GPIO40*%
%TO.N,unconnected-(U4-GPIO40-Pad41)*%
X115000000Y-114150000D03*
D13*
X115000000Y-113500000D03*
D14*
%TO.P,U4,42,GPIO41*%
%TO.N,unconnected-(U4-GPIO41-Pad42)*%
X117000000Y-114150000D03*
D13*
X117000000Y-113500000D03*
D14*
%TO.P,U4,43,GPIO42*%
%TO.N,unconnected-(U4-GPIO42-Pad43)*%
X119000000Y-114150000D03*
D13*
X119000000Y-113500000D03*
D14*
%TO.P,U4,44,GPIO43*%
%TO.N,unconnected-(U4-GPIO43-Pad44)*%
X121000000Y-114150000D03*
D13*
X121000000Y-113500000D03*
D14*
%TO.P,U4,45,GPIO44*%
%TO.N,unconnected-(U4-GPIO44-Pad45)*%
X123000000Y-114150000D03*
D13*
X123000000Y-113500000D03*
D14*
%TO.P,U4,46,GPIO45*%
%TO.N,unconnected-(U4-GPIO45-Pad46)*%
X125000000Y-114150000D03*
D13*
X125000000Y-113500000D03*
D14*
%TO.P,U4,47,GPIO46*%
%TO.N,unconnected-(U4-GPIO46-Pad47)*%
X127000000Y-114150000D03*
D13*
X127000000Y-113500000D03*
D14*
%TO.P,U4,48,GPIO47*%
%TO.N,unconnected-(U4-GPIO47-Pad48)*%
X129000000Y-114150000D03*
D13*
X129000000Y-113500000D03*
D14*
%TO.P,U4,49,GPIO48*%
%TO.N,unconnected-(U4-GPIO48-Pad49)*%
X131000000Y-114150000D03*
D13*
X131000000Y-113500000D03*
D14*
%TO.P,U4,50,GPIO49*%
%TO.N,unconnected-(U4-GPIO49-Pad50)*%
X133000000Y-114150000D03*
D13*
X133000000Y-113500000D03*
D14*
%TO.P,U4,51,GPIO50*%
%TO.N,unconnected-(U4-GPIO50-Pad51)*%
X135000000Y-114150000D03*
D13*
X135000000Y-113500000D03*
D14*
%TO.P,U4,52,GPIO51*%
%TO.N,unconnected-(U4-GPIO51-Pad52)*%
X137000000Y-114150000D03*
D13*
X137000000Y-113500000D03*
D14*
%TO.P,U4,53,GPIO52*%
%TO.N,unconnected-(U4-GPIO52-Pad53)*%
X139000000Y-114150000D03*
D13*
X139000000Y-113500000D03*
D14*
%TO.P,U4,54,GPIO53*%
%TO.N,unconnected-(U4-GPIO53-Pad54)*%
X141000000Y-114150000D03*
D13*
X141000000Y-113500000D03*
D14*
%TO.P,U4,55,GPIO54*%
%TO.N,unconnected-(U4-GPIO54-Pad55)*%
X143000000Y-114150000D03*
D13*
X143000000Y-113500000D03*
D14*
%TO.P,U4,56,GPIO55*%
%TO.N,unconnected-(U4-GPIO55-Pad56)*%
X145000000Y-114150000D03*
D13*
X145000000Y-113500000D03*
D14*
%TO.P,U4,57,GPIO56*%
%TO.N,unconnected-(U4-GPIO56-Pad57)*%
X147000000Y-114150000D03*
D13*
X147000000Y-113500000D03*
D14*
%TO.P,U4,58,GPIO57*%
%TO.N,unconnected-(U4-GPIO57-Pad58)*%
X149000000Y-114150000D03*
D13*
X149000000Y-113500000D03*
D14*
%TO.P,U4,59,GPIO58*%
%TO.N,unconnected-(U4-GPIO58-Pad59)*%
X151000000Y-114150000D03*
D13*
X151000000Y-113500000D03*
D14*
%TO.P,U4,60,GPIO59*%
%TO.N,unconnected-(U4-GPIO59-Pad60)*%
X153000000Y-114150000D03*
D13*
X153000000Y-113500000D03*
%TD*%
D15*
%TO.P,U2,1,GND*%
%TO.N,GND*%
X104000000Y-71500000D03*
%TO.P,U2,2,GND*%
X106500000Y-71500000D03*
%TO.P,U2,3,AD15*%
%TO.N,CA_AD15*%
X109000000Y-71500000D03*
%TO.P,U2,4,AD14*%
%TO.N,CA_AD14*%
X111500000Y-71500000D03*
%TO.P,U2,5,AD13*%
%TO.N,CA_AD13*%
X114000000Y-71500000D03*
%TO.P,U2,6,GND*%
%TO.N,GND*%
X116500000Y-71500000D03*
%TO.P,U2,7,AD12*%
%TO.N,CA_AD12*%
X119000000Y-71500000D03*
%TO.P,U2,8,WRITE*%
%TO.N,WRITE*%
X121500000Y-71500000D03*
%TO.P,U2,9,VCC*%
%TO.N,+3V3*%
X124000000Y-71500000D03*
%TO.P,U2,10,READ*%
%TO.N,READ*%
X126500000Y-71500000D03*
%TO.P,U2,11,AD11*%
%TO.N,CA_AD11*%
X129000000Y-71500000D03*
%TO.P,U2,12,AD10*%
%TO.N,CA_AD10*%
X131500000Y-71500000D03*
%TO.P,U2,13,NC*%
%TO.N,Net-(U2-NC-Pad13)*%
X134000000Y-71500000D03*
%TO.P,U2,14,NC*%
%TO.N,Net-(U2-NC-Pad14)*%
X136500000Y-71500000D03*
%TO.P,U2,15,AD9*%
%TO.N,CA_AD9*%
X139000000Y-71500000D03*
%TO.P,U2,16,AD8*%
%TO.N,CA_AD8*%
X141500000Y-71500000D03*
%TO.P,U2,17,VCC*%
%TO.N,+3V3*%
X144000000Y-71500000D03*
%TO.P,U2,18,CIC_PIF*%
%TO.N,Net-(U2-CIC_PIF)*%
X146500000Y-71500000D03*
%TO.P,U2,19,CLK_PIF*%
%TO.N,Net-(U2-CLK_PIF)*%
X149000000Y-71500000D03*
%TO.P,U2,20,COLD_RST*%
%TO.N,Net-(U2-COLD_RST)*%
X151500000Y-71500000D03*
%TO.P,U2,21,S_DAT*%
%TO.N,Net-(U2-S_DAT)*%
X154000000Y-71500000D03*
%TO.P,U2,22,GND*%
%TO.N,GND*%
X156500000Y-71500000D03*
%TO.P,U2,23,GND*%
X159000000Y-71500000D03*
%TO.P,U2,24,LAUDIO*%
%TO.N,Net-(U2-LAUDIO)*%
X161500000Y-71500000D03*
%TO.P,U2,25,GND*%
%TO.N,GND*%
X164000000Y-71500000D03*
%TO.P,U2,26,GND*%
X104000000Y-66500000D03*
%TO.P,U2,27,GND*%
X106500000Y-66500000D03*
%TO.P,U2,28,AD0*%
%TO.N,CA_AD0*%
X109000000Y-66500000D03*
%TO.P,U2,29,AD1*%
%TO.N,CA_AD1*%
X111500000Y-66500000D03*
%TO.P,U2,30,AD2*%
%TO.N,CA_AD2*%
X114000000Y-66500000D03*
%TO.P,U2,31,GND*%
%TO.N,GND*%
X116500000Y-66500000D03*
%TO.P,U2,32,AD3*%
%TO.N,CA_AD3*%
X119000000Y-66500000D03*
%TO.P,U2,33,ALE_L*%
%TO.N,ALE_L*%
X121500000Y-66500000D03*
%TO.P,U2,34,VCC*%
%TO.N,+3V3*%
X124000000Y-66500000D03*
%TO.P,U2,35,ALE_H*%
%TO.N,ALE_H*%
X126500000Y-66500000D03*
%TO.P,U2,36,AD4*%
%TO.N,CA_AD4*%
X129000000Y-66500000D03*
%TO.P,U2,37,AD5*%
%TO.N,CA_AD5*%
X131500000Y-66500000D03*
%TO.P,U2,38,NC*%
%TO.N,Net-(U2-NC-Pad38)*%
X134000000Y-66500000D03*
%TO.P,U2,39,NC*%
%TO.N,Net-(U2-NC-Pad39)*%
X136500000Y-66500000D03*
%TO.P,U2,40,AD6*%
%TO.N,CA_AD6*%
X139000000Y-66500000D03*
%TO.P,U2,41,AD7*%
%TO.N,CA_AD7*%
X141500000Y-66500000D03*
%TO.P,U2,42,VCC*%
%TO.N,+3V3*%
X144000000Y-66500000D03*
%TO.P,U2,43,PIF_CIC*%
%TO.N,Net-(U2-PIF_CIC)*%
X146500000Y-66500000D03*
%TO.P,U2,44,JTAG_CLK*%
%TO.N,Net-(U2-JTAG_CLK)*%
X149000000Y-66500000D03*
%TO.P,U2,45,NMI_R4300*%
%TO.N,Net-(U2-NMI_R4300)*%
X151500000Y-66500000D03*
%TO.P,U2,46,VIDEO_CLK*%
%TO.N,Net-(U2-VIDEO_CLK)*%
X154000000Y-66500000D03*
%TO.P,U2,47,GND*%
%TO.N,GND*%
X156500000Y-66500000D03*
%TO.P,U2,48,GND*%
X159000000Y-66500000D03*
%TO.P,U2,49,R_AUDIO*%
%TO.N,Net-(U2-R_AUDIO)*%
X161500000Y-66500000D03*
%TO.P,U2,50,GND*%
%TO.N,GND*%
X164000000Y-66500000D03*
%TD*%
D16*
%TO.N,CO_AD15*%
X123389000Y-111864000D03*
X110237000Y-131423000D03*
%TO.N,CO_AD14*%
X132837900Y-112212200D03*
X111841700Y-132093000D03*
%TO.N,CO_AD13*%
X135756000Y-111775700D03*
X114140100Y-130804800D03*
%TO.N,CO_AD12*%
X135617400Y-122627100D03*
X119728500Y-132497700D03*
%TO.N,CO_AD3*%
X138024800Y-120073900D03*
%TO.N,CO_AD6*%
X114927200Y-98806600D03*
X137890800Y-132364400D03*
%TO.N,CO_AD5*%
X121403300Y-118183300D03*
X131947100Y-129063400D03*
%TO.N,CO_AD0*%
X132147900Y-106904300D03*
%TO.N,CO_AD11*%
X139410000Y-119573600D03*
X130635900Y-129503100D03*
%TO.N,CO_AD8*%
X125583200Y-116495300D03*
%TO.N,CO_AD10*%
X121379000Y-119382900D03*
%TO.N,CO_AD4*%
X139618500Y-118640500D03*
%TO.N,CO_AD9*%
X117560800Y-117486100D03*
%TO.N,CO_AD2*%
X139375400Y-111903500D03*
%TO.N,CO_AD7*%
X116087500Y-116914500D03*
X137606700Y-129703900D03*
%TO.N,CO_AD1*%
X134948800Y-112231600D03*
%TO.N,ALE_L*%
X112509800Y-113214600D03*
X121355300Y-131236000D03*
%TO.N,ALE_H*%
X120030900Y-118234400D03*
X126598400Y-130749500D03*
%TO.N,Net-(U2-R_AUDIO)*%
X162467000Y-132082200D03*
%TO.N,+3V3*%
X124000000Y-132471100D03*
X144000000Y-132489600D03*
X134201800Y-124022500D03*
%TO.N,Net-(U2-NC-Pad13)*%
X125421900Y-119028800D03*
%TO.N,GND*%
X159000000Y-131162400D03*
X115780600Y-132048600D03*
X165695000Y-137125000D03*
X105845600Y-132485900D03*
%TO.N,Net-(U2-NC-Pad14)*%
X129787000Y-123394100D03*
%TO.N,Net-(U2-PIF_CIC)*%
X145477800Y-81396100D03*
%TD*%
D17*
%TO.N,unconnected-(U4-GPIO53-Pad54)*%
X141000000Y-113500000D02*
X141000000Y-114150000D01*
%TO.N,unconnected-(U4-GPIO43-Pad44)*%
X121000000Y-113500000D02*
X121000000Y-114150000D01*
%TO.N,unconnected-(U4-GPIO46-Pad47)*%
X127000000Y-113500000D02*
X127000000Y-114150000D01*
%TO.N,unconnected-(U4-GPIO42-Pad43)*%
X119000000Y-113500000D02*
X119000000Y-114150000D01*
%TO.N,unconnected-(U4-GPIO47-Pad48)*%
X129000000Y-113500000D02*
X129000000Y-114150000D01*
%TO.N,unconnected-(U4-GPIO41-Pad42)*%
X117000000Y-113500000D02*
X117000000Y-114150000D01*
%TO.N,unconnected-(U4-GPIO44-Pad45)*%
X123000000Y-113500000D02*
X123000000Y-114150000D01*
%TO.N,unconnected-(U4-GPIO55-Pad56)*%
X145000000Y-113500000D02*
X145000000Y-114150000D01*
%TO.N,unconnected-(U4-GPIO50-Pad51)*%
X135000000Y-113500000D02*
X135000000Y-114150000D01*
%TO.N,unconnected-(U4-GPIO49-Pad50)*%
X133000000Y-113500000D02*
X133000000Y-114150000D01*
%TO.N,unconnected-(U4-GPIO40-Pad41)*%
X115000000Y-113500000D02*
X115000000Y-114150000D01*
%TO.N,unconnected-(U4-GPIO48-Pad49)*%
X131000000Y-113500000D02*
X131000000Y-114150000D01*
%TO.N,unconnected-(U4-GPIO54-Pad55)*%
X143000000Y-113500000D02*
X143000000Y-114150000D01*
%TO.N,unconnected-(U4-GPIO52-Pad53)*%
X139000000Y-113500000D02*
X139000000Y-114150000D01*
%TO.N,unconnected-(U4-GPIO51-Pad52)*%
X137000000Y-113500000D02*
X137000000Y-114150000D01*
%TO.N,unconnected-(U4-GPIO45-Pad46)*%
X125000000Y-113500000D02*
X125000000Y-114150000D01*
%TO.N,unconnected-(U4-GPIO13-Pad14)*%
X147000000Y-90850000D02*
X147000000Y-91500000D01*
%TO.N,unconnected-(U4-GPIO12-Pad13)*%
X149000000Y-90850000D02*
X149000000Y-91500000D01*
%TO.N,unconnected-(U4-GPIO11-Pad12)*%
X151000000Y-90850000D02*
X151000000Y-91500000D01*
%TO.N,unconnected-(U4-GPIO10-Pad11)*%
X153000000Y-90850000D02*
X153000000Y-91500000D01*
%TO.N,unconnected-(U4-GPIO58-Pad59)*%
X151000000Y-113500000D02*
X151000000Y-114150000D01*
%TO.N,unconnected-(U4-GPIO56-Pad57)*%
X147000000Y-113500000D02*
X147000000Y-114150000D01*
%TO.N,unconnected-(U4-GPIO57-Pad58)*%
X149000000Y-113500000D02*
X149000000Y-114150000D01*
%TO.N,unconnected-(U4-GPIO59-Pad60)*%
X153000000Y-113500000D02*
X153000000Y-114150000D01*
%TO.N,WRITE*%
X113000000Y-109500000D02*
X112350000Y-109500000D01*
X121500000Y-143000000D02*
X121500000Y-132698300D01*
X112350000Y-109500000D02*
X110648500Y-109500000D01*
X109844900Y-108696400D02*
X110648500Y-109500000D01*
X109844900Y-83155100D02*
X109844900Y-108696400D01*
X121500000Y-71500000D02*
X109844900Y-83155100D01*
X110648300Y-109500200D02*
X110648500Y-109500000D01*
X110648300Y-121846600D02*
X110648300Y-109500200D01*
X121500000Y-132698300D02*
X110648300Y-121846600D01*
%TO.N,CA_AD13*%
X123000000Y-90850000D02*
X123000000Y-91500000D01*
%TO.N,CA_AD12*%
X127000000Y-90850000D02*
X127000000Y-91500000D01*
%TO.N,CO_AD15*%
X109000000Y-143000000D02*
X109000000Y-132698300D01*
X110237000Y-131461300D02*
X110237000Y-131423000D01*
X109000000Y-132698300D02*
X110237000Y-131461300D01*
X141753000Y-93500000D02*
X155000000Y-93500000D01*
X123389000Y-111864000D02*
X141753000Y-93500000D01*
X155000000Y-93500000D02*
X155650000Y-93500000D01*
%TO.N,CO_AD14*%
X155650000Y-97500000D02*
X155000000Y-97500000D01*
X111500000Y-143000000D02*
X111500000Y-132698300D01*
X155000000Y-97500000D02*
X154023300Y-97500000D01*
X111500000Y-132434700D02*
X111841700Y-132093000D01*
X111500000Y-132698300D02*
X111500000Y-132434700D01*
X147550100Y-97500000D02*
X154023300Y-97500000D01*
X132837900Y-112212200D02*
X147550100Y-97500000D01*
%TO.N,CA_AD15*%
X115000000Y-90850000D02*
X115000000Y-91500000D01*
%TO.N,CO_AD13*%
X155650000Y-101500000D02*
X155000000Y-101500000D01*
X146031700Y-101500000D02*
X135756000Y-111775700D01*
X155000000Y-101500000D02*
X146031700Y-101500000D01*
X114000000Y-143000000D02*
X114000000Y-132698300D01*
X114140100Y-132558200D02*
X114140100Y-130804800D01*
X114000000Y-132698300D02*
X114140100Y-132558200D01*
%TO.N,CA_AD14*%
X119000000Y-90850000D02*
X119000000Y-91500000D01*
%TO.N,CO_AD12*%
X155000000Y-105500000D02*
X155650000Y-105500000D01*
X119000000Y-143000000D02*
X119000000Y-132698300D01*
X155650000Y-105500000D02*
X157351700Y-105500000D01*
X119527900Y-132698300D02*
X119728500Y-132497700D01*
X119000000Y-132698300D02*
X119527900Y-132698300D01*
X149033200Y-122627100D02*
X135617400Y-122627100D01*
X158156400Y-113503900D02*
X149033200Y-122627100D01*
X158156400Y-106304700D02*
X158156400Y-113503900D01*
X157351700Y-105500000D02*
X158156400Y-106304700D01*
%TO.N,CO_AD3*%
X155000000Y-107500000D02*
X155650000Y-107500000D01*
X155650000Y-107500000D02*
X157351700Y-107500000D01*
X138126200Y-120175300D02*
X138024800Y-120073900D01*
X150847600Y-120175300D02*
X138126200Y-120175300D01*
X157753400Y-113269500D02*
X150847600Y-120175300D01*
X157753400Y-107901700D02*
X157753400Y-113269500D01*
X157351700Y-107500000D02*
X157753400Y-107901700D01*
%TO.N,CO_AD6*%
X112350000Y-97500000D02*
X113000000Y-97500000D01*
X137890800Y-131709400D02*
X137890800Y-132364400D01*
X131799600Y-125618200D02*
X137890800Y-131709400D01*
X131799600Y-124555600D02*
X131799600Y-125618200D01*
X125627900Y-118383900D02*
X131799600Y-124555600D01*
X123077500Y-118383900D02*
X125627900Y-118383900D01*
X122275100Y-117581500D02*
X123077500Y-118383900D01*
X119583000Y-117581500D02*
X122275100Y-117581500D01*
X119061600Y-118102900D02*
X119583000Y-117581500D01*
X116351000Y-118102900D02*
X119061600Y-118102900D01*
X113948300Y-115700200D02*
X116351000Y-118102900D01*
X113948300Y-112625000D02*
X113948300Y-115700200D01*
X114927200Y-111646100D02*
X113948300Y-112625000D01*
X114927200Y-98806600D02*
X114927200Y-111646100D01*
%TO.N,CO_AD5*%
X112350000Y-101500000D02*
X113000000Y-101500000D01*
X121403300Y-118519600D02*
X131947100Y-129063400D01*
X121403300Y-118183300D02*
X121403300Y-118519600D01*
%TO.N,CO_AD0*%
X155650000Y-95500000D02*
X155000000Y-95500000D01*
X143552200Y-95500000D02*
X132147900Y-106904300D01*
X155000000Y-95500000D02*
X143552200Y-95500000D01*
%TO.N,CO_AD11*%
X155000000Y-109500000D02*
X155650000Y-109500000D01*
X129000000Y-143000000D02*
X129000000Y-132698300D01*
X155650000Y-109500000D02*
X157351700Y-109500000D01*
X130635900Y-131062400D02*
X129000000Y-132698300D01*
X130635900Y-129503100D02*
X130635900Y-131062400D01*
X139410000Y-119573500D02*
X139410000Y-119573600D01*
X150828300Y-119573500D02*
X139410000Y-119573500D01*
X157351700Y-113050100D02*
X150828300Y-119573500D01*
X157351700Y-109500000D02*
X157351700Y-113050100D01*
%TO.N,CO_AD8*%
X112350000Y-95500000D02*
X113000000Y-95500000D01*
X141500000Y-143000000D02*
X141500000Y-132698300D01*
X141500000Y-132412100D02*
X125583200Y-116495300D01*
X141500000Y-132698300D02*
X141500000Y-132412100D01*
%TO.N,CO_AD10*%
X112350000Y-103500000D02*
X113000000Y-103500000D01*
X131500000Y-143000000D02*
X131500000Y-132698300D01*
X131500000Y-129503900D02*
X131500000Y-132698300D01*
X121379000Y-119382900D02*
X131500000Y-129503900D01*
%TO.N,CO_AD4*%
X155000000Y-111500000D02*
X155650000Y-111500000D01*
X151086200Y-118640500D02*
X139618500Y-118640500D01*
X155000000Y-114726700D02*
X151086200Y-118640500D01*
X155000000Y-111500000D02*
X155000000Y-114726700D01*
%TO.N,CO_AD9*%
X112350000Y-99500000D02*
X113000000Y-99500000D01*
X139000000Y-143000000D02*
X139000000Y-132698300D01*
X117912300Y-117134600D02*
X117560800Y-117486100D01*
X123540900Y-117134600D02*
X117912300Y-117134600D01*
X124344000Y-117937700D02*
X123540900Y-117134600D01*
X125752600Y-117937700D02*
X124344000Y-117937700D01*
X136800100Y-128985200D02*
X125752600Y-117937700D01*
X136800100Y-129928400D02*
X136800100Y-128985200D01*
X139000000Y-132128300D02*
X136800100Y-129928400D01*
X139000000Y-132698300D02*
X139000000Y-132128300D01*
%TO.N,CO_AD2*%
X155650000Y-103500000D02*
X155000000Y-103500000D01*
X147778900Y-103500000D02*
X155000000Y-103500000D01*
X139375400Y-111903500D02*
X147778900Y-103500000D01*
%TO.N,CO_AD7*%
X112350000Y-93500000D02*
X113000000Y-93500000D01*
X116325700Y-116676300D02*
X116087500Y-116914500D01*
X123852300Y-116676300D02*
X116325700Y-116676300D01*
X124629500Y-117453500D02*
X123852300Y-116676300D01*
X125838500Y-117453500D02*
X124629500Y-117453500D01*
X137606700Y-129221700D02*
X125838500Y-117453500D01*
X137606700Y-129703900D02*
X137606700Y-129221700D01*
%TO.N,CO_AD1*%
X155650000Y-99500000D02*
X155000000Y-99500000D01*
X134948800Y-111732100D02*
X134948800Y-112231600D01*
X147180900Y-99500000D02*
X134948800Y-111732100D01*
X155000000Y-99500000D02*
X147180900Y-99500000D01*
%TO.N,CA_AD10*%
X135000000Y-90850000D02*
X135000000Y-91500000D01*
X134998500Y-89146800D02*
X135000000Y-89148300D01*
X134998500Y-74998500D02*
X134998500Y-89146800D01*
X131500000Y-71500000D02*
X134998500Y-74998500D01*
X135000000Y-90850000D02*
X135000000Y-89148300D01*
%TO.N,Net-(U2-S_DAT)*%
X154000000Y-132240300D02*
X154000000Y-143000000D01*
X159822500Y-126417800D02*
X154000000Y-132240300D01*
X159822500Y-77322500D02*
X159822500Y-126417800D01*
X154000000Y-71500000D02*
X159822500Y-77322500D01*
%TO.N,CA_AD6*%
X141000000Y-90850000D02*
X141000000Y-91500000D01*
X140150000Y-88298300D02*
X141000000Y-89148300D01*
X140150000Y-67650000D02*
X140150000Y-88298300D01*
X139000000Y-66500000D02*
X140150000Y-67650000D01*
X141000000Y-90850000D02*
X141000000Y-89148300D01*
%TO.N,CA_AD9*%
X139000000Y-71500000D02*
X139000000Y-90850000D01*
X139000000Y-90850000D02*
X139000000Y-91500000D01*
%TO.N,Net-(U2-CIC_PIF)*%
X146500000Y-126333200D02*
X146500000Y-143000000D01*
X158567400Y-114265800D02*
X146500000Y-126333200D01*
X158567400Y-83567400D02*
X158567400Y-114265800D01*
X146500000Y-71500000D02*
X158567400Y-83567400D01*
%TO.N,CA_AD4*%
X133000000Y-82167900D02*
X133000000Y-90850000D01*
X130250000Y-79417900D02*
X133000000Y-82167900D01*
X130250000Y-67750000D02*
X130250000Y-79417900D01*
X129000000Y-66500000D02*
X130250000Y-67750000D01*
X133000000Y-90850000D02*
X133000000Y-91500000D01*
%TO.N,CA_AD1*%
X121000000Y-90850000D02*
X121000000Y-91500000D01*
%TO.N,CA_AD11*%
X131000000Y-85275100D02*
X131000000Y-90850000D01*
X129000000Y-83275100D02*
X131000000Y-85275100D01*
X129000000Y-71500000D02*
X129000000Y-83275100D01*
X131000000Y-90850000D02*
X131000000Y-91500000D01*
%TO.N,CA_AD5*%
X137000000Y-90850000D02*
X137000000Y-91500000D01*
X137000000Y-85863000D02*
X137000000Y-90850000D01*
X135400200Y-84263200D02*
X137000000Y-85863000D01*
X135400200Y-70400200D02*
X135400200Y-84263200D01*
X131500000Y-66500000D02*
X135400200Y-70400200D01*
%TO.N,CA_AD2*%
X125000000Y-90850000D02*
X125000000Y-91500000D01*
%TO.N,ALE_L*%
X113000000Y-107500000D02*
X112350000Y-107500000D01*
X112350000Y-107500000D02*
X110648300Y-107500000D01*
X112509800Y-122390500D02*
X112509800Y-113214600D01*
X121355300Y-131236000D02*
X112509800Y-122390500D01*
X110246600Y-107098300D02*
X110648300Y-107500000D01*
X110246600Y-90582000D02*
X110246600Y-107098300D01*
X122574100Y-78254500D02*
X110246600Y-90582000D01*
X122574100Y-67574100D02*
X122574100Y-78254500D01*
X121500000Y-66500000D02*
X122574100Y-67574100D01*
%TO.N,Net-(U2-CLK_PIF)*%
X149000000Y-143000000D02*
X149000000Y-132698300D01*
X159014600Y-122683700D02*
X149000000Y-132698300D01*
X159014600Y-81514600D02*
X159014600Y-122683700D01*
X149000000Y-71500000D02*
X159014600Y-81514600D01*
%TO.N,CA_AD3*%
X129000000Y-90850000D02*
X129000000Y-91500000D01*
%TO.N,ALE_H*%
X112350000Y-105500000D02*
X113000000Y-105500000D01*
X112350000Y-105500000D02*
X110648300Y-105500000D01*
X120030900Y-124182000D02*
X126598400Y-130749500D01*
X120030900Y-118234400D02*
X120030900Y-124182000D01*
X110648300Y-91316300D02*
X110648300Y-105500000D01*
X125083700Y-76880900D02*
X110648300Y-91316300D01*
X125083700Y-67916300D02*
X125083700Y-76880900D01*
X126500000Y-66500000D02*
X125083700Y-67916300D01*
%TO.N,CA_AD7*%
X145000000Y-90850000D02*
X145000000Y-91500000D01*
X144876100Y-89024400D02*
X145000000Y-89148300D01*
X144876100Y-80758300D02*
X144876100Y-89024400D01*
X142750000Y-78632200D02*
X144876100Y-80758300D01*
X142750000Y-67750000D02*
X142750000Y-78632200D01*
X141500000Y-66500000D02*
X142750000Y-67750000D01*
X145000000Y-90850000D02*
X145000000Y-89148300D01*
%TO.N,Net-(U2-COLD_RST)*%
X151500000Y-143000000D02*
X151500000Y-132698300D01*
X159416300Y-124782000D02*
X151500000Y-132698300D01*
X159416300Y-79416300D02*
X159416300Y-124782000D01*
X151500000Y-71500000D02*
X159416300Y-79416300D01*
%TO.N,Net-(U2-R_AUDIO)*%
X162600100Y-131949100D02*
X162467000Y-132082200D01*
X162600100Y-67600100D02*
X162600100Y-131949100D01*
X161500000Y-66500000D02*
X162600100Y-67600100D01*
%TO.N,Net-(U2-LAUDIO)*%
X161500000Y-143000000D02*
X161500000Y-132698300D01*
X161500000Y-132698300D02*
X161500000Y-71500000D01*
%TO.N,READ*%
X112350000Y-111500000D02*
X113000000Y-111500000D01*
X113000000Y-111500000D02*
X113000000Y-112476700D01*
X126500000Y-143000000D02*
X126500000Y-132698300D01*
X113334800Y-119533100D02*
X126500000Y-132698300D01*
X113334800Y-112811500D02*
X113334800Y-119533100D01*
X113000000Y-112476700D02*
X113334800Y-112811500D01*
X114052400Y-110447600D02*
X113000000Y-111500000D01*
X114052400Y-92625700D02*
X114052400Y-110447600D01*
X113948300Y-92521600D02*
X114052400Y-92625700D01*
X113948300Y-89325000D02*
X113948300Y-92521600D01*
X126500000Y-76773300D02*
X113948300Y-89325000D01*
X126500000Y-71500000D02*
X126500000Y-76773300D01*
%TO.N,CA_AD0*%
X117000000Y-90850000D02*
X117000000Y-91500000D01*
%TO.N,+3V3*%
X144000000Y-66500000D02*
X144000000Y-71500000D01*
X124000000Y-66500000D02*
X124000000Y-71500000D01*
X124000000Y-143000000D02*
X124000000Y-132698300D01*
X124000000Y-132698300D02*
X124000000Y-132471100D01*
X144000000Y-143000000D02*
X144000000Y-132698300D01*
X144000000Y-132698300D02*
X144000000Y-132489600D01*
X135532900Y-124022500D02*
X134201800Y-124022500D01*
X144000000Y-132489600D02*
X135532900Y-124022500D01*
%TO.N,Net-(U2-NC-Pad13)*%
X134000000Y-143000000D02*
X134000000Y-132698300D01*
X125421900Y-121687300D02*
X125421900Y-119028800D01*
X134000000Y-130265400D02*
X125421900Y-121687300D01*
X134000000Y-132698300D02*
X134000000Y-130265400D01*
%TO.N,GND*%
X156500000Y-143000000D02*
X156500000Y-132698300D01*
X159000000Y-132698300D02*
X156500000Y-132698300D01*
X159000000Y-143000000D02*
X159000000Y-132698300D01*
X159000000Y-132698300D02*
X159000000Y-131162400D01*
X116500000Y-143000000D02*
X116500000Y-132698300D01*
X165051500Y-132698300D02*
X164000000Y-132698300D01*
X165695000Y-133341800D02*
X165051500Y-132698300D01*
X165695000Y-137125000D02*
X165695000Y-133341800D01*
X164000000Y-143000000D02*
X164000000Y-132698300D01*
X106500000Y-143000000D02*
X106500000Y-137849100D01*
X104000000Y-143000000D02*
X104000000Y-132698300D01*
X116430300Y-132698300D02*
X115780600Y-132048600D01*
X116500000Y-132698300D02*
X116430300Y-132698300D01*
X106500000Y-134146800D02*
X105342400Y-132989100D01*
X106500000Y-137849100D02*
X106500000Y-134146800D01*
X105051500Y-132698300D02*
X104000000Y-132698300D01*
X105342400Y-132989100D02*
X105051500Y-132698300D01*
X105342400Y-132989100D02*
X105845600Y-132485900D01*
X105845600Y-132485900D02*
X108133200Y-130198300D01*
X115780600Y-131493100D02*
X115780600Y-132048600D01*
X114485800Y-130198300D02*
X115780600Y-131493100D01*
X108133200Y-130198300D02*
X114485800Y-130198300D01*
X106500000Y-66500000D02*
X104000000Y-66500000D01*
X106500000Y-66500000D02*
X106500000Y-71500000D01*
X108133200Y-73446800D02*
X108133200Y-130198300D01*
X106500000Y-71813600D02*
X106500000Y-71500000D01*
X108133200Y-73446800D02*
X106500000Y-71813600D01*
X114553200Y-73446800D02*
X108133200Y-73446800D01*
X116500000Y-71500000D02*
X114553200Y-73446800D01*
X117598800Y-65401200D02*
X116500000Y-66500000D01*
X155401200Y-65401200D02*
X117598800Y-65401200D01*
X156500000Y-66500000D02*
X155401200Y-65401200D01*
X160228700Y-72728700D02*
X159000000Y-71500000D01*
X160228700Y-129933700D02*
X160228700Y-72728700D01*
X159000000Y-131162400D02*
X160228700Y-129933700D01*
%TO.N,CA_AD8*%
X143000000Y-79450200D02*
X143000000Y-90850000D01*
X141500000Y-77950200D02*
X143000000Y-79450200D01*
X141500000Y-71500000D02*
X141500000Y-77950200D01*
X143000000Y-90850000D02*
X143000000Y-91500000D01*
%TO.N,Net-(U2-NC-Pad14)*%
X136500000Y-143000000D02*
X136500000Y-132698300D01*
X136500000Y-131474500D02*
X136500000Y-132698300D01*
X129787000Y-124761500D02*
X136500000Y-131474500D01*
X129787000Y-123394100D02*
X129787000Y-124761500D01*
%TO.N,Net-(U2-PIF_CIC)*%
X145436300Y-81354600D02*
X145477800Y-81396100D01*
X145436300Y-67563700D02*
X145436300Y-81354600D01*
X146500000Y-66500000D02*
X145436300Y-67563700D01*
%TD*%
M02*
