M48
; DRILL file {KiCad 8.0.6} date 2024-10-28T22:25:19-0500
; FORMAT={-:-/ absolute / inch / decimal}
; #@! TF.CreationDate,2024-10-28T22:25:19-05:00
; #@! TF.GenerationSoftware,Kicad,Pcbnew,8.0.6
; #@! TF.FileFunction,Plated,1,2,PTH
FMAT,2
INCH
; #@! TA.AperFunction,Plated,PTH,ViaDrill
T1C0.0118
; #@! TA.AperFunction,Plated,PTH,ComponentDrill
T2C0.0300
; #@! TA.AperFunction,Plated,PTH,ComponentDrill
T3C0.0315
; #@! TA.AperFunction,Plated,PTH,ComponentDrill
T4C0.0394
%
G90
G05
T1
X4.1441Y-5.22
X4.2592Y-5.162
X4.3079Y-5.1484
X4.3105Y-5.2003
X4.3688Y-5.2103
X4.3885Y-3.4713
X4.4153Y-3.3458
X4.4757Y-5.2013
X4.528Y-5.1848
X4.5317Y-5.0871
X4.577Y-5.1015
X4.6239Y-5.1481
X4.7202Y-5.1947
X4.7881Y-5.1848
X4.8171Y-4.9073
X4.841Y-4.3724
X4.8915Y-5.2147
X4.9557Y-5.2064
X4.9585Y-4.182
X4.9845Y-4.6103
X5.0506Y-4.4144
X5.0979Y-3.6565
X5.0999Y-5.2031
X5.1342Y-5.1999
X5.1658Y-5.1819
X5.3125Y-4.8988
X5.3346Y-3.6613
X5.3346Y-4.2215
X5.361Y-4.6249
X5.3716Y-4.5926
X5.3869Y-5.1148
X5.4194Y-5.1949
X5.4213Y-4.9739
X5.4283Y-4.5704
X5.5458Y-5.2163
X5.6478Y-4.4185
X5.6831Y-5.2161
X5.7087Y-4.5691
X5.8414Y-5.0904
X5.8964Y-3.3012
X5.9403Y-5.1706
X6.1837Y-3.6298
X6.2598Y-5.2151
X6.3453Y-3.2335
X6.3552Y-4.8993
X6.3857Y-4.8839
X6.3968Y-5.1964
T2
X4.0945Y-2.6181
X4.0945Y-2.815
X4.1929Y-2.6181
X4.1929Y-2.815
X4.2913Y-2.6181
X4.2913Y-2.815
X4.3898Y-2.6181
X4.3898Y-2.815
X4.4882Y-2.6181
X4.4882Y-2.815
X4.5866Y-2.6181
X4.5866Y-2.815
X4.685Y-2.6181
X4.685Y-2.815
X4.7835Y-2.6181
X4.7835Y-2.815
X4.8819Y-2.6181
X4.8819Y-2.815
X4.9803Y-2.6181
X4.9803Y-2.815
X5.0787Y-2.6181
X5.0787Y-2.815
X5.1772Y-2.6181
X5.1772Y-2.815
X5.2756Y-2.6181
X5.2756Y-2.815
X5.374Y-2.6181
X5.374Y-2.815
X5.4724Y-2.6181
X5.4724Y-2.815
X5.5709Y-2.6181
X5.5709Y-2.815
X5.6693Y-2.6181
X5.6693Y-2.815
X5.7677Y-2.6181
X5.7677Y-2.815
X5.8661Y-2.6181
X5.8661Y-2.815
X5.9646Y-2.6181
X5.9646Y-2.815
X6.063Y-2.6181
X6.063Y-2.815
X6.1614Y-2.6181
X6.1614Y-2.815
X6.2598Y-2.6181
X6.2598Y-2.815
X6.3583Y-2.6181
X6.3583Y-2.815
X6.4567Y-2.6181
X6.4567Y-2.815
T3
X4.4488Y-3.6811
X4.4488Y-3.7598
X4.4488Y-3.8386
X4.4488Y-3.9173
X4.4488Y-3.9961
X4.4488Y-4.0748
X4.4488Y-4.1535
X4.4488Y-4.2323
X4.4488Y-4.311
X4.4488Y-4.3898
X4.5276Y-3.6024
X4.5276Y-4.4685
X4.6063Y-3.6024
X4.6063Y-4.4685
X4.685Y-3.6024
X4.685Y-4.4685
X4.7638Y-3.6024
X4.7638Y-4.4685
X4.8425Y-3.6024
X4.8425Y-4.4685
X4.9213Y-3.6024
X4.9213Y-4.4685
X5.0Y-3.6024
X5.0Y-4.4685
X5.0787Y-3.6024
X5.0787Y-4.4685
X5.1575Y-3.6024
X5.1575Y-4.4685
X5.2362Y-3.6024
X5.2362Y-4.4685
X5.315Y-3.6024
X5.315Y-4.4685
X5.3937Y-3.6024
X5.3937Y-4.4685
X5.4724Y-3.6024
X5.4724Y-4.4685
X5.5512Y-3.6024
X5.5512Y-4.4685
X5.6299Y-3.6024
X5.6299Y-4.4685
X5.7087Y-3.6024
X5.7087Y-4.4685
X5.7874Y-3.6024
X5.7874Y-4.4685
X5.8661Y-3.6024
X5.8661Y-4.4685
X5.9449Y-3.6024
X5.9449Y-4.4685
X6.0236Y-3.6024
X6.0236Y-4.4685
X6.1024Y-3.6811
X6.1024Y-3.7598
X6.1024Y-3.8386
X6.1024Y-3.9173
X6.1024Y-3.9961
X6.1024Y-4.0748
X6.1024Y-4.1535
X6.1024Y-4.2323
X6.1024Y-4.311
X6.1024Y-4.3898
T4
X4.0748Y-3.937
X4.0748Y-4.037
X4.0748Y-4.137
X6.4764Y-3.937
X6.4764Y-4.037
X6.4764Y-4.137
X6.4764Y-4.4291
X6.4764Y-4.5291
X6.4764Y-4.6291
X6.4764Y-4.7291
M30
