%TF.GenerationSoftware,KiCad,Pcbnew,8.0.6*%
%TF.CreationDate,2024-10-28T22:25:22-05:00*%
%TF.ProjectId,n64_gamecat_rp2350b,6e36345f-6761-46d6-9563-61745f727032,rev?*%
%TF.SameCoordinates,Original*%
%TF.FileFunction,Soldermask,Top*%
%TF.FilePolarity,Negative*%
%FSLAX46Y46*%
G04 Gerber Fmt 4.6, Leading zero omitted, Abs format (unit mm)*
G04 Created by KiCad (PCBNEW 8.0.6) date 2024-10-28 22:25:22*
%MOMM*%
%LPD*%
G01*
G04 APERTURE LIST*
%ADD10R,1.700000X1.700000*%
%ADD11O,1.700000X1.700000*%
%ADD12R,1.800000X20.000000*%
%ADD13R,2.800000X1.500000*%
%ADD14C,1.350000*%
%ADD15O,1.350000X1.350000*%
%ADD16R,1.500000X2.800000*%
%ADD17C,1.524000*%
G04 APERTURE END LIST*
D10*
%TO.C,J4*%
X164500000Y-112500000D03*
D11*
X164500000Y-115040000D03*
X164500000Y-117580000D03*
X164500000Y-120120000D03*
%TD*%
D10*
%TO.C,J2*%
X103500000Y-100000000D03*
D11*
X103500000Y-102540000D03*
X103500000Y-105080000D03*
%TD*%
D10*
%TO.C,J1*%
X164500000Y-100000000D03*
D11*
X164500000Y-102540000D03*
X164500000Y-105080000D03*
%TD*%
D12*
%TO.C,U3*%
X104000000Y-143000000D03*
X106500000Y-143000000D03*
X109000000Y-143000000D03*
X111500000Y-143000000D03*
X114000000Y-143000000D03*
X116500000Y-143000000D03*
X119000000Y-143000000D03*
X121500000Y-143000000D03*
X124000000Y-143000000D03*
X126500000Y-143000000D03*
X129000000Y-143000000D03*
X131500000Y-143000000D03*
X134000000Y-143000000D03*
X136500000Y-143000000D03*
X139000000Y-143000000D03*
X141500000Y-143000000D03*
X144000000Y-143000000D03*
X146500000Y-143000000D03*
X149000000Y-143000000D03*
X151500000Y-143000000D03*
X154000000Y-143000000D03*
X156500000Y-143000000D03*
X159000000Y-143000000D03*
X161500000Y-143000000D03*
X164000000Y-143000000D03*
%TD*%
D13*
%TO.C,U4*%
X155650000Y-111500000D03*
D14*
X155000000Y-111500000D03*
D13*
X155650000Y-109500000D03*
D15*
X155000000Y-109500000D03*
D13*
X155650000Y-107500000D03*
D15*
X155000000Y-107500000D03*
D13*
X155650000Y-105500000D03*
D15*
X155000000Y-105500000D03*
D13*
X155650000Y-103500000D03*
D15*
X155000000Y-103500000D03*
D13*
X155650000Y-101500000D03*
D15*
X155000000Y-101500000D03*
D13*
X155650000Y-99500000D03*
D15*
X155000000Y-99500000D03*
D13*
X155650000Y-97500000D03*
D15*
X155000000Y-97500000D03*
D13*
X155650000Y-95500000D03*
D15*
X155000000Y-95500000D03*
D13*
X155650000Y-93500000D03*
D15*
X155000000Y-93500000D03*
X153000000Y-91500000D03*
D16*
X153000000Y-90850000D03*
D15*
X151000000Y-91500000D03*
D16*
X151000000Y-90850000D03*
D15*
X149000000Y-91500000D03*
D16*
X149000000Y-90850000D03*
D15*
X147000000Y-91500000D03*
D16*
X147000000Y-90850000D03*
D15*
X145000000Y-91500000D03*
D16*
X145000000Y-90850000D03*
D15*
X143000000Y-91500000D03*
D16*
X143000000Y-90850000D03*
D15*
X141000000Y-91500000D03*
D16*
X141000000Y-90850000D03*
D15*
X139000000Y-91500000D03*
D16*
X139000000Y-90850000D03*
D15*
X137000000Y-91500000D03*
D16*
X137000000Y-90850000D03*
D15*
X135000000Y-91500000D03*
D16*
X135000000Y-90850000D03*
D15*
X133000000Y-91500000D03*
D16*
X133000000Y-90850000D03*
D15*
X131000000Y-91500000D03*
D16*
X131000000Y-90850000D03*
D15*
X129000000Y-91500000D03*
D16*
X129000000Y-90850000D03*
D15*
X127000000Y-91500000D03*
D16*
X127000000Y-90850000D03*
D15*
X125000000Y-91500000D03*
D16*
X125000000Y-90850000D03*
D15*
X123000000Y-91500000D03*
D16*
X123000000Y-90850000D03*
D15*
X121000000Y-91500000D03*
D16*
X121000000Y-90850000D03*
D15*
X119000000Y-91500000D03*
D16*
X119000000Y-90850000D03*
D15*
X117000000Y-91500000D03*
D16*
X117000000Y-90850000D03*
D15*
X115000000Y-91500000D03*
D16*
X115000000Y-90850000D03*
D15*
X113000000Y-93500000D03*
D13*
X112350000Y-93500000D03*
D15*
X113000000Y-95500000D03*
D13*
X112350000Y-95500000D03*
D15*
X113000000Y-97500000D03*
D13*
X112350000Y-97500000D03*
D15*
X113000000Y-99500000D03*
D13*
X112350000Y-99500000D03*
D15*
X113000000Y-101500000D03*
D13*
X112350000Y-101500000D03*
D15*
X113000000Y-103500000D03*
D13*
X112350000Y-103500000D03*
D15*
X113000000Y-105500000D03*
D13*
X112350000Y-105500000D03*
D15*
X113000000Y-107500000D03*
D13*
X112350000Y-107500000D03*
D15*
X113000000Y-109500000D03*
D13*
X112350000Y-109500000D03*
D15*
X113000000Y-111500000D03*
D13*
X112350000Y-111500000D03*
D16*
X115000000Y-114150000D03*
D15*
X115000000Y-113500000D03*
D16*
X117000000Y-114150000D03*
D15*
X117000000Y-113500000D03*
D16*
X119000000Y-114150000D03*
D15*
X119000000Y-113500000D03*
D16*
X121000000Y-114150000D03*
D15*
X121000000Y-113500000D03*
D16*
X123000000Y-114150000D03*
D15*
X123000000Y-113500000D03*
D16*
X125000000Y-114150000D03*
D15*
X125000000Y-113500000D03*
D16*
X127000000Y-114150000D03*
D15*
X127000000Y-113500000D03*
D16*
X129000000Y-114150000D03*
D15*
X129000000Y-113500000D03*
D16*
X131000000Y-114150000D03*
D15*
X131000000Y-113500000D03*
D16*
X133000000Y-114150000D03*
D15*
X133000000Y-113500000D03*
D16*
X135000000Y-114150000D03*
D15*
X135000000Y-113500000D03*
D16*
X137000000Y-114150000D03*
D15*
X137000000Y-113500000D03*
D16*
X139000000Y-114150000D03*
D15*
X139000000Y-113500000D03*
D16*
X141000000Y-114150000D03*
D15*
X141000000Y-113500000D03*
D16*
X143000000Y-114150000D03*
D15*
X143000000Y-113500000D03*
D16*
X145000000Y-114150000D03*
D15*
X145000000Y-113500000D03*
D16*
X147000000Y-114150000D03*
D15*
X147000000Y-113500000D03*
D16*
X149000000Y-114150000D03*
D15*
X149000000Y-113500000D03*
D16*
X151000000Y-114150000D03*
D15*
X151000000Y-113500000D03*
D16*
X153000000Y-114150000D03*
D15*
X153000000Y-113500000D03*
%TD*%
D17*
%TO.C,U2*%
X104000000Y-71500000D03*
X106500000Y-71500000D03*
X109000000Y-71500000D03*
X111500000Y-71500000D03*
X114000000Y-71500000D03*
X116500000Y-71500000D03*
X119000000Y-71500000D03*
X121500000Y-71500000D03*
X124000000Y-71500000D03*
X126500000Y-71500000D03*
X129000000Y-71500000D03*
X131500000Y-71500000D03*
X134000000Y-71500000D03*
X136500000Y-71500000D03*
X139000000Y-71500000D03*
X141500000Y-71500000D03*
X144000000Y-71500000D03*
X146500000Y-71500000D03*
X149000000Y-71500000D03*
X151500000Y-71500000D03*
X154000000Y-71500000D03*
X156500000Y-71500000D03*
X159000000Y-71500000D03*
X161500000Y-71500000D03*
X164000000Y-71500000D03*
X104000000Y-66500000D03*
X106500000Y-66500000D03*
X109000000Y-66500000D03*
X111500000Y-66500000D03*
X114000000Y-66500000D03*
X116500000Y-66500000D03*
X119000000Y-66500000D03*
X121500000Y-66500000D03*
X124000000Y-66500000D03*
X126500000Y-66500000D03*
X129000000Y-66500000D03*
X131500000Y-66500000D03*
X134000000Y-66500000D03*
X136500000Y-66500000D03*
X139000000Y-66500000D03*
X141500000Y-66500000D03*
X144000000Y-66500000D03*
X146500000Y-66500000D03*
X149000000Y-66500000D03*
X151500000Y-66500000D03*
X154000000Y-66500000D03*
X156500000Y-66500000D03*
X159000000Y-66500000D03*
X161500000Y-66500000D03*
X164000000Y-66500000D03*
%TD*%
M02*
