M48
; DRILL file {KiCad 8.0.6} date 2024-10-28T20:20:33-0500
; FORMAT={-:-/ absolute / inch / decimal}
; #@! TF.CreationDate,2024-10-28T20:20:33-05:00
; #@! TF.GenerationSoftware,Kicad,Pcbnew,8.0.6
; #@! TF.FileFunction,Plated,1,2,PTH
FMAT,2
INCH
; #@! TA.AperFunction,Plated,PTH,ViaDrill
T1C0.0118
; #@! TA.AperFunction,Plated,PTH,ComponentDrill
T2C0.0300
; #@! TA.AperFunction,Plated,PTH,ComponentDrill
T3C0.0315
%
G90
G05
T1
X4.1671Y-5.216
X4.34Y-5.1741
X4.4032Y-5.2005
X4.4295Y-4.4573
X4.4937Y-5.1498
X4.5247Y-3.89
X4.5583Y-5.1988
X4.5704Y-4.6029
X4.6284Y-4.6254
X4.7137Y-5.2164
X4.7256Y-4.6549
X4.7778Y-5.1668
X4.7787Y-4.7001
X4.7797Y-4.6529
X4.8578Y-4.4041
X4.8819Y-5.2154
X4.9379Y-4.6862
X4.9442Y-4.5864
X4.9842Y-5.1476
X5.1097Y-4.858
X5.1431Y-5.0985
X5.1948Y-5.0812
X5.2027Y-4.2088
X5.2298Y-4.4178
X5.2835Y-4.8828
X5.3129Y-4.4186
X5.3393Y-4.8278
X5.3447Y-4.4006
X5.4176Y-5.1065
X5.4288Y-5.2112
X5.434Y-4.7273
X5.4872Y-4.4056
X5.4886Y-4.7076
X5.4968Y-4.6709
X5.6693Y-5.2161
X5.7275Y-3.2046
X6.2598Y-5.1639
X6.3963Y-5.2001
X6.5234Y-5.3986
T2
X4.0945Y-2.6181
X4.0945Y-2.815
X4.1929Y-2.6181
X4.1929Y-2.815
X4.2913Y-2.6181
X4.2913Y-2.815
X4.3898Y-2.6181
X4.3898Y-2.815
X4.4882Y-2.6181
X4.4882Y-2.815
X4.5866Y-2.6181
X4.5866Y-2.815
X4.685Y-2.6181
X4.685Y-2.815
X4.7835Y-2.6181
X4.7835Y-2.815
X4.8819Y-2.6181
X4.8819Y-2.815
X4.9803Y-2.6181
X4.9803Y-2.815
X5.0787Y-2.6181
X5.0787Y-2.815
X5.1772Y-2.6181
X5.1772Y-2.815
X5.2756Y-2.6181
X5.2756Y-2.815
X5.374Y-2.6181
X5.374Y-2.815
X5.4724Y-2.6181
X5.4724Y-2.815
X5.5709Y-2.6181
X5.5709Y-2.815
X5.6693Y-2.6181
X5.6693Y-2.815
X5.7677Y-2.6181
X5.7677Y-2.815
X5.8661Y-2.6181
X5.8661Y-2.815
X5.9646Y-2.6181
X5.9646Y-2.815
X6.063Y-2.6181
X6.063Y-2.815
X6.1614Y-2.6181
X6.1614Y-2.815
X6.2598Y-2.6181
X6.2598Y-2.815
X6.3583Y-2.6181
X6.3583Y-2.815
X6.4567Y-2.6181
X6.4567Y-2.815
T3
X4.4488Y-3.6811
X4.4488Y-3.7598
X4.4488Y-3.8386
X4.4488Y-3.9173
X4.4488Y-3.9961
X4.4488Y-4.0748
X4.4488Y-4.1535
X4.4488Y-4.2323
X4.4488Y-4.311
X4.4488Y-4.3898
X4.5276Y-3.6024
X4.5276Y-4.4685
X4.6063Y-3.6024
X4.6063Y-4.4685
X4.685Y-3.6024
X4.685Y-4.4685
X4.7638Y-3.6024
X4.7638Y-4.4685
X4.8425Y-3.6024
X4.8425Y-4.4685
X4.9213Y-3.6024
X4.9213Y-4.4685
X5.0Y-3.6024
X5.0Y-4.4685
X5.0787Y-3.6024
X5.0787Y-4.4685
X5.1575Y-3.6024
X5.1575Y-4.4685
X5.2362Y-3.6024
X5.2362Y-4.4685
X5.315Y-3.6024
X5.315Y-4.4685
X5.3937Y-3.6024
X5.3937Y-4.4685
X5.4724Y-3.6024
X5.4724Y-4.4685
X5.5512Y-3.6024
X5.5512Y-4.4685
X5.6299Y-3.6024
X5.6299Y-4.4685
X5.7087Y-3.6024
X5.7087Y-4.4685
X5.7874Y-3.6024
X5.7874Y-4.4685
X5.8661Y-3.6024
X5.8661Y-4.4685
X5.9449Y-3.6024
X5.9449Y-4.4685
X6.0236Y-3.6024
X6.0236Y-4.4685
X6.1024Y-3.6811
X6.1024Y-3.7598
X6.1024Y-3.8386
X6.1024Y-3.9173
X6.1024Y-3.9961
X6.1024Y-4.0748
X6.1024Y-4.1535
X6.1024Y-4.2323
X6.1024Y-4.311
X6.1024Y-4.3898
M30
