M48
; DRILL file {KiCad 8.0.6} date 2024-10-17T23:32:32-0500
; FORMAT={-:-/ absolute / inch / decimal}
; #@! TF.CreationDate,2024-10-17T23:32:32-05:00
; #@! TF.GenerationSoftware,Kicad,Pcbnew,8.0.6
; #@! TF.FileFunction,Plated,1,2,PTH
FMAT,2
INCH
; #@! TA.AperFunction,Plated,PTH,ViaDrill
T1C0.0118
; #@! TA.AperFunction,Plated,PTH,ComponentDrill
T2C0.0300
; #@! TA.AperFunction,Plated,PTH,ComponentDrill
T3C0.0315
%
G90
G05
T1
X4.1437Y-5.2199
X4.4138Y-5.0965
X4.5482Y-5.1944
X4.5809Y-5.2156
X4.7769Y-5.1883
X4.8254Y-5.1828
X4.9311Y-5.2159
X4.9837Y-4.9953
X5.0867Y-4.4093
X5.2454Y-4.6587
X5.3691Y-4.5902
X5.6344Y-5.2163
X6.2106Y-5.2199
X6.315Y-5.2105
X6.5121Y-5.6853
T2
X4.0945Y-2.6181
X4.0945Y-2.815
X4.1929Y-2.6181
X4.1929Y-2.815
X4.2913Y-2.6181
X4.2913Y-2.815
X4.3898Y-2.6181
X4.3898Y-2.815
X4.4882Y-2.6181
X4.4882Y-2.815
X4.5866Y-2.6181
X4.5866Y-2.815
X4.685Y-2.6181
X4.685Y-2.815
X4.7835Y-2.6181
X4.7835Y-2.815
X4.8819Y-2.6181
X4.8819Y-2.815
X4.9803Y-2.6181
X4.9803Y-2.815
X5.0787Y-2.6181
X5.0787Y-2.815
X5.1772Y-2.6181
X5.1772Y-2.815
X5.2756Y-2.6181
X5.2756Y-2.815
X5.374Y-2.6181
X5.374Y-2.815
X5.4724Y-2.6181
X5.4724Y-2.815
X5.5709Y-2.6181
X5.5709Y-2.815
X5.6693Y-2.6181
X5.6693Y-2.815
X5.7677Y-2.6181
X5.7677Y-2.815
X5.8661Y-2.6181
X5.8661Y-2.815
X5.9646Y-2.6181
X5.9646Y-2.815
X6.063Y-2.6181
X6.063Y-2.815
X6.1614Y-2.6181
X6.1614Y-2.815
X6.2598Y-2.6181
X6.2598Y-2.815
X6.3583Y-2.6181
X6.3583Y-2.815
X6.4567Y-2.6181
X6.4567Y-2.815
T3
X4.4488Y-3.6811
X4.4488Y-3.7598
X4.4488Y-3.8386
X4.4488Y-3.9173
X4.4488Y-3.9961
X4.4488Y-4.0748
X4.4488Y-4.1535
X4.4488Y-4.2323
X4.4488Y-4.311
X4.4488Y-4.3898
X4.5276Y-3.6024
X4.5276Y-4.4685
X4.6063Y-3.6024
X4.6063Y-4.4685
X4.685Y-3.6024
X4.685Y-4.4685
X4.7638Y-3.6024
X4.7638Y-4.4685
X4.8425Y-3.6024
X4.8425Y-4.4685
X4.9213Y-3.6024
X4.9213Y-4.4685
X5.0Y-3.6024
X5.0Y-4.4685
X5.0787Y-3.6024
X5.0787Y-4.4685
X5.1575Y-3.6024
X5.1575Y-4.4685
X5.2362Y-3.6024
X5.2362Y-4.4685
X5.315Y-3.6024
X5.315Y-4.4685
X5.3937Y-3.6024
X5.3937Y-4.4685
X5.4724Y-3.6024
X5.4724Y-4.4685
X5.5512Y-3.6024
X5.5512Y-4.4685
X5.6299Y-3.6024
X5.6299Y-4.4685
X5.7087Y-3.6024
X5.7087Y-4.4685
X5.7874Y-3.6024
X5.7874Y-4.4685
X5.8661Y-3.6024
X5.8661Y-4.4685
X5.9449Y-3.6024
X5.9449Y-4.4685
X6.0236Y-3.6024
X6.0236Y-4.4685
X6.1024Y-3.6811
X6.1024Y-3.7598
X6.1024Y-3.8386
X6.1024Y-3.9173
X6.1024Y-3.9961
X6.1024Y-4.0748
X6.1024Y-4.1535
X6.1024Y-4.2323
X6.1024Y-4.311
X6.1024Y-4.3898
M30
