%TF.GenerationSoftware,KiCad,Pcbnew,5.1.6+dfsg1-1*%
%TF.CreationDate,2021-02-18T23:58:33-06:00*%
%TF.ProjectId,n64_gamecat,6e36345f-6761-46d6-9563-61742e6b6963,rev?*%
%TF.SameCoordinates,Original*%
%TF.FileFunction,Legend,Top*%
%TF.FilePolarity,Positive*%
%FSLAX46Y46*%
G04 Gerber Fmt 4.6, Leading zero omitted, Abs format (unit mm)*
G04 Created by KiCad (PCBNEW 5.1.6+dfsg1-1) date 2021-02-18 23:58:33*
%MOMM*%
%LPD*%
G01*
G04 APERTURE LIST*
%ADD10C,0.120000*%
%ADD11C,0.150000*%
G04 APERTURE END LIST*
D10*
%TO.C,REF\u002A\u002A*%
X143450000Y-147380000D02*
X148650000Y-147380000D01*
X143450000Y-144780000D02*
X143450000Y-147380000D01*
X148650000Y-142180000D02*
X148650000Y-147380000D01*
X143450000Y-144780000D02*
X146050000Y-144780000D01*
X146050000Y-144780000D02*
X146050000Y-142180000D01*
X146050000Y-142180000D02*
X148650000Y-142180000D01*
X143450000Y-143510000D02*
X143450000Y-142180000D01*
X143450000Y-142180000D02*
X144780000Y-142180000D01*
X133290000Y-147380000D02*
X138490000Y-147380000D01*
X133290000Y-144780000D02*
X133290000Y-147380000D01*
X138490000Y-142180000D02*
X138490000Y-147380000D01*
X133290000Y-144780000D02*
X135890000Y-144780000D01*
X135890000Y-144780000D02*
X135890000Y-142180000D01*
X135890000Y-142180000D02*
X138490000Y-142180000D01*
X133290000Y-143510000D02*
X133290000Y-142180000D01*
X133290000Y-142180000D02*
X134620000Y-142180000D01*
X115570000Y-144840000D02*
X115570000Y-142180000D01*
X115570000Y-144840000D02*
X120710000Y-144840000D01*
X120710000Y-144840000D02*
X120710000Y-142180000D01*
X115570000Y-142180000D02*
X120710000Y-142180000D01*
X112970000Y-142180000D02*
X114300000Y-142180000D01*
X112970000Y-143510000D02*
X112970000Y-142180000D01*
X115570000Y-148650000D02*
X115570000Y-145990000D01*
X115570000Y-148650000D02*
X120710000Y-148650000D01*
X120710000Y-148650000D02*
X120710000Y-145990000D01*
X115570000Y-145990000D02*
X120710000Y-145990000D01*
X112970000Y-145990000D02*
X114300000Y-145990000D01*
X112970000Y-147320000D02*
X112970000Y-145990000D01*
X123130000Y-148650000D02*
X125790000Y-148650000D01*
X123130000Y-148530000D02*
X123130000Y-148650000D01*
X125790000Y-148530000D02*
X125790000Y-148650000D01*
X125790000Y-145990000D02*
X125790000Y-147320000D01*
X124460000Y-145990000D02*
X125790000Y-145990000D01*
X123130000Y-144840000D02*
X125790000Y-144840000D01*
X123130000Y-144720000D02*
X123130000Y-144840000D01*
X125790000Y-144720000D02*
X125790000Y-144840000D01*
X125790000Y-142180000D02*
X125790000Y-143510000D01*
X124460000Y-142180000D02*
X125790000Y-142180000D01*
X159960000Y-82610000D02*
X162620000Y-82610000D01*
X159960000Y-24130000D02*
X159960000Y-82610000D01*
X162620000Y-24130000D02*
X162620000Y-82610000D01*
X159960000Y-24130000D02*
X162620000Y-24130000D01*
X159960000Y-22860000D02*
X159960000Y-21530000D01*
X159960000Y-21530000D02*
X161290000Y-21530000D01*
X121860000Y-21530000D02*
X123190000Y-21530000D01*
X121860000Y-22860000D02*
X121860000Y-21530000D01*
X121860000Y-24130000D02*
X124520000Y-24130000D01*
X124520000Y-24130000D02*
X124520000Y-82610000D01*
X121860000Y-24130000D02*
X121860000Y-82610000D01*
X121860000Y-82610000D02*
X124520000Y-82610000D01*
X107950000Y-176530000D02*
X107950000Y-162560000D01*
X107950000Y-162560000D02*
X171450000Y-162560000D01*
X171450000Y-162560000D02*
X171450000Y-176530000D01*
X171450000Y-176530000D02*
X107950000Y-176530000D01*
X137240000Y-83260000D02*
X147240000Y-83260000D01*
X147240000Y-80760000D02*
X147240000Y-18260000D01*
X147240000Y-18260000D02*
X137240000Y-18260000D01*
X137240000Y-18260000D02*
X137240000Y-78260000D01*
X137240000Y-78260000D02*
X137240000Y-80760000D01*
X137240000Y-83260000D02*
X137240000Y-80760000D01*
X147240000Y-83260000D02*
X147240000Y-80760000D01*
D11*
X144716666Y-141632380D02*
X144383333Y-141156190D01*
X144145238Y-141632380D02*
X144145238Y-140632380D01*
X144526190Y-140632380D01*
X144621428Y-140680000D01*
X144669047Y-140727619D01*
X144716666Y-140822857D01*
X144716666Y-140965714D01*
X144669047Y-141060952D01*
X144621428Y-141108571D01*
X144526190Y-141156190D01*
X144145238Y-141156190D01*
X145145238Y-141108571D02*
X145478571Y-141108571D01*
X145621428Y-141632380D02*
X145145238Y-141632380D01*
X145145238Y-140632380D01*
X145621428Y-140632380D01*
X146383333Y-141108571D02*
X146050000Y-141108571D01*
X146050000Y-141632380D02*
X146050000Y-140632380D01*
X146526190Y-140632380D01*
X147050000Y-140632380D02*
X147050000Y-140870476D01*
X146811904Y-140775238D02*
X147050000Y-140870476D01*
X147288095Y-140775238D01*
X146907142Y-141060952D02*
X147050000Y-140870476D01*
X147192857Y-141060952D01*
X147811904Y-140632380D02*
X147811904Y-140870476D01*
X147573809Y-140775238D02*
X147811904Y-140870476D01*
X148050000Y-140775238D01*
X147669047Y-141060952D02*
X147811904Y-140870476D01*
X147954761Y-141060952D01*
X134556666Y-141632380D02*
X134223333Y-141156190D01*
X133985238Y-141632380D02*
X133985238Y-140632380D01*
X134366190Y-140632380D01*
X134461428Y-140680000D01*
X134509047Y-140727619D01*
X134556666Y-140822857D01*
X134556666Y-140965714D01*
X134509047Y-141060952D01*
X134461428Y-141108571D01*
X134366190Y-141156190D01*
X133985238Y-141156190D01*
X134985238Y-141108571D02*
X135318571Y-141108571D01*
X135461428Y-141632380D02*
X134985238Y-141632380D01*
X134985238Y-140632380D01*
X135461428Y-140632380D01*
X136223333Y-141108571D02*
X135890000Y-141108571D01*
X135890000Y-141632380D02*
X135890000Y-140632380D01*
X136366190Y-140632380D01*
X136890000Y-140632380D02*
X136890000Y-140870476D01*
X136651904Y-140775238D02*
X136890000Y-140870476D01*
X137128095Y-140775238D01*
X136747142Y-141060952D02*
X136890000Y-140870476D01*
X137032857Y-141060952D01*
X137651904Y-140632380D02*
X137651904Y-140870476D01*
X137413809Y-140775238D02*
X137651904Y-140870476D01*
X137890000Y-140775238D01*
X137509047Y-141060952D02*
X137651904Y-140870476D01*
X137794761Y-141060952D01*
X111982380Y-144843333D02*
X111506190Y-145176666D01*
X111982380Y-145414761D02*
X110982380Y-145414761D01*
X110982380Y-145033809D01*
X111030000Y-144938571D01*
X111077619Y-144890952D01*
X111172857Y-144843333D01*
X111315714Y-144843333D01*
X111410952Y-144890952D01*
X111458571Y-144938571D01*
X111506190Y-145033809D01*
X111506190Y-145414761D01*
X111458571Y-144414761D02*
X111458571Y-144081428D01*
X111982380Y-143938571D02*
X111982380Y-144414761D01*
X110982380Y-144414761D01*
X110982380Y-143938571D01*
X111458571Y-143176666D02*
X111458571Y-143510000D01*
X111982380Y-143510000D02*
X110982380Y-143510000D01*
X110982380Y-143033809D01*
X110982380Y-142510000D02*
X111220476Y-142510000D01*
X111125238Y-142748095D02*
X111220476Y-142510000D01*
X111125238Y-142271904D01*
X111410952Y-142652857D02*
X111220476Y-142510000D01*
X111410952Y-142367142D01*
X110982380Y-141748095D02*
X111220476Y-141748095D01*
X111125238Y-141986190D02*
X111220476Y-141748095D01*
X111125238Y-141510000D01*
X111410952Y-141890952D02*
X111220476Y-141748095D01*
X111410952Y-141605238D01*
X111982380Y-148653333D02*
X111506190Y-148986666D01*
X111982380Y-149224761D02*
X110982380Y-149224761D01*
X110982380Y-148843809D01*
X111030000Y-148748571D01*
X111077619Y-148700952D01*
X111172857Y-148653333D01*
X111315714Y-148653333D01*
X111410952Y-148700952D01*
X111458571Y-148748571D01*
X111506190Y-148843809D01*
X111506190Y-149224761D01*
X111458571Y-148224761D02*
X111458571Y-147891428D01*
X111982380Y-147748571D02*
X111982380Y-148224761D01*
X110982380Y-148224761D01*
X110982380Y-147748571D01*
X111458571Y-146986666D02*
X111458571Y-147320000D01*
X111982380Y-147320000D02*
X110982380Y-147320000D01*
X110982380Y-146843809D01*
X110982380Y-146320000D02*
X111220476Y-146320000D01*
X111125238Y-146558095D02*
X111220476Y-146320000D01*
X111125238Y-146081904D01*
X111410952Y-146462857D02*
X111220476Y-146320000D01*
X111410952Y-146177142D01*
X110982380Y-145558095D02*
X111220476Y-145558095D01*
X111125238Y-145796190D02*
X111220476Y-145558095D01*
X111125238Y-145320000D01*
X111410952Y-145700952D02*
X111220476Y-145558095D01*
X111410952Y-145415238D01*
X123126666Y-145002380D02*
X122793333Y-144526190D01*
X122555238Y-145002380D02*
X122555238Y-144002380D01*
X122936190Y-144002380D01*
X123031428Y-144050000D01*
X123079047Y-144097619D01*
X123126666Y-144192857D01*
X123126666Y-144335714D01*
X123079047Y-144430952D01*
X123031428Y-144478571D01*
X122936190Y-144526190D01*
X122555238Y-144526190D01*
X123555238Y-144478571D02*
X123888571Y-144478571D01*
X124031428Y-145002380D02*
X123555238Y-145002380D01*
X123555238Y-144002380D01*
X124031428Y-144002380D01*
X124793333Y-144478571D02*
X124460000Y-144478571D01*
X124460000Y-145002380D02*
X124460000Y-144002380D01*
X124936190Y-144002380D01*
X125460000Y-144002380D02*
X125460000Y-144240476D01*
X125221904Y-144145238D02*
X125460000Y-144240476D01*
X125698095Y-144145238D01*
X125317142Y-144430952D02*
X125460000Y-144240476D01*
X125602857Y-144430952D01*
X126221904Y-144002380D02*
X126221904Y-144240476D01*
X125983809Y-144145238D02*
X126221904Y-144240476D01*
X126460000Y-144145238D01*
X126079047Y-144430952D02*
X126221904Y-144240476D01*
X126364761Y-144430952D01*
X123126666Y-141192380D02*
X122793333Y-140716190D01*
X122555238Y-141192380D02*
X122555238Y-140192380D01*
X122936190Y-140192380D01*
X123031428Y-140240000D01*
X123079047Y-140287619D01*
X123126666Y-140382857D01*
X123126666Y-140525714D01*
X123079047Y-140620952D01*
X123031428Y-140668571D01*
X122936190Y-140716190D01*
X122555238Y-140716190D01*
X123555238Y-140668571D02*
X123888571Y-140668571D01*
X124031428Y-141192380D02*
X123555238Y-141192380D01*
X123555238Y-140192380D01*
X124031428Y-140192380D01*
X124793333Y-140668571D02*
X124460000Y-140668571D01*
X124460000Y-141192380D02*
X124460000Y-140192380D01*
X124936190Y-140192380D01*
X125460000Y-140192380D02*
X125460000Y-140430476D01*
X125221904Y-140335238D02*
X125460000Y-140430476D01*
X125698095Y-140335238D01*
X125317142Y-140620952D02*
X125460000Y-140430476D01*
X125602857Y-140620952D01*
X126221904Y-140192380D02*
X126221904Y-140430476D01*
X125983809Y-140335238D02*
X126221904Y-140430476D01*
X126460000Y-140335238D01*
X126079047Y-140620952D02*
X126221904Y-140430476D01*
X126364761Y-140620952D01*
X159956666Y-20982380D02*
X159623333Y-20506190D01*
X159385238Y-20982380D02*
X159385238Y-19982380D01*
X159766190Y-19982380D01*
X159861428Y-20030000D01*
X159909047Y-20077619D01*
X159956666Y-20172857D01*
X159956666Y-20315714D01*
X159909047Y-20410952D01*
X159861428Y-20458571D01*
X159766190Y-20506190D01*
X159385238Y-20506190D01*
X160385238Y-20458571D02*
X160718571Y-20458571D01*
X160861428Y-20982380D02*
X160385238Y-20982380D01*
X160385238Y-19982380D01*
X160861428Y-19982380D01*
X161623333Y-20458571D02*
X161290000Y-20458571D01*
X161290000Y-20982380D02*
X161290000Y-19982380D01*
X161766190Y-19982380D01*
X162290000Y-19982380D02*
X162290000Y-20220476D01*
X162051904Y-20125238D02*
X162290000Y-20220476D01*
X162528095Y-20125238D01*
X162147142Y-20410952D02*
X162290000Y-20220476D01*
X162432857Y-20410952D01*
X163051904Y-19982380D02*
X163051904Y-20220476D01*
X162813809Y-20125238D02*
X163051904Y-20220476D01*
X163290000Y-20125238D01*
X162909047Y-20410952D02*
X163051904Y-20220476D01*
X163194761Y-20410952D01*
X121856666Y-20982380D02*
X121523333Y-20506190D01*
X121285238Y-20982380D02*
X121285238Y-19982380D01*
X121666190Y-19982380D01*
X121761428Y-20030000D01*
X121809047Y-20077619D01*
X121856666Y-20172857D01*
X121856666Y-20315714D01*
X121809047Y-20410952D01*
X121761428Y-20458571D01*
X121666190Y-20506190D01*
X121285238Y-20506190D01*
X122285238Y-20458571D02*
X122618571Y-20458571D01*
X122761428Y-20982380D02*
X122285238Y-20982380D01*
X122285238Y-19982380D01*
X122761428Y-19982380D01*
X123523333Y-20458571D02*
X123190000Y-20458571D01*
X123190000Y-20982380D02*
X123190000Y-19982380D01*
X123666190Y-19982380D01*
X124190000Y-19982380D02*
X124190000Y-20220476D01*
X123951904Y-20125238D02*
X124190000Y-20220476D01*
X124428095Y-20125238D01*
X124047142Y-20410952D02*
X124190000Y-20220476D01*
X124332857Y-20410952D01*
X124951904Y-19982380D02*
X124951904Y-20220476D01*
X124713809Y-20125238D02*
X124951904Y-20220476D01*
X125190000Y-20125238D01*
X124809047Y-20410952D02*
X124951904Y-20220476D01*
X125094761Y-20410952D01*
X147056666Y-152772380D02*
X146723333Y-152296190D01*
X146485238Y-152772380D02*
X146485238Y-151772380D01*
X146866190Y-151772380D01*
X146961428Y-151820000D01*
X147009047Y-151867619D01*
X147056666Y-151962857D01*
X147056666Y-152105714D01*
X147009047Y-152200952D01*
X146961428Y-152248571D01*
X146866190Y-152296190D01*
X146485238Y-152296190D01*
X147485238Y-152248571D02*
X147818571Y-152248571D01*
X147961428Y-152772380D02*
X147485238Y-152772380D01*
X147485238Y-151772380D01*
X147961428Y-151772380D01*
X148723333Y-152248571D02*
X148390000Y-152248571D01*
X148390000Y-152772380D02*
X148390000Y-151772380D01*
X148866190Y-151772380D01*
X149390000Y-151772380D02*
X149390000Y-152010476D01*
X149151904Y-151915238D02*
X149390000Y-152010476D01*
X149628095Y-151915238D01*
X149247142Y-152200952D02*
X149390000Y-152010476D01*
X149532857Y-152200952D01*
X150151904Y-151772380D02*
X150151904Y-152010476D01*
X149913809Y-151915238D02*
X150151904Y-152010476D01*
X150390000Y-151915238D01*
X150009047Y-152200952D02*
X150151904Y-152010476D01*
X150294761Y-152200952D01*
X150192380Y-34593333D02*
X149716190Y-34926666D01*
X150192380Y-35164761D02*
X149192380Y-35164761D01*
X149192380Y-34783809D01*
X149240000Y-34688571D01*
X149287619Y-34640952D01*
X149382857Y-34593333D01*
X149525714Y-34593333D01*
X149620952Y-34640952D01*
X149668571Y-34688571D01*
X149716190Y-34783809D01*
X149716190Y-35164761D01*
X149668571Y-34164761D02*
X149668571Y-33831428D01*
X150192380Y-33688571D02*
X150192380Y-34164761D01*
X149192380Y-34164761D01*
X149192380Y-33688571D01*
X149668571Y-32926666D02*
X149668571Y-33260000D01*
X150192380Y-33260000D02*
X149192380Y-33260000D01*
X149192380Y-32783809D01*
X149192380Y-32260000D02*
X149430476Y-32260000D01*
X149335238Y-32498095D02*
X149430476Y-32260000D01*
X149335238Y-32021904D01*
X149620952Y-32402857D02*
X149430476Y-32260000D01*
X149620952Y-32117142D01*
X149192380Y-31498095D02*
X149430476Y-31498095D01*
X149335238Y-31736190D02*
X149430476Y-31498095D01*
X149335238Y-31260000D01*
X149620952Y-31640952D02*
X149430476Y-31498095D01*
X149620952Y-31355238D01*
%TD*%
M02*
