%TF.GenerationSoftware,KiCad,Pcbnew,5.1.6+dfsg1-1*%
%TF.CreationDate,2021-02-18T23:58:33-06:00*%
%TF.ProjectId,n64_gamecat,6e36345f-6761-46d6-9563-61742e6b6963,rev?*%
%TF.SameCoordinates,Original*%
%TF.FileFunction,Soldermask,Bot*%
%TF.FilePolarity,Negative*%
%FSLAX46Y46*%
G04 Gerber Fmt 4.6, Leading zero omitted, Abs format (unit mm)*
G04 Created by KiCad (PCBNEW 5.1.6+dfsg1-1) date 2021-02-18 23:58:33*
%MOMM*%
%LPD*%
G01*
G04 APERTURE LIST*
%ADD10O,1.800000X1.800000*%
%ADD11R,1.800000X1.800000*%
%ADD12R,1.370000X10.100000*%
%ADD13C,1.624000*%
G04 APERTURE END LIST*
D10*
%TO.C,REF\u002A\u002A*%
X147320000Y-146050000D03*
X144780000Y-146050000D03*
X147320000Y-143510000D03*
D11*
X144780000Y-143510000D03*
%TD*%
D10*
%TO.C,REF\u002A\u002A*%
X137160000Y-146050000D03*
X134620000Y-146050000D03*
X137160000Y-143510000D03*
D11*
X134620000Y-143510000D03*
%TD*%
D10*
%TO.C,REF\u002A\u002A*%
X119380000Y-143510000D03*
X116840000Y-143510000D03*
D11*
X114300000Y-143510000D03*
%TD*%
D10*
%TO.C,REF\u002A\u002A*%
X119380000Y-147320000D03*
X116840000Y-147320000D03*
D11*
X114300000Y-147320000D03*
%TD*%
%TO.C,REF\u002A\u002A*%
X124460000Y-147320000D03*
%TD*%
%TO.C,REF\u002A\u002A*%
X124460000Y-143510000D03*
%TD*%
D10*
%TO.C,REF\u002A\u002A*%
X161290000Y-81280000D03*
X161290000Y-78740000D03*
X161290000Y-76200000D03*
X161290000Y-73660000D03*
X161290000Y-71120000D03*
X161290000Y-68580000D03*
X161290000Y-66040000D03*
X161290000Y-63500000D03*
X161290000Y-60960000D03*
X161290000Y-58420000D03*
X161290000Y-55880000D03*
X161290000Y-53340000D03*
X161290000Y-50800000D03*
X161290000Y-48260000D03*
X161290000Y-45720000D03*
X161290000Y-43180000D03*
X161290000Y-40640000D03*
X161290000Y-38100000D03*
X161290000Y-35560000D03*
X161290000Y-33020000D03*
X161290000Y-30480000D03*
X161290000Y-27940000D03*
X161290000Y-25400000D03*
D11*
X161290000Y-22860000D03*
%TD*%
%TO.C,REF\u002A\u002A*%
X123190000Y-22860000D03*
D10*
X123190000Y-25400000D03*
X123190000Y-27940000D03*
X123190000Y-30480000D03*
X123190000Y-33020000D03*
X123190000Y-35560000D03*
X123190000Y-38100000D03*
X123190000Y-40640000D03*
X123190000Y-43180000D03*
X123190000Y-45720000D03*
X123190000Y-48260000D03*
X123190000Y-50800000D03*
X123190000Y-53340000D03*
X123190000Y-55880000D03*
X123190000Y-58420000D03*
X123190000Y-60960000D03*
X123190000Y-63500000D03*
X123190000Y-66040000D03*
X123190000Y-68580000D03*
X123190000Y-71120000D03*
X123190000Y-73660000D03*
X123190000Y-76200000D03*
X123190000Y-78740000D03*
X123190000Y-81280000D03*
%TD*%
D12*
%TO.C,REF\u002A\u002A*%
X170180000Y-171450000D03*
X167640000Y-171450000D03*
X165100000Y-171450000D03*
X162560000Y-171450000D03*
X160020000Y-171450000D03*
X157480000Y-171450000D03*
X154940000Y-171450000D03*
X152400000Y-171450000D03*
X149860000Y-171450000D03*
X147320000Y-171450000D03*
X144780000Y-171450000D03*
X142240000Y-171450000D03*
X139700000Y-171450000D03*
X137160000Y-171450000D03*
X134620000Y-171450000D03*
X132080000Y-171450000D03*
X129540000Y-171450000D03*
X127000000Y-171450000D03*
X124460000Y-171450000D03*
X121920000Y-171450000D03*
X119380000Y-171450000D03*
X116840000Y-171450000D03*
X114300000Y-171450000D03*
X111760000Y-171450000D03*
X109220000Y-171450000D03*
%TD*%
D13*
%TO.C,REF\u002A\u002A*%
X139740000Y-80760000D03*
X144740000Y-80760000D03*
X139740000Y-78260000D03*
X139740000Y-75760000D03*
X139740000Y-73260000D03*
X139740000Y-70760000D03*
X139740000Y-68260000D03*
X139740000Y-65760000D03*
X139740000Y-63260000D03*
X139740000Y-60760000D03*
X139740000Y-58260000D03*
X139740000Y-55760000D03*
X139740000Y-53260000D03*
X139740000Y-50760000D03*
X139740000Y-45760000D03*
X139740000Y-43260000D03*
X139740000Y-40760000D03*
X139740000Y-38260000D03*
X139740000Y-35760000D03*
X139740000Y-33260000D03*
X139740000Y-30760000D03*
X139740000Y-28260000D03*
X139740000Y-25760000D03*
X139740000Y-23260000D03*
X139740000Y-20760000D03*
X144740000Y-20760000D03*
X144740000Y-23260000D03*
X144740000Y-25760000D03*
X144740000Y-28260000D03*
X144740000Y-30760000D03*
X144740000Y-33260000D03*
X144740000Y-35760000D03*
X144740000Y-38260000D03*
X144740000Y-40760000D03*
X144740000Y-43260000D03*
X144740000Y-45760000D03*
X144740000Y-50760000D03*
X144740000Y-53260000D03*
X144740000Y-53260000D03*
X144740000Y-55760000D03*
X144740000Y-58260000D03*
X144740000Y-60760000D03*
X144740000Y-63260000D03*
X144740000Y-65760000D03*
X144740000Y-68260000D03*
X144740000Y-70760000D03*
X144740000Y-73260000D03*
X144740000Y-75760000D03*
X144740000Y-78260000D03*
%TD*%
M02*
