%TF.GenerationSoftware,KiCad,Pcbnew,5.1.6+dfsg1-1*%
%TF.CreationDate,2021-02-18T23:58:33-06:00*%
%TF.ProjectId,n64_gamecat,6e36345f-6761-46d6-9563-61742e6b6963,rev?*%
%TF.SameCoordinates,Original*%
%TF.FileFunction,Copper,L2,Bot*%
%TF.FilePolarity,Positive*%
%FSLAX46Y46*%
G04 Gerber Fmt 4.6, Leading zero omitted, Abs format (unit mm)*
G04 Created by KiCad (PCBNEW 5.1.6+dfsg1-1) date 2021-02-18 23:58:33*
%MOMM*%
%LPD*%
G01*
G04 APERTURE LIST*
%TA.AperFunction,ComponentPad*%
%ADD10O,1.700000X1.700000*%
%TD*%
%TA.AperFunction,ComponentPad*%
%ADD11R,1.700000X1.700000*%
%TD*%
%TA.AperFunction,SMDPad,CuDef*%
%ADD12R,1.270000X10.000000*%
%TD*%
%TA.AperFunction,ComponentPad*%
%ADD13C,1.524000*%
%TD*%
%TA.AperFunction,ViaPad*%
%ADD14C,0.800000*%
%TD*%
%TA.AperFunction,Conductor*%
%ADD15C,0.250000*%
%TD*%
G04 APERTURE END LIST*
D10*
%TO.P,REF\u002A\u002A,4*%
%TO.N,N/C*%
X147320000Y-146050000D03*
%TO.P,REF\u002A\u002A,3*%
X144780000Y-146050000D03*
%TO.P,REF\u002A\u002A,2*%
X147320000Y-143510000D03*
D11*
%TO.P,REF\u002A\u002A,1*%
X144780000Y-143510000D03*
%TD*%
D10*
%TO.P,REF\u002A\u002A,4*%
%TO.N,N/C*%
X137160000Y-146050000D03*
%TO.P,REF\u002A\u002A,3*%
X134620000Y-146050000D03*
%TO.P,REF\u002A\u002A,2*%
X137160000Y-143510000D03*
D11*
%TO.P,REF\u002A\u002A,1*%
X134620000Y-143510000D03*
%TD*%
D10*
%TO.P,REF\u002A\u002A,3*%
%TO.N,N/C*%
X119380000Y-143510000D03*
%TO.P,REF\u002A\u002A,2*%
X116840000Y-143510000D03*
D11*
%TO.P,REF\u002A\u002A,1*%
X114300000Y-143510000D03*
%TD*%
D10*
%TO.P,REF\u002A\u002A,3*%
%TO.N,N/C*%
X119380000Y-147320000D03*
%TO.P,REF\u002A\u002A,2*%
X116840000Y-147320000D03*
D11*
%TO.P,REF\u002A\u002A,1*%
X114300000Y-147320000D03*
%TD*%
%TO.P,REF\u002A\u002A,1*%
%TO.N,N/C*%
X124460000Y-147320000D03*
%TD*%
%TO.P,REF\u002A\u002A,1*%
%TO.N,N/C*%
X124460000Y-143510000D03*
%TD*%
D10*
%TO.P,REF\u002A\u002A,24*%
%TO.N,N/C*%
X161290000Y-81280000D03*
%TO.P,REF\u002A\u002A,23*%
X161290000Y-78740000D03*
%TO.P,REF\u002A\u002A,22*%
X161290000Y-76200000D03*
%TO.P,REF\u002A\u002A,21*%
X161290000Y-73660000D03*
%TO.P,REF\u002A\u002A,20*%
X161290000Y-71120000D03*
%TO.P,REF\u002A\u002A,19*%
X161290000Y-68580000D03*
%TO.P,REF\u002A\u002A,18*%
X161290000Y-66040000D03*
%TO.P,REF\u002A\u002A,17*%
X161290000Y-63500000D03*
%TO.P,REF\u002A\u002A,16*%
X161290000Y-60960000D03*
%TO.P,REF\u002A\u002A,15*%
X161290000Y-58420000D03*
%TO.P,REF\u002A\u002A,14*%
X161290000Y-55880000D03*
%TO.P,REF\u002A\u002A,13*%
X161290000Y-53340000D03*
%TO.P,REF\u002A\u002A,12*%
X161290000Y-50800000D03*
%TO.P,REF\u002A\u002A,11*%
X161290000Y-48260000D03*
%TO.P,REF\u002A\u002A,10*%
X161290000Y-45720000D03*
%TO.P,REF\u002A\u002A,9*%
X161290000Y-43180000D03*
%TO.P,REF\u002A\u002A,8*%
X161290000Y-40640000D03*
%TO.P,REF\u002A\u002A,7*%
X161290000Y-38100000D03*
%TO.P,REF\u002A\u002A,6*%
X161290000Y-35560000D03*
%TO.P,REF\u002A\u002A,5*%
X161290000Y-33020000D03*
%TO.P,REF\u002A\u002A,4*%
X161290000Y-30480000D03*
%TO.P,REF\u002A\u002A,3*%
X161290000Y-27940000D03*
%TO.P,REF\u002A\u002A,2*%
X161290000Y-25400000D03*
D11*
%TO.P,REF\u002A\u002A,1*%
X161290000Y-22860000D03*
%TD*%
%TO.P,REF\u002A\u002A,1*%
%TO.N,N/C*%
X123190000Y-22860000D03*
D10*
%TO.P,REF\u002A\u002A,2*%
X123190000Y-25400000D03*
%TO.P,REF\u002A\u002A,3*%
X123190000Y-27940000D03*
%TO.P,REF\u002A\u002A,4*%
X123190000Y-30480000D03*
%TO.P,REF\u002A\u002A,5*%
X123190000Y-33020000D03*
%TO.P,REF\u002A\u002A,6*%
X123190000Y-35560000D03*
%TO.P,REF\u002A\u002A,7*%
X123190000Y-38100000D03*
%TO.P,REF\u002A\u002A,8*%
X123190000Y-40640000D03*
%TO.P,REF\u002A\u002A,9*%
X123190000Y-43180000D03*
%TO.P,REF\u002A\u002A,10*%
X123190000Y-45720000D03*
%TO.P,REF\u002A\u002A,11*%
X123190000Y-48260000D03*
%TO.P,REF\u002A\u002A,12*%
X123190000Y-50800000D03*
%TO.P,REF\u002A\u002A,13*%
X123190000Y-53340000D03*
%TO.P,REF\u002A\u002A,14*%
X123190000Y-55880000D03*
%TO.P,REF\u002A\u002A,15*%
X123190000Y-58420000D03*
%TO.P,REF\u002A\u002A,16*%
X123190000Y-60960000D03*
%TO.P,REF\u002A\u002A,17*%
X123190000Y-63500000D03*
%TO.P,REF\u002A\u002A,18*%
X123190000Y-66040000D03*
%TO.P,REF\u002A\u002A,19*%
X123190000Y-68580000D03*
%TO.P,REF\u002A\u002A,20*%
X123190000Y-71120000D03*
%TO.P,REF\u002A\u002A,21*%
X123190000Y-73660000D03*
%TO.P,REF\u002A\u002A,22*%
X123190000Y-76200000D03*
%TO.P,REF\u002A\u002A,23*%
X123190000Y-78740000D03*
%TO.P,REF\u002A\u002A,24*%
X123190000Y-81280000D03*
%TD*%
D12*
%TO.P,REF\u002A\u002A,25*%
%TO.N,N/C*%
X170180000Y-171450000D03*
%TO.P,REF\u002A\u002A,24*%
X167640000Y-171450000D03*
%TO.P,REF\u002A\u002A,23*%
X165100000Y-171450000D03*
%TO.P,REF\u002A\u002A,22*%
X162560000Y-171450000D03*
%TO.P,REF\u002A\u002A,21*%
X160020000Y-171450000D03*
%TO.P,REF\u002A\u002A,20*%
X157480000Y-171450000D03*
%TO.P,REF\u002A\u002A,19*%
X154940000Y-171450000D03*
%TO.P,REF\u002A\u002A,18*%
X152400000Y-171450000D03*
%TO.P,REF\u002A\u002A,17*%
X149860000Y-171450000D03*
%TO.P,REF\u002A\u002A,16*%
X147320000Y-171450000D03*
%TO.P,REF\u002A\u002A,15*%
X144780000Y-171450000D03*
%TO.P,REF\u002A\u002A,14*%
X142240000Y-171450000D03*
%TO.P,REF\u002A\u002A,13*%
X139700000Y-171450000D03*
%TO.P,REF\u002A\u002A,12*%
X137160000Y-171450000D03*
%TO.P,REF\u002A\u002A,11*%
X134620000Y-171450000D03*
%TO.P,REF\u002A\u002A,10*%
X132080000Y-171450000D03*
%TO.P,REF\u002A\u002A,9*%
X129540000Y-171450000D03*
%TO.P,REF\u002A\u002A,8*%
X127000000Y-171450000D03*
%TO.P,REF\u002A\u002A,7*%
X124460000Y-171450000D03*
%TO.P,REF\u002A\u002A,6*%
X121920000Y-171450000D03*
%TO.P,REF\u002A\u002A,5*%
X119380000Y-171450000D03*
%TO.P,REF\u002A\u002A,4*%
X116840000Y-171450000D03*
%TO.P,REF\u002A\u002A,3*%
X114300000Y-171450000D03*
%TO.P,REF\u002A\u002A,2*%
X111760000Y-171450000D03*
%TO.P,REF\u002A\u002A,1*%
X109220000Y-171450000D03*
%TD*%
D13*
%TO.P,REF\u002A\u002A,49*%
%TO.N,N/C*%
X139740000Y-80760000D03*
%TO.P,REF\u002A\u002A,48*%
X144740000Y-80760000D03*
%TO.P,REF\u002A\u002A,47*%
X139740000Y-78260000D03*
%TO.P,REF\u002A\u002A,46*%
X139740000Y-75760000D03*
%TO.P,REF\u002A\u002A,45*%
X139740000Y-73260000D03*
%TO.P,REF\u002A\u002A,44*%
X139740000Y-70760000D03*
%TO.P,REF\u002A\u002A,43*%
X139740000Y-68260000D03*
%TO.P,REF\u002A\u002A,42*%
X139740000Y-65760000D03*
%TO.P,REF\u002A\u002A,41*%
X139740000Y-63260000D03*
%TO.P,REF\u002A\u002A,40*%
X139740000Y-60760000D03*
%TO.P,REF\u002A\u002A,39*%
X139740000Y-58260000D03*
%TO.P,REF\u002A\u002A,38*%
X139740000Y-55760000D03*
%TO.P,REF\u002A\u002A,37*%
X139740000Y-53260000D03*
%TO.P,REF\u002A\u002A,36*%
X139740000Y-50760000D03*
%TO.P,REF\u002A\u002A,35*%
X139740000Y-45760000D03*
%TO.P,REF\u002A\u002A,34*%
X139740000Y-43260000D03*
%TO.P,REF\u002A\u002A,33*%
X139740000Y-40760000D03*
%TO.P,REF\u002A\u002A,32*%
X139740000Y-38260000D03*
%TO.P,REF\u002A\u002A,31*%
X139740000Y-35760000D03*
%TO.P,REF\u002A\u002A,30*%
X139740000Y-33260000D03*
%TO.P,REF\u002A\u002A,29*%
X139740000Y-30760000D03*
%TO.P,REF\u002A\u002A,28*%
X139740000Y-28260000D03*
%TO.P,REF\u002A\u002A,27*%
X139740000Y-25760000D03*
%TO.P,REF\u002A\u002A,26*%
X139740000Y-23260000D03*
%TO.P,REF\u002A\u002A,25*%
X139740000Y-20760000D03*
%TO.P,REF\u002A\u002A,24*%
X144740000Y-20760000D03*
%TO.P,REF\u002A\u002A,23*%
X144740000Y-23260000D03*
%TO.P,REF\u002A\u002A,22*%
X144740000Y-25760000D03*
%TO.P,REF\u002A\u002A,21*%
X144740000Y-28260000D03*
%TO.P,REF\u002A\u002A,20*%
X144740000Y-30760000D03*
%TO.P,REF\u002A\u002A,19*%
X144740000Y-33260000D03*
%TO.P,REF\u002A\u002A,18*%
X144740000Y-35760000D03*
%TO.P,REF\u002A\u002A,17*%
X144740000Y-38260000D03*
%TO.P,REF\u002A\u002A,16*%
X144740000Y-40760000D03*
%TO.P,REF\u002A\u002A,15*%
X144740000Y-43260000D03*
%TO.P,REF\u002A\u002A,14*%
X144740000Y-45760000D03*
%TO.P,REF\u002A\u002A,13*%
X144740000Y-50760000D03*
%TO.P,REF\u002A\u002A,12*%
X144740000Y-53260000D03*
%TO.P,REF\u002A\u002A,11*%
X144740000Y-53260000D03*
%TO.P,REF\u002A\u002A,10*%
X144740000Y-55760000D03*
%TO.P,REF\u002A\u002A,9*%
X144740000Y-58260000D03*
%TO.P,REF\u002A\u002A,8*%
X144740000Y-60760000D03*
%TO.P,REF\u002A\u002A,7*%
X144740000Y-63260000D03*
%TO.P,REF\u002A\u002A,6*%
X144740000Y-65760000D03*
%TO.P,REF\u002A\u002A,5*%
X144740000Y-68260000D03*
%TO.P,REF\u002A\u002A,4*%
X144740000Y-70760000D03*
%TO.P,REF\u002A\u002A,3*%
X144740000Y-73260000D03*
%TO.P,REF\u002A\u002A,2*%
X144740000Y-75760000D03*
%TO.P,REF\u002A\u002A,1*%
X144740000Y-78260000D03*
%TD*%
D14*
%TO.N,*%
X119380000Y-107950000D03*
X118110000Y-109220000D03*
X116840000Y-110490000D03*
X115570000Y-111760000D03*
X114300000Y-113030000D03*
X113030000Y-114300000D03*
X111760000Y-115570000D03*
X110490000Y-116840000D03*
X109220000Y-118110000D03*
X107950000Y-119380000D03*
X106680000Y-120650000D03*
X105410000Y-121920000D03*
X104140000Y-123190000D03*
X102870000Y-124460000D03*
X101600000Y-125730000D03*
X116840000Y-113030000D03*
X116840000Y-133350000D03*
X127000000Y-111760000D03*
X125730000Y-114300000D03*
X129540000Y-114300000D03*
X125730000Y-115570000D03*
X132080000Y-115570000D03*
X125730000Y-116840000D03*
X125730000Y-118110000D03*
X125730000Y-119380000D03*
X125730000Y-120650000D03*
X125730000Y-121920000D03*
X125730000Y-123190000D03*
X125730000Y-124460000D03*
X125730000Y-125730000D03*
X125730000Y-127000000D03*
X149860000Y-116840000D03*
X152400000Y-118110000D03*
X154940000Y-119380000D03*
X157480000Y-120650000D03*
X160020000Y-121920000D03*
X162560000Y-123190000D03*
X165100000Y-124460000D03*
X167640000Y-125730000D03*
X170180000Y-127000000D03*
X88900000Y-85090000D03*
X91440000Y-86360000D03*
X121920000Y-113030000D03*
X128270000Y-128270000D03*
X128270000Y-113030000D03*
X130810000Y-128270000D03*
X130810000Y-114300000D03*
X133350000Y-128270000D03*
X133350000Y-115570000D03*
X171450000Y-128270000D03*
X168910000Y-128270000D03*
X166370000Y-128270000D03*
X163830000Y-128270000D03*
X161290000Y-128270000D03*
X158750000Y-128270000D03*
X156210000Y-128270000D03*
X153670000Y-128270000D03*
X151130000Y-128270000D03*
X151130000Y-115570000D03*
X153670000Y-115570000D03*
X156210000Y-115570000D03*
X158750000Y-115570000D03*
X161290000Y-115570000D03*
X163830000Y-115570000D03*
X166370000Y-115570000D03*
X168910000Y-115570000D03*
X171450000Y-115570000D03*
%TD*%
D15*
%TO.N,*%
X123190000Y-81280000D02*
X119380000Y-81280000D01*
X123190000Y-78740000D02*
X118110000Y-78740000D01*
X123190000Y-68580000D02*
X116840000Y-68580000D01*
X123190000Y-63500000D02*
X115570000Y-63500000D01*
X123190000Y-60960000D02*
X114300000Y-60960000D01*
X123190000Y-58420000D02*
X113030000Y-58420000D01*
X123190000Y-43180000D02*
X111760000Y-43180000D01*
X123190000Y-40640000D02*
X110490000Y-40640000D01*
X123190000Y-38100000D02*
X109220000Y-38100000D01*
X123190000Y-35560000D02*
X107950000Y-35560000D01*
X123190000Y-33020000D02*
X106680000Y-33020000D01*
X123190000Y-30480000D02*
X105410000Y-30480000D01*
X123190000Y-27940000D02*
X104140000Y-27940000D01*
X123190000Y-25400000D02*
X102870000Y-25400000D01*
X123190000Y-22860000D02*
X101600000Y-22860000D01*
X119380000Y-81280000D02*
X119380000Y-107950000D01*
X118110000Y-78740000D02*
X118110000Y-109220000D01*
X116840000Y-68580000D02*
X116840000Y-110490000D01*
X115570000Y-63500000D02*
X115570000Y-111760000D01*
X114300000Y-60960000D02*
X114300000Y-113030000D01*
X113030000Y-58420000D02*
X113030000Y-114300000D01*
X111760000Y-43180000D02*
X111760000Y-115570000D01*
X110490000Y-40640000D02*
X110490000Y-116840000D01*
X109220000Y-38100000D02*
X109220000Y-118110000D01*
X107950000Y-35560000D02*
X107950000Y-119380000D01*
X106680000Y-33020000D02*
X106680000Y-120650000D01*
X105410000Y-30480000D02*
X105410000Y-121920000D01*
X104140000Y-27940000D02*
X104140000Y-123190000D01*
X102870000Y-25400000D02*
X102870000Y-124460000D01*
X101600000Y-22860000D02*
X101600000Y-125730000D01*
X119380000Y-107950000D02*
X119380000Y-107950000D01*
X118110000Y-109220000D02*
X118110000Y-109220000D01*
X116840000Y-110490000D02*
X116840000Y-110490000D01*
X115570000Y-111760000D02*
X115570000Y-111760000D01*
X114300000Y-113030000D02*
X114300000Y-113030000D01*
X113030000Y-114300000D02*
X113030000Y-114300000D01*
X111760000Y-115570000D02*
X111760000Y-115570000D01*
X110490000Y-116840000D02*
X110490000Y-116840000D01*
X109220000Y-118110000D02*
X109220000Y-118110000D01*
X107950000Y-119380000D02*
X107950000Y-119380000D01*
X106680000Y-120650000D02*
X106680000Y-120650000D01*
X105410000Y-121920000D02*
X105410000Y-121920000D01*
X104140000Y-123190000D02*
X104140000Y-123190000D01*
X102870000Y-124460000D02*
X102870000Y-124460000D01*
X101600000Y-125730000D02*
X101600000Y-125730000D01*
X115570000Y-111760000D02*
X127000000Y-111760000D01*
X127000000Y-111760000D02*
X127000000Y-111760000D01*
X116840000Y-113030000D02*
X116840000Y-133350000D01*
X125730000Y-114300000D02*
X129540000Y-114300000D01*
X125730000Y-115570000D02*
X132080000Y-115570000D01*
X125730000Y-116840000D02*
X139700000Y-116840000D01*
X125730000Y-118110000D02*
X142240000Y-118110000D01*
X125730000Y-119380000D02*
X149860000Y-119380000D01*
X125730000Y-120650000D02*
X152400000Y-120650000D01*
X154940000Y-121920000D02*
X125730000Y-121920000D01*
X125730000Y-123190000D02*
X157480000Y-123190000D01*
X160020000Y-124460000D02*
X125730000Y-124460000D01*
X125730000Y-125730000D02*
X162560000Y-125730000D01*
X165100000Y-127000000D02*
X125730000Y-127000000D01*
X139700000Y-116840000D02*
X149860000Y-116840000D01*
X142240000Y-118110000D02*
X152400000Y-118110000D01*
X154940000Y-119380000D02*
X149860000Y-119380000D01*
X152400000Y-120650000D02*
X157480000Y-120650000D01*
X154940000Y-121920000D02*
X160020000Y-121920000D01*
X157480000Y-123190000D02*
X162560000Y-123190000D01*
X160020000Y-124460000D02*
X165100000Y-124460000D01*
X162560000Y-125730000D02*
X167640000Y-125730000D01*
X165100000Y-127000000D02*
X170180000Y-127000000D01*
X88900000Y-85090000D02*
X88900000Y-133350000D01*
X109220000Y-153670000D02*
X109220000Y-171450000D01*
X88900000Y-133350000D02*
X109220000Y-153670000D01*
X91440000Y-86360000D02*
X91440000Y-132080000D01*
X111760000Y-152400000D02*
X111760000Y-171450000D01*
X91440000Y-132080000D02*
X111760000Y-152400000D01*
X121920000Y-171450000D02*
X121920000Y-113030000D01*
X121920000Y-113030000D02*
X121920000Y-113030000D01*
X128270000Y-128270000D02*
X128270000Y-130810000D01*
X127000000Y-132080000D02*
X127000000Y-171450000D01*
X128270000Y-130810000D02*
X127000000Y-132080000D01*
X129540000Y-171450000D02*
X129540000Y-133350000D01*
X129540000Y-133350000D02*
X130810000Y-132080000D01*
X130810000Y-132080000D02*
X130810000Y-128270000D01*
X130810000Y-128270000D02*
X130810000Y-128270000D01*
X132080000Y-171450000D02*
X132080000Y-133350000D01*
X132080000Y-133350000D02*
X133350000Y-132080000D01*
X133350000Y-132080000D02*
X133350000Y-128270000D01*
X133350000Y-115570000D02*
X133350000Y-115570000D01*
X133350000Y-128270000D02*
X133350000Y-128270000D01*
X149860000Y-171450000D02*
X149860000Y-129540000D01*
X149860000Y-129540000D02*
X151130000Y-128270000D01*
X152400000Y-171450000D02*
X152400000Y-129540000D01*
X152400000Y-129540000D02*
X153670000Y-128270000D01*
X154940000Y-171450000D02*
X154940000Y-129540000D01*
X154940000Y-129540000D02*
X156210000Y-128270000D01*
X157480000Y-171450000D02*
X157480000Y-129540000D01*
X157480000Y-129540000D02*
X158750000Y-128270000D01*
X160020000Y-171450000D02*
X160020000Y-129540000D01*
X160020000Y-129540000D02*
X161290000Y-128270000D01*
X162560000Y-171450000D02*
X162560000Y-129540000D01*
X162560000Y-129540000D02*
X163830000Y-128270000D01*
X165100000Y-171450000D02*
X165100000Y-129540000D01*
X165100000Y-129540000D02*
X166370000Y-128270000D01*
X167640000Y-171450000D02*
X167640000Y-129540000D01*
X167640000Y-129540000D02*
X168910000Y-128270000D01*
X170180000Y-171450000D02*
X170180000Y-129540000D01*
X170180000Y-129540000D02*
X171450000Y-128270000D01*
X171450000Y-128270000D02*
X171450000Y-128270000D01*
X168910000Y-128270000D02*
X168910000Y-128270000D01*
X166370000Y-128270000D02*
X166370000Y-128270000D01*
X163830000Y-128270000D02*
X163830000Y-128270000D01*
X161290000Y-128270000D02*
X161290000Y-128270000D01*
X158750000Y-128270000D02*
X158750000Y-128270000D01*
X156210000Y-128270000D02*
X156210000Y-128270000D01*
X153670000Y-128270000D02*
X153670000Y-128270000D01*
X151130000Y-128270000D02*
X151130000Y-128270000D01*
X142240000Y-128270000D02*
X142240000Y-128270000D01*
X139700000Y-128270000D02*
X139700000Y-128270000D01*
X162560000Y-63500000D02*
X161290000Y-63500000D01*
X167640000Y-68580000D02*
X162560000Y-63500000D01*
X167640000Y-87630000D02*
X167640000Y-68580000D01*
X166370000Y-88900000D02*
X167640000Y-87630000D01*
X128270000Y-88900000D02*
X166370000Y-88900000D01*
X128270000Y-113030000D02*
X128270000Y-88900000D01*
X163830000Y-60960000D02*
X161290000Y-60960000D01*
X168910000Y-87630000D02*
X168910000Y-66040000D01*
X166370000Y-90170000D02*
X168910000Y-87630000D01*
X168910000Y-66040000D02*
X163830000Y-60960000D01*
X132080000Y-90170000D02*
X166370000Y-90170000D01*
X130810000Y-91440000D02*
X132080000Y-90170000D01*
X130810000Y-114300000D02*
X130810000Y-91440000D01*
X166370000Y-58420000D02*
X161290000Y-58420000D01*
X170180000Y-62230000D02*
X166370000Y-58420000D01*
X170180000Y-87630000D02*
X170180000Y-62230000D01*
X166370000Y-91440000D02*
X170180000Y-87630000D01*
X134620000Y-91440000D02*
X166370000Y-91440000D01*
X133350000Y-92710000D02*
X134620000Y-91440000D01*
X133350000Y-115570000D02*
X133350000Y-92710000D01*
X151130000Y-115570000D02*
X151130000Y-95250000D01*
X151130000Y-95250000D02*
X168910000Y-95250000D01*
X168910000Y-95250000D02*
X176530000Y-87630000D01*
X153670000Y-115570000D02*
X153670000Y-99060000D01*
X153670000Y-99060000D02*
X156210000Y-96520000D01*
X156210000Y-96520000D02*
X170180000Y-96520000D01*
X170180000Y-96520000D02*
X179070000Y-87630000D01*
X158750000Y-97790000D02*
X171450000Y-97790000D01*
X156210000Y-100330000D02*
X158750000Y-97790000D01*
X171450000Y-97790000D02*
X181610000Y-87630000D01*
X156210000Y-115570000D02*
X156210000Y-100330000D01*
X171450000Y-99060000D02*
X182880000Y-87630000D01*
X161290000Y-99060000D02*
X171450000Y-99060000D01*
X158750000Y-101600000D02*
X161290000Y-99060000D01*
X158750000Y-115570000D02*
X158750000Y-101600000D01*
X162560000Y-100330000D02*
X172720000Y-100330000D01*
X161290000Y-101600000D02*
X162560000Y-100330000D01*
X172720000Y-100330000D02*
X184150000Y-88900000D01*
X161290000Y-115570000D02*
X161290000Y-101600000D01*
X163830000Y-115570000D02*
X163830000Y-104140000D01*
X163830000Y-104140000D02*
X166370000Y-101600000D01*
X166370000Y-101600000D02*
X173990000Y-101600000D01*
X173990000Y-101600000D02*
X185420000Y-90170000D01*
X161290000Y-43180000D02*
X175260000Y-43180000D01*
X175260000Y-43180000D02*
X176530000Y-44450000D01*
X161290000Y-40640000D02*
X176530000Y-40640000D01*
X176530000Y-40640000D02*
X177800000Y-41910000D01*
X161290000Y-38100000D02*
X177800000Y-38100000D01*
X177800000Y-38100000D02*
X179070000Y-39370000D01*
X161290000Y-35560000D02*
X179070000Y-35560000D01*
X179070000Y-35560000D02*
X180340000Y-36830000D01*
X161290000Y-33020000D02*
X180340000Y-33020000D01*
X180340000Y-33020000D02*
X181610000Y-34290000D01*
X161290000Y-30480000D02*
X181610000Y-30480000D01*
X181610000Y-30480000D02*
X182880000Y-31750000D01*
X161290000Y-27940000D02*
X182880000Y-27940000D01*
X182880000Y-27940000D02*
X184150000Y-29210000D01*
X161290000Y-25400000D02*
X184150000Y-25400000D01*
X184150000Y-25400000D02*
X185420000Y-26670000D01*
X161290000Y-22860000D02*
X185420000Y-22860000D01*
X185420000Y-22860000D02*
X186690000Y-24130000D01*
X176530000Y-87630000D02*
X176530000Y-44450000D01*
X177800000Y-41910000D02*
X177800000Y-86360000D01*
X177800000Y-86360000D02*
X179070000Y-87630000D01*
X181610000Y-87630000D02*
X181610000Y-86360000D01*
X181610000Y-86360000D02*
X179070000Y-83820000D01*
X179070000Y-83820000D02*
X179070000Y-39370000D01*
X180340000Y-36830000D02*
X180340000Y-83820000D01*
X180340000Y-83820000D02*
X182880000Y-86360000D01*
X182880000Y-86360000D02*
X182880000Y-87630000D01*
X184150000Y-88900000D02*
X184150000Y-85090000D01*
X184150000Y-85090000D02*
X181610000Y-82550000D01*
X181610000Y-82550000D02*
X181610000Y-34290000D01*
X185420000Y-90170000D02*
X185420000Y-64770000D01*
X185420000Y-64770000D02*
X182880000Y-62230000D01*
X182880000Y-62230000D02*
X182880000Y-31750000D01*
X166370000Y-115570000D02*
X166370000Y-110490000D01*
X166370000Y-110490000D02*
X186690000Y-90170000D01*
X168910000Y-115570000D02*
X168910000Y-110490000D01*
X168910000Y-110490000D02*
X189230000Y-90170000D01*
X171450000Y-115570000D02*
X171450000Y-110490000D01*
X171450000Y-110490000D02*
X191770000Y-90170000D01*
X186690000Y-90170000D02*
X186690000Y-31750000D01*
X186690000Y-31750000D02*
X184150000Y-29210000D01*
X185420000Y-26670000D02*
X187960000Y-29210000D01*
X187960000Y-29210000D02*
X189230000Y-30480000D01*
X189230000Y-30480000D02*
X189230000Y-90170000D01*
X191770000Y-90170000D02*
X191770000Y-29210000D01*
X191770000Y-29210000D02*
X186690000Y-24130000D01*
X114300000Y-158750000D02*
X114300000Y-171450000D01*
X115570000Y-151130000D02*
X114300000Y-152400000D01*
X115570000Y-144780000D02*
X115570000Y-151130000D01*
X114300000Y-143510000D02*
X115570000Y-144780000D01*
X116840000Y-143510000D02*
X118110000Y-144780000D01*
X118110000Y-144780000D02*
X118110000Y-151130000D01*
X118110000Y-151130000D02*
X116840000Y-152400000D01*
X116840000Y-158750000D02*
X116840000Y-171450000D01*
X119380000Y-143510000D02*
X120650000Y-144780000D01*
X120650000Y-144780000D02*
X120650000Y-151130000D01*
X120650000Y-151130000D02*
X119380000Y-152400000D01*
X119380000Y-158750000D02*
X119380000Y-171450000D01*
X124460000Y-143510000D02*
X125730000Y-144780000D01*
X125730000Y-144780000D02*
X125730000Y-151130000D01*
X125730000Y-151130000D02*
X124460000Y-152400000D01*
X124460000Y-158750000D02*
X124460000Y-171450000D01*
X134620000Y-143510000D02*
X135890000Y-144780000D01*
X135890000Y-144780000D02*
X135890000Y-151130000D01*
X135890000Y-151130000D02*
X134620000Y-152400000D01*
X134620000Y-158750000D02*
X134620000Y-171450000D01*
X137160000Y-143510000D02*
X138430000Y-144780000D01*
X138430000Y-144780000D02*
X138430000Y-151130000D01*
X138430000Y-151130000D02*
X137160000Y-152400000D01*
X137160000Y-158750000D02*
X137160000Y-171450000D01*
X147320000Y-143510000D02*
X148590000Y-144780000D01*
X148590000Y-144780000D02*
X148590000Y-151130000D01*
X148590000Y-151130000D02*
X147320000Y-152400000D01*
X147320000Y-158750000D02*
X147320000Y-171450000D01*
X114300000Y-152400000D02*
X114300000Y-158750000D01*
X116840000Y-152400000D02*
X116840000Y-158750000D01*
X119380000Y-158750000D02*
X119380000Y-152400000D01*
X124460000Y-152400000D02*
X124460000Y-158750000D01*
X134620000Y-158750000D02*
X134620000Y-152400000D01*
X137160000Y-152400000D02*
X137160000Y-158750000D01*
X146050000Y-144780000D02*
X144780000Y-143510000D01*
X146050000Y-151130000D02*
X146050000Y-144780000D01*
X144780000Y-152400000D02*
X146050000Y-151130000D01*
X144780000Y-171450000D02*
X144780000Y-152400000D01*
X147320000Y-152400000D02*
X147320000Y-158750000D01*
%TD*%
M02*
