%TF.GenerationSoftware,KiCad,Pcbnew,5.1.6+dfsg1-1*%
%TF.CreationDate,2021-02-18T23:58:33-06:00*%
%TF.ProjectId,n64_gamecat,6e36345f-6761-46d6-9563-61742e6b6963,rev?*%
%TF.SameCoordinates,Original*%
%TF.FileFunction,Legend,Bot*%
%TF.FilePolarity,Positive*%
%FSLAX46Y46*%
G04 Gerber Fmt 4.6, Leading zero omitted, Abs format (unit mm)*
G04 Created by KiCad (PCBNEW 5.1.6+dfsg1-1) date 2021-02-18 23:58:33*
%MOMM*%
%LPD*%
G01*
G04 APERTURE LIST*
%ADD10C,0.120000*%
%ADD11C,0.150000*%
G04 APERTURE END LIST*
D10*
%TO.C,REF\u002A\u002A*%
X107950000Y-166370000D02*
X107950000Y-180340000D01*
X107950000Y-180340000D02*
X171450000Y-180340000D01*
X171450000Y-180340000D02*
X171450000Y-166370000D01*
X171450000Y-166370000D02*
X107950000Y-166370000D01*
D11*
X149723333Y-191032380D02*
X150056666Y-190556190D01*
X150294761Y-191032380D02*
X150294761Y-190032380D01*
X149913809Y-190032380D01*
X149818571Y-190080000D01*
X149770952Y-190127619D01*
X149723333Y-190222857D01*
X149723333Y-190365714D01*
X149770952Y-190460952D01*
X149818571Y-190508571D01*
X149913809Y-190556190D01*
X150294761Y-190556190D01*
X149294761Y-190508571D02*
X148961428Y-190508571D01*
X148818571Y-191032380D02*
X149294761Y-191032380D01*
X149294761Y-190032380D01*
X148818571Y-190032380D01*
X148056666Y-190508571D02*
X148390000Y-190508571D01*
X148390000Y-191032380D02*
X148390000Y-190032380D01*
X147913809Y-190032380D01*
X147390000Y-190032380D02*
X147390000Y-190270476D01*
X147628095Y-190175238D02*
X147390000Y-190270476D01*
X147151904Y-190175238D01*
X147532857Y-190460952D02*
X147390000Y-190270476D01*
X147247142Y-190460952D01*
X146628095Y-190032380D02*
X146628095Y-190270476D01*
X146866190Y-190175238D02*
X146628095Y-190270476D01*
X146390000Y-190175238D01*
X146770952Y-190460952D02*
X146628095Y-190270476D01*
X146485238Y-190460952D01*
%TD*%
M02*
