M48
; DRILL file {KiCad 5.1.6+dfsg1-1} date Thu Feb 18 23:58:02 2021
; FORMAT={-:-/ absolute / inch / decimal}
; #@! TF.CreationDate,2021-02-18T23:58:02-06:00
; #@! TF.GenerationSoftware,Kicad,Pcbnew,5.1.6+dfsg1-1
; #@! TF.FileFunction,Plated,1,2,PTH
FMAT,2
INCH
T1C0.0157
T2C0.0300
T3C0.0394
%
G90
G05
T1
X3.5Y-3.35
X3.6Y-3.4
X4.0Y-4.95
X4.05Y-4.9
X4.1Y-4.85
X4.15Y-4.8
X4.2Y-4.75
X4.25Y-4.7
X4.3Y-4.65
X4.35Y-4.6
X4.4Y-4.55
X4.45Y-4.5
X4.5Y-4.45
X4.55Y-4.4
X4.6Y-4.35
X4.6Y-4.45
X4.6Y-5.25
X4.65Y-4.3
X4.7Y-4.25
X4.8Y-4.45
X4.95Y-4.5
X4.95Y-4.55
X4.95Y-4.6
X4.95Y-4.65
X4.95Y-4.7
X4.95Y-4.75
X4.95Y-4.8
X4.95Y-4.85
X4.95Y-4.9
X4.95Y-4.95
X4.95Y-5.0
X5.0Y-4.4
X5.05Y-4.45
X5.05Y-5.05
X5.1Y-4.5
X5.15Y-4.5
X5.15Y-5.05
X5.2Y-4.55
X5.25Y-4.55
X5.25Y-5.05
X5.9Y-4.6
X5.95Y-4.55
X5.95Y-5.05
X6.0Y-4.65
X6.05Y-4.55
X6.05Y-5.05
X6.1Y-4.7
X6.15Y-4.55
X6.15Y-5.05
X6.2Y-4.75
X6.25Y-4.55
X6.25Y-5.05
X6.3Y-4.8
X6.35Y-4.55
X6.35Y-5.05
X6.4Y-4.85
X6.45Y-4.55
X6.45Y-5.05
X6.5Y-4.9
X6.55Y-4.55
X6.55Y-5.05
X6.6Y-4.95
X6.65Y-4.55
X6.65Y-5.05
X6.7Y-5.0
X6.75Y-4.55
X6.75Y-5.05
T2
X5.5016Y-0.8173
X5.5016Y-0.9157
X5.5016Y-1.0142
X5.5016Y-1.1126
X5.5016Y-1.211
X5.5016Y-1.3094
X5.5016Y-1.4079
X5.5016Y-1.5063
X5.5016Y-1.6047
X5.5016Y-1.7031
X5.5016Y-1.8016
X5.5016Y-1.9984
X5.5016Y-2.0969
X5.5016Y-2.1953
X5.5016Y-2.2937
X5.5016Y-2.3921
X5.5016Y-2.4906
X5.5016Y-2.589
X5.5016Y-2.6874
X5.5016Y-2.7858
X5.5016Y-2.8843
X5.5016Y-2.9827
X5.5016Y-3.0811
X5.5016Y-3.1795
X5.6984Y-0.8173
X5.6984Y-0.9157
X5.6984Y-1.0142
X5.6984Y-1.1126
X5.6984Y-1.211
X5.6984Y-1.3094
X5.6984Y-1.4079
X5.6984Y-1.5063
X5.6984Y-1.6047
X5.6984Y-1.7031
X5.6984Y-1.8016
X5.6984Y-1.9984
X5.6984Y-2.0969
X5.6984Y-2.0969
X5.6984Y-2.1953
X5.6984Y-2.2937
X5.6984Y-2.3921
X5.6984Y-2.4906
X5.6984Y-2.589
X5.6984Y-2.6874
X5.6984Y-2.7858
X5.6984Y-2.8843
X5.6984Y-2.9827
X5.6984Y-3.0811
X5.6984Y-3.1795
T3
X5.3Y-5.65
X5.3Y-5.75
X5.4Y-5.65
X5.4Y-5.75
X4.9Y-5.65
X4.85Y-0.9
X4.85Y-1.0
X4.85Y-1.1
X4.85Y-1.2
X4.85Y-1.3
X4.85Y-1.4
X4.85Y-1.5
X4.85Y-1.6
X4.85Y-1.7
X4.85Y-1.8
X4.85Y-1.9
X4.85Y-2.0
X4.85Y-2.1
X4.85Y-2.2
X4.85Y-2.3
X4.85Y-2.4
X4.85Y-2.5
X4.85Y-2.6
X4.85Y-2.7
X4.85Y-2.8
X4.85Y-2.9
X4.85Y-3.0
X4.85Y-3.1
X4.85Y-3.2
X5.7Y-5.65
X5.7Y-5.75
X5.8Y-5.65
X5.8Y-5.75
X6.35Y-0.9
X6.35Y-1.0
X6.35Y-1.1
X6.35Y-1.2
X6.35Y-1.3
X6.35Y-1.4
X6.35Y-1.5
X6.35Y-1.6
X6.35Y-1.7
X6.35Y-1.8
X6.35Y-1.9
X6.35Y-2.0
X6.35Y-2.1
X6.35Y-2.2
X6.35Y-2.3
X6.35Y-2.4
X6.35Y-2.5
X6.35Y-2.6
X6.35Y-2.7
X6.35Y-2.8
X6.35Y-2.9
X6.35Y-3.0
X6.35Y-3.1
X6.35Y-3.2
X4.5Y-5.8
X4.6Y-5.8
X4.7Y-5.8
X4.5Y-5.65
X4.6Y-5.65
X4.7Y-5.65
X4.9Y-5.8
T0
M30
