M48
; DRILL file {KiCad 5.1.6} date Wed Sep  2 19:31:08 2020
; FORMAT={-:-/ absolute / inch / decimal}
; #@! TF.CreationDate,2020-09-02T19:31:08-05:00
; #@! TF.GenerationSoftware,Kicad,Pcbnew,5.1.6
; #@! TF.FileFunction,Plated,1,2,PTH
FMAT,2
INCH
T1C0.0157
T2C0.0300
%
G90
G05
T1
X3.937Y-4.0846
X4.1831Y-4.0846
X5.2657Y-5.9055
X5.3642Y-6.0039
X5.4134Y-4.1339
X5.4142Y-6.0524
X5.4626Y-5.1673
X5.5118Y-3.5925
X5.6594Y-3.5925
X5.6594Y-4.7736
X5.6594Y-4.9213
X5.7094Y-6.0047
X5.8079Y-6.0047
X6.0Y-4.9173
X6.0039Y-5.0689
X6.1Y-4.8205
X6.1024Y-5.0689
X6.9882Y-0.6398
X7.0374Y-0.689
X7.0866Y-0.7382
X7.0866Y-2.3622
X7.0866Y-2.4606
X7.0866Y-2.5098
X7.0866Y-2.6083
X7.0866Y-2.6575
X7.1358Y-0.7874
X7.185Y-0.8366
X7.185Y-2.2638
X7.2343Y-0.8858
X7.2835Y-0.935
X7.2835Y-2.2638
X7.3327Y-0.9843
X7.3327Y-2.2638
X7.4311Y-1.0827
X7.4311Y-2.2638
X7.4803Y-1.1319
X7.4803Y-2.2638
X7.5295Y-1.1811
X7.5787Y-1.2303
X7.628Y-1.2795
X7.6772Y-1.3287
X7.7264Y-1.378
X7.7756Y-1.4272
X7.8248Y-1.4764
X7.874Y-1.5256
X7.9232Y-1.5748
T2
X4.3205Y-1.8016
X4.3205Y-1.9984
X4.4189Y-1.8016
X4.4189Y-1.9984
X4.5173Y-1.8016
X4.5173Y-1.9984
X4.6157Y-1.8016
X4.6157Y-1.9984
X4.7142Y-1.8016
X4.7142Y-1.9984
X4.8126Y-1.8016
X4.8126Y-1.9984
X4.911Y-1.8016
X4.911Y-1.9984
X5.0094Y-1.8016
X5.0094Y-1.9984
X5.1079Y-1.8016
X5.1079Y-1.9984
X5.2063Y-1.8016
X5.2063Y-1.9984
X5.3047Y-1.8016
X5.3047Y-1.9984
X5.4031Y-1.8016
X5.4031Y-1.9984
X5.4031Y-1.9984
X5.5016Y-1.8016
X5.5016Y-1.9984
X5.6984Y-1.8016
X5.6984Y-1.9984
X5.7969Y-1.8016
X5.7969Y-1.9984
X5.8953Y-1.8016
X5.8953Y-1.9984
X5.9937Y-1.8016
X5.9937Y-1.9984
X6.0921Y-1.8016
X6.0921Y-1.9984
X6.1906Y-1.8016
X6.1906Y-1.9984
X6.289Y-1.8016
X6.289Y-1.9984
X6.3874Y-1.8016
X6.3874Y-1.9984
X6.4858Y-1.8016
X6.4858Y-1.9984
X6.5843Y-1.8016
X6.5843Y-1.9984
X6.6827Y-1.8016
X6.6827Y-1.9984
X4.6Y-3.3
X4.6Y-4.2
X4.7Y-3.3
X4.7Y-4.2
X4.8Y-3.3
X4.8Y-4.2
X4.9Y-3.3
X4.9Y-4.2
X5.0Y-3.3
X5.0Y-4.2
X5.1Y-3.3
X5.1Y-4.2
X5.2Y-3.3
X5.2Y-4.2
X5.3Y-3.3
X5.3Y-4.2
X5.4Y-3.3
X5.4Y-4.2
X5.7Y-3.3
X5.7Y-4.2
X5.8Y-3.3
X5.8Y-4.2
X5.9Y-3.3
X5.9Y-4.2
X6.0Y-3.3
X6.0Y-4.2
X6.1Y-3.3
X6.1Y-4.2
X6.2Y-3.3
X6.2Y-4.2
X6.3Y-3.3
X6.3Y-4.2
X6.4Y-3.3
X6.4Y-4.2
X6.5Y-3.3
X6.5Y-4.2
T0
M30
